<svg width="35" height="35" viewBox="0 0 35 35" fill="none" xmlns="http://www.w3.org/2000/svg">
<path d="M17.5 0C7.83501 0 0 7.83501 0 17.5C0 27.165 7.83501 35 17.5 35C27.165 35 35 27.165 35 17.5C35 7.83501 27.165 0 17.5 0ZM13.3258 6.44286H24.8315V11.4609L25.5515 10.7431L29.1211 14.3106L20.6915 22.7423L15.4065 24.4598L17.1219 19.1727L22.8983 13.3963V8.36547H14.7357V11.8283H11.0956V26.6345H22.8983V23.443L24.8315 21.5076V28.5571H9.16014V10.4654L13.3258 6.44286ZM18.0148 20.0635L17.1561 22.7081L19.7986 21.8494L18.0148 20.0635Z" fill="#5B5B5B"/>
</svg>
