<svg width="19" height="17" viewBox="0 0 19 17" fill="none" xmlns="http://www.w3.org/2000/svg">
<path fill-rule="evenodd" clip-rule="evenodd" d="M5.11711 0.595C6.28054 0.2822 7.51536 0 8.25492 0C8.99335 0 10.2293 0.2822 11.3927 0.595C12.4304 0.878078 13.4614 1.18605 14.4848 1.51867C15.0738 1.70907 15.5177 2.22473 15.6036 2.86053C16.2428 7.61713 14.7603 11.1418 12.9633 13.4742C12.1975 14.4752 11.2883 15.3538 10.2661 16.0809C9.91066 16.3338 9.53491 16.556 9.14283 16.745C8.84165 16.8855 8.5204 17 8.25492 17C7.98944 17 7.66818 16.8855 7.36701 16.745C6.97484 16.5562 6.59908 16.334 6.24373 16.0809C5.2219 15.3537 4.31311 14.4751 3.54765 13.4742C1.7484 11.1418 0.267066 7.61713 0.906228 2.86053C0.948963 2.55235 1.07672 2.26276 1.27472 2.02528C1.47272 1.78781 1.73287 1.61216 2.02504 1.51867C3.04842 1.18606 4.0794 0.878086 5.11711 0.595ZM8.82938 8.39687C9.19717 8.26013 9.5061 7.99665 9.70236 7.65232C9.89862 7.30798 9.96979 6.9046 9.90345 6.51244C9.83712 6.12028 9.63749 5.76419 9.33934 5.50618C9.04119 5.24818 8.6634 5.10461 8.27179 5.10048C7.88017 5.09635 7.49954 5.23192 7.19619 5.48359C6.89283 5.73525 6.68597 6.08706 6.61164 6.47773C6.53731 6.86841 6.60022 7.2732 6.7894 7.6216C6.97859 7.97001 7.28207 8.23994 7.64699 8.3844C7.62345 8.43312 7.60692 8.48503 7.59791 8.53853L7.22646 10.8052C7.21318 10.8863 7.21745 10.9695 7.23897 11.0487C7.26049 11.128 7.29874 11.2016 7.35107 11.2644C7.4034 11.3272 7.46855 11.3776 7.54199 11.4122C7.61544 11.4468 7.69542 11.4648 7.77638 11.4648H8.7078C8.78909 11.4648 8.86941 11.4468 8.94314 11.412C9.01686 11.3772 9.0822 11.3265 9.13459 11.2633C9.18698 11.2001 9.22514 11.1261 9.24641 11.0464C9.26768 10.9667 9.27154 10.8832 9.25772 10.8018L8.87065 8.53513C8.86276 8.48744 8.84889 8.44098 8.82938 8.39687Z" fill="#545454"/>
</svg>
