<svg width="16" height="16" viewBox="0 0 16 16" fill="none" xmlns="http://www.w3.org/2000/svg">
<path fill-rule="evenodd" clip-rule="evenodd" d="M13.71 7.99969C13.71 8.3027 13.5896 8.59331 13.3753 8.80757C13.1611 9.02183 12.8705 9.1422 12.5674 9.1422L1.14232 9.1422C0.839308 9.1422 0.548705 9.02183 0.334442 8.80757C0.120179 8.59331 -0.000190798 8.3027 -0.000190785 7.99969C-0.000190772 7.69668 0.120179 7.40607 0.334442 7.19181C0.548705 6.97755 0.839308 6.85718 1.14232 6.85718L12.5674 6.85718C12.8705 6.85718 13.1611 6.97755 13.3753 7.19181C13.5896 7.40607 13.71 7.69668 13.71 7.99969Z" fill="#C7C7C7"/>
<path fill-rule="evenodd" clip-rule="evenodd" d="M15.6614 7.19013C15.7678 7.29626 15.8522 7.42234 15.9098 7.56115C15.9674 7.69995 15.9971 7.84875 15.9971 7.99903C15.9971 8.14931 15.9674 8.29812 15.9098 8.43692C15.8522 8.57572 15.7678 8.7018 15.6614 8.80793L8.80634 15.663C8.5918 15.8775 8.30083 15.9981 7.99744 15.9981C7.69404 15.9981 7.40307 15.8775 7.18854 15.663C6.97401 15.4485 6.85348 15.1575 6.85348 14.8541C6.85348 14.5507 6.97401 14.2597 7.18854 14.0452L13.237 7.99903L7.18854 1.95286C7.08231 1.84663 6.99805 1.72052 6.94056 1.58173C6.88307 1.44294 6.85348 1.29418 6.85348 1.14396C6.85348 0.99373 6.88307 0.844974 6.94056 0.706183C6.99805 0.567391 7.08231 0.441283 7.18854 0.335057C7.29477 0.228831 7.42087 0.144567 7.55967 0.0870782C7.69846 0.029589 7.84721 -3.57361e-07 7.99744 -3.49675e-07C8.14767 -3.41989e-07 8.29642 0.029589 8.43521 0.0870782C8.574 0.144567 8.70011 0.228831 8.80634 0.335057L15.6614 7.19013Z" fill="#C7C7C7"/>
</svg>
