<svg width="47" height="47" viewBox="0 0 47 47" fill="none" xmlns="http://www.w3.org/2000/svg">
<path d="M23.5 0C10.5213 0 0 10.5213 0 23.5C0 36.4787 10.5213 47 23.5 47C36.4787 47 47 36.4787 47 23.5C47 10.5213 36.4787 0 23.5 0ZM17.8947 8.65184H33.3452V15.3903L34.312 14.4265L39.1055 19.2171L27.7858 30.5397L20.6887 32.8461L22.9922 25.7462L30.7491 17.9893V11.2336H19.788V15.8837H14.8998V35.7664H30.7491V31.4806L33.3452 28.8816V38.3482H12.3008V14.0535L17.8947 8.65184ZM24.1913 26.9424L23.0381 30.4938L26.5867 29.3406L24.1913 26.9424Z" fill="white"/>
</svg>
