<svg width="401" height="300" viewBox="0 0 401 300" fill="none" xmlns="http://www.w3.org/2000/svg">
<path d="M10.0312 247.399L10.1985 248.234L51.2915 248.179C51.9048 248.234 52.5181 248.234 53.1872 248.234C72.9252 248.179 88.7602 231.578 87.5336 211.578C86.4184 194.42 72.4792 180.494 55.306 179.491C35.2892 178.265 18.6736 194.142 18.7294 213.918V214.587L18.7851 232.97C18.7294 239.544 15.1051 245.282 10.0312 247.399Z" fill="#404040"/>
<path d="M73.1483 251.41L33.282 251.466C15.384 251.521 0.942871 266.005 0.942871 283.888V299.597L105.599 299.43V283.72C105.543 265.838 91.0463 251.354 73.1483 251.41Z" fill="#404040"/>
<path d="M105.989 219.099C105.989 233.249 117.531 244.669 131.693 244.669C145.856 244.669 157.286 233.137 157.286 219.043C157.286 204.894 145.744 193.473 131.637 193.473C117.419 193.473 105.933 204.949 105.989 219.099Z" fill="#404040"/>
<path d="M166.039 212.971C166.095 232.135 181.651 247.621 200.776 247.566C219.957 247.51 235.457 231.968 235.457 212.86C235.401 193.696 219.901 178.21 200.665 178.265C181.54 178.265 165.984 193.808 166.039 212.971Z" fill="#404040"/>
<path d="M220.905 250.797L180.76 250.852C162.75 250.908 148.142 265.504 148.197 283.497V299.318L253.634 299.151V283.33C253.523 265.337 238.914 250.741 220.905 250.797Z" fill="#404040"/>
<path d="M313.517 212.693C313.573 231.856 329.129 247.343 348.254 247.287C367.434 247.231 382.934 231.689 382.879 212.581C382.879 193.418 367.267 177.931 348.142 177.987C329.017 177.987 313.461 193.529 313.517 212.693Z" fill="#404040"/>
<path d="M368.382 250.574L328.181 250.63C310.172 250.686 295.563 265.281 295.619 283.275V299.096L401 298.928V283.107C401 265.114 386.392 250.518 368.382 250.574Z" fill="#404040"/>
<path d="M255.083 246.842C249.508 246.842 244.378 248.791 240.308 251.967C250.623 258.317 257.593 269.626 257.871 282.606L291.772 282.55C291.939 272.077 296.567 262.718 303.815 256.145C299.41 250.463 292.552 246.786 284.746 246.786L255.083 246.842Z" fill="#404040"/>
<path d="M97.793 256.479C105.041 262.997 109.725 272.356 109.948 282.829L143.96 282.773C144.183 269.849 151.097 258.54 161.412 252.134C157.286 248.903 152.156 247.009 146.525 247.009L116.862 247.064C109.056 247.12 102.198 250.797 97.793 256.479Z" fill="#404040"/>
<path d="M267.964 193.306C255.195 194.142 244.769 204.559 243.988 217.316C243.096 232.246 254.916 244.613 269.692 244.558L271.086 244.502L301.752 244.446L301.864 243.833C298.072 242.274 295.34 238.04 295.34 233.026V219.322V218.821C295.285 204.169 282.906 192.359 267.964 193.306Z" fill="#404040"/>
<path d="M76.8283 11.6989L329.073 11.2533C332.586 11.2533 335.485 14.4286 335.485 18.3839L335.764 172.137C339.165 170.522 342.957 169.352 347.027 168.628L346.748 18.3839C346.748 8.24503 338.775 -0.055429 329.073 0.000278781L76.8283 0.445941C67.0708 0.445941 59.1533 8.74641 59.1533 18.8852L59.4321 171.079C63.5024 171.413 67.2938 172.082 70.7508 173.196L70.472 18.8295C70.472 14.93 73.3156 11.6989 76.8283 11.6989Z" fill="#404040"/>
<path d="M177.749 72.5875L139.443 125.9L123.664 111.137L87.7009 160.439L98.4063 169.018L120.876 139.214L141.116 155.592L179.366 102.113L226.536 140.44L284.412 74.9272L318.591 101.11L313.629 14.6514L230.439 32.255L259.377 55.0952L221.128 105.789L177.749 72.5875Z" fill="#0FB953"/>
</svg>
