<svg width="31" height="33" viewBox="0 0 31 33" fill="none" xmlns="http://www.w3.org/2000/svg">
<path d="M15.5059 12.007C14.4122 12.007 13.388 12.4349 12.6125 13.2168C11.8406 13.9987 11.4126 15.0314 11.4126 16.1342C11.4126 17.2369 11.8406 18.2697 12.6125 19.0516C13.388 19.8298 14.4122 20.2613 15.5059 20.2613C16.5997 20.2613 17.6239 19.8298 18.3994 19.0516C19.1713 18.2697 19.5993 17.2369 19.5993 16.1342C19.5993 15.0314 19.1713 13.9987 18.3994 13.2168C18.0207 12.8319 17.5698 12.5268 17.0731 12.3191C16.5764 12.1115 16.0437 12.0054 15.5059 12.007ZM30.5879 20.6928L28.1956 18.6311C28.309 17.9303 28.3675 17.2148 28.3675 16.503C28.3675 15.7912 28.309 15.072 28.1956 14.3749L30.5879 12.3132C30.7686 12.1572 30.898 11.9494 30.9587 11.7175C31.0195 11.4856 31.0088 11.2405 30.9281 11.0149L30.8952 10.919C30.2368 9.06269 29.2502 7.342 27.9834 5.84031L27.9176 5.76286C27.7637 5.58049 27.5587 5.44938 27.3295 5.38684C27.1003 5.32429 26.8577 5.33323 26.6336 5.41248L23.6633 6.47838C22.5659 5.57107 21.3441 4.85556 20.0199 4.35764L19.4456 1.22634C19.4023 0.990446 19.2888 0.773431 19.1202 0.604124C18.9517 0.434817 18.736 0.321233 18.5019 0.278461L18.4031 0.26002C16.5009 -0.0866734 14.4963 -0.0866734 12.5942 0.26002L12.4954 0.278461C12.2613 0.321233 12.0456 0.434817 11.877 0.604124C11.7085 0.773431 11.595 0.990446 11.5516 1.22634L10.9737 4.3724C9.66203 4.87428 8.44013 5.58806 7.35592 6.48575L4.36367 5.41248C4.13968 5.3326 3.89688 5.32334 3.66754 5.38592C3.4382 5.44851 3.23317 5.57998 3.07971 5.76286L3.01387 5.84031C1.74927 7.3436 0.762995 9.06386 0.102099 10.919L0.0691768 11.0149C-0.0954333 11.4759 0.0399129 11.9923 0.409371 12.3132L2.83097 14.397C2.71757 15.0904 2.6627 15.7985 2.6627 16.4993C2.6627 17.2074 2.71757 17.9156 2.83097 18.6016L0.416687 20.6854C0.235966 20.8414 0.106622 21.0492 0.0458532 21.2811C-0.0149152 21.513 -0.00422851 21.7581 0.0764927 21.9837L0.109415 22.0796C0.771513 23.9348 1.7482 25.6498 3.02118 27.1583L3.08703 27.2357C3.24086 27.4181 3.44589 27.5492 3.6751 27.6118C3.9043 27.6743 4.14692 27.6654 4.37099 27.5861L7.36323 26.5128C8.45332 27.4165 9.66778 28.132 10.981 28.6262L11.559 31.7723C11.6023 32.0082 11.7158 32.2252 11.8844 32.3945C12.0529 32.5638 12.2686 32.6774 12.5027 32.7201L12.6015 32.7386C14.5224 33.0871 16.4895 33.0871 18.4104 32.7386L18.5092 32.7201C18.7433 32.6774 18.959 32.5638 19.1275 32.3945C19.2961 32.2252 19.4096 32.0082 19.4529 31.7723L20.0272 28.641C21.3514 28.1394 22.5732 27.4275 23.6706 26.5202L26.6409 27.5861C26.8649 27.666 27.1077 27.6753 27.337 27.6127C27.5664 27.5501 27.7714 27.4186 27.9249 27.2357L27.9907 27.1583C29.2637 25.6424 30.2404 23.9348 30.9025 22.0796L30.9354 21.9837C31.0927 21.5264 30.9574 21.0137 30.5879 20.6928ZM15.5059 22.6181C11.954 22.6181 9.07518 19.7154 9.07518 16.1342C9.07518 12.5529 11.954 9.65026 15.5059 9.65026C19.0579 9.65026 21.9367 12.5529 21.9367 16.1342C21.9367 19.7154 19.0579 22.6181 15.5059 22.6181Z" fill="#E2E2E2"/>
</svg>
