<svg width="360" height="211" viewBox="0 0 360 211" fill="none" xmlns="http://www.w3.org/2000/svg">
<g clip-path="url(#clip0)">
<path d="M292.032 203.534C275.064 203.534 261.24 189.728 261.24 172.729C261.24 155.754 275.04 141.924 292.032 141.924C309 141.924 322.824 155.73 322.824 172.729C322.824 189.704 309 203.534 292.032 203.534ZM292.032 147.974C278.376 147.974 267.288 159.091 267.288 172.729C267.288 186.366 278.4 197.483 292.032 197.483C305.688 197.483 316.776 186.366 316.776 172.729C316.776 159.091 305.664 147.974 292.032 147.974Z" fill="#DAAA49"/>
<path d="M335.52 83.747C322.032 83.747 311.04 72.7504 311.04 59.2568C311.04 45.7632 322.032 34.7666 335.52 34.7666C349.008 34.7666 360 45.7632 360 59.2568C360 72.7744 349.008 83.747 335.52 83.747ZM335.52 40.8171C325.344 40.8171 317.088 49.1006 317.088 59.2568C317.088 69.4371 325.368 77.6965 335.52 77.6965C345.696 77.6965 353.952 69.413 353.952 59.2568C353.976 49.0766 345.696 40.8171 335.52 40.8171Z" fill="#89BBE1"/>
<path d="M28.296 101.25C12.696 101.25 0 88.5491 0 72.9426C0 57.3361 12.696 44.6348 28.296 44.6348C43.896 44.6348 56.592 57.3361 56.592 72.9426C56.616 88.5491 43.92 101.25 28.296 101.25ZM28.296 50.6613C16.008 50.6613 6.024 60.6494 6.024 72.9426C6.024 85.2357 16.008 95.2239 28.296 95.2239C40.584 95.2239 50.568 85.2357 50.568 72.9426C50.568 60.6494 40.584 50.6613 28.296 50.6613Z" fill="#8BC3B6"/>
<path d="M67.3921 211C55.8961 211 46.5361 201.636 46.5361 190.135C46.5361 178.634 55.8961 169.271 67.3921 169.271C78.8881 169.271 88.2481 178.634 88.2481 190.135C88.2481 201.66 78.9121 211 67.3921 211ZM67.3921 175.321C59.2081 175.321 52.5601 181.972 52.5601 190.159C52.5601 198.347 59.2081 204.997 67.3921 204.997C75.5761 204.997 82.2241 198.347 82.2241 190.159C82.2241 181.972 75.5761 175.321 67.3921 175.321Z" fill="#D16E52"/>
<path d="M92.1358 152.103C86.4718 152.103 81.8638 147.493 81.8638 141.827C81.8638 136.161 86.4718 131.551 92.1358 131.551C97.7998 131.551 102.408 136.161 102.408 141.827C102.384 147.493 97.7758 152.103 92.1358 152.103ZM92.1358 137.601C89.8078 137.601 87.9118 139.498 87.9118 141.827C87.9118 144.156 89.8078 146.053 92.1358 146.053C94.4638 146.053 96.3598 144.156 96.3598 141.827C96.3598 139.498 94.4638 137.601 92.1358 137.601Z" fill="#DAAA49"/>
<path d="M12.9871 126.203C16.0701 125.475 17.9792 122.384 17.2512 119.3C16.5233 116.215 13.4338 114.306 10.3508 115.034C7.26782 115.762 5.3587 118.853 6.08669 121.937C6.81467 125.021 9.90409 126.931 12.9871 126.203Z" fill="#89BBE1"/>
<path d="M171.741 195.7C174.824 194.972 176.733 191.881 176.005 188.797C175.277 185.713 172.187 183.803 169.104 184.531C166.021 185.259 164.112 188.35 164.84 191.434C165.568 194.519 168.657 196.428 171.741 195.7Z" fill="#D16E52"/>
<path d="M318.11 121.484C321.193 120.756 323.102 117.665 322.374 114.581C321.646 111.497 318.557 109.587 315.474 110.315C312.391 111.043 310.482 114.134 311.21 117.218C311.938 120.303 315.027 122.213 318.11 121.484Z" fill="#D16E52"/>
<path d="M275.671 6.80276C276.271 3.69058 274.234 0.681823 271.123 0.0825219C268.013 -0.516779 265.005 1.52032 264.406 4.6325C263.807 7.74468 265.843 10.7534 268.954 11.3527C272.065 11.952 275.072 9.91494 275.671 6.80276Z" fill="#8BC3B6"/>
<path d="M80.8748 10.6226C83.5697 8.95654 84.4044 5.42034 82.739 2.72428C81.0736 0.0282212 77.5389 -0.806759 74.844 0.859304C72.149 2.52537 71.3144 6.06157 72.9798 8.75763C74.6451 11.4537 78.1799 12.2887 80.8748 10.6226Z" fill="#D16E52"/>
<path d="M181.892 36.0703C184.132 33.8293 184.132 30.196 181.892 27.9551C179.652 25.7141 176.021 25.7141 173.781 27.9551C171.541 30.196 171.541 33.8294 173.781 36.0703C176.021 38.3113 179.652 38.3113 181.892 36.0703Z" fill="#DAAA49"/>
<path d="M74.4988 156.937C76.7389 154.696 76.7389 151.062 74.4988 148.821C72.2588 146.58 68.627 146.58 66.387 148.821C64.147 151.062 64.147 154.696 66.387 156.937C68.627 159.177 72.2588 159.177 74.4988 156.937Z" fill="#8BC3B6"/>
<path d="M214.272 205.214C208.608 205.214 204 200.604 204 194.937C204 189.271 208.608 184.661 214.272 184.661C219.936 184.661 224.544 189.271 224.544 194.937C224.52 200.604 219.936 205.214 214.272 205.214ZM214.272 190.736C211.944 190.736 210.048 192.632 210.048 194.961C210.048 197.29 211.944 199.187 214.272 199.187C216.6 199.187 218.496 197.29 218.496 194.961C218.496 192.632 216.6 190.736 214.272 190.736Z" fill="#8BC3B6"/>
<path d="M234.635 134.652L231.592 139.853L266.968 160.566L270.011 155.365L234.635 134.652Z" fill="#DAAA49"/>
<path d="M313.12 65.3709L231.471 92.375L233.362 98.0972L315.011 71.093L313.12 65.3709Z" fill="#89BBE1"/>
<path d="M53.7088 76.1858L51.9775 81.958L116.962 101.466L118.694 95.6935L53.7088 76.1858Z" fill="#8BC3B6"/>
<path d="M117.194 130.964L97.7227 135.171L98.9943 141.062L118.466 136.855L117.194 130.964Z" fill="#DAAA49"/>
<path d="M128.507 152.872L81.5132 178.797L84.4338 184.095L131.427 158.17L128.507 152.872Z" fill="#D16E52"/>
<path d="M206.286 169.018L200.795 171.555L208.834 188.972L214.325 186.435L206.286 169.018Z" fill="#8BC3B6"/>
<path d="M135.432 26.4111C141.072 25.9789 146.016 30.2287 146.448 35.8711C146.88 41.5134 142.632 46.4595 136.992 46.8916C131.352 47.3238 126.408 43.0741 125.976 37.4317C125.544 31.7894 129.792 26.8433 135.432 26.4111ZM136.536 40.8651C138.864 40.6971 140.616 38.6562 140.424 36.3272C140.256 33.9983 138.216 32.2455 135.888 32.4376C133.56 32.6057 131.808 34.6465 132 36.9755C132.168 39.3045 134.208 41.0572 136.536 40.8651Z" fill="#89BBE1"/>
<path d="M142.095 42.2106L136.811 45.1523L146.134 61.9153L151.419 58.9736L142.095 42.2106Z" fill="#89BBE1"/>
<path d="M235.992 12.509C239.16 17.2149 237.888 23.6016 233.208 26.7469C228.504 29.9162 222.12 28.6437 218.976 23.9617C215.808 19.2558 217.08 12.8691 221.76 9.7238C226.464 6.57849 232.848 7.82701 235.992 12.509ZM223.968 20.6003C225.264 22.5451 227.904 23.0494 229.824 21.7528C231.768 20.4563 232.272 17.8152 230.976 15.8944C229.68 13.9496 227.04 13.4453 225.12 14.7419C223.2 16.0384 222.672 18.6795 223.968 20.6003Z" fill="#D16E52"/>
<path d="M225.552 26.0994L204.936 61.5382L199.776 58.3929L220.392 22.9541L225.552 26.0994Z" fill="#D16E52"/>
<path d="M232.656 105.621L239.472 105.141C236.592 88.1895 227.064 73.4954 213.696 63.8193L210.12 69.6057C221.712 78.1293 229.992 90.9026 232.656 105.621Z" fill="#D16E52"/>
<path d="M176.16 58.4403C188.856 58.4403 200.592 62.5941 210.12 69.581L213.696 63.7946C203.136 56.1594 190.176 51.6455 176.16 51.6455C162.36 51.6455 149.568 56.0153 139.08 63.4584L143.448 68.6926C152.736 62.2339 164.016 58.4403 176.16 58.4403Z" fill="#8BC3B6"/>
<path d="M143.448 68.6932L139.08 63.459C132.24 68.309 126.384 74.4796 121.896 81.5625L127.776 84.972C131.88 78.5853 137.208 73.039 143.448 68.6932Z" fill="#DAAA49"/>
<path d="M239.472 105.14L232.656 105.62C233.256 108.957 233.592 112.391 233.592 115.92C233.592 147.613 207.816 173.376 176.16 173.376C144.48 173.376 118.728 147.589 118.728 115.92C118.728 104.54 122.064 93.9271 127.776 84.9954L121.896 81.5859C115.584 91.5261 111.936 103.291 111.936 115.92C111.936 151.359 140.736 180.171 176.16 180.171C211.584 180.171 240.384 151.359 240.384 115.92C240.384 112.247 240.072 108.645 239.472 105.14Z" fill="#89BBE1"/>
<path d="M77.8558 188.071C77.8558 187.782 77.6638 187.518 77.3518 187.446L75.0958 186.942L76.3438 184.997C76.5118 184.733 76.4638 184.421 76.2478 184.205L73.3198 181.276C73.1038 181.06 72.7678 181.036 72.5278 181.18L70.5838 182.428L70.0798 180.171C70.0078 179.883 69.7678 179.667 69.4558 179.667H65.3038C65.0158 179.667 64.7518 179.859 64.6798 180.171L64.1758 182.428L62.2318 181.18C61.9918 181.012 61.6558 181.06 61.4398 181.276L58.5118 184.205C58.2958 184.421 58.2718 184.733 58.4158 184.997L59.6638 186.942L57.4078 187.446C57.1198 187.518 56.9038 187.758 56.9038 188.071V192.224C56.9038 192.512 57.0958 192.776 57.4078 192.849L59.6638 193.353L58.4158 195.298C58.2478 195.562 58.2958 195.874 58.5118 196.09L61.4398 199.019C61.6558 199.235 61.9918 199.259 62.2318 199.115L64.1758 197.867L64.6798 200.124C64.7518 200.412 65.0158 200.628 65.3038 200.628H69.4558C69.7438 200.628 70.0078 200.412 70.0798 200.124L70.5838 197.867L72.5278 199.115C72.7678 199.259 73.1038 199.235 73.3198 199.019L76.2478 196.09C76.4638 195.874 76.4878 195.562 76.3438 195.298L75.0958 193.353L77.3518 192.849C77.6398 192.776 77.8558 192.536 77.8558 192.224V188.071ZM67.3918 194.769H67.3198C64.9678 194.721 63.0478 192.776 63.0478 190.423C63.0478 188.071 64.9678 186.102 67.3198 186.078C67.3438 186.078 67.3678 186.078 67.3918 186.078H67.4158C69.8158 186.078 71.7598 188.047 71.7598 190.448C71.7358 192.825 69.7918 194.769 67.3918 194.769Z" fill="#3F6FA4"/>
<path d="M335.52 46.5312C327.384 46.5312 320.784 51.7174 320.784 58.1041C320.784 64.4907 327.384 69.6769 335.52 69.6769C335.952 69.6769 336.384 69.6529 336.816 69.6289L337.968 72.4381C338.064 72.6542 338.256 72.7982 338.472 72.8462C338.52 72.8462 338.544 72.8462 338.592 72.8462C338.784 72.8462 338.976 72.7742 339.096 72.6301L343.32 67.9242C347.664 65.7873 350.256 62.1378 350.256 58.1041C350.256 51.7414 343.656 46.5312 335.52 46.5312ZM330 61.1053C329.04 61.1053 328.248 60.313 328.248 59.3526C328.248 58.3922 329.04 57.5999 330 57.5999C330.96 57.5999 331.752 58.3922 331.752 59.3526C331.752 60.313 330.96 61.1053 330 61.1053ZM335.568 61.1053C334.608 61.1053 333.816 60.313 333.816 59.3526C333.816 58.3922 334.608 57.5999 335.568 57.5999C336.528 57.5999 337.32 58.3922 337.32 59.3526C337.32 60.313 336.528 61.1053 335.568 61.1053ZM340.872 61.1053C339.912 61.1053 339.12 60.313 339.12 59.3526C339.12 58.3922 339.912 57.5999 340.872 57.5999C341.832 57.5999 342.624 58.3922 342.624 59.3526C342.624 60.313 341.832 61.1053 340.872 61.1053Z" fill="#3F6FA4"/>
<path d="M179.832 149.606L200.736 141.178C201.432 140.89 201.768 140.122 201.528 139.426L201.24 138.609C201.192 138.489 201.216 138.345 201.312 138.225C205.512 132.727 202.632 125.404 202.632 125.404L198.432 114.647C198.432 114.623 198.432 114.623 198.408 114.599C198.336 114.239 197.16 109.101 193.32 109.101C191.112 109.101 189.888 110.061 189.24 110.926C189.024 111.214 188.592 111.142 188.496 110.782C188.232 109.677 187.368 108.285 184.68 107.972C181.704 107.636 180.528 109.293 180.072 110.518C179.952 110.83 179.496 110.878 179.328 110.566C178.368 108.573 176.328 106.268 173.736 107.132C171.96 107.732 171.144 108.861 170.784 109.725C170.64 110.061 170.16 110.061 170.04 109.725L165.744 98.6806C165.744 98.6806 163.68 92.0538 159.36 93.6865C155.064 95.3192 157.368 101.01 157.368 101.01L167.28 127.229C167.424 127.589 167.016 127.925 166.68 127.733L162 124.852C161.976 124.828 161.976 124.828 161.952 124.828C161.616 124.539 156.6 120.266 153.432 123.603C150.288 126.916 153.744 130.542 154.008 130.83C154.032 130.854 154.032 130.854 154.056 130.854L177.552 147.925C177.6 147.973 177.648 148.021 177.672 148.093L178.056 148.934C178.392 149.558 179.16 149.87 179.832 149.606Z" fill="#3F6FA4"/>
<path d="M209.087 153.808L204.383 143.195C204.047 142.427 203.159 142.067 202.391 142.379L179.327 151.671C178.511 152.007 178.127 152.943 178.487 153.76L183.287 164.156C183.623 164.9 184.487 165.26 185.255 164.948L208.223 155.848C209.063 155.536 209.447 154.6 209.087 153.808Z" fill="#3F6FA4"/>
<path d="M152.376 84.1545C152.808 85.259 153.84 85.9313 154.944 85.9313C155.28 85.9313 155.616 85.8593 155.928 85.7392C157.344 85.187 158.064 83.6023 157.512 82.1857L154.632 74.6946C154.08 73.278 152.496 72.5577 151.08 73.1099C149.664 73.6622 148.944 75.2468 149.496 76.6634L152.376 84.1545Z" fill="#3F6FA4"/>
<path d="M139.872 88.7648L147.192 92.0061C147.552 92.1742 147.936 92.2462 148.32 92.2462C149.376 92.2462 150.384 91.646 150.84 90.6135C151.464 89.2209 150.84 87.5883 149.448 86.964L142.128 83.7227C140.736 83.0984 139.104 83.7227 138.48 85.1152C137.856 86.5078 138.504 88.1405 139.872 88.7648Z" fill="#3F6FA4"/>
<path d="M178.631 99.881L171.311 96.6397C169.919 96.0154 168.287 96.6397 167.663 98.0322C167.039 99.4248 167.663 101.058 169.055 101.682L176.376 104.923C176.736 105.091 177.119 105.163 177.503 105.163C178.559 105.163 179.567 104.563 180.023 103.531C180.647 102.114 180.023 100.481 178.631 99.881Z" fill="#3F6FA4"/>
<path d="M150.696 97.6487C150.144 96.2321 148.56 95.5118 147.144 96.064L139.656 98.9452C138.24 99.4975 137.52 101.082 138.072 102.499C138.504 103.603 139.536 104.275 140.64 104.275C140.976 104.275 141.312 104.203 141.624 104.083L149.112 101.202C150.528 100.674 151.248 99.0653 150.696 97.6487Z" fill="#3F6FA4"/>
<path d="M167.832 90.9733C168.264 92.0778 169.296 92.7501 170.4 92.7501C170.736 92.7501 171.072 92.678 171.384 92.558L178.872 89.6768C180.288 89.1245 181.008 87.5399 180.456 86.1233C179.904 84.7067 178.32 83.9864 176.904 84.5386L169.416 87.4198C168 87.9721 167.28 89.5567 167.832 90.9733Z" fill="#3F6FA4"/>
<path d="M153.72 113.71L156.96 106.363C157.584 104.971 156.96 103.338 155.568 102.714C154.176 102.09 152.544 102.714 151.92 104.106L148.68 111.43C148.056 112.822 148.68 114.455 150.072 115.079C150.432 115.247 150.816 115.319 151.2 115.319C152.256 115.343 153.264 114.719 153.72 113.71Z" fill="#3F6FA4"/>
<path d="M162.96 85.9072C163.32 86.0752 163.704 86.1473 164.088 86.1473C165.144 86.1473 166.152 85.547 166.608 84.5146L169.848 77.1915C170.472 75.7989 169.848 74.1663 168.456 73.542C167.064 72.9177 165.432 73.542 164.808 74.9346L161.568 82.2576C160.944 83.6502 161.568 85.2829 162.96 85.9072Z" fill="#3F6FA4"/>
<path d="M298.92 155.489H285.144C283.56 155.489 282.264 156.81 282.264 158.443V187.014C282.264 188.647 283.56 189.968 285.144 189.968H298.92C300.504 189.968 301.8 188.647 301.8 187.014V158.443C301.8 156.81 300.504 155.489 298.92 155.489ZM293.832 187.543C293.832 187.927 293.52 188.239 293.136 188.239H290.952C290.568 188.239 290.256 187.927 290.256 187.543V186.342C290.256 185.958 290.568 185.646 290.952 185.646H293.136C293.52 185.646 293.832 185.958 293.832 186.342V187.543ZM297.744 183.629H286.32C285.552 183.629 284.904 183.005 284.904 182.212V160.195C284.904 159.427 285.528 158.779 286.32 158.779H297.744C298.512 158.779 299.16 159.403 299.16 160.195V182.236C299.136 183.005 298.512 183.629 297.744 183.629Z" fill="#3F6FA4"/>
<path d="M38.3998 68.9813C38.0878 68.9813 37.7758 69.0053 37.4638 69.0533C37.4878 68.7652 37.5118 68.4771 37.5118 68.1889C37.5118 63.4349 33.6478 59.5693 28.8958 59.5693C25.1518 59.5693 21.8158 62.0184 20.6878 65.5718C20.4238 65.5478 20.1838 65.5478 19.9438 65.5478C14.9038 65.5478 10.7998 69.6535 10.7998 74.6957C10.7998 79.7378 14.9038 83.8435 19.9438 83.8435H38.4238C42.5278 83.8435 45.8398 80.5061 45.8398 76.4244C45.8158 72.3187 42.4798 68.9813 38.3998 68.9813Z" fill="#3F6FA4"/>
</g>
<defs>
<clipPath id="clip0">
<rect width="360" height="211" fill="white"/>
</clipPath>
</defs>
</svg>
