<svg width="40" height="31" viewBox="0 0 40 31" fill="none" xmlns="http://www.w3.org/2000/svg">
<path d="M1 5.8C1 4.52696 1.50571 3.30606 2.40589 2.40589C3.30606 1.50571 4.52696 1 5.8 1H17.8L22.6 5.8H34.6C35.873 5.8 37.0939 6.30571 37.9941 7.20589C38.8943 8.10606 39.4 9.32696 39.4 10.6V25C39.4 26.273 38.8943 27.4939 37.9941 28.3941C37.0939 29.2943 35.873 29.8 34.6 29.8H5.8C4.52696 29.8 3.30606 29.2943 2.40589 28.3941C1.50571 27.4939 1 26.273 1 25V5.8Z" fill="white"/>
<path d="M20.2 13V22.6V13Z" fill="white"/>
<path d="M5.8 1V0.5V1ZM17.8 1L18.1536 0.646447L18.0071 0.5H17.8V1ZM22.6 5.8L22.2464 6.15355L22.3929 6.3H22.6V5.8ZM34.6 5.8V5.3V5.8ZM1 25H0.5H1ZM15.4 17.3C15.1239 17.3 14.9 17.5239 14.9 17.8C14.9 18.0761 15.1239 18.3 15.4 18.3V17.3ZM25 18.3C25.2761 18.3 25.5 18.0761 25.5 17.8C25.5 17.5239 25.2761 17.3 25 17.3V18.3ZM20.7 13C20.7 12.7239 20.4761 12.5 20.2 12.5C19.9239 12.5 19.7 12.7239 19.7 13H20.7ZM19.7 22.6C19.7 22.8761 19.9239 23.1 20.2 23.1C20.4761 23.1 20.7 22.8761 20.7 22.6H19.7ZM1.5 5.8C1.5 4.65957 1.95303 3.56585 2.75944 2.75944L2.05233 2.05233C1.05839 3.04628 0.5 4.39435 0.5 5.8H1.5ZM2.75944 2.75944C3.56585 1.95303 4.65957 1.5 5.8 1.5V0.5C4.39435 0.5 3.04628 1.05839 2.05233 2.05233L2.75944 2.75944ZM5.8 1.5H17.8V0.5H5.8V1.5ZM17.4464 1.35355L22.2464 6.15355L22.9536 5.44645L18.1536 0.646447L17.4464 1.35355ZM22.6 6.3H34.6V5.3H22.6V6.3ZM34.6 6.3C35.7404 6.3 36.8342 6.75303 37.6406 7.55944L38.3477 6.85233C37.3537 5.85839 36.0056 5.3 34.6 5.3V6.3ZM37.6406 7.55944C38.447 8.36585 38.9 9.45957 38.9 10.6H39.9C39.9 9.19435 39.3416 7.84628 38.3477 6.85233L37.6406 7.55944ZM38.9 10.6V25H39.9V10.6H38.9ZM38.9 25C38.9 26.1404 38.447 27.2342 37.6406 28.0406L38.3477 28.7477C39.3416 27.7537 39.9 26.4056 39.9 25H38.9ZM37.6406 28.0406C36.8341 28.847 35.7404 29.3 34.6 29.3V30.3C36.0056 30.3 37.3537 29.7416 38.3477 28.7477L37.6406 28.0406ZM34.6 29.3H5.8V30.3H34.6V29.3ZM5.8 29.3C4.65957 29.3 3.56585 28.847 2.75944 28.0406L2.05233 28.7477C3.04628 29.7416 4.39435 30.3 5.8 30.3V29.3ZM2.75944 28.0406C1.95303 27.2342 1.5 26.1404 1.5 25H0.5C0.5 26.4056 1.05839 27.7537 2.05233 28.7477L2.75944 28.0406ZM1.5 25V5.8H0.5V25H1.5ZM15.4 18.3H25V17.3H15.4V18.3ZM19.7 13V22.6H20.7V13H19.7Z" fill="#3F3F3F"/>
</svg>
