<svg width="60" height="60" viewBox="0 0 60 60" fill="none" xmlns="http://www.w3.org/2000/svg">
<path d="M53.834 15.5833L43.334 21.5V13.3333C43.334 12.4493 42.9828 11.6014 42.3577 10.9763C41.7326 10.3512 40.8847 10 40.0006 10H10.0007C8.23254 10 6.53685 10.7024 5.28661 11.9526C4.03636 13.2029 3.33398 14.8986 3.33398 16.6667V43.3333C3.33398 45.1014 4.03636 46.7971 5.28661 48.0474C6.53685 49.2976 8.23254 50 10.0007 50H40.0006C40.8847 50 41.7326 49.6488 42.3577 49.0237C42.9828 48.3986 43.334 47.5507 43.334 46.6667V38.4667L53.834 44.3833C54.1034 44.5593 54.4143 44.6614 54.7356 44.6791C55.0569 44.6969 55.3772 44.6297 55.6644 44.4845C55.9515 44.3392 56.1954 44.121 56.3714 43.8516C56.5475 43.5822 56.6495 43.2713 56.6673 42.95V17C56.6468 16.6801 56.5427 16.3712 56.3656 16.1041C56.1884 15.837 55.9443 15.621 55.6576 15.4777C55.371 15.3343 55.0517 15.2687 54.7317 15.2872C54.4117 15.3057 54.1022 15.4078 53.834 15.5833Z" fill="#EB6A74"/>
</svg>
