<svg width="74" height="74" viewBox="0 0 74 74" fill="none" xmlns="http://www.w3.org/2000/svg">
<path d="M37 74C31.9896 74 27.196 73.0244 22.6191 71.0732C18.0423 69.1221 14.1038 66.4964 10.8037 63.1963C7.50358 59.8962 4.87793 55.9577 2.92676 51.3809C0.975586 46.804 0 42.0104 0 37C0 31.9896 0.975586 27.196 2.92676 22.6191C4.87793 18.0423 7.50358 14.1038 10.8037 10.8037C14.1038 7.50358 18.0423 4.87793 22.6191 2.92676C27.196 0.975586 31.9896 0 37 0C42.0104 0 46.804 0.975586 51.3809 2.92676C55.9577 4.87793 59.8962 7.50358 63.1963 10.8037C66.4964 14.1038 69.1221 18.0423 71.0732 22.6191C73.0244 27.196 74 31.9896 74 37C74 42.0104 73.0244 46.804 71.0732 51.3809C69.1221 55.9577 66.4964 59.8962 63.1963 63.1963C59.8962 66.4964 55.9577 69.1221 51.3809 71.0732C46.804 73.0244 42.0104 74 37 74ZM21.1738 21.1738L17.7051 18.1387C17.1751 18.1387 16.5488 18.1989 15.8262 18.3193C15.1035 18.4398 14.4531 18.5 13.875 18.5C13.8268 18.4518 13.3932 17.5605 12.5742 15.8262C7.27474 21.9447 4.625 29.0026 4.625 37C4.625 37.1445 4.63704 37.3372 4.66113 37.5781C4.68522 37.819 4.69727 37.9876 4.69727 38.084C4.98633 38.373 5.69694 38.915 6.8291 39.71C7.96126 40.5049 8.76823 41.1432 9.25 41.625H13.875C14.0195 41.5286 14.152 41.4564 14.2725 41.4082C14.3929 41.36 14.5254 41.3118 14.6699 41.2637C14.1882 40.7337 13.4775 39.9508 12.5381 38.915C11.5986 37.8792 10.888 37.1204 10.4062 36.6387C10.599 35.5306 10.8639 33.8564 11.2012 31.6162C11.5384 29.376 11.7793 27.7018 11.9238 26.5938C16.0671 24.8594 19.1504 23.5827 21.1738 22.7637V21.1738ZM35.6992 9.39453C35.0247 9.10547 34.3984 8.8405 33.8203 8.59961C33.6758 8.21419 33.5794 7.92513 33.5312 7.73242C33.2422 8.64779 32.7845 10.0208 32.1582 11.8516C32.3509 11.8997 32.6279 11.9479 32.9893 11.9961C33.3506 12.0443 33.6276 12.0924 33.8203 12.1406H35.6992V9.39453ZM35.4102 43.4316C35.1693 43.6725 35.0007 43.8652 34.9043 44.0098C34.3262 45.0215 33.5072 46.5632 32.4473 48.6348C31.3874 50.7064 30.5924 52.248 30.0625 53.2598C30.737 54.2715 31.7607 55.8132 33.1338 57.8848C34.5068 59.9564 35.5306 61.498 36.2051 62.5098C42.4681 62.8952 47.2135 63.1842 50.4414 63.377C50.5378 64.5814 50.9232 65.4004 51.5977 65.834C55.9818 63.6178 59.6914 60.5466 62.7266 56.6201C65.7617 52.6937 67.7611 48.2975 68.7246 43.4316C67.8092 43.2389 66.8096 42.974 65.7256 42.6367C64.6416 42.2995 63.8587 42.0706 63.377 41.9502C62.8952 41.8298 61.9437 41.7093 60.5225 41.5889C59.1012 41.4684 57.6198 41.5527 56.0781 41.8418C55.5 41.89 55.1266 41.5166 54.958 40.7217C54.7894 39.9268 54.7051 39.1077 54.7051 38.2646C54.7051 37.4216 54.6087 36.9759 54.416 36.9277C53.3561 36.735 51.2122 36.9157 47.9844 37.4697C44.7565 38.0238 42.6126 38.2044 41.5527 38.0117C40.9264 38.5898 38.8789 40.3965 35.4102 43.4316ZM39.6738 7.22656C39.5293 8.1901 39.2764 9.63542 38.915 11.5625C38.5537 13.4896 38.2767 14.959 38.084 15.9707C38.3249 15.9225 38.7223 15.8623 39.2764 15.79C39.8304 15.7178 40.2279 15.6816 40.4688 15.6816C40.3242 15.5853 40.1556 15.4889 39.9629 15.3926C40.6855 15.1517 41.2155 14.959 41.5527 14.8145C40.7337 11.4421 40.1074 8.91276 39.6738 7.22656ZM48.0566 6.57617C47.9603 7.10612 47.9121 7.85286 47.9121 8.81641C47.9121 9.77995 47.6712 11.0566 47.1895 12.6465C47.2376 12.7428 47.334 12.8392 47.4785 12.9355C48.4421 12.8392 50.056 12.6706 52.3203 12.4297C52.3203 11.418 52.8262 10.4062 53.8379 9.39453C52.0072 8.28646 50.0801 7.34701 48.0566 6.57617ZM57.0898 11.6348C56.9935 11.8275 56.8249 12.0924 56.584 12.4297C57.4993 12.5742 58.1016 12.6947 58.3906 12.791C57.8125 12.2611 57.3789 11.8757 57.0898 11.6348ZM59.041 13.3691C58.8965 13.6582 58.6676 14.0918 58.3545 14.6699C58.0413 15.248 57.8125 15.6816 57.668 15.9707C56.2708 16.0189 54.3919 16.0911 52.0312 16.1875L51.7422 13.7305C51.6458 13.7786 51.4772 13.8389 51.2363 13.9111C50.9954 13.9834 50.8027 14.0195 50.6582 14.0195V17.5605C49.6465 17.6569 48.0928 17.8014 45.9971 17.9941C43.9014 18.1868 42.3477 18.3314 41.3359 18.4277C40.9987 18.9095 40.6374 19.4395 40.252 20.0176C41.5527 22.8118 42.5404 24.9076 43.2148 26.3047C42.2513 26.5456 40.276 27.0755 37.2891 27.8945V30.3516C37.2891 30.4479 37.3252 30.5924 37.3975 30.7852C37.4697 30.9779 37.5299 31.1224 37.5781 31.2188C38.3971 31.6042 39.6738 32.1823 41.4082 32.9531C43.1426 33.724 44.4434 34.3262 45.3105 34.7598L46.9004 32.8086C46.8522 32.3268 46.7318 31.568 46.5391 30.5322C46.3464 29.4964 46.2018 28.7135 46.1055 28.1836C46.25 28.0872 46.4788 27.9548 46.792 27.7861C47.1051 27.6175 47.334 27.485 47.4785 27.3887C48.7793 27.0033 49.7669 26.7383 50.4414 26.5938C51.0677 27.6055 51.9469 29.0508 53.0791 30.9297C54.2113 32.8086 54.9219 33.9889 55.2109 34.4707C55.6445 34.0853 56.2467 33.4951 57.0176 32.7002C57.7884 31.9053 58.3665 31.3151 58.752 30.9297C56.1504 29.099 54.4401 27.9186 53.6211 27.3887C53.6693 27.0033 53.7656 26.4492 53.9102 25.7266H56.584C59.2819 28.0391 62.0521 30.3997 64.8945 32.8086C64.9427 32.8086 64.9909 32.7725 65.0391 32.7002C65.0872 32.6279 65.1354 32.5918 65.1836 32.5918C64.9909 32.2064 64.3646 31.026 63.3047 29.0508C63.3047 29.0026 63.377 28.9062 63.5215 28.7617L63.8105 28.4727H66.7734C66.8216 28.4245 67.2311 28.2077 68.002 27.8223C66.3639 22.2337 63.377 17.416 59.041 13.3691Z" fill="#C1C1C1"/>
</svg>
