<svg width="86" height="81" viewBox="0 0 86 81" fill="none" xmlns="http://www.w3.org/2000/svg">
<path d="M19.4038 80.3068C17.3294 81.3709 14.9756 79.5061 15.3947 77.1254L19.8552 51.7062L0.922471 33.671C-0.845585 31.9836 0.0733739 28.8989 2.44332 28.5657L28.7653 24.8253L40.5022 1.5719C41.5609 -0.523968 44.4253 -0.523968 45.4839 1.5719L57.2208 24.8253L83.5428 28.5657C85.9128 28.8989 86.8317 31.9836 85.0637 33.671L66.131 51.7062L70.5914 77.1254C71.0106 79.5061 68.6568 81.3709 66.5824 80.3068L42.985 68.183L19.3984 80.3068H19.4038Z" fill="#BBBBBB"/>
<path d="M19.4038 80.3068C17.3294 81.3709 14.9756 79.5061 15.3947 77.1254L19.8552 51.7062L0.922471 33.671C-0.845585 31.9836 0.0733739 28.8989 2.44332 28.5657L28.7653 24.8253L40.5022 1.5719C41.5609 -0.523968 44.4253 -0.523968 45.4839 1.5719L57.2208 24.8253L83.5428 28.5657C85.9128 28.8989 86.8317 31.9836 85.0637 33.671L66.131 51.7062L70.5914 77.1254C71.0106 79.5061 68.6568 81.3709 66.5824 80.3068L42.985 68.183L19.3984 80.3068H19.4038Z" fill="#B53B3B"/>
</svg>
