<svg width="111" height="110" viewBox="0 0 111 110" fill="none" xmlns="http://www.w3.org/2000/svg">
<ellipse cx="55.5" cy="55" rx="55.5" ry="55" fill="#313131"/>
<path d="M85.9975 26.9734L46.1016 70.6655L96.2744 47.2888C94.8727 39.6495 91.3014 32.5896 85.9975 26.9734ZM56.3785 14.0003C51.0205 13.9785 45.7142 15.0608 40.7826 17.1812L35.4636 62.8345L62.1801 14.4923C60.3677 14.1233 58.4339 14.0003 56.3785 14.0003ZM96.6389 49.7385L49.1256 76.6617L93.7364 71.2771C95.7918 66.2615 97 60.8734 97 55.1232C97 53.2884 96.8785 51.4503 96.6389 49.7385ZM79.1091 89.1462C84.399 85.4708 88.7835 80.6137 91.924 74.95L50.2157 83.273L79.1091 89.1462ZM64.7215 14.8579L41.5083 65.8924L84.6678 25.5042C79.1091 20.2425 72.3389 16.4466 64.7215 14.8579ZM59.8851 96C64.2601 95.6526 68.5487 94.5779 72.5785 92.8191L49.1256 90.0038L59.8851 96ZM19.3851 38.2346C17.5118 42.4091 16.3665 46.8803 16 51.4503L22.2876 62.8311L19.3851 38.2346ZM37.276 18.7734C31.5613 21.8749 26.6689 26.3249 23.0133 31.7464L28.9364 61.731L37.276 18.7734Z" fill="white"/>
</svg>
