<svg width="110" height="110" viewBox="0 0 110 110" fill="none" xmlns="http://www.w3.org/2000/svg">
<circle cx="55" cy="55" r="55" fill="#313131"/>
<path d="M55 97.5834C31.5273 97.5834 12.5 78.7427 12.5 55.5001C12.5 32.2575 31.5273 13.4167 55 13.4167C78.4727 13.4167 97.5 32.2575 97.5 55.5001C97.5 78.7427 78.4727 97.5834 55 97.5834ZM55 89.1667C64.0174 89.1667 72.6654 85.6197 79.0416 79.306C85.4179 72.9923 89 64.429 89 55.5001C89 46.5711 85.4179 38.0079 79.0416 31.6942C72.6654 25.3804 64.0174 21.8334 55 21.8334C45.9826 21.8334 37.3346 25.3804 30.9584 31.6942C24.5821 38.0079 21 46.5711 21 55.5001C21 64.429 24.5821 72.9923 30.9584 79.306C37.3346 85.6197 45.9826 89.1667 55 89.1667ZM40.125 63.9167H63.5C64.0636 63.9167 64.6041 63.6951 65.0026 63.3005C65.4011 62.9058 65.625 62.3706 65.625 61.8126C65.625 61.2545 65.4011 60.7193 65.0026 60.3247C64.6041 59.9301 64.0636 59.7084 63.5 59.7084H46.5C43.6821 59.7084 40.9796 58.6 38.987 56.6269C36.9944 54.6539 35.875 51.9779 35.875 49.1876C35.875 46.3973 36.9944 43.7213 38.987 41.7482C40.9796 39.7752 43.6821 38.6667 46.5 38.6667H50.75V30.2501H59.25V38.6667H69.875V47.0834H46.5C45.9364 47.0834 45.3959 47.3051 44.9974 47.6997C44.5989 48.0943 44.375 48.6295 44.375 49.1876C44.375 49.7456 44.5989 50.2808 44.9974 50.6755C45.3959 51.0701 45.9364 51.2917 46.5 51.2917H63.5C66.3179 51.2917 69.0204 52.4002 71.013 54.3732C73.0056 56.3463 74.125 59.0223 74.125 61.8126C74.125 64.6029 73.0056 67.2789 71.013 69.2519C69.0204 71.225 66.3179 72.3334 63.5 72.3334H59.25V80.7501H50.75V72.3334H40.125V63.9167Z" fill="white"/>
</svg>
