<svg width="26" height="25" viewBox="0 0 26 25" fill="none" xmlns="http://www.w3.org/2000/svg">
<path d="M13 0C5.82068 0 0 5.6306 0 12.5755C0 18.8512 4.75328 24.053 10.9692 25V16.2114H7.66687V12.5755H10.9692V9.80481C10.9692 6.65057 12.9103 4.91121 15.8785 4.91121C17.3008 4.91121 18.7908 5.15646 18.7908 5.15646V8.24907H17.1474C15.5353 8.24907 15.0308 9.21999 15.0308 10.2148V12.5729H18.6335L18.0575 16.2089H15.0308V24.9975C21.2467 24.0555 26 18.8525 26 12.5755C26 5.6306 20.1793 0 13 0V0Z" fill="black"/>
</svg>
