<svg width="25" height="25" viewBox="0 0 25 25" fill="none" xmlns="http://www.w3.org/2000/svg">
<path d="M5.59663 25H0.413408V8.30893H5.59663V25ZM3.00189 6.03214C1.34469 6.03214 0 4.65893 0 3.00179C0 2.20566 0.31627 1.44215 0.879234 0.879203C1.4422 0.316259 2.20574 0 3.00189 0C3.79804 0 4.56159 0.316259 5.12455 0.879203C5.68752 1.44215 6.00379 2.20566 6.00379 3.00179C6.00379 4.65893 4.65909 6.03214 3.00189 6.03214ZM24.9955 25H19.8239V16.875C19.8239 14.9384 19.7846 12.4554 17.1292 12.4554C14.4344 12.4554 14.021 14.5589 14.021 16.7357V25H8.84317V8.30893H13.8139V10.5857H13.8862C14.5782 9.27411 16.2684 7.89018 18.79 7.89018C24.0357 7.89018 25 11.3446 25 15.8313V25H24.9955Z" fill="black"/>
</svg>
