<svg width="32" height="25" viewBox="0 0 32 25" fill="none" xmlns="http://www.w3.org/2000/svg">
<path d="M32 2.96969C30.8232 3.45785 29.5426 3.80918 28.2235 3.94602C29.593 3.16361 30.6186 1.92753 31.1078 0.469689C29.8227 1.20486 28.4149 1.72037 26.9468 1.99336C26.3332 1.36254 25.591 0.859999 24.7666 0.517054C23.9423 0.174109 23.0532 -0.00189269 22.155 1.53491e-05C18.5209 1.53491e-05 15.5981 2.83285 15.5981 6.30918C15.5981 6.79735 15.6597 7.28551 15.7596 7.75519C10.318 7.48152 5.46473 4.98152 2.23819 1.15386C1.65028 2.11952 1.3422 3.21904 1.34599 4.33803C1.34599 6.52738 2.50354 8.45785 4.26872 9.5932C3.22847 9.55381 2.21259 9.27885 1.30369 8.79069V8.86835C1.30369 11.9342 3.55727 14.4749 6.56075 15.0592C5.99681 15.2 5.41668 15.2721 4.83403 15.2737C4.40716 15.2737 4.00336 15.233 3.59572 15.1775C4.42639 17.6775 6.84533 19.4933 9.72575 19.5525C7.47218 21.25 4.64944 22.2485 1.58443 22.2485C1.03449 22.2485 0.52686 22.23 0 22.1709C2.90734 23.9645 6.35693 25 10.0719 25C22.132 25 28.7312 15.392 28.7312 7.05253C28.7312 6.77886 28.7312 6.50519 28.7119 6.23152C29.9887 5.33285 31.1078 4.21969 32 2.96969Z" fill="black"/>
</svg>
