<svg width="35" height="25" viewBox="0 0 35 25" fill="none" xmlns="http://www.w3.org/2000/svg">
<path d="M34.2695 3.90526C34.0703 3.14904 33.6797 2.45941 33.1367 1.9054C32.5938 1.35138 31.9176 0.952409 31.1758 0.748408C28.4453 1.51859e-07 17.5 0 17.5 0C17.5 0 6.55469 -1.51859e-07 3.82422 0.744427C3.08211 0.947767 2.40556 1.34652 1.86252 1.90064C1.31948 2.45475 0.92906 3.14473 0.730469 3.90127C-1.49012e-07 6.6879 0 12.5 0 12.5C0 12.5 -1.49012e-07 18.3121 0.730469 21.0947C1.13281 22.6314 2.32031 23.8416 3.82422 24.2516C6.55469 25 17.5 25 17.5 25C17.5 25 28.4453 25 31.1758 24.2516C32.6836 23.8416 33.8672 22.6314 34.2695 21.0947C35 18.3121 35 12.5 35 12.5C35 12.5 35 6.6879 34.2695 3.90526ZM14.0234 17.8344V7.16561L23.0859 12.4602L14.0234 17.8344Z" fill="black"/>
</svg>
