<svg width="325" height="236" viewBox="0 0 325 236" fill="none" xmlns="http://www.w3.org/2000/svg">
<g clip-path="url(#clip0)">
<path d="M181.407 232.264C245.993 232.264 298.351 180.27 298.351 116.132C298.351 51.994 245.993 0 181.407 0C116.82 0 64.4629 51.994 64.4629 116.132C64.4629 180.27 116.82 232.264 181.407 232.264Z" fill="#F2F2F2"/>
<path d="M217.148 72.5438C233.944 72.5438 247.56 59.0226 247.56 42.3433C247.56 25.664 233.944 12.1428 217.148 12.1428C200.352 12.1428 186.736 25.664 186.736 42.3433C186.736 59.0226 200.352 72.5438 217.148 72.5438Z" fill="#FF6584"/>
<path d="M89.6562 22.5674L90.4876 39.7774C93.9334 44.3414 97.6508 49.5642 101.32 55.2563L101.844 29.0006L102.133 29.1841C97.8887 26.1734 93.5746 23.87 89.3672 22.4078L89.6562 22.5674Z" fill="#0FB953"/>
<path d="M89.8809 38.9779L89.0758 22.307C84.3506 20.7067 79.7658 20.1758 75.5749 20.918C75.3569 20.9566 75.1426 21.0011 74.9287 21.0462C75.9936 22.1806 82.199 28.8806 89.8809 38.9779Z" fill="#0FB953"/>
<path d="M128.035 59.5101L128.314 59.7744C127.169 57.6355 125.955 55.5559 124.672 53.5356L116.858 84.07L116.726 83.9542C117.291 85.2937 117.828 86.6241 118.337 87.9454L128.035 59.5101Z" fill="#0FB953"/>
<path d="M116.131 42.1508L116.419 42.3795C112.287 37.5184 107.59 33.1603 102.427 29.3962L101.893 56.1522C105.307 61.5028 108.364 66.7731 111.063 71.963L116.131 42.1508Z" fill="#0FB953"/>
<path d="M59.4453 50.5042C59.8843 55.0139 60.7811 59.4681 62.1218 63.7988L108.721 68.572C106.289 64.1171 103.777 59.9375 101.339 56.1283L59.5638 50.868L59.4453 50.5042Z" fill="#0FB953"/>
<path d="M63.8158 68.7929L63.6903 68.4298L110.853 72.5928C110.283 71.4861 109.707 70.394 109.125 69.3167L62.3534 64.5259L62.2305 64.1622C62.7019 65.6887 63.2303 67.2323 63.8158 68.7929Z" fill="#0FB953"/>
<path d="M124.141 52.8989L124.425 53.1472C122.086 49.4952 119.503 46.004 116.691 42.6975L111.555 72.9128C113.335 76.3837 114.947 79.8057 116.392 83.1788L124.141 52.8989Z" fill="#0FB953"/>
<path d="M123.144 103.372C125.018 111.427 125.728 119.043 125.259 126.136C127.897 120.555 137.927 97.4368 134.177 75.8911L123.144 103.372Z" fill="#0FB953"/>
<path d="M72.4688 85.0771C74.9643 88.4153 77.6823 91.5836 80.6044 94.5609L80.4906 94.1573L122.443 102.728C121.352 98.2304 119.99 93.8018 118.364 89.4661L72.4688 85.0771Z" fill="#0FB953"/>
<path d="M89.5197 39.2589C81.2056 28.3364 74.6455 21.4329 74.5511 21.3341L74.6592 21.104C68.35 22.5264 63.8954 26.7892 61.4443 32.9592L89.5197 39.2589Z" fill="#0FB953"/>
<path d="M118.726 88.9702C118.88 89.3811 119.038 89.7929 119.188 90.202C120.628 94.1217 121.853 98.1164 122.857 102.168L133.786 74.9477L134.053 75.2136C133.361 71.4258 132.189 67.7404 130.564 64.2453C129.919 62.8749 129.244 61.5251 128.539 60.196L118.726 88.9702Z" fill="#0FB953"/>
<path d="M100.85 55.3693C97.2188 49.7444 93.5435 44.5844 90.137 40.0741L61.4175 33.6296L61.3201 33.2697C59.5273 37.9584 58.8717 43.7184 59.4147 50.1519L100.85 55.3693Z" fill="#0FB953"/>
<path d="M122.613 103.443L80.9668 94.9351C98.4838 112.792 122.991 126.487 124.556 127.353C125.285 119.485 124.458 111.404 122.613 103.443Z" fill="#0FB953"/>
<path d="M118.069 88.733L118.078 88.7058C116.076 83.4633 113.79 78.3317 111.232 73.3333L63.9531 69.1599C64.7558 71.2707 65.663 73.4042 66.6747 75.5602C68.1482 78.6319 69.9008 81.5636 71.9107 84.3191L118.069 88.733Z" fill="#0FB953"/>
<path d="M178.21 80.5358L167.796 94.3174C167.519 100.015 167.027 106.392 166.197 113.1L183.464 93.2099L183.569 93.5343C182.234 88.5274 180.391 84.0209 178.089 80.2299L178.21 80.5358Z" fill="#0FB953"/>
<path d="M167.843 93.3177L177.93 79.968C175.319 75.7426 172.128 72.4297 168.424 70.347C168.231 70.2386 168.038 70.1371 167.844 70.0364C167.935 71.5846 168.411 80.6752 167.843 93.3177Z" fill="#0FB953"/>
<path d="M184.041 133.297L184.086 133.678C184.578 131.305 184.979 128.934 185.288 126.566L159.658 145.134L159.631 144.961C159.205 146.35 158.765 147.715 158.309 149.055L184.041 133.297Z" fill="#0FB953"/>
<path d="M186.022 112.387L186.097 112.746C186.037 106.385 185.219 100.053 183.66 93.8838L166.064 114.153C165.257 120.436 164.226 126.431 162.972 132.138L186.022 112.387Z" fill="#0FB953"/>
<path d="M136.998 82.9167C134.44 86.6682 132.269 90.6667 130.521 94.8515L163.345 128.043C164.333 123.071 165.083 118.261 165.652 113.783L136.856 83.272L136.998 82.9167Z" fill="#0FB953"/>
<path d="M128.618 99.7717L128.755 99.4125L162.405 132.491C162.677 131.278 162.935 130.072 163.178 128.873L130.232 95.559L130.371 95.201C129.754 96.6753 129.17 98.1989 128.618 99.7717Z" fill="#0FB953"/>
<path d="M185.288 125.739L185.347 126.11C185.891 121.816 186.143 117.491 186.102 113.163L162.739 133.182C161.881 136.982 160.925 140.639 159.871 144.152L185.288 125.739Z" fill="#0FB953"/>
<path d="M152.102 163.981C148.373 171.372 144.028 177.688 139.111 182.854C144.727 180.226 167.3 168.773 178.251 149.804L152.102 163.981Z" fill="#0FB953"/>
<path d="M124.823 117.794C124.601 121.945 124.66 126.107 124.998 130.251L125.17 129.868L151.976 163.041C154.024 158.886 155.82 154.612 157.353 150.243L124.823 117.794Z" fill="#0FB953"/>
<path d="M167.384 93.305C167.996 79.6265 167.377 70.1544 167.368 70.0185L167.599 69.9098C161.826 67.0091 155.657 67.4708 149.807 70.6705L167.384 93.305Z" fill="#0FB953"/>
<path d="M157.949 150.091C157.805 150.505 157.662 150.922 157.514 151.332C156.106 155.264 154.484 159.116 152.654 162.872L178.555 148.83L178.59 149.204C180.49 145.848 181.954 142.267 182.947 138.546C183.331 137.082 183.678 135.615 183.989 134.145L157.949 150.091Z" fill="#0FB953"/>
<path d="M165.764 112.89C166.58 106.258 167.064 99.9554 167.337 94.3241L149.356 71.1701L149.513 70.8312C145.12 73.3068 140.916 77.3279 137.202 82.6268L165.764 112.89Z" fill="#0FB953"/>
<path d="M151.649 163.7L125.038 130.769C127.06 155.617 137.14 181.688 137.789 183.345C143.404 177.748 147.957 171 151.649 163.7Z" fill="#0FB953"/>
<path d="M157.596 149.492L157.621 149.477C159.446 144.171 160.982 138.771 162.222 133.301L128.488 100.141C127.751 102.275 127.079 104.493 126.474 106.794C125.636 110.093 125.103 113.461 124.881 116.857L157.596 149.492Z" fill="#0FB953"/>
<path d="M74.3792 98.9355L80.5266 115.048C85.2243 118.33 90.3853 122.156 95.6463 126.444L87.9721 101.313L88.3041 101.399C83.331 99.8381 78.5111 98.9717 74.0547 98.8726L74.3792 98.9355Z" fill="#0FB953"/>
<path d="M79.7018 114.473L73.7472 98.8657C68.7552 98.7942 64.2297 99.6966 60.4751 101.689C60.2798 101.793 60.0898 101.901 59.9004 102.009C61.2662 102.761 69.2532 107.228 79.7018 114.473Z" fill="#0FB953"/>
<path d="M122.378 122.289L122.726 122.454C120.971 120.772 119.169 119.167 117.32 117.639L119.393 149.077L119.231 149.007C120.185 150.108 121.11 151.208 122.006 152.308L122.378 122.289Z" fill="#0FB953"/>
<path d="M105.653 109.434L105.998 109.563C100.556 106.208 94.7329 103.505 88.6504 101.51L96.4705 127.12C101.383 131.16 105.93 135.234 110.113 139.341L105.653 109.434Z" fill="#0FB953"/>
<path d="M54.3428 134.778C56.164 138.932 58.4032 142.893 61.0263 146.6L106.829 136.835C103.129 133.345 99.44 130.141 95.9358 127.267L54.5687 135.087L54.3428 134.778Z" fill="#0FB953"/>
<path d="M64.1941 150.829L63.9618 150.522L110.111 140.005C109.225 139.127 108.337 138.265 107.447 137.419L61.4752 147.22L61.2451 146.912C62.1686 148.219 63.1516 149.524 64.1941 150.829Z" fill="#0FB953"/>
<path d="M116.617 117.197L116.964 117.346C113.603 114.59 110.06 112.063 106.356 109.782L110.876 140.094C113.65 142.848 116.248 145.608 118.672 148.372L116.617 117.197Z" fill="#0FB953"/>
<path d="M131.379 165.505C135.669 172.589 138.715 179.614 140.476 186.504C141.248 180.387 143.591 155.322 133.319 135.982L131.379 165.505Z" fill="#0FB953"/>
<path d="M77.4902 163.66C80.9026 166.069 84.4736 168.248 88.1794 170.182L87.9455 169.833L130.512 165.107C128.074 161.165 125.4 157.371 122.504 153.746L77.4902 163.66Z" fill="#0FB953"/>
<path d="M79.4446 114.852C68.1379 107.016 59.7502 102.464 59.6297 102.399L59.6609 102.147C54.1034 105.437 51.1937 110.858 50.7832 117.478L79.4446 114.852Z" fill="#0FB953"/>
<path d="M122.694 153.164C122.97 153.507 123.248 153.85 123.517 154.193C126.107 157.479 128.516 160.902 130.731 164.448L132.653 135.205L132.989 135.376C131.152 131.986 128.89 128.841 126.257 126.016C125.217 124.91 124.155 123.834 123.071 122.786L122.694 153.164Z" fill="#0FB953"/>
<path d="M95.2363 126.695C90.0321 122.46 84.9307 118.681 80.2872 115.437L50.9681 118.124L50.7635 117.811C50.5178 122.821 51.6872 128.5 54.2061 134.452L95.2363 126.695Z" fill="#0FB953"/>
<path d="M130.896 165.735L88.6416 170.426C110.859 182.032 138.429 187.534 140.186 187.877C138.431 180.171 135.129 172.739 130.896 165.735Z" fill="#0FB953"/>
<path d="M121.996 153.14L121.997 153.111C118.46 148.74 114.69 144.561 110.701 140.593L64.4385 151.136C65.8589 152.897 67.3857 154.647 69.0189 156.387C71.3764 158.856 73.9557 161.107 76.7248 163.11L121.996 153.14Z" fill="#0FB953"/>
<path d="M324.999 197.393C324.999 211.321 252.85 236 163.849 236C74.8478 236 2.69824 211.321 2.69824 197.393C2.69824 183.465 74.8478 185.562 163.849 185.562C252.85 185.562 324.999 183.465 324.999 197.393Z" fill="#3F3D56"/>
<path opacity="0.1" d="M324.999 197.393C324.999 211.321 252.85 236 163.849 236C74.8478 236 2.69824 211.321 2.69824 197.393C2.69824 183.465 74.8478 185.562 163.849 185.562C252.85 185.562 324.999 183.465 324.999 197.393Z" fill="black"/>
<path d="M163.849 222.612C252.85 222.612 324.999 211.321 324.999 197.393C324.999 183.465 252.85 172.174 163.849 172.174C74.8478 172.174 2.69824 183.465 2.69824 197.393C2.69824 211.321 74.8478 222.612 163.849 222.612Z" fill="#3F3D56"/>
<path opacity="0.1" d="M191.789 171.034C191.789 186.208 170.49 181.515 144.411 181.515C118.333 181.515 97.3506 186.208 97.3506 171.034C97.3506 155.86 118.647 152.56 144.725 152.56C170.803 152.56 191.789 155.86 191.789 171.034Z" fill="black"/>
<path d="M191.789 167.298C191.789 182.472 170.49 177.778 144.411 177.778C118.333 177.778 97.3506 182.472 97.3506 167.298C97.3506 152.124 118.647 148.823 144.725 148.823C170.803 148.823 191.789 152.124 191.789 167.298Z" fill="#3F3D56"/>
<path d="M107.895 125.545C108.469 125.139 109.102 124.824 109.772 124.61C114.022 123.04 118.475 122.077 122.997 121.751C126.93 121.474 131.192 121.803 134.263 124.257C134.741 124.605 135.132 125.058 135.406 125.579C135.792 126.407 135.675 127.37 135.55 128.274C135.522 128.625 135.433 128.968 135.287 129.289C134.874 130.07 133.856 130.344 132.972 130.25C132.088 130.156 131.259 129.785 130.387 129.613C129.848 129.519 129.302 129.464 128.754 129.448L123.287 129.154C119.887 128.971 116.442 128.791 113.107 129.473C112.08 129.656 111.088 129.995 110.165 130.479C109.404 130.904 108.891 131.513 108.184 130.729C106.942 129.351 106.255 126.818 107.895 125.545Z" fill="#2F2E41"/>
<path d="M116.368 127.946C116.368 127.946 123.723 124.672 126.512 128.449C129.302 132.227 124.991 130.716 124.991 130.716L120.172 132.227L114.847 131.22L116.368 127.946Z" fill="#F2F2F2"/>
<path d="M116.748 125.553C116.748 125.553 117.762 130.338 117.002 131.597C116.241 132.857 121.313 134.619 121.313 134.619L126.131 132.605C126.131 132.605 124.863 124.798 126.131 123.287L116.748 125.553Z" fill="#FFB9B9"/>
<path opacity="0.1" d="M116.748 125.553C116.748 125.553 117.762 130.338 117.002 131.597C116.241 132.857 121.313 134.619 121.313 134.619L126.131 132.605C126.131 132.605 124.863 124.798 126.131 123.287L116.748 125.553Z" fill="black"/>
<path d="M111.997 183.088C112.679 184.492 113.239 185.951 113.673 187.449C113.68 187.499 113.697 187.546 113.724 187.589C113.751 187.631 113.787 187.667 113.829 187.695C113.871 187.722 113.918 187.741 113.967 187.749C114.017 187.757 114.068 187.755 114.117 187.743L118.627 187.738C119.184 187.737 119.931 187.559 119.925 187.007C119.921 186.618 119.521 186.376 119.224 186.124C118.398 185.424 118.183 184.271 117.841 183.248C117.176 181.277 115.895 179.568 114.185 178.371C113.953 178.191 113.687 178.06 113.403 177.987C113.117 177.946 112.826 177.962 112.546 178.033C111.754 178.192 108.797 178.735 109.356 179.879C109.596 180.371 110.488 180.884 110.861 181.344C111.297 181.887 111.677 182.471 111.997 183.088Z" fill="#575A89"/>
<path d="M127.681 177.893C127.522 178.225 127.345 178.548 127.151 178.861C126.498 179.931 125.726 180.93 125.118 182.026C124.708 182.695 124.454 183.448 124.377 184.228C124.342 184.618 124.402 185.011 124.552 185.373C124.702 185.735 124.937 186.056 125.238 186.31C125.892 186.803 126.79 186.826 127.604 186.711C128.418 186.596 129.227 186.364 130.047 186.425C129.77 184.872 131.089 183.505 131.419 181.963C131.512 181.529 131.525 181.08 131.65 180.655C131.783 180.266 131.954 179.89 132.16 179.534C132.817 178.263 133.281 176.904 133.538 175.499C133.569 175.329 129.528 175.301 129.149 175.382C127.966 175.636 128.139 176.919 127.681 177.893Z" fill="#575A89"/>
<path d="M96.5376 153.494C95.3841 155.287 95.6499 157.662 96.46 159.632C97.2702 161.601 98.5597 163.342 99.4422 165.281C100.005 166.516 100.399 167.827 101.033 169.028C101.818 170.516 102.963 171.828 103.49 173.424C103.825 174.441 103.902 175.556 104.446 176.48C104.774 176.974 105.149 177.437 105.566 177.86C106.737 179.192 107.616 180.752 108.147 182.439C108.644 180.97 110.132 180.006 111.66 179.688C113.188 179.37 114.772 179.586 116.317 179.803C115.455 178.476 114.584 177.133 114.07 175.639C113.573 174.193 113.426 172.656 113.092 171.165C112.405 168.109 110.938 165.29 109.485 162.51L116.95 161.922C118.169 161.8 119.394 161.755 120.618 161.787C122.545 161.877 124.433 162.346 126.349 162.563C128.266 162.779 130.293 162.723 132.001 161.832C128.735 166.486 127.034 172.046 127.142 177.717C127.872 177.155 128.719 176.763 129.621 176.568C130.524 176.374 131.459 176.382 132.357 176.593C133.256 176.804 134.096 177.211 134.816 177.786C135.535 178.36 136.116 179.088 136.516 179.914C139.442 175.944 139.094 170.417 141.412 166.07C141.889 165.176 142.473 164.343 142.988 163.47C143.96 161.716 144.792 159.89 145.477 158.007C146.125 156.36 146.778 154.528 146.157 152.871C145.898 152.242 145.522 151.668 145.048 151.178C143.711 149.714 141.849 148.631 139.859 148.586C136.803 148.516 134.279 150.765 131.599 152.224C128.4 153.912 124.781 154.658 121.169 154.372C117.487 154.113 113.971 152.916 110.464 151.862C108.709 151.311 106.925 150.854 105.121 150.494C103.617 150.213 102.184 150.524 100.702 150.906C99.0883 151.322 97.4664 152.051 96.5376 153.494Z" fill="#2F2E41"/>
<path d="M128.413 120.768C128.412 122.772 127.61 124.692 126.183 126.109C124.757 127.525 122.823 128.322 120.806 128.323C120.352 128.324 119.9 128.284 119.454 128.203C118.03 127.947 116.709 127.294 115.646 126.32C114.583 125.345 113.821 124.09 113.451 122.701C113.081 121.312 113.118 119.847 113.556 118.478C113.995 117.109 114.818 115.892 115.928 114.971C117.038 114.049 118.39 113.462 119.825 113.276C121.259 113.091 122.718 113.316 124.028 113.925C125.339 114.533 126.448 115.5 127.224 116.712C128.001 117.925 128.414 119.332 128.413 120.768Z" fill="#FFB9B9"/>
<path d="M116.368 127.946C116.368 127.946 117.763 128.575 118.27 129.079C118.777 129.583 120.299 132.353 122.835 130.59C125.371 128.827 125.624 127.82 126.385 127.82C127.146 127.82 128.16 129.331 128.16 129.331L135.134 150.107C133.254 152.214 131.076 154.038 128.667 155.522C124.61 158.04 119.791 159.299 117.509 158.292C115.227 157.285 110.916 156.529 110.155 154.514C109.394 152.5 108.126 146.456 108.126 146.456L111.676 131.094L116.368 127.946Z" fill="#F2F2F2"/>
<path d="M115.389 148.958C115.942 147.773 116.022 146.43 116.069 145.124C116.144 143.831 116.109 142.533 115.966 141.245C115.741 139.561 115.189 137.938 114.84 136.274C114.534 134.815 114.385 133.328 114.396 131.837C114.401 131.157 114.451 130.442 114.824 129.871C115.085 129.474 115.492 129.165 115.654 128.719C115.973 127.845 115.185 126.929 114.322 126.569C113.27 126.177 112.119 126.131 111.039 126.438C109.967 126.745 108.932 127.166 107.951 127.692C107.209 128.007 106.526 128.445 105.933 128.987C105.146 129.796 104.8 130.923 104.52 132.013C104.297 132.886 104.098 133.796 104.268 134.68C104.544 136.116 105.723 137.196 106.352 138.518C107.082 140.054 107.032 141.843 106.742 143.516C106.452 145.189 105.937 146.825 105.778 148.516C105.619 150.206 105.863 152.023 106.929 153.35C107.364 153.891 108.543 155.173 109.339 155.028C109.964 154.914 110.87 153.547 111.373 153.114C112.828 151.863 114.554 150.75 115.389 148.958Z" fill="#2F2E41"/>
<path d="M128.675 127.124C128.698 128.529 128.074 129.864 127.341 131.065C126.608 132.267 125.746 133.403 125.206 134.701C124.535 136.326 124.398 138.12 124.814 139.828C124.969 140.409 125.156 140.982 125.374 141.543L126.763 145.328C126.95 145.923 127.222 146.489 127.569 147.008C127.883 147.405 128.252 147.757 128.664 148.054C129.72 148.9 130.934 149.529 132.237 149.905C133.549 150.277 134.949 150.198 136.21 149.68C136.344 144.549 137.174 139.459 138.678 134.549C138.955 133.642 139.259 132.688 139.045 131.765C138.805 130.73 137.968 129.954 137.173 129.245C134.741 127.076 132.067 124.798 128.811 124.506C126.927 124.337 128.659 126.109 128.675 127.124Z" fill="#2F2E41"/>
<path d="M112.033 156.404C112.226 156.779 112.346 157.187 112.537 157.563C112.819 158.068 113.167 158.532 113.572 158.945C115.267 160.812 117.34 162.672 119.869 162.785C120.121 162.808 120.374 162.776 120.612 162.692C120.826 162.583 121.009 162.424 121.147 162.229C121.285 162.033 121.372 161.807 121.402 161.57C121.581 160.595 121.147 159.622 120.713 158.729C119.773 156.794 118.714 154.81 116.953 153.562C116.073 152.964 115.068 152.571 114.014 152.413C112.96 152.256 111.883 152.338 110.865 152.653C109.948 152.933 108.426 153.423 109.641 154.255C110.562 154.885 111.499 155.365 112.033 156.404Z" fill="#FFB9B9"/>
<path d="M122.967 131.769C122.703 131.061 122.298 130.413 121.777 129.863C121.251 129.422 120.628 129.109 119.959 128.949C119.091 128.703 118.194 128.575 117.292 128.569C116.218 128.563 114.972 128.849 114.516 129.814C114.154 130.581 114.435 131.489 114.8 132.255C114.955 132.651 115.215 133 115.551 133.263C116.014 133.574 116.613 133.564 117.163 133.668C118.014 133.883 118.82 134.246 119.544 134.74L121.425 135.869L124.656 137.809C124.571 137.757 124.601 135.557 124.502 135.196C124.182 134.035 123.463 132.869 122.967 131.769Z" fill="#FFB9B9"/>
<path d="M113.554 186.879C112.798 187.9 112.95 189.358 112.28 190.436C111.7 191.371 110.606 191.861 109.88 192.689C109.648 192.964 109.441 193.259 109.262 193.57C108.589 194.691 108.041 196.127 108.705 197.253C109.238 198.159 110.36 198.514 111.389 198.755C112.689 199.06 114.04 199.304 115.355 199.071C116.671 198.838 117.956 198.038 118.425 196.796C118.517 196.483 118.627 196.176 118.753 195.876C119.466 194.482 121.702 194.467 122.432 193.082C122.942 192.113 122.473 190.941 122.004 189.951L120.571 186.928C120.095 185.925 118.168 186.502 117.163 186.261C115.852 185.948 114.497 185.602 113.554 186.879Z" fill="#2F2E41"/>
<path d="M124.637 184.282C124.051 184.741 123.602 185.351 123.341 186.046C122.632 187.671 122.388 189.452 122.152 191.207C122.017 191.905 122.003 192.621 122.111 193.324C122.416 194.757 123.724 195.813 125.132 196.251C126.54 196.689 128.05 196.622 129.523 196.55C129.999 196.562 130.471 196.467 130.904 196.271C131.644 195.866 131.934 194.913 131.807 194.082C131.68 193.252 131.223 192.513 130.776 191.8C130.329 191.088 129.872 190.349 129.743 189.519C129.528 188.123 130.136 186.073 129.272 184.81C128.406 183.543 125.793 183.478 124.637 184.282Z" fill="#2F2E41"/>
<path d="M128.223 116.831C128.087 116.379 127.789 115.993 127.385 115.745C127.406 115.261 127.346 114.777 127.208 114.313C126.748 112.96 125.656 113.038 124.626 112.44C124.18 112.18 124.207 111.951 123.975 111.525C123.67 110.966 123.213 110.503 122.657 110.19C121.996 109.772 121.299 109.341 120.517 109.288C118.875 109.177 117.615 110.711 116.046 111.204C115.354 111.421 114.61 111.43 113.914 111.635C113.219 111.84 112.525 112.33 112.421 113.043C112.373 113.372 112.458 113.71 112.409 114.039C112.313 114.694 111.735 115.152 111.348 115.69C110.492 116.88 110.59 118.561 111.274 119.856C111.418 120.124 111.583 120.38 111.768 120.623C111.825 121.235 112.002 121.83 112.289 122.374C112.973 123.669 114.15 124.636 115.38 125.44C115.28 125.011 115.219 124.573 115.198 124.133C115.181 123.986 115.2 123.837 115.254 123.7C115.391 123.415 115.753 123.34 116.029 123.184C116.6 122.861 116.825 122.147 116.841 121.495C116.858 120.842 116.718 120.188 116.787 119.539C116.79 119.39 116.824 119.243 116.888 119.107C116.951 118.972 117.042 118.851 117.156 118.753C117.367 118.633 117.608 118.576 117.85 118.589C119.021 118.541 120.245 118.52 121.278 117.97C121.611 117.75 121.969 117.57 122.345 117.434C123.223 117.206 124.12 117.817 124.626 118.565C125.132 119.313 125.384 120.203 125.851 120.976C126.318 121.748 127.125 122.437 128.027 122.346C128.078 122.346 128.128 122.335 128.175 122.315C128.221 122.294 128.263 122.264 128.297 122.227C128.336 122.157 128.353 122.078 128.346 121.999L128.397 118.572C128.439 117.986 128.38 117.398 128.223 116.831Z" fill="#2F2E41"/>
<path d="M104.145 134.753C103.42 135.817 102.583 136.839 102.184 138.061C101.949 138.78 101.876 139.539 101.706 140.275C101.141 142.727 99.5072 144.904 99.343 147.414C99.2855 147.972 99.3679 148.535 99.583 149.053C100.052 150.065 101.173 150.599 102.243 150.935C103.313 151.27 104.462 151.512 105.316 152.235C105.746 152.644 106.136 153.093 106.481 153.575C107.874 155.296 109.748 156.57 111.868 157.236C111.701 156.09 111.622 154.709 112.545 154C113.044 153.617 113.711 153.549 114.34 153.495L117.311 153.24C115.33 151.331 113.146 149.642 110.798 148.201C109.976 147.697 109.082 147.165 108.707 146.282C108.513 145.712 108.432 145.111 108.47 144.511C108.449 142.316 108.262 140.126 107.91 137.96C107.665 136.455 107.341 134.965 106.971 133.486C106.867 133.071 106.252 131.208 105.496 131.644C105.318 131.747 105.151 132.928 105.047 133.173C104.799 133.728 104.497 134.257 104.145 134.753Z" fill="#2F2E41"/>
<path d="M138.368 130.734L139.582 133.24C140.166 134.271 140.432 135.449 140.347 136.629L140.419 144.146C140.475 145.151 140.391 146.158 140.17 147.14C140.094 147.463 139.952 147.768 139.751 148.034C139.546 148.263 139.303 148.457 139.034 148.608C136.737 150.033 133.759 150.843 131.333 149.649C130.777 149.354 130.249 149.012 129.754 148.625C128.787 147.914 127.806 147.189 127.082 146.234C126.325 145.235 125.891 144.038 125.382 142.894C124.468 140.843 123.287 138.919 121.869 137.172C121.634 136.941 121.481 136.641 121.434 136.316C121.419 135.657 122.206 135.333 122.82 135.082C123.868 134.654 124.857 133.827 125.033 132.715C127.263 135.619 129.724 138.687 133.242 139.748C133.298 139.783 133.361 139.803 133.427 139.805C133.492 139.807 133.557 139.791 133.614 139.759C133.671 139.728 133.719 139.681 133.752 139.625C133.785 139.569 133.802 139.505 133.801 139.44C134.001 138.61 134.071 137.755 134.217 136.914C134.485 135.383 135.001 133.905 135.746 132.538C136.162 131.771 137.512 128.965 138.368 130.734Z" fill="#2F2E41"/>
<path opacity="0.1" d="M108.257 137.981C108.291 139.76 107.91 141.523 107.145 143.132C106.946 143.487 106.8 143.87 106.71 144.267C106.577 145.113 107.062 145.933 107.616 146.589C108.71 147.881 110.129 148.861 111.729 149.43" fill="black"/>
<path opacity="0.1" d="M134.607 136.482C134.428 136.96 134.59 137.488 134.728 137.978C135.128 139.401 135.314 140.875 135.282 142.352C135.287 142.378 135.287 142.405 135.279 142.43C135.272 142.456 135.258 142.479 135.24 142.498C135.221 142.517 135.198 142.531 135.173 142.539C135.147 142.547 135.12 142.548 135.094 142.543C134.509 142.579 133.839 142.583 133.441 142.154" fill="black"/>
<path opacity="0.1" d="M234.078 207.668C255.895 207.668 273.582 203.904 273.582 199.261C273.582 194.619 255.895 190.855 234.078 190.855C212.261 190.855 194.574 194.619 194.574 199.261C194.574 203.904 212.261 207.668 234.078 207.668Z" fill="black"/>
<path d="M253.83 124.227L251.008 127.029L253.83 129.831L256.651 124.227H253.83Z" fill="#A0616A"/>
<path d="M254.466 99.9295C255.258 100.251 255.635 101.131 255.933 101.927L259.593 111.695L260.306 113.596C260.655 114.528 261.005 115.461 261.3 116.412C261.487 117.013 261.652 117.62 261.795 118.234C261.944 118.759 262.001 119.306 261.964 119.85C261.865 120.448 261.645 121.021 261.317 121.533C260.044 123.735 258.23 125.582 256.045 126.902C255.919 126.095 255.591 125.332 255.091 124.682C254.592 124.033 253.936 123.519 253.184 123.186L255.077 122.153C255.477 121.966 255.837 121.704 256.137 121.381C256.321 121.129 256.451 120.843 256.52 120.54C256.59 120.238 256.597 119.924 256.542 119.618C256.429 119.008 256.24 118.414 255.98 117.849C255.345 116.275 254.794 114.669 254.33 113.037C254.055 112.072 253.802 111.081 253.257 110.236C252.763 109.47 252.047 108.857 251.598 108.064C250.914 106.856 250.931 105.367 251.234 104.014C251.489 102.871 251.917 101.771 252.277 100.658C252.559 99.7838 253.618 99.585 254.466 99.9295Z" fill="#D0CDE1"/>
<path d="M237.014 73.8337C235.558 74.3218 234.24 75.4635 233.942 76.96C233.803 77.6537 233.888 78.3749 233.772 79.0726C233.502 80.6906 232.223 81.9263 231.044 83.0741C229.864 84.2219 228.646 85.5556 228.56 87.1934C228.465 88.9869 229.775 90.6671 229.549 92.4488C229.285 94.5188 227.084 95.8601 226.539 97.8754C226.176 99.2211 226.621 100.671 227.354 101.859C228.75 104.123 231.137 105.66 233.678 106.484C236.22 107.308 238.926 107.481 241.6 107.509C244.855 107.543 248.389 107.266 250.835 105.132C252.232 103.903 253.109 102.194 253.291 100.349C253.523 97.8779 252.485 95.3244 253.201 92.9465C253.652 91.4501 254.783 90.0834 254.614 88.5303C254.449 87.0119 253.113 85.9356 252.197 84.7088C251.342 83.5635 250.823 82.2109 250.314 80.8774L248.573 76.3148C248.231 75.4178 247.855 74.4745 247.093 73.8858C245.665 72.7838 243.37 73.0003 241.7 73.2276C240.152 73.4385 238.503 73.3342 237.014 73.8337Z" fill="#2F2E41"/>
<path d="M238.361 88.8703C238.361 88.8703 238.532 93.9459 238.021 94.4535C237.51 94.9611 240.065 98.3449 240.065 98.3449L244.665 98.1757L247.05 96.3146L245.006 93.6076C245.006 93.6076 244.154 89.2086 244.836 88.1935C245.517 87.1784 238.361 88.8703 238.361 88.8703Z" fill="#A0616A"/>
<path opacity="0.1" d="M238.361 88.8703C238.361 88.8703 238.532 93.9459 238.021 94.4535C237.51 94.9611 240.065 98.3449 240.065 98.3449L244.665 98.1757L247.05 96.3146L245.006 93.6076C245.006 93.6076 244.154 89.2086 244.836 88.1935C245.517 87.1784 238.361 88.8703 238.361 88.8703Z" fill="black"/>
<path d="M227.713 128.038L230.609 134.467L232.824 131.76L228.394 126.007L227.713 128.038Z" fill="#A0616A"/>
<path d="M219.961 192.414L218.768 199.013L216.724 201.889L217.916 202.565L219.961 202.227L222.346 201.381L223.368 197.49L225.242 192.414H219.961Z" fill="#A0616A"/>
<path d="M241.769 188.354L241.087 197.828L242.791 199.182L245.517 196.813V189.876L241.769 188.354Z" fill="#A0616A"/>
<path d="M241.172 90.8159C244.56 90.8159 247.306 88.089 247.306 84.7251C247.306 81.3612 244.56 78.6343 241.172 78.6343C237.785 78.6343 235.039 81.3612 235.039 84.7251C235.039 88.089 237.785 90.8159 241.172 90.8159Z" fill="#A0616A"/>
<path d="M245.905 92.9173C245.721 92.8295 245.52 92.782 245.316 92.7781C245.112 92.7742 244.91 92.814 244.723 92.8948C244.351 93.0584 243.99 93.2453 243.641 93.4545C242.746 93.917 241.731 94.1003 240.73 93.9804C240.612 93.9715 240.497 93.9421 240.389 93.8934C240.275 93.8231 240.171 93.7391 240.077 93.6435C239.714 93.3504 239.251 93.2089 238.784 93.2488C238.318 93.2887 237.886 93.5069 237.578 93.8574C237.398 94.0803 237.275 94.3464 237.078 94.5551C236.569 95.0958 235.729 95.1177 234.984 95.1164C233.438 95.0736 231.893 95.2142 230.381 95.5353C228.863 95.8607 227.464 96.5967 226.34 97.6619C226.033 97.9483 225.789 98.2943 225.622 98.6783C225.416 99.2048 225.443 99.7961 225.259 100.33C225.053 100.925 224.597 101.413 224.413 102.014C224.274 102.467 224.293 102.972 224.061 103.385C225.056 104.241 225.9 105.382 226.895 106.238C227.555 106.805 228.245 107.418 228.493 108.248C228.604 108.759 228.654 109.283 228.64 109.806C228.763 112.309 230.13 114.579 231.658 116.573C232.077 117.164 232.579 117.693 233.148 118.144C233.92 118.667 234.798 119.016 235.719 119.17C237.46 119.523 239.252 119.521 241.028 119.504C242.864 119.486 244.732 119.447 246.477 118.88C247.366 118.634 248.165 118.142 248.781 117.46C249.499 116.585 249.779 115.318 250.758 114.745C250.995 114.637 251.22 114.503 251.428 114.347C251.627 114.132 251.768 113.871 251.838 113.587C252.181 112.524 252.369 111.418 252.399 110.303C252.374 109.634 252.419 108.964 252.535 108.304C252.705 107.722 252.951 107.166 253.269 106.649L255.298 102.994C255.463 102.697 255.421 102.26 255.436 101.921C255.42 101.432 255.269 100.957 254.999 100.549C253.683 98.2385 251.615 96.441 249.135 95.4511C248.939 95.3851 248.753 95.2945 248.581 95.1816C248.378 95.0121 248.206 94.8088 248.074 94.5808C247.535 93.7749 246.877 92.867 245.905 92.9173Z" fill="#D0CDE1"/>
<path d="M220.611 112.824C220.211 113.79 219.917 114.796 219.735 115.825C219.539 117.247 219.77 118.694 220.398 119.986C221.492 122.222 223.645 123.738 225.165 125.713C226.577 127.548 227.418 129.747 228.641 131.711C228.427 131.211 228.686 130.633 229.035 130.214C229.384 129.796 229.83 129.45 230.086 128.97C230.26 128.598 230.37 128.2 230.41 127.792C230.592 126.574 230.691 125.25 230.066 124.187C229.595 123.386 228.782 122.855 228.138 122.183C227.494 121.5 227.021 120.677 226.757 119.779C226.492 118.881 226.444 117.934 226.615 117.014C226.739 116.381 226.967 115.773 227.138 115.151C227.349 114.314 227.509 113.466 227.617 112.61L228.384 107.377C228.588 105.985 228.761 104.445 227.967 103.28C227.812 103.036 227.598 102.835 227.344 102.695C227.134 102.6 226.911 102.537 226.682 102.51C225.847 102.374 224.716 102.011 224.308 102.899C223.816 103.972 223.473 105.141 223.061 106.246L220.611 112.824Z" fill="#D0CDE1"/>
<path d="M249.852 115.687C249.852 115.687 239.724 117.632 237.339 117.632H233.079C233.079 117.632 231.546 120.339 231.546 123.047C231.546 125.754 221.494 163.652 221.494 163.652C221.494 163.652 211.953 194.783 222.516 194.952C233.079 195.121 239.724 195.629 239.894 192.076C240.065 188.523 241.087 142.672 241.087 142.672L242.677 166.249C243.105 172.085 242.648 177.952 241.323 183.654C240.56 186.851 240.679 190.356 244.494 191.061C251.82 192.414 261.02 191.23 261.02 188.692C261.02 186.154 256.25 129.814 256.25 129.814C256.25 129.814 253.865 121.524 252.502 120.847C251.139 120.17 249.852 115.687 249.852 115.687Z" fill="#2F2E41"/>
<path d="M218.087 201.551L221.835 200.197L224.391 193.768L227.117 193.429C227.117 193.429 225.584 196.644 224.732 197.152C223.88 197.659 222.517 201.889 222.517 201.889C222.517 201.889 223.198 203.581 219.961 204.258C216.724 204.934 214.339 205.442 214.339 205.442C214.339 205.442 213.998 204.765 215.532 203.073C217.065 201.381 218.855 198.533 218.855 198.533L218.087 201.551Z" fill="#2F2E41"/>
<path d="M241.087 193.768L240.405 198.843C240.405 198.843 242.279 201.55 242.79 201.55C243.302 201.55 246.028 199.182 246.028 199.182C246.028 199.182 245.857 196.644 246.028 195.967C246.198 195.29 246.539 192.076 246.028 191.907C245.516 191.737 245.516 195.677 245.516 195.677L243.302 197.997L241.166 196.726L241.087 193.768Z" fill="#2F2E41"/>
<path d="M241.684 84.7251C245.353 84.7251 248.328 83.1344 248.328 81.1721C248.328 79.2099 245.353 77.6191 241.684 77.6191C238.014 77.6191 235.039 79.2099 235.039 81.1721C235.039 83.1344 238.014 84.7251 241.684 84.7251Z" fill="#2F2E41"/>
<path d="M0 150.897C0 170.828 12.5912 186.956 28.1515 186.956L0 150.897Z" fill="#3F3D56"/>
<path d="M28.1514 186.956C28.1514 166.801 42.2024 150.491 59.5668 150.491L28.1514 186.956Z" fill="#0FB953"/>
<path d="M10.1992 152.703C10.1992 171.636 18.2284 186.956 28.1509 186.956L10.1992 152.703Z" fill="#0FB953"/>
<path d="M28.1514 186.956C28.1514 161.202 44.3921 140.362 64.4627 140.362L28.1514 186.956Z" fill="#3F3D56"/>
<path d="M22.2285 187.21C22.2285 187.21 26.2209 187.088 27.424 186.237C28.6272 185.386 33.5653 184.37 33.8638 185.735C34.1622 187.099 39.8635 192.521 35.3562 192.557C30.8488 192.594 24.8831 191.86 23.6823 191.134C22.4814 190.407 22.2285 187.21 22.2285 187.21Z" fill="#A8A8A8"/>
<path opacity="0.2" d="M35.4366 192.082C30.9293 192.119 24.9636 191.385 23.7627 190.659C22.8482 190.106 22.4837 188.121 22.3618 187.205C22.2773 187.208 22.2285 187.21 22.2285 187.21C22.2285 187.21 22.4814 190.407 23.6823 191.134C24.8831 191.86 30.8488 192.594 35.3562 192.557C36.6573 192.547 37.1067 192.087 37.082 191.406C36.9012 191.818 36.405 192.075 35.4366 192.082Z" fill="black"/>
</g>
<defs>
<clipPath id="clip0">
<rect width="325" height="236" fill="white"/>
</clipPath>
</defs>
</svg>
