<svg width="328" height="238" viewBox="0 0 328 238" fill="none" xmlns="http://www.w3.org/2000/svg">
<g clip-path="url(#clip0)">
<path opacity="0.1" d="M306.212 113.739C306.394 111.657 306.489 109.541 306.489 107.404C306.489 73.9376 283.769 46.8061 255.745 46.8061C246.822 46.8061 238.409 49.5736 231.129 54.4169C211.292 39.0414 185.394 29.7516 157.062 29.7516C110.96 29.7516 71.3046 54.3739 53.7108 89.6852C52.7354 89.6175 51.7508 89.5806 50.7569 89.5806C22.7169 89.5806 0 116.709 0 150.175C0 162.476 3.07692 173.924 8.35077 183.482C8.35077 213.59 32.4892 238.006 62.2646 238.006H99.8031L99.9692 237.72C102.175 234.141 107.458 233.246 111.138 235.279C112.111 235.814 113.015 236.509 114.102 236.755C118.449 237.677 121.369 230.687 125.769 231.367C127.978 231.708 129.702 233.99 131.923 233.756C133.397 233.6 134.514 232.366 135.898 231.844C138.117 231.001 140.366 232.17 141.92 234.067C142.822 231.475 142.815 228.403 144.274 226.026C146.48 222.446 151.763 221.551 155.443 223.584C156.415 224.119 157.32 224.814 158.406 225.06C162.754 225.983 165.674 218.993 170.074 219.672C172.283 220.014 174.006 222.296 176.228 222.062C177.702 221.905 178.818 220.672 180.203 220.149C183.655 218.836 187.191 222.4 188.04 225.992C188.369 227.574 188.543 229.185 188.56 230.801C191.538 229.359 194.055 225.303 197.455 225.829C199.665 226.17 201.388 228.452 203.609 228.218C205.083 228.061 206.2 226.828 207.585 226.305C211.037 224.992 214.572 228.556 215.422 232.148C215.874 234.055 215.905 236.035 215.982 237.991H278.182C301.566 237.991 320.514 218.827 320.514 195.186C325.258 185.96 328 175.111 328 163.494C328 142.89 319.385 124.686 306.212 113.739Z" fill="#0FB953"/>
<path d="M191.692 81.7975C206.476 81.7975 218.461 69.8197 218.461 55.0442C218.461 40.2688 206.476 28.2909 191.692 28.2909C176.908 28.2909 164.923 40.2688 164.923 55.0442C164.923 69.8197 176.908 81.7975 191.692 81.7975Z" fill="#0FB953"/>
<path d="M183.073 56.0528L191.649 47.4825L200.31 56.0528H194.424V62.6058H188.959V56.0959L183.073 56.0528Z" fill="white"/>
<path d="M226.929 123.373C226.567 121.507 225.632 119.801 224.256 118.491C222.879 117.18 221.128 116.331 219.246 116.06C217.364 115.79 215.444 116.112 213.754 116.981C212.063 117.851 210.686 119.225 209.812 120.913C207.949 121.116 206.234 122.024 205.021 123.452C203.808 124.88 203.188 126.718 203.29 128.589C203.392 130.459 204.207 132.22 205.568 133.508C206.929 134.796 208.732 135.513 210.606 135.513H226.501C228.119 135.508 229.669 134.865 230.814 133.724C231.959 132.582 232.606 131.035 232.615 129.418C232.621 127.875 232.035 126.388 230.977 125.264C229.919 124.139 228.471 123.463 226.929 123.373ZM219.898 126.977V131.608H216V126.965H211.831L217.944 120.854L224.055 126.965L219.898 126.977Z" fill="white"/>
<path d="M273.699 199.328C273.336 197.462 272.402 195.756 271.025 194.445C269.648 193.135 267.897 192.286 266.015 192.015C264.133 191.745 262.214 192.066 260.523 192.936C258.833 193.806 257.455 195.18 256.582 196.867C254.718 197.07 253.004 197.979 251.791 199.407C250.577 200.835 249.958 202.673 250.06 204.543C250.161 206.414 250.976 208.174 252.337 209.462C253.698 210.75 255.501 211.468 257.376 211.468H273.271C274.888 211.463 276.438 210.82 277.583 209.678C278.728 208.537 279.376 206.99 279.385 205.373C279.391 203.83 278.804 202.343 277.747 201.218C276.689 200.094 275.24 199.417 273.699 199.328ZM266.668 202.932V207.563H262.769V202.919H258.6L264.714 196.809L270.825 202.919L266.668 202.932Z" fill="white"/>
<path d="M101.369 144.523C100.803 141.642 99.3554 139.009 97.2251 136.987C95.0949 134.966 92.3881 133.657 89.48 133.242C86.572 132.827 83.6068 133.326 80.9956 134.671C78.3844 136.016 76.2565 138.139 74.9071 140.747C72.029 141.063 69.3814 142.469 67.5084 144.676C65.6354 146.882 64.6795 149.722 64.8371 152.612C64.9947 155.501 66.2539 158.22 68.3557 160.211C70.4576 162.201 73.2425 163.311 76.1379 163.312H100.707C103.211 163.304 105.61 162.306 107.38 160.536C109.15 158.766 110.147 156.368 110.153 153.865C110.161 151.481 109.255 149.184 107.622 147.447C105.988 145.709 103.75 144.663 101.369 144.523ZM90.5041 150.089V157.266H84.4579V150.089H78.0333L87.4825 140.649L96.9225 150.089H90.5041Z" fill="white"/>
<path d="M207.077 169.124V161.652L210.523 165.096L211.384 164.204L206.461 159.284L201.538 164.204L202.4 165.065L205.846 161.652V169.124H207.077Z" fill="white"/>
<path d="M35.0765 179.272V171.799L38.5227 175.243L39.3842 174.352L34.4612 169.432L29.5381 174.352L30.3996 175.213L33.8458 171.799V179.272H35.0765Z" fill="white"/>
<path d="M206.769 98.7044V93.1047L209.354 95.6877L210 95.0204L206.308 91.3303L202.615 95.0204L203.261 95.6662L205.846 93.1047V98.7044H206.769Z" fill="white"/>
<path d="M139.384 58.1131V52.5133L141.969 55.0964L142.615 54.4291L138.923 50.739L135.23 54.4291L135.877 55.0749L138.461 52.5133V58.1131H139.384Z" fill="white"/>
<path d="M114.154 113.465V107.865L116.738 110.448L117.385 109.781L113.692 106.091L110 109.781L110.646 110.427L113.231 107.865V113.465H114.154Z" fill="white"/>
<path d="M272.308 139.296V133.696L274.893 136.279L275.539 135.612L271.847 131.922L268.154 135.612L268.8 136.257L271.385 133.696V139.296H272.308Z" fill="white"/>
<path d="M108.616 188.805V183.205L111.2 185.788L111.847 185.121L108.154 181.431L104.462 185.121L105.108 185.766L107.693 183.205V188.805H108.616Z" fill="white"/>
<path d="M242.769 91.9454C243.789 91.9454 244.615 91.1193 244.615 90.1003C244.615 89.0813 243.789 88.2552 242.769 88.2552C241.749 88.2552 240.923 89.0813 240.923 90.1003C240.923 91.1193 241.749 91.9454 242.769 91.9454Z" fill="white"/>
<path d="M68.9233 87.0252C69.9429 87.0252 70.7694 86.1991 70.7694 85.1801C70.7694 84.1611 69.9429 83.3351 68.9233 83.3351C67.9037 83.3351 67.0771 84.1611 67.0771 85.1801C67.0771 86.1991 67.9037 87.0252 68.9233 87.0252Z" fill="white"/>
<path d="M123.384 133.767C124.404 133.767 125.23 132.94 125.23 131.921C125.23 130.902 124.404 130.076 123.384 130.076C122.365 130.076 121.538 130.902 121.538 131.921C121.538 132.94 122.365 133.767 123.384 133.767Z" fill="white"/>
<path d="M284.615 164.21C285.125 164.21 285.539 163.797 285.539 163.288C285.539 162.778 285.125 162.365 284.615 162.365C284.106 162.365 283.692 162.778 283.692 163.288C283.692 163.797 284.106 164.21 284.615 164.21Z" fill="white"/>
<path d="M215.385 189.733C215.895 189.733 216.308 189.32 216.308 188.811C216.308 188.301 215.895 187.888 215.385 187.888C214.875 187.888 214.462 188.301 214.462 188.811C214.462 189.32 214.875 189.733 215.385 189.733Z" fill="white"/>
<path d="M96.9231 211.259C97.4329 211.259 97.8462 210.846 97.8462 210.336C97.8462 209.827 97.4329 209.414 96.9231 209.414C96.4133 209.414 96 209.827 96 210.336C96 210.846 96.4133 211.259 96.9231 211.259Z" fill="white"/>
<path d="M29.5383 136.534C30.0481 136.534 30.4614 136.121 30.4614 135.612C30.4614 135.102 30.0481 134.689 29.5383 134.689C29.0285 134.689 28.6152 135.102 28.6152 135.612C28.6152 136.121 29.0285 136.534 29.5383 136.534Z" fill="white"/>
<path d="M38.4612 116.854C38.971 116.854 39.3842 116.441 39.3842 115.931C39.3842 115.422 38.971 115.009 38.4612 115.009C37.9514 115.009 37.5381 115.422 37.5381 115.931C37.5381 116.441 37.9514 116.854 38.4612 116.854Z" fill="white"/>
<path d="M236.923 220.177C237.433 220.177 237.846 219.764 237.846 219.254C237.846 218.745 237.433 218.332 236.923 218.332C236.413 218.332 236 218.745 236 219.254C236 219.764 236.413 220.177 236.923 220.177Z" fill="white"/>
<path d="M66.1535 188.196C66.6634 188.196 67.0766 187.783 67.0766 187.273C67.0766 186.764 66.6634 186.351 66.1535 186.351C65.6437 186.351 65.2305 186.764 65.2305 187.273C65.2305 187.783 65.6437 188.196 66.1535 188.196Z" fill="white"/>
<path d="M87.385 103.631C87.8948 103.631 88.3081 103.218 88.3081 102.708C88.3081 102.199 87.8948 101.786 87.385 101.786C86.8752 101.786 86.4619 102.199 86.4619 102.708C86.4619 103.218 86.8752 103.631 87.385 103.631Z" fill="white"/>
<path d="M118.923 69.9584H114.154V65.192H113.539V69.9584H108.77V70.5734H113.539V75.3398H114.154V70.5734H118.923V69.9584Z" fill="white"/>
<path d="M235.077 158.026H232.187V155.138H231.812V158.026H228.923V158.401H231.812V161.289H232.187V158.401H235.077V158.026Z" fill="white"/>
<path d="M217.539 211.84H214.649V208.953H214.274V211.84H211.385V212.215H214.274V215.103H214.649V212.215H217.539V211.84Z" fill="white"/>
<path d="M73.8462 205.075H70.957V202.188H70.5816V205.075H67.6924V205.45H70.5816V208.338H70.957V205.45H73.8462V205.075Z" fill="white"/>
<path d="M53.5386 150.953H50.6494V148.066H50.274V150.953H47.3848V151.328H50.274V154.216H50.6494V151.328H53.5386V150.953Z" fill="white"/>
<path d="M139.526 205.933L139.548 204.202L138.508 204.189L138.486 205.921L136.692 211.099L141.197 211.151L139.526 205.933Z" fill="#3F3D56"/>
<path d="M144.046 206.031L144.068 204.257L143 204.242L142.979 206.019L141.139 211.33L145.76 211.382L144.046 206.031Z" fill="#3F3D56"/>
<path d="M148.539 206.041L148.56 204.309L147.52 204.297L147.499 206.028L145.705 211.207L150.213 211.259L148.539 206.041Z" fill="#3F3D56"/>
<path d="M180.667 206.468L180.689 204.691L179.621 204.678L179.6 206.456L177.76 211.763L182.381 211.819L180.667 206.468Z" fill="#3F3D56"/>
<path d="M185.289 206.523L185.311 204.746L184.243 204.734L184.222 206.511L182.382 211.819L187.003 211.874L185.289 206.523Z" fill="#3F3D56"/>
<path d="M189.911 206.579L189.932 204.801L188.864 204.789L188.843 206.566L187.003 211.874L191.624 211.929L189.911 206.579Z" fill="#3F3D56"/>
<path d="M159.689 206.219L159.71 204.442L158.643 204.429L158.621 206.207L156.781 211.514L161.403 211.57L159.689 206.219Z" fill="#3F3D56"/>
<path d="M164.311 206.274L164.333 204.497L163.268 204.484L163.246 206.262L161.403 211.57L166.025 211.625L164.311 206.274Z" fill="#3F3D56"/>
<path d="M168.932 206.33L168.954 204.552L167.889 204.54L167.867 206.317L166.024 211.625L170.649 211.68L168.932 206.33Z" fill="#3F3D56"/>
<path d="M156.542 81.9758C156.477 75.8564 149.265 65.0075 145.373 64.9613C141.48 64.9152 134.363 75.5919 134.154 81.7083H133.97L132.502 204.654L155.08 204.921L156.548 81.9789L156.542 81.9758Z" fill="#3F3D56"/>
<path d="M197.785 82.4679C197.72 76.3485 190.508 65.4995 186.616 65.4534C182.723 65.4073 175.607 76.084 175.4 82.2004H175.216L173.748 205.146L196.327 205.413L197.794 82.471L197.785 82.4679Z" fill="#3F3D56"/>
<path d="M177.496 24.8836C177.462 15.9136 170.308 0.0461058 166.419 -2.06277e-05C162.53 -0.046147 155.342 15.6491 155.105 24.6007H154.923L152.77 204.875L175.345 205.146L177.499 24.8683L177.496 24.8836Z" fill="#2F2E41"/>
<path d="M156.655 121.598L165.234 113.025L173.892 121.598H168.009V128.151H162.541V121.638L156.655 121.598Z" fill="#0FB953"/>
<g opacity="0.1">
<path opacity="0.1" d="M176.884 84.5406C179.219 79.0946 183.779 73.4149 186.616 73.4487C190.308 73.4918 196.961 83.2245 197.715 89.4392L197.795 82.7632C197.73 76.6438 190.518 65.7948 186.625 65.7487C183.825 65.7149 179.351 71.247 176.988 76.6284L176.884 84.5406Z" fill="black"/>
<path opacity="0.1" d="M133.972 89.7005H134.157C134.363 83.5842 141.483 72.9074 145.372 72.9536C147.914 72.9843 151.868 77.6185 154.326 82.5356L154.923 32.6083H155.105C155.345 23.6414 162.529 7.94608 166.419 8.00759C170.092 8.05064 176.683 22.2176 177.428 31.3476L177.499 25.1974C177.465 16.2273 170.311 0.359826 166.422 0.3137C162.532 0.267574 155.345 15.9629 155.108 24.9298H154.926L154.329 74.8571C151.868 69.9369 147.917 65.3058 145.376 65.2751C141.486 65.2289 134.366 75.9057 134.16 82.022H133.976L132.508 204.967H132.6L133.972 89.7005Z" fill="black"/>
</g>
<path d="M166.417 7.80633L166.414 7.8063C165.237 7.79233 164.271 8.73504 164.257 9.9119L164.198 14.8901C164.184 16.067 165.127 17.0323 166.305 17.0463L166.308 17.0463C167.485 17.0603 168.451 16.1176 168.465 14.9407L168.524 9.96252C168.538 8.78566 167.595 7.8203 166.417 7.80633Z" fill="#ECECF3"/>
</g>
<defs>
<clipPath id="clip0">
<rect width="328" height="238" fill="white"/>
</clipPath>
</defs>
</svg>
