<svg width="304" height="272" viewBox="0 0 304 272" fill="none" xmlns="http://www.w3.org/2000/svg">
<g clip-path="url(#clip0)">
<path d="M152.601 3.80707L57.1982 62.6048C57.1982 62.6048 57.1982 183.875 152.601 250.023C248.005 183.875 248.005 62.6048 248.005 62.6048L152.601 3.80707Z" fill="#3F3D56"/>
<path opacity="0.04" d="M153.171 3.80707L151.54 4.81216V248.876C152.082 249.259 152.623 249.643 153.171 250.023C248.574 183.875 248.574 62.6048 248.574 62.6048L153.171 3.80707Z" fill="#0FB953"/>
<g opacity="0.7">
<path opacity="0.7" d="M129.505 122.955L147.49 139.465L169.785 107.254L178.777 114.759L147.49 154.476L122.011 125.957L129.505 122.955Z" fill="url(#paint0_linear)"/>
</g>
<path d="M133.75 123.946L148.339 137.34L169.007 106.9L176.302 112.988L148.339 149.516L127.671 126.382L133.75 123.946Z" fill="#3AD29F"/>
<path opacity="0.5" d="M58.4687 16.9893C58.1763 16.8618 57.9408 16.631 57.8073 16.3409C57.6737 16.0507 57.6514 15.7216 57.7444 15.416C57.7595 15.3692 57.769 15.3207 57.7727 15.2716C57.7812 15.1317 57.7445 14.9926 57.6679 14.8752C57.5914 14.7577 57.4791 14.6681 57.3477 14.6196C57.2163 14.571 57.0728 14.5662 56.9384 14.6057C56.8041 14.6452 56.686 14.727 56.6017 14.839C56.5727 14.8788 56.5485 14.9218 56.5295 14.9672C56.4022 15.2601 56.1717 15.4958 55.882 15.6296C55.5924 15.7633 55.2637 15.7858 54.9586 15.6926C54.9118 15.6775 54.8634 15.668 54.8144 15.6642C54.6747 15.6557 54.5358 15.6925 54.4186 15.7692C54.3013 15.8458 54.2118 15.9583 54.1633 16.0899C54.1149 16.2215 54.11 16.3652 54.1495 16.4998C54.1889 16.6343 54.2706 16.7526 54.3825 16.837C54.4221 16.8661 54.4651 16.8903 54.5104 16.9093C54.8029 17.0368 55.0383 17.2676 55.1718 17.5577C55.3054 17.8478 55.3278 18.177 55.2347 18.4826C55.2196 18.5294 55.2102 18.5779 55.2064 18.6269C55.1979 18.7669 55.2347 18.906 55.3112 19.0234C55.3878 19.1409 55.5001 19.2305 55.6314 19.279C55.7628 19.3276 55.9063 19.3324 56.0407 19.2929C56.1751 19.2534 56.2932 19.1716 56.3775 19.0596C56.4065 19.0198 56.4307 18.9768 56.4496 18.9314C56.577 18.6385 56.8074 18.4027 57.0971 18.269C57.3868 18.1352 57.7154 18.1128 58.0205 18.206C58.0673 18.2211 58.1157 18.2306 58.1647 18.2343C58.3045 18.2429 58.4433 18.2061 58.5606 18.1294C58.6778 18.0527 58.7673 17.9403 58.8158 17.8087C58.8643 17.6771 58.8691 17.5334 58.8297 17.3988C58.7902 17.2643 58.7085 17.146 58.5967 17.0616C58.557 17.0325 58.514 17.0083 58.4687 16.9893Z" fill="#4D8AF0"/>
<path opacity="0.5" d="M6.82318 132.126C6.53073 131.998 6.29533 131.768 6.16178 131.477C6.02823 131.187 6.00586 130.858 6.09892 130.553C6.11398 130.506 6.12346 130.457 6.12718 130.408C6.13569 130.268 6.09895 130.129 6.0224 130.012C5.94585 129.894 5.83357 129.805 5.70218 129.756C5.57079 129.708 5.42728 129.703 5.29291 129.742C5.15855 129.782 5.04047 129.864 4.95616 129.976C4.92717 130.015 4.90296 130.058 4.88403 130.104C4.75666 130.397 4.52621 130.632 4.23653 130.766C3.94686 130.9 3.61819 130.922 3.31309 130.829C3.26631 130.814 3.21793 130.805 3.16893 130.801C3.02914 130.792 2.89033 130.829 2.77306 130.906C2.65579 130.982 2.56629 131.095 2.51782 131.226C2.46935 131.358 2.46449 131.502 2.50396 131.636C2.54343 131.771 2.62512 131.889 2.73695 131.974C2.77662 132.003 2.81958 132.027 2.86493 132.046C3.15738 132.173 3.39278 132.404 3.52633 132.694C3.65989 132.984 3.68226 133.314 3.5892 133.619C3.57414 133.666 3.56465 133.714 3.56093 133.764C3.55242 133.904 3.58916 134.043 3.66571 134.16C3.74226 134.277 3.85454 134.367 3.98593 134.416C4.11732 134.464 4.26083 134.469 4.3952 134.43C4.52957 134.39 4.64765 134.308 4.73196 134.196C4.76095 134.156 4.78516 134.113 4.80409 134.068C4.93145 133.775 5.16191 133.539 5.45158 133.406C5.74125 133.272 6.06992 133.249 6.37502 133.343C6.4218 133.358 6.47018 133.367 6.51918 133.371C6.65897 133.379 6.79778 133.343 6.91505 133.266C7.03232 133.189 7.12182 133.077 7.17029 132.945C7.21876 132.814 7.22362 132.67 7.18415 132.535C7.14468 132.401 7.06298 132.283 6.95116 132.198C6.91149 132.169 6.86853 132.145 6.82318 132.126Z" fill="#4D8AF0"/>
<path opacity="0.5" d="M264.736 92.1092C265.908 92.1092 266.858 91.1576 266.858 89.9836C266.858 88.8097 265.908 87.858 264.736 87.858C263.564 87.858 262.613 88.8097 262.613 89.9836C262.613 91.1576 263.564 92.1092 264.736 92.1092Z" fill="#F55F44"/>
<path opacity="0.5" d="M42.9427 244.09C44.1149 244.09 45.0651 243.138 45.0651 241.964C45.0651 240.79 44.1149 239.838 42.9427 239.838C41.7705 239.838 40.8203 240.79 40.8203 241.964C40.8203 243.138 41.7705 244.09 42.9427 244.09Z" fill="#F55F44"/>
<path opacity="0.5" d="M300.817 173.945C301.989 173.945 302.939 172.993 302.939 171.819C302.939 170.645 301.989 169.694 300.817 169.694C299.645 169.694 298.694 170.645 298.694 171.819C298.694 172.993 299.645 173.945 300.817 173.945Z" fill="#F55F44"/>
<path opacity="0.5" d="M249.132 27.2631C248.839 27.1355 248.604 26.9047 248.47 26.6146C248.337 26.3245 248.314 25.9953 248.408 25.6898C248.423 25.6429 248.432 25.5945 248.436 25.5454C248.444 25.4054 248.408 25.2664 248.331 25.1489C248.254 25.0315 248.142 24.9418 248.011 24.8933C247.879 24.8448 247.736 24.8399 247.602 24.8794C247.467 24.919 247.349 25.0008 247.265 25.1128C247.236 25.1525 247.212 25.1955 247.193 25.2409C247.065 25.5338 246.835 25.7696 246.545 25.9033C246.255 26.0371 245.927 26.0595 245.622 25.9663C245.575 25.9512 245.527 25.9417 245.478 25.938C245.338 25.9295 245.199 25.9663 245.082 26.0429C244.964 26.1196 244.875 26.232 244.826 26.3636C244.778 26.4952 244.773 26.6389 244.813 26.7735C244.852 26.9081 244.934 27.0263 245.046 27.1108C245.085 27.1398 245.128 27.1641 245.174 27.183C245.466 27.3106 245.701 27.5414 245.835 27.8315C245.968 28.1216 245.991 28.4507 245.898 28.7563C245.883 28.8031 245.873 28.8516 245.87 28.9007C245.861 29.0407 245.898 29.1797 245.974 29.2971C246.051 29.4146 246.163 29.5042 246.295 29.5528C246.426 29.6013 246.569 29.6062 246.704 29.5666C246.838 29.5271 246.956 29.4453 247.041 29.3333C247.07 29.2936 247.094 29.2506 247.113 29.2051C247.24 28.9122 247.471 28.6765 247.76 28.5427C248.05 28.409 248.379 28.3866 248.684 28.4798C248.73 28.4949 248.779 28.5044 248.828 28.5081C248.968 28.5166 249.106 28.4798 249.224 28.4031C249.341 28.3265 249.43 28.214 249.479 28.0824C249.527 27.9509 249.532 27.8071 249.493 27.6726C249.453 27.538 249.372 27.4197 249.26 27.3353C249.22 27.3063 249.177 27.282 249.132 27.2631Z" fill="#4D8AF0"/>
<path opacity="0.5" d="M284.506 249.742C284.213 249.615 283.978 249.384 283.844 249.094C283.711 248.804 283.688 248.475 283.782 248.169C283.797 248.122 283.806 248.074 283.81 248.025C283.818 247.885 283.782 247.746 283.705 247.628C283.628 247.511 283.516 247.421 283.385 247.373C283.253 247.324 283.11 247.319 282.976 247.359C282.841 247.398 282.723 247.48 282.639 247.592C282.61 247.632 282.586 247.675 282.567 247.72C282.439 248.013 282.209 248.249 281.919 248.383C281.629 248.516 281.301 248.539 280.996 248.446C280.949 248.43 280.901 248.421 280.852 248.417C280.712 248.409 280.573 248.446 280.456 248.522C280.338 248.599 280.249 248.711 280.2 248.843C280.152 248.974 280.147 249.118 280.187 249.253C280.226 249.387 280.308 249.506 280.42 249.59C280.459 249.619 280.502 249.643 280.548 249.662C280.84 249.79 281.075 250.021 281.209 250.311C281.342 250.601 281.365 250.93 281.272 251.236C281.257 251.282 281.247 251.331 281.244 251.38C281.235 251.52 281.272 251.659 281.348 251.776C281.425 251.894 281.537 251.984 281.669 252.032C281.8 252.081 281.943 252.085 282.078 252.046C282.212 252.006 282.33 251.925 282.415 251.813C282.444 251.773 282.468 251.73 282.487 251.684C282.614 251.392 282.845 251.156 283.134 251.022C283.424 250.888 283.753 250.866 284.058 250.959C284.104 250.974 284.153 250.984 284.202 250.987C284.342 250.996 284.48 250.959 284.598 250.882C284.715 250.806 284.804 250.693 284.853 250.562C284.901 250.43 284.906 250.286 284.867 250.152C284.827 250.017 284.746 249.899 284.634 249.815C284.594 249.786 284.551 249.761 284.506 249.742Z" fill="#4D8AF0"/>
<path opacity="0.5" d="M4.34759 64.8153C4.05515 64.6877 3.81975 64.4569 3.6862 64.1668C3.55264 63.8767 3.53027 63.5475 3.62333 63.242C3.63839 63.1951 3.64787 63.1467 3.65159 63.0976C3.6601 62.9576 3.62336 62.8186 3.54681 62.7011C3.47027 62.5837 3.35798 62.494 3.22659 62.4455C3.0952 62.397 2.95169 62.3921 2.81733 62.4316C2.68296 62.4711 2.56488 62.553 2.48057 62.665C2.45158 62.7047 2.42737 62.7477 2.40844 62.7931C2.28108 63.086 2.05062 63.3218 1.76095 63.4555C1.47127 63.5893 1.1426 63.6117 0.837501 63.5185C0.790726 63.5034 0.742341 63.4939 0.693343 63.4902C0.553557 63.4816 0.414747 63.5184 0.297474 63.5951C0.180201 63.6718 0.0907016 63.7842 0.0422333 63.9158C-0.00623505 64.0474 -0.0110957 64.1911 0.0283723 64.3257C0.0678403 64.4603 0.149539 64.5785 0.261364 64.663C0.301039 64.692 0.343997 64.7162 0.389346 64.7352C0.681792 64.8628 0.917197 65.0935 1.05075 65.3837C1.1843 65.6738 1.20667 66.0029 1.11361 66.3085C1.09855 66.3553 1.08907 66.4038 1.08535 66.4529C1.07684 66.5929 1.11358 66.7319 1.19012 66.8493C1.26667 66.9668 1.37896 67.0564 1.51035 67.105C1.64174 67.1535 1.78524 67.1584 1.91961 67.1188C2.05398 67.0793 2.17207 66.9975 2.25637 66.8855C2.28536 66.8458 2.30957 66.8027 2.3285 66.7573C2.45587 66.4644 2.68632 66.2287 2.97599 66.0949C3.26567 65.9612 3.59434 65.9388 3.89944 66.032C3.94621 66.047 3.9946 66.0565 4.0436 66.0603C4.18338 66.0688 4.32219 66.032 4.43947 65.9553C4.55674 65.8787 4.64623 65.7662 4.6947 65.6346C4.74317 65.503 4.74803 65.3593 4.70856 65.2248C4.66909 65.0902 4.5874 64.9719 4.47557 64.8875C4.4359 64.8585 4.39294 64.8342 4.34759 64.8153Z" fill="#4D8AF0"/>
<path opacity="0.5" d="M28.0863 102.737C29.2585 102.737 30.2087 101.786 30.2087 100.612C30.2087 99.4377 29.2585 98.4861 28.0863 98.4861C26.9141 98.4861 25.9639 99.4377 25.9639 100.612C25.9639 101.786 26.9141 102.737 28.0863 102.737Z" fill="#47E6B1"/>
<path opacity="0.5" d="M301.877 119.742C303.05 119.742 304 118.79 304 117.616C304 116.443 303.05 115.491 301.877 115.491C300.705 115.491 299.755 116.443 299.755 117.616C299.755 118.79 300.705 119.742 301.877 119.742Z" fill="#47E6B1"/>
<g opacity="0.5">
<path opacity="0.5" d="M207.43 0H206.369V6.02253H207.43V0Z" fill="#47E6B1"/>
<path opacity="0.5" d="M209.906 3.54266V2.47986L203.893 2.47986V3.54266L209.906 3.54266Z" fill="#47E6B1"/>
</g>
<g opacity="0.5">
<path opacity="0.5" d="M211.322 235.941H210.261V241.964H211.322V235.941Z" fill="#47E6B1"/>
<path opacity="0.5" d="M213.798 239.484V238.421H207.784V239.484H213.798Z" fill="#47E6B1"/>
</g>
<g opacity="0.5">
<path opacity="0.5" d="M10.4001 248.695H9.33887V254.718H10.4001V248.695Z" fill="#47E6B1"/>
<path opacity="0.5" d="M12.876 252.238V251.175H6.86247V252.238H12.876Z" fill="#47E6B1"/>
</g>
<g opacity="0.5">
<path opacity="0.5" d="M252.002 140.289H250.94V146.312H252.002V140.289Z" fill="#47E6B1"/>
<path opacity="0.5" d="M254.478 143.832V142.769H248.464V143.832H254.478Z" fill="#47E6B1"/>
</g>
<path opacity="0.5" d="M281.434 43.5812L283.713 45.6735L286.942 40.9178L288.082 41.869L283.713 47.5759L280.484 43.9616L281.434 43.5812Z" fill="#47E6B1"/>
<path d="M216.369 84.766L208.507 85.0713L208.899 95.1947L216.761 94.8894L216.369 84.766Z" fill="#0FB953"/>
<path d="M180.904 120.22C180.904 120.22 170.016 115.011 170.191 119.51C170.365 124.009 181.165 126.969 181.165 126.969L180.904 120.22Z" fill="#FFB9B9"/>
<path d="M186.877 158.29C186.877 158.29 181.74 170.881 179.842 179.967C177.944 189.053 175.054 201.557 178.772 210.425C182.49 219.293 193.06 245.355 193.169 248.167C193.278 250.979 192.263 253.835 194.51 253.748C196.756 253.661 208.98 249.806 209.476 248.097C209.972 246.388 205.306 242.063 205.306 242.063L193.782 205.899L205.805 182.338L214.478 217.487L216.176 261.355C216.176 261.355 224.513 258.778 225.723 260.984C225.723 260.984 229.458 255.77 229.932 253.499C230.407 251.227 228.168 207.943 228.168 207.943C228.168 207.943 235.82 158.642 229.643 158.882C223.466 159.122 199.27 144.291 186.877 158.29Z" fill="#0FB953"/>
<path d="M194.423 251.498C194.423 251.498 188.725 264.111 188.185 264.695C187.646 265.28 183.932 271.056 186.74 270.947C189.548 270.838 196.178 267.764 201.058 263.069C205.938 258.373 212.372 250.238 211.789 249.697C211.205 249.157 207.209 247.622 207.209 247.622L194.423 251.498Z" fill="#575A89"/>
<path d="M217.191 258.5C217.191 258.5 216.848 264.145 215.812 266.439C214.776 268.732 214.906 272.106 217.714 271.997C220.522 271.888 227.779 270.48 227.779 270.48C227.779 270.48 228.21 267.084 227.626 266.543C227.043 266.003 224.557 259.903 225.615 258.172C226.673 256.441 217.191 258.5 217.191 258.5Z" fill="#575A89"/>
<path d="M221.345 75.2789C221.345 75.2789 227.331 84.6219 229.664 86.7843C231.998 88.9467 225.433 93.7077 225.433 93.7077L213.684 95.2905C213.684 95.2905 213.831 84.5829 213.226 83.4798C212.621 82.3768 221.345 75.2789 221.345 75.2789Z" fill="#FFB9B9"/>
<path d="M211.132 87.504C211.132 87.504 213.553 91.916 215.799 91.8288C218.045 91.7416 229.664 86.7843 230.16 85.0752C230.656 83.3662 234.009 97.3175 234.009 97.3175L205.578 147.425L198.644 142.625L202.004 113.205L204.763 97.3267L211.132 87.504Z" fill="#0FB953"/>
<path d="M231.209 132.348C230.075 134.724 229.366 137.202 229.464 139.738C229.469 139.851 229.473 139.963 229.483 140.076C229.752 145.281 231.667 151.301 232.354 155.679C232.852 158.82 232.71 161.112 230.875 161.651C226.426 162.95 231.524 163.879 214.311 169.616C197.099 175.354 194.095 170.401 194.051 169.277C194.008 168.152 196.489 159.607 195.906 159.066C195.322 158.525 187.743 166.142 185.453 165.104C183.164 164.067 185.192 158.356 185.192 158.356C185.192 158.356 190.351 146.327 190.242 143.515C190.133 140.703 198.055 127.44 198.055 127.44L203.444 92.3086C203.444 92.3086 205.516 87.7221 208.302 87.0506C211.088 86.3791 213.4 87.9791 213.4 87.9791L208.738 98.2989L203.819 116.514L204.642 123.241C204.642 123.241 210.362 111.191 214.119 106.539C217.875 101.887 225.885 90.8738 225.885 90.8738C225.885 90.8738 227.755 84.5547 226.344 82.6662C224.932 80.7722 232.232 80.4887 235.345 88.2534C236.995 92.3687 239.673 98.5056 241.351 104.219C242.846 109.281 243.552 114.014 242.071 116.718C239.807 120.851 234.112 126.282 231.209 132.348Z" fill="#575A89"/>
<path opacity="0.1" d="M242.072 116.718C239.808 120.851 234.112 126.282 231.209 132.348C230.451 129.612 229.526 126.781 229.526 126.781C229.526 126.781 225.977 107.768 236.473 102.854C238.212 102.686 239.951 103.173 241.351 104.22C242.847 109.281 243.553 114.014 242.072 116.718Z" fill="black"/>
<path d="M200.406 115.52L191.508 118.119L179.154 118.599L177.883 129.35L198.186 130.814C198.186 130.814 203.258 116.536 200.406 115.52Z" fill="#575A89"/>
<path d="M214.915 151.669C214.915 151.669 203.011 153.647 205.728 157.235C208.445 160.822 218.991 157.051 218.991 157.051L214.915 151.669Z" fill="#FFB9B9"/>
<path opacity="0.1" d="M229.483 140.076C229.753 145.281 231.667 151.301 232.354 155.679C228.562 159.273 224.956 162.444 223.597 162.497C220.789 162.606 216.275 162.218 214.612 162.846C212.949 163.473 211.974 152.809 211.974 152.809C211.974 152.809 212.966 149.391 217.393 147.53C220.382 146.27 226.11 142.854 229.483 140.076Z" fill="black"/>
<path d="M236.342 99.4799C236.342 99.4799 245.845 97.9843 245.332 113.775C244.818 129.567 246.334 139.647 242.511 142.611C238.689 145.576 226.274 159.013 223.466 159.122C220.658 159.231 216.144 158.843 214.481 159.471C212.818 160.099 211.843 149.435 211.843 149.435C211.843 149.435 212.835 146.017 217.263 144.155C221.69 142.293 232.12 135.692 232.033 133.443C231.946 131.193 229.395 123.407 229.395 123.407C229.395 123.407 225.846 104.394 236.342 99.4799Z" fill="#575A89"/>
<path d="M212.964 89.1133C219.793 89.1133 225.328 83.5695 225.328 76.7309C225.328 69.8923 219.793 64.3485 212.964 64.3485C206.136 64.3485 200.601 69.8923 200.601 76.7309C200.601 83.5695 206.136 89.1133 212.964 89.1133Z" fill="#FFB9B9"/>
<path d="M204.64 58.9833C204.341 59.2407 203.984 59.4201 203.6 59.5058C203.407 59.5402 203.209 59.4968 203.047 59.3851C202.886 59.2734 202.776 59.1024 202.74 58.9094C202.458 59.4969 202.138 60.1231 201.561 60.4246C200.983 60.726 200.09 60.4732 200.007 59.8263C199.923 60.3175 199.706 60.7762 199.38 61.1527C199.021 61.4948 198.371 61.5812 198.059 61.1969C198.312 62.5812 198.155 64.0048 198.235 65.4098C198.314 66.8148 198.688 68.3043 199.748 69.2282C201.294 70.5756 203.619 70.2431 205.652 69.9878C205.959 69.9232 206.278 69.9406 206.577 70.0385C207.338 70.3633 207.304 71.4248 207.314 72.2535C207.376 73.7076 207.951 75.0926 208.936 76.1626C209.921 77.2326 211.253 77.9183 212.695 78.098C213.502 78.2228 214.326 78.0215 214.985 77.5384C215.562 77.0483 215.857 76.2496 216.518 75.8814C217.595 75.2826 218.9 76.1559 219.686 77.1042C220.473 78.0524 221.249 79.2189 222.467 79.3925C224.079 79.6221 225.307 77.9769 225.909 76.462C226.74 74.3387 227.139 72.0703 227.08 69.7905C227.022 67.5107 226.509 65.2656 225.57 63.1877C222.205 55.8398 210.707 54.6776 204.64 58.9833Z" fill="#2F2E41"/>
<g clip-path="url(#clip1)">
<path d="M320.606 422C526.608 422 693.606 255.002 693.606 49.0001C693.606 -157.002 526.608 -324 320.606 -324C114.603 -324 -52.3945 -157.002 -52.3945 49.0001C-52.3945 255.002 114.603 422 320.606 422Z" fill="#F2F2F2"/>
<path d="M134.774 8.01855C140.753 33.8892 143.018 58.3504 141.523 81.1319C149.935 63.2081 181.926 -11.0455 169.968 -80.2476L134.774 8.01855Z" fill="#0FB953"/>
<path d="M-26.8584 -50.7432C-18.8987 -40.0214 -10.2296 -29.8452 -0.90921 -20.2826L-1.27219 -21.5788L132.539 5.94946C129.058 -8.49656 124.713 -22.7208 119.529 -36.6466L-26.8584 -50.7432Z" fill="#0FB953"/>
<path d="M120.683 -38.239C121.177 -36.9193 121.679 -35.5966 122.156 -34.2828C126.752 -21.6931 130.659 -8.86258 133.859 4.15192L168.719 -83.2775L169.57 -82.4235C167.363 -94.5893 163.624 -106.427 158.441 -117.652C156.385 -122.054 154.232 -126.389 151.983 -130.658L120.683 -38.239Z" fill="#0FB953"/>
<path d="M133.081 8.24594L0.249023 -19.0811C56.1207 38.2736 134.289 82.2602 139.278 85.0405C141.606 59.7708 138.966 33.8146 133.081 8.24594Z" fill="#0FB953"/>
<path d="M310.41 -65.3296L277.197 -21.0649C276.312 -2.76467 274.745 17.7177 272.097 39.2624L327.17 -24.622L327.505 -23.5801C323.247 -39.6614 317.368 -54.1359 310.027 -66.3121L310.41 -65.3296Z" fill="#0FB953"/>
<path d="M329.012 104.134L329.155 105.355C330.724 97.734 332.002 90.12 332.99 82.5131L251.241 142.15L251.153 141.595C249.797 146.058 248.391 150.442 246.937 154.747L329.012 104.134Z" fill="#0FB953"/>
<path d="M335.329 36.9734L335.567 38.1245C335.376 17.6945 332.767 -2.6411 327.792 -22.4573L271.669 42.6439C269.095 62.8256 265.807 82.0814 261.807 100.411L335.329 36.9734Z" fill="#0FB953"/>
<path d="M178.964 -57.682C170.804 -45.6328 163.882 -32.7901 158.304 -19.3493L263 87.2577C266.15 71.2884 268.543 55.8406 270.358 41.4579L178.51 -56.541L178.964 -57.682Z" fill="#0FB953"/>
<path d="M152.237 -3.54617L152.673 -4.69983L260.003 101.544C260.871 97.6475 261.693 93.774 262.469 89.9238L157.386 -17.0767L157.829 -18.2264C155.86 -13.4913 153.996 -8.59787 152.237 -3.54617Z" fill="#0FB953"/>
<path d="M332.989 79.8576L333.177 81.0487C334.915 67.2577 335.719 53.3651 335.586 39.4657L261.07 103.762C258.333 115.969 255.283 127.715 251.922 138.998L332.989 79.8576Z" fill="#0FB953"/>
<path d="M227.14 202.687C215.244 226.426 201.387 246.71 185.705 263.302C203.616 254.863 275.616 218.078 310.543 157.152L227.14 202.687Z" fill="#0FB953"/>
<path d="M140.131 54.3376C139.423 67.6722 139.61 81.0392 140.689 94.3488L141.236 93.119L226.738 199.668C233.271 186.321 238.997 172.595 243.886 158.563L140.131 54.3376Z" fill="#0FB953"/>
<path d="M245.79 158.072C245.329 159.404 244.873 160.743 244.402 162.059C239.912 174.687 234.737 187.06 228.901 199.125L311.513 154.022L311.625 155.223C317.684 144.445 322.354 132.943 325.523 120.991C326.746 116.29 327.853 111.578 328.844 106.856L245.79 158.072Z" fill="#0FB953"/>
<path d="M270.713 38.5871C273.315 17.2852 274.857 -2.95628 275.729 -21.0435L218.379 -95.4112L218.878 -96.4996C204.868 -88.5483 191.458 -75.633 179.612 -58.6136L270.713 38.5871Z" fill="#0FB953"/>
<path d="M225.69 201.782L140.814 96.0132C147.265 175.823 179.413 259.558 181.483 264.881C199.393 246.904 213.915 225.228 225.69 201.782Z" fill="#0FB953"/>
<path d="M244.663 156.149L244.742 156.1C250.563 139.058 255.461 121.715 259.416 104.146L151.822 -2.36011C149.47 4.49451 147.328 11.6176 145.396 19.0092C142.723 29.6054 141.023 40.4233 140.315 51.3284L244.663 156.149Z" fill="#0FB953"/>
<path d="M-20.7608 -6.23203L-1.15326 45.518C13.8303 56.0619 30.2918 68.3505 47.0718 82.1205L22.5947 1.40366L23.6537 1.67902C7.79135 -3.33323 -7.58176 -6.11599 -21.7959 -6.43433L-20.7608 -6.23203Z" fill="#0FB953"/>
<path d="M132.332 68.7755L133.441 69.3079C127.844 63.9033 122.097 58.7477 116.2 53.8413L122.81 154.815L122.294 154.592C125.338 158.127 128.288 161.661 131.146 165.194L132.332 68.7755Z" fill="#0FB953"/>
<path d="M78.9881 27.4865L80.0881 27.9013C62.7298 17.1257 44.1564 8.44386 24.7559 2.03723L49.6987 84.2922C65.3672 97.2701 79.8717 110.355 93.2123 123.547L78.9881 27.4865Z" fill="#0FB953"/>
<path d="M-84.6689 108.888C-78.86 122.231 -71.7179 134.953 -63.3514 146.859L82.7405 115.498C70.9385 104.288 59.1716 93.9972 47.9948 84.7651L-83.9483 109.883L-84.6689 108.888Z" fill="#0FB953"/>
<path d="M-53.2511 160.443L-53.9923 159.457L93.2031 125.677C90.3762 122.858 87.5445 120.09 84.7078 117.373L-61.9232 148.851L-62.6572 147.861C-59.7118 152.059 -56.5765 156.253 -53.2511 160.443Z" fill="#0FB953"/>
<path d="M113.957 52.4203L115.064 52.899C104.345 44.0489 93.0419 35.9321 81.2305 28.604L95.6472 125.963C104.493 134.81 112.781 143.673 120.512 152.553L113.957 52.4203Z" fill="#0FB953"/>
<path d="M161.041 207.579C174.723 230.335 184.438 252.898 190.058 275.026C192.518 255.38 199.991 174.874 167.228 112.757L161.041 207.579Z" fill="#0FB953"/>
<path d="M-10.8398 201.655C0.0440922 209.391 11.4342 216.39 23.2539 222.603L22.508 221.482L158.275 206.302C150.499 193.639 141.971 181.455 132.736 169.813L-10.8398 201.655Z" fill="#0FB953"/>
<path d="M133.341 167.942C134.219 169.045 135.105 170.147 135.965 171.249C144.227 181.802 151.909 192.797 158.975 204.184L165.103 110.261L166.177 110.81C160.318 99.9226 153.102 89.8209 144.704 80.7468C141.388 77.1963 138 73.7387 134.542 70.374L133.341 167.942Z" fill="#0FB953"/>
<path d="M45.7597 82.928C29.1606 69.3261 12.8891 57.1879 -1.92162 46.7692L-95.4366 55.3981L-96.0892 54.3946C-96.8729 70.4843 -93.1429 88.7251 -85.1088 107.841L45.7597 82.928Z" fill="#0FB953"/>
<path d="M159.5 208.319L24.7266 223.388C95.5903 260.664 183.527 278.335 189.131 279.437C183.534 254.685 173 230.816 159.5 208.319Z" fill="#0FB953"/>
<path d="M131.112 167.865L131.114 167.772C119.835 153.733 107.808 140.311 95.0859 127.565L-52.4717 161.429C-47.9412 167.085 -43.0714 172.707 -37.8621 178.296C-30.3429 186.226 -22.116 193.453 -13.2837 199.888L131.112 167.865Z" fill="#0FB953"/>
<path d="M778.608 310.001C778.608 354.736 548.483 434.001 264.608 434.001C-19.266 434.001 -249.392 354.736 -249.392 310.001C-249.392 265.266 -19.266 272.001 264.608 272.001C548.483 272.001 778.608 265.266 778.608 310.001Z" fill="#3F3D56"/>
<path opacity="0.1" d="M778.608 310.001C778.608 354.736 548.483 434.001 264.608 434.001C-19.266 434.001 -249.392 354.736 -249.392 310.001C-249.392 265.266 -19.266 272.001 264.608 272.001C548.483 272.001 778.608 265.266 778.608 310.001Z" fill="black"/>
<path d="M264.608 391.001C548.483 391.001 778.608 354.736 778.608 310.001C778.608 265.266 548.483 229.001 264.608 229.001C-19.266 229.001 -249.392 265.266 -249.392 310.001C-249.392 354.736 -19.266 391.001 264.608 391.001Z" fill="#3F3D56"/>
<path opacity="0.1" d="M353.72 225.339C353.72 274.076 285.786 259.001 202.608 259.001C119.429 259.001 52.5039 274.076 52.5039 225.339C52.5039 176.601 120.429 166.001 203.608 166.001C286.786 166.001 353.72 176.601 353.72 225.339Z" fill="black"/>
<path d="M353.72 213.339C353.72 262.076 285.786 247.001 202.608 247.001C119.429 247.001 52.5039 262.076 52.5039 213.339C52.5039 164.601 120.429 154.001 203.608 154.001C286.786 154.001 353.72 164.601 353.72 213.339Z" fill="#3F3D56"/>
<path d="M86.1383 79.233C87.968 77.9308 89.9872 76.9182 92.1251 76.2307C105.68 71.1872 119.882 68.0956 134.307 67.0484C146.85 66.159 160.444 67.2154 170.24 75.0982C171.764 76.2163 173.011 77.669 173.885 79.3447C175.118 82.0043 174.744 85.0958 174.345 87.9998C174.256 89.1262 173.972 90.2286 173.506 91.2581C172.187 93.7681 168.942 94.6473 166.123 94.3464C163.304 94.0454 160.658 92.8526 157.878 92.2996C156.157 91.9996 154.416 91.8224 152.67 91.7693L135.23 90.8251C124.386 90.238 113.398 89.6607 102.761 91.8493C99.4859 92.438 96.3216 93.5283 93.3794 95.082C90.9498 96.4462 89.3137 98.4036 87.0592 95.884C83.0984 91.4574 80.906 83.3217 86.1383 79.233Z" fill="#2F2E41"/>
<path d="M113.163 86.9452C113.163 86.9452 136.62 76.4299 145.517 88.5629C154.415 100.696 140.664 95.8427 140.664 95.8427L125.296 100.696L108.31 97.4604L113.163 86.9452Z" fill="#F2F2F2"/>
<path d="M114.376 79.2609C114.376 79.2609 117.611 94.6293 115.185 98.6736C112.758 102.718 128.936 108.38 128.936 108.38L144.304 101.909C144.304 101.909 140.26 76.8343 144.304 71.9811L114.376 79.2609Z" fill="#FFB9B9"/>
<path opacity="0.1" d="M114.376 79.2609C114.376 79.2609 117.611 94.6293 115.185 98.6736C112.758 102.718 128.936 108.38 128.936 108.38L144.304 101.909C144.304 101.909 140.26 76.8343 144.304 71.9811L114.376 79.2609Z" fill="black"/>
<path d="M99.2187 264.056C101.393 268.565 103.182 273.251 104.564 278.063C104.586 278.222 104.642 278.375 104.728 278.51C104.814 278.646 104.927 278.762 105.061 278.851C105.194 278.94 105.345 279 105.504 279.026C105.662 279.053 105.824 279.045 105.98 279.005L120.367 278.989C122.143 278.987 124.525 278.417 124.506 276.641C124.493 275.394 123.218 274.616 122.269 273.806C119.635 271.559 118.95 267.853 117.859 264.568C115.739 258.238 111.653 252.75 106.197 248.904C105.459 248.326 104.61 247.907 103.703 247.672C102.791 247.539 101.862 247.59 100.97 247.82C98.4445 248.329 89.013 250.073 90.7947 253.746C91.5618 255.328 94.4048 256.975 95.5968 258.452C96.9859 260.196 98.1991 262.073 99.2187 264.056Z" fill="#575A89"/>
<path d="M149.25 247.369C148.743 248.435 148.179 249.473 147.559 250.478C145.475 253.916 143.015 257.123 141.074 260.643C139.765 262.794 138.957 265.212 138.71 267.717C138.599 268.97 138.791 270.231 139.269 271.394C139.747 272.557 140.497 273.589 141.456 274.402C143.545 275.987 146.408 276.06 149.004 275.691C151.599 275.322 154.18 274.578 156.795 274.774C155.913 269.786 160.12 265.396 161.172 260.441C161.468 259.049 161.511 257.606 161.908 256.239C162.334 254.99 162.879 253.784 163.536 252.639C165.631 248.559 167.111 244.192 167.93 239.68C168.029 239.133 155.141 239.043 153.932 239.304C150.159 240.12 150.711 244.24 149.25 247.369Z" fill="#575A89"/>
<path d="M49.9134 169.003C46.2341 174.761 47.0819 182.391 49.666 188.717C52.2501 195.042 56.3629 200.634 59.1779 206.86C60.9725 210.829 62.2309 215.038 64.2517 218.897C66.7541 223.675 70.4077 227.888 72.087 233.014C73.1574 236.281 73.4029 239.863 75.1368 242.832C76.1849 244.419 77.3811 245.903 78.7093 247.264C82.444 251.543 85.2481 256.551 86.9433 261.972C88.528 257.251 93.2735 254.156 98.1475 253.135C103.021 252.114 108.072 252.807 113.003 253.504C110.252 249.243 107.475 244.927 105.835 240.128C104.249 235.486 103.782 230.548 102.713 225.761C100.523 215.943 95.8437 206.888 91.2113 197.96L115.022 196.071C118.908 195.681 122.815 195.536 126.72 195.637C132.866 195.927 138.886 197.433 144.999 198.13C151.112 198.826 157.579 198.644 163.027 195.784C152.61 210.731 147.185 228.588 147.527 246.804C149.855 245 152.557 243.739 155.436 243.115C158.314 242.49 161.296 242.517 164.162 243.193C167.029 243.87 169.708 245.179 172.004 247.025C174.299 248.87 176.152 251.206 177.429 253.86C186.76 241.109 185.65 223.358 193.044 209.394C194.565 206.522 196.428 203.848 198.069 201.043C201.169 195.412 203.824 189.546 206.008 183.499C208.076 178.209 210.16 172.323 208.176 167.001C207.353 164.981 206.153 163.137 204.641 161.565C200.375 156.862 194.437 153.382 188.089 153.237C178.344 153.015 170.293 160.239 161.745 164.923C151.539 170.347 139.996 172.741 128.476 171.822C116.733 170.991 105.519 167.147 94.3312 163.762C88.7347 161.99 83.0462 160.522 77.2909 159.366C72.4934 158.466 67.9243 159.463 63.1965 160.69C58.0492 162.026 52.8758 164.367 49.9134 169.003Z" fill="#2F2E41"/>
<path d="M151.584 63.8925C151.578 70.3266 149.02 76.4957 144.47 81.0453C139.921 85.5949 133.752 88.1532 127.318 88.1584C125.872 88.1609 124.429 88.0309 123.006 87.7702C118.465 86.9501 114.252 84.852 110.861 81.722C107.47 78.5921 105.042 74.56 103.861 70.0989C102.681 65.6377 102.797 60.9324 104.196 56.5348C105.595 52.1373 108.219 48.2299 111.76 45.271C115.302 42.3121 119.613 40.4244 124.189 39.8292C128.766 39.2341 133.417 39.9562 137.597 41.911C141.777 43.8657 145.313 46.9719 147.791 50.8653C150.268 54.7587 151.584 59.2778 151.584 63.8925Z" fill="#FFB9B9"/>
<path d="M113.163 86.9451C113.163 86.9451 117.612 88.9673 119.23 90.585C120.847 92.2027 125.7 101.1 133.789 95.4382C141.878 89.7761 142.687 86.5406 145.113 86.5406C147.54 86.5406 150.775 91.3939 150.775 91.3939L173.019 158.125C167.024 164.892 160.076 170.75 152.393 175.516C139.451 183.604 124.083 187.649 116.803 184.413C109.523 181.178 95.7725 178.751 93.3459 172.28C90.9193 165.809 86.875 146.397 86.875 146.397L98.1991 97.0558L113.163 86.9451Z" fill="#F2F2F2"/>
<path d="M110.039 154.435C111.803 150.626 112.059 146.315 112.208 142.12C112.446 137.965 112.336 133.798 111.879 129.661C111.162 124.251 109.4 119.038 108.288 113.695C107.312 109.008 106.838 104.232 106.873 99.4449C106.889 97.2607 107.047 94.9613 108.238 93.1299C109.068 91.8521 110.367 90.8626 110.886 89.4299C111.903 86.6206 109.389 83.6791 106.635 82.5222C103.279 81.2642 99.609 81.1168 96.1638 82.1018C92.7463 83.0894 89.4444 84.4402 86.3147 86.131C83.948 87.1404 81.7715 88.5474 79.8794 90.291C77.3686 92.8892 76.2646 96.508 75.3731 100.009C74.6596 102.812 74.0254 105.734 74.5683 108.575C75.4499 113.187 79.2101 116.656 81.2146 120.903C83.5423 125.835 83.3855 131.581 82.4597 136.955C81.5339 142.329 79.8903 147.584 79.3835 153.013C78.8767 158.443 79.6547 164.279 83.0564 168.542C84.4426 170.278 88.2031 174.395 90.7408 173.929C92.7344 173.563 95.6248 169.174 97.2308 167.783C101.87 163.764 107.375 160.19 110.039 154.435Z" fill="#2F2E41"/>
<path d="M152.418 84.3072C152.489 88.8185 150.5 93.1066 148.162 96.965C145.823 100.823 143.076 104.473 141.353 108.642C139.211 113.862 138.774 119.625 140.103 125.108C140.598 126.976 141.193 128.815 141.888 130.618L146.32 142.774C146.916 144.685 147.781 146.502 148.889 148.169C149.891 149.447 151.067 150.577 152.382 151.529C155.748 154.248 159.622 156.268 163.778 157.474C167.962 158.671 172.428 158.416 176.449 156.751C176.877 140.272 179.524 123.925 184.321 108.153C185.207 105.242 186.175 102.177 185.491 99.2111C184.726 95.8893 182.058 93.3953 179.521 91.1177C171.765 84.1521 163.235 76.8354 152.852 75.8964C146.843 75.3529 152.367 81.0457 152.418 84.3072Z" fill="#2F2E41"/>
<path d="M99.3368 178.349C99.952 179.554 100.335 180.865 100.943 182.073C101.841 183.692 102.951 185.185 104.244 186.511C109.652 192.508 116.263 198.482 124.33 198.843C125.132 198.918 125.94 198.817 126.698 198.545C127.38 198.196 127.966 197.685 128.405 197.057C128.844 196.43 129.123 195.704 129.217 194.943C129.789 191.811 128.407 188.685 127.022 185.817C124.021 179.603 120.645 173.23 115.027 169.222C112.222 167.299 109.017 166.038 105.654 165.532C102.291 165.026 98.8569 165.289 95.6101 166.301C92.6836 167.202 87.831 168.776 91.7056 171.446C94.645 173.472 97.6327 175.014 99.3368 178.349Z" fill="#FFB9B9"/>
<path d="M134.21 99.2251C133.368 96.951 132.077 94.8695 130.414 93.1046C128.736 91.6866 126.751 90.6806 124.615 90.167C121.848 89.3765 118.986 88.9663 116.109 88.9478C112.683 88.9265 108.711 89.8454 107.256 92.9468C106.101 95.4097 106.997 98.3261 108.16 100.785C108.657 102.059 109.485 103.177 110.558 104.025C112.035 105.023 113.946 104.991 115.697 105.325C118.412 106.015 120.984 107.18 123.292 108.767L129.292 112.394L139.598 118.623C139.327 118.459 139.423 111.392 139.107 110.234C138.087 106.503 135.791 102.758 134.21 99.2251Z" fill="#FFB9B9"/>
<path d="M139.54 267.891C137.669 269.364 136.238 271.324 135.405 273.556C133.143 278.774 132.366 284.495 131.612 290.132C131.182 292.374 131.138 294.673 131.481 296.931C132.456 301.534 136.628 304.925 141.118 306.332C145.608 307.74 150.425 307.523 155.125 307.293C156.641 307.331 158.146 307.026 159.528 306.398C161.89 305.096 162.813 302.034 162.408 299.367C162.003 296.701 160.546 294.328 159.12 292.038C157.693 289.749 156.235 287.377 155.827 284.711C155.14 280.226 157.078 273.642 154.323 269.584C151.562 265.518 143.225 265.308 139.54 267.891Z" fill="#2F2E41"/>
<path d="M150.973 51.2464C150.541 49.7953 149.59 48.5539 148.302 47.7594C148.368 46.205 148.178 44.6502 147.738 43.1578C146.268 38.8133 142.787 39.0623 139.502 37.1416C138.077 36.3082 138.165 35.5717 137.423 34.203C136.451 32.4086 134.995 30.9231 133.221 29.9151C131.113 28.5724 128.889 27.1897 126.396 27.0198C121.157 26.6627 117.14 31.5903 112.133 33.1718C109.926 33.8688 107.554 33.8976 105.336 34.5565C103.117 35.2155 100.903 36.789 100.573 39.0798C100.42 40.1374 100.689 41.2223 100.534 42.2796C100.227 44.381 98.3829 45.8527 97.1487 47.5812C94.4195 51.4033 94.7317 56.803 96.9142 60.9616C97.3742 61.8221 97.9003 62.6455 98.488 63.4244C98.6701 65.39 99.2346 67.3012 100.15 69.0503C102.332 73.2089 106.088 76.3165 110.011 78.8983C109.69 77.5191 109.495 76.1135 109.429 74.6989C109.374 74.2274 109.435 73.7496 109.608 73.3075C110.045 72.3941 111.199 72.1512 112.079 71.651C113.903 70.615 114.618 68.3221 114.67 66.2257C114.723 64.1294 114.279 62.0296 114.498 59.9441C114.507 59.4645 114.616 58.9921 114.818 58.5572C115.021 58.1223 115.312 57.7347 115.673 57.4193C116.346 57.0354 117.115 56.8522 117.889 56.8911C121.624 56.7387 125.527 56.6701 128.822 54.9036C129.885 54.1978 131.027 53.6199 132.225 53.1821C135.026 52.4519 137.888 54.4145 139.501 56.8166C141.115 59.2187 141.92 62.0773 143.409 64.5587C144.898 67.0401 147.47 69.253 150.349 68.959C150.511 68.9594 150.672 68.9255 150.82 68.8596C150.968 68.7938 151.1 68.6973 151.209 68.5767C151.333 68.3536 151.388 68.0987 151.367 67.8442L151.528 56.8396C151.662 54.9573 151.474 53.0659 150.973 51.2464Z" fill="#2F2E41"/>
<path d="M74.1792 108.809C71.8639 112.225 69.1944 115.509 67.9218 119.435C67.1738 121.742 66.9415 124.18 66.4 126.545C64.5962 134.419 59.3852 141.413 58.8614 149.474C58.6779 151.265 58.941 153.074 59.6271 154.739C61.1219 157.991 64.6994 159.704 68.112 160.782C71.5245 161.86 75.1893 162.637 77.9131 164.958C79.2845 166.273 80.5281 167.714 81.6271 169.264C86.071 174.791 92.0496 178.881 98.8113 181.021C98.2772 177.341 98.0265 172.904 100.969 170.629C102.561 169.398 104.689 169.179 106.695 169.005L116.172 168.186C109.853 162.057 102.887 156.63 95.3968 152.002C92.7762 150.383 89.9239 148.675 88.7273 145.837C88.1091 144.008 87.8525 142.076 87.9717 140.149C87.9066 133.101 87.3097 126.067 86.1864 119.109C85.4062 114.277 84.3731 109.488 83.1916 104.739C82.8599 103.405 80.8994 97.4245 78.4863 98.824C77.9179 99.1536 77.386 102.948 77.0542 103.735C76.2642 105.516 75.3012 107.216 74.1792 108.809Z" fill="#2F2E41"/>
<path d="M183.335 95.9018L187.206 103.951C189.07 107.261 189.919 111.046 189.646 114.835L189.876 138.98C190.054 142.206 189.787 145.441 189.082 148.594C188.84 149.633 188.386 150.611 187.747 151.465C187.09 152.201 186.317 152.825 185.458 153.309C178.133 157.886 168.635 160.487 160.896 156.652C159.124 155.707 157.438 154.607 155.86 153.365C152.776 151.081 149.646 148.752 147.339 145.685C144.924 142.475 143.54 138.632 141.915 134.959C138.999 128.369 135.232 122.19 130.71 116.579C129.96 115.838 129.473 114.872 129.322 113.829C129.274 111.712 131.785 110.671 133.743 109.865C137.088 108.49 140.242 105.835 140.801 102.262C147.914 111.589 155.763 121.444 166.986 124.853C167.162 124.965 167.365 125.028 167.574 125.034C167.783 125.041 167.989 124.99 168.172 124.889C168.355 124.787 168.506 124.639 168.611 124.458C168.716 124.277 168.77 124.072 168.768 123.863C169.404 121.197 169.63 118.452 170.096 115.751C170.951 110.833 172.597 106.086 174.97 101.695C176.299 99.2327 180.604 90.2202 183.335 95.9018Z" fill="#2F2E41"/>
<path opacity="0.1" d="M87.2946 119.178C87.4014 124.892 86.1877 130.554 83.7478 135.721C83.1131 136.864 82.6454 138.091 82.359 139.366C81.9344 142.085 83.482 144.718 85.2509 146.826C88.7403 150.973 93.2661 154.122 98.3677 155.952" fill="black"/>
<path opacity="0.1" d="M171.337 114.363C170.766 115.896 171.284 117.592 171.724 119.168C172.997 123.739 173.592 128.473 173.488 133.217C173.507 133.3 173.504 133.386 173.481 133.468C173.458 133.55 173.415 133.625 173.355 133.685C173.296 133.746 173.222 133.791 173.141 133.817C173.06 133.842 172.974 133.847 172.89 133.83C171.023 133.944 168.886 133.957 167.619 132.58" fill="black"/>
</g>
</g>
<defs>
<linearGradient id="paint0_linear" x1="122.011" y1="130.865" x2="178.778" y2="130.865" gradientUnits="userSpaceOnUse">
<stop stop-color="#808080" stop-opacity="0.25"/>
<stop offset="0.53514" stop-color="#808080" stop-opacity="0.12"/>
<stop offset="1" stop-color="#808080" stop-opacity="0.1"/>
</linearGradient>
<clipPath id="clip0">
<rect width="304" height="272" fill="white"/>
</clipPath>
<clipPath id="clip1">
<rect width="1036.61" height="758.001" fill="white" transform="translate(-258 -324)"/>
</clipPath>
</defs>
</svg>
