<svg width="318" height="244" viewBox="0 0 318 244" fill="none" xmlns="http://www.w3.org/2000/svg">
<path opacity="0.1" d="M311.848 55.557C308.598 49.2502 304.337 43.5173 299.232 38.5858L124.231 37.1298L268.316 20.0433C258.888 16.8927 249.024 15.2405 239.083 15.147C225.212 5.68891 207.384 0.0140381 187.938 0.0140381C170.49 0.0140381 154.357 4.59273 141.203 12.3616C130.025 7.49903 117.283 4.7417 103.744 4.7417C64.8608 4.7417 32.4614 27.4806 25.1924 57.6369L311.848 55.557Z" fill="#0FB953"/>
<path opacity="0.1" d="M318 80.848C317.988 72.585 316.124 64.4294 312.546 56.9792L9.24733 83.8611C6.1688 88.5485 3.77608 93.6509 2.14158 99.0138L96.0641 110.836L0 119.453C2.89014 153.593 37.5493 180.548 79.8884 180.548C101.2 180.548 120.564 173.718 134.914 162.579C149.308 173.928 168.858 180.907 190.4 180.907C222.361 180.907 249.948 165.541 262.795 143.325C288.567 136.416 308.587 119.074 315.439 97.378L196.662 81.8233H318C318 81.4973 318 81.1741 318 80.848Z" fill="#0FB953"/>
<path opacity="0.1" d="M140.703 243.997C185.772 243.997 222.308 242.369 222.308 240.36C222.308 238.351 185.772 236.723 140.703 236.723C95.6335 236.723 59.0977 238.351 59.0977 240.36C59.0977 242.369 95.6335 243.997 140.703 243.997Z" fill="#0FB953"/>
<path d="M189.137 233.963V236.161H124.06V234.376C128.028 232.907 131.472 230.296 133.954 226.872C136.436 223.447 137.844 219.365 138.002 215.14C138.16 210.916 137.059 206.74 134.839 203.141C132.619 199.542 129.38 196.681 125.531 194.922H188.695C184.933 196.642 181.751 199.416 179.536 202.906C177.32 206.396 176.166 210.453 176.213 214.586C176.259 218.718 177.505 222.748 179.799 226.188C182.093 229.627 185.337 232.328 189.137 233.963Z" fill="#C8CAD7"/>
<path opacity="0.1" d="M188.695 194.922C185.792 196.253 183.224 198.216 181.179 200.666C179.134 203.117 177.664 205.993 176.876 209.085H137.354C136.565 205.994 135.095 203.117 133.05 200.667C131.005 198.216 128.437 196.253 125.534 194.922H188.695Z" fill="black"/>
<path d="M49.5293 183.724V196.063C49.5293 202.876 54.5216 208.399 60.6818 208.399H252.163C258.323 208.399 263.315 202.876 263.315 196.063V183.724H49.5293Z" fill="#C8CAD7"/>
<path opacity="0.1" d="M189.137 233.963V236.161H124.06V234.376C125.844 233.713 127.531 232.815 129.077 231.706H185.147C186.392 232.598 187.73 233.355 189.137 233.963Z" fill="black"/>
<path d="M207.969 232.392H105.227C103.751 232.392 102.554 233.587 102.554 235.062V236.234C102.554 237.709 103.751 238.904 105.227 238.904H207.969C209.446 238.904 210.643 237.709 210.643 236.234V235.062C210.643 233.587 209.446 232.392 207.969 232.392Z" fill="#C8CAD7"/>
<path d="M263.315 48.5189C263.312 45.5673 262.135 42.738 260.044 40.6525C257.953 38.5671 255.118 37.396 252.163 37.3968H60.6903C57.7337 37.3938 54.8969 38.5638 52.8039 40.6495C50.7109 42.7353 49.533 45.5659 49.5293 48.5189V186.124H263.315V48.5189Z" fill="#474157"/>
<path d="M257.496 53.4883V171.728C257.497 172.448 257.355 173.161 257.079 173.827C256.803 174.492 256.399 175.097 255.889 175.606C255.379 176.115 254.774 176.519 254.107 176.795C253.441 177.07 252.727 177.212 252.006 177.211H60.8625C60.1414 177.212 59.4273 177.07 58.761 176.795C58.0947 176.519 57.4893 176.115 56.9794 175.606C56.4695 175.097 56.065 174.492 55.7893 173.827C55.5135 173.161 55.3717 172.448 55.3721 171.728V53.4883C55.3721 52.034 55.9505 50.6391 56.9802 49.6107C58.0098 48.5823 59.4063 48.0046 60.8625 48.0046H251.992C252.714 48.0027 253.429 48.1432 254.097 48.418C254.765 48.6927 255.372 49.0964 255.883 49.6058C256.395 50.1152 256.8 50.7203 257.077 51.3865C257.354 52.0528 257.496 52.767 257.496 53.4883Z" fill="#4C4C78"/>
<path d="M156.426 45.2641C157.848 45.2641 159.001 44.1127 159.001 42.6923C159.001 41.2719 157.848 40.1205 156.426 40.1205C155.003 40.1205 153.851 41.2719 153.851 42.6923C153.851 44.1127 155.003 45.2641 156.426 45.2641Z" fill="white"/>
<path d="M156.425 202.918C159.931 202.918 162.774 200.079 162.774 196.577C162.774 193.075 159.931 190.236 156.425 190.236C152.919 190.236 150.076 193.075 150.076 196.577C150.076 200.079 152.919 202.918 156.425 202.918Z" fill="white"/>
<path d="M98.0826 50.7478V177.211H60.8625C60.1414 177.212 59.4273 177.07 58.761 176.795C58.0947 176.519 57.4893 176.115 56.9794 175.606C56.4695 175.097 56.065 174.492 55.7893 173.826C55.5135 173.161 55.3717 172.448 55.3721 171.728V53.4883L55.5719 52.7434L56.1066 50.7478H98.0826Z" fill="white"/>
<path d="M102.858 52.7435V64.1269H55.3721V53.4883L55.5719 52.7435H102.858Z" fill="#4C4C78"/>
<path d="M257.496 53.4883H55.3721C55.3721 52.7683 55.5141 52.0553 55.7901 51.3902C56.066 50.725 56.4705 50.1207 56.9804 49.6117C57.4902 49.1027 58.0955 48.699 58.7616 48.4238C59.4277 48.1485 60.1416 48.007 60.8625 48.0074H251.992C252.714 48.0051 253.429 48.1453 254.097 48.4197C254.765 48.6942 255.372 49.0975 255.883 49.6067C256.394 50.1159 256.8 50.7208 257.077 51.3869C257.354 52.053 257.496 52.7671 257.496 53.4883Z" fill="#C8CAD7"/>
<path d="M60.8626 52.1194C61.621 52.1194 62.2359 51.5053 62.2359 50.7478C62.2359 49.9903 61.621 49.3762 60.8626 49.3762C60.1041 49.3762 59.4893 49.9903 59.4893 50.7478C59.4893 51.5053 60.1041 52.1194 60.8626 52.1194Z" fill="#EDEDF4"/>
<path d="M64.9797 52.1194C65.7382 52.1194 66.3531 51.5053 66.3531 50.7478C66.3531 49.9903 65.7382 49.3762 64.9797 49.3762C64.2213 49.3762 63.6064 49.9903 63.6064 50.7478C63.6064 51.5053 64.2213 52.1194 64.9797 52.1194Z" fill="#EDEDF4"/>
<path d="M69.096 52.1194C69.8544 52.1194 70.4693 51.5053 70.4693 50.7478C70.4693 49.9903 69.8544 49.3762 69.096 49.3762C68.3375 49.3762 67.7227 49.9903 67.7227 50.7478C67.7227 51.5053 68.3375 52.1194 69.096 52.1194Z" fill="#EDEDF4"/>
<path d="M90.9846 57.755H62.4688V60.3774H90.9846V57.755Z" fill="#0FB953"/>
<path opacity="0.5" d="M90.9846 70.5439H62.4688V73.1663H90.9846V70.5439Z" fill="#0FB953"/>
<path opacity="0.5" d="M90.9846 79.586H62.4688V82.2084H90.9846V79.586Z" fill="#0FB953"/>
<path opacity="0.5" d="M90.9846 88.6281H62.4688V91.2505H90.9846V88.6281Z" fill="#0FB953"/>
<path opacity="0.5" d="M90.9846 97.6675H62.4688V100.29H90.9846V97.6675Z" fill="#0FB953"/>
<path opacity="0.5" d="M90.9846 106.71H62.4688V109.332H90.9846V106.71Z" fill="#0FB953"/>
<path opacity="0.5" d="M90.9846 115.752H62.4688V118.374H90.9846V115.752Z" fill="#0FB953"/>
<path opacity="0.5" d="M90.9846 124.791H62.4688V127.414H90.9846V124.791Z" fill="#0FB953"/>
<path opacity="0.5" d="M247.786 67.3986H121.428V67.8202H247.786V67.3986Z" fill="#DCE0ED"/>
<path opacity="0.5" d="M247.786 77.1884H121.428V77.61H247.786V77.1884Z" fill="#DCE0ED"/>
<path opacity="0.5" d="M247.786 86.9811H121.428V87.4027H247.786V86.9811Z" fill="#DCE0ED"/>
<path opacity="0.5" d="M247.786 96.7708H121.428V97.1924H247.786V96.7708Z" fill="#DCE0ED"/>
<path opacity="0.5" d="M247.786 106.561H121.428V106.982H247.786V106.561Z" fill="#DCE0ED"/>
<path opacity="0.5" d="M247.79 106.979H121.273V87.7259L132.876 93.4373L144.884 95.0619L155.42 91.8886L168.132 82.0426L174.526 78.3549L179.2 77.4555L183.672 77.6944L191.028 81.323L201.024 87.6837L208.87 88.6928L215.092 86.551L228.276 75.7634L235.008 73.3658L242.052 74.4536L247.79 77.7618V106.979Z" fill="#0FB953"/>
<path d="M143.325 95.0675C131.933 95.0675 121.403 88.1081 121.273 88.0182L121.586 87.5516C121.749 87.6612 137.953 98.3701 151.723 93.0044C156.749 91.051 160.317 88.007 163.784 85.0669C167.395 81.9948 170.805 79.0913 175.452 77.8321C180.799 76.3902 186.61 77.6972 191.036 81.3286C194.819 84.4345 202.355 89.4236 210.316 87.9311C214.374 87.1722 217.796 84.2096 221.418 81.0757C228.352 75.0607 235.545 68.8518 247.953 77.7674L247.624 78.2228C235.565 69.5685 228.555 75.6341 221.778 81.5001C218.097 84.6875 214.619 87.6837 210.412 88.4848C202.223 90.0166 194.529 84.932 190.671 81.7643C186.385 78.2453 180.748 76.9861 175.592 78.3774C171.064 79.6029 167.713 82.4642 164.142 85.4942C160.649 88.4651 157.036 91.54 151.928 93.53C149.181 94.5729 146.264 95.0943 143.325 95.0675Z" fill="#0FB953"/>
<path d="M182.231 80.5276C183.961 80.5276 185.363 79.127 185.363 77.3992C185.363 75.6715 183.961 74.2709 182.231 74.2709C180.501 74.2709 179.099 75.6715 179.099 77.3992C179.099 79.127 180.501 80.5276 182.231 80.5276Z" fill="#0FB953"/>
<path d="M103.736 145.382C99.4552 142.92 97.8258 142.31 97.8258 142.308L97.7386 142.246C97.271 141.888 96.8997 141.419 96.6579 140.882C96.6579 140.784 96.6579 140.686 96.6579 140.601V140.63C96.7283 139.325 97.6541 138.142 98.535 137.108C99.2854 136.225 100.036 135.343 100.786 134.463C101.045 134.195 101.243 133.875 101.366 133.524C101.412 133.34 101.433 133.151 101.428 132.962C101.428 132.883 101.428 132.807 101.428 132.731C101.428 132.074 101.397 131.416 101.374 130.764C101.352 130.188 101.206 129.465 100.629 129.358C100.33 129.297 99.9364 129.403 99.7844 129.148C99.7292 129.043 99.7151 128.922 99.745 128.808C99.745 128.808 99.745 128.824 99.745 128.833C99.744 128.823 99.744 128.812 99.745 128.802C99.856 128.358 99.9276 127.906 99.9589 127.45C99.9691 127.219 99.9376 126.987 99.8661 126.767C99.5312 125.814 98.3858 125.423 97.3727 125.244C96.3596 125.064 95.2227 124.909 94.5867 124.119C94.4123 123.856 94.2244 123.602 94.0239 123.358C93.7292 123.098 93.3708 122.922 92.9854 122.846C91.7286 122.535 90.4038 122.651 89.2201 123.175C88.7304 123.394 88.238 123.686 87.7005 123.655C87.163 123.625 86.6648 123.234 86.1133 123.141C85.224 122.989 84.3713 123.644 83.9323 124.417C83.672 124.876 83.5334 125.394 83.5299 125.921C83.5299 125.949 83.5299 125.98 83.5299 126.008C83.5188 126.575 83.7263 127.124 84.1096 127.543C84.4923 127.942 85.0636 128.215 85.2352 128.737C85.3 128.951 85.2859 129.181 85.3422 129.395C85.3422 129.423 85.3591 129.448 85.3675 129.477L85.3366 129.513C84.4224 130.688 83.9272 132.134 83.9295 133.622C83.9383 135.067 84.4064 136.472 85.2663 137.634C86.1261 138.796 87.3332 139.655 88.7135 140.087C88.7135 140.152 88.7135 140.219 88.7135 140.289C88.7326 140.711 88.6595 141.132 88.4991 141.523C88.3387 141.914 88.095 142.265 87.7849 142.552L81.7119 144.986C81.7119 144.986 78.0535 144.553 76.7365 149.891C76.5254 150.777 76.4495 151.689 76.5114 152.598C76.5592 153.404 76.4466 154.821 75.5095 156.654C74.0096 159.588 74.3501 166.32 77.4175 166.986C80.3133 167.615 81.4474 167.354 81.5656 167.323V167.441C81.5177 168.706 81.059 179.6 79.3902 180.933C78.9259 181.295 79.0131 181.543 79.3902 181.708C79.3902 181.708 79.3902 181.779 79.3902 181.905C79.3396 182.703 79.0807 185.736 77.9635 187.465C76.6802 189.458 76.8265 200.982 76.8265 200.982L75.9429 207.781C75.9429 207.781 76.486 211.98 75.9429 212.714C75.456 213.369 74.8172 228.906 74.6709 232.274H74.6146C74.3474 232.29 74.0882 232.371 73.8596 232.51C73.631 232.649 73.44 232.842 73.3032 233.072C72.5772 234.235 70.0726 236.38 70.0726 236.38C69.5294 237.153 67.5145 237.892 66.4507 238.241C66.3084 238.286 66.1708 238.346 66.0399 238.418C65.6416 238.635 65.3216 238.971 65.1253 239.379C65.0561 239.499 65.012 239.632 64.9955 239.77C64.9791 239.908 64.9907 240.047 65.0296 240.18C65.311 240.846 70.959 241.304 72.3886 240.647C73.5143 240.124 77.9719 239.433 79.8236 239.163C80.1596 239.12 80.472 238.968 80.7115 238.728C80.951 238.489 81.1039 238.177 81.1463 237.842C81.164 237.726 81.1582 237.608 81.1292 237.494C81.1002 237.381 81.0486 237.274 80.9774 237.181C80.6228 236.743 80.4399 235.545 80.3583 234.764C80.5086 234.702 80.649 234.619 80.7748 234.517C80.6229 232.094 80.9706 229.666 81.7963 227.383C83.1584 223.785 83.5693 217.118 83.2288 212.784C83.2288 212.784 87.3853 194.916 90.6581 193.249C90.7088 193.311 92.296 195.346 92.4986 201.648C92.7012 208.048 95.0173 212.247 95.0173 212.247C95.0173 212.247 93.9957 223.113 95.0173 227.181L93.6749 233.586C93.6189 233.54 93.5654 233.492 93.5145 233.44C93.5145 233.44 93.5539 233.62 93.6102 233.904L93.582 234.039L93.6383 234.053C93.7903 234.854 94.0154 236.251 93.9197 237.072C93.8663 237.541 93.7368 238.179 93.6383 238.809C93.4976 239.795 93.4582 240.754 93.9788 240.962C94.8231 241.304 99.8407 241.774 100.693 240.681C100.885 240.456 101.009 240.183 101.053 239.892C101.097 239.601 101.058 239.304 100.941 239.033C100.879 238.883 100.796 238.742 100.693 238.615C100.693 238.615 99.3623 236.442 99.7394 234.91C99.774 234.761 99.7775 234.606 99.75 234.455C99.7224 234.304 99.6642 234.161 99.579 234.033C99.7742 231.608 100.165 229.203 100.747 226.84C101.591 223.633 103.398 216.601 102.075 211.974C102.025 211.795 101.968 211.615 101.906 211.44C101.142 208.916 100.887 206.265 101.155 203.641C100.663 201.401 100.663 199.081 101.155 196.841C101.965 193.112 102.537 189.458 102.537 189.458C102.537 189.458 102.987 184.525 102.593 181.5L102.568 181.307L102.782 181.259C102.782 181.259 101.625 176.126 101.214 172.86C101.118 172.087 100.992 171.112 100.854 170.069C101.231 170.004 101.603 169.91 101.965 169.788C105.646 168.52 106.803 157.053 106.803 157.053V153.416C106.803 153.416 108.03 147.859 103.736 145.382ZM76.3172 233.921L76.1371 233.825L76.3172 233.921Z" fill="url(#paint0_linear)"/>
<path d="M101.515 211.55C103.111 216.134 101.234 223.574 100.389 226.897C99.8209 229.299 99.4445 231.743 99.2638 234.205C97.3218 234.532 95.3351 234.486 93.4103 234.07L94.8174 227.228C93.8212 223.175 94.8174 212.346 94.8174 212.346C94.8174 212.346 92.5661 208.158 92.3578 201.78C92.1608 195.504 90.6131 193.474 90.5624 193.41C87.3458 195.079 83.2991 212.88 83.2991 212.88C83.6311 217.197 83.2315 223.841 81.892 227.431C81.0846 229.709 80.7448 232.127 80.893 234.539C80.4286 234.93 79.7814 234.997 79.0834 234.885C77.1839 234.578 74.9072 232.943 74.9072 232.943C74.9072 232.943 75.6389 213.549 76.1708 212.812C76.7027 212.076 76.1708 207.896 76.1708 207.896L77.0347 201.119C77.0347 201.119 76.9025 189.626 78.1604 187.628C79.2523 185.905 79.5028 182.881 79.5534 182.088C79.5534 181.961 79.5534 181.891 79.5534 181.891L81.4783 179.589C81.4783 179.589 100.105 178.184 101.501 179.589C101.844 179.932 102.064 180.713 102.182 181.692C102.565 184.705 102.126 189.621 102.126 189.621C102.126 189.621 101.563 193.275 100.769 196.993C100.289 199.227 100.289 201.537 100.769 203.77C100.509 206.387 100.763 209.03 101.515 211.55Z" fill="#65617D"/>
<path d="M100.35 240.683C99.5195 241.78 94.6313 241.316 93.7983 240.964C93.289 240.754 93.3284 239.801 93.4662 238.817C93.5535 238.19 93.6801 237.552 93.7308 237.088C93.8659 235.891 93.334 233.465 93.334 233.465C93.334 233.465 94.4315 234.629 94.696 233.465C94.7572 233.243 94.8779 233.042 95.045 232.884C95.2121 232.725 95.4193 232.616 95.6444 232.566C96.2146 232.394 96.8277 232.432 97.3723 232.673C98.2362 233.047 99.6771 233.845 99.4182 234.921C99.0523 236.448 100.35 238.612 100.35 238.612C100.45 238.739 100.532 238.88 100.592 239.031C100.708 239.302 100.748 239.599 100.705 239.891C100.662 240.183 100.539 240.457 100.35 240.683Z" fill="#A27772"/>
<path opacity="0.1" d="M100.35 240.683C99.52 241.78 94.6318 241.316 93.7989 240.964C93.2895 240.754 93.3289 239.801 93.4668 238.817C93.9902 239.062 94.8739 239.267 96.371 239.129C96.7189 239.095 97.0686 239.084 97.4179 239.095C98.4762 239.145 99.5367 239.124 100.592 239.033C100.708 239.304 100.747 239.601 100.705 239.893C100.662 240.184 100.539 240.457 100.35 240.683Z" fill="black"/>
<path opacity="0.1" d="M83.2996 212.88C83.6317 217.197 83.2321 223.841 81.8925 227.431C81.0851 229.709 80.7454 232.127 80.8935 234.539C80.4292 234.93 79.7819 234.997 79.084 234.885C79.4864 232.074 81.1946 220.008 82.2921 210.471C83.5388 199.607 89.3754 192.133 89.3754 192.133L90.5404 193.412C87.3464 195.079 83.2996 212.88 83.2996 212.88Z" fill="black"/>
<path d="M98.3547 143.052L97.5414 147.038L93.565 153.716L88.6599 151.622C88.6599 151.622 81.9903 144.646 86.1806 143.651C86.6829 143.544 87.1574 143.333 87.5736 143.033C88.3954 142.412 88.6543 141.512 88.6599 140.63C88.6268 139.641 88.3952 138.669 87.9789 137.771L96.5592 135.081C96.2043 136.207 95.9971 137.374 95.9429 138.552C95.8782 140.885 96.745 142.038 97.457 142.586C97.722 142.8 98.0272 142.958 98.3547 143.052Z" fill="#FBBEBE"/>
<path opacity="0.1" d="M96.5599 135.081C96.2049 136.207 95.9978 137.374 95.9436 138.552C95.0742 139.583 93.9168 140.331 92.6194 140.701C91.322 141.071 89.9436 141.046 88.6605 140.63C88.6274 139.641 88.3958 138.669 87.9795 137.771L96.5599 135.081Z" fill="black"/>
<path d="M97.5416 133.985C97.5416 135.325 97.1436 136.635 96.3981 137.75C95.6526 138.864 94.5929 139.733 93.3531 140.246C92.1133 140.759 90.7491 140.893 89.433 140.631C88.1168 140.37 86.9078 139.725 85.9589 138.777C85.0101 137.829 84.3639 136.622 84.1021 135.307C83.8403 133.992 83.9746 132.63 84.4882 131.392C85.0017 130.153 85.8713 129.095 86.9871 128.35C88.1029 127.606 89.4147 127.208 90.7566 127.208C91.6483 127.206 92.5315 127.38 93.3557 127.72C94.1799 128.059 94.9288 128.558 95.5593 129.188C96.1897 129.818 96.6894 130.566 97.0296 131.389C97.3698 132.212 97.5438 133.094 97.5416 133.985Z" fill="#FBBEBE"/>
<path opacity="0.1" d="M98.3547 143.052L97.5414 147.038L93.565 153.716L88.6599 151.622C88.6599 151.622 81.9903 144.646 86.1806 143.651C86.6829 143.544 87.1574 143.333 87.5736 143.033C86.8166 145.11 89.9403 149.43 89.9403 149.43C90.3034 149.964 91.1392 149.63 91.1392 149.63C93.1485 149.326 96.8547 143.547 97.457 142.586C97.722 142.8 98.0272 142.958 98.3547 143.052Z" fill="black"/>
<path opacity="0.1" d="M102.196 181.697C101.014 181.978 94.4793 183.409 92.0028 183.049C89.2759 182.65 83.9712 182.386 83.9712 182.386C83.9712 182.386 80.5942 182.566 79.5586 182.105C79.5586 181.978 79.5586 181.908 79.5586 181.908L81.4835 179.606C81.4835 179.606 100.11 178.201 101.506 179.606C101.872 179.938 102.069 180.716 102.196 181.697Z" fill="black"/>
<path d="M89.9406 149.63C89.9406 149.63 86.4314 144.775 87.754 142.884L81.8246 145.312C81.8246 145.312 78.2563 144.879 76.9702 150.197C76.7641 151.082 76.6892 151.992 76.7479 152.898C76.7957 153.7 76.6859 155.111 75.7713 156.937C74.308 159.861 74.6457 166.573 77.6343 167.236C80.623 167.899 81.6923 167.568 81.6923 167.568C81.6923 167.568 81.2927 179.727 79.5648 181.121C77.8369 182.515 83.9746 182.183 83.9746 182.183C83.9746 182.183 89.2765 182.465 92.0034 182.85C94.7303 183.235 102.379 181.444 102.379 181.444C102.379 181.444 101.254 176.329 100.848 173.074C100.443 169.819 99.52 162.888 99.52 162.888L106.305 153.708C106.305 153.708 107.501 148.16 103.311 145.703C99.1204 143.246 97.5417 142.639 97.5417 142.639C97.5417 142.639 93.3204 149.489 91.1367 149.821C91.1367 149.826 90.3037 150.164 89.9406 149.63Z" fill="#FF748E"/>
<path opacity="0.1" d="M82.1568 151.558C82.1568 151.558 82.0921 153.75 82.4917 154.613C82.8913 155.476 84.3518 160.26 84.3518 160.26H81.0283C81.0283 160.26 82.8238 158.334 82.6915 157.404C82.5592 156.474 82.1568 151.558 82.1568 151.558Z" fill="black"/>
<path d="M92.0033 168.096C92.0033 168.096 84.6583 166.303 83.9745 164.777C83.2906 163.25 81.4023 159.827 81.4023 159.827L82.1762 158.784L85.7502 161.595C85.7502 161.595 90.008 164.968 92.0033 165.316C93.9985 165.665 92.0033 168.096 92.0033 168.096Z" fill="#FBBEBE"/>
<path opacity="0.05" d="M92.0033 168.096C92.0033 168.096 84.6583 166.303 83.9745 164.777C83.2906 163.25 81.4023 159.827 81.4023 159.827L82.1762 158.784L85.7502 161.595C85.7502 161.595 90.008 164.968 92.0033 165.316C93.9985 165.665 92.0033 168.096 92.0033 168.096Z" fill="black"/>
<path d="M98.3546 159.464V163.444H97.713C94.5482 163.444 91.4355 164.249 88.6682 165.783L87.4694 166.446L87.1458 166.626L85.083 161.988L87.0135 160.26H87.112C87.5848 160.305 89.6251 160.473 90.489 160.184C91.353 159.894 92.3323 159.02 94.7497 159.639C95.9429 159.942 96.9588 161.277 98.1266 160.861L98.3546 159.464Z" fill="#FBBEBE"/>
<path opacity="0.1" d="M104.774 152.221L106.105 153.716V157.337C106.105 157.337 104.979 168.765 101.383 170.027C97.7864 171.289 91.3786 169.296 91.3786 169.296C91.3786 169.296 89.721 164.912 90.4949 164.644C91.2688 164.377 97.3446 162.778 97.3446 162.778C97.3446 162.778 97.2573 156.075 98.5884 154.082C98.5884 154.082 97.7245 147.836 100.716 147.704C103.707 147.572 104.774 152.221 104.774 152.221Z" fill="black"/>
<path d="M104.968 152.221L106.299 153.716V157.337C106.299 157.337 105.174 168.765 101.574 170.027C97.9751 171.289 91.5729 169.296 91.5729 169.296C91.5729 169.296 89.9153 164.912 90.6892 164.644C91.4631 164.377 97.5361 162.778 97.5361 162.778C97.5361 162.778 97.4517 156.075 98.7828 154.082C98.7828 154.082 97.916 147.836 100.91 147.704C103.905 147.572 104.968 152.221 104.968 152.221Z" fill="#FF748E"/>
<path opacity="0.1" d="M95.6818 136.863C95.741 136.426 95.6887 135.982 95.5298 135.57C95.4464 135.367 95.2979 135.197 95.1074 135.087C94.9169 134.977 94.6953 134.934 94.4773 134.963C93.9145 135.095 93.6612 135.834 93.104 136.011C92.634 136.16 92.1191 135.829 91.8939 135.39C91.7055 134.933 91.6265 134.439 91.6632 133.946C91.6632 133.383 91.6632 132.835 91.6632 132.279C91.6632 131.675 91.6435 131.022 91.2692 130.547C90.8049 129.957 89.7158 129.704 88.9897 129.724C88.5052 129.729 88.0401 129.915 87.6868 130.247C87.5093 130.425 87.2941 130.562 87.057 130.646C86.8198 130.731 86.5668 130.761 86.3163 130.736C86.0954 130.702 85.8887 130.606 85.7199 130.46C85.5511 130.314 85.4271 130.123 85.3623 129.909C85.361 129.902 85.361 129.894 85.3623 129.887C85.9277 129.14 86.6418 128.519 87.4597 128.061C88.2776 127.604 89.1815 127.321 90.1143 127.23C91.0472 127.139 91.9888 127.242 92.8798 127.533C93.7707 127.824 94.5918 128.295 95.2911 128.919C95.9904 129.542 96.5529 130.303 96.943 131.154C97.3331 132.006 97.5424 132.928 97.5577 133.864C97.573 134.8 97.3939 135.729 97.0318 136.593C96.6697 137.456 96.1324 138.236 95.4538 138.881C95.5662 138.213 95.6423 137.539 95.6818 136.863Z" fill="black"/>
<path d="M86.3129 130.536C86.0919 130.502 85.885 130.406 85.7158 130.26C85.5466 130.114 85.422 129.923 85.3561 129.71C85.3026 129.496 85.3167 129.266 85.2519 129.055C85.0972 128.532 84.54 128.259 84.1657 127.863C83.4171 127.071 83.465 125.764 83.994 124.808C84.4246 124.038 85.2548 123.388 86.1243 123.537C86.6618 123.633 87.1262 124.015 87.6721 124.049C88.2181 124.083 88.6768 123.79 89.1552 123.571C90.3079 123.05 91.6038 122.935 92.8305 123.245C93.208 123.32 93.5582 123.496 93.8436 123.754C94.0373 123.997 94.2176 124.25 94.3839 124.513C95.003 125.303 96.1146 125.457 97.1024 125.637C98.0901 125.817 99.2102 126.199 99.5338 127.158C99.7505 127.787 99.5338 128.47 99.4184 129.125C99.3754 129.259 99.3845 129.405 99.4437 129.533C99.5985 129.789 99.9841 129.682 100.288 129.741C100.851 129.859 100.992 130.584 101.011 131.146C101.038 131.798 101.055 132.454 101.065 133.114C101.081 133.358 101.062 133.603 101.008 133.842C100.887 134.182 100.695 134.493 100.446 134.755L98.2477 137.392C97.274 138.561 96.2412 139.921 96.4354 141.431C95.9739 141.636 95.4279 141.239 95.276 140.756C95.124 140.273 95.245 139.755 95.3492 139.261C95.5261 138.405 95.6418 137.538 95.6953 136.666C95.7546 136.229 95.7023 135.783 95.5433 135.371C95.4594 135.167 95.3103 134.997 95.1194 134.887C94.9284 134.777 94.7064 134.734 94.488 134.764C93.9252 134.896 93.6747 135.635 93.1175 135.812C92.6476 135.964 92.1326 135.629 91.9074 135.191C91.7203 134.733 91.6413 134.239 91.6767 133.746V132.079C91.6767 131.475 91.657 130.823 91.2827 130.348C90.8212 129.758 89.7293 129.505 89.0032 129.524C88.5186 129.529 88.0536 129.716 87.7003 130.047C87.5209 130.228 87.303 130.366 87.0627 130.451C86.8224 130.535 86.5661 130.564 86.3129 130.536Z" fill="#7C5C5C"/>
<path opacity="0.1" d="M87.8438 151.392L89.929 159.936C89.929 159.936 91.5697 159.928 87.8438 151.392Z" fill="black"/>
<path opacity="0.1" d="M94.9641 149.961C94.9641 149.961 92.2344 154.425 93.3009 159.037L93.8075 159.074C93.8075 159.074 92.9013 156.937 94.9641 149.961Z" fill="black"/>
<path opacity="0.1" d="M96.6914 175.21C96.6914 175.21 100.04 174.103 100.285 176.672C100.285 176.672 99.6519 174.909 96.6914 175.21Z" fill="black"/>
<path opacity="0.1" d="M87.0132 160.459C87.0132 160.459 86.349 165.111 87.545 166.972C85.6684 167.632 83.6766 167.903 81.6916 167.767L81.292 160.459H87.0132Z" fill="black"/>
<path opacity="0.1" d="M87.4694 166.446L87.1458 166.626L85.083 161.988L87.0135 160.26H87.112C87.0811 160.485 86.5436 164.479 87.4694 166.446Z" fill="black"/>
<path d="M87.0141 160.26C87.0141 160.26 86.35 164.912 87.546 166.772C85.6694 167.433 83.6776 167.703 81.6925 167.568L79.3652 160.26H87.0141Z" fill="#FF748E"/>
<path d="M81.2588 237.856C81.2205 238.187 81.0727 238.496 80.8388 238.735C80.6049 238.973 80.2982 239.126 79.9671 239.171C78.1632 239.452 73.8097 240.127 72.7122 240.65C71.3051 241.316 65.795 240.849 65.5276 240.186C65.4901 240.053 65.4793 239.913 65.4957 239.776C65.5121 239.638 65.5555 239.505 65.6233 239.385C65.752 239.12 65.9327 238.885 66.1546 238.691C66.3766 238.498 66.6352 238.352 66.915 238.26C67.9563 237.912 69.9205 237.178 70.4496 236.408C70.4496 236.408 72.8979 234.266 73.5958 233.111C73.7269 232.883 73.9124 232.691 74.1358 232.553C74.3593 232.414 74.6137 232.332 74.8763 232.316C75.4588 232.288 76.1061 232.583 76.3734 233.856C76.3734 233.856 79.5647 235.675 80.4286 234.081C80.4286 234.081 80.5609 236.529 81.0899 237.201C81.1599 237.293 81.2109 237.399 81.2399 237.511C81.2689 237.624 81.2753 237.741 81.2588 237.856Z" fill="#A27772"/>
<path opacity="0.1" d="M81.2588 237.856C81.2205 238.187 81.0727 238.496 80.8388 238.735C80.6049 238.973 80.2981 239.126 79.9671 239.171C78.1632 239.452 73.8097 240.127 72.7122 240.65C71.3051 241.316 65.795 240.849 65.5276 240.186C65.4901 240.053 65.4793 239.913 65.4957 239.776C65.5121 239.638 65.5555 239.505 65.6233 239.385C65.813 238.981 66.1251 238.646 66.5154 238.429C67.4159 239.025 69.414 239.61 73.8097 238.924C78.0028 238.269 80.0768 237.628 81.0899 237.192C81.161 237.286 81.2126 237.393 81.2416 237.507C81.2706 237.621 81.2764 237.739 81.2588 237.856Z" fill="black"/>
<g opacity="0.1">
<path opacity="0.1" d="M99.4105 129.215C99.4119 129.204 99.4119 129.193 99.4105 129.181C99.5421 128.69 99.6111 128.184 99.616 127.675C99.5735 128.082 99.5049 128.485 99.4105 128.884C99.3853 128.993 99.3853 129.106 99.4105 129.215Z" fill="black"/>
<path opacity="0.1" d="M95.5298 135.433C95.6341 135.672 95.6896 135.93 95.693 136.191C95.7233 135.831 95.6673 135.469 95.5298 135.135C95.446 134.931 95.297 134.761 95.1061 134.65C94.9152 134.54 94.6931 134.496 94.4745 134.525C93.9116 134.657 93.6612 135.399 93.104 135.576C92.634 135.725 92.119 135.39 91.8939 134.952C91.7041 134.495 91.6251 134 91.6631 133.507C91.6631 132.945 91.6631 132.397 91.6631 131.843C91.6631 131.239 91.6434 130.587 91.2692 130.112C90.8048 129.519 89.7157 129.269 88.9869 129.285C88.5027 129.291 88.0383 129.479 87.6867 129.811C87.509 129.989 87.2937 130.125 87.0566 130.209C86.8195 130.293 86.5665 130.323 86.3162 130.297C86.0946 130.265 85.8869 130.169 85.7175 130.023C85.548 129.877 85.4238 129.685 85.3594 129.471C85.3031 129.257 85.32 129.03 85.2553 128.816C85.1005 128.293 84.5433 128.023 84.169 127.627C83.8199 127.241 83.6203 126.742 83.6062 126.222C83.5795 126.529 83.6156 126.838 83.7124 127.131C83.8091 127.424 83.9645 127.694 84.169 127.925C84.5433 128.321 85.1005 128.594 85.2553 129.117C85.32 129.328 85.3031 129.558 85.3594 129.772C85.425 129.985 85.5496 130.176 85.7188 130.322C85.8881 130.468 86.0951 130.564 86.3162 130.598C86.5667 130.624 86.8198 130.593 87.0569 130.509C87.2941 130.424 87.5093 130.287 87.6867 130.109C88.04 129.782 88.5021 129.596 88.9841 129.589C89.7129 129.567 90.802 129.825 91.2663 130.415C91.6406 130.89 91.6575 131.54 91.6603 132.147C91.6603 132.709 91.6603 133.257 91.6603 133.811C91.622 134.305 91.7011 134.801 91.8911 135.258C92.1162 135.697 92.6312 136.028 93.1012 135.879C93.664 135.702 93.9032 134.963 94.4717 134.828C94.69 134.799 94.9118 134.843 95.103 134.952C95.2941 135.061 95.4441 135.23 95.5298 135.433Z" fill="black"/>
<path opacity="0.1" d="M100.998 133.603C100.876 133.944 100.684 134.256 100.435 134.519C99.6994 135.396 98.9668 136.274 98.237 137.153C97.3139 138.263 96.3346 139.547 96.4049 140.964C96.4725 139.666 97.3786 138.485 98.237 137.453L100.435 134.817C100.684 134.555 100.876 134.244 100.998 133.904C101.052 133.664 101.071 133.418 101.054 133.173C101.052 133.318 101.034 133.462 100.998 133.603Z" fill="black"/>
<path opacity="0.1" d="M95.2622 140.52C95.2259 140.404 95.2033 140.284 95.1947 140.163C95.1762 140.384 95.1991 140.606 95.2622 140.818C95.4114 141.301 95.9601 141.698 96.4216 141.493C96.4216 141.394 96.4019 141.296 96.3991 141.211C95.9432 141.394 95.4001 140.992 95.2622 140.52Z" fill="black"/>
</g>
<path opacity="0.1" d="M73.168 233.704C73.168 233.704 73.8631 234.924 76.3845 233.848L73.168 233.704Z" fill="black"/>
<path opacity="0.1" d="M94.457 233.997C94.457 233.997 96.6324 236.552 99.3706 234.84L94.457 233.997Z" fill="black"/>
<path opacity="0.1" d="M100.784 203.776C100.784 203.776 99.2472 204.734 99.1965 205.282C99.1459 205.83 99.9901 204.883 99.9901 204.883L100.784 203.776Z" fill="black"/>
<path opacity="0.1" d="M101.389 211.123C100.856 211.567 100.192 211.826 99.4978 211.859C98.3496 211.91 98.4453 213.405 99.1967 212.955C99.9481 212.506 101.389 211.123 101.389 211.123Z" fill="black"/>
<path opacity="0.1" d="M101.681 212.081C101.681 212.081 100.944 215.696 100.345 214.999L101.681 212.081Z" fill="black"/>
<g opacity="0.5">
<path opacity="0.5" d="M151.168 128.914H132.595V132.849H151.168V128.914Z" fill="#DCE0ED"/>
<path opacity="0.5" d="M193.817 128.914H175.243V132.849H193.817V128.914Z" fill="#DCE0ED"/>
<path opacity="0.5" d="M236.465 128.914H217.892V132.849H236.465V128.914Z" fill="#DCE0ED"/>
</g>
<path opacity="0.1" d="M268.114 226.5C272.299 226.5 275.692 225.928 275.692 225.221C275.692 224.515 272.299 223.943 268.114 223.943C263.928 223.943 260.535 224.515 260.535 225.221C260.535 225.928 263.928 226.5 268.114 226.5Z" fill="#0FB953"/>
<path opacity="0.1" d="M32.4242 242.648C36.6097 242.648 40.0028 242.075 40.0028 241.369C40.0028 240.663 36.6097 240.09 32.4242 240.09C28.2387 240.09 24.8457 240.663 24.8457 241.369C24.8457 242.075 28.2387 242.648 32.4242 242.648Z" fill="#0FB953"/>
<path d="M251.527 240.838C257.776 240.838 262.842 239.982 262.842 238.927C262.842 237.871 257.776 237.015 251.527 237.015C245.277 237.015 240.211 237.871 240.211 238.927C240.211 239.982 245.277 240.838 251.527 240.838Z" fill="#0FB953"/>
<path d="M256.204 235.804C256.72 235.384 257.096 234.816 257.282 234.176C257.422 233.53 257.147 232.757 256.53 232.521C255.838 232.257 255.098 232.735 254.535 233.221C253.972 233.707 253.333 234.255 252.599 234.154C252.976 233.812 253.258 233.378 253.418 232.895C253.578 232.412 253.609 231.896 253.511 231.397C253.479 231.19 253.392 230.995 253.257 230.835C252.872 230.424 252.177 230.598 251.715 230.922C250.252 231.95 249.844 233.935 249.835 235.722C249.689 235.079 249.813 234.407 249.81 233.755C249.807 233.103 249.624 232.349 249.067 232.004C248.721 231.819 248.333 231.728 247.941 231.74C247.283 231.714 246.548 231.779 246.101 232.26C245.538 232.858 245.687 233.859 246.171 234.508C246.655 235.157 247.398 235.576 248.076 236.032C248.622 236.357 249.087 236.799 249.439 237.327C249.479 237.402 249.512 237.48 249.537 237.561H253.663C254.584 237.091 255.439 236.5 256.204 235.804Z" fill="#0FB953"/>
<path d="M32.7706 222.397C32.7706 222.397 34.3184 224.418 32.0587 227.456C29.7989 230.494 27.9359 233.077 28.6817 234.98C28.6817 234.98 32.0924 229.317 34.8728 229.238C37.6532 229.159 35.824 225.803 32.7706 222.397Z" fill="#0FB953"/>
<path opacity="0.1" d="M32.7704 222.397C32.9058 222.592 33.0129 222.806 33.0884 223.032C35.7957 226.208 37.2365 229.173 34.6334 229.246C32.2104 229.317 29.3034 233.645 28.6055 234.739C28.6284 234.823 28.6557 234.907 28.6871 234.989C28.6871 234.989 32.0978 229.325 34.8782 229.246C37.6586 229.168 35.8238 225.803 32.7704 222.397Z" fill="black"/>
<path d="M35.6436 224.971C35.6436 225.682 35.5648 226.259 35.4664 226.259C35.3679 226.259 35.2891 225.697 35.2891 224.971C35.2891 224.246 35.3876 224.595 35.4861 224.595C35.5846 224.595 35.6436 224.26 35.6436 224.971Z" fill="#FFD037"/>
<path d="M36.6318 225.82C36.0071 226.16 35.4611 226.365 35.4161 226.278C35.3711 226.191 35.8354 225.845 36.4602 225.505C37.0849 225.165 36.8401 225.413 36.8851 225.505C36.9301 225.598 37.2566 225.48 36.6318 225.82Z" fill="#FFD037"/>
<path d="M24.607 222.397C24.607 222.397 23.0592 224.418 25.319 227.456C27.5787 230.494 29.4417 233.077 28.696 234.98C28.696 234.98 25.288 229.317 22.5048 229.238C19.7216 229.159 21.5536 225.803 24.607 222.397Z" fill="#0FB953"/>
<path opacity="0.1" d="M24.6063 222.397C24.4709 222.592 24.3638 222.806 24.2883 223.032C21.5811 226.208 20.1402 229.173 22.7433 229.246C25.1663 229.317 28.0733 233.645 28.7712 234.739C28.7486 234.824 28.7204 234.907 28.6868 234.989C28.6868 234.989 25.2789 229.325 22.4957 229.246C19.7125 229.168 21.5529 225.803 24.6063 222.397Z" fill="black"/>
<path d="M21.7305 224.971C21.7305 225.682 21.8121 226.259 21.9106 226.259C22.0091 226.259 22.0879 225.697 22.0879 224.971C22.0879 224.246 21.9894 224.595 21.8909 224.595C21.7924 224.595 21.7305 224.26 21.7305 224.971Z" fill="#FFD037"/>
<path d="M20.7461 225.82C21.3708 226.16 21.9139 226.365 21.9618 226.278C22.0096 226.191 21.5425 225.845 20.9177 225.505C20.293 225.165 20.5378 225.413 20.49 225.505C20.4421 225.598 20.1213 225.48 20.7461 225.82Z" fill="#FFD037"/>
<path d="M22.2314 234.725C22.2314 234.725 26.554 234.59 27.8598 233.665C29.1655 232.74 34.5096 231.63 34.8333 233.117C35.1569 234.604 41.3283 240.506 36.4486 240.546C31.5688 240.585 25.1103 239.787 23.8102 238.997C22.51 238.207 22.2314 234.725 22.2314 234.725Z" fill="#A8A8A8"/>
<path opacity="0.2" d="M36.5252 240.028C31.6454 240.068 25.1841 239.27 23.884 238.48C22.8962 237.875 22.4994 235.714 22.37 234.719H22.2236C22.2236 234.719 22.505 238.199 23.7996 238.991C25.0941 239.784 31.5582 240.579 36.438 240.54C37.845 240.54 38.3319 240.028 38.3066 239.286C38.1096 239.742 37.5721 240.02 36.5252 240.028Z" fill="black"/>
<path d="M131.28 156.395C131.28 150.65 135.96 146.237 141.715 146.237H141.797V143.623H141.715C134.517 143.623 128.663 149.208 128.663 156.395C128.663 158.254 129.062 160.092 129.833 161.784C130.605 163.476 131.731 164.984 133.135 166.204L134.989 164.352C133.828 163.376 132.894 162.158 132.253 160.784C131.612 159.409 131.28 157.911 131.28 156.395Z" fill="#0FB953"/>
<path opacity="0.5" d="M142.059 143.626V146.24C143.735 146.251 145.384 146.665 146.865 147.448C148.347 148.23 149.618 149.357 150.571 150.734C151.524 152.111 152.131 153.697 152.34 155.358C152.549 157.018 152.355 158.705 151.773 160.275C151.192 161.845 150.24 163.252 148.999 164.376C147.757 165.501 146.263 166.31 144.642 166.736C143.021 167.161 141.322 167.191 139.687 166.821C138.053 166.452 136.531 165.695 135.252 164.614L133.392 166.466C134.977 167.85 136.873 168.83 138.92 169.323C140.967 169.817 143.103 169.807 145.145 169.297C147.188 168.787 149.076 167.79 150.649 166.393C152.223 164.995 153.434 163.238 154.18 161.272C154.925 159.305 155.184 157.188 154.932 155.1C154.681 153.012 153.927 151.016 152.736 149.282C151.544 147.549 149.95 146.129 148.09 145.144C146.23 144.159 144.159 143.638 142.054 143.626H142.059Z" fill="#0FB953"/>
<path opacity="0.5" d="M227.609 146.105C233.361 146.105 237.779 150.779 237.779 156.527C237.779 156.552 237.779 156.581 237.779 156.609H240.396C240.396 156.581 240.396 156.552 240.396 156.527C240.396 149.34 234.804 143.491 227.609 143.491C225.747 143.49 223.907 143.889 222.212 144.659C220.518 145.43 219.009 146.554 217.787 147.957L219.642 149.809C220.619 148.649 221.838 147.716 223.215 147.077C224.591 146.437 226.09 146.105 227.609 146.105Z" fill="#0FB953"/>
<path d="M240.394 156.87H237.777C237.765 158.544 237.351 160.19 236.567 161.67C235.784 163.15 234.655 164.42 233.277 165.371C231.898 166.323 230.31 166.929 228.648 167.138C226.985 167.347 225.296 167.153 223.724 166.572C222.153 165.991 220.744 165.041 219.618 163.801C218.492 162.561 217.682 161.069 217.256 159.45C216.829 157.831 216.8 156.133 217.17 154.501C217.54 152.868 218.298 151.349 219.38 150.071L217.534 148.219C216.149 149.802 215.167 151.696 214.673 153.74C214.18 155.785 214.189 157.918 214.7 159.958C215.211 161.998 216.208 163.884 217.607 165.455C219.007 167.027 220.766 168.236 222.735 168.981C224.704 169.726 226.824 169.984 228.914 169.733C231.004 169.482 233.003 168.729 234.739 167.539C236.475 166.349 237.896 164.757 238.883 162.899C239.869 161.042 240.39 158.973 240.402 156.87H240.394Z" fill="#0FB953"/>
<path opacity="0.5" d="M189.674 144.39L189.154 146.993C192.984 148.536 195.432 152.286 195.432 156.656C195.433 158.535 194.925 160.378 193.963 161.992C193 163.605 191.619 164.929 189.965 165.823C188.311 166.717 186.446 167.148 184.567 167.07C182.689 166.992 180.866 166.408 179.292 165.381C177.718 164.353 176.451 162.919 175.626 161.231C174.801 159.544 174.448 157.665 174.604 155.793C174.761 153.921 175.421 152.126 176.515 150.599C177.608 149.071 179.096 147.867 180.818 147.114L179.659 144.767C177.52 145.729 175.68 147.248 174.334 149.166C172.987 151.084 172.182 153.329 172.005 155.665C171.828 158.001 172.285 160.341 173.327 162.44C174.369 164.539 175.959 166.318 177.928 167.59C179.897 168.862 182.174 169.581 184.518 169.67C186.861 169.759 189.186 169.216 191.246 168.097C193.307 166.978 195.027 165.325 196.227 163.311C197.426 161.298 198.059 158.999 198.061 156.656C198.061 151.015 194.717 146.203 189.674 144.39Z" fill="#0FB953"/>
<path d="M185.338 146.085C186.588 146.085 187.825 146.341 188.971 146.838L189.492 144.239C188.166 143.729 186.758 143.469 185.338 143.471C183.494 143.471 181.672 143.863 179.991 144.621L181.162 146.962C182.478 146.383 183.9 146.084 185.338 146.085Z" fill="#0FB953"/>
<defs>
<linearGradient id="paint0_linear" x1="85.9726" y1="241.369" x2="85.9726" y2="122.666" gradientUnits="userSpaceOnUse">
<stop stop-color="#808080" stop-opacity="0.25"/>
<stop offset="0.54" stop-color="#808080" stop-opacity="0.12"/>
<stop offset="1" stop-color="#808080" stop-opacity="0.1"/>
</linearGradient>
</defs>
</svg>
