<svg width="268" height="210" viewBox="0 0 268 210" fill="none" xmlns="http://www.w3.org/2000/svg">
<g clip-path="url(#clip0)">
<path d="M236.123 195.299C236.103 195.212 234.215 186.54 238.072 179.338C241.93 172.135 250.164 168.959 250.247 168.928L250.623 168.786L250.712 169.181C250.731 169.267 252.62 177.939 248.763 185.142C244.905 192.344 236.671 195.52 236.588 195.552L236.212 195.694L236.123 195.299ZM250.107 169.749C248.457 170.464 241.948 173.59 238.69 179.673C235.431 185.757 236.415 192.951 236.728 194.73C238.377 194.017 244.884 190.896 248.145 184.806C251.403 178.723 250.42 171.529 250.107 169.749Z" fill="#3F3D56"/>
<path d="M245.815 182.615C238.883 186.814 236.213 195.155 236.213 195.155C236.213 195.155 244.782 196.687 251.714 192.488C258.647 188.289 261.316 179.949 261.316 179.949C261.316 179.949 252.747 178.416 245.815 182.615Z" fill="#D0CDE1"/>
<path d="M95.2025 157.349C94.3782 157.349 93.5454 157.336 92.7281 157.31L92.7466 156.712C93.9203 156.749 95.1181 156.759 96.2973 156.743L96.3054 157.341C95.9383 157.346 95.5707 157.349 95.2025 157.349ZM99.8807 157.21L99.8458 156.613C101.021 156.543 102.212 156.445 103.384 156.321L103.446 156.916C102.265 157.041 101.065 157.14 99.8807 157.21ZM89.156 157.117C87.9707 157.025 86.7729 156.906 85.5958 156.76L85.6683 156.167C86.8365 156.311 88.025 156.43 89.2012 156.52L89.156 157.117ZM106.995 156.459L106.906 155.868C108.073 155.689 109.25 155.482 110.403 155.252L110.518 155.838C109.357 156.07 108.172 156.279 106.995 156.459ZM82.0561 156.24C80.8852 156.04 79.7032 155.811 78.5432 155.557L78.6692 154.972C79.8204 155.224 80.9932 155.452 82.1553 155.65L82.0561 156.24ZM114.011 155.055L113.868 154.474C115.014 154.189 116.167 153.873 117.294 153.537L117.463 154.111C116.327 154.45 115.166 154.768 114.011 155.055ZM75.0655 154.712C73.917 154.404 72.7611 154.066 71.6301 153.706L71.8091 153.136C72.9316 153.493 74.0786 153.829 75.2182 154.134L75.0655 154.712ZM120.869 153.007L120.674 152.442C121.786 152.052 122.905 151.631 124 151.19L124.22 151.746C123.117 152.19 121.99 152.614 120.869 153.007ZM68.2356 152.538C67.1201 152.125 65.9976 151.68 64.8997 151.214L65.1304 150.662C66.2199 151.125 67.3336 151.567 68.4407 151.977L68.2356 152.538ZM127.503 150.334L127.257 149.789C128.325 149.301 129.399 148.779 130.449 148.239L130.719 148.772C129.661 149.316 128.579 149.841 127.503 150.334ZM133.861 147.062L133.567 146.542C134.591 145.954 135.614 145.335 136.606 144.703L136.923 145.208C135.924 145.845 134.894 146.469 133.861 147.062ZM139.899 143.215L139.559 142.725C140.524 142.047 141.487 141.336 142.421 140.613L142.783 141.088C141.842 141.816 140.872 142.532 139.899 143.215ZM49.3302 142.373C48.3711 141.672 47.413 140.937 46.4823 140.189L46.8531 139.721C47.7767 140.464 48.7275 141.193 49.6792 141.889L49.3302 142.373ZM145.567 138.829L145.184 138.372C146.084 137.608 146.978 136.812 147.845 136.006L148.248 136.445C147.375 137.257 146.474 138.06 145.567 138.829ZM43.7369 137.876C42.8436 137.089 41.9562 136.27 41.0994 135.442L41.5108 135.01C42.3612 135.832 43.2419 136.645 44.1283 137.427L43.7369 137.876ZM150.818 133.939L150.395 133.519C151.224 132.674 152.044 131.798 152.832 130.918L153.274 131.318C152.48 132.206 151.654 133.087 150.818 133.939ZM38.5753 132.889C37.7558 132.021 36.9464 131.124 36.1697 130.224L36.6185 129.831C37.3893 130.726 38.1925 131.616 39.0059 132.476L38.5753 132.889ZM155.608 128.587L155.149 128.208C155.898 127.29 156.635 126.343 157.341 125.393L157.817 125.751C157.106 126.709 156.363 127.663 155.608 128.587ZM33.8875 127.452C33.1515 126.515 32.4268 125.549 31.7335 124.578L32.2157 124.229C32.9038 125.192 33.623 126.151 34.3534 127.081L33.8875 127.452ZM159.895 122.816L159.403 122.48C160.066 121.497 160.715 120.486 161.332 119.474L161.839 119.787C161.217 120.807 160.563 121.826 159.895 122.816ZM29.7126 121.61C29.0651 120.611 28.4314 119.583 27.8289 118.553L28.3407 118.249C28.9387 119.271 29.5676 120.292 30.2102 121.283L29.7126 121.61ZM163.643 116.671L163.123 116.382C163.694 115.343 164.248 114.275 164.771 113.209L165.304 113.475C164.777 114.548 164.218 115.624 163.643 116.671H163.643ZM166.817 110.204L166.272 109.963C166.746 108.875 167.2 107.76 167.624 106.649L168.179 106.864C167.752 107.983 167.294 109.106 166.817 110.204H166.817ZM23.0406 108.913C22.5851 107.812 22.1488 106.686 21.7441 105.565L22.3026 105.361C22.7042 106.473 23.1371 107.59 23.589 108.682L23.0406 108.913ZM169.386 103.463L168.822 103.275C169.193 102.15 169.543 101.001 169.862 99.8574L170.434 100.019C170.112 101.171 169.76 102.33 169.386 103.463ZM20.5994 102.152C20.2459 101.012 19.9136 99.8475 19.612 98.69L20.1868 98.5381C20.4861 99.6868 20.8159 100.843 21.1667 101.974L20.5994 102.152ZM171.323 96.53L170.744 96.3945C171.01 95.2414 171.253 94.0639 171.467 92.895L172.052 93.0031C171.836 94.1813 171.591 95.3676 171.323 96.53ZM18.7845 95.1856C18.5367 94.0171 18.3124 92.8267 18.118 91.6468L18.7041 91.5486C18.8972 92.7197 19.1198 93.9011 19.3657 95.0606L18.7845 95.1856ZM172.618 89.447L172.029 89.3658C172.189 88.1941 172.324 86.9993 172.43 85.8144L173.022 85.8681C172.915 87.0623 172.779 88.2662 172.618 89.447ZM17.6134 88.081C17.4733 86.8967 17.3583 85.6905 17.2714 84.496L17.8641 84.4522C17.9502 85.6379 18.0645 86.8348 18.2036 88.0103L17.6134 88.081ZM173.264 82.2749L172.67 82.248C172.723 81.0626 172.75 79.8602 172.75 78.6744H173.344C173.344 79.8692 173.317 81.0807 173.264 82.2749ZM17.0913 80.8984C17.071 80.1648 17.0607 79.4164 17.0605 78.6744C17.0605 78.214 17.0645 77.7545 17.0723 77.2958L17.6665 77.3063C17.6587 77.7615 17.6548 78.2175 17.6548 78.6744C17.6549 79.4109 17.6652 80.1537 17.6852 80.882L17.0913 80.8984ZM17.8075 73.7346L17.2145 73.6972C17.2886 72.5018 17.391 71.2944 17.5186 70.1085L18.1093 70.1729C17.9827 71.3499 17.8813 72.5481 17.8076 73.7346H17.8075ZM172.367 70.0846C172.248 68.9051 172.085 68.33 171.912 67.1557L172.5 67.0683C172.674 68.2516 172.822 69.1549 172.942 70.3432L172.367 70.0846ZM18.572 66.6291L17.9847 66.5377C18.1668 65.3541 18.3783 64.1612 18.6135 62.9916L19.1958 63.1102C18.9625 64.2709 18.7526 65.4547 18.572 66.6291H18.572ZM171.312 63.633C171.086 62.4659 170.83 61.2911 170.552 60.1413L171.13 59.9999C171.41 61.1585 171.667 62.3424 171.896 63.5182L171.312 63.633ZM19.9795 59.6241L19.4031 59.4786C19.6917 58.3199 20.0113 57.1515 20.3531 56.0058L20.9221 56.1778C20.583 57.3148 20.2659 58.4743 19.9795 59.6241ZM169.633 56.6885C169.302 55.5493 168.94 54.4034 168.557 53.2822L169.119 53.0877C169.505 54.2175 169.87 55.3724 170.204 56.5202L169.633 56.6885ZM22.0251 52.7697L21.4645 52.5713C21.8594 51.4403 22.2858 50.3039 22.7318 49.1937L23.2828 49.4181C22.8401 50.5197 22.4169 51.6475 22.0251 52.7697ZM167.326 49.9294C166.892 48.8284 166.428 47.7234 165.946 46.645L166.488 46.3993C166.974 47.486 167.441 48.5995 167.878 49.7089L167.326 49.9294ZM24.6922 46.1295L24.1522 45.8798C24.6485 44.7916 25.1767 43.7003 25.7222 42.6364L26.2503 42.9107C25.7089 43.9666 25.1847 45.0495 24.6922 46.1295ZM164.417 43.4266C163.885 42.3704 163.322 41.312 162.743 40.2812L163.26 39.9865C163.844 41.0253 164.411 42.0917 164.947 43.1561L164.417 43.4266ZM27.9537 39.7682L27.4386 39.4697C28.0314 38.4333 28.6566 37.396 29.2968 36.3867L29.7976 36.7086C29.1623 37.7103 28.5418 38.7398 27.9537 39.7682ZM160.926 37.215C160.298 36.2086 159.641 35.206 158.972 34.235L159.46 33.8941C160.134 34.8726 160.797 35.8827 161.429 36.8969L160.926 37.215ZM31.7785 33.7379L31.2928 33.3932C31.9778 32.415 32.6941 31.44 33.422 30.4953L33.8915 30.8619C33.1692 31.7996 32.4582 32.7672 31.7785 33.7379ZM156.884 31.3471C156.168 30.4028 155.422 29.464 154.667 28.557L155.123 28.1727C155.883 29.0868 156.635 30.0325 157.356 30.984L156.884 31.3471ZM36.1322 28.0868L35.6799 27.6988C36.4486 26.7897 37.2499 25.8848 38.0613 25.0093L38.4957 25.4174C37.6905 26.2864 36.8953 27.1845 36.1322 28.0868ZM152.326 25.8707C151.528 24.9959 150.7 24.1289 149.865 23.2939L150.284 22.8695C151.125 23.711 151.959 24.5844 152.764 25.4658L152.326 25.8707ZM40.9766 22.8601L40.5611 22.4324C41.4109 21.5955 42.2902 20.768 43.1744 19.9731L43.5702 20.4195C42.6926 21.2083 41.82 22.0295 40.9766 22.8601V22.8601ZM147.291 20.832C146.416 20.0332 145.513 19.2453 144.606 18.4903L144.985 18.0293C145.898 18.79 146.808 19.5839 147.69 20.3888L147.291 20.832ZM46.2708 18.1003L45.8956 17.6364C46.8147 16.8828 47.7645 16.1397 48.7188 15.4274L49.0728 15.908C48.1256 16.615 47.1829 17.3524 46.2708 18.1003H46.2708ZM51.9701 13.8473L51.6385 13.351C52.6221 12.6846 53.6347 12.0321 54.6484 11.4112L54.9571 11.9225C53.9513 12.5386 52.9464 13.1862 51.9701 13.8473H51.9701ZM58.0277 10.1375L57.7425 9.61257C58.7831 9.03926 59.8501 8.48305 60.9138 7.95911L61.175 8.49663C60.1194 9.01648 59.0605 9.56846 58.0277 10.1375ZM129.743 8.75137C128.686 8.221 127.603 7.70861 126.524 7.22849L126.764 6.68133C127.851 7.1651 128.943 7.68144 130.008 8.21589L129.743 8.75137ZM64.3925 7.00312L64.1563 6.45419C65.2438 5.97963 66.3563 5.52448 67.4626 5.10133L67.6736 5.66077C66.5756 6.08056 65.4717 6.5322 64.3925 7.00312ZM123.237 5.85606C122.137 5.42649 121.011 5.01662 119.89 4.63802L120.079 4.0707C121.208 4.45237 122.343 4.86529 123.452 5.29838L123.237 5.85606ZM71.0208 4.46902L70.8357 3.90053C71.965 3.52777 73.1172 3.17678 74.2601 2.85762L74.4189 3.434C73.2847 3.75082 72.1414 4.09905 71.0208 4.46902H71.0208ZM116.499 3.57948C115.365 3.25419 114.209 2.95125 113.063 2.67913L113.199 2.09692C114.355 2.37108 115.519 2.67636 116.662 3.00398L116.499 3.57948ZM77.861 2.55775L77.7287 1.97451C78.8864 1.70823 80.0658 1.46562 81.2338 1.25353L81.3394 1.84218C80.1801 2.0528 79.0099 2.29352 77.861 2.55775ZM109.59 1.93946C108.432 1.72078 107.254 1.52624 106.086 1.36118L106.169 0.76874C107.345 0.935111 108.533 1.13113 109.699 1.3514L109.59 1.93946ZM84.8469 1.28844L84.7683 0.695417C85.9446 0.537374 87.1409 0.404455 88.3238 0.300748L88.3755 0.896695C87.2015 0.999816 86.0145 1.13156 84.8469 1.28844ZM102.56 0.945189C101.389 0.834178 100.198 0.748584 99.0186 0.691181L99.0476 0.0934812C100.236 0.15147 101.436 0.237648 102.616 0.349548L102.56 0.945189ZM91.9188 0.667227L91.8939 0.0695402C92.986 0.0236757 94.0991 0.000308418 95.2025 1.52588e-05L95.4715 0.000451173L95.4697 0.598736L95.2025 0.5983C94.1075 0.598578 93.0026 0.621799 91.9188 0.667227Z" fill="#3F3D56"/>
<path d="M268 195.128H50.2129V195.726H268V195.128Z" fill="#3F3D56"/>
<path d="M177.68 94.5365L180.651 140.903C180.651 140.903 187.782 159.151 187.484 176.501C187.484 176.501 184.81 183.382 186.89 184.578C188.97 185.775 190.159 186.672 188.97 187.57C187.782 188.467 186.89 190.561 187.782 191.159C188.673 191.758 188.97 192.655 188.673 192.655H179.759C179.759 192.655 181.542 188.168 178.868 186.971C176.194 185.775 177.68 182.783 177.68 182.783L157.773 124.152L142.025 177.997C142.025 177.997 144.699 179.792 142.62 180.689C140.54 181.587 139.648 179.792 140.54 181.587C141.431 183.382 140.243 184.279 140.243 184.578C140.243 184.877 131.329 183.681 131.329 183.681C131.329 183.681 135.786 179.792 133.706 178.895C131.626 177.997 130.735 177.1 131.329 176.501C131.923 175.903 134.3 170.219 134.3 170.219C134.3 170.219 135.489 148.681 135.786 147.784C136.083 146.886 135.786 142.698 135.786 140.604C135.786 138.51 135.489 130.134 136.38 128.04C137.272 125.946 138.163 100.22 142.917 97.2287C147.671 94.2373 177.68 94.5365 177.68 94.5365Z" fill="#2F2E41"/>
<path d="M139.946 183.083C139.946 183.083 145.888 195.347 141.728 196.843C137.569 198.339 132.22 197.142 131.032 198.937C129.844 200.732 116.77 202.826 116.473 198.339C116.176 193.852 130.735 185.476 130.735 185.476L132.631 182.401L139.946 183.083Z" fill="#2F2E41"/>
<path d="M188.078 192.057C188.078 192.057 194.021 204.322 189.861 205.817C185.701 207.313 180.353 206.116 179.165 207.911C177.976 209.706 164.903 211.8 164.606 207.313C164.309 202.826 178.868 194.45 178.868 194.45L180.764 191.375L188.078 192.057Z" fill="#2F2E41"/>
<path d="M160.595 38.1482C166.01 38.1482 170.4 33.7284 170.4 28.2765C170.4 22.8245 166.01 18.4048 160.595 18.4048C155.18 18.4048 150.79 22.8245 150.79 28.2765C150.79 33.7284 155.18 38.1482 160.595 38.1482Z" fill="#A0616A"/>
<path d="M167.281 33.5114L166.092 42.1865L157.179 49.0668L154.802 45.7762V34.4088L167.281 33.5114Z" fill="#A0616A"/>
<path d="M153.316 44.5797C153.316 44.5797 162.527 45.4771 167.281 42.1866L176.788 98.7244C176.788 98.7244 143.214 101.417 141.729 99.6219V81.9725L147.671 53.2548L153.316 44.5797Z" fill="#3F3D56"/>
<path d="M166.463 39.4835L169.658 42.1866C169.658 42.1866 182.731 44.2806 181.84 47.8703L178.274 90.3485L179.463 104.707C179.463 104.707 169.361 102.015 161.636 104.707C153.911 107.4 160.048 46.8522 160.048 46.8522C160.048 46.8522 167.13 40.3701 166.463 39.4835Z" fill="#D02121"/>
<path d="M154.801 42.7578C154.801 42.7578 145.293 49.6651 144.105 54.1523C142.916 58.6394 139.054 105.904 139.054 105.904C139.054 105.904 140.836 105.006 141.728 106.502C142.619 107.998 156.286 45.1238 154.801 42.7578Z" fill="#D02121"/>
<path d="M150.795 27.8464C150.795 27.8464 149.734 26.2433 150.142 24.517C150.386 23.5369 150.483 22.5255 150.428 21.5165C150.428 21.5165 151.285 18.7215 152.143 17.1596C153 15.5977 152.592 14.9401 155.286 14.4469C157.981 13.9536 156.878 10.4188 163.982 14.2413C164.221 14.5782 164.555 14.8361 164.94 14.9824C165.325 15.1287 165.745 15.1569 166.146 15.0634C167.615 14.7757 168.146 16.8308 168.146 16.8308C168.146 16.8308 169.126 16.2554 169.493 17.0774C169.861 17.8995 172.48 16.584 172.48 22.1329C172.48 27.6818 169.499 32.6384 169.499 32.6384C169.499 32.6384 169.718 23.3045 164.86 22.3591C160.001 21.4138 154.776 18.6599 153.51 22.1947C152.827 24.1787 151.916 26.0754 150.795 27.8464Z" fill="#2F2E41"/>
<path d="M169.606 30.0656C170.135 30.0656 170.564 29.4897 170.564 28.7792C170.564 28.0688 170.135 27.4929 169.606 27.4929C169.076 27.4929 168.647 28.0688 168.647 28.7792C168.647 29.4897 169.076 30.0656 169.606 30.0656Z" fill="#A0616A"/>
<path d="M129.336 121.287C126.985 119.864 124.15 119.972 123.072 120.081C123.483 121.09 124.714 123.663 127.065 125.087C129.422 126.514 132.253 126.402 133.329 126.294C132.919 125.286 131.687 122.712 129.336 121.287Z" fill="#D0CDE1"/>
<path d="M140.383 149.533H125.689C124.812 149.533 123.971 149.884 123.351 150.508C122.731 151.132 122.383 151.979 122.383 152.862C122.383 153.745 122.731 154.591 123.351 155.216C123.971 155.84 124.812 156.191 125.689 156.191H140.383C141.26 156.19 142.1 155.839 142.719 155.215C143.338 154.59 143.686 153.744 143.686 152.862C143.686 151.98 143.338 151.133 142.719 150.509C142.1 149.885 141.26 149.534 140.383 149.533Z" fill="#D0CDE1"/>
<path d="M206.924 114.397H124.538C123.58 114.397 122.631 114.587 121.745 114.956C120.86 115.325 120.055 115.866 119.378 116.549C118.7 117.231 118.163 118.041 117.796 118.932C117.429 119.824 117.24 120.779 117.24 121.744V162.158C117.24 164.107 118.009 165.976 119.378 167.354C120.746 168.731 122.603 169.506 124.538 169.506H206.924C207.883 169.506 208.832 169.316 209.717 168.946C210.603 168.577 211.407 168.036 212.085 167.354C212.762 166.671 213.3 165.861 213.667 164.97C214.033 164.078 214.222 163.123 214.222 162.158V121.744C214.222 120.779 214.033 119.824 213.667 118.932C213.3 118.041 212.762 117.231 212.085 116.549C211.407 115.866 210.603 115.325 209.717 114.956C208.832 114.587 207.883 114.397 206.924 114.397ZM122.5 119.409C122.663 119.379 126.52 118.718 129.715 120.654C132.909 122.588 134.136 126.33 134.187 126.488L134.316 126.892L133.901 126.966C133.31 127.059 132.712 127.103 132.114 127.098C130.663 127.098 128.561 126.856 126.686 125.721C123.492 123.786 122.265 120.045 122.214 119.886L122.085 119.483L122.5 119.409ZM140.384 156.93H125.689C124.618 156.93 123.59 156.502 122.832 155.739C122.074 154.976 121.649 153.941 121.649 152.862C121.649 151.783 122.074 150.748 122.832 149.985C123.59 149.222 124.618 148.794 125.689 148.794H140.384C141.455 148.794 142.483 149.222 143.241 149.985C143.999 150.748 144.425 151.783 144.425 152.862C144.425 153.941 143.999 154.976 143.241 155.739C142.483 156.502 141.455 156.93 140.384 156.93ZM207.242 156.191C207.239 157.367 206.773 158.494 205.948 159.325C205.122 160.157 204.002 160.626 202.834 160.629H191.814C190.645 160.626 189.526 160.157 188.7 159.325C187.874 158.494 187.409 157.367 187.405 156.191V149.533C187.409 148.357 187.874 147.23 188.7 146.399C189.526 145.567 190.645 145.098 191.814 145.095H202.834C204.002 145.098 205.122 145.567 205.948 146.399C206.774 147.23 207.239 148.357 207.242 149.533L207.242 156.191Z" fill="#0FB953"/>
<path d="M195.304 154.896H190.528C190.187 154.896 189.86 155.033 189.619 155.275C189.378 155.518 189.242 155.847 189.242 156.191C189.242 156.534 189.378 156.863 189.619 157.106C189.86 157.349 190.187 157.485 190.528 157.485H195.304C195.645 157.485 195.972 157.349 196.213 157.106C196.454 156.863 196.589 156.534 196.589 156.191C196.589 155.847 196.454 155.518 196.213 155.275C195.972 155.033 195.645 154.896 195.304 154.896ZM195.304 156.745H190.528C190.455 156.746 190.384 156.731 190.317 156.704C190.25 156.676 190.189 156.635 190.137 156.583C190.086 156.532 190.045 156.471 190.018 156.403C189.99 156.336 189.976 156.264 189.976 156.191C189.976 156.118 189.99 156.045 190.018 155.978C190.045 155.911 190.086 155.849 190.137 155.798C190.189 155.746 190.25 155.706 190.317 155.678C190.384 155.65 190.455 155.636 190.528 155.636H195.304C195.376 155.636 195.448 155.65 195.515 155.678C195.582 155.706 195.643 155.746 195.694 155.798C195.745 155.849 195.786 155.911 195.814 155.978C195.842 156.045 195.856 156.118 195.856 156.191C195.856 156.264 195.842 156.336 195.814 156.403C195.786 156.471 195.745 156.532 195.694 156.583C195.643 156.635 195.582 156.676 195.515 156.704C195.448 156.731 195.376 156.746 195.304 156.745Z" fill="#D0CDE1"/>
<path d="M204.12 154.896H199.344C199.175 154.896 199.008 154.929 198.852 154.994C198.695 155.059 198.554 155.154 198.434 155.275C198.314 155.395 198.219 155.538 198.155 155.695C198.09 155.852 198.057 156.021 198.057 156.191C198.057 156.361 198.09 156.529 198.155 156.687C198.219 156.844 198.314 156.987 198.434 157.107C198.554 157.227 198.695 157.322 198.852 157.387C199.008 157.452 199.175 157.485 199.344 157.485H204.12C204.461 157.485 204.788 157.349 205.029 157.106C205.27 156.863 205.406 156.534 205.406 156.191C205.406 155.847 205.27 155.518 205.029 155.275C204.788 155.033 204.461 154.896 204.12 154.896ZM204.12 156.746H199.344C199.272 156.746 199.2 156.731 199.133 156.704C199.066 156.676 199.005 156.635 198.954 156.583C198.903 156.532 198.862 156.471 198.834 156.403C198.806 156.336 198.792 156.264 198.792 156.191C198.792 156.118 198.806 156.046 198.834 155.978C198.862 155.911 198.903 155.85 198.954 155.798C199.005 155.746 199.066 155.706 199.133 155.678C199.2 155.65 199.272 155.636 199.344 155.636H204.12C204.266 155.636 204.406 155.695 204.509 155.799C204.612 155.903 204.67 156.044 204.67 156.191C204.67 156.338 204.612 156.479 204.509 156.583C204.406 156.687 204.266 156.745 204.12 156.746Z" fill="#D0CDE1"/>
<path d="M195.304 151.567H190.528C190.187 151.567 189.86 151.704 189.619 151.947C189.378 152.189 189.242 152.519 189.242 152.862C189.242 153.205 189.378 153.535 189.619 153.777C189.86 154.02 190.187 154.156 190.528 154.156H195.304C195.473 154.157 195.64 154.123 195.796 154.059C195.952 153.994 196.094 153.898 196.214 153.778C196.334 153.658 196.428 153.515 196.493 153.358C196.558 153.201 196.591 153.032 196.591 152.862C196.591 152.692 196.558 152.523 196.493 152.366C196.428 152.209 196.334 152.066 196.214 151.946C196.094 151.826 195.952 151.73 195.796 151.665C195.64 151.6 195.473 151.567 195.304 151.567ZM195.304 153.417H190.528C190.382 153.417 190.242 153.358 190.138 153.254C190.035 153.15 189.977 153.009 189.977 152.862C189.977 152.715 190.035 152.574 190.138 152.47C190.242 152.366 190.382 152.307 190.528 152.307H195.304C195.45 152.307 195.59 152.366 195.693 152.47C195.797 152.574 195.855 152.715 195.855 152.862C195.855 153.009 195.797 153.15 195.693 153.254C195.59 153.358 195.45 153.417 195.304 153.417Z" fill="#D0CDE1"/>
<path d="M204.12 151.567H199.344C199.175 151.567 199.008 151.6 198.852 151.665C198.695 151.73 198.554 151.826 198.434 151.946C198.314 152.066 198.219 152.209 198.155 152.366C198.09 152.523 198.057 152.692 198.057 152.862C198.057 153.032 198.09 153.201 198.155 153.358C198.219 153.515 198.314 153.658 198.434 153.778C198.554 153.898 198.695 153.994 198.852 154.059C199.008 154.123 199.175 154.157 199.344 154.156H204.12C204.461 154.156 204.788 154.02 205.029 153.777C205.27 153.535 205.406 153.205 205.406 152.862C205.406 152.519 205.27 152.189 205.029 151.947C204.788 151.704 204.461 151.567 204.12 151.567ZM204.12 153.417H199.344C199.198 153.417 199.058 153.358 198.955 153.254C198.851 153.15 198.793 153.009 198.793 152.862C198.793 152.715 198.851 152.574 198.955 152.47C199.058 152.366 199.198 152.307 199.344 152.307H204.12C204.266 152.307 204.406 152.366 204.51 152.47C204.613 152.574 204.671 152.715 204.671 152.862C204.671 153.009 204.613 153.15 204.51 153.254C204.406 153.358 204.266 153.417 204.12 153.417Z" fill="#D0CDE1"/>
<path d="M195.304 148.239H190.528C190.187 148.239 189.86 148.375 189.619 148.618C189.378 148.861 189.242 149.19 189.242 149.533C189.242 149.877 189.378 150.206 189.619 150.449C189.86 150.691 190.187 150.828 190.528 150.828H195.304C195.645 150.828 195.972 150.691 196.213 150.449C196.454 150.206 196.589 149.877 196.589 149.533C196.589 149.19 196.454 148.861 196.213 148.618C195.972 148.375 195.645 148.239 195.304 148.239ZM195.304 150.088H190.528C190.382 150.088 190.242 150.03 190.138 149.926C190.035 149.822 189.977 149.68 189.977 149.533C189.977 149.386 190.035 149.245 190.138 149.141C190.242 149.037 190.382 148.978 190.528 148.978H195.304C195.45 148.978 195.59 149.037 195.693 149.141C195.797 149.245 195.855 149.386 195.855 149.533C195.855 149.68 195.797 149.822 195.693 149.926C195.59 150.03 195.45 150.088 195.304 150.088Z" fill="#D0CDE1"/>
<path d="M204.12 148.239H199.344C199.175 148.238 199.008 148.272 198.852 148.337C198.695 148.402 198.554 148.497 198.434 148.617C198.314 148.737 198.219 148.88 198.155 149.037C198.09 149.195 198.057 149.363 198.057 149.533C198.057 149.703 198.09 149.872 198.155 150.029C198.219 150.186 198.314 150.329 198.434 150.449C198.554 150.57 198.695 150.665 198.852 150.73C199.008 150.795 199.175 150.828 199.344 150.828H204.12C204.461 150.827 204.787 150.691 205.028 150.448C205.269 150.205 205.404 149.876 205.404 149.533C205.404 149.19 205.269 148.861 205.028 148.619C204.787 148.376 204.461 148.239 204.12 148.239ZM204.12 150.088H199.344C199.198 150.088 199.058 150.03 198.955 149.926C198.851 149.822 198.793 149.68 198.793 149.533C198.793 149.386 198.851 149.245 198.955 149.141C199.058 149.037 199.198 148.978 199.344 148.978H204.12C204.266 148.978 204.406 149.037 204.51 149.141C204.613 149.245 204.671 149.386 204.671 149.533C204.671 149.68 204.613 149.822 204.51 149.926C204.406 150.03 204.266 150.088 204.12 150.088Z" fill="#D0CDE1"/>
<path d="M180.948 105.306L178.818 112.303C178.818 112.303 178.274 125.348 171.143 123.553C164.012 121.758 173.223 106.502 173.223 106.502L175.303 103.212L180.948 105.306Z" fill="#A0616A"/>
<path d="M140.54 105.306L138.41 112.303C138.41 112.303 137.865 125.348 130.735 123.553C123.604 121.758 132.814 106.502 132.814 106.502L134.894 103.212L140.54 105.306Z" fill="#A0616A"/>
<path d="M179.462 45.7763C179.462 45.7763 184.216 44.5797 185.702 52.6566C187.187 60.7334 188.97 83.7673 188.97 83.7673L181.839 107.998C181.839 107.998 174.708 104.109 173.223 104.707L178.834 83.6714L174.114 62.2291C174.114 62.2291 178.274 45.7763 179.462 45.7763Z" fill="#383838"/>
<path opacity="0.15" d="M172.55 62.6383L178.789 83.5782L172.55 104.817L176.115 83.5782L172.55 62.6383Z" fill="black"/>
<path d="M144.105 62.2291L133.409 104.707C133.409 104.707 139.051 106.582 141.131 108.078L144.105 62.2291Z" fill="#383838"/>
<path d="M31.8993 168.981C48.3086 168.981 61.611 155.588 61.611 139.067C61.611 122.545 48.3086 109.152 31.8993 109.152C15.4899 109.152 2.1875 122.545 2.1875 139.067C2.1875 155.588 15.4899 168.981 31.8993 168.981Z" fill="#3F3D56"/>
<path opacity="0.1" d="M31.8988 164.793C46.0108 164.793 57.4509 153.275 57.4509 139.067C57.4509 124.858 46.0108 113.34 31.8988 113.34C17.7868 113.34 6.34668 124.858 6.34668 139.067C6.34668 153.275 17.7868 164.793 31.8988 164.793Z" fill="black"/>
<path d="M30.675 154.247V150.503C28.7951 150.466 26.8502 149.798 25.7158 148.872L26.4937 146.388C27.8418 147.405 29.4767 147.963 31.1612 147.982C33.4626 147.982 35.0185 146.462 35.0185 144.349C35.0185 142.31 33.7543 141.049 31.3557 139.937C28.0495 138.454 26.0075 136.749 26.0075 133.523C26.0075 130.446 27.9199 128.111 30.902 127.555V123.81H32.9116V127.406C34.4101 127.427 35.8718 127.877 37.1254 128.704L36.3149 131.151C35.1126 130.322 33.6879 129.882 32.2309 129.89C29.7351 129.89 28.7951 131.596 28.7951 133.079C28.7951 135.006 29.9944 135.97 32.8144 137.305C36.1529 138.862 37.8385 140.79 37.8385 144.089C37.8385 147.018 36.0557 149.762 32.7171 150.391V154.247H30.675Z" fill="#0FB953"/>
<path d="M63.2861 199.914C42.3067 203.064 20.9793 203.064 0 199.914V192.735C21.0016 195.567 42.2845 195.567 63.2861 192.735V199.914Z" fill="#3F3D56"/>
<path d="M63.2861 188.846C42.3067 191.996 20.9793 191.996 0 188.846V181.667C21.0016 184.499 42.2845 184.499 63.2861 181.667V188.846Z" fill="#3F3D56"/>
<path d="M63.2861 177.778C42.3067 180.928 20.9793 180.928 0 177.778V170.598C21.0016 173.43 42.2845 173.43 63.2861 170.598V177.778Z" fill="#3F3D56"/>
</g>
<defs>
<clipPath id="clip0">
<rect width="268" height="210" fill="white"/>
</clipPath>
</defs>
</svg>
