<svg width="286" height="164" viewBox="0 0 286 164" fill="none" xmlns="http://www.w3.org/2000/svg">
<g clip-path="url(#clip0)">
<path opacity="0.5" d="M70.9724 107.406C53.6805 101.461 33.9093 96.4297 17.7536 104.972C15.706 106.055 13.6884 107.418 12.5852 109.446C9.67124 114.782 14.303 121.701 12.0456 127.341C9.78816 132.981 1.2921 135.821 1.98762 141.845C2.17049 143.42 3.02789 144.846 4.03818 146.075C10.3668 153.767 21.9686 154.545 31.7748 152.636C41.5809 150.728 51.1712 146.77 61.1542 147.268C70.7475 147.76 79.5734 152.338 88.3632 156.192C103.182 162.706 120.489 167.379 135.295 160.833C142.08 157.832 147.689 152.723 154.182 149.156C162.933 144.393 172.992 142.557 182.872 143.918C189.467 144.843 195.763 147.169 202.218 148.774C216.877 152.416 232.179 152.296 247.285 152.153C250.097 152.126 252.954 152.094 255.649 151.294C259.639 150.101 262.931 147.354 266.1 144.667C270.264 141.139 274.65 137.261 275.993 131.985C277.579 125.722 274.296 119.065 269.428 114.808C264.559 110.552 258.335 108.226 252.262 105.983C250.763 105.434 249.162 104.876 247.627 105.291C246.62 105.565 245.771 106.233 245.019 106.952C240.708 111.08 237.065 118.062 231.186 116.941C229.088 116.541 227.37 115.089 225.709 113.747C216.841 106.588 204.913 101.062 194.21 105.017C186.383 107.91 180.858 115.339 172.925 117.961C167.283 119.828 161.152 119.02 155.216 119.384C146.582 119.909 138.179 122.945 129.533 122.76C107.487 122.289 89.1187 101.315 67.162 103.314C65.4412 103.469 63.5646 103.862 62.5093 105.216" fill="#0FB953"/>
<path d="M43.1701 87.4551C43.1701 87.4551 24.8499 98.4579 58.6333 115.405C58.6333 115.405 66.0771 101.655 57.8479 90.4437C56.2509 88.2592 53.9041 86.7333 51.2521 86.1551C48.6 85.5768 45.8268 85.9863 43.4579 87.306L43.1701 87.4551Z" fill="#0FB953"/>
<path d="M43.3887 87.2255C43.3887 87.2255 59.0737 99.1558 58.636 115.396" stroke="#535461" stroke-miterlimit="10"/>
<path d="M274.953 78.2897C278.665 91.7918 262.833 130.258 262.833 130.258C262.833 130.258 229.52 105.166 225.806 91.6636C224.834 88.4262 224.522 85.0283 224.89 81.6696C225.257 78.3108 226.295 75.0589 227.943 72.105C229.591 69.1511 231.817 66.5548 234.488 64.4686C237.159 62.3824 240.222 60.8484 243.498 59.9568C246.773 59.0652 250.195 58.834 253.562 59.2768C256.928 59.7195 260.172 60.8272 263.102 62.5349C266.032 64.2426 268.59 66.5157 270.625 69.2208C272.659 71.9258 274.13 75.0082 274.95 78.2867L274.953 78.2897Z" fill="#0FB953"/>
<path opacity="0.1" d="M274.953 78.2897C278.665 91.7918 262.833 130.258 262.833 130.258C262.833 130.258 229.52 105.166 225.806 91.6636C224.834 88.4262 224.522 85.0283 224.89 81.6696C225.257 78.3108 226.295 75.0589 227.943 72.105C229.591 69.1511 231.817 66.5548 234.488 64.4686C237.159 62.3824 240.222 60.8484 243.498 59.9568C246.773 59.0652 250.195 58.834 253.562 59.2768C256.928 59.7195 260.172 60.8272 263.102 62.5349C266.032 64.2426 268.59 66.5157 270.625 69.2208C272.659 71.9258 274.13 75.0082 274.95 78.2867L274.953 78.2897Z" fill="black"/>
<path d="M243.793 60.606C243.793 60.606 264.529 91.75 262.98 130.333" stroke="#535461" stroke-miterlimit="10"/>
<path d="M280.244 102.968C280.244 102.968 261.441 92.791 263.822 130.357C263.822 130.357 279.507 129.799 285.074 117.069C286.162 114.593 286.3 111.806 285.461 109.236C284.621 106.666 282.863 104.492 280.52 103.126L280.244 102.968Z" fill="#0FB953"/>
<path d="M280.554 103.033C280.554 103.033 278.125 122.533 263.822 130.357" stroke="#535461" stroke-miterlimit="10"/>
<path d="M4.96452 98.78C4.96452 98.78 -13.3647 109.78 20.4217 126.718C20.4217 126.718 27.8655 112.968 19.6363 101.757C18.0393 99.5721 15.6925 98.0462 13.0404 97.468C10.3884 96.8897 7.61523 97.2992 5.24633 98.6189L4.96452 98.78Z" fill="#0FB953"/>
<path d="M5.1748 98.5503C5.1748 98.5503 20.8598 110.481 20.4221 126.721" stroke="#535461" stroke-miterlimit="10"/>
<path d="M233.665 113.099H214.404C214.847 112.213 215.077 111.235 215.075 110.245V22.9867C215.075 21.2852 214.396 19.6534 213.187 18.4503C211.977 17.2471 210.337 16.5712 208.627 16.5712H59.5323C57.822 16.5712 56.1818 17.2471 54.9725 18.4503C53.7632 19.6534 53.0838 21.2852 53.0838 22.9867V110.248C53.0822 111.238 53.3121 112.216 53.7553 113.102H33.8132C33.5885 113.102 33.3659 113.146 33.1584 113.232C32.9508 113.318 32.7624 113.444 32.6039 113.603C32.4454 113.761 32.3199 113.949 32.2347 114.156C32.1495 114.363 32.1063 114.585 32.1074 114.808V116.177C32.1074 118.694 33.1125 121.108 34.9014 122.888C36.6904 124.668 39.1168 125.668 41.6468 125.668H225.832C228.362 125.668 230.788 124.668 232.577 122.888C234.366 121.108 235.371 118.694 235.371 116.177V114.808C235.373 114.584 235.33 114.363 235.245 114.155C235.16 113.948 235.035 113.759 234.876 113.601C234.717 113.442 234.529 113.316 234.321 113.23C234.113 113.144 233.891 113.099 233.665 113.099ZM114.981 118.528L113.321 116.663H154.326L152.497 118.531L114.981 118.528Z" fill="url(#paint0_linear)"/>
<path d="M206.261 17.806H61.8823C58.0312 17.806 54.9092 20.912 54.9092 24.7435V108.694C54.9092 112.526 58.0312 115.632 61.8823 115.632H206.261C210.113 115.632 213.234 112.526 213.234 108.694V24.7435C213.234 20.912 210.113 17.806 206.261 17.806Z" fill="#535461"/>
<path d="M209.568 32.0657H58.2432V111.984H209.568V32.0657Z" fill="white"/>
<path d="M133.907 26.4286C134.644 26.4286 135.241 25.8344 135.241 25.1014C135.241 24.3684 134.644 23.7741 133.907 23.7741C133.171 23.7741 132.573 24.3684 132.573 25.1014C132.573 25.8344 133.171 26.4286 133.907 26.4286Z" fill="white"/>
<path d="M157.27 112.148L152.072 117.454H115.42L110.722 112.148H36.077C35.6349 112.148 35.211 112.323 34.8984 112.634C34.5858 112.945 34.4102 113.366 34.4102 113.806V115.142C34.4102 117.602 35.3924 119.962 37.1409 121.701C38.8894 123.441 41.2609 124.418 43.7336 124.418H223.746C224.97 124.418 226.183 124.178 227.314 123.712C228.445 123.246 229.473 122.563 230.338 121.701C231.204 120.84 231.891 119.818 232.36 118.692C232.828 117.567 233.069 116.361 233.069 115.142V113.806C233.069 113.366 232.894 112.945 232.581 112.634C232.268 112.323 231.844 112.148 231.402 112.148H157.27Z" fill="#535461"/>
<path d="M77.5771 37.0406V105.02H190.568" stroke="#535461" stroke-width="2" stroke-miterlimit="10"/>
<path opacity="0.5" d="M99.2391 84.4606H87.5742V102.368H99.2391V84.4606Z" fill="#0FB953"/>
<path opacity="0.7" d="M119.238 68.5426H107.573V102.368H119.238V68.5426Z" fill="#0FB953"/>
<path opacity="0.5" d="M139.237 78.1584H127.572V102.365H139.237V78.1584Z" fill="#0FB953"/>
<path opacity="0.8" d="M159.237 63.2366H147.572V102.368H159.237V63.2366Z" fill="#0FB953"/>
<path d="M179.236 49.308H167.571V102.365H179.236V49.308Z" fill="#0FB953"/>
<path d="M93.2412 73.5176L113.573 55.2791L133.572 72.5214L153.238 51.6314L173.237 43.3398" stroke="#535461" stroke-width="2" stroke-miterlimit="10"/>
<path d="M93.2406 75.838C94.5287 75.838 95.5729 74.7991 95.5729 73.5176C95.5729 72.236 94.5287 71.1971 93.2406 71.1971C91.9524 71.1971 90.9082 72.236 90.9082 73.5176C90.9082 74.7991 91.9524 75.838 93.2406 75.838Z" fill="#0FB953"/>
<path d="M133.239 74.5108C134.527 74.5108 135.571 73.4719 135.571 72.1903C135.571 70.9088 134.527 69.8699 133.239 69.8699C131.95 69.8699 130.906 70.9088 130.906 72.1903C130.906 73.4719 131.95 74.5108 133.239 74.5108Z" fill="#0FB953"/>
<path d="M153.571 53.9518C154.859 53.9518 155.903 52.9129 155.903 51.6314C155.903 50.3499 154.859 49.311 153.571 49.311C152.283 49.311 151.238 50.3499 151.238 51.6314C151.238 52.9129 152.283 53.9518 153.571 53.9518Z" fill="#0FB953"/>
<path d="M113.573 57.2655C114.861 57.2655 115.905 56.2266 115.905 54.945C115.905 53.6635 114.861 52.6246 113.573 52.6246C112.284 52.6246 111.24 53.6635 111.24 54.945C111.24 56.2266 112.284 57.2655 113.573 57.2655Z" fill="#0FB953"/>
<path d="M173.237 45.6603C174.525 45.6603 175.569 44.6214 175.569 43.3398C175.569 42.0583 174.525 41.0194 173.237 41.0194C171.949 41.0194 170.904 42.0583 170.904 43.3398C170.904 44.6214 171.949 45.6603 173.237 45.6603Z" fill="#0FB953"/>
<path d="M260.011 115.053C258.782 114.65 256.96 114.185 255.515 114.349C254.139 113.851 250.904 112.56 248.694 110.615C248.758 108.703 248.709 106.789 248.547 104.882C247.417 92.096 249.959 83.6673 249.959 83.6673C249.959 83.6673 251.956 77.2368 251.737 71.901C251.866 72.1426 251.938 72.2858 251.938 72.2858C252.112 67.6836 253.689 62.9205 254.87 59.9528C254.915 59.94 254.959 59.9241 255.002 59.9051L256.321 56.7913C256.426 56.6096 256.51 56.4165 256.57 56.2156L256.783 55.7235L256.72 55.6967C256.741 55.6161 256.762 55.5296 256.783 55.4431C257.625 51.8969 258.282 43.486 258.282 43.486C260.542 34.6337 255.176 29.1696 255.176 29.1696L246.068 21.3732C246.114 21.4746 246.144 21.5821 246.158 21.6923L246.083 21.6267C245.954 21.2598 245.813 20.8214 245.675 20.3203C245.997 20.0908 246.298 19.8344 246.575 19.5538C247.61 18.5808 248.323 17.3165 248.616 15.9299C248.793 14.8456 248.838 13.7442 248.751 12.6491L248.601 8.88808C248.595 8.15201 248.519 7.41816 248.377 6.69589C247.69 3.71331 244.617 1.62551 241.532 1.48831C240.551 1.48262 239.57 1.53441 238.594 1.6434C237.797 1.7086 236.996 1.72553 236.196 1.69411C236.105 1.69891 236.015 1.67489 235.938 1.62551C235.869 1.55662 235.829 1.46356 235.827 1.36602C235.812 1.19146 235.832 1.01554 235.886 0.848916C235.941 0.682293 236.029 0.528437 236.145 0.396683C236.266 0.291388 236.406 0.211266 236.559 0.161061L236.34 0.211764C236.448 0.127117 236.57 0.0615416 236.7 0.0178986C235.9 0.157775 235.131 0.435337 234.427 0.838107C234.233 0.964855 234.055 1.11403 233.897 1.28251C233.478 1.64845 233.205 2.15252 233.129 2.70222C232.754 2.38672 232.473 1.97372 232.32 1.50919C232.272 1.31924 232.272 1.12052 232.32 0.930567C232.266 0.996183 232.214 1.06379 232.164 1.13338C232.164 1.1125 232.164 1.09163 232.164 1.07075C231.585 1.77924 231.175 2.60939 230.965 3.49857C230.884 3.40228 230.823 3.29099 230.786 3.17117C230.749 3.05136 230.737 2.9254 230.749 2.80064C230.704 2.94083 230.662 3.081 230.623 3.22118C230.609 3.12822 230.609 3.03378 230.623 2.94082C230.27 4.01609 230.111 5.14494 230.152 6.27535C230.152 7.40276 230.656 9.1595 231.87 9.55618C231.933 9.57706 231.996 9.59197 232.062 9.60688C231.379 10.6622 230.97 11.8695 230.872 13.1208C230.773 14.372 230.989 15.6279 231.498 16.776C232.008 17.9241 232.796 18.9285 233.791 19.699C234.787 20.4696 235.959 20.9823 237.203 21.1912C237.223 21.3284 237.242 21.4726 237.26 21.6237H237.308C237.341 21.9219 237.368 22.25 237.386 22.5841C237.08 22.8828 236.744 23.1505 236.385 23.3834C235.366 23.9829 234.229 24.3572 233.051 24.481C231.645 24.5908 230.279 24.9975 229.043 25.674C227.589 26.4823 225.985 27.6604 225.482 29.0921C224.642 31.4781 220.019 35.1914 216.92 35.6537L215.816 35.5911L215.735 35.5672V35.5881L215.466 35.5732H215.451H215.379V35.5881L215.1 35.5732C215.1 35.5732 215.073 35.7015 215.034 35.9281C213.475 35.3942 210.162 33.9149 205.851 30.0226C201.055 25.6889 194.564 26.542 192.061 27.0878C191.976 27.1065 191.898 27.1506 191.839 27.2141C191.78 27.2778 191.741 27.3578 191.729 27.4437C191.717 27.5296 191.731 27.6172 191.77 27.6948C191.809 27.7725 191.871 27.8364 191.947 27.8782C192.957 28.4299 194.522 29.2322 195.245 29.3217C195.245 29.3217 193.746 30.8816 195.341 31.7078C195.532 31.7998 195.745 31.8377 195.957 31.8171C196.168 31.7966 196.37 31.7185 196.54 31.5915C197.313 31.0278 199.463 32.3043 202.578 32.9694C202.578 32.9694 211.367 42.0186 215.732 43.4084C215.833 43.606 215.944 43.7982 216.065 43.9841L216.335 43.9632V43.9841H216.449L216.482 44.2823C216.482 44.2823 223.269 43.9274 225.476 41.4757C225.632 41.3366 225.775 41.1839 225.904 41.0194L223.545 70.5469H223.566L223.545 70.8273H225.281C225.429 74.4588 225.272 78.0964 224.81 81.7018V100.951C224.81 100.951 224.72 102.645 228.258 105.127C231.967 107.696 235.541 110.452 238.966 113.386L239.395 113.756C238.744 119.646 237.383 130.625 236.247 131.034L236.949 131.156C235.749 132.668 232.344 136.823 231.307 136.933C230.035 137.073 229.187 139.042 231.307 139.462C235.539 140.191 239.89 139.764 243.898 138.228C244.297 138.071 244.633 137.785 244.85 137.416C245.067 137.048 245.154 136.617 245.097 136.193L244.686 133.092C244.764 133.135 244.827 133.2 244.866 133.279C245.148 134.124 244.866 132.155 244.866 132.155C246.027 128.441 246.94 124.655 247.597 120.821L251.794 124.43C251.794 124.43 251.878 124.326 252.025 124.132C253.053 126.452 254.888 131.201 254.477 134.678C253.914 139.45 259.274 135.239 258.713 132.429C258.258 130.157 260.296 120.523 261.091 116.92C261.176 116.531 261.113 116.124 260.914 115.779C260.714 115.434 260.392 115.175 260.011 115.053Z" fill="url(#paint1_linear)"/>
<path d="M216.149 37.1092C216.149 37.1092 212.15 36.4232 206.22 31.0725C201.528 26.8402 195.2 27.6724 192.759 28.2062C192.676 28.2241 192.601 28.2669 192.543 28.3288C192.485 28.3907 192.447 28.4688 192.435 28.5526C192.423 28.6364 192.437 28.7218 192.475 28.7975C192.513 28.8731 192.574 28.9353 192.648 28.9757C193.635 29.5126 195.164 30.297 195.88 30.3865C195.88 30.3865 194.402 31.9076 195.973 32.7219C196.161 32.8138 196.371 32.8518 196.58 32.8318C196.788 32.8118 196.987 32.7345 197.154 32.6085C197.91 32.0597 200.008 33.3064 203.051 33.9537C203.051 33.9537 214.911 46.1643 217.669 44.0944L216.149 37.1092Z" fill="#FEC3BE"/>
<path d="M236.567 20.5082C236.567 20.5082 237.671 25.173 236.567 28.4657L241.532 29.1517L245.945 26.9565V24.0754C245.945 24.0754 243.876 19.685 244.428 14.6087L236.567 20.5082Z" fill="#FEC3BE"/>
<path d="M250.625 121.618C250.625 121.618 254.222 128.615 253.659 133.279C253.095 137.944 258.348 133.828 257.796 131.084C257.349 128.865 259.34 119.452 260.116 115.951C260.2 115.572 260.14 115.176 259.948 114.84C259.755 114.503 259.443 114.249 259.073 114.128C257.415 113.585 254.639 112.92 253.245 113.937C251.186 115.444 250.625 121.618 250.625 121.618Z" fill="#8B416F"/>
<path d="M236.982 129.301C236.982 129.301 232.293 135.337 231.052 135.475C229.811 135.612 228.983 137.533 231.052 137.944C235.182 138.659 239.43 138.247 243.343 136.751C243.735 136.599 244.064 136.321 244.278 135.961C244.491 135.6 244.577 135.179 244.522 134.765L243.73 128.889L236.982 129.301Z" fill="#8B416F"/>
<path d="M229.259 65.2319L224.762 65.8285C225.379 71.054 225.361 76.3344 224.708 81.5556V100.346C224.708 100.346 224.621 102.001 228.075 104.408C231.696 106.913 235.187 109.601 238.532 112.461L251.045 123.246C251.045 123.246 256.009 117.209 255.32 113.642C255.32 113.642 247.046 111.035 245.942 106.782C245.31 104.348 242.102 102.308 239.476 101.026C237.825 100.228 236.498 98.8928 235.715 97.2412C234.933 95.5896 234.742 93.7214 235.174 91.9469C235.327 91.3302 235.564 90.7372 235.878 90.1842C238.085 86.3426 241.257 77.6991 241.257 77.6991L235.189 66.1923L229.259 65.2319Z" fill="#4D4981"/>
<path opacity="0.05" d="M229.259 65.2319L224.762 65.8285C225.379 71.054 225.361 76.3344 224.708 81.5556V100.346C224.708 100.346 224.621 102.001 228.075 104.408C231.696 106.913 235.187 109.601 238.532 112.461L251.045 123.246C251.045 123.246 256.009 117.209 255.32 113.642C255.32 113.642 247.046 111.035 245.942 106.782C245.31 104.348 242.102 102.308 239.476 101.026C237.825 100.228 236.498 98.8928 235.715 97.2412C234.933 95.5896 234.742 93.7214 235.174 91.9469C235.327 91.3302 235.564 90.7372 235.878 90.1842C238.085 86.3426 241.257 77.6991 241.257 77.6991L235.189 66.1923L229.259 65.2319Z" fill="black"/>
<path d="M235.878 129.721C235.878 129.721 244.015 131.093 244.291 131.916C244.566 132.74 244.291 130.819 244.291 130.819C244.291 130.819 248.979 116.687 247.888 104.205C246.797 91.7232 249.267 83.4883 249.267 83.4883C249.267 83.4883 252.163 74.1588 250.508 68.8081C248.853 63.4573 231.478 65.7897 231.478 65.7897C231.478 65.7897 237.545 79.9211 237.407 86.6439C237.407 86.6439 238.097 106.949 239.338 109.282C239.326 109.27 237.395 129.164 235.878 129.721Z" fill="#4D4981"/>
<path d="M236.835 24.0754C236.835 24.0754 237.662 29.1458 245.936 26.9565L240.432 68.6619C240.432 68.6619 224.435 69.2107 224.573 67.2899L227.871 42.0484L236.835 24.0754Z" fill="white"/>
<path opacity="0.1" d="M237.05 23.801C235.973 24.8563 234.569 25.5193 233.066 25.683C231.693 25.7877 230.358 26.1822 229.151 26.8402C227.733 27.6306 226.153 28.7789 225.673 30.1777C224.708 32.9217 218.64 37.4492 215.882 36.4889L216.847 44.7208C216.847 44.7208 224.708 44.3092 226.087 41.2908L223.745 70.6662H225.814C225.814 70.6662 226.917 62.7087 227.745 61.0623C228.572 59.4159 230.227 50.3608 230.365 48.1656C230.503 45.9705 232.571 33.3482 234.364 31.165L237.062 24.648L237.05 23.801Z" fill="black"/>
<path opacity="0.1" d="M237.05 24.2126C235.818 25.1717 234.344 25.7752 232.79 25.9574C231.418 26.0643 230.084 26.4608 228.878 27.1206C227.46 27.911 225.88 29.0593 225.401 30.4581C224.435 33.2021 218.367 37.7296 215.609 36.7692L216.575 45.0011C216.575 45.0011 224.435 44.5895 225.814 41.5712L223.47 70.9287H225.538C225.538 70.9287 226.642 62.9712 227.469 61.3248C228.297 59.6784 229.951 50.6233 230.089 48.4281C230.227 46.2329 232.296 33.6107 234.088 31.4274L237.05 25.0328V24.2126Z" fill="black"/>
<path d="M237.05 23.9382C235.818 24.8973 234.344 25.5008 232.79 25.683C231.418 25.7877 230.083 26.1822 228.875 26.8402C227.457 27.6306 225.877 28.7789 225.398 30.1777C224.432 32.9217 218.365 37.4492 215.606 36.4889L216.572 44.7208C216.572 44.7208 224.432 44.3092 225.811 41.2908L223.47 70.6662H225.538C225.538 70.6662 226.642 62.7087 227.469 61.0623C228.297 59.4159 229.951 50.3608 230.089 48.1656C230.227 45.9705 232.296 33.3482 234.089 31.1649L237.053 24.7852L237.05 23.9382Z" fill="#FD6F8D"/>
<path opacity="0.1" d="M244.083 18.656C243.903 17.3556 244.263 16.5444 244.428 15.0203L236.567 20.9198C236.567 20.9198 236.756 21.7161 236.9 22.8823C237.297 22.9461 237.698 22.978 238.099 22.9778C240.827 22.9778 242.791 20.8572 244.083 18.656Z" fill="black"/>
<path d="M238.084 22.5692C242.197 22.5692 245.531 19.2522 245.531 15.1604C245.531 11.0687 242.197 7.75172 238.084 7.75172C233.972 7.75172 230.638 11.0687 230.638 15.1604C230.638 19.2522 233.972 22.5692 238.084 22.5692Z" fill="#FEC3BE"/>
<path opacity="0.1" d="M229.957 7.89787C229.909 6.64846 230.113 5.40215 230.557 4.23228C230.433 4.41634 230.381 4.63855 230.41 4.85784C230.439 5.07714 230.546 5.2787 230.712 5.42531C230.953 4.15029 231.61 2.99029 232.583 2.12658C232.053 2.21307 231.78 2.86626 231.912 3.38523C232.091 3.89213 232.41 4.33864 232.832 4.6737C232.787 3.88928 233.309 3.15557 233.968 2.72608C234.655 2.33338 235.406 2.06288 236.187 1.92675C235.919 2.02127 235.69 2.20127 235.536 2.43867C235.382 2.67606 235.312 2.9575 235.335 3.23908C235.338 3.33474 235.377 3.42572 235.446 3.4926C235.521 3.54028 235.609 3.56324 235.698 3.55822C236.475 3.588 237.253 3.57107 238.027 3.50751C238.98 3.40086 239.938 3.35007 240.896 3.3554C243.894 3.48067 246.907 5.51777 247.579 8.42579C247.718 9.13137 247.791 9.84826 247.798 10.5673L247.944 14.2388C248.03 15.31 247.985 16.3874 247.813 17.4481C247.605 18.4272 247.183 19.3487 246.576 20.1468C245.969 20.9449 245.193 21.5999 244.302 22.0651C243.22 20.5052 243.124 18.5009 242.749 16.6428C242.69 16.214 242.53 15.8052 242.281 15.4498C242.153 15.274 241.973 15.1423 241.766 15.0728C241.56 15.0034 241.336 14.9996 241.127 15.062C240.722 15.2231 240.549 15.8375 240.884 16.1119C240.585 16.4638 240.024 16.2014 239.685 15.8882C238.739 14.9953 238.088 13.8377 237.818 12.5686C237.683 11.9303 237.548 11.1429 236.918 10.9252C236.702 10.866 236.475 10.8508 236.253 10.8804C234.94 10.9699 232.886 11.5098 231.615 11.0952C230.449 10.7164 229.957 8.99844 229.957 7.89787Z" fill="black"/>
<path d="M230.095 7.76067C230.047 6.51126 230.251 5.26496 230.694 4.09508C230.571 4.27915 230.519 4.50135 230.548 4.72064C230.576 4.93994 230.684 5.14151 230.85 5.28811C231.09 4.01309 231.748 2.8531 232.721 1.98938C232.19 2.07588 231.917 2.72906 232.049 3.24803C232.229 3.75493 232.547 4.20144 232.97 4.5365C232.925 3.75208 233.446 3.01837 234.106 2.58888C234.793 2.19618 235.544 1.92569 236.324 1.78955C236.057 1.88407 235.828 2.06407 235.674 2.30147C235.52 2.53887 235.449 2.82031 235.473 3.10188C235.475 3.19755 235.515 3.28852 235.584 3.3554C235.659 3.40309 235.747 3.42604 235.836 3.42102C236.612 3.4508 237.39 3.43387 238.165 3.37031C239.118 3.26366 240.076 3.21287 241.034 3.2182C244.032 3.34347 247.045 5.38057 247.716 8.28859C247.856 8.99417 247.929 9.71106 247.935 10.4301L248.082 14.1016C248.167 15.1728 248.123 16.2502 247.95 17.3109C247.743 18.29 247.32 19.2115 246.713 20.0096C246.107 20.8077 245.33 21.4627 244.44 21.9279C243.357 20.368 243.261 18.3637 242.887 16.5056C242.828 16.0768 242.667 15.668 242.419 15.3126C242.291 15.1368 242.111 15.0051 241.904 14.9356C241.697 14.8662 241.474 14.8624 241.265 14.9248C240.86 15.0859 240.686 15.7003 241.022 15.9747C240.722 16.3266 240.162 16.0642 239.823 15.751C238.877 14.8581 238.226 13.7005 237.955 12.4314C237.82 11.7931 237.685 11.0057 237.056 10.788C236.839 10.7288 236.613 10.7136 236.39 10.7432C235.077 10.8327 233.024 11.3726 231.753 10.958C230.586 10.5762 230.095 8.86124 230.095 7.76067Z" fill="#784F69"/>
<path opacity="0.1" d="M215.25 36.4918C215.25 36.4918 214.147 41.5622 216.215 44.7238L217.387 44.6283L216.749 36.5754L215.25 36.4918Z" fill="black"/>
<path d="M215.55 36.4918C215.55 36.4918 214.447 41.5622 216.515 44.7238L217.687 44.6283L217.049 36.5754L215.55 36.4918Z" fill="#FD6F8D"/>
<path opacity="0.1" d="M245.187 22.6467L254.082 30.2612C254.082 30.2612 259.322 35.612 257.116 44.2555C257.116 44.2555 256.15 56.8778 255.047 57.4265C255.047 57.4265 251.186 65.1097 250.91 72.3812C250.91 72.3812 245.739 62.0227 243.394 68.3338C241.05 74.645 235.6 75.5368 235.6 75.5368L238.633 38.2068C238.633 38.2068 246.29 24.9672 245.187 22.6467Z" fill="black"/>
<path d="M245.462 22.6467L254.357 30.2612C254.357 30.2612 259.597 35.612 257.391 44.2555C257.391 44.2555 256.426 56.8778 255.322 57.4265C255.322 57.4265 251.461 65.1097 251.185 72.3812C251.185 72.3812 245.738 61.4739 243.391 67.785C241.043 74.0962 235.875 75.5397 235.875 75.5397L238.909 38.2247C238.909 38.2247 246.566 24.9672 245.462 22.6467Z" fill="#FD6F8D"/>
<path d="M249.531 54.8078C249.531 54.8078 251.737 53.2987 255.323 57.4146L246.497 73.3297L243.532 68.8767C243.532 68.8767 249.807 56.5914 249.531 54.8078Z" fill="#FEC3BE"/>
<path opacity="0.1" d="M247.393 55.6996C247.393 55.6996 252.273 61.1518 254.177 60.2779L255.94 56.1947L249.323 53.3673L247.393 55.6996Z" fill="black"/>
<path d="M247.393 55.4252C247.393 55.4252 252.273 60.8774 254.177 60.0035L255.94 55.9203L249.323 53.0929L247.393 55.4252Z" fill="#FD6F8D"/>
<path opacity="0.1" d="M243.831 67.8357C243.831 67.8357 246.154 72.5721 247.393 72.8465L245.594 74.9044L242.974 69.9653L243.831 67.8357Z" fill="black"/>
<path d="M243.693 67.9819C243.693 67.9819 246.017 72.7182 247.255 72.9926L245.456 75.0506L242.83 70.1025L243.693 67.9819Z" fill="#4D4981"/>
<path opacity="0.1" d="M248.082 38.687C248.082 38.687 248.358 48.5653 247.255 52.2697L248.082 38.687Z" fill="black"/>
<path opacity="0.1" d="M225.742 40.6078C225.742 40.6078 227.397 40.059 227.397 38.687L225.742 40.6078Z" fill="black"/>
<path d="M24.7896 42.2601C24.7896 42.2601 16.9291 58.4376 22.0914 77.5828C27.2538 96.728 25.614 119.637 20.4666 125.304" stroke="#535461" stroke-width="2" stroke-miterlimit="10"/>
<path d="M24.7896 44.4195C25.9866 44.4195 26.957 43.4541 26.957 42.2631C26.957 41.0722 25.9866 40.1067 24.7896 40.1067C23.5925 40.1067 22.6221 41.0722 22.6221 42.2631C22.6221 43.4541 23.5925 44.4195 24.7896 44.4195Z" fill="#0FB953"/>
<path d="M21.5215 52.6664C21.5215 52.6664 29.6698 54.1278 31.8373 51.1751" stroke="#535461" stroke-width="2" stroke-miterlimit="10"/>
<path d="M20.748 57.3639C20.748 57.3639 15.8464 51.9684 16.1162 48.7323" stroke="#535461" stroke-width="2" stroke-miterlimit="10"/>
<path d="M20.332 67.2482C20.332 67.2482 24.7899 68.4173 28.8581 59.7917" stroke="#535461" stroke-width="2" stroke-miterlimit="10"/>
<path d="M21.5214 74.4362C21.5214 74.4362 10.4292 67.3347 11.7813 62.7534" stroke="#535461" stroke-width="2" stroke-miterlimit="10"/>
<path d="M23.2549 82.5637C23.2549 82.5637 31.0255 75.7038 30.213 68.9542" stroke="#535461" stroke-width="2" stroke-miterlimit="10"/>
<path d="M24.1 87.3418C24.1 87.3418 14.2069 84.5919 14.5067 80.2791" stroke="#535461" stroke-width="2" stroke-miterlimit="10"/>
<path d="M24.7891 93.0356C24.7891 93.0356 31.0217 87.2911 31.8341 83.7896" stroke="#535461" stroke-width="2" stroke-miterlimit="10"/>
<path d="M25.224 102.803C25.224 102.803 18.8294 95.3769 18.5566 91.6039" stroke="#535461" stroke-width="2" stroke-miterlimit="10"/>
<path d="M25.2246 108.951C25.2246 108.951 32.3806 101.041 32.9202 97.2678" stroke="#535461" stroke-width="2" stroke-miterlimit="10"/>
<path d="M16.1167 51.4286C17.3138 51.4286 18.2842 50.4631 18.2842 49.2722C18.2842 48.0812 17.3138 47.1158 16.1167 47.1158C14.9196 47.1158 13.9492 48.0812 13.9492 49.2722C13.9492 50.4631 14.9196 51.4286 16.1167 51.4286Z" fill="#0FB953"/>
<path d="M13.6792 82.4355C14.8763 82.4355 15.8467 81.47 15.8467 80.2791C15.8467 79.0881 14.8763 78.1227 13.6792 78.1227C12.4821 78.1227 11.5117 79.0881 11.5117 80.2791C11.5117 81.47 12.4821 82.4355 13.6792 82.4355Z" fill="#0FB953"/>
<path d="M11.7817 64.9098C12.9788 64.9098 13.9492 63.9444 13.9492 62.7534C13.9492 61.5625 12.9788 60.597 11.7817 60.597C10.5847 60.597 9.61426 61.5625 9.61426 62.7534C9.61426 63.9444 10.5847 64.9098 11.7817 64.9098Z" fill="#0FB953"/>
<path d="M31.8374 53.3166C33.0345 53.3166 34.0049 52.3511 34.0049 51.1601C34.0049 49.9692 33.0345 49.0037 31.8374 49.0037C30.6403 49.0037 29.6699 49.9692 29.6699 51.1601C29.6699 52.3511 30.6403 53.3166 31.8374 53.3166Z" fill="#0FB953"/>
<path d="M31.8374 86.4798C33.0345 86.4798 34.0049 85.5144 34.0049 84.3234C34.0049 83.1325 33.0345 82.167 31.8374 82.167C30.6403 82.167 29.6699 83.1325 29.6699 84.3234C29.6699 85.5144 30.6403 86.4798 31.8374 86.4798Z" fill="#0FB953"/>
<path d="M28.3149 61.9452C29.512 61.9452 30.4824 60.9797 30.4824 59.7887C30.4824 58.5978 29.512 57.6323 28.3149 57.6323C27.1179 57.6323 26.1475 58.5978 26.1475 59.7887C26.1475 60.9797 27.1179 61.9452 28.3149 61.9452Z" fill="#0FB953"/>
<path d="M32.6499 100.772C33.847 100.772 34.8174 99.8069 34.8174 98.6159C34.8174 97.425 33.847 96.4595 32.6499 96.4595C31.4528 96.4595 30.4824 97.425 30.4824 98.6159C30.4824 99.8069 31.4528 100.772 32.6499 100.772Z" fill="#0FB953"/>
<path d="M18.0142 95.1084C19.2112 95.1084 20.1816 94.143 20.1816 92.952C20.1816 91.7611 19.2112 90.7956 18.0142 90.7956C16.8171 90.7956 15.8467 91.7611 15.8467 92.952C15.8467 94.143 16.8171 95.1084 18.0142 95.1084Z" fill="#0FB953"/>
<path d="M30.4829 71.1106C31.68 71.1106 32.6504 70.1452 32.6504 68.9542C32.6504 67.7633 31.68 66.7978 30.4829 66.7978C29.2858 66.7978 28.3154 67.7633 28.3154 68.9542C28.3154 70.1452 29.2858 71.1106 30.4829 71.1106Z" fill="#0FB953"/>
</g>
<defs>
<linearGradient id="paint0_linear" x1="133.739" y1="125.656" x2="133.739" y2="16.5682" gradientUnits="userSpaceOnUse">
<stop stop-color="#808080" stop-opacity="0.25"/>
<stop offset="0.54" stop-color="#808080" stop-opacity="0.12"/>
<stop offset="1" stop-color="#808080" stop-opacity="0.1"/>
</linearGradient>
<linearGradient id="paint1_linear" x1="61150.7" y1="89993" x2="61150.7" y2="24473.2" gradientUnits="userSpaceOnUse">
<stop stop-color="#808080" stop-opacity="0.25"/>
<stop offset="0.54" stop-color="#808080" stop-opacity="0.12"/>
<stop offset="1" stop-color="#808080" stop-opacity="0.1"/>
</linearGradient>
<clipPath id="clip0">
<rect width="286" height="164" fill="white"/>
</clipPath>
</defs>
</svg>
