<svg width="104" height="104" viewBox="0 0 104 104" fill="none" xmlns="http://www.w3.org/2000/svg">
<circle cx="52" cy="52" r="52" fill="#3E3E3E"/>
<path d="M40.1035 72.8181V81.3873L41.891 79.4762C46.4522 84.6546 59.4579 84.6546 63.9574 75.9005C58.5333 80.3392 51.7531 80.3392 46.4522 75.0991L48.1781 72.8181H40.1035Z" fill="white"/>
<path d="M73.8203 62.9542H82.388L80.4772 61.1664C85.6548 56.6044 85.6548 43.5965 76.9022 39.0962C81.3402 44.5213 81.3401 51.3026 76.1009 56.6044L73.8203 54.8782V62.9542Z" fill="white"/>
<path d="M23.5233 40.884C18.3457 45.446 18.3457 58.4539 27.0983 62.9542C22.6604 57.5291 22.6604 50.7478 27.8996 45.446L30.1802 47.1722V39.0962H21.6742" fill="white"/>
<path d="M51.9993 36.8767C46.6368 36.8767 32.2751 51.3025 34.8639 61.8444C36.5282 68.5641 39.795 70.7218 51.9993 70.7218C64.2036 70.7218 67.4704 68.5641 69.1347 61.8444C71.7851 51.3025 57.4234 36.8767 51.9993 36.8767Z" fill="#F1A42A"/>
<path d="M58.3472 32.0066C57.8541 30.9585 56.005 32.0066 55.4502 32.0066C54.8955 32.0066 53.9709 30.342 52.0601 30.342C50.1494 30.342 49.2248 32.0066 48.67 32.0066C48.1153 32.0066 46.2662 30.9585 45.7731 32.0066C45.28 33.0546 47.1291 36.3836 47.1291 36.3836H56.9912C56.9912 36.3836 58.8403 33.0546 58.3472 32.0066Z" fill="#FFC90D"/>
<path d="M56.9312 36.3835H47.0692C46.2679 36.3835 45.5898 37.0617 45.5898 37.8631C45.5898 38.6645 46.2679 39.3427 47.0692 39.3427H56.9312C57.7325 39.3427 58.4106 38.6645 58.4106 37.8631C58.4106 37.0617 57.7942 36.3835 56.9312 36.3835Z" fill="#3C3D3F"/>
<path d="M57.3626 58.7004C57.3626 56.1111 55.4518 54.9398 53.6027 54.2V49.3914C54.3423 49.5147 55.1436 49.7613 56.1298 50.1929L56.9311 50.5627V48.3434L56.6229 48.1585C55.9449 47.8502 55.082 47.4803 53.6027 47.357V45.6309H52.8014V47.357C52.5548 47.357 52.3083 47.357 52.0617 47.357C51.8152 47.357 51.5686 47.357 51.3221 47.4187V45.7542H50.5208V47.542C47.932 48.0352 46.6992 49.7613 46.6992 51.4258C46.6992 53.7068 48.1785 54.8165 50.5208 55.6179V60.7964C49.3497 60.5498 48.3018 60.0566 47.6238 59.5634L46.6992 58.8853V61.5362L46.9458 61.7211C47.3772 62.0294 48.5484 62.7075 50.5208 62.8925V64.6186H51.3221V62.9541C51.4453 62.9541 51.507 62.9541 51.6303 62.9541C52.0001 62.9541 52.4316 62.9541 52.8014 62.8925V64.6186H53.6027V62.7692C55.6367 62.276 57.3626 61.043 57.3626 58.7004ZM52.0001 49.3298C52.2466 49.3298 52.5548 49.3298 52.8014 49.3298V53.9534C52.4932 53.8301 52.185 53.7685 51.9384 53.7068C51.6919 53.6452 51.507 53.5835 51.3221 53.5219V49.4531C51.507 49.3298 51.7535 49.3298 52.0001 49.3298ZM49.3497 51.4258C49.3497 50.5627 49.8428 50.0079 50.5208 49.6997V53.152C49.6578 52.7204 49.3497 52.1656 49.3497 51.4258ZM51.6303 60.8581C51.507 60.8581 51.4453 60.8581 51.3221 60.8581V55.8645C51.4453 55.9262 51.5686 55.9262 51.6919 55.9878C52.1234 56.1111 52.4932 56.2344 52.8014 56.3577V60.7348C52.4316 60.7964 52.0001 60.8581 51.6303 60.8581ZM53.6027 60.3649V56.7276C54.7738 57.4674 54.7738 58.2072 54.7738 58.7004C54.7738 59.3785 54.2807 59.9333 53.6027 60.3649Z" fill="white"/>
</svg>
