<svg width="104" height="104" viewBox="0 0 104 104" fill="none" xmlns="http://www.w3.org/2000/svg">
<circle cx="52" cy="52" r="52" fill="#3E3E3E"/>
<g clip-path="url(#clip0)">
<path d="M65.5248 31C58.0936 31 52.0495 36.3063 52.0495 41.3692C52 36.355 45.956 31 38.4752 31C31.044 31 25 37.0365 25 44.4848C25 64.4442 52 79.0487 52 79.0487C52 79.0487 79 64.4442 79 44.4848C79 37.0365 72.956 31 65.5248 31Z" fill="#FF6161"/>
<path d="M78.9994 44.4848C78.9994 37.0365 72.9553 31 65.5241 31C58.0929 31 52.0489 36.3063 52.0489 41.3692V79.0487C51.9994 79 78.9994 64.4442 78.9994 44.4848Z" fill="#F13547"/>
<path d="M66.2186 55.73H61.2149C61.1158 58.1154 60.769 60.3547 60.125 62.3507C61.1654 62.6914 62.1562 63.1296 63.0975 63.6164C64.881 61.4257 66.0204 58.6996 66.2186 55.73Z" fill="#F4EBDF"/>
<path d="M59.4801 64.0547C58.836 65.5151 58.0929 66.8295 57.2012 67.8518C58.9351 67.1703 60.4709 66.1967 61.8085 64.9796C61.0654 64.6389 60.2727 64.3468 59.4801 64.0547Z" fill="#F4EBDF"/>
<path d="M51.0581 55.73H44.7168C44.8159 57.9207 45.1627 59.9653 45.7572 61.8152C47.4416 61.377 49.2251 61.1336 51.1076 61.085V55.73H51.0581Z" fill="white"/>
<path d="M51.058 68.5333V62.8862C49.4231 62.9349 47.8378 63.1783 46.3516 63.5191C47.5406 66.1966 49.1754 68.0465 51.058 68.5333Z" fill="white"/>
<path d="M66.2186 53.8803C66.0204 50.9107 64.881 48.1846 63.0975 45.9939C62.1562 46.4807 61.1654 46.9188 60.125 47.2596C60.769 49.2556 61.1158 51.4462 61.2149 53.8803H66.2186Z" fill="#F4EBDF"/>
<path d="M52.9414 41.0769V46.724C54.5763 46.6753 56.1616 46.4319 57.6478 46.0911C56.4588 43.4136 54.824 41.5637 52.9414 41.0769Z" fill="#F4EBDF"/>
<path d="M61.7597 44.5844C60.4221 43.3673 58.8863 42.3937 57.1523 41.7122C58.0441 42.7345 58.8367 44.0002 59.4312 45.5093C60.2734 45.2659 61.0661 44.9251 61.7597 44.5844Z" fill="#F4EBDF"/>
<path d="M52.9414 61.0364C54.7744 61.0851 56.6075 61.3771 58.2919 61.7666C58.8864 59.9654 59.2332 57.8721 59.3322 55.6814H52.9414V61.0364Z" fill="#F4EBDF"/>
<path d="M58.2919 47.7949C56.6075 48.2331 54.824 48.4765 52.9414 48.5738V53.8801H59.2827C59.2332 51.6894 58.8864 49.5961 58.2919 47.7949Z" fill="#F4EBDF"/>
<path d="M57.6478 63.5677C56.1616 63.2269 54.5763 62.9835 52.9414 62.9348V68.5819C54.824 68.0464 56.4588 66.1965 57.6478 63.5677Z" fill="#F4EBDF"/>
<path d="M40.9023 63.6164C41.8436 63.1296 42.8345 62.6914 43.8748 62.3507C43.2308 60.3547 42.884 58.1641 42.7849 55.73H37.7812C37.9794 58.6996 39.1189 61.4257 40.9023 63.6164Z" fill="white"/>
<path d="M40.9023 45.9939C39.1189 48.1846 37.9794 50.9107 37.7812 53.8803H42.7849C42.884 51.4949 43.2308 49.2556 43.8748 47.2596C42.8345 46.9188 41.8436 46.4807 40.9023 45.9939Z" fill="white"/>
<path d="M42.2402 44.5844C42.9834 44.9251 43.7265 45.2172 44.5191 45.5093C45.1632 44.0489 45.9063 42.7345 46.798 41.7122C45.1136 42.3937 43.5283 43.3673 42.2402 44.5844Z" fill="white"/>
<path d="M46.3516 46.0424C47.8378 46.3832 49.4231 46.6266 51.058 46.6753V41.0769C49.1754 41.5637 47.5406 43.4136 46.3516 46.0424Z" fill="white"/>
<path d="M46.798 67.8518C45.9063 66.8295 45.1136 65.5638 44.5191 64.0547C43.7265 64.2981 42.9338 64.6389 42.2402 64.9796C43.5283 66.2454 45.1136 67.219 46.798 67.8518Z" fill="white"/>
<path d="M51.0588 48.5738C49.1762 48.5251 47.3927 48.2331 45.7083 47.7949C45.1138 49.5961 44.7671 51.6894 44.668 53.8801H51.0093V48.5738H51.0588Z" fill="white"/>
</g>
<defs>
<clipPath id="clip0">
<rect width="54" height="48" fill="white" transform="translate(25 31)"/>
</clipPath>
</defs>
</svg>
