<svg width="104" height="104" viewBox="0 0 104 104" fill="none" xmlns="http://www.w3.org/2000/svg">
<circle cx="52" cy="52" r="52" fill="#3E3E3E"/>
<path d="M46.538 63.5103C46.538 63.5103 34.7718 67.8287 29.5728 61.9989C23.8266 55.6293 29.4634 46.8845 29.4634 46.8845C29.4634 46.8845 26.3987 42.4042 28.6425 37.2761C30.8863 32.0941 38.7669 31.7162 38.7669 31.7162C38.7669 31.7162 41.8315 20.5964 55.0206 22.1618C68.2096 23.7272 66.6226 33.8214 66.6226 33.8214C66.6226 33.8214 70.946 32.8498 72.6972 35.9806C74.2295 38.7336 73.135 41.3246 73.135 41.3246C73.135 41.3246 83.8067 45.2112 81.7271 54.9276C79.5927 65.1297 64.543 62.8626 64.543 62.8626C64.543 62.8626 61.2047 67.8827 55.2395 67.8827C49.2743 67.8827 46.538 63.5103 46.538 63.5103Z" fill="#0D8118"/>
<path d="M46.9756 62.1607C46.9756 62.1607 35.8114 66.2631 30.8313 60.7032C25.3587 54.6575 30.7766 46.3446 30.7766 46.3446C30.7766 46.3446 27.8214 42.1341 29.9557 37.222C32.09 32.3638 39.5875 31.9859 39.5875 31.9859C39.5875 31.9859 42.4333 21.4059 54.9656 22.9173C67.498 24.4288 65.9656 33.9832 65.9656 33.9832C65.9656 33.9832 70.0701 33.0655 71.7119 36.0344C73.1895 38.6794 72.1497 41.1085 72.1497 41.1085C72.1497 41.1085 82.2741 44.8331 80.3587 54.0097C78.3338 63.6721 64.0502 61.5129 64.0502 61.5129C64.0502 61.5129 60.8761 66.2631 55.2393 66.2631C49.6025 66.2631 46.9756 62.1607 46.9756 62.1607Z" fill="#1E995D"/>
<path d="M76.8572 57.6805C76.8572 57.6805 75.0513 56.0071 72.8075 55.1434C71.5488 54.6576 70.4542 54.3337 69.6881 54.1178C73.6831 50.879 75.9269 47.7482 75.9269 47.7482C75.9269 47.7482 69.5786 53.3621 64.4891 56.1151C62.7925 57.0327 60.7129 57.6805 58.7428 58.2203C58.907 57.4646 59.1806 56.4929 59.3448 55.2514C59.6731 52.9303 59.0164 50.6091 59.0164 50.6091C59.0164 50.6091 58.907 53.8479 58.2503 55.8452C57.9219 56.9248 57.4841 57.8964 57.2105 58.5442C55.5139 58.922 54.0363 59.1379 52.9965 59.2999C52.7776 56.331 52.6134 53.2541 52.5587 50.4472C54.4194 50.0153 58.907 48.8278 61.8622 47.1544C62.4642 47.2084 63.3398 47.3163 64.2702 47.5323C66.0761 47.9101 68.5388 49.2056 68.5388 49.2056C68.5388 49.2056 67.0612 47.7482 65.2005 47.0464C64.4343 46.7765 63.7229 46.5066 63.1756 46.3447C67.2801 43.3218 68.4294 38.3557 68.4294 38.3557C68.4294 38.3557 66.5139 42.2422 62.4095 44.9412C62.3547 44.2935 62.3 43.3758 62.1358 42.2422C61.8075 40.299 60.6582 38.5716 60.6582 38.5716C60.6582 38.5716 61.4244 41.2166 61.4244 43.0519C61.4244 44.0776 61.3149 44.9952 61.2602 45.643C61.096 45.7509 60.8771 45.8589 60.6582 45.9668C57.4294 47.5323 53.8174 48.4499 52.5587 48.7738C52.504 46.9385 52.504 45.2111 52.504 43.7537C52.5587 36.2505 53.5985 28.3154 53.5985 28.3154C53.5985 28.3154 50.698 33.2276 50.0413 43.6457C48.8921 43.4838 46.9219 43.1599 44.9518 42.3502C44.7876 41.7564 44.6234 41.0007 44.5139 40.137C44.2403 38.3557 44.6234 35.6027 44.6234 35.6027C44.6234 35.6027 43.7478 37.438 43.693 39.4353C43.693 40.3529 43.693 41.1626 43.7478 41.7564C43.3647 41.5405 42.9269 41.3246 42.5438 41.0547C39.4244 39.0034 37.3995 35.5487 37.3995 35.5487C37.3995 35.5487 38.3846 39.8671 42.1607 42.5661C42.2702 42.6201 42.3796 42.6741 42.4343 42.782C41.8324 43.0519 41.0662 43.3758 40.1906 43.8616C38.4393 44.8333 37.1806 46.4527 37.1806 46.4527C37.1806 46.4527 39.4244 44.8333 41.1756 44.2395C42.1607 43.9156 43.0363 43.6457 43.693 43.5378C46.3199 45.0492 48.8921 45.589 49.9319 45.8049C49.6582 49.5295 49.6035 54.6576 49.4393 59.4618C48.0712 59.03 45.2254 58.0583 42.4343 56.4389C42.2702 55.7912 41.8871 54.4957 41.7229 53.0922C41.4493 50.987 41.8871 47.8022 41.8871 47.8022C41.8871 47.8022 40.8473 50.0153 40.7926 52.3365C40.7378 53.632 40.7926 54.7116 40.902 55.4673C37.509 52.9842 33.8423 48.234 33.8423 48.234C33.8423 48.234 36.305 52.7683 39.8622 56.0071C39.1508 56.277 38.0015 56.8168 36.6881 57.5185C34.6085 58.6521 33.1309 60.5954 33.1309 60.5954C33.1309 60.5954 35.8125 58.7061 37.8373 58.0044C39.1508 57.5185 40.4095 57.2486 41.0662 57.0867C41.1756 57.1947 41.3398 57.3026 41.4493 57.4106C43.912 59.1919 47.6333 60.5954 49.3299 61.2431C49.2751 62.8086 50.2602 66.6951 46.3199 80.9998H58.3597C54.0911 72.2551 53.4343 66.3712 53.0513 61.3511C54.1458 61.1892 55.7328 60.8653 57.5935 60.3255C57.9219 60.4874 58.305 60.6494 58.6333 60.8653C59.8921 61.567 61.3149 63.3484 61.3149 63.3484C61.3149 63.3484 60.7677 61.5131 59.6184 60.4335C59.3995 60.2175 59.1806 60.0556 59.0164 59.8937C60.8224 59.2999 62.7378 58.5442 64.5985 57.5725C65.912 56.8708 67.1159 56.0611 68.2105 55.2514C68.9219 55.3054 70.2353 55.4673 71.6582 55.7372C73.8473 56.169 76.8572 57.6805 76.8572 57.6805Z" fill="#F1A42A"/>
<path d="M62.4605 34.901C62.4605 36.2505 61.366 37.3301 59.9978 37.3301C58.6297 37.3301 57.5352 36.2505 57.5352 34.901C57.5352 33.5515 58.6297 32.4719 59.9978 32.4719C61.366 32.4719 62.4605 33.5515 62.4605 34.901Z" fill="#F1A42A"/>
<path d="M61.8033 34.901C61.8033 35.8726 60.9825 36.6823 59.9974 36.6823C59.0123 36.6823 58.1914 35.8726 58.1914 34.901C58.1914 33.9293 59.0123 33.1196 59.9974 33.1196C60.9825 33.1196 61.8033 33.9293 61.8033 34.901Z" fill="white"/>
<path d="M60.1618 32.7418C60.1618 32.8498 60.0524 32.9577 59.9429 32.9577C59.8335 32.9577 59.724 32.8498 59.724 32.7418C59.724 32.6338 59.8335 32.5259 59.9429 32.5259C60.1071 32.5799 60.1618 32.6338 60.1618 32.7418ZM58.5748 33.0117C58.4653 33.0657 58.4653 33.1736 58.5201 33.2816C58.5748 33.3896 58.6842 33.3896 58.7937 33.3356C58.9031 33.2816 58.9031 33.1736 58.8484 33.0657C58.7937 32.9577 58.6842 32.9577 58.5748 33.0117ZM57.7539 34.1993C57.6992 34.3072 57.7539 34.4152 57.8633 34.4152C57.9728 34.4692 58.0822 34.4152 58.0822 34.3072C58.0822 34.1993 58.0822 34.0913 57.9728 34.0913C57.8633 34.0373 57.7539 34.0913 57.7539 34.1993ZM57.7539 35.6027C57.8086 35.7107 57.9181 35.7647 57.9728 35.7107C58.0822 35.6567 58.137 35.5488 58.0822 35.4948C58.0275 35.3868 57.9181 35.3328 57.8633 35.3868C57.7539 35.3868 57.6992 35.4948 57.7539 35.6027ZM58.5748 36.7903C58.6842 36.8443 58.7937 36.8443 58.8484 36.7363C58.9031 36.6284 58.9031 36.5204 58.7937 36.4664C58.6842 36.4124 58.5748 36.4124 58.5201 36.5204C58.5201 36.6284 58.5201 36.7363 58.5748 36.7903ZM59.9977 37.2221C60.1071 37.2221 60.2166 37.1142 60.2166 37.0062C60.2166 36.8982 60.1071 36.7903 59.9977 36.7903C59.8882 36.7903 59.7788 36.8982 59.7788 37.0062C59.7788 37.1142 59.8882 37.2221 59.9977 37.2221ZM61.3658 36.7903C61.4753 36.7363 61.4753 36.6284 61.4206 36.5204C61.3658 36.4124 61.2564 36.4124 61.1469 36.4664C61.0375 36.5204 61.0375 36.6284 61.0922 36.7363C61.1469 36.8443 61.3111 36.8443 61.3658 36.7903ZM62.2414 35.6027C62.2962 35.4948 62.2414 35.3868 62.132 35.3868C62.0225 35.3328 61.9131 35.3868 61.9131 35.4948C61.8584 35.6027 61.9131 35.7107 62.0225 35.7107C62.0773 35.7647 62.1867 35.7107 62.2414 35.6027ZM62.2414 34.1993C62.1867 34.0913 62.0773 34.0373 62.0225 34.0913C61.9131 34.1453 61.8584 34.2532 61.9131 34.3072C61.9678 34.3612 62.0773 34.4692 62.132 34.4152C62.2414 34.4152 62.2962 34.3072 62.2414 34.1993ZM61.3658 33.0117C61.2564 32.9577 61.1469 32.9577 61.0922 33.0657C61.0375 33.1736 61.0375 33.2816 61.1469 33.3356C61.2564 33.3896 61.3658 33.3896 61.4206 33.2816C61.4753 33.1736 61.4753 33.0657 61.3658 33.0117Z" fill="#FFC90D"/>
<path d="M60.8196 35.4409C60.8196 35.063 60.4912 34.8471 60.2176 34.7391V33.9834C60.327 33.9834 60.4365 34.0374 60.6007 34.0914L60.7101 34.1453V33.8215H60.6554C60.5459 33.7675 60.4365 33.7135 60.1628 33.7135V33.4436H60.0534V33.7135C59.9987 33.7135 59.9987 33.7135 59.9439 33.7135C59.8892 33.7135 59.8892 33.7135 59.8345 33.7135V33.4436H59.725V33.7135C59.2872 33.7675 59.123 34.0914 59.123 34.3073C59.123 34.6851 59.342 34.8471 59.725 34.955V35.7647C59.5609 35.7108 59.3967 35.6568 59.2872 35.5488L59.123 35.4948V35.9267H59.1778C59.2325 35.9807 59.4514 36.0886 59.725 36.0886V36.3585H59.8345V36.0886H59.8892C59.9439 36.0886 59.9987 36.0886 60.0534 36.0886V36.3585H60.1628V36.0886C60.5459 36.0346 60.8196 35.8187 60.8196 35.4409ZM59.9987 33.9834C60.0534 33.9834 60.1081 33.9834 60.1081 33.9834V34.6851C60.0534 34.6851 59.9987 34.6312 59.9439 34.6312C59.8892 34.6312 59.8892 34.6312 59.8345 34.5772V33.9294C59.8892 33.9834 59.9439 33.9834 59.9987 33.9834ZM59.5609 34.3073C59.5609 34.1993 59.6156 34.0914 59.725 34.0374V34.5772C59.6156 34.5232 59.5609 34.4152 59.5609 34.3073ZM59.9439 35.8187C59.8892 35.8187 59.8892 35.8187 59.9439 35.8187L59.8892 35.063H59.9439C59.9987 35.063 60.0534 35.117 60.1081 35.117V35.8187C60.0534 35.7647 59.9987 35.8187 59.9439 35.8187ZM60.2176 35.7108V35.171C60.3818 35.2789 60.3818 35.3869 60.3818 35.4948C60.4365 35.5488 60.3818 35.6568 60.2176 35.7108Z" fill="#456785"/>
<path d="M69.1949 50.0695C69.1949 51.419 68.1004 52.4986 66.7322 52.4986C65.3641 52.4986 64.2695 51.419 64.2695 50.0695C64.2695 48.72 65.3641 47.6404 66.7322 47.6404C68.1004 47.6404 69.1949 48.72 69.1949 50.0695Z" fill="#F1A42A"/>
<path d="M68.5377 50.0694C68.5377 51.0411 67.7168 51.8508 66.7318 51.8508C65.7467 51.8508 64.9258 51.0411 64.9258 50.0694C64.9258 49.0978 65.7467 48.2881 66.7318 48.2881C67.7168 48.2881 68.5377 49.0978 68.5377 50.0694Z" fill="white"/>
<path d="M66.951 47.9642C66.951 48.0722 66.8415 48.1801 66.732 48.1801C66.6226 48.1801 66.5131 48.0722 66.5131 47.9642C66.5131 47.8562 66.6226 47.7483 66.732 47.7483C66.8415 47.7483 66.951 47.8562 66.951 47.9642ZM65.3639 48.1801C65.2544 48.2341 65.2544 48.3421 65.3092 48.45C65.3639 48.558 65.4733 48.558 65.5828 48.504C65.6922 48.45 65.6922 48.3421 65.6375 48.2341C65.5828 48.1801 65.4186 48.1261 65.3639 48.1801ZM64.4883 49.3677C64.4335 49.4756 64.4883 49.5836 64.5977 49.5836C64.7072 49.6376 64.8166 49.5836 64.8166 49.4756C64.8166 49.3677 64.8166 49.2597 64.7072 49.2597C64.6524 49.2057 64.543 49.2597 64.4883 49.3677ZM64.4883 50.8251C64.543 50.9331 64.6524 50.9871 64.7072 50.9331C64.8166 50.8791 64.8714 50.7712 64.8166 50.7172C64.7619 50.6092 64.6524 50.5552 64.5977 50.6092C64.4883 50.6092 64.4335 50.7172 64.4883 50.8251ZM65.3639 51.9587C65.4733 52.0127 65.5828 52.0127 65.6375 51.9047C65.6922 51.7968 65.6922 51.6888 65.5828 51.6348C65.4733 51.5809 65.3639 51.5809 65.3092 51.6888C65.2544 51.7968 65.2544 51.9047 65.3639 51.9587ZM66.732 52.4445C66.8415 52.4445 66.951 52.3366 66.951 52.2286C66.951 52.1207 66.8415 52.0127 66.732 52.0127C66.6226 52.0127 66.5131 52.1207 66.5131 52.2286C66.5679 52.3366 66.6226 52.4445 66.732 52.4445ZM68.1549 51.9587C68.2644 51.9047 68.2644 51.7968 68.2097 51.6888C68.1549 51.5809 68.0455 51.5809 67.936 51.6348C67.8266 51.6888 67.8266 51.7968 67.8813 51.9047C67.936 52.0127 68.0455 52.0667 68.1549 51.9587ZM68.9758 50.8251C69.0306 50.7172 68.9758 50.6092 68.8664 50.6092C68.7569 50.5552 68.6475 50.6092 68.6475 50.7172C68.5927 50.8251 68.6475 50.9331 68.7569 50.9331C68.8664 50.9871 68.9758 50.9331 68.9758 50.8251ZM68.9758 49.3677C68.9211 49.2597 68.8117 49.2057 68.7569 49.2597C68.6475 49.3137 68.5927 49.4217 68.6475 49.4756C68.7022 49.5836 68.8117 49.6376 68.8664 49.5836C68.9758 49.5836 69.0306 49.4756 68.9758 49.3677ZM68.1549 48.1801C68.0455 48.1261 67.936 48.1261 67.8813 48.2341C67.8266 48.3421 67.8266 48.45 67.936 48.504C68.0455 48.558 68.1549 48.558 68.2097 48.45C68.2097 48.396 68.2097 48.2881 68.1549 48.1801Z" fill="#FFC90D"/>
<path d="M67.6086 50.6633C67.6086 50.2854 67.2803 50.0695 67.0066 49.9616V49.2058C67.1161 49.2058 67.2255 49.2598 67.3897 49.3138L67.4992 49.3678V48.9899H67.4444C67.335 48.9359 67.2255 48.882 66.9519 48.882V48.6121H66.8425V48.882C66.7877 48.882 66.7877 48.882 66.733 48.882C66.6783 48.882 66.6783 48.882 66.6236 48.882V48.6121H66.5141V48.882C66.0763 48.9359 65.9121 49.2598 65.9121 49.4757C65.9121 49.8536 66.131 50.0155 66.5141 50.1235V50.9332C66.3499 50.8792 66.1857 50.8252 66.0763 50.7173L65.9121 50.6093V51.0412H65.9668C66.0216 51.0951 66.2405 51.2031 66.5141 51.2031V51.473H66.6236V51.2031H66.6783C66.733 51.2031 66.7877 51.2031 66.8425 51.2031V51.473H66.9519V51.2031C67.335 51.2031 67.6086 51.0412 67.6086 50.6633ZM66.733 49.2058C66.7877 49.2058 66.8425 49.2058 66.8425 49.2058V49.9076C66.7877 49.9076 66.733 49.8536 66.6783 49.8536C66.6236 49.8536 66.6236 49.8536 66.5688 49.7996V49.1519C66.6783 49.2058 66.6783 49.2058 66.733 49.2058ZM66.2952 49.5297C66.2952 49.4218 66.3499 49.3138 66.4594 49.2598V49.7996C66.3499 49.6917 66.2952 49.6377 66.2952 49.5297ZM66.6783 50.9872C66.6783 50.9872 66.6236 50.9872 66.6783 50.9872L66.6236 50.2315H66.6783C66.733 50.2315 66.7877 50.2854 66.8425 50.2854V50.9872C66.7877 50.9872 66.733 50.9872 66.6783 50.9872ZM67.0066 50.9332V50.3934C67.1708 50.5014 67.1708 50.6093 67.1708 50.7173C67.1708 50.7713 67.1161 50.8252 67.0066 50.9332Z" fill="#456785"/>
<path d="M78.8785 56.9248C78.8785 58.2743 77.784 59.3539 76.4158 59.3539C75.0477 59.3539 73.9531 58.2743 73.9531 56.9248C73.9531 55.5753 75.0477 54.4957 76.4158 54.4957C77.784 54.4418 78.8785 55.5753 78.8785 56.9248Z" fill="#F1A42A"/>
<path d="M78.2213 56.9249C78.2213 57.8965 77.4004 58.7062 76.4153 58.7062C75.4303 58.7062 74.6094 57.8965 74.6094 56.9249C74.6094 55.9533 75.4303 55.1436 76.4153 55.1436C77.4004 55.1436 78.2213 55.9533 78.2213 56.9249Z" fill="white"/>
<path d="M76.5798 54.7657C76.5798 54.8737 76.4704 54.9816 76.3609 54.9816C76.2515 54.9816 76.142 54.8737 76.142 54.7657C76.142 54.6578 76.2515 54.5498 76.3609 54.5498C76.5251 54.5498 76.5798 54.6578 76.5798 54.7657ZM74.9928 55.0356C74.8833 55.0896 74.8833 55.1976 74.938 55.3055C74.9928 55.4135 75.1022 55.4135 75.2117 55.3595C75.3211 55.3055 75.3211 55.1976 75.2664 55.0896C75.2117 54.9816 75.1022 54.9816 74.9928 55.0356ZM74.1719 56.1692C74.1171 56.2772 74.1719 56.3851 74.2813 56.3851C74.3908 56.4391 74.5002 56.3851 74.5002 56.2772C74.5549 56.1692 74.5002 56.0612 74.3908 56.0612C74.2813 56.0073 74.1719 56.0612 74.1719 56.1692ZM74.1719 57.6267C74.2266 57.7346 74.336 57.7886 74.3908 57.7346C74.5002 57.6806 74.5549 57.5727 74.5002 57.5187C74.4455 57.4107 74.336 57.3568 74.2813 57.4107C74.1719 57.4107 74.1171 57.5187 74.1719 57.6267ZM74.9928 58.8142C75.1022 58.8682 75.2117 58.8682 75.2664 58.7602C75.3211 58.6523 75.3211 58.5443 75.2117 58.4903C75.1022 58.4364 74.9928 58.4364 74.938 58.5443C74.8833 58.5983 74.938 58.7602 74.9928 58.8142ZM76.4156 59.2461C76.5251 59.2461 76.6345 59.1381 76.6345 59.0301C76.6345 58.9222 76.5251 58.8142 76.4156 58.8142C76.3062 58.8142 76.1967 58.9222 76.1967 59.0301C76.1967 59.1381 76.3062 59.2461 76.4156 59.2461ZM77.7838 58.8142C77.8933 58.7602 77.8933 58.6523 77.8385 58.5443C77.7838 58.4364 77.6743 58.4364 77.5649 58.4903C77.4554 58.5443 77.4554 58.6523 77.5102 58.7602C77.5649 58.8142 77.7291 58.8682 77.7838 58.8142ZM78.6594 57.6267C78.7141 57.5187 78.6594 57.4107 78.55 57.4107C78.4405 57.3568 78.3311 57.4107 78.3311 57.5187C78.2763 57.6267 78.3311 57.7346 78.4405 57.7346C78.4952 57.7886 78.6047 57.7346 78.6594 57.6267ZM78.6594 56.1692C78.6047 56.0612 78.4952 56.0073 78.4405 56.0612C78.3311 56.1152 78.2763 56.2232 78.3311 56.2772C78.3858 56.3851 78.4952 56.4391 78.55 56.3851C78.6047 56.3851 78.6594 56.2772 78.6594 56.1692ZM77.7838 55.0356C77.6743 54.9816 77.5649 54.9816 77.5102 55.0896C77.4554 55.1976 77.4554 55.3055 77.5649 55.3595C77.6743 55.4135 77.7838 55.4135 77.8385 55.3055C77.8933 55.1976 77.8933 55.0896 77.7838 55.0356Z" fill="#FFC90D"/>
<path d="M77.2375 57.4646C77.2375 57.0867 76.9092 56.8708 76.6355 56.7628V56.0071C76.745 56.0071 76.8545 56.0611 77.0186 56.1151L77.1281 56.169V55.7912H77.0734C76.9639 55.7372 76.8545 55.6832 76.5808 55.6832V55.4133H76.4714V55.6832C76.4166 55.6832 76.4166 55.6832 76.3619 55.6832C76.3072 55.6832 76.3072 55.6832 76.2525 55.6832V55.4133H76.143V55.6832C75.7052 55.7372 75.541 56.0611 75.541 56.277C75.541 56.6549 75.7599 56.8168 76.143 56.9248V57.7345C75.9788 57.6805 75.8146 57.6265 75.7052 57.5185L75.541 57.4106V57.8424H75.5957C75.6505 57.8964 75.8694 58.0044 76.143 58.0044V58.2743H76.2525V58.0044H76.3072C76.3619 58.0044 76.4166 58.0044 76.4714 58.0044V58.2743H76.5808V58.0044C76.9639 58.0044 77.2375 57.8424 77.2375 57.4646ZM76.4166 56.0071C76.4714 56.0071 76.5261 56.0071 76.5261 56.0071V56.7088C76.4714 56.7088 76.4166 56.6549 76.3619 56.6549C76.3072 56.6549 76.3072 56.6549 76.2525 56.6009V56.0071C76.3072 56.0071 76.3619 56.0071 76.4166 56.0071ZM75.9788 56.331C75.9788 56.223 76.0336 56.1151 76.143 56.0611V56.6009C76.0336 56.5469 75.9788 56.4389 75.9788 56.331ZM76.3619 57.7884C76.3072 57.7884 76.3072 57.7884 76.3619 57.7884L76.3072 57.0327H76.3619C76.4166 57.0327 76.4714 57.0867 76.5261 57.0867V57.7884C76.4714 57.7884 76.4166 57.7884 76.3619 57.7884ZM76.6355 57.7345V57.1947C76.7997 57.3026 76.7997 57.4106 76.7997 57.5185C76.8545 57.5725 76.745 57.6805 76.6355 57.7345Z" fill="#456785"/>
<path d="M59.1228 53.9556C60.4829 53.9556 61.5855 52.8681 61.5855 51.5265C61.5855 50.185 60.4829 49.0974 59.1228 49.0974C57.7627 49.0974 56.6602 50.185 56.6602 51.5265C56.6602 52.8681 57.7627 53.9556 59.1228 53.9556Z" fill="#F1A42A"/>
<path d="M60.9283 51.5265C60.9283 52.4981 60.1075 53.3078 59.1224 53.3078C58.1373 53.3078 57.3164 52.4981 57.3164 51.5265C57.3164 50.5548 58.1373 49.7451 59.1224 49.7451C60.1622 49.7451 60.9283 50.5548 60.9283 51.5265Z" fill="white"/>
<path d="M59.3416 49.3673C59.3416 49.4752 59.2321 49.5832 59.1227 49.5832C59.0132 49.5832 58.9038 49.4752 58.9038 49.3673C58.9038 49.2593 59.0132 49.1514 59.1227 49.1514C59.2321 49.2053 59.3416 49.3133 59.3416 49.3673ZM57.7545 49.6372C57.6451 49.6912 57.6451 49.7991 57.6998 49.9071C57.7545 50.015 57.864 50.015 57.9734 49.9611C58.0829 49.9071 58.0829 49.7991 58.0281 49.6912C57.9734 49.5832 57.864 49.5832 57.7545 49.6372ZM56.8789 50.8247C56.8242 50.9327 56.8789 51.0407 56.9883 51.0407C57.0978 51.0946 57.2073 51.0407 57.2073 50.9327C57.262 50.8247 57.2073 50.7168 57.0978 50.7168C57.0431 50.6628 56.9336 50.7168 56.8789 50.8247ZM56.8789 52.2282C56.9336 52.3362 57.0431 52.3902 57.0978 52.3362C57.2073 52.2822 57.262 52.1742 57.2073 52.1203C57.1525 52.0663 57.0431 51.9583 56.9883 52.0123C56.9336 52.0663 56.8789 52.1742 56.8789 52.2282ZM57.7545 53.4158C57.864 53.4698 57.9734 53.4698 58.0281 53.3618C58.0829 53.2538 58.0829 53.1459 57.9734 53.0919C57.864 53.0379 57.7545 53.0379 57.6998 53.1459C57.6451 53.2538 57.6451 53.3618 57.7545 53.4158ZM59.1227 53.8476C59.2321 53.8476 59.3416 53.7397 59.3416 53.6317C59.3416 53.5237 59.2321 53.4158 59.1227 53.4158C59.0132 53.4158 58.9038 53.5237 58.9038 53.6317C58.9585 53.7936 59.0132 53.8476 59.1227 53.8476ZM60.5456 53.4158C60.655 53.3618 60.655 53.2538 60.6003 53.1459C60.5456 53.0379 60.4361 53.0379 60.3267 53.0919C60.2172 53.1459 60.2172 53.2538 60.2719 53.3618C60.3267 53.4698 60.4361 53.4698 60.5456 53.4158ZM61.3665 52.2282C61.4212 52.1203 61.3665 52.0123 61.257 52.0123C61.1475 51.9583 61.0381 52.0123 61.0381 52.1203C60.9834 52.2282 61.0381 52.3362 61.1475 52.3362C61.257 52.3902 61.3665 52.3362 61.3665 52.2282ZM61.3665 50.8247C61.3117 50.7168 61.2023 50.6628 61.1475 50.7168C61.0381 50.7708 60.9834 50.8787 61.0381 50.9327C61.0928 51.0407 61.2023 51.0946 61.257 51.0407C61.3665 51.0407 61.4212 50.9327 61.3665 50.8247ZM60.5456 49.6372C60.4361 49.5832 60.3267 49.5832 60.2719 49.6912C60.2172 49.7991 60.2172 49.9071 60.3267 49.9611C60.4361 50.015 60.5456 50.015 60.6003 49.9071C60.655 49.8531 60.6003 49.6912 60.5456 49.6372Z" fill="#FFC90D"/>
<path d="M59.9992 52.0663C59.9992 51.6885 59.6709 51.4726 59.3972 51.3646V50.6089C59.5067 50.6089 59.6161 50.6629 59.7803 50.7169L59.8898 50.7708V50.393H59.835C59.7256 50.339 59.6161 50.285 59.3425 50.285V50.0691H59.2878V50.339C59.233 50.339 59.233 50.339 59.1783 50.339C59.1236 50.339 59.1236 50.339 59.0689 50.339V50.0691H58.9594V50.339C58.5216 50.393 58.3574 50.7168 58.3574 50.9328C58.3574 51.3106 58.5763 51.4726 58.9594 51.5805V52.3902C58.7952 52.3362 58.6311 52.2823 58.5216 52.1743L58.3574 52.0663V52.4982H58.4121C58.4669 52.5522 58.6858 52.6601 58.9594 52.6601V52.93H59.0689V52.7681H59.1236C59.1783 52.7681 59.233 52.7681 59.2878 52.7681V53.038H59.3972V52.7681C59.7256 52.6601 59.9992 52.4442 59.9992 52.0663ZM59.1236 50.6089C59.1783 50.6089 59.233 50.6089 59.233 50.6089V51.3106C59.1783 51.3106 59.1236 51.2566 59.0689 51.2566C59.0141 51.2566 59.0141 51.2566 58.9594 51.2027V50.6089C59.0689 50.6089 59.1236 50.6089 59.1236 50.6089ZM58.7405 50.9328C58.7405 50.8248 58.7952 50.7168 58.9047 50.6629V51.2027C58.7952 51.1487 58.7405 51.0947 58.7405 50.9328ZM59.0689 52.4442L59.0141 51.6885H59.0689C59.1236 51.6885 59.1783 51.7425 59.233 51.7425V52.4442C59.233 52.4442 59.1236 52.4442 59.0689 52.4442ZM59.3972 52.3362V51.7964C59.5614 51.9044 59.5614 52.0124 59.5614 52.1203C59.5614 52.1743 59.5067 52.2823 59.3972 52.3362Z" fill="#456785"/>
<path d="M44.0758 48.1801C44.0758 49.5296 42.9812 50.6092 41.6131 50.6092C40.2449 50.6092 39.1504 49.5296 39.1504 48.1801C39.1504 46.8306 40.2449 45.751 41.6131 45.751C42.9812 45.751 44.0758 46.8306 44.0758 48.1801Z" fill="#F1A42A"/>
<path d="M43.3639 48.18C43.3639 49.1517 42.543 49.9614 41.5579 49.9614C40.5728 49.9614 39.752 49.1517 39.752 48.18C39.752 47.2084 40.5728 46.3987 41.5579 46.3987C42.5977 46.3987 43.3639 47.2084 43.3639 48.18Z" fill="white"/>
<path d="M41.7771 46.0209C41.7771 46.1288 41.6677 46.2368 41.5582 46.2368C41.4488 46.2368 41.3393 46.1288 41.3393 46.0209C41.3393 45.9129 41.4488 45.8049 41.5582 45.8049C41.7224 45.8589 41.7771 45.9129 41.7771 46.0209ZM40.1901 46.2908C40.0806 46.3447 40.0806 46.4527 40.1353 46.5607C40.1901 46.6686 40.2995 46.6686 40.409 46.6146C40.5184 46.5606 40.5184 46.4527 40.4637 46.3447C40.409 46.2368 40.2995 46.2368 40.1901 46.2908ZM39.3144 47.4783C39.2597 47.5863 39.3144 47.6942 39.4239 47.6942C39.5333 47.7482 39.6428 47.6942 39.6428 47.5863C39.6975 47.4783 39.6428 47.3703 39.5333 47.3703C39.4786 47.3164 39.3692 47.3703 39.3144 47.4783ZM39.3144 48.8818C39.3692 48.9897 39.4786 49.0437 39.5333 48.9897C39.6428 48.9358 39.6975 48.8278 39.6428 48.7738C39.5881 48.7198 39.4786 48.6119 39.4239 48.6659C39.3692 48.6659 39.3144 48.7738 39.3144 48.8818ZM40.1901 50.0693C40.2995 50.1233 40.409 50.1233 40.4637 50.0154C40.5184 49.9074 40.5184 49.7994 40.409 49.7455C40.2995 49.6915 40.1901 49.6915 40.1353 49.7994C40.0806 49.9074 40.1353 50.0154 40.1901 50.0693ZM41.6129 50.5012C41.7224 50.5012 41.8318 50.3932 41.8318 50.2853C41.8318 50.1773 41.7224 50.0693 41.6129 50.0693C41.5035 50.0693 41.394 50.1773 41.394 50.2853C41.394 50.4472 41.5035 50.5012 41.6129 50.5012ZM42.9811 50.0693C43.0906 50.0154 43.0906 49.9074 43.0358 49.7994C42.9811 49.6915 42.8716 49.6915 42.7622 49.7455C42.6527 49.7994 42.6527 49.9074 42.7075 50.0154C42.7622 50.1233 42.8717 50.1233 42.9811 50.0693ZM43.8567 48.8818C43.9114 48.7738 43.8567 48.6659 43.7473 48.6659C43.6378 48.6119 43.5284 48.6659 43.5284 48.7738C43.4736 48.8818 43.5284 48.9897 43.6378 48.9897C43.6925 49.0437 43.802 48.9897 43.8567 48.8818ZM43.8567 47.4783C43.802 47.3703 43.6925 47.3164 43.6378 47.3703C43.5284 47.4243 43.4736 47.5323 43.5284 47.5863C43.5831 47.6942 43.6925 47.7482 43.7473 47.6942C43.802 47.6402 43.8567 47.5323 43.8567 47.4783ZM42.9811 46.2908C42.8717 46.2368 42.7622 46.2368 42.7075 46.3447C42.6527 46.4527 42.6527 46.5606 42.7622 46.6146C42.8716 46.6686 42.9811 46.6686 43.0358 46.5607C43.0906 46.4527 43.0906 46.3447 42.9811 46.2908Z" fill="#FFC90D"/>
<path d="M42.4348 48.7199C42.4348 48.3421 42.1064 48.1262 41.8328 48.0182V47.2625C41.9423 47.2625 42.0517 47.3165 42.2159 47.3704L42.3253 47.4244V47.0466H42.2706C42.1612 46.9926 42.0517 46.9386 41.7781 46.9386V46.6687H41.6686V46.9386C41.6139 46.9386 41.6139 46.9386 41.5592 46.9386C41.5045 46.9386 41.5044 46.9386 41.4497 46.9386V46.6687H41.3403V46.9386C40.9025 46.9926 40.7383 47.3165 40.7383 47.5324C40.7383 47.9102 40.9572 48.0722 41.3403 48.1801V48.9898C41.1761 48.9359 41.0119 48.8819 40.9025 48.7739L40.7383 48.666V49.0978H40.793C40.8477 49.1518 41.0666 49.2597 41.3403 49.2597V49.5296H41.4497V49.2597H41.5044C41.5592 49.2597 41.6139 49.2597 41.6686 49.2597V49.5296H41.7781V49.2597C42.1612 49.3137 42.4348 49.0978 42.4348 48.7199ZM41.6139 47.2625C41.6686 47.2625 41.7234 47.2625 41.7234 47.2625V47.9642C41.6686 47.9642 41.6139 47.9102 41.5592 47.9102C41.5045 47.9102 41.5044 47.9102 41.4497 47.8563V47.2085C41.5044 47.2625 41.5592 47.2625 41.6139 47.2625ZM41.1761 47.5864C41.1761 47.4784 41.2308 47.3704 41.3403 47.3165V47.8563C41.2308 47.8023 41.1761 47.6943 41.1761 47.5864ZM41.5044 49.0978C41.5044 49.0978 41.5044 49.0438 41.5044 49.0978L41.4497 48.3421H41.5044C41.5592 48.3421 41.6139 48.3961 41.6686 48.3961V49.0978C41.6686 49.0438 41.6139 49.0978 41.5044 49.0978ZM41.8328 48.9898V48.45C41.997 48.558 41.997 48.666 41.997 48.7739C42.0517 48.8279 41.9423 48.9359 41.8328 48.9898Z" fill="#456785"/>
<path d="M37.7828 44.4015C37.7828 45.751 36.6883 46.8306 35.3201 46.8306C33.9519 46.8306 32.8574 45.751 32.8574 44.4015C32.8574 43.052 33.9519 41.9724 35.3201 41.9724C36.6883 41.9724 37.7828 43.052 37.7828 44.4015Z" fill="#F1A42A"/>
<path d="M37.1256 44.4015C37.1256 45.3731 36.3047 46.1828 35.3196 46.1828C34.3346 46.1828 33.5137 45.3731 33.5137 44.4015C33.5137 43.4298 34.3346 42.6201 35.3196 42.6201C36.3047 42.6201 37.1256 43.4298 37.1256 44.4015Z" fill="white"/>
<path d="M35.4841 42.2962C35.4841 42.4042 35.3747 42.5122 35.2652 42.5122C35.1558 42.5122 35.0463 42.4042 35.0463 42.2962C35.0463 42.1883 35.1558 42.0803 35.2652 42.0803C35.3747 42.0803 35.4841 42.1883 35.4841 42.2962ZM33.8971 42.5122C33.7876 42.5661 33.7876 42.6741 33.8423 42.7821C33.8971 42.89 34.0065 42.89 34.116 42.836C34.2254 42.7821 34.2254 42.6741 34.1707 42.5661C34.116 42.4582 34.0065 42.4582 33.8971 42.5122ZM33.0762 43.6997C33.0214 43.8077 33.0762 43.9156 33.1856 43.9156C33.2951 43.9696 33.4045 43.9156 33.4045 43.8077C33.4592 43.6997 33.4045 43.5918 33.2951 43.5918C33.1856 43.5378 33.0762 43.5918 33.0762 43.6997ZM33.0762 45.1572C33.1309 45.2651 33.2403 45.3191 33.2951 45.2651C33.4045 45.2112 33.4592 45.1032 33.4045 45.0492C33.3498 44.9413 33.2403 44.8873 33.1856 44.9413C33.0762 44.9413 33.0214 45.0492 33.0762 45.1572ZM33.8971 46.2908C34.0065 46.3447 34.116 46.3447 34.1707 46.2368C34.2254 46.1288 34.2254 46.0209 34.116 45.9669C34.0065 45.9129 33.8971 45.9129 33.8423 46.0209C33.7876 46.1288 33.8423 46.2368 33.8971 46.2908ZM35.3199 46.7226C35.4294 46.7226 35.5388 46.6146 35.5388 46.5067C35.5388 46.3987 35.4294 46.2908 35.3199 46.2908C35.2105 46.2908 35.101 46.3987 35.101 46.5067C35.101 46.6686 35.2105 46.7226 35.3199 46.7226ZM36.6881 46.2908C36.7975 46.2368 36.7975 46.1288 36.7428 46.0209C36.6881 45.9129 36.5786 45.9129 36.4692 45.9669C36.3597 46.0209 36.3597 46.1288 36.4145 46.2368C36.4692 46.3447 36.6334 46.3447 36.6881 46.2908ZM37.5637 45.1572C37.6184 45.0492 37.5637 44.9413 37.4543 44.9413C37.3448 44.8873 37.2354 44.9413 37.2354 45.0492C37.2354 45.1572 37.2354 45.2651 37.3448 45.2651C37.4543 45.2651 37.509 45.2112 37.5637 45.1572ZM37.5637 43.6997C37.509 43.5918 37.3995 43.5378 37.2901 43.5918C37.1806 43.6457 37.1259 43.7537 37.1806 43.8077C37.2354 43.9156 37.3448 43.9696 37.3995 43.9156C37.509 43.9156 37.5637 43.8077 37.5637 43.6997ZM36.6881 42.5122C36.5786 42.4582 36.4692 42.4582 36.4145 42.5661C36.3597 42.6741 36.3597 42.7821 36.4692 42.836C36.5786 42.89 36.6881 42.89 36.7428 42.7821C36.7975 42.7281 36.7975 42.5661 36.6881 42.5122Z" fill="#FFC90D"/>
<path d="M36.1418 44.9953C36.1418 44.6175 35.8135 44.4015 35.5398 44.2936V43.5379C35.6493 43.5379 35.7587 43.5919 35.9229 43.6458L36.0324 43.6998V43.322H35.9777C35.8682 43.268 35.7587 43.214 35.4851 43.214V42.9441H35.3757V43.214C35.3209 43.214 35.3209 43.214 35.2662 43.214C35.2115 43.214 35.2115 43.214 35.1568 43.214V42.9441H35.0473V43.214C34.6095 43.268 34.4453 43.5919 34.4453 43.8078C34.4453 44.1856 34.6642 44.3476 35.0473 44.4555V45.2652C34.8831 45.2112 34.7189 45.1573 34.6095 45.0493L34.4453 44.9413V45.3732H34.5C34.5548 45.4272 34.7737 45.5351 35.0473 45.5351V45.805H35.2115V45.5351H35.2662C35.3209 45.5351 35.3757 45.5351 35.4304 45.5351V45.805H35.5398V45.5351C35.8682 45.5351 36.1418 45.3192 36.1418 44.9953ZM35.3209 43.4839C35.3757 43.4839 35.4304 43.4839 35.4304 43.4839V44.1856C35.3757 44.1856 35.3209 44.1317 35.2662 44.1317C35.2115 44.1317 35.2115 44.1317 35.1568 44.0777V43.4299C35.2115 43.4839 35.2662 43.4839 35.3209 43.4839ZM34.8831 43.8078C34.8831 43.6998 34.9378 43.5919 35.0473 43.5379V44.0777C34.9378 44.0237 34.8831 43.9697 34.8831 43.8078ZM35.2662 45.3192C35.2115 45.3192 35.2115 45.3192 35.2662 45.3192L35.2115 44.5095H35.2662C35.3209 44.5095 35.3757 44.5635 35.4304 44.5635V45.2652C35.3757 45.3192 35.3209 45.3192 35.2662 45.3192ZM35.5398 45.2112V44.6714C35.704 44.7794 35.704 44.8874 35.704 44.9953C35.7587 45.0493 35.6493 45.1573 35.5398 45.2112Z" fill="#456785"/>
<path d="M40.6812 36.6825C40.6812 38.032 39.5867 39.1116 38.2185 39.1116C36.8504 39.1116 35.7559 38.032 35.7559 36.6825C35.7559 35.333 36.8504 34.2534 38.2185 34.2534C39.532 34.2534 40.6812 35.333 40.6812 36.6825Z" fill="#F1A42A"/>
<path d="M39.9694 36.6825C39.9694 37.6541 39.1485 38.4638 38.1634 38.4638C37.1783 38.4638 36.3574 37.6541 36.3574 36.6825C36.3574 35.7108 37.1783 34.9011 38.1634 34.9011C39.1485 34.9011 39.9694 35.7108 39.9694 36.6825Z" fill="white"/>
<path d="M38.3826 34.5233C38.3826 34.6313 38.2731 34.7392 38.1637 34.7392C38.0542 34.7392 37.9448 34.6313 37.9448 34.5233C37.9448 34.4153 38.0542 34.3074 38.1637 34.3074C38.2731 34.3614 38.3826 34.4153 38.3826 34.5233ZM36.7955 34.7932C36.6861 34.8472 36.6861 34.9551 36.7408 35.0631C36.7955 35.1711 36.905 35.1711 37.0144 35.1171C37.1239 35.0631 37.1239 34.9551 37.0692 34.8472C37.0144 34.7392 36.8503 34.7392 36.7955 34.7932ZM35.9199 35.9807C35.8652 36.0887 35.9199 36.1967 36.0294 36.1967C36.1388 36.2506 36.2483 36.1967 36.2483 36.0887C36.303 35.9807 36.2483 35.8728 36.1388 35.8728C36.0841 35.8188 35.9746 35.8728 35.9199 35.9807ZM35.9199 37.3842C35.9746 37.4922 36.0841 37.5462 36.1388 37.4922C36.2483 37.4382 36.303 37.3302 36.2483 37.2763C36.1935 37.1683 36.0841 37.1143 36.0294 37.1683C35.9746 37.1683 35.9199 37.2763 35.9199 37.3842ZM36.7955 38.5718C36.905 38.6258 37.0144 38.6258 37.0692 38.5178C37.1239 38.4098 37.1239 38.3019 37.0144 38.2479C36.905 38.1939 36.7955 38.1939 36.7408 38.3019C36.6861 38.3559 36.6861 38.5178 36.7955 38.5718ZM38.1637 39.0036C38.2731 39.0036 38.3826 38.8957 38.3826 38.7877C38.3826 38.6797 38.2731 38.5718 38.1637 38.5718C38.0542 38.5718 37.9448 38.6797 37.9448 38.7877C37.9995 38.8957 38.0542 39.0036 38.1637 39.0036ZM39.5866 38.5718C39.696 38.5178 39.696 38.4098 39.6413 38.3019C39.5866 38.1939 39.4771 38.1939 39.3677 38.2479C39.2582 38.3019 39.2582 38.4098 39.3129 38.5178C39.3677 38.6258 39.4771 38.6258 39.5866 38.5718ZM40.4075 37.3842C40.4622 37.2763 40.4075 37.1683 40.298 37.1683C40.1886 37.1143 40.0791 37.1683 40.0791 37.2763C40.0244 37.3842 40.0791 37.4922 40.1886 37.4922C40.298 37.5462 40.4075 37.4922 40.4075 37.3842ZM40.4075 35.9807C40.3527 35.8728 40.2433 35.8188 40.1886 35.8728C40.0791 35.9268 40.0244 36.0347 40.0791 36.0887C40.1338 36.1967 40.2433 36.2506 40.298 36.1967C40.4075 36.1427 40.4622 36.0347 40.4075 35.9807ZM39.5866 34.7932C39.4771 34.7392 39.3677 34.7392 39.3129 34.8472C39.2582 34.9551 39.2582 35.0631 39.3677 35.1171C39.4771 35.1711 39.5866 35.1711 39.6413 35.0631C39.696 34.9551 39.6413 34.8472 39.5866 34.7932Z" fill="#FFC90D"/>
<path d="M39.0403 37.2224C39.0403 36.8445 38.7119 36.6286 38.4383 36.5206V35.7649C38.5477 35.7649 38.6572 35.8189 38.8214 35.8729L38.9308 35.9269V35.549H38.8761C38.7666 35.495 38.6572 35.441 38.3836 35.441V35.1711H38.2741V35.441C38.2194 35.441 38.2194 35.441 38.1646 35.441C38.1099 35.441 38.1099 35.441 38.0552 35.441V35.1711H37.9457V35.495C37.5079 35.549 37.3438 35.8729 37.3438 36.0888C37.3438 36.4667 37.5627 36.6286 37.9457 36.7366V37.5463C37.7816 37.4923 37.6174 37.4383 37.5079 37.3303L37.3438 37.2224V37.6542H37.3985C37.4532 37.7082 37.6721 37.8162 37.9457 37.8162V38.0861H38.0552V37.8162H38.1099C38.1646 37.8162 38.2194 37.8162 38.2741 37.8162V38.0861H38.3836V37.8162C38.7666 37.8162 39.0403 37.6002 39.0403 37.2224ZM38.1646 35.7649C38.2194 35.7649 38.2741 35.7649 38.2741 35.7649V36.4667C38.2194 36.4667 38.1646 36.4127 38.1099 36.4127C38.0552 36.4127 38.0552 36.4127 38.0005 36.3587V35.7109C38.1099 35.7649 38.1646 35.7649 38.1646 35.7649ZM37.7268 36.0888C37.7268 35.9808 37.7816 35.8729 37.891 35.8189V36.3587C37.7816 36.3047 37.7268 36.1968 37.7268 36.0888ZM38.1099 37.5463C38.1099 37.5463 38.0552 37.5463 38.1099 37.5463L38.0552 36.7905H38.1099C38.1646 36.7905 38.2194 36.8445 38.2741 36.8445V37.5463C38.2194 37.5463 38.1646 37.5463 38.1099 37.5463ZM38.4383 37.4923V36.9525C38.6025 37.0604 38.6025 37.1684 38.6025 37.2764C38.6025 37.3303 38.5477 37.4383 38.4383 37.4923Z" fill="#456785"/>
<path d="M35.2633 49.6373C35.2633 50.9868 34.1687 52.0664 32.8006 52.0664C31.4324 52.0664 30.3379 50.9868 30.3379 49.6373C30.3379 48.2878 31.4324 47.2083 32.8006 47.2083C34.1687 47.2083 35.2633 48.2878 35.2633 49.6373Z" fill="#F1A42A"/>
<path d="M34.6061 49.6373C34.6061 50.6089 33.7852 51.4186 32.8001 51.4186C31.815 51.4186 30.9941 50.6089 30.9941 49.6373C30.9941 48.6657 31.815 47.856 32.8001 47.856C33.7852 47.856 34.6061 48.6657 34.6061 49.6373Z" fill="white"/>
<path d="M33.0193 47.5321C33.0193 47.64 32.9099 47.748 32.8004 47.748C32.691 47.748 32.5815 47.64 32.5815 47.5321C32.5815 47.4241 32.691 47.3162 32.8004 47.3162C32.9099 47.3162 33.0193 47.4241 33.0193 47.5321ZM31.4322 47.748C31.3228 47.802 31.3228 47.9099 31.3775 48.0179C31.4322 48.1259 31.5417 48.1259 31.6512 48.0719C31.7606 48.0179 31.7606 47.9099 31.7059 47.802C31.5964 47.748 31.487 47.694 31.4322 47.748ZM30.5566 48.9356C30.5019 49.0435 30.5566 49.1515 30.6661 49.1515C30.7755 49.2055 30.885 49.1515 30.885 49.0435C30.9397 48.9356 30.885 48.8276 30.7755 48.8276C30.7208 48.7736 30.6114 48.8276 30.5566 48.9356ZM30.5566 50.393C30.6114 50.501 30.7208 50.555 30.7755 50.501C30.885 50.447 30.9397 50.339 30.885 50.2851C30.8303 50.1771 30.7208 50.1231 30.6661 50.1771C30.5566 50.1771 30.5019 50.2851 30.5566 50.393ZM31.4322 51.5266C31.5417 51.5806 31.6512 51.5806 31.7059 51.4726C31.7606 51.3646 31.7606 51.2567 31.6512 51.2027C31.5417 51.1487 31.4322 51.2027 31.3775 51.2567C31.3228 51.3647 31.3228 51.4726 31.4322 51.5266ZM32.8004 52.0124C32.9099 52.0124 33.0193 51.9044 33.0193 51.7965C33.0193 51.6885 32.9099 51.5806 32.8004 51.5806C32.691 51.5806 32.5815 51.6885 32.5815 51.7965C32.6362 51.9044 32.691 52.0124 32.8004 52.0124ZM34.1686 51.5266C34.278 51.4726 34.278 51.3647 34.2233 51.2567C34.1686 51.1487 34.0591 51.1487 33.9497 51.2027C33.8402 51.2567 33.8402 51.3646 33.8949 51.4726C34.0044 51.5806 34.1138 51.5806 34.1686 51.5266ZM35.0442 50.393C35.0989 50.2851 35.0442 50.1771 34.9347 50.1771C34.8253 50.1231 34.7158 50.1771 34.7158 50.2851C34.6611 50.393 34.7158 50.501 34.8253 50.501C34.9347 50.555 35.0442 50.501 35.0442 50.393ZM35.0442 48.9356C34.9895 48.8276 34.88 48.7736 34.8253 48.8276C34.7158 48.8816 34.6611 48.9895 34.7158 49.0435C34.7706 49.1515 34.88 49.2055 34.9347 49.1515C35.0442 49.1515 35.0989 49.0435 35.0442 48.9356ZM34.1686 47.748C34.0591 47.694 33.9497 47.694 33.8949 47.802C33.8402 47.9099 33.8402 48.0179 33.9497 48.0719C34.0591 48.1259 34.1686 48.1259 34.2233 48.0179C34.278 47.9639 34.278 47.856 34.1686 47.748Z" fill="#FFC90D"/>
<path d="M33.677 50.2312C33.677 49.8533 33.3486 49.6374 33.075 49.5294V48.7737C33.1844 48.7737 33.2939 48.8277 33.4581 48.8817L33.5675 48.9357V48.5578H33.5128C33.4034 48.5038 33.2939 48.4498 33.0203 48.4498V48.1799H32.9108V48.4498C32.8561 48.4498 32.8561 48.4498 32.8014 48.4498C32.7466 48.4498 32.7466 48.4498 32.6919 48.4498V48.1799H32.5825V48.4498C32.1446 48.5038 31.9805 48.8277 31.9805 49.0436C31.9805 49.4215 32.1994 49.5834 32.5825 49.6914V50.5011C32.4183 50.4471 32.2541 50.3931 32.1446 50.2851L31.9805 50.1772V50.609H32.0352C32.0899 50.663 32.3088 50.771 32.5825 50.771V51.1488H32.6919V50.8789H32.7466C32.8014 50.8789 32.8561 50.8789 32.9108 50.8789V51.1488H33.0203V50.8789C33.3486 50.771 33.677 50.555 33.677 50.2312ZM32.8014 48.7197C32.8561 48.7197 32.9108 48.7197 32.9108 48.7197V49.4215C32.8561 49.4215 32.8014 49.3675 32.7466 49.3675C32.6919 49.3675 32.6919 49.3675 32.6372 49.3135V48.6658C32.7466 48.7737 32.7466 48.7197 32.8014 48.7197ZM32.3636 49.0436C32.3636 48.9356 32.4183 48.8277 32.5277 48.7737V49.3135C32.4183 49.2595 32.3636 49.2055 32.3636 49.0436ZM32.7466 50.555C32.7466 50.555 32.6919 50.555 32.7466 50.555L32.6919 49.7993H32.7466C32.8014 49.7993 32.8561 49.8533 32.9108 49.8533V50.555C32.8561 50.555 32.8014 50.555 32.7466 50.555ZM33.075 50.4471V49.9073C33.2392 50.0152 33.2392 50.1232 33.2392 50.2312C33.2392 50.3391 33.1844 50.3931 33.075 50.4471Z" fill="#456785"/>
<path d="M36.8512 59.3539C36.8512 60.7034 35.7566 61.783 34.3885 61.783C33.0203 61.783 31.9258 60.7034 31.9258 59.3539C31.9258 58.0044 33.0203 56.9248 34.3885 56.9248C35.7566 56.9248 36.8512 58.0044 36.8512 59.3539Z" fill="#F1A42A"/>
<path d="M36.194 59.3538C36.194 60.3255 35.3731 61.1352 34.388 61.1352C33.4029 61.1352 32.582 60.3255 32.582 59.3538C32.582 58.3822 33.4029 57.5725 34.388 57.5725C35.3731 57.5725 36.194 58.3822 36.194 59.3538Z" fill="white"/>
<path d="M34.5525 57.1947C34.5525 57.3026 34.443 57.4106 34.3336 57.4106C34.2241 57.4106 34.1147 57.3026 34.1147 57.1947C34.1147 57.0867 34.2241 56.9788 34.3336 56.9788C34.4978 57.0327 34.5525 57.0867 34.5525 57.1947ZM32.9654 57.4646C32.856 57.5186 32.856 57.6265 32.9107 57.7345C32.9654 57.8424 33.0749 57.8424 33.1843 57.7885C33.2938 57.7345 33.2938 57.6265 33.239 57.5186C33.1843 57.4106 33.0749 57.4106 32.9654 57.4646ZM32.1445 58.6521C32.0898 58.7601 32.1445 58.8681 32.254 58.8681C32.3634 58.922 32.4729 58.8681 32.4729 58.7601C32.5276 58.6521 32.4729 58.5442 32.3634 58.5442C32.254 58.4902 32.1445 58.5442 32.1445 58.6521ZM32.1445 60.0556C32.1992 60.1636 32.3087 60.2176 32.3634 60.1636C32.4729 60.1096 32.5276 60.0016 32.4729 59.9477C32.4729 59.8397 32.3634 59.7857 32.254 59.8397C32.1445 59.8397 32.0898 59.9477 32.1445 60.0556ZM32.9654 61.2432C33.0749 61.2971 33.1843 61.2972 33.239 61.1892C33.2938 61.0812 33.2938 60.9733 33.1843 60.9193C33.1296 60.8653 33.0201 60.8653 32.9654 60.9733C32.856 61.0812 32.9107 61.1892 32.9654 61.2432ZM34.3883 61.675C34.4978 61.675 34.6072 61.567 34.6072 61.4591C34.6072 61.3511 34.4978 61.2432 34.3883 61.2432C34.2788 61.2432 34.1694 61.3511 34.1694 61.4591C34.1694 61.567 34.2788 61.675 34.3883 61.675ZM35.7565 61.2432C35.8659 61.1892 35.8659 61.0812 35.8112 60.9733C35.7565 60.8653 35.647 60.8653 35.5376 60.9193C35.4281 60.9733 35.4281 61.0812 35.4828 61.1892C35.5376 61.2972 35.7017 61.2971 35.7565 61.2432ZM36.6321 60.0556C36.6868 59.9477 36.6321 59.8397 36.5226 59.8397C36.4132 59.7857 36.3037 59.8397 36.3037 59.9477C36.249 60.0556 36.3037 60.1636 36.4132 60.1636C36.4679 60.2176 36.5774 60.1636 36.6321 60.0556ZM36.6321 58.6521C36.5774 58.5442 36.4679 58.4902 36.4132 58.5442C36.3037 58.5982 36.249 58.7061 36.3037 58.7601C36.3584 58.8681 36.4679 58.922 36.5226 58.8681C36.5774 58.8141 36.6321 58.7061 36.6321 58.6521ZM35.7565 57.4646C35.647 57.4106 35.5376 57.4106 35.4828 57.5186C35.4281 57.6265 35.4281 57.7345 35.5376 57.7885C35.647 57.8424 35.7565 57.8424 35.8112 57.7345C35.8659 57.6265 35.8659 57.5186 35.7565 57.4646Z" fill="#FFC90D"/>
<path d="M35.2102 59.8938C35.2102 59.5159 34.8818 59.3 34.6082 59.192V58.4363C34.7177 58.4363 34.8271 58.4903 34.9913 58.5443L35.1007 58.5983V58.2204H35.046C34.9366 58.1664 34.8271 58.1124 34.5535 58.1124V57.8425H34.444V58.1124C34.3893 58.1124 34.3893 58.1124 34.3346 58.1124C34.2798 58.1124 34.2798 58.1124 34.2251 58.1124V57.8425H34.1157V58.1664C33.6779 58.2204 33.5137 58.5443 33.5137 58.7602C33.5137 59.138 33.7326 59.3 34.1157 59.408V60.2177C33.9515 60.1637 33.7873 60.1097 33.6779 60.0017L33.5137 59.8938V60.3256H33.5684C33.6231 60.3796 33.842 60.4876 34.1157 60.4876V60.7575H34.2251V60.4876H34.2798C34.3346 60.4876 34.3893 60.4876 34.444 60.4876V60.7575H34.5535V60.4876C34.9366 60.4876 35.2102 60.2716 35.2102 59.8938ZM34.3893 58.4363C34.444 58.4363 34.4987 58.4363 34.4987 58.4363V59.1381C34.444 59.1381 34.3893 59.0841 34.3346 59.0841C34.2798 59.0841 34.2798 59.0841 34.2251 59.0301V58.3823C34.2798 58.4363 34.3346 58.4363 34.3893 58.4363ZM33.9515 58.7602C33.9515 58.6522 34.0062 58.5443 34.1157 58.4903V59.0301C34.0062 58.9761 33.9515 58.8681 33.9515 58.7602ZM34.3346 60.2716C34.2798 60.2716 34.2798 60.2177 34.3346 60.2716L34.2798 59.5159H34.3346C34.3893 59.5159 34.444 59.5699 34.4987 59.5699V60.2716C34.444 60.2177 34.3893 60.2716 34.3346 60.2716ZM34.6082 60.1637V59.6239C34.7724 59.7318 34.7724 59.8398 34.7724 59.9478C34.8271 60.0017 34.7177 60.1097 34.6082 60.1637Z" fill="#456785"/>
<path d="M48.1793 33.0657C48.1793 34.4152 47.0848 35.4948 45.7166 35.4948C44.3484 35.4948 43.2539 34.4152 43.2539 33.0657C43.2539 31.7162 44.3484 30.6366 45.7166 30.6366C47.03 30.5826 48.1793 31.7162 48.1793 33.0657Z" fill="#F1A42A"/>
<path d="M47.4674 33.0658C47.4674 34.0374 46.6465 34.8471 45.6614 34.8471C44.6764 34.8471 43.8555 34.0374 43.8555 33.0658C43.8555 32.0941 44.6764 31.2844 45.6614 31.2844C46.6465 31.2844 47.4674 32.0941 47.4674 33.0658Z" fill="white"/>
<path d="M45.8806 30.9066C45.8806 31.0146 45.7712 31.1225 45.6617 31.1225C45.5523 31.1225 45.4428 31.0146 45.4428 30.9066C45.4428 30.7986 45.5523 30.6907 45.6617 30.6907C45.7712 30.6907 45.8806 30.7986 45.8806 30.9066ZM44.2936 31.1765C44.1841 31.2305 44.1841 31.3384 44.2388 31.4464C44.2936 31.5544 44.403 31.5544 44.5125 31.5004C44.6219 31.4464 44.6219 31.3384 44.5672 31.2305C44.5125 31.1225 44.403 31.1225 44.2936 31.1765ZM43.418 32.3101C43.3632 32.418 43.418 32.526 43.5274 32.526C43.6369 32.58 43.7463 32.526 43.7463 32.418C43.7463 32.3101 43.7463 32.2021 43.6369 32.2021C43.5821 32.1481 43.4727 32.2021 43.418 32.3101ZM43.418 33.7675C43.4727 33.8755 43.5821 33.9295 43.6369 33.8755C43.7463 33.8215 43.801 33.7135 43.7463 33.6596C43.6916 33.6056 43.5821 33.4976 43.5274 33.5516C43.4727 33.5516 43.418 33.6596 43.418 33.7675ZM44.2936 34.9551C44.403 35.0091 44.5125 35.0091 44.5672 34.9011C44.6219 34.7931 44.6219 34.6852 44.5125 34.6312C44.403 34.5772 44.2936 34.5772 44.2388 34.6852C44.1841 34.7392 44.1841 34.8471 44.2936 34.9551ZM45.6617 35.3869C45.7712 35.3869 45.8806 35.279 45.8806 35.171C45.8806 35.063 45.7712 34.9551 45.6617 34.9551C45.5523 34.9551 45.4428 35.063 45.4428 35.171C45.4976 35.279 45.5523 35.3869 45.6617 35.3869ZM47.0846 34.9551C47.1941 34.9011 47.1941 34.7931 47.1393 34.6852C47.0846 34.5772 46.9752 34.5772 46.8657 34.6312C46.7563 34.6852 46.7563 34.7931 46.811 34.9011C46.8657 34.9551 46.9752 35.0091 47.0846 34.9551ZM47.9055 33.7675C47.9602 33.6596 47.9055 33.5516 47.7961 33.5516C47.6866 33.4976 47.5772 33.5516 47.5772 33.6596C47.5772 33.7675 47.5772 33.8755 47.6866 33.8755C47.7961 33.9295 47.9055 33.8755 47.9055 33.7675ZM47.9055 32.3101C47.8508 32.2021 47.7413 32.1481 47.6866 32.2021C47.5772 32.2561 47.5224 32.364 47.5772 32.418C47.6319 32.472 47.7413 32.58 47.7961 32.526C47.9055 32.526 47.9602 32.418 47.9055 32.3101ZM47.0846 31.1765C46.9752 31.1225 46.8657 31.1225 46.811 31.2305C46.7563 31.3384 46.7563 31.4464 46.8657 31.5004C46.9752 31.5544 47.0846 31.5544 47.1393 31.4464C47.1941 31.3384 47.1393 31.2305 47.0846 31.1765Z" fill="#FFC90D"/>
<path d="M46.5383 33.6054C46.5383 33.2276 46.21 33.0117 45.9363 32.9037V32.148C46.0458 32.148 46.1552 32.202 46.3194 32.2559L46.4289 32.3099V31.9321H46.3741C46.2647 31.8781 46.1552 31.8241 45.8816 31.8241V31.5542H45.7721V31.8241C45.7174 31.8241 45.7174 31.8241 45.6627 31.8241C45.608 31.8241 45.608 31.8241 45.5532 31.8241V31.5542H45.4438V31.8241C45.006 31.8781 44.8418 32.202 44.8418 32.4179C44.8418 32.7957 45.0607 32.9577 45.4438 33.0656V33.8753C45.2796 33.8214 45.1154 33.7674 45.006 33.6594L44.8418 33.5515V33.9833H44.8965C44.9513 34.0373 45.1702 34.1452 45.4438 34.1452V34.4151H45.5532V34.1452H45.608C45.6627 34.1452 45.7174 34.1452 45.7721 34.1452V34.4151H45.8816V34.1452C46.2647 34.1452 46.5383 33.9833 46.5383 33.6054ZM45.6627 32.148C45.7174 32.148 45.7721 32.148 45.7721 32.148V32.8497C45.7174 32.8497 45.6627 32.7957 45.608 32.7957C45.608 32.7957 45.608 32.7957 45.5532 32.7957V32.148C45.608 32.148 45.6627 32.148 45.6627 32.148ZM45.2796 32.4719C45.2796 32.3639 45.3343 32.2559 45.4438 32.202V32.7418C45.3343 32.6878 45.2796 32.5798 45.2796 32.4719ZM45.608 33.9293L45.5532 33.1736H45.608C45.6627 33.1736 45.7174 33.2276 45.7721 33.2276V33.9293C45.7174 33.9293 45.6627 33.9293 45.608 33.9293ZM45.9363 33.8753V33.3355C46.1005 33.4435 46.1005 33.5515 46.1005 33.6594C46.1005 33.7134 46.0458 33.8214 45.9363 33.8753Z" fill="#456785"/>
<path d="M68.701 42.1341C70.0611 42.1341 71.1637 41.0465 71.1637 39.705C71.1637 38.3634 70.0611 37.2759 68.701 37.2759C67.3409 37.2759 66.2383 38.3634 66.2383 39.705C66.2383 41.0465 67.3409 42.1341 68.701 42.1341Z" fill="#F1A42A"/>
<path d="M70.4518 39.7049C70.4518 40.6766 69.6309 41.4863 68.6458 41.4863C67.6607 41.4863 66.8398 40.6766 66.8398 39.7049C66.8398 38.7333 67.6607 37.9236 68.6458 37.9236C69.6856 37.9236 70.4518 38.7333 70.4518 39.7049Z" fill="white"/>
<path d="M68.865 37.5458C68.865 37.6537 68.7556 37.7617 68.6461 37.7617C68.5367 37.7617 68.4272 37.6537 68.4272 37.5458C68.4272 37.4378 68.5367 37.3298 68.6461 37.3298C68.8103 37.3838 68.865 37.4378 68.865 37.5458ZM67.278 37.8157C67.1685 37.8696 67.1685 37.9776 67.2232 38.0856C67.278 38.1935 67.3874 38.1935 67.4969 38.1395C67.6063 38.0856 67.6063 37.9776 67.5516 37.8696C67.4969 37.7617 67.3874 37.7617 67.278 37.8157ZM66.4023 39.0032C66.3476 39.1112 66.4023 39.2191 66.5118 39.2191C66.6212 39.2731 66.7307 39.2191 66.7307 39.1112C66.7854 39.0032 66.7307 38.8952 66.6212 38.8952C66.5665 38.8413 66.4571 38.8952 66.4023 39.0032ZM66.4023 40.4067C66.4571 40.5146 66.5665 40.5686 66.6212 40.5146C66.7307 40.4607 66.7854 40.3527 66.7307 40.2987C66.676 40.1908 66.5665 40.1368 66.5118 40.1908C66.4571 40.2447 66.4023 40.3527 66.4023 40.4067ZM67.278 41.5942C67.3874 41.6482 67.4969 41.6482 67.5516 41.5403C67.6063 41.4323 67.6063 41.3243 67.4969 41.2704C67.3874 41.2164 67.278 41.2164 67.2232 41.3243C67.1685 41.4323 67.2232 41.5403 67.278 41.5942ZM68.7008 42.0261C68.8103 42.0261 68.9197 41.9181 68.9197 41.8102C68.9197 41.7022 68.8103 41.5942 68.7008 41.5942C68.5914 41.5942 68.4819 41.7022 68.4819 41.8102C68.4819 41.9721 68.5914 42.0261 68.7008 42.0261ZM70.069 41.5942C70.1784 41.5403 70.1785 41.4323 70.1237 41.3243C70.069 41.2164 69.9595 41.2164 69.8501 41.2704C69.7406 41.3243 69.7406 41.4323 69.7954 41.5403C69.8501 41.6482 69.9595 41.6482 70.069 41.5942ZM70.9446 40.4067C70.9993 40.2987 70.9446 40.1908 70.8352 40.1908C70.7257 40.1368 70.6163 40.1908 70.6163 40.2987C70.5615 40.4067 70.6163 40.5146 70.7257 40.5146C70.7804 40.5686 70.8899 40.5146 70.9446 40.4067ZM70.9446 39.0032C70.8899 38.8952 70.7804 38.8413 70.7257 38.8952C70.6163 38.9492 70.5615 39.0572 70.6163 39.1112C70.671 39.2191 70.7804 39.2731 70.8352 39.2191C70.8899 39.2191 70.9446 39.1112 70.9446 39.0032ZM70.069 37.8157C69.9595 37.7617 69.8501 37.7617 69.7954 37.8696C69.7406 37.9776 69.7406 38.0856 69.8501 38.1395C69.9595 38.1935 70.069 38.1935 70.1237 38.0856C70.1785 38.0316 70.1784 37.8696 70.069 37.8157Z" fill="#FFC90D"/>
<path d="M69.5227 40.2448C69.5227 39.867 69.1943 39.6511 68.9207 39.5431V38.7874C69.0302 38.7874 69.1396 38.8414 69.3038 38.8953L69.4132 38.9493V38.5715H69.3585C69.2491 38.5175 69.1396 38.4635 68.866 38.4635V38.1936H68.7565V38.4635C68.7018 38.4635 68.7018 38.4635 68.6471 38.4635C68.5923 38.4635 68.5923 38.4635 68.5376 38.4635V38.1936H68.4282V38.4635C67.9904 38.5175 67.8262 38.8414 67.8262 39.0573C67.8262 39.4351 68.0451 39.5971 68.4282 39.705V40.5147C68.264 40.4608 68.0998 40.4068 67.9904 40.2988L67.8262 40.1909V40.6227H67.8809C67.9356 40.6767 68.1545 40.7846 68.4282 40.7846V41.0545H68.5376V40.7846H68.5923C68.6471 40.7846 68.7018 40.7846 68.7565 40.7846V41.0545H68.866V40.8926C69.2491 40.8386 69.5227 40.6227 69.5227 40.2448ZM68.7018 38.7874C68.7565 38.7874 68.8112 38.7874 68.8112 38.7874V39.4891C68.7565 39.4891 68.7018 39.4351 68.6471 39.4351C68.5923 39.4351 68.5923 39.4351 68.5376 39.3812V38.7334C68.5923 38.7874 68.6471 38.7874 68.7018 38.7874ZM68.264 39.1113C68.264 39.0033 68.3187 38.8953 68.4282 38.8414V39.3812C68.3187 39.3272 68.264 39.2732 68.264 39.1113ZM68.5923 40.6227L68.5376 39.813H68.5923C68.6471 39.813 68.7018 39.867 68.7565 39.867V40.5687C68.7565 40.5687 68.7018 40.6227 68.5923 40.6227ZM68.9207 40.5147V39.9749C69.0849 40.0829 69.0849 40.1909 69.0849 40.2988C69.0849 40.3528 69.0302 40.4608 68.9207 40.5147Z" fill="#456785"/>
<path d="M78.8785 48.1801C78.8785 49.5296 77.784 50.6092 76.4158 50.6092C75.0477 50.6092 73.9531 49.5296 73.9531 48.1801C73.9531 46.8306 75.0477 45.751 76.4158 45.751C77.784 45.751 78.8785 46.8306 78.8785 48.1801Z" fill="#F1A42A"/>
<path d="M78.2213 48.18C78.2213 49.1517 77.4004 49.9614 76.4153 49.9614C75.4303 49.9614 74.6094 49.1517 74.6094 48.18C74.6094 47.2084 75.4303 46.3987 76.4153 46.3987C77.4004 46.3987 78.2213 47.2084 78.2213 48.18Z" fill="white"/>
<path d="M76.5798 46.0209C76.5798 46.1288 76.4704 46.2368 76.3609 46.2368C76.2515 46.2368 76.142 46.1288 76.142 46.0209C76.142 45.9129 76.2515 45.8049 76.3609 45.8049C76.5251 45.8589 76.5798 45.9129 76.5798 46.0209ZM74.9928 46.2908C74.8833 46.3447 74.8833 46.4527 74.938 46.5607C74.9928 46.6686 75.1022 46.6686 75.2117 46.6146C75.3211 46.5606 75.3211 46.4527 75.2664 46.3447C75.2117 46.2368 75.1022 46.2368 74.9928 46.2908ZM74.1719 47.4783C74.1171 47.5863 74.1719 47.6942 74.2813 47.6942C74.3908 47.7482 74.5002 47.6942 74.5002 47.5863C74.5549 47.4783 74.5002 47.3703 74.3908 47.3703C74.2813 47.3164 74.1719 47.3703 74.1719 47.4783ZM74.1719 48.8818C74.2266 48.9897 74.336 49.0437 74.3908 48.9897C74.5002 48.9358 74.5549 48.8278 74.5002 48.7738C74.4455 48.6659 74.336 48.6119 74.2813 48.6659C74.1719 48.6659 74.1171 48.7738 74.1719 48.8818ZM74.9928 50.0693C75.1022 50.1233 75.2117 50.1233 75.2664 50.0154C75.3211 49.9074 75.3211 49.7994 75.2117 49.7455C75.1022 49.6915 74.9928 49.6915 74.938 49.7994C74.8833 49.9074 74.938 50.0154 74.9928 50.0693ZM76.4156 50.5012C76.5251 50.5012 76.6345 50.3932 76.6345 50.2853C76.6345 50.1773 76.5251 50.0693 76.4156 50.0693C76.3062 50.0693 76.1967 50.1773 76.1967 50.2853C76.1967 50.4472 76.3062 50.5012 76.4156 50.5012ZM77.7838 50.0693C77.8933 50.0154 77.8933 49.9074 77.8385 49.7994C77.7838 49.6915 77.6743 49.6915 77.5649 49.7455C77.4554 49.7994 77.4554 49.9074 77.5102 50.0154C77.5649 50.1233 77.7291 50.1233 77.7838 50.0693ZM78.6594 48.8818C78.7141 48.7738 78.6594 48.6659 78.55 48.6659C78.4405 48.6119 78.3311 48.6659 78.3311 48.7738C78.2763 48.8818 78.3311 48.9897 78.4405 48.9897C78.4952 49.0437 78.6047 48.9897 78.6594 48.8818ZM78.6594 47.4783C78.6047 47.3703 78.4952 47.3164 78.4405 47.3703C78.3311 47.4243 78.2763 47.5323 78.3311 47.5863C78.3858 47.6942 78.4952 47.7482 78.55 47.6942C78.6047 47.6402 78.6594 47.5323 78.6594 47.4783ZM77.7838 46.2908C77.6743 46.2368 77.5649 46.2368 77.5102 46.3447C77.4554 46.4527 77.4554 46.5606 77.5649 46.6146C77.6743 46.6686 77.7838 46.6686 77.8385 46.5607C77.8933 46.4527 77.8933 46.3447 77.7838 46.2908Z" fill="#FFC90D"/>
<path d="M77.2375 48.7199C77.2375 48.3421 76.9092 48.1262 76.6355 48.0182V47.2625C76.745 47.2625 76.8545 47.3165 77.0186 47.3704L77.1281 47.4244V47.0466H77.0734C76.9639 46.9926 76.8545 46.9386 76.5808 46.9386V46.6687H76.4714V46.9386C76.4166 46.9386 76.4166 46.9386 76.3619 46.9386C76.3072 46.9386 76.3072 46.9386 76.2525 46.9386V46.6687H76.143V46.9386C75.7052 46.9926 75.541 47.3165 75.541 47.5324C75.541 47.9102 75.7599 48.0722 76.143 48.1801V48.9898C75.9788 48.9359 75.8146 48.8819 75.7052 48.7739L75.541 48.666V49.0978H75.5957C75.6505 49.1518 75.8694 49.2597 76.143 49.2597V49.5296H76.2525V49.2597H76.3072C76.3619 49.2597 76.4166 49.2597 76.4714 49.2597V49.5296H76.5808V49.2597C76.9639 49.3137 77.2375 49.0978 77.2375 48.7199ZM76.4166 47.2625C76.4714 47.2625 76.5261 47.2625 76.5261 47.2625V47.9642C76.4714 47.9642 76.4166 47.9102 76.3619 47.9102C76.3072 47.9102 76.3072 47.9102 76.2525 47.8563V47.2085C76.3072 47.2625 76.3619 47.2625 76.4166 47.2625ZM75.9788 47.5864C75.9788 47.4784 76.0336 47.3704 76.143 47.3165V47.8563C76.0336 47.8023 75.9788 47.6943 75.9788 47.5864ZM76.3619 49.0978C76.3072 49.0978 76.3072 49.0438 76.3619 49.0978L76.3072 48.3421H76.3619C76.4166 48.3421 76.4714 48.3961 76.5261 48.3961V49.0978C76.4714 49.0438 76.4166 49.0978 76.3619 49.0978ZM76.6355 48.9898V48.45C76.7997 48.558 76.7997 48.666 76.7997 48.7739C76.8545 48.8279 76.745 48.9359 76.6355 48.9898Z" fill="#456785"/>
<path d="M58.7418 42.5122C58.7418 43.8617 57.6473 44.9413 56.2791 44.9413C54.9109 44.9413 53.8164 43.8617 53.8164 42.5122C53.8164 41.1627 54.9109 40.0832 56.2791 40.0832C57.5925 40.0292 58.7418 41.1627 58.7418 42.5122Z" fill="#F1A42A"/>
<path d="M58.0299 42.5123C58.0299 43.4839 57.209 44.2936 56.2239 44.2936C55.2389 44.2936 54.418 43.4839 54.418 42.5123C54.418 41.5407 55.2389 40.731 56.2239 40.731C57.2637 40.731 58.0299 41.4867 58.0299 42.5123Z" fill="white"/>
<path d="M56.4431 40.3531C56.4431 40.4611 56.3337 40.569 56.2242 40.569C56.1148 40.569 56.0053 40.4611 56.0053 40.3531C56.0053 40.2452 56.1148 40.1372 56.2242 40.1372C56.3337 40.1372 56.4431 40.2452 56.4431 40.3531ZM54.8561 40.623C54.7466 40.677 54.7466 40.785 54.8013 40.8929C54.8561 41.0009 54.9655 41.0009 55.075 40.9469C55.1844 40.8929 55.1844 40.785 55.1297 40.677C55.075 40.569 54.9655 40.5151 54.8561 40.623ZM53.9805 41.7566C53.9257 41.8646 53.9805 41.9725 54.0899 41.9725C54.1994 42.0265 54.3088 41.9725 54.3088 41.8646C54.3635 41.7566 54.3088 41.6486 54.1994 41.6486C54.1446 41.5947 54.0352 41.6486 53.9805 41.7566ZM53.9805 43.2141C54.0352 43.322 54.1446 43.376 54.1994 43.322C54.3088 43.268 54.3635 43.1601 54.3088 43.1061C54.2541 42.9981 54.1446 42.9442 54.0899 42.9981C54.0352 42.9981 53.9805 43.1061 53.9805 43.2141ZM54.8561 44.3476C54.9655 44.4016 55.075 44.4016 55.1297 44.2937C55.1844 44.1857 55.1844 44.0777 55.075 44.0238C54.9655 43.9698 54.8561 43.9698 54.8013 44.0777C54.7466 44.1857 54.7466 44.2937 54.8561 44.3476ZM56.2242 44.8335C56.3337 44.8335 56.4431 44.7255 56.4431 44.6175C56.4431 44.5096 56.3337 44.4016 56.2242 44.4016C56.1148 44.4016 56.0053 44.5096 56.0053 44.6175C56.0053 44.7255 56.1148 44.8335 56.2242 44.8335ZM57.6471 44.3476C57.7566 44.2937 57.7566 44.1857 57.7018 44.0777C57.6471 43.9698 57.5377 43.9698 57.4282 44.0238C57.3188 44.0777 57.3188 44.1857 57.3735 44.2937C57.4282 44.4016 57.5377 44.4556 57.6471 44.3476ZM58.468 43.2141C58.5227 43.1061 58.468 42.9981 58.3586 42.9981C58.2491 42.9442 58.1397 42.9981 58.1397 43.1061C58.0849 43.2141 58.1397 43.322 58.2491 43.322C58.3586 43.376 58.468 43.322 58.468 43.2141ZM58.468 41.7566C58.4133 41.6486 58.3038 41.5947 58.2491 41.6486C58.1397 41.7026 58.0849 41.8106 58.1397 41.8646C58.1944 41.9725 58.3038 42.0265 58.3586 41.9725C58.4133 41.9185 58.5227 41.8646 58.468 41.7566ZM57.6471 40.623C57.5377 40.569 57.4282 40.569 57.3735 40.677C57.3188 40.785 57.3188 40.8929 57.4282 40.9469C57.5377 41.0009 57.6471 41.0009 57.7018 40.8929C57.7566 40.785 57.7018 40.677 57.6471 40.623Z" fill="#FFC90D"/>
<path d="M57.1008 43.0519C57.1008 42.6741 56.7725 42.4582 56.4988 42.3502V41.5945C56.6083 41.5945 56.7177 41.6485 56.8819 41.7024L56.9914 41.7564V41.4325H56.9366C56.8272 41.3786 56.7177 41.3246 56.4441 41.3246V41.0547H56.3346V41.3246C56.2799 41.3246 56.2799 41.3246 56.2252 41.3246C56.1705 41.3246 56.1705 41.3246 56.1157 41.3246V41.0547H56.0063V41.3246C55.5685 41.3786 55.4043 41.7024 55.4043 41.9184C55.4043 42.2962 55.6232 42.4582 56.0063 42.5661V43.3758C55.8421 43.3218 55.6779 43.2679 55.5685 43.1599L55.4043 43.0519V43.4838H55.459C55.5137 43.5378 55.7327 43.6457 56.0063 43.6457V43.9156H56.1157V43.6457H56.1705C56.2252 43.6457 56.2799 43.6457 56.3346 43.6457V43.9156H56.4441V43.6457C56.8272 43.5917 57.1008 43.4298 57.1008 43.0519ZM56.2252 41.5945C56.2799 41.5945 56.3346 41.5945 56.3346 41.5945V42.2962C56.2799 42.2962 56.2252 42.2422 56.1705 42.2422C56.1157 42.2422 56.1157 42.2422 56.061 42.1883V41.5405C56.1705 41.5945 56.2252 41.5945 56.2252 41.5945ZM55.8421 41.9184C55.8421 41.8104 55.8968 41.7024 56.0063 41.6485V42.1883C55.8968 42.0803 55.8421 42.0263 55.8421 41.9184ZM56.1705 43.3758L56.1157 42.6201H56.1705C56.2252 42.6201 56.2799 42.6741 56.3346 42.6741V43.3758C56.3346 43.3758 56.2252 43.3758 56.1705 43.3758ZM56.4988 43.3218V42.782C56.663 42.89 56.663 42.998 56.663 43.1059C56.663 43.1599 56.6083 43.2139 56.4988 43.3218Z" fill="#456785"/>
<path d="M48.4527 53.848C48.4527 55.1975 47.3582 56.2771 45.99 56.2771C44.6219 56.2771 43.5273 55.1975 43.5273 53.848C43.5273 52.4985 44.6219 51.4189 45.99 51.4189C47.3582 51.4189 48.4527 52.4985 48.4527 53.848Z" fill="#F1A42A"/>
<path d="M47.7955 53.848C47.7955 54.8196 46.9746 55.6293 45.9896 55.6293C45.0045 55.6293 44.1836 54.8196 44.1836 53.848C44.1836 52.8763 45.0045 52.0667 45.9896 52.0667C46.9746 52.1206 47.7955 52.8763 47.7955 53.848Z" fill="white"/>
<path d="M46.154 51.7428C46.154 51.8507 46.0446 51.9587 45.9351 51.9587C45.8257 51.9587 45.7162 51.8507 45.7162 51.7428C45.7162 51.6348 45.8257 51.5269 45.9351 51.5269C46.0993 51.5269 46.154 51.6348 46.154 51.7428ZM44.567 51.9587C44.4575 52.0127 44.4575 52.1206 44.5122 52.2286C44.567 52.3366 44.6764 52.3366 44.7859 52.2826C44.8953 52.2286 44.8953 52.1206 44.8406 52.0127C44.7859 51.9587 44.6764 51.9047 44.567 51.9587ZM43.7461 53.1463C43.6914 53.2542 43.7461 53.3622 43.8555 53.3622C43.965 53.4162 44.0744 53.3622 44.0744 53.2542C44.1292 53.1463 44.0744 53.0383 43.965 53.0383C43.8555 52.9843 43.7461 53.0383 43.7461 53.1463ZM43.7461 54.6037C43.8008 54.7117 43.9103 54.7656 43.965 54.7117C44.0744 54.6577 44.1292 54.5497 44.0744 54.4957C44.0197 54.3878 43.9103 54.3338 43.8555 54.3878C43.7461 54.3878 43.6914 54.4957 43.7461 54.6037ZM44.567 55.7373C44.6764 55.7913 44.7859 55.7913 44.8406 55.6833C44.8953 55.5753 44.8953 55.4674 44.7859 55.4134C44.6764 55.3594 44.567 55.3594 44.5122 55.4674C44.4575 55.5753 44.5122 55.6833 44.567 55.7373ZM45.9899 56.2231C46.0993 56.2231 46.2088 56.1151 46.2088 56.0072C46.2088 55.8992 46.0993 55.7913 45.9899 55.7913C45.8804 55.7913 45.771 55.8992 45.771 56.0072C45.771 56.1151 45.8804 56.2231 45.9899 56.2231ZM47.358 55.7373C47.4675 55.6833 47.4675 55.5753 47.4127 55.4674C47.358 55.3594 47.2486 55.3594 47.1391 55.4134C47.0297 55.4674 47.0297 55.5753 47.0844 55.6833C47.1391 55.7913 47.3033 55.8452 47.358 55.7373ZM48.2336 54.6037C48.2884 54.4957 48.2336 54.3878 48.1242 54.3878C48.0147 54.3338 47.9053 54.3878 47.9053 54.4957C47.8506 54.6037 47.9053 54.7117 48.0147 54.7117C48.0695 54.7656 48.1789 54.7117 48.2336 54.6037ZM48.2336 53.1463C48.1789 53.0383 48.0695 52.9843 48.0147 53.0383C47.9053 53.0923 47.8506 53.2002 47.9053 53.2542C47.96 53.3622 48.0695 53.4162 48.1242 53.3622C48.1789 53.3622 48.2336 53.2542 48.2336 53.1463ZM47.358 51.9587C47.2486 51.9047 47.1391 51.9047 47.0844 52.0127C47.0297 52.1206 47.0297 52.2286 47.1391 52.2826C47.2486 52.3366 47.358 52.3366 47.4127 52.2286C47.4675 52.1746 47.4675 52.0667 47.358 51.9587Z" fill="#FFC90D"/>
<path d="M46.8117 54.4419C46.8117 54.064 46.4834 53.8481 46.2097 53.7401V52.9844C46.3192 52.9844 46.4286 53.0384 46.5928 53.0924L46.7023 53.1463V52.7685C46.5928 52.7145 46.4834 52.6605 46.2097 52.6605V52.3906H46.1003V52.6605C46.0455 52.6605 46.0455 52.6605 45.9908 52.6605C45.9361 52.6605 45.9361 52.6605 45.8814 52.6605V52.3906H45.7719V52.6605C45.3341 52.7145 45.1699 53.0384 45.1699 53.2543C45.1699 53.6322 45.3888 53.7941 45.7719 53.9021V54.7118C45.6077 54.6578 45.4436 54.6038 45.3341 54.4958L45.1699 54.3879V54.8197H45.2246C45.2794 54.8737 45.4983 54.9817 45.7719 54.9817V55.2516H45.8814V54.9817H45.9361C45.9908 54.9817 46.0455 54.9817 46.1003 54.9817V55.2516H46.2097V54.9817C46.5381 54.9817 46.8117 54.8197 46.8117 54.4419ZM45.9908 52.9844C46.0455 52.9844 46.1003 52.9844 46.1003 52.9844V53.6861C46.0455 53.6861 45.9908 53.6322 45.9361 53.6322C45.8814 53.6322 45.8814 53.6322 45.8266 53.5782V52.9304C45.8814 52.9844 45.9361 52.9844 45.9908 52.9844ZM45.553 53.3083C45.553 53.2003 45.6077 53.0924 45.7172 53.0384V53.5782C45.6077 53.4702 45.553 53.4162 45.553 53.3083ZM45.9361 54.7657C45.8814 54.7657 45.8814 54.7657 45.9361 54.7657L45.8814 54.01H45.9361C45.9908 54.01 46.0455 54.064 46.1003 54.064V54.7657C46.0455 54.7657 45.9908 54.7657 45.9361 54.7657ZM46.2097 54.7118V54.172C46.3739 54.2799 46.3739 54.3879 46.3739 54.4958C46.4286 54.5498 46.3192 54.6038 46.2097 54.7118Z" fill="#456785"/>
<path d="M69.7418 58.3822C69.7418 59.7317 68.6473 60.8113 67.2791 60.8113C65.9109 60.8113 64.8164 59.7317 64.8164 58.3822C64.8164 57.0327 65.9109 55.9531 67.2791 55.9531C68.6473 55.9531 69.7418 57.0327 69.7418 58.3822Z" fill="#F1A42A"/>
<path d="M69.0846 58.3822C69.0846 59.3538 68.2637 60.1635 67.2786 60.1635C66.2935 60.1635 65.4727 59.3538 65.4727 58.3822C65.4727 57.4105 66.2935 56.6008 67.2786 56.6008C68.2637 56.6008 69.0846 57.4105 69.0846 58.3822Z" fill="white"/>
<path d="M67.4431 56.223C67.4431 56.331 67.3337 56.4389 67.2242 56.4389C67.1147 56.4389 67.0053 56.331 67.0053 56.223C67.0053 56.115 67.1147 56.0071 67.2242 56.0071C67.3884 56.0611 67.4431 56.115 67.4431 56.223ZM65.856 56.4929C65.7466 56.5469 65.7466 56.6548 65.8013 56.7628C65.856 56.8708 65.9655 56.8708 66.0749 56.8168C66.1844 56.7628 66.1844 56.6548 66.1297 56.5469C66.0749 56.4389 65.9655 56.4389 65.856 56.4929ZM65.0351 57.6805C64.9804 57.7884 65.0351 57.8964 65.1446 57.8964C65.254 57.9504 65.3635 57.8964 65.3635 57.7884C65.4182 57.6805 65.3635 57.5725 65.254 57.5725C65.1446 57.5185 65.0351 57.5725 65.0351 57.6805ZM65.0351 59.0839C65.0899 59.1919 65.1993 59.2459 65.254 59.1919C65.3635 59.1379 65.4182 59.03 65.3635 58.976C65.3088 58.868 65.1993 58.814 65.1446 58.868C65.0351 58.922 64.9804 59.03 65.0351 59.0839ZM65.856 60.2715C65.9655 60.3255 66.0749 60.3255 66.1297 60.2175C66.1844 60.1096 66.1844 60.0016 66.0749 59.9476C65.9655 59.8936 65.856 59.8936 65.8013 60.0016C65.7466 60.1096 65.8013 60.2175 65.856 60.2715ZM67.2789 60.7033C67.3884 60.7033 67.4978 60.5954 67.4978 60.4874C67.4978 60.3795 67.3884 60.2715 67.2789 60.2715C67.1695 60.2715 67.06 60.3795 67.06 60.4874C67.06 60.6494 67.1695 60.7033 67.2789 60.7033ZM68.6471 60.2715C68.7565 60.2175 68.7565 60.1096 68.7018 60.0016C68.6471 59.8936 68.5376 59.8936 68.4282 59.9476C68.3187 60.0016 68.3187 60.1096 68.3735 60.2175C68.4282 60.3255 68.5376 60.3255 68.6471 60.2715ZM69.5227 59.0839C69.5774 58.976 69.5227 58.868 69.4133 58.868C69.3038 58.814 69.1943 58.868 69.1943 58.976C69.1396 59.0839 69.1943 59.1919 69.3038 59.1919C69.3585 59.2459 69.468 59.1919 69.5227 59.0839ZM69.5227 57.6805C69.468 57.5725 69.3585 57.5185 69.3038 57.5725C69.1943 57.6265 69.1396 57.7344 69.1943 57.7884C69.2491 57.8964 69.3585 57.9504 69.4133 57.8964C69.468 57.8964 69.5227 57.7884 69.5227 57.6805ZM68.6471 56.4929C68.5376 56.4389 68.4282 56.4389 68.3735 56.5469C68.3187 56.6548 68.3187 56.7628 68.4282 56.8168C68.5376 56.8708 68.6471 56.8708 68.7018 56.7628C68.7565 56.6548 68.7565 56.5469 68.6471 56.4929Z" fill="#FFC90D"/>
<path d="M68.1008 58.9221C68.1008 58.5442 67.7725 58.3283 67.4988 58.2203V57.4646C67.6083 57.4646 67.7177 57.5186 67.8819 57.5726L67.9914 57.6266V57.2487H67.9366C67.8272 57.1947 67.7177 57.1407 67.4441 57.1407V56.8708H67.3346V57.1407C67.2799 57.1407 67.2799 57.1407 67.2252 57.1407C67.1705 57.1407 67.1705 57.1407 67.1157 57.1407V56.8708H67.0063V57.1407C66.5685 57.1947 66.4043 57.5186 66.4043 57.7345C66.4043 58.1124 66.6232 58.2743 67.0063 58.3823V59.246C66.8421 59.192 66.6779 59.138 66.5685 59.03L66.4043 58.9761V59.4079H66.459C66.5137 59.4619 66.7327 59.5698 67.0063 59.5698V59.8397H67.1157V59.5698H67.1705C67.2252 59.5698 67.2799 59.5698 67.3346 59.5698V59.8397H67.4988V59.5698C67.8272 59.5159 68.1008 59.2999 68.1008 58.9221ZM67.2799 57.4646C67.3346 57.4646 67.3894 57.4646 67.3894 57.4646V58.1664C67.3346 58.1664 67.2799 58.1124 67.2252 58.1124C67.1705 58.1124 67.1705 58.1124 67.1157 58.0584V57.4106C67.1705 57.4646 67.2252 57.4646 67.2799 57.4646ZM66.8421 57.7885C66.8421 57.6805 66.8968 57.5726 67.0063 57.5186V58.0584C66.8968 58.0044 66.8421 57.9504 66.8421 57.7885ZM67.1705 59.2999L67.1157 58.5442H67.1705C67.2252 58.5442 67.2799 58.5982 67.3346 58.5982V59.246C67.3346 59.246 67.2799 59.2999 67.1705 59.2999ZM67.4988 59.192V58.6522C67.663 58.7601 67.663 58.8681 67.663 58.9761C67.7177 59.03 67.6083 59.138 67.4988 59.192Z" fill="#456785"/>
</svg>
