<svg width="104" height="104" viewBox="0 0 104 104" fill="none" xmlns="http://www.w3.org/2000/svg">
<circle cx="52" cy="52" r="52" fill="#3E3E3E"/>
<g clip-path="url(#clip0)">
<path d="M78.877 45.5346C82.9954 60.5329 73.8682 76.0185 58.3965 80.0253C42.9247 84.0321 27.0634 75.1522 22.9451 60.0997C18.8267 45.1014 27.9539 29.6158 43.4256 25.609C58.8974 21.6023 74.7587 30.5363 78.877 45.5346Z" fill="#00B4C8"/>
<path d="M79.7132 48.8373C79.9358 48.7832 79.3792 48.9456 79.7132 48.8373C79.7688 48.8373 79.6575 48.8373 79.7132 48.8373Z" fill="#FFDC00"/>
<path d="M34.8556 52.1944C34.9112 52.5734 34.9669 51.9237 34.9669 51.7612C34.7999 51.9778 34.7999 51.9778 34.8556 52.1944C34.8556 52.1944 34.7999 52.1944 34.8556 52.1944Z" fill="#FFDC00"/>
<path d="M32.6864 31.1318C32.6274 31.1318 32.6864 31.1892 32.6864 31.1318V31.1318Z" fill="#FFDC00"/>
<path d="M36.4142 71.5786C36.2472 71.3079 36.5255 71.8494 36.4142 71.5786C36.3585 71.5245 36.4142 71.5786 36.4142 71.5786Z" fill="#FFDC00"/>
<path d="M36.4707 71.687C36.5264 71.7953 36.5264 71.7412 36.4707 71.687V71.687Z" fill="#FFDC00"/>
<path d="M36.3595 71.3078C36.2482 71.416 36.4152 71.2536 36.3595 71.3078V71.3078Z" fill="#FFDC00"/>
<path d="M30.4022 44.8309C30.6248 44.9392 30.1795 44.6685 30.4022 44.8309C30.4022 44.8309 30.4022 44.7768 30.4022 44.8309Z" fill="#FFDC00"/>
<path d="M37.3049 32.9186C37.5275 32.8645 37.4719 33.081 37.7501 33.081C37.4719 32.9186 37.0266 32.9186 37.3049 32.9186C37.3049 32.9186 37.2492 32.9186 37.3049 32.9186Z" fill="#FFDC00"/>
<path d="M40.3654 31.1317C40.421 31.1317 40.2541 31.0776 40.3654 31.1317V31.1317Z" fill="#FFDC00"/>
<path d="M37.3047 32.0524C37.3047 32.0524 37.3603 31.89 37.3047 32.0524V32.0524Z" fill="#FFDC00"/>
<path d="M63.5725 29.8865C63.6838 29.7782 63.3499 30.1572 63.5725 29.8865C63.5725 29.8865 63.5725 29.9406 63.5725 29.8865Z" fill="#FFDC00"/>
<path d="M56.0039 37.521C56.0039 37.5751 56.1709 37.521 56.0039 37.521C56.0039 37.521 56.0596 37.521 56.0039 37.521Z" fill="#FFDC00"/>
<path d="M30.5714 51.3824C30.9053 51.5449 30.5714 51.22 30.5158 51.1658C30.4044 51.1117 30.4601 51.3283 30.5714 51.3824C30.6827 51.4366 30.5714 51.3824 30.5714 51.3824Z" fill="#FFDC00"/>
<path d="M42.369 37.088C43.0925 37.088 42.202 37.0339 42.369 37.088C42.4246 37.088 42.369 37.088 42.369 37.088Z" fill="#FFDC00"/>
<path d="M41.2558 33.677C41.2002 33.7853 41.3672 33.7311 41.2558 33.677V33.677Z" fill="#FFDC00"/>
<path d="M33.0204 30.7529C33.1317 30.7529 32.9091 30.8071 33.0204 30.7529V30.7529Z" fill="#FFDC00"/>
<path d="M36.0254 32.2687C36.3037 32.2146 36.0254 32.2687 36.0254 32.2687V32.2687Z" fill="#FFDC00"/>
<path d="M34.5224 32.0526C34.6337 31.9985 34.4111 32.0526 34.5224 32.0526C34.578 32.0526 34.5224 32.0526 34.5224 32.0526Z" fill="#FFDC00"/>
<path d="M71.6426 33.1893C71.6982 33.1351 71.6426 33.1351 71.6426 33.1893V33.1893Z" fill="#FFDC00"/>
<path d="M64.1845 42.8814C64.2958 42.7189 64.0732 43.0438 64.1845 42.8814C64.1845 42.8814 64.1288 42.9355 64.1845 42.8814Z" fill="#FFDC00"/>
<path d="M64.1855 43.0439C64.2412 43.0439 65.243 42.9356 65.0203 43.2063C64.909 43.3687 65.0203 43.3146 64.9647 43.5853C64.9647 43.5312 64.2412 43.0439 64.1855 43.0439Z" fill="#FFDC00"/>
<path d="M60.6238 42.4482C60.7351 42.1234 60.4012 41.7985 60.9021 41.7443C60.6794 41.636 60.6794 41.2029 61.0134 41.2029C61.5699 41.2029 60.3455 43.098 60.6238 42.4482C60.6238 42.3941 60.5681 42.4482 60.6238 42.4482Z" fill="#FFDC00"/>
<path d="M59.2876 42.1777C59.3432 41.9611 59.2319 42.3401 59.2876 42.1777C59.2876 42.1777 59.2876 42.2318 59.2876 42.1777Z" fill="#FFDC00"/>
<path d="M58.8414 42.2855C58.7857 42.1772 59.1753 42.1231 59.1753 42.2314C59.231 42.448 58.8414 42.5021 58.8414 42.2855C58.8414 42.2855 58.8414 42.3397 58.8414 42.2855Z" fill="#FFDC00"/>
<path d="M63.4058 36.5463C63.4058 36.5463 63.6284 35.8966 63.7398 36.1673C63.7398 36.2756 63.3502 36.6546 63.4058 36.5463Z" fill="#FFDC00"/>
<path d="M62.5161 37.0879C62.5717 36.9255 62.4604 37.1421 62.5161 37.0879V37.0879Z" fill="#FFDC00"/>
<path d="M70.2521 32.9186C70.3077 32.8644 70.8643 32.7561 70.6973 32.9186C70.586 33.0268 70.1408 33.0268 70.2521 32.9186Z" fill="#FFDC00"/>
<path d="M65.7441 29.724C65.7998 29.724 66.3007 29.6698 66.1337 29.7781C66.0224 29.8323 65.7441 29.724 65.7441 29.724Z" fill="#FFDC00"/>
<path d="M65.2419 29.9949C65.4645 30.3198 65.1863 29.8866 65.2419 29.9949V29.9949Z" fill="#FFDC00"/>
<path d="M65.0193 29.724C65.1863 29.5074 64.908 29.8323 65.0193 29.724C65.0193 29.724 64.9637 29.724 65.0193 29.724Z" fill="#FFDC00"/>
<path d="M63.4607 31.1858C63.2381 31.0775 63.5164 31.1317 63.4607 31.1858C63.4607 31.1858 63.5164 31.1858 63.4607 31.1858Z" fill="#FFDC00"/>
<path d="M64.6858 30.5903C64.4632 30.8611 64.7971 30.482 64.6858 30.5903C64.6858 30.6445 64.7415 30.5903 64.6858 30.5903Z" fill="#FFDC00"/>
<path d="M64.9099 30.103C64.6873 29.9405 64.9656 30.103 64.9099 30.103C64.9099 30.103 64.9656 30.103 64.9099 30.103Z" fill="#FFDC00"/>
<path d="M61.625 29.8863C62.1259 29.9404 61.4581 29.9946 61.5694 29.6697C61.5694 29.6155 62.2372 29.6697 62.2929 29.6697C62.4042 29.7238 62.1816 29.7238 62.1816 29.7238C62.1259 29.7238 62.8494 29.778 62.7381 29.778C62.4042 29.399 63.406 29.8321 63.4616 29.778C63.4616 29.7238 63.072 29.7238 63.072 29.6155C63.072 29.5614 63.072 29.5614 63.1277 29.5073C63.1834 29.399 64.9643 29.6697 64.9643 29.6697C64.853 29.9404 63.9069 29.8321 63.6842 29.778C63.6842 29.9404 64.5747 30.1029 64.5747 30.157C64.5747 30.3736 63.7399 30.2653 63.6842 30.2653C63.3503 29.6155 62.5155 31.0775 62.1816 30.157C62.1259 30.0487 62.5155 30.0487 62.5712 29.9946C62.5712 29.9946 62.5712 29.9946 62.5712 29.9404C62.7381 30.2653 61.4024 29.8863 61.625 29.8863C61.6807 29.8863 61.625 29.8863 61.625 29.8863Z" fill="#FFDC00"/>
<path d="M35.7466 29.7244C35.6353 29.8327 35.1901 29.7244 35.7466 29.7244V29.7244Z" fill="#FFDC00"/>
<path d="M35.4687 31.9441C35.3018 32.2148 35.4687 31.9982 35.4687 31.9441C35.4687 31.9982 35.4687 31.9441 35.4687 31.9441Z" fill="#FFDC00"/>
<path d="M35.8585 31.9439C35.2463 32.2146 36.1368 31.8356 35.8585 31.9439C35.8585 31.9439 35.9142 31.9439 35.8585 31.9439Z" fill="#FFDC00"/>
<path d="M41.3681 32.2687C41.8133 32.3228 41.0898 32.6477 40.8672 32.6477C40.8672 32.377 41.0898 32.2145 41.3681 32.2687C41.3681 32.2687 41.3124 32.2145 41.3681 32.2687Z" fill="#FFDC00"/>
<path d="M41.1992 31.944C41.5331 31.7274 41.0322 32.1065 41.1992 31.944C41.2548 31.944 41.1992 31.9982 41.1992 31.944Z" fill="#FFDC00"/>
<path d="M40.6439 32.0523C40.6996 31.9981 41.1448 31.7274 41.1448 31.7815C41.2561 31.9981 40.5883 32.1606 40.6439 32.0523Z" fill="#FFDC00"/>
<path d="M40.5312 32.2688C41.0321 32.1605 40.5312 32.323 40.5312 32.2688C40.5312 32.2688 40.5312 32.323 40.5312 32.2688Z" fill="#FFDC00"/>
<path d="M36.6923 37.0338C36.6923 37.2504 36.3027 37.1421 36.3027 37.0338C36.3027 36.9796 36.6923 36.8714 36.6923 37.0338Z" fill="#FFDC00"/>
<path d="M38.4187 34.0017C38.3074 34.0558 37.9735 34.2182 37.9179 34.0017C37.8622 33.7309 39.0866 33.7851 38.4187 34.0017C38.4187 34.0558 38.5301 34.0017 38.4187 34.0017Z" fill="#FFDC00"/>
<path d="M39.0856 34.164C39.0299 34.2182 38.7516 34.4889 38.7516 34.2182C38.696 33.8933 39.3082 34.0016 39.0856 34.164Z" fill="#FFDC00"/>
<path d="M39.8085 33.7849C39.3077 33.6766 39.8085 33.7308 39.8085 33.7849C39.8085 33.7849 39.8085 33.7308 39.8085 33.7849Z" fill="#FFDC00"/>
<path d="M39.8086 33.5684C39.7529 33.3518 39.9199 33.8933 39.8086 33.5684V33.5684Z" fill="#FFDC00"/>
<path d="M40.088 33.7849C39.9211 34.0015 40.1993 33.5684 40.088 33.7849V33.7849Z" fill="#FFDC00"/>
<path d="M40.5333 34.0015C40.422 34.2181 40.589 33.839 40.5333 34.0015V34.0015Z" fill="#FFDC00"/>
<path d="M41.6452 34.7597C41.5339 35.1388 41.6452 34.489 41.6452 34.7597C41.5895 34.7597 41.6452 34.7056 41.6452 34.7597Z" fill="#FFDC00"/>
<path d="M42.6478 34.4345C42.4808 34.7594 42.8148 34.0555 42.6478 34.4345C42.6478 34.4887 42.6478 34.3804 42.6478 34.4345Z" fill="#FFDC00"/>
<path d="M40.8109 39.416C40.5883 39.8492 40.0318 39.2536 40.1987 39.1994C40.2544 39.1994 40.2544 39.1453 40.31 39.1453C40.1987 39.1453 40.8109 39.4701 40.8109 39.416Z" fill="#FFDC00"/>
<path d="M34.7441 48.0796C35.1337 48.0796 34.7441 48.1337 34.7441 48.0796V48.0796Z" fill="#FFDC00"/>
<path d="M33.5189 46.7798C33.9641 46.4008 33.6302 47.1047 33.6858 47.1047C33.6302 47.0505 33.4632 46.8339 33.5189 46.7798C33.5189 46.7798 33.4632 46.8339 33.5189 46.7798Z" fill="#FFDC00"/>
<path d="M31.9057 47.9168C31.5161 47.9709 32.3509 47.8085 31.9057 47.9168C31.9057 47.9168 31.9613 47.8626 31.9057 47.9168Z" fill="#FFDC00"/>
<path d="M33.7981 49.1622C33.6868 49.3247 33.1859 49.2164 33.1302 49.0539C33.0189 48.7832 33.965 48.9456 33.7981 49.1622C33.7424 49.2164 33.7981 49.1622 33.7981 49.1622Z" fill="#FFDC00"/>
<path d="M33.9097 48.4582C33.7427 48.4041 33.5201 48.4582 33.3531 48.4582C33.4088 48.35 33.6314 48.2958 33.5757 48.1875C33.5201 47.9168 32.24 47.8085 32.1844 47.5919C32.1844 47.5378 32.2957 47.5378 32.2957 47.5378C32.1287 47.4295 31.2939 47.7002 31.2383 47.7544C31.9618 47.1588 34.4662 47.5378 34.5775 48.4041C34.6332 48.4582 33.9097 48.4582 33.9097 48.4582C33.9097 48.4582 34.0766 48.5124 33.9097 48.4582Z" fill="#FFDC00"/>
<path d="M36.3024 49.0543C36.358 49.0002 35.2449 49.3251 35.3006 49.3251C35.4119 49.3251 34.2988 48.946 34.2988 49.0002C34.2988 48.7836 34.9667 48.946 35.0223 48.946C34.911 48.7836 34.9667 48.946 34.7997 48.946C34.8554 48.946 34.7997 48.6212 34.7441 48.5129C34.9667 48.4587 36.6363 48.6753 36.3024 49.0543Z" fill="#FFDC00"/>
<path d="M37.4161 51.7071C37.2492 52.0861 37.5275 51.4905 37.4161 51.7071C37.4161 51.7613 37.4161 51.7071 37.4161 51.7071Z" fill="#FFDC00"/>
<path d="M37.1379 49.1082C37.1379 49.2706 36.6927 49.3789 36.5814 49.2706C36.5257 49.2165 36.5814 49.1623 36.5814 49.1082C36.6927 49.054 37.1379 48.9999 37.1379 49.1082C37.1379 49.2165 37.1379 49.1082 37.1379 49.1082Z" fill="#FFDC00"/>
<path d="M38.3066 51.8695C38.1396 51.9778 38.3622 52.2485 37.9727 52.0861C37.9727 52.0319 38.3622 51.6529 38.3066 51.8695Z" fill="#FFDC00"/>
<path d="M38.1951 51.3825C37.9725 51.4907 38.2508 51.3283 38.1951 51.3825C38.1394 51.3825 38.1951 51.3283 38.1951 51.3825Z" fill="#FFDC00"/>
<path d="M38.1387 49.4873C38.25 49.5956 38.25 49.5956 38.1387 49.4873V49.4873Z" fill="#FFDC00"/>
<path d="M37.8056 49.2164C37.9169 48.9456 37.6943 49.5412 37.8056 49.2164C37.8056 49.2164 37.8056 49.2705 37.8056 49.2164Z" fill="#FFDC00"/>
<path d="M38.4179 50.6785C38.4179 50.7868 38.251 51.0575 38.1953 50.9492C38.1953 50.8409 38.5292 50.6243 38.4179 50.6785Z" fill="#FFDC00"/>
<path d="M38.4726 50.5159C38.3057 50.7325 38.6952 50.2452 38.4726 50.5159C38.4726 50.5701 38.4726 50.5159 38.4726 50.5159Z" fill="#FFDC00"/>
<path d="M38.4182 50.1912C38.1956 50.7327 38.5295 49.9205 38.4182 50.1912V50.1912Z" fill="#FFDC00"/>
<path d="M38.4181 49.866C38.3068 50.4075 38.4738 49.7036 38.4181 49.866C38.4181 49.866 38.4738 49.8119 38.4181 49.866Z" fill="#FFDC00"/>
<path d="M38.5281 44.1269C38.4725 44.1811 38.1942 44.6143 38.0829 44.4518C37.9716 44.2352 38.6394 43.9645 38.5281 44.1269Z" fill="#FFDC00"/>
<path d="M41.6458 73.7986C41.5345 73.9069 41.0337 74.2317 41.0893 73.9069C40.978 74.1234 40.5884 74.0151 40.6441 73.7986C40.6997 73.6903 40.811 73.8527 40.9223 73.7986C40.8667 73.7986 40.7554 73.7444 40.7554 73.6903C40.8667 73.5278 41.2006 73.6361 41.145 73.8527C41.145 73.7986 41.8128 73.582 41.6458 73.7986C41.5902 73.7986 41.6458 73.7444 41.6458 73.7986Z" fill="#FFDC00"/>
<path d="M41.1458 39.037C40.7562 39.4702 41.2014 38.9287 41.1458 39.037C41.1458 39.037 41.1458 38.9829 41.1458 39.037Z" fill="#FFDC00"/>
<path d="M41.2551 38.5498C41.1995 38.7122 40.5316 38.3332 40.5873 38.2249C40.6986 38.0625 41.3108 38.3874 41.2551 38.5498Z" fill="#FFDC00"/>
<path d="M42.4798 39.2537C42.4242 39.4161 42.4798 39.3078 42.4798 39.2537C42.4798 39.3078 42.4798 39.2537 42.4798 39.2537Z" fill="#FFDC00"/>
<path d="M43.5924 38.4955L43.3141 38.8204C43.4255 38.8746 43.4811 38.6038 43.5924 38.658C43.7037 38.7121 43.3698 38.8746 43.3698 38.9287C43.3698 38.9287 43.5368 38.7663 43.5368 38.8746C43.6481 39.037 43.0915 39.6326 43.2028 39.2536C43.2028 39.2536 43.0359 39.416 43.0359 39.3077C43.0359 39.3077 43.2028 39.037 43.2028 38.9828C43.2028 38.9828 42.535 39.4702 42.5906 39.1994C42.5906 39.1994 42.8133 39.0911 42.8133 39.037C42.8133 39.037 41.6445 38.9828 41.6445 38.9287C41.6445 38.658 43.3141 37.7916 43.3141 37.6833C43.3141 37.7916 42.7576 38.0082 42.702 38.2248C42.7576 38.1707 42.9802 38.0624 43.0359 38.1707C43.0915 38.2248 42.9246 38.279 42.8689 38.3331C43.0915 38.4414 43.5924 38.3331 43.5924 38.4955Z" fill="#FFDC00"/>
<path d="M50.1601 42.3402C49.9932 42.4485 50.1601 42.2861 50.1601 42.3402C50.1601 42.3402 50.1601 42.2861 50.1601 42.3402Z" fill="#FFDC00"/>
<path d="M50.6622 42.7188C50.5509 42.9353 50.7179 42.5022 50.6622 42.7188V42.7188Z" fill="#FFDC00"/>
<path d="M52.4979 46.2926C52.4422 46.2384 52.3865 46.1301 52.4979 46.2926V46.2926Z" fill="#FFDC00"/>
<path d="M52.498 46.076C52.498 46.1301 52.665 45.7511 52.498 46.076V46.076Z" fill="#FFDC00"/>
<path d="M52.6642 46.1301C52.5529 46.4009 52.7198 46.0218 52.6642 46.1301V46.1301Z" fill="#FFDC00"/>
<path d="M52.8868 46.1302C52.7755 45.9678 52.9425 46.0761 52.8868 46.1302V46.1302Z" fill="#FFDC00"/>
<path d="M53.1654 46.1301C53.1654 46.2926 52.9427 46.455 53.1654 46.1301C53.1654 46.1843 53.1654 46.1301 53.1654 46.1301Z" fill="#FFDC00"/>
<path d="M52.6093 44.3435C52.2754 44.3977 53.0545 44.2894 52.6093 44.3435C52.6093 44.3435 52.7206 44.3435 52.6093 44.3435Z" fill="#FFDC00"/>
<path d="M52.8865 44.614C52.6639 44.7223 53.1091 44.5057 52.8865 44.614C52.8865 44.614 52.9422 44.614 52.8865 44.614Z" fill="#FFDC00"/>
<path d="M53.8339 45.8052C53.667 45.9135 53.6113 46.0218 53.5 46.1842C53.5557 45.9135 53.7783 45.9135 53.8339 45.8052Z" fill="#FFDC00"/>
<path d="M55.0568 36.1134C54.8898 36.0592 55.1681 36.1134 55.0568 36.1134C55.0011 36.0592 55.0568 36.0592 55.0568 36.1134Z" fill="#FFDC00"/>
<path d="M54.5572 34.1101C54.4459 34.2726 53.3885 34.1101 53.3329 34.056C53.2772 33.9477 53.4998 33.9477 53.5555 33.8394C53.4442 33.8936 53.4442 33.7311 53.4998 33.7311C53.4998 33.7311 52.9433 33.8394 53.1102 33.677C53.1659 33.5687 53.4442 33.677 53.5555 33.5687C53.4442 33.4604 53.0546 33.677 52.9989 33.5687C52.9433 33.5145 53.7224 33.0272 53.8337 33.5687C53.8337 33.4062 55.1694 33.0814 55.5033 33.298C55.559 33.3521 55.3364 33.4062 55.3364 33.4062C56.5608 33.4062 54.5572 34.1101 54.5572 34.1101Z" fill="#FFDC00"/>
<path d="M56.6155 37.9001C55.6138 38.1708 55.6694 37.9001 55.892 37.142C55.892 37.142 56.3373 37.0879 56.3929 37.0338C56.1703 36.3299 57.9512 37.5752 56.6155 37.9001Z" fill="#FFDC00"/>
<path d="M56.7274 36.0592C56.7831 36.0592 56.95 35.6802 57.117 35.7885C57.6736 36.2217 56.1709 36.0051 56.7274 36.0592C56.7831 36.0592 56.7274 36.0592 56.7274 36.0592Z" fill="#FFDC00"/>
<path d="M55.2797 30.7528C55.2797 30.6445 55.6136 30.5904 55.6693 30.6987C55.7249 30.9153 55.2241 30.8611 55.2797 30.7528C55.2797 30.7528 55.2797 30.807 55.2797 30.7528Z" fill="#FFDC00"/>
<path d="M59.0091 37.8459C58.9534 38.0625 58.7865 38.0625 58.6752 38.1708L58.8978 38.2249C58.8978 38.4415 56.8386 38.5498 56.8386 38.6039C56.7829 38.4415 57.6178 38.1708 57.6734 38.1708C57.5621 38.1708 57.0612 38.1708 57.0612 38.0625C57.0612 38.0083 57.3395 37.7917 57.3951 37.7376C57.2282 37.6835 57.1725 37.7376 57.1725 37.5752C57.1725 37.7376 57.6178 37.142 57.6178 37.0337C57.5621 37.0337 57.1725 37.142 57.1725 37.0337C57.1725 36.9796 57.3395 36.763 57.2838 36.7088C57.2838 36.7088 57.0612 36.9796 57.0056 36.9254C56.9499 36.8713 57.0612 36.7088 57.1169 36.6547C57.1169 36.6547 56.9499 36.8713 56.8943 36.763C56.8386 36.7088 57.2838 36.4923 57.1725 36.4923C57.1725 36.5464 56.9499 36.6547 56.9499 36.6547C56.8943 36.5464 57.0612 36.384 57.0612 36.3298C56.9499 36.384 56.9499 36.6005 56.8386 36.6005C56.9499 36.6005 56.8943 36.2757 56.8386 36.2215C57.1725 36.1132 57.7847 35.5718 57.9517 35.5718L58.063 35.6259C58.1743 35.6801 57.6178 36.1674 57.5621 36.1674C57.4508 35.9508 58.8421 37.521 58.5082 37.7917C58.7308 37.6835 59.1204 37.5752 59.0091 37.8459C59.0091 37.8459 59.0091 37.7917 59.0091 37.8459Z" fill="#FFDC00"/>
<path d="M55.6699 29.8325C55.7256 29.7242 55.6699 29.995 55.6699 29.8325C55.7256 29.8325 55.6699 29.8325 55.6699 29.8325Z" fill="#FFDC00"/>
<path d="M57.2278 34.5973C57.2278 34.5973 57.2834 34.9221 57.1164 34.9221C57.0608 34.868 56.9495 34.4348 57.2278 34.5973Z" fill="#FFDC00"/>
<path d="M55.6707 29.7781C55.3924 30.0488 55.782 29.6156 55.6707 29.7781C55.6151 29.7781 55.6707 29.7781 55.6707 29.7781Z" fill="#FFDC00"/>
<path d="M55.5039 29.8865C55.5596 29.9406 55.5596 30.1031 55.5039 29.8865V29.8865Z" fill="#FFDC00"/>
<path d="M57.1172 32.0523C57.3398 31.8898 57.4511 31.8357 57.1172 32.0523V32.0523Z" fill="#FFDC00"/>
<path d="M58.6207 35.2468C58.1754 35.7883 58.732 35.0303 58.6207 35.2468V35.2468Z" fill="#FFDC00"/>
<path d="M40.4219 29.7782C40.5332 29.6157 40.6445 29.5616 40.8671 29.6699C40.7001 29.7782 40.4219 29.7782 40.4219 29.7782Z" fill="#FFDC00"/>
<path d="M39.7536 28.9121C40.0875 29.3994 39.6979 28.8579 39.7536 28.9121V28.9121Z" fill="#FFDC00"/>
<path d="M39.4746 29.5617C39.5303 29.1826 40.1425 29.2368 40.1425 29.4534C40.1425 29.5075 39.9198 29.5617 39.9198 29.6158C39.9198 29.6158 40.1981 29.6158 40.1981 29.6699C39.8642 29.7782 39.6972 29.5617 39.4746 29.5617Z" fill="#FFDC00"/>
<path d="M38.25 29.1826C38.417 29.1826 39.1405 29.0743 39.2518 29.2909C39.2518 29.345 39.2518 29.3992 39.2518 29.5075C38.5839 29.6158 38.4726 29.345 38.25 29.1826Z" fill="#FFDC00"/>
<path d="M37.5271 29.67C37.4714 29.5617 38.0836 29.4534 37.5271 29.67V29.67Z" fill="#FFDC00"/>
<path d="M36.8592 29.4536C36.6366 29.3994 36.3583 29.616 36.0801 29.5077C36.247 29.3994 36.414 29.3994 36.581 29.3453C36.581 29.3453 36.414 29.3453 36.3583 29.3453C36.414 29.3994 37.1375 29.0204 37.2488 29.2911C37.3045 29.3453 36.9149 29.4536 36.8592 29.4536Z" fill="#FFDC00"/>
<path d="M36.8594 30.1572C37.3046 30.2114 37.1376 30.2114 36.8594 30.1572V30.1572Z" fill="#FFDC00"/>
<path d="M38.084 30.4824C38.0284 30.8615 37.8614 30.5366 37.6944 30.8073C37.8057 30.8073 37.7501 30.9156 37.7501 30.9156C37.7501 30.9156 37.917 30.7532 37.917 30.8615C38.0284 31.0239 36.5257 31.6195 36.47 31.0239C36.47 31.0239 36.4144 30.8615 36.47 30.8615C36.5814 30.699 36.9709 30.9156 37.1935 30.8073C37.1935 30.8073 36.9709 30.8615 37.0266 30.699C37.0822 30.4283 37.917 30.4824 38.084 30.4824Z" fill="#FFDC00"/>
<path d="M38.4166 30.2114C38.194 30.3197 37.1922 30.1573 37.3035 29.9407C37.5261 29.4534 37.6931 30.049 37.8601 30.049C37.8044 29.8324 38.6949 29.8866 38.8618 29.8324C38.9731 29.9948 38.5279 30.1573 38.4166 30.2114C38.4166 30.2114 38.5279 30.1573 38.4166 30.2114Z" fill="#FFDC00"/>
<path d="M39.3084 30.2114C39.1415 30.5362 38.7519 30.4279 38.5293 30.2114C38.585 30.2114 39.4198 30.0489 39.3084 30.2114C39.3084 30.2655 39.3084 30.2114 39.3084 30.2114Z" fill="#FFDC00"/>
<path d="M43.9278 29.6699C43.5383 29.6699 43.3713 29.6699 42.9817 29.8324C42.6478 30.3197 41.1451 29.7241 40.4216 30.1572C41.0895 30.1031 41.7573 30.1031 42.3695 30.3197C41.5347 30.5363 40.9782 30.4821 40.1434 30.4821C40.199 30.4821 40.1434 30.4821 40.1434 30.428C40.2547 30.428 40.2547 30.3738 40.2547 30.3197C40.1434 30.4821 39.5312 30.428 39.4755 30.3738C39.4199 30.1572 39.7538 30.1572 39.8095 29.9948C39.4755 29.9407 39.3642 29.9407 39.1973 29.7241C40.199 29.8865 40.9225 29.8324 41.813 29.6158C41.8686 29.4534 39.2529 29.4534 40.8669 28.8036C41.646 28.587 42.1469 28.966 42.6478 28.966C42.2026 28.8578 42.1469 28.8036 41.813 28.6953C43.7052 28.4246 46.2096 28.0997 48.0462 28.7495C47.7123 28.8036 47.434 28.8036 47.1001 28.8036L47.1558 28.8578C46.0427 29.1285 44.8739 29.1826 43.9278 29.6699Z" fill="#FFDC00"/>
<path d="M50.0501 50.7327C49.8275 50.5161 50.0501 50.6244 50.0501 50.7327V50.7327Z" fill="#FFDC00"/>
<path d="M49.9941 50.1912C49.8271 49.9746 50.2167 50.4078 49.9941 50.1912C49.9941 50.137 49.9941 50.1912 49.9941 50.1912Z" fill="#FFDC00"/>
<path d="M50.3266 50.6786C50.3823 51.0034 50.271 50.1912 50.3266 50.6786V50.6786Z" fill="#FFDC00"/>
<path d="M50.4393 50.4619C50.6619 50.6785 50.2167 50.2995 50.4393 50.4619C50.4393 50.5161 50.4393 50.4619 50.4393 50.4619Z" fill="#FFDC00"/>
<path d="M50.5508 50.3535C50.5508 50.4618 50.6621 50.0828 50.5508 50.3535C50.5508 50.4076 50.5508 50.3535 50.5508 50.3535Z" fill="#FFDC00"/>
<path d="M50.4939 50.137C50.3826 50.1911 50.6609 50.137 50.4939 50.137V50.137Z" fill="#FFDC00"/>
<path d="M47.4891 35.1388C46.6543 34.7056 45.7082 33.731 46.376 32.8647C45.8752 32.8105 47.4335 31.89 47.3222 31.89C47.2665 31.89 47.0439 31.8359 46.9882 31.89C47.0439 31.9442 47.2108 31.9983 47.2665 32.0525V32.1066C46.376 33.0812 46.71 31.0779 47.1552 31.6193C47.1552 31.6193 47.1552 31.8359 47.5448 31.8359L47.6004 31.7276C47.3222 31.7817 47.2108 31.6193 47.2665 31.4569C47.1552 31.5652 46.8769 31.6735 46.71 31.5652C46.6543 31.511 46.9326 31.2944 46.9882 31.2403C46.8769 31.2944 46.7656 31.3486 46.8213 31.1861C46.8769 31.132 47.0995 31.132 47.0995 31.0237C47.0995 31.0237 46.9326 31.1861 46.8769 31.0779C46.9326 31.0237 46.9882 30.9696 47.0439 30.9696C46.71 31.0237 46.8769 30.753 47.0439 30.6447C46.8769 30.374 46.9326 30.6447 46.9326 30.4281C46.9326 30.1574 45.4299 30.4281 45.5412 30.2115C45.4299 30.2657 44.4838 30.3198 44.5395 29.9949C44.5951 29.8325 44.8734 29.9408 45.0404 29.9408C44.9847 29.8867 44.5395 29.7784 44.5395 29.7242C44.5395 29.3993 46.7656 29.7242 46.71 29.2911C46.6543 29.2369 46.3204 29.3452 46.2647 29.2369C46.2091 29.0203 47.3778 29.1286 47.3778 29.1286C47.3778 29.1286 47.3778 29.1286 47.4335 29.1286C47.3778 29.0745 47.3778 29.0745 47.3778 29.0203C47.5448 28.8037 49.5483 28.8579 49.3813 28.9662C49.3257 28.9662 50.1048 28.9662 50.1605 28.9662C50.1048 28.9662 49.8822 28.912 49.9935 28.8037C50.1605 28.5872 50.9396 29.0203 51.1623 28.9662C51.1066 28.8037 50.6057 28.9662 50.6057 28.7496C50.6057 28.8579 53.611 28.533 53.611 28.7496C53.611 28.8579 53.3884 28.8037 53.3328 28.8579C53.3884 28.8579 55.7259 28.6955 55.7259 29.0203C55.7259 29.0745 55.0024 29.1286 54.8911 29.1286C54.9467 29.1828 55.7815 29.0203 55.4476 29.2911C55.7259 29.4535 55.7815 29.1286 55.7815 29.1286C55.7259 29.1286 57.3955 29.3993 57.3955 29.2911C57.3398 29.6159 55.7259 29.5076 55.6702 29.7242C55.6702 29.7242 55.8372 29.7784 55.7815 29.8325C55.5589 29.8867 55.1137 29.8867 55.0024 30.2115C55.058 30.2115 55.5589 29.8867 55.5589 30.2115C55.5589 30.3198 55.2806 30.2115 55.2806 30.2115C55.3919 30.374 55.6146 30.1032 55.6702 30.374C55.6702 30.374 55.3919 30.6447 55.4476 30.6988C55.6146 30.6988 54.9467 30.2115 55.0024 30.4823C55.0024 30.4823 55.0024 30.4823 55.0024 30.5364C55.0024 30.6447 55.5032 30.753 55.0024 30.9696C55.058 31.0237 55.2806 31.0237 55.2806 31.0779C55.3363 31.2403 54.7797 31.1861 54.7241 31.2403C54.7797 31.2944 54.7797 31.2944 54.8354 31.2944C54.5571 31.4027 54.3902 31.3486 54.1119 31.4027C54.1676 31.4569 54.3902 31.4569 54.3902 31.511C54.5015 31.89 53.8893 31.6735 53.778 31.6193C53.611 31.511 53.8893 31.4569 53.9449 31.4027C53.8893 31.3486 53.611 31.3486 53.5554 31.4027C54.8354 32.3232 53.6667 32.0525 53.0545 32.2149C53.3328 32.2691 53.7223 32.2691 54.0006 32.2691C54.1119 32.4856 51.7188 32.9188 51.4405 32.6481C51.4962 32.5398 47.2108 34.9763 47.4891 35.1388C47.4891 35.1388 47.5448 35.1388 47.4891 35.1388Z" fill="#FFDC00"/>
<path d="M49.659 42.5024C49.3807 42.5024 50.2712 42.5566 49.659 42.5024C49.659 42.5024 49.7147 42.5024 49.659 42.5024Z" fill="#FFDC00"/>
<path d="M73.2004 61.2368C73.0891 61.4534 73.5343 62.1031 73.2004 62.2656C73.1448 62.2656 73.1448 62.1031 73.0891 62.1031C73.1448 62.1031 72.1987 66.4889 71.0856 65.406C70.696 65.027 71.0299 62.4822 71.2525 62.1031C71.0856 62.3739 73.3117 61.1827 72.6439 61.1827C72.9222 61.1827 72.7552 60.7495 73.0335 60.7495C73.0335 60.8037 73.2004 61.291 73.2004 61.2368Z" fill="#FFDC00"/>
<path d="M74.871 52.3029C74.7597 52.4653 74.5371 52.3029 74.5371 52.1946C74.5928 52.1946 74.9823 52.1946 74.871 52.3029C74.871 52.3029 74.9267 52.3029 74.871 52.3029Z" fill="#FFDC00"/>
<path d="M34.2425 29.8866C34.1868 29.8325 34.0755 29.8866 34.2425 29.8866V29.8866Z" fill="#FFDC00"/>
<path d="M34.8562 29.8326C35.1901 29.7785 34.5222 29.7785 34.8562 29.8326V29.8326Z" fill="#FFDC00"/>
<path d="M32.5181 31.1319C32.7964 31.0236 32.4625 31.1319 32.5181 31.1319C32.5738 31.0777 32.5181 31.1319 32.5181 31.1319Z" fill="#FFDC00"/>
<path d="M43.2043 28.9661C42.9817 29.2368 43.1486 29.0744 43.2043 28.9661V28.9661Z" fill="#FFDC00"/>
<path d="M35.3572 31.7275C35.5242 31.6733 35.2459 31.8357 35.3572 31.7275C35.4129 31.7275 35.3572 31.7816 35.3572 31.7275Z" fill="#FFDC00"/>
<path d="M23.3916 44.2353C23.6142 44.1811 23.3359 45.1016 23.3359 45.1016C24.3377 46.5094 24.616 48.2962 26.3412 49.4332C27.0647 49.8664 28.0109 49.325 28.4561 50.1913C28.6787 50.5703 29.5135 50.6786 29.9031 50.6786C30.404 50.7327 30.4596 52.6278 31.2388 52.682C31.2388 52.682 31.4614 52.3571 31.6283 52.5737C31.7396 52.682 31.4614 52.682 31.4614 52.682C31.4057 52.7361 31.517 52.8444 31.517 52.8444C31.684 52.8444 32.5188 52.1405 32.5745 52.4654C32.6301 53.061 32.7971 53.9273 32.8527 54.1439C32.6301 53.6566 31.2944 57.0136 31.9066 56.2556C31.684 57.8258 32.3518 58.638 33.1866 60.3706C33.6875 61.4535 36.3589 62.1574 35.3015 63.836C34.9119 64.5398 35.1902 69.8461 35.8024 70.171C35.6354 70.2251 35.6911 70.7666 35.9137 70.7666C36.0806 70.7666 35.9693 70.2793 35.9693 70.1168H36.025C36.0806 70.1168 36.3033 71.0914 36.1919 71.1456C36.0806 71.1456 36.0806 70.929 35.9693 70.8749C36.0806 70.8749 35.9137 71.9578 35.9693 71.9578C35.9137 71.9578 36.4146 71.9036 36.4702 71.7412C36.5259 71.7953 36.6372 72.0661 36.5815 72.1202C35.5798 72.4992 37.2494 73.7446 37.305 73.8529V73.907C37.1937 73.907 37.0824 73.7987 37.0824 73.9612C37.1381 74.4485 39.3086 74.7192 39.3642 74.8275C39.4199 74.8816 39.5868 75.0982 39.6425 75.0441C39.6425 75.0441 39.6981 74.9899 39.6981 75.0441C39.6981 74.9899 39.5312 74.9358 39.5312 74.8816C39.6425 74.8816 40.0321 74.8275 40.0321 74.6651C40.0321 74.6651 40.0321 74.6109 39.9764 74.6109C37.9172 74.0695 38.9746 73.3114 38.8633 72.3368C38.8633 72.2285 37.6389 71.2539 38.4181 71.3622C38.6964 71.3622 38.5294 70.3876 38.4738 70.4958C38.5851 70.2251 38.6964 70.7666 38.8633 70.6041C38.9746 70.4417 37.9172 70.1168 38.2511 69.9002C38.1398 70.0085 39.5312 70.2251 39.0303 69.792C38.9746 69.7378 38.9746 69.1964 38.919 69.2505C41.2564 68.7632 39.6981 68.8715 39.7538 67.6803C39.6981 68.8173 42.3695 66.5432 41.8686 66.3266C41.9243 66.3808 41.5904 66.7598 41.7573 66.7598C42.2025 66.7598 42.4808 64.5398 42.9817 64.1067C43.4826 63.6735 44.5957 63.9442 44.8183 62.8613C44.9296 62.2657 44.9296 61.237 45.1522 60.6414C45.1522 60.2623 47.4897 57.3385 45.987 57.5009C45.3748 57.5551 45.1522 56.5263 44.4844 56.6887C44.2617 56.7429 43.4826 56.6346 43.3156 56.5805C43.3156 56.5805 43.3713 56.039 43.2043 56.0931C42.7034 56.039 42.2025 55.6058 41.7573 56.418C41.7573 56.2556 41.813 54.1439 41.1451 54.0898C40.8669 54.0898 39.2529 52.8986 38.9746 53.2234C39.1972 52.5195 38.4738 52.7361 38.2511 52.4654C38.1955 52.3571 37.8616 51.9781 37.7503 51.8156C37.8059 51.8156 38.0842 51.8156 38.0842 51.7615C38.1955 52.3571 35.1902 51.1659 35.5241 51.1659C35.6354 51.1659 34.9676 51.7615 34.9676 51.6532C34.9676 51.5449 35.1902 51.1659 35.1902 51.1659C34.745 50.5703 33.0753 52.5737 33.2423 52.6278C33.0197 52.5737 30.4596 51.8156 31.2388 51.0576C32.4631 49.8123 30.2927 49.9206 29.7918 49.704C30.1257 49.2708 30.1813 48.7835 30.4596 48.3503C31.1831 47.0508 29.2909 48.0796 29.3465 48.4586C29.4578 48.9459 27.6769 48.8918 27.4543 47.7547C27.2317 47.9713 28.79 44.2353 28.957 44.885C28.957 44.8309 30.5153 45.2099 30.3483 44.9933C30.5153 44.9933 30.4596 45.2099 30.5709 45.2099C30.1257 45.1016 31.0718 44.6684 31.1275 44.5601C31.1275 44.6143 31.0718 44.7226 31.0718 44.7226C31.0718 44.5601 33.298 45.1016 32.5188 45.5889C32.5188 45.6972 32.5188 46.6177 32.7414 46.6177C33.1866 46.6718 33.1866 43.8021 34.2441 43.5855C34.9676 43.4772 35.0789 42.9358 35.3015 42.7733C35.4128 42.7192 35.3571 41.6363 35.8024 41.6363C35.8024 41.6904 35.4128 42.3402 35.5241 42.4485C35.6354 42.6109 35.9693 41.6904 35.9693 41.6363C35.9693 41.6363 36.1363 41.8529 36.0806 41.8529C36.1919 41.8529 36.9711 40.7158 37.1937 41.0407C37.1937 41.0407 36.9154 41.0407 36.8598 41.0948C37.4163 40.9865 37.5276 40.8241 37.5276 41.0407C37.5276 41.149 38.1398 40.7158 37.8616 40.7158C37.9172 40.7158 37.6946 40.8783 37.6946 40.8783L37.6389 40.6617C37.6946 40.3909 38.3624 40.1744 38.5851 39.9578C38.5851 40.0661 38.4738 40.0119 38.4738 40.1202C38.4738 40.0661 39.8651 39.6329 39.9764 39.5246C39.9764 39.5788 39.7538 39.6329 39.7538 39.6871C39.7538 39.7953 40.0321 39.6871 40.0321 39.6871C40.0877 39.8495 39.0859 39.7953 39.2529 40.2827C39.3642 40.5534 39.8651 39.9578 39.9207 39.9036C40.366 40.0119 41.5347 39.1456 41.2564 39.1456C40.9225 39.1456 40.7556 39.5246 40.4216 39.5246C39.6981 39.1456 40.4773 39.0373 40.3103 38.8207C40.2547 38.7666 39.8094 38.929 39.6981 38.7666C40.0321 38.8749 40.199 38.6041 40.4773 38.4959C40.6999 37.9544 38.2511 39.0914 38.3068 39.0914C39.6425 38.1168 40.8669 38.171 42.3139 37.792C43.5382 37.9003 43.5382 36.33 42.6478 36.8173C42.7591 36.6549 43.1487 36.7632 43.26 36.6549L43.093 36.4383C43.093 36.4383 42.6478 36.4925 42.5921 36.4383C42.4252 36.3842 42.5921 36.1134 42.3695 36.0593C42.4808 35.951 42.7034 34.8681 42.4252 34.7057C42.4252 34.7057 41.0895 35.7344 41.0895 35.3013C41.0895 35.3013 40.9225 34.4891 41.2564 34.4891C41.3121 34.5974 40.7556 34.3808 40.7556 34.3808C40.8112 34.3266 40.9225 34.3266 40.9225 34.2725C41.0338 33.352 39.0303 34.6515 39.0859 34.5974C38.3068 35.5178 37.6946 36.3842 36.8598 37.5212C36.7485 38.4417 36.4702 35.7886 36.7485 36.2759C36.6372 36.1134 36.1363 36.1134 35.9693 36.2217C36.1919 35.8969 34.745 35.572 34.5223 35.572C34.578 35.5178 34.8006 35.0847 34.8006 35.0305C34.6893 34.9222 34.5223 35.0847 34.4667 34.9764C34.2997 34.814 36.5259 33.4062 36.6372 33.5686C36.5259 33.4062 36.1919 33.5686 36.0806 33.352C37.1381 33.6769 37.5276 33.0813 38.4738 32.8106C38.1398 33.0813 37.8616 33.352 37.5833 33.5686C38.4738 33.4603 37.6389 33.5145 37.8616 33.731C37.6946 33.6228 39.3642 33.5686 39.3086 33.5686C39.4755 33.4603 38.9746 33.4062 38.9746 33.4062C39.0859 33.2979 38.6964 32.8106 38.6407 32.8106C38.5851 32.8106 38.5851 33.0272 38.4738 33.0272C38.5851 32.9189 38.5294 32.8106 38.4738 32.7023C38.8077 32.6481 38.6964 32.973 38.9746 32.973C39.0859 32.973 38.919 32.7564 38.919 32.7564C39.0859 32.5398 40.5329 32.4316 40.199 31.7818C40.199 31.7277 41.3677 31.9442 41.2008 31.5111C41.3121 31.6194 41.5347 31.9984 41.646 31.8901V31.9442C41.5904 31.9984 41.3121 31.8901 41.3677 32.0525C41.3677 32.1067 41.813 32.1067 41.813 32.1067C41.813 32.1067 41.7573 32.215 41.813 32.2691C41.7573 32.2691 41.5904 32.215 41.5904 32.3774C41.646 32.7564 41.9243 32.215 41.9243 32.215C41.9243 32.3233 41.9799 32.2691 42.0356 32.2691C41.9799 32.7564 41.3677 32.594 41.3121 33.0272C41.0338 33.1896 40.0877 32.8647 39.9764 33.2979C40.0877 32.8106 42.0356 34.3266 42.4252 34.3266C42.7034 34.3266 42.0912 33.731 42.0912 33.6769C42.3695 33.6769 42.5921 34.1642 42.8147 34.1642C42.9817 34.1642 42.8704 33.731 42.9817 33.731C42.9817 33.731 43.093 33.9476 43.1487 33.7852C43.2043 33.6228 43.093 33.5686 43.0374 33.4603C43.093 33.4603 43.1487 33.6228 43.2043 33.5145C43.2043 33.4603 42.7034 33.0272 42.7034 33.0272C42.7034 33.0813 44.0391 33.2437 44.4844 32.8106C44.373 32.7564 43.26 32.215 43.26 32.215C43.26 32.1067 43.8165 32.1067 43.8165 32.0525C43.8165 32.0525 43.5939 31.9984 43.5382 31.9442V31.8901C43.5939 31.8901 43.7052 31.9442 43.7609 31.8901C43.8722 31.6735 43.5382 31.7277 43.4269 31.7818C43.4269 31.7277 43.5939 31.6735 43.5939 31.6194C43.4826 31.4028 42.7591 31.2404 42.6478 31.4028C42.5921 31.0238 42.4252 31.1862 42.2582 30.9696C42.3695 30.5906 41.479 30.5906 41.479 30.753C41.479 31.1321 41.9243 30.8072 42.0356 30.9155C42.0912 30.9696 41.2008 31.0779 41.1451 31.0779C41.1451 31.0779 41.479 30.753 41.4234 30.6448C41.4234 30.4823 39.9207 30.753 39.8651 31.0779C39.8094 31.1862 40.0877 31.1321 40.0877 31.1862L39.9764 31.2404C39.9207 31.2404 39.8094 31.1321 39.8094 31.0779C39.7538 30.8613 40.6442 30.6448 40.6442 30.5365C40.5886 30.2657 38.752 30.8072 38.8077 31.1862C38.8077 31.1862 39.2529 31.2404 39.3086 31.2945C39.2529 31.2945 38.752 31.1862 38.752 31.3486C38.8077 31.6194 40.0321 31.6194 40.0321 31.6194L39.9207 31.6735C40.199 31.2404 38.8077 32.1608 39.3086 31.8901C39.2529 31.9442 38.6964 32.1608 38.6407 32.1608C38.5851 32.1608 38.8077 32.0525 38.6964 32.0525C38.5851 32.0525 38.3624 32.2691 38.1955 32.3774C38.1955 32.3233 38.1398 32.215 38.0842 32.215C38.4181 31.6735 37.9172 31.6735 37.8059 32.0525C37.6389 31.6735 38.1398 31.8901 38.1398 31.7277C38.1955 31.4569 37.6946 31.6194 37.6389 31.5652C37.8059 31.4569 38.3068 31.1862 37.8616 30.9155C38.0285 30.6448 39.1416 30.4823 39.4199 30.374C39.1416 29.5618 36.8598 31.2945 36.8041 31.3486C36.6928 31.5652 37.1381 31.5111 37.1937 31.5652C37.1937 31.6194 37.2494 31.6194 37.2494 31.6194C37.1937 31.6194 36.8041 31.6735 36.8041 31.7818C36.8041 31.7277 36.3589 32.3233 36.1919 32.215L36.1363 32.1608C36.1363 32.1067 36.4146 31.8901 36.4146 31.9442C36.4146 31.8901 36.1919 31.9442 36.1363 31.8901C36.1363 31.8901 36.8598 31.6735 36.9154 31.6194C37.0268 31.4569 35.6911 31.5111 35.7467 31.7277C35.7467 31.836 35.9693 31.7277 36.025 31.7818C35.6911 32.1067 34.9676 32.215 34.2997 31.8901C34.745 31.7818 33.5206 31.4569 33.3536 31.7818C33.298 31.8901 33.4649 31.8901 33.5206 31.8901L33.2423 32.215C33.2423 32.215 33.131 32.215 33.131 32.1608C33.1866 32.1067 33.131 31.8901 32.964 31.8901L33.1866 31.7818C33.1866 31.7277 31.9066 31.9984 31.684 31.836C31.684 31.6735 32.2405 31.836 32.1849 31.6735C31.6283 30.5906 29.2352 33.6228 28.9013 33.9476C26.6195 37.1422 24.616 40.5534 23.3916 44.2353C23.3916 44.1811 25.0055 39.4163 23.3916 44.2353ZM36.4146 71.6329C36.4146 71.4163 36.4702 71.4705 36.4146 71.6329C36.4146 71.687 36.4146 71.6329 36.4146 71.6329ZM36.4702 71.687C36.5259 71.8495 36.4702 71.6329 36.4702 71.687C36.4702 71.7412 36.4702 71.687 36.4702 71.687ZM36.4146 71.4163C36.3033 71.2539 36.4146 71.308 36.4146 71.4163C36.3589 71.4163 36.4146 71.3622 36.4146 71.4163ZM37.0824 73.6904C37.0268 73.7446 37.0824 73.6363 37.0824 73.6904V73.6904ZM34.8006 51.9781C35.1902 51.5991 34.9676 52.303 34.9119 52.303C34.8006 52.303 34.6893 52.0322 34.8006 51.9781ZM30.4596 51.3825C30.6822 51.1118 30.5153 51.2742 30.4596 51.3825C30.5153 51.3825 30.4596 51.3825 30.4596 51.3825ZM42.3139 37.0339C42.4808 36.9798 42.5365 36.9256 42.6478 36.9256C42.5921 36.9798 42.3695 37.0339 42.3139 37.0339C42.3695 36.9798 42.3139 37.0339 42.3139 37.0339ZM41.3121 33.731C41.2564 33.8393 41.3677 33.6769 41.3121 33.731V33.731ZM41.646 32.1067C41.7573 32.1608 41.4234 32.1067 41.646 32.1067V32.1067ZM40.3103 31.0779C40.366 31.1321 40.4216 31.1321 40.3103 31.0779V31.0779ZM37.305 31.9984C37.305 31.8901 37.305 32.1608 37.305 31.9984V31.9984ZM37.1937 32.9189C37.472 32.9189 37.5276 32.973 37.7503 33.0813C37.5276 33.0813 37.2494 32.8647 37.1937 32.9189C37.1937 32.9189 37.1381 32.9189 37.1937 32.9189ZM36.0806 32.2691C36.3033 32.3774 35.9693 32.2691 36.0806 32.2691C36.0806 32.2691 36.025 32.2691 36.0806 32.2691ZM34.5223 32.0525C34.5223 31.836 34.5223 32.1608 34.5223 32.0525V32.0525ZM30.3483 44.7767C30.5153 44.5601 30.2927 44.885 30.3483 44.7767V44.7767Z" fill="#FFDC00"/>
<path d="M22.9458 45.8593C23.0015 45.9135 23.2798 47.213 23.558 47.1588C23.725 47.213 23.3911 45.3179 23.1685 44.9388C23.725 43.152 22.7789 45.751 22.9458 45.8593Z" fill="#FFDC00"/>
<path d="M37.0829 73.6915C37.0829 73.6915 37.0829 73.6342 37.0829 73.6915C37.0238 73.6915 37.0829 73.6915 37.0829 73.6915Z" fill="#FFDC00"/>
<path d="M38.1386 51.8155C38.0273 51.9238 37.8603 52.1404 38.1386 52.1404C38.3612 52.1404 38.3056 51.599 38.1386 51.8155C38.1386 51.8155 38.1943 51.7614 38.1386 51.8155Z" fill="#FFDC00"/>
<path d="M40.7556 39.3621C40.533 39.3621 40.2547 39.1997 40.3104 39.1997C40.2547 39.1997 40.2547 39.2539 40.1991 39.2539C39.5869 39.4163 41.2008 39.3621 40.7556 39.3621C40.7556 39.3621 40.8113 39.3621 40.7556 39.3621Z" fill="#FFDC00"/>
<path d="M41.0325 38.2792C40.9768 38.225 40.6429 38.1168 40.5872 38.225C40.3646 38.5499 41.8673 38.6041 41.0325 38.2792C41.0325 38.2792 41.0881 38.2792 41.0325 38.2792Z" fill="#FFDC00"/>
<path d="M41.5905 34.6511C41.0896 34.8677 41.7018 34.597 41.5905 34.6511C41.5348 34.6511 41.5905 34.6511 41.5905 34.6511Z" fill="#FFDC00"/>
<path d="M40.0315 33.6766C39.7532 33.4058 40.3098 33.8932 40.0315 33.6766C39.9758 33.6224 40.0315 33.6766 40.0315 33.6766Z" fill="#FFDC00"/>
<path d="M39.6964 33.6768C39.3069 33.4602 40.086 34.0017 39.6964 33.6768V33.6768Z" fill="#FFDC00"/>
<path d="M39.8649 33.6226C40.2545 33.5143 39.5866 33.6767 39.8649 33.6226V33.6226Z" fill="#FFDC00"/>
<path d="M39.086 34.0557C38.9747 33.8933 38.5852 34.2182 38.8078 34.3806C38.8634 34.3806 39.1974 34.164 39.086 34.0557Z" fill="#FFDC00"/>
<path d="M38.5848 33.7852C38.4735 33.7852 37.917 33.8393 37.9727 34.0017C38.084 34.3266 38.6961 33.8393 38.5848 33.7852Z" fill="#FFDC00"/>
<path d="M36.5244 36.9255C35.9122 36.9255 37.1366 36.9797 36.5244 36.9255C36.5244 36.9255 36.58 36.9255 36.5244 36.9255Z" fill="#FFDC00"/>
<path d="M41.1445 32.269C40.9775 32.269 40.8105 32.4856 40.8105 32.648C41.2001 32.5397 41.868 32.2148 41.1445 32.269C41.0888 32.269 41.2001 32.269 41.1445 32.269Z" fill="#FFDC00"/>
<path d="M40.5879 32.3231C40.9775 32.269 40.5879 32.3231 40.5879 32.3231V32.3231Z" fill="#FFDC00"/>
<path d="M40.6986 32.1609C40.8099 32.1609 41.2551 31.9443 41.1994 31.836C41.1438 31.7277 40.5873 32.1609 40.6986 32.1609C40.6986 32.1609 40.6429 32.1609 40.6986 32.1609Z" fill="#FFDC00"/>
<path d="M41.2012 31.9982C41.5351 31.8899 41.2012 31.8899 41.2012 31.9982V31.9982Z" fill="#FFDC00"/>
<path d="M41.5888 73.6905C41.4219 73.4739 41.2549 73.6905 41.1436 73.7988C41.1992 73.5822 40.8653 73.4739 40.754 73.6363C40.6984 73.6905 40.8653 73.7446 40.921 73.7446C40.8097 73.7988 40.6984 73.6363 40.6427 73.7446C40.5314 73.9612 40.9766 74.0153 41.0879 73.8529C41.0323 74.2319 41.7558 73.8529 41.5888 73.6905Z" fill="#FFDC00"/>
<path d="M34.3549 48.4584C34.1323 48.4584 32.6296 46.5633 31.2383 47.7545C31.2939 47.7004 32.1287 47.4838 32.2957 47.538C32.2957 47.5921 32.1844 47.5921 32.1844 47.5921C32.24 47.8087 33.5201 47.917 33.5757 48.1877C33.687 48.296 33.4088 48.3502 33.3531 48.4584C33.687 48.5126 34.021 48.4584 34.3549 48.4584C34.3549 48.4584 34.2992 48.4584 34.3549 48.4584Z" fill="#FFDC00"/>
<path d="M31.9049 47.7004C31.7936 48.0253 31.9049 47.8629 31.9049 47.7004V47.7004Z" fill="#FFDC00"/>
<path d="M33.5195 46.8882C33.5195 46.8882 33.7421 47.159 33.7421 47.1048C33.9647 46.78 33.3525 46.5634 33.5195 46.8882Z" fill="#FFDC00"/>
<path d="M34.912 48.1338C34.8007 48.0796 34.7451 48.1879 34.912 48.1338C34.912 48.1338 34.8564 48.1338 34.912 48.1338Z" fill="#FFDC00"/>
<path d="M33.7427 49.0542C33.6871 49.0542 33.0749 48.7834 33.1305 49.0542C33.2418 49.4332 33.854 49.0542 33.7427 49.0542C33.6871 49 33.7427 49.0542 33.7427 49.0542Z" fill="#FFDC00"/>
<path d="M36.1911 48.8917C35.9128 48.5127 35.2449 48.4585 34.7441 48.5127C34.8554 48.6209 34.8554 48.9458 34.7997 48.9458C34.9667 48.9458 34.911 48.7834 35.0223 48.9458C34.911 48.9458 34.2988 48.8375 34.2988 49C34.2988 48.9458 35.4119 49.3248 35.3006 49.3248C35.4676 49.379 36.4137 49.1083 36.1911 48.8917C36.1911 48.8375 36.2467 48.8917 36.1911 48.8917Z" fill="#FFDC00"/>
<path d="M37.0814 49.0542C36.9701 49.1083 36.7475 49.0001 36.5805 49.0542C36.6362 49.1083 36.5249 49.1625 36.5805 49.2166C36.7475 49.4874 37.1927 49.0542 37.0814 49.0542Z" fill="#FFDC00"/>
<path d="M37.9167 49.3247C38.2506 49.3788 37.5828 49.3247 37.9167 49.3247C37.9167 49.3247 37.8611 49.3247 37.9167 49.3247Z" fill="#FFDC00"/>
<path d="M38.307 49.812C37.8062 50.1369 38.641 49.5955 38.307 49.812C38.2514 49.812 38.307 49.812 38.307 49.812Z" fill="#FFDC00"/>
<path d="M38.4184 50.3535C38.3627 50.6784 38.4741 50.3535 38.4184 50.3535V50.3535Z" fill="#FFDC00"/>
<path d="M38.4178 50.6781C38.4178 50.6781 38.1396 51.0571 38.2509 51.0571C38.3065 51.003 38.4178 50.624 38.4178 50.6781C38.4178 50.624 38.4178 50.6781 38.4178 50.6781Z" fill="#FFDC00"/>
<path d="M38.1394 51.2739C38.0837 51.4364 38.0837 51.4364 38.1394 51.2739V51.2739Z" fill="#FFDC00"/>
<path d="M38.306 44.1267C38.306 44.1809 37.9164 44.4516 38.139 44.4516C38.3616 44.5057 38.7512 43.9101 38.306 44.1267Z" fill="#FFDC00"/>
<path d="M41.0898 38.9289C40.9785 38.7665 41.3124 39.2538 41.0898 38.9289C41.0898 38.9289 41.1455 38.9831 41.0898 38.9289Z" fill="#FFDC00"/>
<path d="M43.5368 38.4414C43.4811 38.4414 43.0915 38.4414 42.9802 38.3331C42.9802 38.279 43.2029 38.2248 43.1472 38.1707C43.0915 38.1165 42.8133 38.2248 42.8133 38.2248C42.8689 38.0082 43.4255 37.7916 43.4255 37.6833C43.4255 37.7916 41.7559 38.658 41.7559 38.9287C41.7559 38.9828 42.8689 39.037 42.9246 39.037C42.8689 39.0911 42.702 39.1453 42.702 39.1994C42.6463 39.4702 43.3142 38.9828 43.3142 38.9828C43.3142 39.037 43.1472 39.3077 43.1472 39.3077C43.2029 39.3619 43.3142 39.2536 43.3142 39.2536C43.2585 39.6326 43.7594 39.037 43.6481 38.8746C43.5924 38.7663 43.4811 38.9287 43.4811 38.9287C43.4811 38.8746 43.7594 38.7121 43.7037 38.658C43.5924 38.6038 43.5368 38.8746 43.4255 38.8204C43.3698 38.8204 43.5924 38.4414 43.5368 38.4414Z" fill="#FFDC00"/>
<path d="M42.4792 39.1997C42.3679 39.2539 42.4792 39.4704 42.4792 39.1997C42.4235 39.2539 42.4792 39.1997 42.4792 39.1997Z" fill="#FFDC00"/>
<path d="M42.5921 34.2722C42.5364 34.2722 42.3138 34.6512 42.5921 34.2722V34.2722Z" fill="#FFDC00"/>
<path d="M44.3731 29.3992C45.2079 29.1826 46.2096 29.0202 47.1558 28.8578C47.1558 28.8578 47.0444 28.8578 47.1001 28.8036C47.434 28.8036 47.7123 28.7495 48.0462 28.7495C46.2653 28.0997 43.7609 28.3704 41.813 28.6953C42.2026 28.8578 42.2026 28.9119 42.6478 28.9661C42.0913 28.9661 41.7573 28.7495 41.0338 28.8036C39.1416 28.8578 41.813 29.8865 41.813 29.6158C40.9225 29.8324 40.1434 29.8865 39.1973 29.7241C39.3642 29.8865 39.5312 29.9407 39.8095 29.9948C39.7538 30.1573 39.4755 30.1573 39.4755 30.3738C39.4755 30.428 40.1434 30.4821 40.2547 30.3197C40.2547 30.428 40.199 30.428 40.1434 30.428C40.199 30.428 40.199 30.428 40.1434 30.4821C40.9782 30.4821 41.5347 30.5363 42.3695 30.3197C41.7573 30.1031 41.0895 30.1031 40.4216 30.1573C41.0895 29.7241 42.6478 30.3738 42.9817 29.8324C43.4826 29.7782 43.9278 29.5617 44.3731 29.3992ZM43.3156 29.1826C43.3156 29.1285 42.9261 29.0202 42.8704 29.0202C42.8704 29.0202 43.4269 28.966 43.3156 29.1826Z" fill="#FFDC00"/>
<path d="M40.532 29.7781C41.4225 29.8322 40.1981 29.7781 40.532 29.7781C40.532 29.7781 40.4764 29.7781 40.532 29.7781Z" fill="#FFDC00"/>
<path d="M39.6426 29.6698C39.8652 29.6698 39.9765 29.724 40.1991 29.6157C40.1435 29.5616 39.9209 29.5616 39.9209 29.5616C39.9209 29.5616 40.1435 29.5074 40.1435 29.3991C40.1435 28.7494 39.5869 29.8323 39.6426 29.6698Z" fill="#FFDC00"/>
<path d="M39.8086 29.1284C39.8086 28.7494 39.6416 29.1284 39.8086 29.1284V29.1284Z" fill="#FFDC00"/>
<path d="M38.3633 29.3449C38.5859 29.3991 38.8642 29.5615 39.1981 29.5074C39.1981 29.4532 39.1981 29.3991 39.1981 29.2908C38.9198 28.6952 38.3633 29.3991 38.3633 29.3449Z" fill="#FFDC00"/>
<path d="M37.7502 29.7243C37.5833 29.4536 37.5833 29.4536 37.7502 29.7243V29.7243Z" fill="#FFDC00"/>
<path d="M38.585 30.1572C38.585 30.103 38.9746 29.9406 38.8076 29.7782C38.6407 29.8323 37.7502 29.7782 37.8059 29.9947C37.6946 30.0489 37.5276 29.3991 37.2493 29.8865C37.138 30.2655 38.3624 30.2113 38.585 30.1572Z" fill="#FFDC00"/>
<path d="M39.2528 30.1571C38.8632 30.2113 38.7519 30.0489 38.5293 30.2654C38.9745 30.5362 39.1971 30.1571 39.2528 30.1571Z" fill="#FFDC00"/>
<path d="M37.8064 30.428C37.6951 30.428 37.0829 30.4821 37.0272 30.6446C36.9716 30.7529 37.1942 30.6987 37.1942 30.7529C36.9716 30.8611 36.582 30.6446 36.4707 30.807V30.9694C36.5264 31.565 38.029 30.9694 37.9177 30.807C37.9177 30.7529 37.7507 30.9153 37.7507 30.8611C37.6951 30.8611 37.8064 30.7529 37.6951 30.7529C37.7507 30.6987 38.5299 30.4821 37.8064 30.428Z" fill="#FFDC00"/>
<path d="M32.5738 31.4024C32.7964 31.4024 33.2973 31.2941 33.5199 31.4566C33.2973 31.4566 32.1842 31.3483 32.1286 31.5649C32.0729 31.8356 32.6851 31.7273 32.7964 31.7273C32.7964 31.8356 32.6295 31.8356 32.6851 31.9439C32.7964 32.2146 35.6904 31.7273 35.5791 31.7273C35.6347 31.7273 35.6347 31.6732 35.6904 31.6732C35.7461 31.7814 36.08 31.8356 36.08 31.619C36.08 31.4566 35.5791 31.4566 35.5791 31.4024C35.5791 31.1858 36.5252 30.7527 36.5252 30.6444C36.5252 30.6985 35.8574 30.3195 35.913 30.7527C35.4678 30.7527 35.5234 30.9151 34.9669 31.1317C34.9669 30.9693 35.2452 30.6985 34.7999 30.6985C34.8556 30.6985 34.633 30.9151 34.466 30.861C34.5217 30.8068 34.5217 30.8068 34.5773 30.8068C33.7425 29.9946 33.7425 30.9693 32.6295 31.0776C32.5738 31.1858 32.0173 31.24 32.5738 31.4024ZM35.3565 31.7273C35.3565 31.6732 35.3565 31.8356 35.3565 31.7273V31.7273ZM33.019 30.7527C33.1303 30.7527 32.7964 30.7527 33.019 30.7527C33.019 30.7527 32.9634 30.7527 33.019 30.7527ZM32.6851 31.1317C32.7408 31.1317 32.5738 31.1858 32.6851 31.1317V31.1317Z" fill="#FFDC00"/>
<path d="M35.467 31.9439C35.3001 31.8897 35.3001 32.1604 35.467 31.9439V31.9439Z" fill="#FFDC00"/>
<path d="M35.9132 31.89C35.4124 31.8359 35.8576 31.89 35.9132 31.89V31.89Z" fill="#FFDC00"/>
<path d="M36.9149 30.2114C37.4158 30.428 36.6923 30.049 36.9149 30.2114V30.2114Z" fill="#FFDC00"/>
<path d="M34.0212 30.0488C34.0769 30.0488 34.5221 29.9405 34.5221 29.8863C34.5221 29.8322 34.2995 29.9946 34.2438 29.8863C34.3551 29.8322 34.5221 29.7239 34.6334 29.778C34.5221 29.8322 34.6334 29.9405 34.6334 29.9946C34.5221 29.9946 34.1325 30.0488 34.1325 30.1029C34.0212 30.3195 35.023 30.0488 35.023 30.0488C34.9673 30.2654 35.0786 30.2112 35.2456 30.1571C35.2456 30.4278 34.5778 30.1029 34.5221 30.2653C34.5221 30.2653 36.9709 30.4819 37.0265 29.9946L36.9152 29.8863C36.7483 29.8863 36.6926 29.9946 36.47 29.8863C36.5256 29.8863 36.7483 29.7239 36.6926 29.7239C35.9134 30.2112 35.8578 29.778 35.1343 29.7239C35.1899 29.7239 35.5239 29.5073 35.5239 29.5073C35.3013 29.1283 33.9656 30.0488 34.0212 30.0488ZM35.0786 29.7239C35.0786 29.7239 35.023 29.7239 35.0786 29.7239V29.7239ZM34.9673 29.778C35.0786 29.778 34.4108 29.7239 34.9673 29.778C34.9673 29.778 34.8004 29.778 34.9673 29.778Z" fill="#FFDC00"/>
<path d="M35.6351 29.67C35.0786 29.5617 35.969 29.7241 35.6351 29.67C35.6351 29.67 35.6907 29.67 35.6351 29.67Z" fill="#FFDC00"/>
<path d="M36.9705 29.4534C37.0262 28.7495 36.581 29.8325 36.3583 29.3451C36.3583 29.3993 36.581 29.3993 36.581 29.3451C36.414 29.3993 36.247 29.3993 36.0801 29.5076C36.414 29.6159 36.6366 29.5076 36.9705 29.4534Z" fill="#FFDC00"/>
<path d="M47.5996 35.1385C47.3213 35.0302 51.551 32.4313 51.4954 32.4854C51.7736 32.702 54.1667 32.2688 54.0554 32.1064C53.7772 32.1064 53.3876 32.1064 53.1093 32.0522C53.7215 31.8898 54.8902 32.1605 53.6102 31.2401C53.6658 31.1859 53.9441 31.2401 53.9998 31.2401C53.9441 31.2942 53.6658 31.2942 53.8328 31.4566C53.9441 31.5108 54.5563 31.7274 54.445 31.3484C54.445 31.2942 54.1667 31.2942 54.1667 31.2401C54.445 31.1859 54.612 31.2401 54.8902 31.1318C54.8346 31.1318 54.7789 31.1318 54.7789 31.0776C54.8346 31.0776 55.3911 31.0776 55.3355 30.9152C55.3355 30.861 55.1128 30.861 55.0572 30.8069C55.5581 30.6445 55.0572 30.482 55.0572 30.3737V30.3196C55.0015 30.0489 55.6694 30.5362 55.5024 30.5362C55.4468 30.5362 55.725 30.2113 55.725 30.2113C55.6694 29.9947 55.4468 30.2113 55.3355 30.0489C55.3355 30.0489 55.6137 30.1572 55.6137 30.0489C55.6137 29.6698 55.1128 30.0489 55.0572 30.0489C55.1685 29.7781 55.6137 29.724 55.8363 29.6698C55.892 29.6157 55.6694 29.5616 55.725 29.5616C55.7807 29.345 57.3946 29.3991 57.4503 29.1284C57.4503 29.1825 55.7807 28.9659 55.8363 28.9659C55.8363 28.9659 55.7807 29.2908 55.5024 29.1284C55.8363 28.8577 54.9459 29.0201 54.9459 28.9659C55.0572 28.9659 55.7807 28.9118 55.7807 28.8577C55.7807 28.5328 53.4432 28.7494 53.3876 28.6952C53.4432 28.6952 53.6658 28.6952 53.6658 28.5869C53.6658 28.4245 50.6605 28.7494 50.6605 28.5869C50.6605 28.8577 51.1614 28.6411 51.2171 28.8035C50.9945 28.8577 50.2153 28.4245 50.0484 28.6411C49.9927 28.7494 50.2153 28.7494 50.2153 28.8035C50.104 28.8035 49.3805 28.8035 49.4362 28.8035C49.6588 28.6952 47.5996 28.5869 47.4326 28.8577C47.4326 28.9118 47.4883 28.9118 47.4883 28.9659C47.4883 28.9659 47.4883 28.9659 47.4326 28.9659C47.4326 28.9659 46.2639 28.8577 46.3196 29.0742C46.3196 29.1825 46.7091 29.0742 46.7648 29.1284C46.8204 29.5615 44.65 29.2367 44.5943 29.5616C44.5943 29.6157 45.0395 29.724 45.0952 29.7781C44.9282 29.7781 44.65 29.6698 44.5943 29.8323C44.5386 30.1572 45.4291 30.103 45.5961 30.0489C45.4848 30.2654 46.9874 29.9947 46.9874 30.2654C46.9874 30.482 46.9318 30.2654 47.0987 30.482C46.9318 30.5903 46.7648 30.861 47.0987 30.8069C47.0431 30.861 46.9874 30.861 46.9318 30.9152C46.9318 31.0235 47.1544 30.861 47.1544 30.861C47.1544 31.0235 46.8761 30.9693 46.8761 31.0235C46.8204 31.1859 46.9318 31.1318 47.0431 31.0776C46.9874 31.1318 46.7091 31.3484 46.7648 31.4025C46.9318 31.5649 47.21 31.4566 47.3213 31.2942C47.2657 31.5108 47.377 31.6191 47.6552 31.5649L47.5996 31.6732C47.21 31.6732 47.21 31.4566 47.21 31.4566C46.7648 30.9693 46.3752 32.9186 47.3213 31.944V31.8898C47.3213 31.8357 47.0987 31.7815 47.0431 31.7274C47.0987 31.7274 47.3213 31.7274 47.377 31.7274C47.4883 31.7274 45.93 32.6478 46.4309 32.702C45.6517 33.7849 46.7648 34.6512 47.5996 35.1385ZM45.0952 29.8323C45.1508 29.8323 45.2065 29.8323 45.0952 29.8323V29.8323Z" fill="#FFDC00"/>
<path d="M55.3363 30.807C55.5032 30.8611 55.7258 30.6445 55.5032 30.6445C55.2806 30.6445 55.3363 30.8611 55.3363 30.807Z" fill="#FFDC00"/>
<path d="M55.5039 29.9406C55.5039 30.103 55.5596 29.724 55.5039 29.9406V29.9406Z" fill="#FFDC00"/>
<path d="M55.6699 30.0488C55.7256 30.0488 55.9482 30.103 55.6699 30.0488V30.0488Z" fill="#FFDC00"/>
<path d="M54.6121 34.11C55.0017 34.0559 56.2817 33.4061 55.3913 33.352C55.3913 33.352 55.6139 33.2978 55.5582 33.2437C55.2243 33.0271 53.8886 33.4061 53.8886 33.5144C53.7217 32.973 52.9982 33.4061 53.0538 33.5144C53.1095 33.6227 53.4991 33.4061 53.6104 33.5144C53.4991 33.6227 53.2208 33.5686 53.1651 33.6227C52.9982 33.7851 53.4991 33.6769 53.5547 33.6769C53.5547 33.731 53.4991 33.8393 53.6104 33.7851C53.5547 33.8934 53.2764 33.8934 53.3877 34.0017C53.4434 34.2183 54.3895 34.11 54.6121 34.11Z" fill="#FFDC00"/>
<path d="M57.1175 34.5972C56.9505 34.5972 57.0618 34.8679 57.1175 34.9221C57.1731 34.9221 57.5071 34.4889 57.1175 34.5972Z" fill="#FFDC00"/>
<path d="M61.6816 30.049C61.8486 30.1573 62.5721 29.9949 62.5721 30.049C62.5721 30.049 62.5721 30.049 62.5721 30.1032C62.5164 30.1573 62.1268 30.1573 62.1825 30.2656C62.5164 31.1861 63.3512 29.7783 63.6852 30.3739C63.6852 30.3739 64.52 30.4822 64.5756 30.2656C64.5756 30.2114 63.6852 30.049 63.6852 29.8866C63.9078 29.9407 64.9095 30.049 64.9652 29.7783C64.9652 29.7241 63.1843 29.5076 63.1286 29.6158C63.1286 29.67 63.073 29.67 63.073 29.7241C63.073 29.8324 63.4625 29.8324 63.4625 29.8866C63.4069 29.9949 62.4608 29.5076 62.739 29.8866C62.7947 29.8866 62.1268 29.7783 62.1825 29.8324C62.1825 29.8324 62.4051 29.8324 62.2938 29.7783C62.2382 29.7241 61.626 29.7241 61.5703 29.7783C61.5703 29.7241 61.6816 30.1573 61.6816 30.049ZM63.4625 29.9407C63.6852 29.7241 63.4625 30.049 63.4625 29.9407C63.4625 29.8866 63.4625 29.9407 63.4625 29.9407Z" fill="#FFDC00"/>
<path d="M64.8535 30.049C64.6865 30.049 65.0761 29.9948 64.8535 30.049C64.8535 30.049 64.9091 30.049 64.8535 30.049Z" fill="#FFDC00"/>
<path d="M65.0762 30.049C65.744 30.049 65.1875 29.8866 65.0762 30.049C65.0762 30.049 65.1318 29.9949 65.0762 30.049Z" fill="#FFDC00"/>
<path d="M65.8542 29.778C65.9655 29.778 66.2994 29.778 66.0211 29.7239C65.9098 29.6698 65.5759 29.778 65.8542 29.778C65.9098 29.778 65.7985 29.778 65.8542 29.778Z" fill="#FFDC00"/>
<path d="M65.0209 29.7781C65.1878 29.8322 64.8539 29.7239 65.0209 29.7781V29.7781Z" fill="#FFDC00"/>
<path d="M64.6853 30.5364C64.4627 30.6988 64.741 30.5364 64.6853 30.5364C64.6853 30.5905 64.6853 30.5364 64.6853 30.5364Z" fill="#FFDC00"/>
<path d="M57.174 31.9982C57.7305 31.8357 56.9514 32.1065 57.174 31.9982C57.2296 31.9982 57.174 32.0523 57.174 31.9982Z" fill="#FFDC00"/>
<path d="M58.5079 35.1386C58.3966 35.2469 58.2853 35.3011 58.341 35.4635H58.3966C58.5636 35.4635 58.6192 34.9762 58.5079 35.1386Z" fill="#FFDC00"/>
<path d="M56.7281 36.1132C56.5611 36.7088 57.1733 35.8424 57.1733 35.7883C57.062 35.7341 56.7281 36.059 56.7281 36.1132Z" fill="#FFDC00"/>
<path d="M59.0101 37.7375C58.8431 37.5751 58.3423 37.4668 58.2866 36.9795C58.1196 36.2215 57.9527 36.6005 57.7301 36.1132C57.7857 36.1673 58.2866 35.68 58.2309 35.5717L58.1196 35.5176C57.897 35.5176 57.2848 36.059 57.0066 36.1673C57.0622 36.2215 57.0622 36.5463 57.0066 36.5463C57.1179 36.5463 57.1735 36.3298 57.2292 36.2756C57.2292 36.3298 57.0622 36.4922 57.1179 36.6005C57.1179 36.6005 57.3405 36.4922 57.3405 36.4381C57.4518 36.4922 57.0066 36.6546 57.0622 36.7088C57.1179 36.8171 57.2848 36.6005 57.2848 36.6005C57.2848 36.6546 57.1735 36.8171 57.1735 36.8712C57.2292 36.9254 57.4518 36.6546 57.4518 36.6546C57.4518 36.6546 57.3405 36.9254 57.3405 36.9795C57.3405 37.0337 57.7301 36.9795 57.7857 36.9795C57.7301 37.0878 57.2848 37.6834 57.3405 37.521C57.3405 37.6834 57.3961 37.6293 57.5631 37.6834C57.5075 37.7375 57.2292 37.9541 57.2292 38.0083C57.2292 38.1166 57.7301 38.1166 57.8414 38.1166C57.7857 38.1707 56.9509 38.4414 57.0066 38.5497C57.0066 38.4956 59.0658 38.3873 59.0658 38.1707C59.0658 38.1166 58.8431 38.1166 58.8431 38.1166C58.7318 38.0624 59.2327 37.9 59.0101 37.7375Z" fill="#FFDC00"/>
<path d="M56.7825 37.9541C57.9512 37.9541 56.059 35.9507 56.3929 37.0878C56.3372 37.1419 55.892 37.1961 55.892 37.1961C55.6137 38.1707 55.725 37.9 56.7825 37.9541ZM56.059 37.5751C55.9476 37.5751 56.2259 37.5209 56.059 37.5751C56.0033 37.5751 56.059 37.5751 56.059 37.5751Z" fill="#FFDC00"/>
<path d="M60.7352 42.6107C61.3474 42.6107 60.8465 41.2029 60.9578 41.2029C60.6239 41.2029 60.6239 41.636 60.8465 41.7443C60.5126 41.7985 60.5126 42.6107 60.7352 42.6107C60.7909 42.6107 60.6239 42.6107 60.7352 42.6107Z" fill="#FFDC00"/>
<path d="M58.955 42.3943C59.1219 42.6109 59.1219 42.2319 59.1219 42.1777C59.1219 42.1777 58.788 42.1777 58.955 42.3943Z" fill="#FFDC00"/>
<path d="M59.3985 42.2856C59.4542 42.2856 59.0646 42.1231 59.3985 42.2856V42.2856Z" fill="#FFDC00"/>
<path d="M64.2417 42.9898C64.1304 42.7732 64.1304 42.9898 64.2417 42.9898V42.9898Z" fill="#FFDC00"/>
<path d="M64.1856 43.1524C64.2412 43.3148 64.9091 43.5314 65.0204 43.5856C65.0204 43.2607 64.9647 43.369 65.076 43.2065C65.1873 43.0441 64.0743 42.7192 64.1856 43.1524Z" fill="#FFDC00"/>
<path d="M53.833 45.8052C53.6103 45.8593 53.5547 46.0759 53.5547 46.2383C53.5547 46.13 53.8886 45.8052 53.833 45.8052C53.7773 45.8052 53.833 45.8052 53.833 45.8052Z" fill="#FFDC00"/>
<path d="M52.9984 46.2384C52.8315 46.2925 53.4437 46.0218 52.9984 46.2384C52.9984 46.2384 53.0541 46.1842 52.9984 46.2384Z" fill="#FFDC00"/>
<path d="M52.9433 46.022C52.8877 45.9137 53.0547 46.401 52.9433 46.022V46.022Z" fill="#FFDC00"/>
<path d="M52.4973 45.9137C52.4416 45.8596 52.2747 46.0762 52.4973 45.9137V45.9137Z" fill="#FFDC00"/>
<path d="M52.5547 46.1301C52.7216 46.1843 52.666 46.076 52.5547 46.1301V46.1301Z" fill="#FFDC00"/>
<path d="M52.387 46.1845C52.0531 46.3469 52.6096 46.1303 52.387 46.1845C52.387 46.2386 52.4426 46.1845 52.387 46.1845Z" fill="#FFDC00"/>
<path d="M52.7205 44.1808C52.7761 43.9642 52.4979 44.7764 52.7205 44.1808C52.7205 44.1267 52.6648 44.1808 52.7205 44.1808Z" fill="#FFDC00"/>
<path d="M50.6048 42.6647C50.4379 42.4481 50.7718 42.8272 50.6048 42.6647C50.6048 42.6106 50.6048 42.6647 50.6048 42.6647Z" fill="#FFDC00"/>
<path d="M50.0488 42.34C50.2714 42.4483 50.0488 42.2859 50.0488 42.34V42.34Z" fill="#FFDC00"/>
<path d="M49.8264 49.8661C49.6038 49.6495 50.1047 50.1368 49.8264 49.8661C49.7708 49.8661 49.8264 49.8661 49.8264 49.8661Z" fill="#FFDC00"/>
<path d="M50.1056 50.1371C50.2726 50.083 49.8274 50.2996 50.1056 50.1371V50.1371Z" fill="#FFDC00"/>
<path d="M50.5501 50.2454C50.4388 50.1371 50.7727 50.5161 50.5501 50.2454C50.4945 50.2454 50.5501 50.2454 50.5501 50.2454Z" fill="#FFDC00"/>
<path d="M50.2168 50.5703C50.2725 50.8411 50.4394 50.6786 50.2168 50.5703V50.5703Z" fill="#FFDC00"/>
<path d="M49.9941 50.6241C49.8828 50.4075 50.2167 50.9489 49.9941 50.6241C49.9941 50.6241 50.0498 50.6782 49.9941 50.6241Z" fill="#FFDC00"/>
<path d="M74.7603 52.1946C74.0925 52.1946 75.2055 52.2487 74.7603 52.1946C74.7603 52.1946 74.816 52.1946 74.7603 52.1946Z" fill="#FFDC00"/>
<path d="M71.4207 32.973C71.1981 33.0271 69.8068 33.8393 69.6398 33.352C69.7511 33.2437 69.9181 33.352 70.0294 33.2437C69.6955 33.0813 69.5285 33.0271 69.1946 32.973C69.1946 33.0271 69.4729 33.6769 69.5285 33.731C69.3615 33.6227 68.5267 33.5144 68.4711 33.8934C68.4711 33.9476 68.7494 34.0559 68.6937 34.11C68.5267 34.3808 67.9145 33.7852 67.7476 34.0017C67.6919 34.11 68.1372 34.2725 68.1372 34.2183C68.1372 34.2183 68.1928 34.2725 68.1928 34.3266C67.6363 34.5973 67.0797 33.6769 66.8015 33.4603C67.0797 33.4061 70.085 33.6227 68.1928 33.0813C67.0797 32.7022 66.7458 32.7564 65.8554 32.5398C65.8554 32.5398 66.1893 32.4315 66.1893 32.3774C66.1336 32.1066 65.5214 32.3232 65.4658 32.3232L65.5771 32.1608C65.4101 31.9442 65.2432 32.2691 65.1319 32.3232C64.8536 32.1066 65.4658 32.3774 64.7979 32.4315C64.7979 32.3774 65.0206 32.2149 64.9649 32.1608C64.8536 31.9984 64.5753 32.3232 64.5197 32.3774C64.5197 32.2691 63.9631 32.2149 63.9631 32.2691C63.9631 32.2691 64.1301 32.3232 64.1857 32.4315C63.8518 32.3774 63.8518 32.4315 63.6292 32.594C63.6849 32.1066 63.2953 32.594 63.184 32.7564C63.017 32.4315 63.017 32.7564 62.9057 32.8647C62.7944 32.4315 62.0153 33.1354 62.0153 33.1354C62.0709 33.1896 62.4605 33.0271 62.5161 32.973C62.5161 33.4603 61.57 33.7852 61.4587 33.9476C61.3474 34.2725 61.0691 34.3266 60.7352 34.3266C60.0674 34.3266 59.9561 35.3012 60.1787 35.7885C60.2343 36.1134 61.0691 36.4383 61.3474 35.7344C61.6813 36.8714 61.5144 36.6007 61.4587 37.2505C61.4587 37.3046 61.57 37.3588 61.6257 37.3588C61.6813 37.3588 63.0727 36.7632 63.0727 36.4924C63.0727 36.4383 62.9614 36.5466 62.9614 36.5466C62.9614 36.5466 63.4622 34.5973 63.184 34.9222C63.7962 34.2183 64.631 34.2725 65.0206 34.0559C64.6866 33.9476 63.6849 34.8139 64.1301 35.3012C64.5197 35.6802 65.5771 35.5178 66.3006 35.6261C65.911 35.6802 64.3527 35.6802 64.2971 36.1134C64.2971 36.0593 64.4084 36.2758 64.3527 36.2758C64.4084 36.2758 65.0762 36.0593 64.9649 36.1676C64.9092 36.2758 64.9649 36.4383 64.9649 36.5466C64.9092 36.5466 63.5736 37.1422 63.9075 37.1963C63.8518 37.1963 62.2935 37.5212 62.2935 37.5212C62.4605 37.088 61.57 37.5212 61.4587 37.467C61.0691 37.7378 61.5144 36.33 61.4031 36.2217C60.7909 35.6261 60.9022 37.4129 60.9022 37.4129C60.9022 37.467 58.0082 38.7665 57.8412 38.7124C58.4534 38.7665 56.8395 39.4163 56.9508 39.1456C56.8395 39.4163 59.2326 40.9324 56.6725 40.8241C55.2255 40.8241 55.3925 41.8528 55.3368 43.1523C55.8377 43.2065 58.3978 43.6938 58.0082 42.3943C57.7856 41.6904 61.0691 40.066 61.0691 41.2572C61.0691 41.1489 63.9631 42.9899 62.2379 42.9357C61.4587 42.9357 62.1822 43.5313 62.6274 43.044C62.6274 43.044 63.5736 42.1777 63.1283 42.1236C63.184 42.1236 63.5179 42.3401 63.5179 42.3943C63.2396 41.8528 61.8483 41.4197 61.7926 40.7699C61.737 40.0119 62.4605 40.6616 62.4605 40.6616C62.7387 40.9324 64.9092 43.6396 65.2432 43.2606C65.2988 43.2065 65.1875 43.0982 65.1875 43.044C65.2432 43.044 65.4101 43.2065 65.4101 43.0982C65.4101 43.1523 64.5753 42.2319 64.7423 42.2319C64.8536 42.2319 65.911 41.907 65.911 42.286C65.911 42.3401 65.6327 42.6109 65.6884 42.7192C65.7997 42.9899 65.9667 42.6109 65.9667 42.6109C65.9667 42.7733 65.7441 43.0982 65.6884 43.0982C65.6327 43.044 66.0223 43.2065 66.1336 43.2065C65.911 43.2606 65.9667 43.3689 66.1893 43.4772C66.1336 43.8021 65.911 43.6938 66.3562 43.5313C66.3562 43.5855 66.1893 43.5855 66.1893 43.6396C66.5789 43.6938 66.1336 43.8562 66.3006 43.9104C66.4675 43.9645 66.4675 43.6396 66.5789 43.5855C66.6345 43.8021 68.5267 44.0187 68.7494 43.6396C68.7494 43.6396 68.805 43.6396 68.805 43.6938C70.085 45.0474 66.8571 45.9679 65.7997 45.4264C64.7979 44.9391 63.5179 45.6972 63.4622 45.643C62.7388 45.643 61.9039 44.5601 61.2361 44.5601C60.9022 44.5601 61.5144 43.5855 61.4031 43.3689C61.2361 43.0982 58.8986 43.4231 58.4534 43.4772C57.1734 43.6396 56.4499 43.9104 55.3925 44.5601C55.1698 44.6684 54.1124 46.1303 53.8898 46.4011C53.5002 46.8884 52.9994 47.4298 52.7211 48.0254C52.5541 48.4044 51.9976 51.22 52.2759 51.5449C52.7767 52.1405 53.2776 53.061 53.9455 53.819C55.1142 55.3892 57.0064 54.2522 58.4534 54.0897C58.8986 54.0897 61.2918 55.0643 60.4569 55.8765C59.9561 56.3638 61.2918 58.9628 61.5144 59.6126C62.0709 61.0745 60.4569 62.1574 61.5144 63.8359C62.2379 64.9188 62.2935 67.1929 62.7387 68.1676C63.9631 70.4958 68.5824 65.8934 68.3041 64.0525C68.8607 62.9696 70.1963 62.4281 70.1963 60.6955C70.1963 60.4247 69.3059 57.5009 70.4746 57.555C71.5877 57.6092 73.8695 53.6566 73.8695 52.8985C73.8695 52.6278 71.699 52.7361 71.1981 52.6278C71.6433 52.1405 69.6398 50.2454 69.4729 49.3249C69.3059 48.4586 67.7476 46.9967 67.9702 46.0762C68.0259 46.2386 68.3041 46.8342 68.5267 46.8342C68.5824 46.8342 68.6937 46.4011 68.6937 46.3469C68.6937 46.4552 71.5877 52.2488 71.532 52.2488C72.1999 52.2488 73.146 51.4366 73.7582 51.4907C74.6486 51.599 75.5948 49.7581 76.04 49.5956C76.04 49.5956 76.6522 49.2708 76.6522 48.9459C76.6522 49.0542 75.0382 47.5923 75.3721 47.5923C74.9826 47.5923 74.6486 48.2962 74.0921 48.2962C73.6469 48.1879 74.2034 47.5381 73.7582 47.484C73.6469 47.484 73.7025 47.8088 73.6469 47.8088C73.6469 47.8088 72.0886 45.9137 73.146 46.1303C73.313 46.1303 74.5373 47.9171 74.9826 47.3757C75.3721 46.9967 76.0956 48.2962 77.0974 48.0254C77.5983 48.1337 78.2105 47.7547 78.6001 48.1337C78.767 48.2962 79.3236 49.0542 79.6575 48.8918C79.0453 44.5601 77.3757 40.4451 74.8156 36.8714C74.3147 36.2217 72.1999 32.8647 71.4207 32.973Z" fill="#FFDC00"/>
<path d="M79.5454 48.8916C79.2671 49.054 79.3227 48.9999 79.6567 49.3247C79.768 48.9457 79.7123 48.7833 79.5454 48.8916C79.4897 48.9457 79.5454 48.8916 79.5454 48.8916Z" fill="#FFDC00"/>
<path d="M73.0891 61.0744C72.6995 60.8036 73.0335 61.2368 72.6439 61.2368C73.3117 61.2368 71.0856 62.428 71.2525 62.1573C71.0299 62.4822 70.696 65.0811 71.0856 65.4602C72.1987 66.4889 73.1448 62.1031 73.0891 62.1573C73.1448 62.1573 73.1448 62.3197 73.2004 62.3197C73.423 62.1573 73.3117 61.1827 73.0891 61.0744Z" fill="#FFDC00"/>
<path d="M70.3059 32.9728C70.4172 33.0811 70.6398 32.9728 70.6955 32.9187C70.8068 32.8104 69.972 32.5938 70.3059 32.9728C70.3059 33.027 70.3059 32.9728 70.3059 32.9728Z" fill="#FFDC00"/>
<path d="M63.4065 36.6008C63.4622 36.6008 63.7405 36.2218 63.6848 36.2218C63.6291 35.8427 63.2396 36.6549 63.4065 36.6008Z" fill="#FFDC00"/>
<path d="M62.5156 37.1421C62.7382 37.3045 62.4043 37.0338 62.5156 37.1421V37.1421Z" fill="#FFDC00"/>
<path opacity="0.2" d="M79.8794 52.8444C79.8794 37.3046 66.9121 24.6887 50.9395 24.6887V81.0001C66.9121 81.0001 79.8794 68.3842 79.8794 52.8444Z" fill="#00B4C8"/>
<path d="M78.8214 17.2707C77.931 17.1083 77.0405 17 76.2057 17C68.9707 17 67.3011 23.7682 67.3011 23.8223L66.522 27.1252L65.7428 23.8223C65.6871 23.5516 64.0732 17.2707 56.8939 17.2707C56.0591 17.2707 55.1686 17.379 54.2225 17.5415C50.3267 18.2453 47.4884 22.7936 48.1562 27.2876C49.325 35.1929 63.6836 46.2927 66.522 48.4044C69.3046 46.2927 83.7189 35.247 84.8877 27.2876C85.5555 22.7394 82.6615 17.9746 78.8214 17.2707Z" fill="#DC3200"/>
<path d="M78.821 17.2707C77.9305 17.1083 77.04 17 76.2052 17C68.9702 17 67.3006 23.7682 67.3006 23.8223L66.5215 27.1252V27.0711V48.3503C69.3598 46.2386 83.7185 35.1929 84.8872 27.2335C85.5551 22.7394 82.6611 17.9746 78.821 17.2707Z" fill="#F03C00"/>
</g>
<defs>
<clipPath id="clip0">
<rect width="63" height="64" fill="white" transform="translate(22 17)"/>
</clipPath>
</defs>
</svg>
