<svg width="104" height="104" viewBox="0 0 104 104" fill="none" xmlns="http://www.w3.org/2000/svg">
<circle cx="52" cy="52" r="52" fill="#3E3E3E"/>
<g clip-path="url(#clip0)">
<path d="M77.5213 77H26.4153C25.6148 77 24.9375 76.3227 24.9375 75.5222V24.4162C24.9991 23.6773 25.6764 23 26.4768 23H77.5829C78.3833 23 79.0607 23.6773 79.0607 24.4778V75.5838C78.9991 76.3843 78.3833 77 77.5213 77Z" fill="white"/>
<path d="M76.043 26.0171H28.0156V74.0445H76.043V26.0171Z" fill="#3C3D3F"/>
<path d="M37.0671 30.7583H32.5723V35.2532H37.0671V30.7583Z" fill="#DD3B4A"/>
<path d="M70.6258 35.2532L67.3008 30.7583H74.0123L70.6258 35.2532Z" fill="#DD3B4A"/>
<path d="M58.8655 30.7583H40.5781V35.2532H58.8655V30.7583Z" fill="#DD3B4A"/>
<path d="M37.0671 39.1938H32.5723V43.6887H37.0671V39.1938Z" fill="#1E995D"/>
<path d="M70.6258 39.1938L74.0123 43.6271H67.3008L70.6258 39.1938Z" fill="#1E995D"/>
<path d="M62.8678 39.1938H40.5781V43.6887H62.8678V39.1938Z" fill="#1E995D"/>
<path d="M37.0671 47.5679H32.5723V52.0627H37.0671V47.5679Z" fill="#DD3B4A"/>
<path d="M70.6258 52.0627L67.3008 47.5679H74.0123L70.6258 52.0627Z" fill="#DD3B4A"/>
<path d="M53.1391 47.5679H40.5781V52.0627H53.1391V47.5679Z" fill="#DD3B4A"/>
<path d="M37.0671 55.9419H32.5723V60.4368H37.0671V55.9419Z" fill="#1E995D"/>
<path d="M70.6258 55.9419L74.0123 60.4368H67.3008L70.6258 55.9419Z" fill="#1E995D"/>
<path d="M50.4299 55.9419H40.5781V60.4368H50.4299V55.9419Z" fill="#1E995D"/>
<path d="M37.0671 64.3774H32.5723V68.8723H37.0671V64.3774Z" fill="#1E995D"/>
<path d="M70.6258 64.3774L74.0123 68.8107H67.3008L70.6258 64.3774Z" fill="#1E995D"/>
<path d="M64.2839 64.3774H40.5781V68.8723H64.2839V64.3774Z" fill="#1E995D"/>
</g>
<defs>
<clipPath id="clip0">
<rect width="54" height="54" fill="white" transform="translate(25 23)"/>
</clipPath>
</defs>
</svg>
