<svg width="104" height="104" viewBox="0 0 104 104" fill="none" xmlns="http://www.w3.org/2000/svg">
<circle cx="52" cy="52" r="52" fill="#3E3E3E"/>
<path d="M26.375 43.0843V37.7739L52.0005 19L77.626 37.7739V43.0843H26.375Z" fill="#A3ACB1"/>
<path d="M77.3036 37.9349V42.6553H26.748V37.9349L51.9991 19.4292L77.3036 37.9349ZM72.5958 39.0614L51.9991 23.9886L31.4024 39.0614H72.5958Z" fill="white"/>
<path d="M62.5927 67.1684H62.7532V66.1493C62.7532 65.7202 63.0742 65.3983 63.5022 65.3983H64.4652V49.5209H63.7162C63.1812 49.5209 62.7532 49.0918 62.7532 48.5554V47.429C62.2717 46.9462 61.9507 46.2489 61.9507 45.4979C61.9507 43.9424 63.2347 42.655 64.7861 42.655H73.2388C74.7903 42.655 76.0742 43.9424 76.0742 45.4979C76.0742 46.2489 75.7532 46.9462 75.2717 47.429V48.5554C75.2717 49.0918 74.8438 49.5209 74.3088 49.5209H73.6133V65.452H74.5763C75.0042 65.452 75.3252 65.7738 75.3252 66.2029V67.2221H75.4857C75.9137 67.2221 76.2347 67.4903 76.2347 67.9194V70.065H61.8438V67.9194C61.8438 67.4903 62.2182 67.1684 62.5927 67.1684Z" fill="#A3ACB1"/>
<path d="M75.806 67.9733C75.806 67.7051 75.6455 67.5442 75.4316 67.5442H62.5386C62.4316 67.5442 62.3246 67.5978 62.2711 67.6515C62.2176 67.7587 62.1641 67.866 62.1641 67.9733V69.6361H75.7525V67.9733H75.806Z" fill="white"/>
<path d="M75.6999 45.5517C75.6999 46.8927 74.5764 48.0191 73.239 48.0191C71.9015 48.0191 70.7781 46.8927 70.7781 45.5517C70.7781 45.4444 70.7781 45.3371 70.8316 45.1762H67.2472C67.2472 45.2835 67.3007 45.3907 67.3007 45.5517C67.3007 46.8927 66.1773 48.0191 64.8398 48.0191C63.5024 48.0191 62.3789 46.8927 62.3789 45.5517C62.3789 44.2107 63.5024 43.0842 64.8398 43.0842H73.2925C74.6299 43.0842 75.6999 44.157 75.6999 45.5517ZM73.239 44.4789C72.6505 44.4789 72.169 44.9616 72.169 45.5517C72.169 46.1417 72.6505 46.6245 73.239 46.6245C73.8275 46.6245 74.3089 46.1417 74.3089 45.5517C74.3089 44.9616 73.8275 44.4789 73.239 44.4789ZM63.7699 45.5517C63.7699 46.1417 64.2513 46.6245 64.8398 46.6245C65.4283 46.6245 65.9098 46.1417 65.9098 45.5517C65.9098 44.9616 65.4283 44.4789 64.8398 44.4789C64.2513 44.4789 63.7699 44.9616 63.7699 45.5517Z" fill="white"/>
<path d="M73.2378 65.5057H64.7852V49.1455H73.2378V65.5057ZM68.2625 52.0421V62.6091C68.2625 63.0382 68.5835 63.3601 69.0115 63.3601C69.4395 63.3601 69.7605 63.0382 69.7605 62.6091V52.0421C69.7605 51.6129 69.4395 51.2911 69.0115 51.2911C68.637 51.2911 68.2625 51.6129 68.2625 52.0421ZM65.4806 52.0421V62.6091C65.4806 63.0382 65.8016 63.3601 66.2296 63.3601C66.6576 63.3601 66.9786 63.0382 66.9786 62.6091V52.0421C66.9786 51.6129 66.6576 51.2911 66.2296 51.2911C65.8016 51.2911 65.4806 51.6129 65.4806 52.0421ZM71.8469 51.2911C71.4189 51.2911 71.0979 51.6129 71.0979 52.0421V62.6091C71.0979 63.0382 71.4189 63.3601 71.8469 63.3601C72.2749 63.3601 72.5959 63.0382 72.5959 62.6091V52.0421C72.5959 51.6129 72.2214 51.2911 71.8469 51.2911Z" fill="white"/>
<path d="M41.4068 67.1684H41.2463V66.1493C41.2463 65.7202 40.9254 65.3983 40.4974 65.3983H39.5344V49.5209H40.2834C40.8184 49.5209 41.2463 49.0918 41.2463 48.5554V47.429C41.7278 46.9462 42.0488 46.2489 42.0488 45.4979C42.0488 43.9424 40.7649 42.655 39.2134 42.655H30.7607C29.2093 42.655 27.9254 43.9424 27.9254 45.4979C27.9254 46.2489 28.2463 46.9462 28.7278 47.429V48.5554C28.7278 49.0918 29.1558 49.5209 29.6908 49.5209H30.4398V65.452H29.4233C28.9953 65.452 28.6743 65.7738 28.6743 66.2029V67.2221H28.5673C28.1393 67.2221 27.8184 67.4903 27.8184 67.9194V70.065H42.1558V67.9194C42.1558 67.4903 41.8348 67.1684 41.4068 67.1684Z" fill="#A3ACB1"/>
<path d="M28.1934 67.9733C28.1934 67.7051 28.3539 67.5442 28.5678 67.5442H41.4608C41.5678 67.5442 41.6748 67.5978 41.7283 67.6515C41.7818 67.7587 41.8353 67.866 41.8353 67.9733V69.6361H28.2469V67.9733H28.1934Z" fill="white"/>
<path d="M30.7608 43.0842H39.2135C40.5509 43.0842 41.6744 44.2107 41.6744 45.5517C41.6744 46.8927 40.5509 48.0191 39.2135 48.0191C37.876 48.0191 36.7526 46.8927 36.7526 45.5517C36.7526 45.4444 36.7526 45.3371 36.8061 45.1762H33.2217C33.2217 45.2835 33.2752 45.3907 33.2752 45.5517C33.2752 46.8927 32.1518 48.0191 30.8143 48.0191C29.4769 48.0191 28.3534 46.8927 28.3534 45.5517C28.2999 44.157 29.4234 43.0842 30.7608 43.0842ZM29.6908 45.5517C29.6908 46.1417 30.1723 46.6245 30.7608 46.6245C31.3493 46.6245 31.8308 46.1417 31.8308 45.5517C31.8308 44.9616 31.3493 44.4789 30.7608 44.4789C30.1723 44.4789 29.6908 44.9616 29.6908 45.5517ZM39.2135 44.4789C38.625 44.4789 38.1435 44.9616 38.1435 45.5517C38.1435 46.1417 38.625 46.6245 39.2135 46.6245C39.802 46.6245 40.2834 46.1417 40.2834 45.5517C40.2834 44.9616 39.802 44.4789 39.2135 44.4789Z" fill="white"/>
<path d="M30.7617 49.1455H39.2144V65.5057H30.7617V49.1455ZM34.9881 51.2911C34.5601 51.2911 34.2391 51.6129 34.2391 52.0421V62.6091C34.2391 63.0382 34.5601 63.3601 34.9881 63.3601C35.416 63.3601 35.737 63.0382 35.737 62.6091V52.0421C35.737 51.6129 35.416 51.2911 34.9881 51.2911ZM37.77 51.2911C37.342 51.2911 37.021 51.6129 37.021 52.0421V62.6091C37.021 63.0382 37.342 63.3601 37.77 63.3601C38.1979 63.3601 38.5189 63.0382 38.5189 62.6091V52.0421C38.5189 51.6129 38.1979 51.2911 37.77 51.2911ZM31.4572 52.0421V62.6091C31.4572 63.0382 31.7782 63.3601 32.2062 63.3601C32.6341 63.3601 32.9551 63.0382 32.9551 62.6091V52.0421C32.9551 51.6129 32.6341 51.2911 32.2062 51.2911C31.7782 51.2911 31.4572 51.6129 31.4572 52.0421Z" fill="white"/>
<path d="M26 75V70.2261C26 69.9579 26.214 69.6897 26.535 69.6897H77.465C77.7325 69.6897 78 69.9043 78 70.2261V75H26Z" fill="#AFAFBD"/>
<path d="M26.6425 70.0115H77.412C77.5725 70.0115 77.6795 70.1188 77.6795 70.2797V74.6245H26.375V70.2797C26.375 70.1724 26.482 70.0115 26.6425 70.0115Z" fill="white"/>
<path d="M62.9835 58.8565C64.3516 52.7884 60.5545 46.7573 54.5025 45.3855C48.4504 44.0137 42.4352 47.8209 41.0671 53.889C39.6989 59.9571 43.496 65.9883 49.548 67.36C55.6001 68.7318 61.6153 64.9246 62.9835 58.8565Z" fill="#F1A42A"/>
<path d="M52.0008 48.1802C47.507 48.1802 43.8691 51.8277 43.8691 56.3334C43.8691 60.8392 47.507 64.4867 52.0008 64.4867C56.4947 64.4867 60.1325 60.8392 60.1325 56.3334C60.1325 51.8277 56.4947 48.1802 52.0008 48.1802Z" fill="#FFC90D"/>
<path d="M52.9094 46.5173C52.9094 47.0001 52.5349 47.3756 52.0534 47.3756C51.572 47.3756 51.1975 47.0001 51.1975 46.5173C51.1975 46.0346 51.572 45.6591 52.0534 45.6591C52.4814 45.6054 52.9094 46.0346 52.9094 46.5173ZM45.6872 47.6438C45.3127 47.912 45.2057 48.502 45.4732 48.8775C45.7407 49.253 46.3292 49.3602 46.7036 49.092C47.0781 48.8238 47.1851 48.2338 46.9176 47.8583C46.6501 47.4828 46.1152 47.3756 45.6872 47.6438ZM41.8353 53.0614C41.6748 53.5441 41.9423 54.0269 42.4238 54.1878C42.9053 54.3487 43.3868 54.0805 43.5473 53.5978C43.7078 53.115 43.4403 52.6323 42.9588 52.4714C42.4773 52.3104 41.9423 52.5786 41.8353 53.0614ZM41.8353 59.7127C41.9958 60.1955 42.4773 60.41 42.9588 60.3028C43.4403 60.1418 43.6543 59.6591 43.5473 59.1763C43.3868 58.6936 42.9053 58.479 42.4238 58.5863C41.8888 58.7472 41.6748 59.23 41.8353 59.7127ZM45.6872 65.0767C46.0617 65.3449 46.6501 65.2913 46.9176 64.8622C47.1851 64.4867 47.1316 63.8966 46.7036 63.6284C46.3292 63.3602 45.7407 63.4139 45.4732 63.843C45.2057 64.2185 45.3127 64.7549 45.6872 65.0767ZM51.9999 67.115C52.4814 67.115 52.8559 66.7396 52.8559 66.2568C52.8559 65.774 52.4814 65.3986 51.9999 65.3986C51.5185 65.3986 51.144 65.774 51.144 66.2568C51.144 66.7396 51.5185 67.115 51.9999 67.115ZM58.3127 65.0767C58.6872 64.8085 58.7942 64.2185 58.5267 63.843C58.2592 63.4675 57.6707 63.3602 57.2962 63.6284C56.9218 63.8966 56.8148 64.4867 57.0822 64.8622C57.3497 65.2376 57.9382 65.3449 58.3127 65.0767ZM62.2181 59.7127C62.3785 59.23 62.1111 58.7472 61.6296 58.5863C61.1481 58.4254 60.6666 58.6936 60.5061 59.1763C60.3456 59.6591 60.6131 60.1418 61.0946 60.3028C61.5761 60.41 62.0576 60.1419 62.2181 59.7127ZM62.2181 53.0614C62.0576 52.5786 61.5761 52.3641 61.0946 52.4714C60.6131 52.6323 60.3991 53.115 60.5061 53.5978C60.6666 54.0805 61.1481 54.2951 61.6296 54.1878C62.1111 54.0269 62.3785 53.4905 62.2181 53.0614ZM58.3127 47.6438C57.9382 47.3756 57.3497 47.4292 57.0822 47.8583C56.8148 48.2338 56.8683 48.8238 57.2962 49.092C57.6707 49.3602 58.2592 49.3066 58.5267 48.8775C58.7942 48.502 58.6872 47.9656 58.3127 47.6438Z" fill="#FFC90D"/>
<path d="M55.8521 58.908C55.8521 57.0843 54.4612 56.226 53.1237 55.6896V52.2567C53.6587 52.364 54.2472 52.5249 54.9427 52.8467L55.5312 53.1149V51.5057L55.3172 51.3985C54.8357 51.1839 54.1937 50.9157 53.1237 50.8084V49.5747H52.5353V50.7548C52.3748 50.7548 52.1608 50.7548 52.0003 50.7548C51.8398 50.7548 51.6258 50.7548 51.4653 50.7548V49.5747H50.8768V50.8621C49.0044 51.2375 48.1484 52.4713 48.1484 53.6513C48.1484 55.2605 49.2184 56.1188 50.8768 56.7088V60.41C50.0209 60.249 49.2719 59.8736 48.7904 59.4981L48.1484 59.0153V61L48.3089 61.1073C48.6299 61.3218 49.4859 61.8046 50.8768 61.9655V63.1992H51.4653V62.0191C51.5188 62.0191 51.6258 62.0191 51.6793 62.0191C51.9468 62.0191 52.2678 62.0191 52.5353 61.9655V63.1992H53.1237V61.8582C54.5682 61.4828 55.8521 60.6245 55.8521 58.908ZM52.0003 52.1494C52.2143 52.1494 52.3748 52.1494 52.5888 52.1494V55.4751C52.3748 55.4214 52.1608 55.3142 51.9468 55.2605C51.7863 55.2069 51.6258 55.1533 51.5188 55.0996V52.1494C51.6258 52.2031 51.8398 52.1494 52.0003 52.1494ZM50.0744 53.6513C50.0744 53.0613 50.3954 52.6322 50.8768 52.4176V54.9387C50.2884 54.6169 50.0744 54.2414 50.0744 53.6513ZM51.7328 60.4636C51.6793 60.4636 51.5723 60.4636 51.5188 60.4636V56.8697C51.6258 56.9234 51.6793 56.9234 51.7863 56.977C52.1073 57.0843 52.3748 57.1379 52.5888 57.2452V60.41C52.3213 60.4636 52.0003 60.4636 51.7328 60.4636ZM53.1237 60.1418V57.5134C53.9262 58.0498 53.9797 58.5862 53.9797 58.908C53.9797 59.3908 53.6587 59.8199 53.1237 60.1418Z" fill="white"/>
</svg>
