<svg width="88" height="83" viewBox="0 0 88 83" fill="none" xmlns="http://www.w3.org/2000/svg">
<g clip-path="url(#clip0)">
<path d="M61.3936 40.8852L60.7748 39.8263L40.0467 33.0975L39.4623 33.7807L38.5686 33.9856L20.1436 76.7494L20.3842 78.0473L64.7623 59.4321L65.1404 58.6807L62.0467 41.6025L61.3936 40.8852Z" fill="#78758C"/>
<path d="M20.3848 78.0473L39.4629 33.7806L0.275391 21.0745L20.3848 78.0473Z" fill="#A3EDBA"/>
<path d="M54.0035 0.102417L39.4629 33.7806L61.3941 40.8851L61.4973 40.6119L54.141 0.409824L54.0035 0.102417Z" fill="#8087E8"/>
<path d="M61.3936 40.5123L64.7623 59.0593L66.3092 59.0251L87.3123 49.9737L88.2404 49.1881L87.1404 48.2658L62.4248 40L61.3936 40.5123Z" fill="#30426B"/>
<path d="M64.7627 59.4321L69.0596 83.1366L88.2408 49.5609L64.7627 59.4321Z" fill="#6699A1"/>
<path d="M54.0029 0.102417L61.3936 40.8851L88.2404 49.5609L54.0029 0.102417Z" fill="#6699A1"/>
</g>
<defs>
<clipPath id="clip0">
<rect width="88" height="83" fill="white"/>
</clipPath>
</defs>
</svg>
