<svg width="90" height="90" viewBox="0 0 90 90" fill="none" xmlns="http://www.w3.org/2000/svg">
<path d="M88.7186 23.6275C88.7188 23.6275 88.7185 23.6275 88.7186 23.6275L88.7153 23.6245L82.9061 22.7954C82.0896 22.6791 81.5219 21.9227 81.6382 21.1059C81.694 20.7134 81.9036 20.3594 82.2206 20.1215L86.9158 16.5991C87.5756 16.1041 87.7093 15.1679 87.2144 14.5078L81.8383 7.33756C81.3434 6.67749 80.4075 6.54379 79.7476 7.0388L75.0539 10.5612C74.3968 11.0599 73.4601 10.9315 72.9615 10.2742C72.7194 9.95507 72.6156 9.55193 72.6735 9.15551L73.5038 3.34463C73.6208 2.52789 73.0539 1.7711 72.2376 1.65383C72.237 1.65383 72.2365 1.65365 72.2359 1.65365L63.3713 0.386905C62.5549 0.269641 61.798 0.836539 61.6808 1.65327C61.6808 1.65309 61.6808 1.65346 61.6808 1.65327L60.8504 7.46453C60.7341 8.28127 59.9779 8.8491 59.1614 8.73277C58.7691 8.67694 58.4151 8.46725 58.1773 8.15019L54.6574 3.45368C54.1626 2.7936 53.2266 2.65991 52.5667 3.15492L48.0791 6.52344C46.0489 6.30758 44.0015 6.30758 41.9712 6.52344C28.6754 8.04357 18.2488 18.6499 16.9528 31.9733C16.9124 32.3961 16.8975 32.8158 16.8766 33.2356H16.4286C15.72 33.2369 15.1098 33.7362 14.9681 34.4306L13.9362 39.3392L9.8025 36.4876C9.20926 36.0781 8.40806 36.1511 7.89845 36.6609L3.41833 41.1423C2.90947 41.6518 2.83666 42.4521 3.2451 43.0454L6.08251 47.1727L1.17379 48.205C0.487216 48.3555 -0.00148996 48.9644 3.41316e-06 49.6674V55.6426C-0.00036993 56.3492 0.494496 56.9594 1.18574 57.105L6.09446 58.1372L3.25705 62.2646C2.84861 62.8578 2.92141 63.6581 3.43028 64.1677L7.9104 68.6491C8.42001 69.1589 9.2212 69.2319 9.81445 68.8224L13.9406 65.9767L14.9726 70.8868C15.1142 71.5813 15.7245 72.0806 16.4331 72.0819H22.4066C23.1129 72.0822 23.723 71.5872 23.8686 70.8958L24.9005 65.9857L29.0267 68.8239C29.6197 69.2324 30.4198 69.1596 30.9292 68.6506L33.2484 66.3233V70.5806C33.2552 72.7057 34.3933 74.6661 36.2352 75.7252V84.0248C36.2352 87.3248 38.9096 90 42.2087 90H48.1822C51.4812 90 54.1557 87.3248 54.1557 84.0248V75.7252C55.9975 74.6661 57.1357 72.7057 57.1424 70.5806V64.6681C57.1829 62.1804 58.484 59.8837 60.5966 58.5704C61.8359 57.7662 63.0112 56.8671 64.112 55.8816L62.1198 53.6558C61.1351 54.5387 60.083 55.3433 58.9733 56.0623C56.008 57.924 54.1928 61.1663 54.1557 64.6681V70.5806C54.1557 72.2307 52.8185 73.5682 51.1689 73.5682H39.2219C37.5723 73.5682 36.2352 72.2307 36.2352 70.5806V64.5441C36.2007 61.1086 34.414 57.9289 31.4982 56.1131C19.6619 48.6736 16.0958 33.0449 23.5331 21.2053C28.1476 13.8593 36.201 9.38817 44.8743 9.35718C44.8521 9.41039 44.8325 9.46473 44.8161 9.52C44.7607 9.91212 44.8633 10.3104 45.1013 10.6269L48.6212 15.3219C48.9923 15.8024 49.028 16.4623 48.7108 16.98C48.4054 17.501 47.815 17.7852 47.2174 17.6986L41.4082 16.868C40.5917 16.7509 39.8351 17.318 39.7179 18.1346C39.7179 18.1351 39.7177 18.1357 39.7177 18.1362L38.4499 27.0079C38.3328 27.8245 38.8997 28.5815 39.716 28.6987C39.7166 28.6987 39.7172 28.6989 39.7177 28.6989L45.527 29.5295C46.3435 29.6458 46.9111 30.4022 46.7948 31.2189C46.739 31.6114 46.5294 31.9655 46.2124 32.2034L41.5187 35.7242C40.8589 36.2193 40.7252 37.1555 41.2201 37.8156L46.5962 44.9858C47.0911 45.6459 48.027 45.7796 48.6869 45.2846L53.3821 41.7637C54.0425 41.2696 54.9785 41.4046 55.4724 42.0654C55.7088 42.3816 55.8105 42.7785 55.7551 43.1693L54.9262 48.9802C54.809 49.7968 55.3757 50.554 56.1922 50.6712C56.1921 50.6712 56.1924 50.6712 56.1922 50.6712L65.0632 51.9395C65.1331 51.9484 65.2034 51.9529 65.2738 51.9529C66.0173 51.9538 66.6481 51.4075 66.7537 50.6712L67.5826 44.8603C67.6989 44.0436 68.4551 43.4758 69.2716 43.5921C69.664 43.6479 70.0179 43.8576 70.2557 44.1747L73.7771 48.8697C74.2719 49.5298 75.2079 49.6635 75.8678 49.1685L83.036 43.7908C83.6959 43.2958 83.8295 42.3595 83.3347 41.6995L79.8148 37.0044C79.4454 36.5232 79.4097 35.8645 79.7252 35.3463C80.024 34.8184 80.6199 34.5324 81.2186 34.6293L87.0278 35.4584C87.8441 35.5756 88.601 35.0085 88.7183 34.192C88.7183 34.1922 88.7183 34.1918 88.7183 34.192L89.9846 25.3184C90.1019 24.5017 89.5351 23.7447 88.7186 23.6275ZM39.2219 76.5558H51.1689V79.5434H39.2219V76.5558ZM39.2219 82.531H51.1689V84.0248C51.1689 85.6749 49.8318 87.0124 48.1822 87.0124H42.2087C40.5591 87.0124 39.2219 85.6749 39.2219 84.0248V82.531ZM27.3332 56.7704C28.1486 57.4374 29.0005 58.0584 29.8854 58.6302C31.2964 59.5222 32.3586 60.8716 32.8945 62.4528L29.6912 65.6511L26.5895 63.5119C25.2313 62.5757 23.3715 62.9181 22.4353 64.2768C22.2109 64.6026 22.0534 64.9697 21.972 65.3568L21.1895 69.0868H17.6397L16.8572 65.3627C16.5174 63.7481 14.9335 62.7146 13.3194 63.0545C12.9324 63.1359 12.5654 63.2935 12.2397 63.5179L9.13645 65.6511L6.41553 62.9353L8.55255 59.8342C9.48945 58.4761 9.14822 56.6156 7.79055 55.6784C7.46462 55.4534 7.09726 55.2955 6.70972 55.2139L2.98675 54.4296V50.8804L6.70972 50.0961C8.32331 49.7538 9.35411 48.168 9.01194 46.5537C8.93074 46.1708 8.77525 45.8076 8.55404 45.4847L6.41553 42.3747L9.13645 39.6589L12.2412 41.798C13.6 42.7333 15.4598 42.3898 16.3948 41.0306C16.6188 40.7051 16.776 40.3384 16.8572 39.9517L17.1185 38.7089C17.3578 40.4301 17.7541 42.1256 18.3028 43.7743C13.389 44.3603 9.88053 48.82 10.4663 53.7352C11.0521 58.6504 15.5105 62.1599 20.4243 61.5739C23.3823 61.221 25.9716 59.4208 27.3332 56.7704ZM25.014 54.6656C23.8988 57.7662 20.4822 59.3754 17.3825 58.2601C14.2828 57.1446 12.6741 53.727 13.7891 50.6264C14.6421 48.2544 16.8936 46.6746 19.4137 46.6798C19.4331 46.6798 19.451 46.6798 19.4704 46.6798C20.8437 49.6418 22.7192 52.3435 25.014 54.6656ZM85.9645 32.2855L81.6337 31.6671C79.1842 31.3172 76.915 33.0199 76.5652 35.4699C76.3972 36.6465 76.7033 37.8417 77.4164 38.7925L80.0403 42.2925L75.2615 45.8776L72.6361 42.3791C71.1517 40.3989 68.3436 39.9973 66.3642 41.4821C65.4136 42.195 64.7851 43.2565 64.6167 44.4331L64.0119 48.7711L58.0997 47.9256L58.7179 43.5936C59.0687 41.1436 57.3673 38.873 54.918 38.5223C53.7411 38.3537 52.5456 38.6599 51.5945 39.3736L48.0956 41.9982L44.5115 37.218L48.0089 34.5919C49.9886 33.1071 50.3901 30.2982 48.9057 28.3182C48.193 27.3674 47.1318 26.7387 45.9555 26.5702L41.6248 25.9518L42.47 20.0379L46.8008 20.6563C49.2501 21.0071 51.52 19.3053 51.8706 16.8553C52.0392 15.678 51.733 14.4822 51.0196 13.5309L48.3868 10.0279L53.1656 6.44277L55.7909 9.94275C57.2753 11.923 60.0834 12.3246 62.0629 10.8398C63.0134 10.1269 63.6419 9.06533 63.8103 7.88877L64.4286 3.55675L70.3408 4.40075L69.7226 8.73277C69.3727 11.183 71.0748 13.4528 73.5243 13.8027C74.7005 13.9708 75.8954 13.6646 76.846 12.9513L80.3449 10.3267L83.929 15.1068L80.43 17.7329C78.4504 19.2178 78.0489 22.0267 79.5333 24.0067C80.246 24.9575 81.3072 25.5862 82.4834 25.7546L86.8142 26.3731L85.9645 32.2855Z" fill="#B90F0F"/>
<path d="M64.2149 14.2105C57.6168 14.2105 52.2679 19.5609 52.2679 26.1609C52.2679 32.7609 57.6168 38.1113 64.2149 38.1113C70.813 38.1113 76.1619 32.7609 76.1619 26.1609C76.1544 19.5639 70.81 14.2178 64.2149 14.2105ZM64.2149 35.1237C59.2662 35.1237 55.2547 31.111 55.2547 26.1609C55.2547 21.2108 59.2662 17.1981 64.2149 17.1981C69.1635 17.1981 73.1751 21.2108 73.1751 26.1609C73.1693 31.1085 69.1611 35.1179 64.2149 35.1237Z" fill="#B90F0F"/>
<path d="M46.6889 66.0992H43.7022V70.5806H46.6889V66.0992Z" fill="#B90F0F"/>
<path d="M38.6634 51.4286C29.4446 47.8263 24.8908 37.4305 28.4922 28.2091C29.8878 24.6359 32.3924 21.6048 35.6379 19.5613L34.0414 17.0338C24.2718 23.1903 21.3412 36.1033 27.496 45.8757C29.8796 49.6605 33.4137 52.581 37.5792 54.2085C41.2664 55.6217 43.7011 59.162 43.7021 63.1116H46.6888C46.6935 57.9296 43.501 53.2822 38.6634 51.4286Z" fill="#B90F0F"/>
<path d="M84.0233 55.6425H73.5697V58.6301H84.0233V55.6425Z" fill="#B90F0F"/>
<path d="M73.0323 63.4567L71.1204 65.7521L80.0813 73.2199L81.9931 70.9245L73.0323 63.4567Z" fill="#B90F0F"/>
<path d="M67.596 67.5929H64.6093V78.0495H67.596V67.5929Z" fill="#B90F0F"/>
<path d="M13.4712 22.8228L1.52501 25.8098L2.24894 28.7067L14.1951 25.7196L13.4712 22.8228Z" fill="#B90F0F"/>
<path d="M5.74072 8.12106L4.0057 10.5509L14.4585 18.0191L16.1935 15.5893L5.74072 8.12106Z" fill="#B90F0F"/>
<path d="M19.6946 0L16.801 0.740029L19.8553 12.6895L22.7489 11.9495L19.6946 0Z" fill="#B90F0F"/>
</svg>
