<svg width="80" height="58" viewBox="0 0 80 58" fill="none" xmlns="http://www.w3.org/2000/svg">
<path d="M36.4455 3.35957C37.2871 3.35957 37.969 2.67748 37.969 1.83613C37.969 0.994794 37.2871 0.312703 36.4455 0.312703C35.0062 0.312703 4.34662 0.312703 3.07649 0.312703C1.53599 0.312703 0.282715 1.56598 0.282715 3.10647V55.127C0.282715 56.6675 1.53599 57.9208 3.07649 57.9208H76.9245C78.4648 57.9208 79.7181 56.6675 79.7181 55.127C79.7181 50.8638 79.7181 5.039 79.7181 3.10627C79.7181 1.56578 78.4648 0.3125 76.9245 0.3125H43.5549C42.7133 0.3125 42.0314 0.994591 42.0314 1.83593C42.0314 2.67727 42.7133 3.35936 43.5549 3.35936H76.671V7.84597C75.7793 7.84597 12.5857 7.84597 11.5868 7.84597V3.35936H36.4455V3.35957ZM66.5376 54.8739H51.6573V53.0427C51.6573 50.9371 53.3704 49.2242 55.4758 49.2242H62.7192C64.8246 49.2242 66.5378 50.9371 66.5378 53.0427V54.8739H66.5376ZM56.073 43.153C56.073 41.4815 57.4256 40.1285 59.0975 40.1285C61.7814 40.1285 63.1365 43.3911 61.2362 45.2915C60.054 46.4735 58.1408 46.4735 56.9586 45.2915C56.3877 44.7203 56.073 43.9608 56.073 43.153ZM41.5238 10.893H76.671V31.36H69.5844V29.5289C69.5844 26.2718 67.3035 23.5389 64.2555 22.8392C65.7078 20.498 65.4206 17.3764 63.3906 15.3461H63.3904C62.2435 14.1993 60.7191 13.568 59.0973 13.568C55.7415 13.568 53.0259 16.2831 53.0259 19.6394C53.0259 20.7884 53.3444 21.8882 53.9372 22.8398C50.8903 23.5404 48.6102 26.2726 48.6102 29.5291V31.3602H41.5236V10.893H41.5238ZM62.7192 25.7105C64.8246 25.7105 66.5378 27.4235 66.5378 29.5289V31.36H51.6573V29.5289C51.6573 27.4235 53.3704 25.7105 55.4758 25.7105H62.7192ZM56.073 19.6392C56.073 17.9676 57.4256 16.6146 59.0975 16.6146C61.7816 16.6146 63.1362 19.8774 61.236 21.7777C60.0538 22.9598 58.1408 22.9598 56.9586 21.7777C56.3877 21.2065 56.073 20.447 56.073 19.6392ZM41.5238 34.4069H76.671V54.8739H69.5844V53.0427C69.5844 49.7854 67.3035 47.0528 64.2557 46.3528C65.708 44.0116 65.4208 40.8902 63.3906 38.8598H63.3904C59.558 35.0274 53.0261 37.7832 53.0261 43.1528C53.0261 44.3019 53.3446 45.4016 53.9374 46.3532C50.8905 47.0538 48.6104 49.786 48.6104 53.0427V54.8739H41.5238V34.4069ZM3.32958 3.35957H8.53992V7.84617H3.32958V3.35957ZM28.3435 54.8739H13.463V53.0427C13.463 50.9371 15.176 49.2242 17.2814 49.2242H24.525C26.6304 49.2242 28.3435 50.9371 28.3435 53.0427V54.8739ZM20.9033 40.1285C23.5872 40.1285 24.9422 43.3911 23.042 45.2915C21.8598 46.4735 19.9466 46.4735 18.7644 45.2915C16.8532 43.3797 18.231 40.1285 20.9033 40.1285ZM38.477 54.8739H31.3904V53.0427C31.3904 49.7854 29.1095 47.0528 26.0616 46.3528C27.514 44.0116 27.2267 40.8902 25.1965 38.8598H25.1963C21.364 35.0274 14.8321 37.7832 14.8321 43.1528C14.8321 44.3019 15.1506 45.4014 15.7433 46.3532C12.6964 47.0538 10.4164 49.786 10.4164 53.0427V54.8739H3.32958V34.4069H38.477V54.8739ZM24.525 25.7105C26.6304 25.7105 28.3435 27.4235 28.3435 29.5289V31.36H13.463V29.5289C13.463 27.4235 15.176 25.7105 17.2814 25.7105H24.525ZM20.9033 16.6146C23.5874 16.6146 24.942 19.8774 23.0418 21.7777C21.8596 22.9598 19.9466 22.9598 18.7644 21.7777C16.8735 19.886 18.2031 16.6146 20.9033 16.6146ZM38.477 10.893V31.36H31.3904V29.5289C31.3904 26.2718 29.1095 23.5389 26.0614 22.8392C27.5137 20.498 27.2265 17.3764 25.1965 15.3461H25.1963C24.0495 14.1993 22.525 13.568 20.9033 13.568C17.5475 13.568 14.8319 16.2831 14.8319 19.6394C14.8319 20.7884 15.1504 21.8882 15.7431 22.8398C12.6962 23.5404 10.4162 26.2726 10.4162 29.5291V31.3602H3.32958V10.893H38.477Z" fill="#B90F0F"/>
</svg>
