<svg width="97" height="88" viewBox="0 0 97 88" fill="none" xmlns="http://www.w3.org/2000/svg">
<path d="M19.8943 39.5409C20.0808 39.5409 20.2702 39.5039 20.4523 39.4262C33.6556 33.7826 52.3471 24.7044 66.4088 13.5044C70.8824 9.94106 73.7745 7.04968 75.5314 5.07818L75.7912 7.93182C75.8585 8.66965 76.4779 9.22395 77.2047 9.22395C77.2483 9.22395 77.2912 9.22247 77.3357 9.21803C78.1171 9.14699 78.6929 8.45578 78.6219 7.67428L78.0535 1.43121C78.0557 0.957573 77.8226 0.49356 77.3934 0.221961C77.3275 0.180518 77.2594 0.146476 77.1899 0.116874C77.1832 0.113913 77.1765 0.110953 77.1699 0.107993C77.141 0.0961522 77.1114 0.0857915 77.0818 0.0761709C77.0626 0.0695105 77.0433 0.0628499 77.0233 0.0576696C77.0063 0.0524892 76.9886 0.0480488 76.9708 0.0436086C76.9382 0.035468 76.9049 0.0280676 76.8716 0.0221471C76.8679 0.021407 76.8635 0.0206669 76.8598 0.0206669C76.7407 0.000685499 76.6185 -0.00597492 76.4964 0.00586591L70.1142 0.586807C69.3327 0.657852 68.7562 1.34906 68.828 2.13056C68.8991 2.91205 69.588 3.48781 70.3718 3.41677L73.4489 3.13703C71.7756 5.01972 68.922 7.88816 64.4291 11.4478C50.6309 22.3799 32.2909 31.276 19.3348 36.8138C18.6133 37.1217 18.2788 37.9572 18.5866 38.6788C18.8175 39.2175 19.3422 39.5409 19.8943 39.5409Z" fill="#B90F0F"/>
<path d="M10.989 72.3489H6.82031C6.03586 72.3489 5.39941 72.9846 5.39941 73.7698C5.39941 74.555 6.03586 75.1907 6.82031 75.1907H10.989C11.7735 75.1907 12.4099 74.555 12.4099 73.7698C12.4099 72.9846 11.7735 72.3489 10.989 72.3489Z" fill="#B90F0F"/>
<path d="M96.0158 57.4315C94.256 54.8457 90.7126 54.1612 88.118 55.904L82.8007 59.4629V19.0206C82.8007 17.9208 81.906 17.0261 80.8063 17.0261H74.521C73.4205 17.0261 72.5258 17.9208 72.5258 19.0206V29.177C72.5258 29.9615 73.1623 30.5979 73.9467 30.5979C74.7319 30.5979 75.3676 29.9615 75.3676 29.177V19.8679H79.9589V61.3648L75.3676 64.4375V35.7879C75.3676 35.0035 74.7319 34.367 73.9467 34.367C73.1623 34.367 72.5258 35.0035 72.5258 35.7879V66.3395L70.3878 67.7707L67.341 67.5998V26.6401C67.341 25.5404 66.4463 24.645 65.3458 24.645H59.0613C57.9609 24.645 57.0661 25.5404 57.0661 26.6401V58.9515L51.8813 58.3543V35.6976C51.8813 34.5972 50.9859 33.7025 49.8862 33.7025H43.6009C42.5012 33.7025 41.6065 34.5979 41.6065 35.6976V56.8365C39.8044 56.3162 38.0705 55.5887 36.4217 54.6615V46.0147C36.4217 44.915 35.5262 44.0203 34.4265 44.0203H28.1405C27.0408 44.0203 26.146 44.915 26.146 46.0147V50.9901C24.8532 50.8028 23.5455 50.7044 22.2312 50.7044H18.0047V50.0583C18.0047 48.4176 16.6704 47.0826 15.029 47.0826H1.76946C0.794076 47.0826 0 47.8767 0 48.8521V79.9246C0 80.9007 0.794076 81.6941 1.76946 81.6941H15.029C16.666 81.6941 17.9981 80.3657 18.004 78.7302L38.8727 86.6324C38.9112 86.6472 38.9504 86.6598 38.9904 86.6709C39.8259 86.907 40.6614 87.0254 41.4814 87.0254C41.9217 87.0254 42.3576 86.9914 42.7868 86.9233L70.5721 82.9181C70.5788 82.9166 70.5862 82.9159 70.5928 82.9144C72.9773 82.534 75.2255 81.5268 77.0956 80.0008C77.1008 79.9971 77.106 79.9927 77.1112 79.9883L95.0567 64.9341C95.0671 64.926 95.0774 64.9171 95.0871 64.9082C97.2251 63.0092 97.6239 59.7952 96.0158 57.4315ZM59.9079 27.4875H64.4992V61.908C63.3203 60.5945 61.7262 59.6605 59.9079 59.3045V27.4875ZM44.4475 36.5443H49.0388V58.0272L44.9752 57.5595C44.799 57.5343 44.6229 57.507 44.4475 57.4781V36.5443ZM28.9878 46.8621H33.5791V53.1695C32.0975 52.4953 30.5604 51.9573 28.9878 51.5562V46.8621ZM93.2132 62.7709L75.2914 77.8051C73.8135 79.0084 72.0374 79.804 70.1547 80.1067L42.4013 84.1066L42.3613 84.1133C41.5406 84.2428 40.6858 84.1888 39.8192 83.9512L18.0047 75.6908V63.978C18.0047 63.1928 17.369 62.5571 16.5838 62.5571C15.7994 62.5571 15.1629 63.1928 15.1629 63.978V78.7183C15.1629 78.7923 15.103 78.8523 15.029 78.8523H2.8418V49.9244H15.029C15.103 49.9244 15.1629 49.9843 15.1629 50.0583V57.3663C15.1629 58.1508 15.7994 58.7873 16.5838 58.7873C17.369 58.7873 18.0047 58.1508 18.0047 57.3663V53.5462H22.2319C26.465 53.5462 30.6337 54.6496 34.314 56.7336C34.3184 56.7366 34.3229 56.7388 34.3273 56.741C34.422 56.795 34.5182 56.8468 34.6122 56.9016C37.6975 58.7066 41.0559 59.8751 44.5948 60.3761C44.6074 60.3776 44.6192 60.3791 44.6318 60.3806L59.0857 62.045C61.5864 62.4061 63.5053 64.4116 63.7547 66.9271L63.8206 67.5857L38.2844 69.1613C38.2688 69.1606 38.2533 69.1598 38.2392 69.1583C37.4266 69.0843 36.6918 68.6995 36.17 68.0749C35.6675 67.4725 34.7713 67.3911 34.1689 67.8936C33.5665 68.3968 33.4851 69.2923 33.9884 69.8954C34.9956 71.1032 36.4143 71.8462 37.9861 71.989C38.052 71.995 38.1186 71.9987 38.1734 72.0009C38.2155 72.0031 38.2577 72.0046 38.2999 72.0046C38.3169 72.0046 38.3488 72.0038 38.3658 72.0031C38.3784 72.0024 38.3909 72.0024 38.4035 72.0009L65.3843 70.3358L70.7031 70.6347C71.0132 70.6525 71.3166 70.5681 71.5734 70.3964L74.7415 68.2762L89.7017 58.264C91.0049 57.3885 92.7833 57.7319 93.6662 59.03C94.4698 60.2118 94.2745 61.8163 93.2132 62.7709Z" fill="#B90F0F"/>
</svg>
