<svg width="83" height="83" viewBox="0 0 83 83" fill="none" xmlns="http://www.w3.org/2000/svg">
<g clip-path="url(#clip0)">
<path d="M76.6057 52.1401C75.464 52.1401 74.5386 53.0655 74.5386 54.2073V72.5611C74.5346 75.9848 71.7609 78.7593 68.3372 78.7625H10.3356C6.91197 78.7593 4.1383 75.9848 4.13426 72.5611V18.6938C4.1383 15.2709 6.91197 12.4965 10.3356 12.4924H28.6895C29.8313 12.4924 30.7566 11.5671 30.7566 10.4253C30.7566 9.28433 29.8313 8.35815 28.6895 8.35815H10.3356C4.63005 8.36461 0.00645978 12.9882 0 18.6938V72.5619C0.00645978 78.2675 4.63005 82.8911 10.3356 82.8976H68.3372C74.0428 82.8911 78.6664 78.2675 78.6729 72.5619V54.2073C78.6729 53.0655 77.7475 52.1401 76.6057 52.1401Z" fill="#B90F0F"/>
<path d="M77.8541 3.03931C74.2213 -0.593508 68.3316 -0.593508 64.6988 3.03931L27.8199 39.9182C27.5671 40.1709 27.3847 40.4842 27.2894 40.8282L22.4397 58.3367C22.2402 59.0545 22.4429 59.8232 22.9694 60.3505C23.4967 60.877 24.2654 61.0796 24.9832 60.881L42.4917 56.0305C42.8356 55.9352 43.1489 55.7527 43.4017 55.5L80.2798 18.6203C83.9069 14.9851 83.9069 9.1002 80.2798 5.46496L77.8541 3.03931ZM32.324 41.2618L62.5065 11.0785L72.2406 20.8126L42.0572 50.9959L32.324 41.2618ZM30.3796 45.1636L38.1563 52.9411L27.3992 55.9215L30.3796 45.1636ZM77.3567 15.6973L75.1644 17.8895L65.4295 8.15465L67.6226 5.96236C69.6405 3.94449 72.9124 3.94449 74.9303 5.96236L77.3567 8.38801C79.3714 10.4083 79.3714 13.6778 77.3567 15.6973Z" fill="#B90F0F"/>
</g>
<defs>
<clipPath id="clip0">
<rect width="83" height="83" fill="white"/>
</clipPath>
</defs>
</svg>
