<svg width="100" height="100" viewBox="0 0 100 100" fill="none" xmlns="http://www.w3.org/2000/svg">
<path d="M98.4375 53.7285C98.4375 53.0711 98.0262 52.4842 97.4082 52.2598L75 44.1113V18.0137H74.9395C75.1662 17.2275 74.7416 16.4008 73.9707 16.127L50.5332 7.60547C50.1891 7.47852 49.8109 7.47852 49.4668 7.60547L26.0293 16.127C25.5293 16.3107 25.157 16.7359 25.041 17.2559H25V44.1113L2.5918 52.2598C2.0918 52.4436 1.71953 52.8688 1.60352 53.3887H1.5625V81.0879H1.60156C1.42949 81.8541 1.85352 82.6287 2.5918 82.8965L26.0293 91.418C26.3732 91.5455 26.7518 91.5455 27.0957 91.418L50 83.0899L72.9043 91.418C73.2482 91.5455 73.6268 91.5455 73.9707 91.418L97.4082 82.8965C97.8828 82.724 98.2445 82.3324 98.3789 81.8457H98.4375V54.1465C98.4375 54.1465 98.4363 53.8699 98.4375 53.7285ZM25 87.7188L4.6875 80.334V55.959L25 63.3457V87.7188ZM26.5625 60.5879L7.69727 53.7285L26.4395 46.9121L45.3066 53.7734L26.5625 60.5879ZM48.4375 80.334L28.125 87.7188V63.3457L48.4375 55.959V80.334ZM48.4375 51.4981L28.125 44.1113V19.8262L48.4375 27.2129V51.4981ZM31.1348 17.5957L50 10.7363L68.8652 17.5957L50 24.4551L31.1348 17.5957ZM71.875 19.8262V44.1113L51.5625 51.4981V27.2129L71.875 19.8262ZM71.875 87.7188L51.5625 80.334V55.959L71.875 63.3457V87.7188ZM73.4375 60.5879L54.6934 53.7734L73.5605 46.9121L92.3027 53.7285L73.4375 60.5879ZM95.3125 80.334L75 87.7188V63.3457L95.3125 55.959V80.334Z" fill="#B90F0F"/>
</svg>
