<svg width="88" height="88" viewBox="0 0 88 88" fill="none" xmlns="http://www.w3.org/2000/svg">
<path d="M13.763 40.0692H23.6329C24.0312 40.0688 24.4131 39.9104 24.6948 39.6288C24.9765 39.3472 25.135 38.9653 25.1356 38.567V35.2302C25.1356 34.9567 25.0269 34.6944 24.8335 34.501C24.6401 34.3076 24.3778 34.1989 24.1043 34.1989C23.8308 34.1989 23.5685 34.3076 23.3751 34.501C23.1817 34.6944 23.0731 34.9567 23.0731 35.2302V38.0067H14.3228V29.2703H18.6978C18.9713 29.2703 19.2336 29.1616 19.427 28.9682C19.6204 28.7748 19.7291 28.5125 19.7291 28.239C19.7291 27.9655 19.6204 27.7032 19.427 27.5098C19.2336 27.3164 18.9713 27.2078 18.6978 27.2078H13.763C13.3646 27.2081 12.9827 27.3665 12.701 27.6481C12.4193 27.9297 12.2608 28.3116 12.2603 28.7099V38.567C12.2608 38.9653 12.4193 39.3472 12.701 39.6288C12.9827 39.9104 13.3646 40.0688 13.763 40.0692Z" fill="#B90F0F"/>
<path d="M25.9875 26.6292C25.8834 26.5426 25.7633 26.4773 25.634 26.4371C25.5046 26.3969 25.3687 26.3826 25.2338 26.3949C25.0989 26.4073 24.9678 26.4461 24.848 26.5091C24.7281 26.5721 24.6218 26.6581 24.5352 26.7622L19.6158 32.6735L18.0373 31.3963C17.9322 31.3093 17.8109 31.2439 17.6804 31.2041C17.5498 31.1643 17.4127 31.1508 17.2769 31.1643C17.1411 31.1779 17.0094 31.2183 16.8893 31.2831C16.7693 31.348 16.6632 31.436 16.5775 31.5421C16.4917 31.6482 16.4278 31.7703 16.3895 31.9013C16.3513 32.0323 16.3394 32.1696 16.3545 32.3052C16.3697 32.4408 16.4117 32.5721 16.4779 32.6913C16.5442 32.8106 16.6335 32.9156 16.7407 33.0001L18.6382 34.5353C18.9499 34.7918 19.3456 34.9238 19.7489 34.906C20.1523 34.8881 20.5347 34.7217 20.8227 34.4387L20.8641 34.399L26.1207 28.0819C26.2074 27.9778 26.2727 27.8576 26.3129 27.7282C26.3531 27.5989 26.3675 27.4629 26.3551 27.328C26.3427 27.193 26.3039 27.0619 26.2408 26.942C26.1778 26.8221 26.0917 26.7158 25.9875 26.6292Z" fill="#B90F0F"/>
<path d="M75.9858 27.9265H35.7456C35.4721 27.9265 35.2098 28.0352 35.0164 28.2286C34.823 28.422 34.7144 28.6843 34.7144 28.9578C34.7144 29.2313 34.823 29.4936 35.0164 29.687C35.2098 29.8804 35.4721 29.989 35.7456 29.989H75.9858C76.2593 29.989 76.5216 29.8804 76.715 29.687C76.9084 29.4936 77.0171 29.2313 77.0171 28.9578C77.0171 28.6843 76.9084 28.422 76.715 28.2286C76.5216 28.0352 76.2593 27.9265 75.9858 27.9265Z" fill="#B90F0F"/>
<path d="M75.9858 36.4707H35.7456C35.4721 36.4707 35.2098 36.5794 35.0164 36.7728C34.823 36.9661 34.7144 37.2284 34.7144 37.502C34.7144 37.7755 34.823 38.0378 35.0164 38.2312C35.2098 38.4246 35.4721 38.5332 35.7456 38.5332H75.9858C76.2593 38.5332 76.5216 38.4246 76.715 38.2312C76.9084 38.0378 77.0171 37.7755 77.0171 37.502C77.0171 37.2284 76.9084 36.9661 76.715 36.7728C76.5216 36.5794 76.2593 36.4707 75.9858 36.4707Z" fill="#B90F0F"/>
<path d="M24.1043 56.0559C23.8308 56.0559 23.5685 56.1645 23.3751 56.3579C23.1817 56.5513 23.0731 56.8136 23.0731 57.0871V59.8639H14.3228V51.1272H18.6978C18.9713 51.1272 19.2336 51.0185 19.427 50.8252C19.6204 50.6318 19.7291 50.3695 19.7291 50.0959C19.7291 49.8224 19.6204 49.5601 19.427 49.3667C19.2336 49.1734 18.9713 49.0647 18.6978 49.0647H13.763C13.3646 49.0651 12.9827 49.2235 12.701 49.5051C12.4193 49.7867 12.2608 50.1686 12.2603 50.5669V60.4239C12.2608 60.8223 12.4192 61.2042 12.701 61.4858C12.9827 61.7675 13.3646 61.9259 13.763 61.9263H23.6329C24.0312 61.9259 24.4132 61.7675 24.6949 61.4858C24.9766 61.2042 25.1351 60.8223 25.1356 60.4239V57.0871C25.1356 56.8136 25.0269 56.5513 24.8335 56.3579C24.6401 56.1645 24.3778 56.0559 24.1043 56.0559Z" fill="#B90F0F"/>
<path d="M25.9877 48.4858C25.8836 48.3992 25.7635 48.3339 25.6341 48.2938C25.5048 48.2536 25.3688 48.2393 25.234 48.2516C25.0991 48.264 24.968 48.3028 24.8481 48.3658C24.7283 48.4289 24.622 48.5149 24.5354 48.619L19.6165 54.5302L18.038 53.2531C17.9329 53.1662 17.8117 53.1011 17.6812 53.0614C17.5508 53.0216 17.4138 53.0082 17.2781 53.0218C17.1424 53.0354 17.0108 53.0757 16.8909 53.1405C16.7709 53.2053 16.665 53.2932 16.5792 53.3992C16.4934 53.5052 16.4295 53.6271 16.3912 53.758C16.3529 53.8888 16.3409 54.026 16.3559 54.1615C16.3709 54.297 16.4126 54.4282 16.4787 54.5475C16.5447 54.6667 16.6338 54.7717 16.7407 54.8564L18.6382 56.3916C18.95 56.648 19.3456 56.7801 19.7489 56.7623C20.1523 56.7445 20.5347 56.5781 20.8227 56.2951L20.8641 56.2553L26.1208 49.9382C26.2074 49.8341 26.2727 49.7139 26.3129 49.5846C26.3531 49.4553 26.3674 49.3193 26.355 49.1844C26.3427 49.0496 26.3039 48.9185 26.2409 48.7986C26.1778 48.6787 26.0918 48.5725 25.9877 48.4858Z" fill="#B90F0F"/>
<path d="M75.986 49.7837H67.6074C67.3339 49.7837 67.0716 49.8923 66.8782 50.0857C66.6848 50.2791 66.5762 50.5414 66.5762 50.8149C66.5762 51.0884 66.6848 51.3507 66.8782 51.5441C67.0716 51.7375 67.3339 51.8462 67.6074 51.8462H75.986C76.2595 51.8462 76.5218 51.7375 76.7152 51.5441C76.9086 51.3507 77.0172 51.0884 77.0172 50.8149C77.0172 50.5414 76.9086 50.2791 76.7152 50.0857C76.5218 49.8923 76.2595 49.7837 75.986 49.7837Z" fill="#B90F0F"/>
<path d="M48.8148 49.7837H35.7456C35.4721 49.7837 35.2098 49.8923 35.0164 50.0857C34.823 50.2791 34.7144 50.5414 34.7144 50.8149C34.7144 51.0884 34.823 51.3507 35.0164 51.5441C35.2098 51.7375 35.4721 51.8462 35.7456 51.8462H48.8148C49.0883 51.8462 49.3506 51.7375 49.544 51.5441C49.7374 51.3507 49.8461 51.0884 49.8461 50.8149C49.8461 50.5414 49.7374 50.2791 49.544 50.0857C49.3506 49.8923 49.0883 49.7837 48.8148 49.7837Z" fill="#B90F0F"/>
<path d="M39.2678 58.3279H35.7456C35.4721 58.3279 35.2098 58.4365 35.0164 58.6299C34.823 58.8233 34.7144 59.0856 34.7144 59.3591C34.7144 59.6326 34.823 59.8949 35.0164 60.0883C35.2098 60.2817 35.4721 60.3904 35.7456 60.3904H39.2678C39.5413 60.3904 39.8036 60.2817 39.997 60.0883C40.1904 59.8949 40.2991 59.6326 40.2991 59.3591C40.2991 59.0856 40.1904 58.8233 39.997 58.6299C39.8036 58.4365 39.5413 58.3279 39.2678 58.3279Z" fill="#B90F0F"/>
<path d="M81.1876 1.71875H6.81244C5.5532 1.72007 4.3459 2.22084 3.45542 3.11119C2.56494 4.00154 2.064 5.20876 2.0625 6.468V68.1024C2.06363 69.3605 2.56347 70.5668 3.45248 71.457C4.34148 72.3472 5.54714 72.8486 6.80522 72.8515L46.1366 73.1297L48.129 80.959C48.1324 80.9729 48.1363 80.9868 48.1405 81.0007C48.591 82.5305 49.5262 83.8725 50.8054 84.8249C52.0845 85.7772 53.6384 86.2883 55.2331 86.2812H69.612C71.5756 86.2786 73.458 85.4972 74.8462 84.1085C76.2345 82.7197 77.0152 80.8371 77.0172 78.8734V73.0813L81.2176 72.8521C82.4716 72.8428 83.6712 72.3386 84.5552 71.4491C85.4392 70.5596 85.936 69.3569 85.9375 68.1029V6.468C85.936 5.20876 85.4351 4.00154 84.5446 3.11119C83.6541 2.22084 82.4468 1.72007 81.1876 1.71875ZM6.81244 3.78125H81.1876C81.9 3.78193 82.583 4.0652 83.0869 4.56889C83.5907 5.07259 83.8741 5.75558 83.875 6.468V16.9092H4.125V6.468C4.12586 5.75558 4.4093 5.07259 4.91313 4.56889C5.41695 4.0652 6.10001 3.78193 6.81244 3.78125ZM74.9547 78.8734C74.9533 80.2902 74.3901 81.6487 73.3885 82.6507C72.3869 83.6528 71.0288 84.2167 69.612 84.2188H55.2331C54.0861 84.2238 52.9683 83.8573 52.047 83.1741C51.1257 82.4909 50.4504 81.5278 50.1222 80.4287L47.9394 71.8503C47.4248 69.8303 46.7383 67.858 45.8875 65.955L45.7188 65.5545C46.8177 65.5545 47.9002 65.8213 48.8732 66.332C49.8462 66.8428 50.6806 67.5822 51.3047 68.4867L53.0781 71.056V74.8859C53.0781 75.1594 53.1867 75.4217 53.3801 75.6151C53.5735 75.8085 53.8358 75.9172 54.1093 75.9172C54.3828 75.9172 54.6451 75.8085 54.8385 75.6151C55.0319 75.4217 55.1406 75.1594 55.1406 74.8859V46.8581C55.1406 46.3436 55.345 45.8503 55.7087 45.4865C56.0725 45.1227 56.5659 44.9183 57.0804 44.9183C57.5948 44.9183 58.0882 45.1227 58.452 45.4865C58.8158 45.8503 59.0202 46.3436 59.0202 46.8581V65.164C59.0202 65.2647 59.035 65.3649 59.0642 65.4613V69.6652C59.0642 69.9387 59.1728 70.201 59.3662 70.3944C59.5596 70.5878 59.8219 70.6965 60.0954 70.6965C60.3689 70.6965 60.6312 70.5878 60.8246 70.3944C61.018 70.201 61.1267 69.9387 61.1267 69.6652V63.9055C61.1267 63.4976 61.2887 63.1063 61.5772 62.8178C61.8657 62.5293 62.257 62.3673 62.6649 62.3673C63.0729 62.3673 63.4642 62.5293 63.7527 62.8178C64.0411 63.1063 64.2032 63.4976 64.2032 63.9055V65.0743C64.1766 65.2543 64.1631 65.436 64.163 65.6179V69.6659C64.163 69.9394 64.2717 70.2017 64.465 70.3951C64.6584 70.5885 64.9207 70.6972 65.1943 70.6972H65.2144C65.2144 70.6972 65.2276 70.6972 65.2345 70.6972C65.508 70.6972 65.7703 70.5885 65.9637 70.3951C66.1571 70.2017 66.2657 69.9394 66.2657 69.6659V65.2587C66.3534 64.8601 66.5854 64.5079 66.917 64.27C67.2486 64.032 67.6564 63.9249 68.0622 63.9694C68.4679 64.0139 68.8429 64.2067 69.1151 64.5109C69.3872 64.815 69.5374 65.2091 69.5367 65.6172V70.7348C69.5367 71.0083 69.6453 71.2706 69.8387 71.464C70.0321 71.6574 70.2944 71.7661 70.5679 71.7661C70.8414 71.7661 71.1037 71.6574 71.2971 71.464C71.4905 71.2706 71.5992 71.0083 71.5992 70.7348V67.2336C71.5969 67.0118 71.6387 66.7918 71.722 66.5863C71.8053 66.3808 71.9285 66.1939 72.0845 66.0363C72.2405 65.8787 72.4262 65.7536 72.6308 65.6682C72.8355 65.5829 73.055 65.5389 73.2768 65.5389C73.4985 65.5389 73.718 65.5829 73.9227 65.6682C74.1273 65.7536 74.313 65.8787 74.469 66.0363C74.625 66.1939 74.7483 66.3808 74.8316 66.5863C74.9148 66.7918 74.9566 67.0118 74.9543 67.2336L74.9547 78.8734ZM81.1879 70.7903C81.1692 70.7903 81.1504 70.7903 81.1317 70.792L77.0172 71.0155V67.2342C77.0181 66.5634 76.8383 65.9048 76.4969 65.3274C76.1554 64.75 75.6649 64.2751 75.0766 63.9527C74.4884 63.6302 73.8242 63.4721 73.1538 63.4948C72.4834 63.5175 71.8315 63.7203 71.2664 64.0819C71.0497 63.6027 70.7337 63.175 70.3393 62.8271C69.9449 62.4792 69.4811 62.219 68.9786 62.0638C68.4761 61.9086 67.9464 61.8619 67.4245 61.9267C66.9026 61.9915 66.4004 62.1665 65.9512 62.4399C65.7556 61.9974 65.4726 61.599 65.119 61.2688C64.7654 60.9386 64.3486 60.6834 63.8938 60.5185C63.4389 60.3536 62.9554 60.2825 62.4723 60.3095C61.9893 60.3364 61.5167 60.4609 61.083 60.6753V46.8581C61.083 45.7966 60.6613 44.7786 59.9108 44.0281C59.1602 43.2775 58.1422 42.8558 57.0807 42.8558C56.0192 42.8558 55.0013 43.2775 54.2507 44.0281C53.5001 44.7786 53.0784 45.7966 53.0784 46.8581V67.4252L53.0025 67.3152C52.1887 66.1357 51.1007 65.1716 49.832 64.5056C48.5632 63.8396 47.1517 63.4918 45.7188 63.492C45.3735 63.4921 45.0337 63.5785 44.7303 63.7435C44.427 63.9084 44.1697 64.1466 43.982 64.4364C43.7942 64.7262 43.6819 65.0584 43.6554 65.4026C43.6288 65.7469 43.6888 66.0924 43.8298 66.4075L44.0036 66.7963C44.6229 68.1825 45.15 69.6081 45.5814 71.0638L6.81175 70.7888C6.09959 70.7879 5.41684 70.5047 4.91319 70.0012C4.40954 69.4977 4.12609 68.815 4.125 68.1029V18.9717H83.875V68.1029C83.8741 68.8153 83.5906 69.4982 83.0868 70.0019C82.583 70.5055 81.9 70.7888 81.1876 70.7895L81.1879 70.7903Z" fill="#B90F0F"/>
<path d="M10.6904 14.168C11.4723 14.168 12.2366 13.9361 12.8867 13.5017C13.5368 13.0674 14.0434 12.45 14.3426 11.7276C14.6418 11.0053 14.7201 10.2105 14.5676 9.44363C14.4151 8.6768 14.0386 7.97242 13.4857 7.41956C12.9329 6.86671 12.2285 6.49021 11.4616 6.33768C10.6948 6.18515 9.89997 6.26343 9.17763 6.56263C8.45529 6.86184 7.8379 7.36852 7.40353 8.01861C6.96915 8.66869 6.7373 9.43299 6.7373 10.2148C6.7384 11.2629 7.15524 12.2678 7.89635 13.0089C8.63747 13.75 9.64233 14.1669 10.6904 14.168ZM10.6904 8.3256C11.0644 8.3256 11.4299 8.43648 11.7408 8.64422C12.0517 8.85197 12.294 9.14724 12.4371 9.49271C12.5802 9.83818 12.6177 10.2183 12.5447 10.5851C12.4718 10.9518 12.2917 11.2887 12.0273 11.5531C11.7629 11.8175 11.426 11.9976 11.0593 12.0705C10.6925 12.1435 10.3124 12.106 9.96692 11.9629C9.62145 11.8198 9.32618 11.5775 9.11843 11.2666C8.91069 10.9557 8.7998 10.5902 8.7998 10.2162C8.80026 9.71493 8.9996 9.23431 9.35406 8.87985C9.70852 8.52539 10.1891 8.32605 10.6904 8.3256Z" fill="#B90F0F"/>
<path d="M21.1118 14.168C21.8937 14.168 22.658 13.9361 23.3081 13.5017C23.9581 13.0674 24.4648 12.45 24.764 11.7276C25.0632 11.0053 25.1415 10.2105 24.989 9.44363C24.8365 8.6768 24.46 7.97242 23.9071 7.41956C23.3542 6.86671 22.6499 6.49021 21.883 6.33768C21.1162 6.18515 20.3214 6.26343 19.599 6.56263C18.8767 6.86184 18.2593 7.36852 17.8249 8.01861C17.3905 8.66869 17.1587 9.43299 17.1587 10.2148C17.1598 11.2629 17.5766 12.2678 18.3177 13.0089C19.0589 13.75 20.0637 14.1669 21.1118 14.168ZM21.1118 8.3256C21.4857 8.3256 21.8513 8.43648 22.1622 8.64422C22.4731 8.85197 22.7154 9.14724 22.8585 9.49271C23.0016 9.83818 23.0391 10.2183 22.9661 10.5851C22.8932 10.9518 22.7131 11.2887 22.4487 11.5531C22.1843 11.8175 21.8474 11.9976 21.4807 12.0705C21.1139 12.1435 20.7338 12.106 20.3883 11.9629C20.0428 11.8198 19.7476 11.5775 19.5398 11.2666C19.3321 10.9557 19.2212 10.5902 19.2212 10.2162C19.2216 9.71493 19.421 9.23431 19.7754 8.87985C20.1299 8.52539 20.6105 8.32605 21.1118 8.3256Z" fill="#B90F0F"/>
<path d="M31.5337 14.168C32.3155 14.168 33.0798 13.9361 33.7299 13.5017C34.38 13.0674 34.8867 12.45 35.1859 11.7276C35.4851 11.0053 35.5634 10.2105 35.4109 9.44363C35.2583 8.6768 34.8818 7.97242 34.329 7.41956C33.7761 6.86671 33.0717 6.49021 32.3049 6.33768C31.5381 6.18515 30.7432 6.26343 30.0209 6.56263C29.2986 6.86184 28.6812 7.36852 28.2468 8.01861C27.8124 8.66869 27.5806 9.43299 27.5806 10.2148C27.5817 11.2629 27.9985 12.2678 28.7396 13.0089C29.4807 13.75 30.4856 14.1669 31.5337 14.168ZM31.5337 8.3256C31.9076 8.3256 32.2732 8.43648 32.5841 8.64422C32.895 8.85197 33.1373 9.14724 33.2804 9.49271C33.4235 9.83818 33.4609 10.2183 33.388 10.5851C33.315 10.9518 33.135 11.2887 32.8706 11.5531C32.6062 11.8175 32.2693 11.9976 31.9025 12.0705C31.5358 12.1435 31.1556 12.106 30.8102 11.9629C30.4647 11.8198 30.1694 11.5775 29.9617 11.2666C29.7539 10.9557 29.6431 10.5902 29.6431 10.2162C29.6435 9.71493 29.8429 9.23431 30.1973 8.87985C30.5518 8.52539 31.0324 8.32605 31.5337 8.3256Z" fill="#B90F0F"/>
<path d="M46.9219 11.0515H80.426C80.6995 11.0515 80.9618 10.9429 81.1552 10.7495C81.3486 10.5561 81.4572 10.2938 81.4572 10.0203C81.4572 9.74676 81.3486 9.48446 81.1552 9.29106C80.9618 9.09766 80.6995 8.98901 80.426 8.98901H46.9219C46.6484 8.98901 46.3861 9.09766 46.1927 9.29106C45.9993 9.48446 45.8906 9.74676 45.8906 10.0203C45.8906 10.2938 45.9993 10.5561 46.1927 10.7495C46.3861 10.9429 46.6484 11.0515 46.9219 11.0515Z" fill="#B90F0F"/>
</svg>
