<svg width="102" height="95" viewBox="0 0 102 95" fill="none" xmlns="http://www.w3.org/2000/svg">
<path d="M79.2684 41.7767C81.3373 40.2785 83.0553 38.3497 84.3036 36.1237C85.5519 33.8976 86.3007 31.4276 86.4982 28.8844C86.6957 26.3412 86.3371 23.7855 85.4473 21.3941C84.5576 19.0028 83.1578 16.8329 81.345 15.0346C79.7655 13.4638 77.8865 12.2249 75.819 11.3911C73.7515 10.5573 71.5376 10.1455 69.3079 10.18C60.0499 10.3117 52.5325 18.1119 52.5504 27.5684C52.5488 30.3441 53.2087 33.0803 54.4758 35.5512C55.7428 38.0222 57.5806 40.157 59.8374 41.7794C59.9529 41.8664 60.0461 41.9796 60.1092 42.1096C60.1723 42.2396 60.2035 42.3827 60.2004 42.5271V44.7918C59.3559 45.2777 58.6688 45.9951 58.2204 46.8588C57.7721 47.7226 57.5813 48.6965 57.6708 49.6651C57.7603 50.6338 58.1262 51.5565 58.7252 52.3239C59.3242 53.0913 60.1311 53.6713 61.0504 53.995V55.9821C61.0519 57.3314 61.5897 58.625 62.5458 59.5791C63.5019 60.5332 64.7982 61.0699 66.1504 61.0714H72.9504C74.3025 61.0698 75.5988 60.5331 76.5549 59.5791C77.511 58.625 78.0488 57.3314 78.0504 55.9821V53.9939C78.9696 53.6702 79.7765 53.0903 80.3755 52.3229C80.9745 51.5554 81.3405 50.6327 81.4299 49.6641C81.5194 48.6954 81.3286 47.7215 80.8803 46.8578C80.432 45.994 79.7448 45.2767 78.9004 44.7908V42.5269C78.8976 42.3817 78.9295 42.2379 78.9935 42.1074C79.0575 41.9769 79.1518 41.8635 79.2684 41.7767ZM55.9512 27.5623C55.9368 19.954 61.9507 13.6783 69.3574 13.5729C69.4212 13.5729 69.4866 13.5714 69.5514 13.5714C73.0783 13.5713 76.4614 14.9668 78.9588 17.452C80.4184 18.9029 81.5453 20.6525 82.2618 22.5801C82.9783 24.5076 83.2674 26.5673 83.109 28.6171C82.9507 30.6669 82.3488 32.6581 81.3447 34.4533C80.3407 36.2486 78.9584 37.8051 77.2932 39.0157C76.7364 39.417 76.2834 39.9448 75.9718 40.5556C75.6602 41.1663 75.4988 41.8424 75.5012 42.5278V44.1071H63.6012V42.5271C63.604 41.8424 63.4431 41.1669 63.132 40.5566C62.8209 39.9463 62.3686 39.4188 61.8124 39.0178C59.9952 37.7089 58.516 35.9875 57.4968 33.9957C56.4777 32.0039 55.9479 29.7987 55.9512 27.5623ZM72.9512 57.6786H66.1512C65.7005 57.6781 65.2684 57.4992 64.9497 57.1811C64.631 56.8631 64.4517 56.4319 64.4512 55.9821V54.2857H74.6512V55.9821C74.6507 56.4319 74.4714 56.8631 74.1527 57.1811C73.834 57.4992 73.4019 57.6781 72.9512 57.6786ZM76.3512 50.8928H62.7512C62.3003 50.8928 61.8679 50.7141 61.5491 50.396C61.2303 50.0778 61.0512 49.6463 61.0512 49.1964C61.0512 48.7465 61.2303 48.315 61.5491 47.9969C61.8679 47.6787 62.3003 47.5 62.7512 47.5H76.3512C76.8021 47.5 77.2345 47.6787 77.5533 47.9969C77.8721 48.315 78.0512 48.7465 78.0512 49.1964C78.0512 49.6463 77.8721 50.0778 77.5533 50.396C77.2345 50.7141 76.8021 50.8928 76.3512 50.8928Z" fill="#B90F0F"/>
<path d="M72.3074 20.8964C73.3763 21.344 74.33 22.0272 75.0969 22.8947C75.8637 23.7622 76.424 24.7917 76.7357 25.9059C76.863 26.333 77.1536 26.6929 77.5446 26.908C77.9357 27.123 78.3958 27.1759 78.8256 27.0552C79.2554 26.9345 79.6204 26.6499 79.8416 26.2629C80.0629 25.8759 80.1227 25.4175 80.0082 24.9869C79.5548 23.3769 78.7423 21.8901 77.6315 20.6379C76.5208 19.3856 75.1405 18.4004 73.5941 17.7559C73.1768 17.5855 72.7087 17.5876 72.2929 17.7616C71.8771 17.9356 71.5477 18.2673 71.3769 18.6837C71.2062 19.1001 71.2083 19.5672 71.3827 19.9821C71.557 20.397 71.8901 20.726 72.3074 20.8964Z" fill="#B90F0F"/>
<path d="M71.2513 5.08929V1.69643C71.2513 1.24651 71.0722 0.815015 70.7534 0.496873C70.4346 0.178731 70.0022 0 69.5513 0C69.1004 0 68.6681 0.178731 68.3492 0.496873C68.0304 0.815015 67.8513 1.24651 67.8513 1.69643V5.08929C67.8513 5.53921 68.0304 5.9707 68.3492 6.28884C68.6681 6.60698 69.1004 6.78571 69.5513 6.78571C70.0022 6.78571 70.4346 6.60698 70.7534 6.28884C71.0722 5.9707 71.2513 5.53921 71.2513 5.08929Z" fill="#B90F0F"/>
<path d="M59.8716 8.83946C60.1547 8.83893 60.4333 8.76787 60.6819 8.63274C60.9306 8.49762 61.1415 8.30268 61.2956 8.06563C61.4496 7.82857 61.542 7.55689 61.5642 7.27521C61.5864 6.99354 61.5378 6.71078 61.4228 6.45259L60.0399 3.353C59.8565 2.94197 59.517 2.62047 59.0961 2.45923C58.6751 2.29799 58.2073 2.31022 57.7954 2.49323C57.3835 2.67623 57.0613 3.01502 56.8997 3.43507C56.7381 3.85512 56.7504 4.32201 56.9338 4.73304L58.3167 7.83263C58.4505 8.1326 58.6686 8.38739 58.9446 8.56611C59.2206 8.74482 59.5426 8.83978 59.8716 8.83946Z" fill="#B90F0F"/>
<path d="M51.8635 14.644C52.2074 14.6441 52.5433 14.5401 52.8267 14.3458C53.1102 14.1515 53.3279 13.876 53.4512 13.5557C53.5744 13.2353 53.5975 12.8852 53.5172 12.5515C53.4369 12.2178 53.2571 11.9163 53.0015 11.6867L50.4749 9.41643C50.1397 9.11538 49.6984 8.95952 49.2481 8.98314C48.7978 9.00677 48.3753 9.20793 48.0736 9.54239C47.7719 9.87685 47.6157 10.3172 47.6394 10.7666C47.6631 11.216 47.8647 11.6375 48.1998 11.9386L50.7265 14.2076C51.0381 14.4887 51.4434 14.6443 51.8635 14.644Z" fill="#B90F0F"/>
<path d="M48.5327 22.0241C48.672 21.5962 48.6352 21.1306 48.4305 20.7298C48.2258 20.3289 47.8699 20.0256 47.4411 19.8866L44.2075 18.8384C43.9948 18.768 43.7702 18.7403 43.5467 18.7568C43.3232 18.7734 43.1051 18.8338 42.9051 18.9348C42.7051 19.0357 42.5271 19.1751 42.3813 19.345C42.2355 19.5149 42.1248 19.7118 42.0555 19.9245C41.9863 20.1372 41.9599 20.3615 41.9778 20.5844C41.9958 20.8074 42.0577 21.0246 42.1601 21.2235C42.2625 21.4225 42.4033 21.5993 42.5744 21.7437C42.7455 21.8882 42.9435 21.9975 43.1571 22.0652L46.3907 23.1139C46.603 23.183 46.8269 23.2096 47.0496 23.1922C47.2722 23.1749 47.4892 23.1138 47.6882 23.0127C47.8872 22.9115 48.0642 22.7721 48.2091 22.6025C48.354 22.433 48.464 22.2361 48.5327 22.0241Z" fill="#B90F0F"/>
<path d="M45.7037 29.6347L42.3224 29.9895C42.0992 30.0113 41.8826 30.077 41.6849 30.1827C41.4873 30.2884 41.3126 30.4321 41.1708 30.6055C41.0291 30.779 40.9231 30.9786 40.859 31.1931C40.795 31.4075 40.774 31.6325 40.7975 31.8551C40.8209 32.0776 40.8882 32.2934 40.9956 32.4899C41.1029 32.6863 41.2482 32.8597 41.4229 32.9999C41.5977 33.1401 41.7986 33.2445 42.0139 33.3069C42.2293 33.3693 42.4549 33.3886 42.6777 33.3637L46.0592 33.0089C46.5056 32.9593 46.9141 32.7356 47.1957 32.3864C47.4772 32.0373 47.6089 31.5912 47.562 31.1455C47.515 30.6998 47.2932 30.2907 46.9451 30.0077C46.5969 29.7246 46.1506 29.5905 45.7037 29.6347Z" fill="#B90F0F"/>
<path d="M93.0428 33.0089L96.4241 33.3637C96.8713 33.4084 97.318 33.2747 97.6667 32.9916C98.0153 32.7086 98.2374 32.2992 98.2844 31.8532C98.3314 31.4072 98.1996 30.9607 97.9176 30.6114C97.6356 30.2622 97.2265 30.0386 96.7798 29.9895L93.3983 29.6347C93.1756 29.61 92.9501 29.6294 92.7349 29.692C92.5198 29.7545 92.3191 29.8589 92.1445 29.9991C91.9699 30.1393 91.8248 30.3126 91.7176 30.509C91.6104 30.7053 91.5431 30.9209 91.5196 31.1434C91.4962 31.3658 91.5171 31.5906 91.581 31.8049C91.645 32.0193 91.7508 32.2189 91.8924 32.3923C92.0339 32.5656 92.2084 32.7094 92.4059 32.8152C92.6033 32.921 92.8198 32.9869 93.0428 33.0089Z" fill="#B90F0F"/>
<path d="M92.1858 23.1969C92.3644 23.1969 92.5418 23.1687 92.7115 23.1134L95.9451 22.0652C96.1575 21.9964 96.3541 21.8865 96.5239 21.7418C96.6936 21.5971 96.8332 21.4205 96.9345 21.222C97.0359 21.0235 97.0971 20.807 97.1146 20.5849C97.1321 20.3628 97.1056 20.1395 97.0366 19.9276C96.9677 19.7157 96.8575 19.5195 96.7125 19.3501C96.5676 19.1807 96.3906 19.0414 96.1917 18.9403C95.9927 18.8391 95.7758 18.7781 95.5533 18.7606C95.3307 18.7431 95.1069 18.7696 94.8945 18.8384L91.6611 19.8866C91.2758 20.0111 90.9477 20.2688 90.7359 20.6132C90.524 20.9577 90.4424 21.3663 90.5057 21.7655C90.5689 22.1647 90.773 22.5283 91.081 22.7907C91.389 23.0531 91.7808 23.1972 92.1858 23.1969Z" fill="#B90F0F"/>
<path d="M88.3756 14.2076L90.902 11.9386C91.2371 11.6376 91.4386 11.216 91.4622 10.7666C91.4858 10.3173 91.3296 9.87702 91.0278 9.54264C90.7261 9.20827 90.3037 9.00719 89.8534 8.98365C89.4031 8.96011 88.9619 9.11602 88.6268 9.41711L86.1004 11.6867C85.7715 11.9894 85.5754 12.4092 85.5547 12.8552C85.534 13.3012 85.6903 13.7373 85.9897 14.0691C86.2891 14.4008 86.7075 14.6014 87.1542 14.6273C87.6008 14.6533 88.0397 14.5025 88.3756 14.2076Z" fill="#B90F0F"/>
<path d="M79.2305 8.83946C79.5593 8.83961 79.8812 8.74458 80.157 8.56588C80.4328 8.38717 80.6508 8.13246 80.7845 7.83263L82.1674 4.73304C82.3508 4.32201 82.3631 3.85512 82.2015 3.43507C82.0399 3.01502 81.7177 2.67623 81.3058 2.49323C80.8939 2.31022 80.4261 2.29799 80.0051 2.45923C79.5842 2.62047 79.2447 2.94197 79.0613 3.353L77.6784 6.45258C77.5634 6.71078 77.5148 6.99354 77.537 7.27521C77.5592 7.55689 77.6516 7.82857 77.8056 8.06563C77.9597 8.30268 78.1706 8.49761 78.4193 8.63274C78.6679 8.76787 78.9473 8.83892 79.2305 8.83946Z" fill="#B90F0F"/>
<path d="M96.9 81.4286H74.8V79.7321C74.8 77.1852 71.4782 75.3299 70.4603 74.822C70.373 74.7785 70.2821 74.7424 70.1885 74.7143L53.5498 69.733C52.4968 68.8048 48.7333 65.5455 44.1318 62.2394C36.7852 56.9616 31.0887 54.2857 27.2 54.2857H13.6V52.5893C13.6 52.1394 13.4209 51.7079 13.1021 51.3897C12.7833 51.0716 12.3509 50.8929 11.9 50.8929H1.7C1.24913 50.8929 0.81673 51.0716 0.497918 51.3897C0.179107 51.7079 0 52.1394 0 52.5893V89.9107C0 90.3606 0.179107 90.7921 0.497918 91.1103C0.81673 91.4284 1.24913 91.6071 1.7 91.6071H11.9C12.3509 91.6071 12.7833 91.4284 13.1021 91.1103C13.4209 90.7921 13.6 90.3606 13.6 89.9107V88.2143H18.6207C19.6813 88.3551 28.3568 90.0642 36.0255 91.5751C51.3644 94.5971 53.5313 95 54.0096 95H96.9C98.2521 94.9984 99.5484 94.4617 100.505 93.5076C101.461 92.5536 101.998 91.26 102 89.9107V86.5179C101.998 85.1686 101.461 83.875 100.505 82.9209C99.5484 81.9668 98.2521 81.4301 96.9 81.4286ZM10.2 88.2143H3.4V54.2857H10.2V88.2143ZM98.6 89.9107C98.5995 90.3605 98.4202 90.7917 98.1015 91.1097C97.7828 91.4277 97.3507 91.6066 96.9 91.6071H54.0889C53.0283 91.4663 44.3528 89.7572 36.6852 88.2463C21.3452 85.2243 19.1783 84.8214 18.7 84.8214H13.6V57.6786H27.2C33.6326 57.6786 46.9674 68.3854 51.5629 72.5111C51.7496 72.6786 51.971 72.8029 52.2115 72.875L69.0627 77.9199C70.1212 78.4725 71.2372 79.3604 71.3989 79.7839V83.125C71.3984 83.5506 71.2378 83.9606 70.9489 84.2737C70.66 84.5868 70.2638 84.7803 69.8388 84.8159L53.3039 81.5155L41.6434 74.8664C41.4496 74.7555 41.2357 74.6838 41.0141 74.6555C40.7924 74.6271 40.5674 74.6426 40.3518 74.7012C40.1362 74.7597 39.9342 74.86 39.7575 74.9965C39.5808 75.133 39.4328 75.3029 39.3219 75.4965C39.2111 75.6901 39.1395 75.9036 39.1115 76.1248C39.0834 76.346 39.0992 76.5706 39.1582 76.7856C39.2171 77.0007 39.318 77.2021 39.455 77.3782C39.592 77.5544 39.7624 77.7019 39.9566 77.8122L51.8566 84.5979C52.0152 84.6885 52.1874 84.7529 52.3666 84.7888L69.3666 88.1816C69.4764 88.2034 69.5881 88.2143 69.7 88.2143C70.7544 88.2131 71.7826 87.8863 72.6435 87.2788C73.5045 86.6714 74.156 85.813 74.5087 84.8214H96.9C97.3507 84.8219 97.7828 85.0008 98.1015 85.3189C98.4202 85.6369 98.5995 86.0681 98.6 86.5179V89.9107Z" fill="#B90F0F"/>
</svg>
