<svg width="92" height="92" viewBox="0 0 92 92" fill="none" xmlns="http://www.w3.org/2000/svg">
<path d="M51.6815 44.3108C52.8416 42.9834 53.5469 41.2487 53.5469 39.3516V37.9141C53.5469 33.7527 50.1614 30.3672 46 30.3672C41.8386 30.3672 38.4531 33.7527 38.4531 37.9141V39.3516C38.4531 41.2487 39.1584 42.9834 40.3185 44.3108C33.9935 46.6327 29.4688 52.7158 29.4688 59.8359C29.4688 60.8282 30.2732 61.6328 31.2656 61.6328H37.9141C38.9065 61.6328 39.7109 60.8282 39.7109 59.8359C39.7109 58.8437 38.9065 58.0391 37.9141 58.0391H33.1867C34.0639 51.7527 39.4757 46.8984 45.9998 46.8984C52.5239 46.8984 57.9357 51.7527 58.813 58.0391H54.0859C53.0935 58.0391 52.2891 58.8437 52.2891 59.8359C52.2891 60.8282 53.0935 61.6328 54.0859 61.6328H60.7344C61.7268 61.6328 62.5312 60.8282 62.5312 59.8359C62.5312 52.7158 58.0065 46.6327 51.6815 44.3108ZM42.0469 39.3516V37.9141C42.0469 35.7343 43.8202 33.9609 46 33.9609C48.1798 33.9609 49.9531 35.7343 49.9531 37.9141V39.3516C49.9531 41.5313 48.1798 43.3047 46 43.3047C43.8202 43.3047 42.0469 41.5313 42.0469 39.3516Z" fill="#B90F0F"/>
<path d="M44.2031 14.8758V24.4375C44.2031 25.4299 45.0076 26.2344 46 26.2344C46.9924 26.2344 47.7969 25.4299 47.7969 24.4375V14.8758C51.0932 14.0674 53.5469 11.0889 53.5469 7.54688C53.5469 3.38549 50.1614 0 46 0C41.8386 0 38.4531 3.38549 38.4531 7.54688C38.4531 11.0891 40.9068 14.0674 44.2031 14.8758ZM46 3.59375C48.1798 3.59375 49.9531 5.36709 49.9531 7.54688C49.9531 9.72666 48.1798 11.5 46 11.5C43.8202 11.5 42.0469 9.72666 42.0469 7.54688C42.0469 5.36709 43.8202 3.59375 46 3.59375Z" fill="#B90F0F"/>
<path d="M47.7969 77.1242V67.9219C47.7969 66.9296 46.9924 66.125 46 66.125C45.0076 66.125 44.2031 66.9296 44.2031 67.9219V77.1242C40.9068 77.9326 38.4531 80.9109 38.4531 84.4531C38.4531 88.6145 41.8386 92 46 92C50.1614 92 53.5469 88.6145 53.5469 84.4531C53.5469 80.9109 51.0932 77.9324 47.7969 77.1242ZM46 88.4062C43.8202 88.4062 42.0469 86.6329 42.0469 84.4531C42.0469 82.2733 43.8202 80.5 46 80.5C48.1798 80.5 49.9531 82.2733 49.9531 84.4531C49.9531 86.6329 48.1798 88.4062 46 88.4062Z" fill="#B90F0F"/>
<path d="M84.4531 38.4531C80.9109 38.4531 77.9326 40.9068 77.1242 44.2031H67.5625C66.5701 44.2031 65.7656 45.0076 65.7656 46C65.7656 46.9922 66.5701 47.7969 67.5625 47.7969H77.1242C77.9326 51.0932 80.9111 53.5469 84.4531 53.5469C88.6145 53.5469 92 50.1614 92 46C92 41.8386 88.6145 38.4531 84.4531 38.4531ZM84.4531 49.9531C82.2733 49.9531 80.5 48.1798 80.5 46C80.5 43.8202 82.2733 42.0469 84.4531 42.0469C86.6329 42.0469 88.4062 43.8202 88.4062 46C88.4062 48.1798 86.6329 49.9531 84.4531 49.9531Z" fill="#B90F0F"/>
<path d="M14.8758 47.7969H24.4375C25.4299 47.7969 26.2344 46.9922 26.2344 46C26.2344 45.0076 25.4299 44.2031 24.4375 44.2031H14.8758C14.0674 40.9068 11.0891 38.4531 7.54688 38.4531C3.38549 38.4531 0 41.8386 0 46C0 50.1614 3.38549 53.5469 7.54688 53.5469C11.0891 53.5469 14.0674 51.0932 14.8758 47.7969ZM7.54688 49.9531C5.36709 49.9531 3.59375 48.1798 3.59375 46C3.59375 43.8202 5.36709 42.0469 7.54688 42.0469C9.72666 42.0469 11.5 43.8202 11.5 46C11.5 48.1798 9.72666 49.9531 7.54688 49.9531Z" fill="#B90F0F"/>
<path d="M73.1906 65.6434C71.7883 65.6434 70.4447 66.0242 69.2768 66.7354L66.6382 64.0968C65.9366 63.3953 64.7988 63.3953 64.0969 64.0968C63.3952 64.7985 63.3952 65.9363 64.0969 66.6382L66.7376 69.2789C64.9785 72.1815 65.3495 76.0223 67.8542 78.5272C69.2796 79.9526 71.1748 80.7377 73.1907 80.7377C75.2066 80.7377 77.1018 79.9526 78.5273 78.5272C81.4697 75.5846 81.4697 70.7968 78.5273 67.8543C77.1016 66.4285 75.2065 65.6434 73.1906 65.6434ZM75.9858 75.9857C75.2392 76.7323 74.2464 77.1436 73.1906 77.1436C72.1347 77.1436 71.1419 76.7323 70.3953 75.9857C68.854 74.4445 68.854 71.9364 70.3953 70.3952C71.1419 69.6487 72.1347 69.2374 73.1906 69.2374C74.2464 69.2374 75.2392 69.6487 75.9858 70.3952C77.5271 71.9364 77.5271 74.4445 75.9858 75.9857Z" fill="#B90F0F"/>
<path d="M13.4729 24.146C14.9442 25.6173 16.8767 26.3528 18.8093 26.3528C20.1666 26.3528 21.5234 25.9884 22.7211 25.2624L29.4822 32.0235C29.8331 32.3745 30.2929 32.5499 30.7527 32.5499C31.2126 32.5499 31.6726 32.3745 32.0233 32.0235C32.725 31.3219 32.725 30.1841 32.0233 29.4822L25.2622 22.7211C27.0215 19.8185 26.6503 15.9775 24.1456 13.4728C21.2031 10.5304 16.4153 10.5306 13.4727 13.4728C10.5305 16.4155 10.5305 21.2033 13.4729 24.146C13.4729 24.1459 13.4729 24.1459 13.4729 24.146ZM16.0142 16.0143C17.5554 14.4729 20.0635 14.4729 21.6047 16.0143C23.1458 17.5555 23.1458 20.063 21.6052 21.6044C21.6054 21.6044 21.605 21.6045 21.6052 21.6044C21.605 21.6045 21.6045 21.6051 21.6043 21.6051C20.0628 23.1461 17.5552 23.1457 16.0142 21.6047C14.4729 20.0635 14.4729 17.5556 16.0142 16.0143Z" fill="#B90F0F"/>
<path d="M61.2469 32.5499C61.7067 32.5499 62.1667 32.3745 62.5175 32.0236L69.2786 25.2625C70.4762 25.9882 71.8328 26.3528 73.1904 26.3528C75.1229 26.3528 77.0556 25.6172 78.5269 24.1461C81.4693 21.2035 81.4693 16.4157 78.5269 13.4732C75.5843 10.5308 70.7966 10.5308 67.854 13.4732C65.3493 15.9778 64.9783 19.8187 66.7376 22.7213L59.9765 29.4824C59.2748 30.1841 59.2748 31.3219 59.9765 32.0238C60.3271 32.3745 60.7871 32.5499 61.2469 32.5499ZM70.395 16.0143C71.1658 15.2435 72.1778 14.8582 73.1904 14.8582C74.2025 14.8582 75.2151 15.2436 75.9856 16.0143C77.5269 17.5557 77.5269 20.0636 75.9856 21.6048C74.4444 23.1459 71.9367 23.1459 70.3955 21.6053C70.3955 21.6055 70.3953 21.6051 70.3955 21.6053C70.3953 21.6051 70.3948 21.6046 70.3948 21.6044C68.8538 20.063 68.8538 17.5555 70.395 16.0143Z" fill="#B90F0F"/>
<path d="M25.362 64.0969L22.7235 66.7354C21.5555 66.0242 20.212 65.6434 18.8097 65.6434C16.7938 65.6434 14.8986 66.4285 13.4732 67.8539C10.5308 70.7965 10.5308 75.5843 13.4732 78.5268C14.8986 79.9523 16.7938 80.7374 18.8097 80.7374C20.8254 80.7374 22.7208 79.9523 24.1462 78.5268C26.6507 76.0222 27.022 72.1812 25.2628 69.2785L27.9035 66.6378C28.6052 65.9361 28.6052 64.7983 27.9035 64.0965C27.2015 63.3953 26.0637 63.3954 25.362 64.0969ZM21.6047 75.9857C20.8581 76.7323 19.8654 77.1436 18.8095 77.1436C17.7537 77.1436 16.7609 76.7323 16.0143 75.9857C14.473 74.4445 14.473 71.9364 16.0143 70.3953C16.7609 69.6487 17.7537 69.2374 18.8095 69.2374C19.8654 69.2374 20.8581 69.6487 21.6047 70.3953C23.1461 71.9364 23.1461 74.4445 21.6047 75.9857Z" fill="#B90F0F"/>
<path d="M46 61.6328C46.4726 61.6328 46.9362 61.4405 47.2704 61.1061C47.6046 60.7721 47.7969 60.3085 47.7969 59.8359C47.7969 59.3634 47.6046 58.8998 47.2704 58.5655C46.9362 58.2313 46.4726 58.0391 46 58.0391C45.5274 58.0391 45.0638 58.2311 44.7296 58.5655C44.3954 58.8998 44.2031 59.3634 44.2031 59.8359C44.2031 60.3085 44.3954 60.7721 44.7296 61.1061C45.0638 61.4405 45.5274 61.6328 46 61.6328Z" fill="#B90F0F"/>
</svg>
