<svg width="88" height="88" viewBox="0 0 88 88" fill="none" xmlns="http://www.w3.org/2000/svg">
<path d="M86.7109 8.54081H46.5376V1.28906C46.5376 0.577156 45.9606 0 45.2485 0H37.206C36.494 0 35.9169 0.577156 35.9169 1.28906V8.54081H20.1419C19.43 8.54081 18.8528 9.11797 18.8528 9.82987V20.9127C18.002 21.3661 17.1957 21.9622 16.5168 22.6483V18.8597C16.5168 16.5227 14.1919 14.6037 10.7338 13.9666V11.1683C10.7338 10.4564 10.1566 9.8792 9.4447 9.8792C7.16255 9.8792 4.84223 10.7566 3.07863 12.2865C1.09347 14.0087 0 16.3991 0 19.0173V24.4181C0 26.0848 2.57812 26.0848 2.57812 24.4181V19.0173C2.57812 16.1956 4.67792 13.1739 8.15564 12.567V62.0161C6.13267 62.2689 4.06673 63.0781 2.58328 64.5038C2.58053 62.7485 2.57812 31.268 2.57812 31.268C2.57812 29.6013 0 29.6013 0 31.268V71.3089C0 71.3812 0.00739062 71.4517 0.0189063 71.5208C0.145578 75.3019 3.64375 78.1275 8.25842 78.1275C10.4926 78.1275 12.4915 77.4916 13.964 76.4436L13.9647 81.1828C13.9654 85.5387 18.3219 88 22.2243 88C26.3665 87.9993 30.4815 85.6665 30.4815 81.18L30.4786 62.9547H67.1894L40.4401 85.7295C39.5459 86.4908 40.1014 88 41.2758 88H80.0968C80.8089 88 81.3859 87.4228 81.3859 86.7109V80.4578C81.3859 78.7911 78.8078 78.7911 78.8078 80.4578V85.4219H44.7784L78.8078 56.4491V73.3463C78.8078 75.013 81.3859 75.013 81.3859 73.3463V62.9551H86.7109C87.423 62.9551 88 62.3779 88 61.666V9.82987C88 9.11797 87.423 8.54081 86.7109 8.54081ZM85.4219 11.1189V42.3844H55.2317V11.1189H85.4219ZM43.9594 2.57812V35.5687H38.495V32.2743H39.431C41.0977 32.2743 41.0977 29.6962 39.431 29.6962H38.495V26.3184H40.6342C42.3008 26.3184 42.3008 23.7402 40.6342 23.7402H38.495V20.3624H39.431C40.143 20.3624 40.7201 19.7852 40.7201 19.0733C40.7201 18.3614 40.143 17.7842 39.431 17.7842H38.495V14.4064H40.6342C42.3008 14.4064 42.3008 11.8283 40.6342 11.8283H38.495V8.45058H39.431C41.0977 8.45058 41.0977 5.87245 39.431 5.87245H38.495V2.57812H43.9594ZM20.3603 22.9934C20.9168 22.7301 21.5005 22.5455 22.1112 22.4395L22.1191 71.8886C20.6831 72.0684 18.3617 72.6325 16.5471 74.3772C16.5442 72.6459 16.5414 71.3058 16.5414 71.2693L16.5345 28.8906C16.5342 26.5808 17.9419 24.1374 20.3603 22.9934ZM27.9029 77.4185C27.8594 77.3936 27.8156 77.369 27.771 77.3446C26.2926 76.533 24.3623 76.0803 22.325 76.0659L22.3248 74.4633C22.9426 74.3782 23.3575 74.3846 23.3674 74.3846C24.1746 74.3306 24.6178 73.9011 24.6972 73.096L24.6898 26.4834C26.3986 26.9062 27.895 27.7724 27.8951 28.7313L27.9029 77.4185ZM13.9387 18.8597V67.5295C12.5024 66.7047 10.5614 66.2083 8.3612 66.1935V64.5906C8.97927 64.5055 9.39417 64.5121 9.4038 64.5123C10.2109 64.4583 10.6542 64.0288 10.7338 63.2239V16.603C12.6973 17.073 13.9387 18.0479 13.9387 18.8597ZM13.9387 71.9194C13.9387 73.887 11.3374 75.5494 8.25842 75.5494C5.02752 75.5494 2.59102 73.7265 2.59102 71.3089C2.59102 68.8607 3.47841 66.5419 5.78308 65.3709V67.5383C5.87486 68.3815 6.34494 68.8093 7.19314 68.8217C8.98442 68.6531 10.9646 68.8535 12.5661 69.7328C13.4903 70.2403 14.014 70.8849 13.9387 71.9194ZM22.224 85.4219C22.2234 85.4219 22.2233 85.4219 22.2226 85.4219C18.9925 85.4219 16.556 83.5993 16.5557 81.1824C16.5553 78.7344 17.4422 76.4151 19.7469 75.2438L19.7472 77.4113C19.8392 78.2543 20.3093 78.6821 21.1573 78.6943C23.3441 78.4888 28.0084 78.8397 27.9036 81.7908C27.9039 83.7586 25.3029 85.4215 22.224 85.4219ZM30.4733 28.7306C30.4729 26.41 28.1402 24.4796 24.6893 23.8397L24.6888 21.0402C24.6149 20.2546 24.1852 19.8249 23.3996 19.7514C22.7416 19.7515 22.081 19.8268 21.4309 19.9674V11.1189H35.9169V36.8576C35.9169 37.5695 36.494 38.1466 37.206 38.1466H45.2485C45.9606 38.1466 46.5376 37.5695 46.5376 36.8576V11.1189H52.6536V60.3768H30.4784L30.4733 28.7306ZM80.6374 52.4882C80.1809 52.2773 79.6438 52.3509 79.261 52.6769L70.2175 60.3768H55.2317V44.9625H85.4219V60.3768H81.3859V53.6585C81.3859 53.156 81.0937 52.6991 80.6374 52.4882Z" fill="#B90F0F"/>
<path d="M61.4179 36.9389H73.2953C73.6346 36.9389 73.9687 36.8 74.2082 36.5599L80.1468 30.6259C80.3888 30.3841 80.5247 30.056 80.5247 29.7139L80.523 17.8533C80.523 17.1559 79.9312 16.5645 79.2338 16.5645L67.3548 16.5658C67.0133 16.5658 66.6853 16.7016 66.4439 16.9431L60.5076 22.8747C60.268 23.1136 60.1287 23.4494 60.1287 23.7875V35.6498C60.1288 36.3619 60.706 36.9389 61.4179 36.9389ZM62.707 25.0766H72.0063V34.3607H62.707V25.0766ZM74.5846 32.5395V24.3219L77.9457 20.9634L77.9469 29.1801L74.5846 32.5395ZM67.889 19.144L76.1201 19.1429L72.7618 22.4984H64.5316L67.889 19.144Z" fill="#B90F0F"/>
<path d="M67.5146 53.9837H63.2434C61.5767 53.9837 61.5767 56.5618 63.2434 56.5618H67.5146C69.1813 56.5618 69.1813 53.9837 67.5146 53.9837Z" fill="#B90F0F"/>
<path d="M74.1879 48.8541H63.2434C61.5767 48.8541 61.5767 51.4322 63.2434 51.4322H74.1879C75.8545 51.4322 75.8545 48.8541 74.1879 48.8541Z" fill="#B90F0F"/>
<path d="M73 66.2248L57.4359 79.4764C56.542 80.2376 57.0973 81.7469 58.2715 81.7469H73.8357C74.5478 81.7469 75.1247 81.1697 75.1247 80.4578V67.2062C75.1247 66.2262 73.8869 65.4694 73 66.2248ZM72.5466 79.1687H61.774L72.5466 69.9968V79.1687Z" fill="#B90F0F"/>
</svg>
