<svg width="92" height="92" viewBox="0 0 92 92" fill="none" xmlns="http://www.w3.org/2000/svg">
<path d="M84.8125 41.7048V38.8125C84.8125 28.4452 80.7753 18.6986 73.4446 11.3679C66.1139 4.03722 56.3672 0 46 0C35.6328 0 25.8861 4.03722 18.5554 11.3679C11.2247 18.6986 7.1875 28.4452 7.1875 38.8125V41.7048C3.04445 42.8813 0 46.6959 0 51.2109V65.5859C0 71.0353 4.43343 75.4688 9.88281 75.4688H20.6641C22.1526 75.4688 23.3594 74.262 23.3594 72.7734V38.8125C23.3594 26.3284 33.5159 16.1719 46 16.1719C58.4841 16.1719 68.6406 26.3284 68.6406 38.8125V72.7734C68.6406 74.262 69.8474 75.4688 71.3359 75.4688H75.8281V78.5234C75.8281 80.0096 74.619 81.2188 73.1328 81.2188H55.4192C54.3066 78.0816 51.3107 75.8281 47.7969 75.8281H44.2031C39.7445 75.8281 36.1172 79.4555 36.1172 83.9141C36.1172 88.3727 39.7445 92 44.2031 92H47.7969C51.3107 92 54.3066 89.7465 55.4192 86.6094H73.1328C77.5914 86.6094 81.2188 82.982 81.2188 78.5234V75.4688H82.1172C87.5666 75.4688 92 71.0353 92 65.5859V51.2109C92 46.6959 88.9556 42.8813 84.8125 41.7048ZM47.7969 86.6094H44.2031C42.7169 86.6094 41.5078 85.4003 41.5078 83.9141C41.5078 82.4279 42.7169 81.2188 44.2031 81.2188H47.7969C49.2831 81.2188 50.4922 82.4279 50.4922 83.9141C50.4922 85.4003 49.2831 86.6094 47.7969 86.6094ZM17.9688 70.0781H9.88281C7.40582 70.0781 5.39062 68.0629 5.39062 65.5859V51.2109C5.39062 48.7339 7.40582 46.7188 9.88281 46.7188H17.9688V70.0781ZM46 10.7812C30.5435 10.7812 17.9688 23.356 17.9688 38.8125V41.3281H12.5781V38.8125C12.5781 20.3836 27.5711 5.39062 46 5.39062C64.4289 5.39062 79.4219 20.3836 79.4219 38.8125V41.3281H74.0312V38.8125C74.0312 23.356 61.4565 10.7812 46 10.7812ZM86.6094 65.5859C86.6094 68.0629 84.5942 70.0781 82.1172 70.0781H74.0312V46.7188H82.1172C84.5942 46.7188 86.6094 48.7339 86.6094 51.2109V65.5859Z" fill="#B90F0F"/>
<path d="M51.462 67.6565C51.9559 68.0681 52.5688 68.2812 53.1879 68.2812C53.5756 68.2812 53.9659 68.1975 54.3307 68.0268C55.2778 67.5832 55.8828 66.6317 55.8828 65.5859V59.2969H56.7812C60.249 59.2969 63.0703 56.4756 63.0703 53.0078V38.6328C63.0703 35.165 60.249 32.3438 56.7812 32.3438H35.2188C31.751 32.3438 28.9297 35.165 28.9297 38.6328V53.0078C28.9297 56.4756 31.751 59.2969 35.2188 59.2969H41.4304L51.462 67.6565ZM34.3203 53.0078V38.6328C34.3203 38.1374 34.7234 37.7344 35.2188 37.7344H56.7812C57.2766 37.7344 57.6797 38.1374 57.6797 38.6328V53.0078C57.6797 53.5032 57.2766 53.9062 56.7812 53.9062H53.1875C51.699 53.9062 50.4922 55.113 50.4922 56.6016V59.8314L44.1318 54.531C43.6474 54.1273 43.0368 53.9062 42.4062 53.9062H35.2188C34.7234 53.9062 34.3203 53.5032 34.3203 53.0078Z" fill="#B90F0F"/>
<path d="M49.5938 48.5156C51.0823 48.5156 52.2891 47.3088 52.2891 45.8203C52.2891 44.3318 51.0823 43.125 49.5938 43.125H42.4062C40.9177 43.125 39.7109 44.3318 39.7109 45.8203C39.7109 47.3088 40.9177 48.5156 42.4062 48.5156H49.5938Z" fill="#B90F0F"/>
</svg>
