<svg width="87" height="87" viewBox="0 0 87 87" fill="none" xmlns="http://www.w3.org/2000/svg">
<path d="M84 54H72V42H66V69H18V21H45V15H33V3H27V15H18C16.4092 15.0016 14.884 15.6342 13.7591 16.7591C12.6342 17.884 12.0016 19.4092 12 21V30H0V36H12V54H0V60H12V69C12.0016 70.5908 12.6342 72.116 13.7591 73.2409C14.884 74.3658 16.4092 74.9984 18 75H27V87H33V75H51V87H57V75H66C67.5906 74.9976 69.1153 74.3647 70.24 73.24C71.3647 72.1153 71.9976 70.5906 72 69V60H84V54Z" fill="#B90F0F"/>
<path d="M57 60H27V30H57V60ZM33 54H51V36H33V54Z" fill="#B90F0F"/>
<path d="M87 36H81C80.9905 28.0464 77.8267 20.4213 72.2027 14.7973C66.5787 9.17329 58.9536 6.00953 51 6V0C60.5446 0.0103232 69.6954 3.80649 76.4444 10.5556C83.1935 17.3046 86.9897 26.4554 87 36Z" fill="#B90F0F"/>
<path d="M72 36H66C65.9952 32.0232 64.4134 28.2107 61.6013 25.3987C58.7893 22.5866 54.9768 21.0048 51 21V15C56.5676 15.0064 61.9053 17.2209 65.8422 21.1578C69.7791 25.0947 71.9937 30.4324 72 36Z" fill="#B90F0F"/>
</svg>
