<svg width="186" height="151" viewBox="0 0 186 151" fill="none" xmlns="http://www.w3.org/2000/svg">
<g clip-path="url(#clip0)">
<path d="M186 146.383C186.057 152.266 148.552 152.805 147.838 146.384C147.781 140.501 185.286 139.962 186 146.383Z" fill="#E6E6E6"/>
<path d="M156.656 125.961L153.869 127.464L155.643 133.224L158.43 133.475L159.95 130.219L156.656 125.961Z" fill="#9F616A"/>
<path d="M165.271 137.482V140.237L169.579 139.986L169.519 137.717L165.271 137.482Z" fill="#9F616A"/>
<path d="M155.644 92.9001L157.164 111.685L161.978 139.235L169.58 138.233L167.046 116.443L168.06 96.4067L155.644 92.9001Z" fill="#2F2E41"/>
<path d="M175.915 78.8745L157.671 79.125L155.644 92.9002L168.06 98.6608L171.1 109.681L155.644 125.961L161.725 133.475C161.725 133.475 170.34 121.954 176.675 115.442C183.009 108.93 179.969 89.1433 179.969 89.1433L175.915 78.8745Z" fill="#2F2E41"/>
<path d="M165.019 43.3093C168.098 43.3093 170.593 40.8423 170.593 37.7992C170.593 34.756 168.098 32.2891 165.019 32.2891C161.94 32.2891 159.444 34.756 159.444 37.7992C159.444 40.8423 161.94 43.3093 165.019 43.3093Z" fill="#9F616A"/>
<path d="M162.991 41.5561V47.0662L166.792 53.0772C166.792 53.0772 172.62 48.8194 171.353 47.8176C170.086 46.8158 169.833 39.0515 169.833 39.0515L162.991 41.5561Z" fill="#9F616A"/>
<path d="M162.991 46.0645L159.19 50.5726L160.711 81.8799L172.62 81.6295L174.647 54.3296L172.113 47.3167L170.375 44.9792L167.299 49.5708L162.991 46.0645Z" fill="#D0CDE1"/>
<path d="M156.91 62.3442L154.123 72.8635L156.91 83.3827L152.349 89.3938L148.295 70.3589C148.295 70.3589 151.336 54.8304 151.589 53.0772C151.842 51.3239 152.349 51.0735 152.349 51.0735L154.376 51.3239L156.91 62.3442Z" fill="#2F2E41"/>
<path d="M177.181 66.3515L178.954 69.6077L179.461 75.1177L178.448 81.3792L181.995 87.1398L185.542 71.3608L181.742 51.0735H180.221L177.181 66.3515Z" fill="#2F2E41"/>
<path d="M155.643 125.71C155.643 125.71 152.096 126.712 150.829 126.963C149.562 127.213 151.589 131.972 151.589 131.972C151.589 131.972 152.856 138.484 153.109 139.736C153.363 140.988 155.136 145.246 157.417 145.747C159.697 146.248 158.177 136.981 158.177 136.981C158.177 136.981 159.19 133.976 159.19 132.974C159.19 131.972 157.67 132.473 157.67 132.473C153.616 131.972 155.643 125.71 155.643 125.71Z" fill="#2F2E41"/>
<path d="M164.005 144.996C164.259 146.499 163.752 146.499 167.806 147C171.86 147.5 170.847 144.244 170.847 144.244C170.677 142.709 170.337 141.198 169.833 139.736C169.073 137.732 165.019 140.237 165.019 140.237C165.019 140.237 163.752 143.493 164.005 144.996Z" fill="#2F2E41"/>
<path d="M169.84 39.2265L169.972 41.454C169.972 41.454 171.607 37.7993 171.86 34.0424C172.114 30.2855 167.806 29.5342 165.272 29.2837C162.738 29.0332 158.431 30.7864 158.431 32.7901C158.431 34.7938 162.992 34.2929 164.765 33.792C166.539 33.291 167.299 37.5489 167.299 37.5489L168.313 37.7993L169.84 39.2265Z" fill="#2F2E41"/>
<path d="M161.496 47.8381L162.992 46.0645L167.299 49.5708L162.992 52.5763L161.496 47.8381Z" fill="#D0CDE1"/>
<path d="M172.114 47.3166L170.34 45.0625L167.3 49.5707L171.101 52.3258L172.114 47.3166Z" fill="#D0CDE1"/>
<path d="M156.15 65.8507L157.164 75.3681L155.136 81.1287L153.869 86.6388C153.869 86.6388 153.869 91.8984 158.937 92.1489C164.005 92.3993 168.313 76.37 168.313 76.37C168.313 76.37 169.073 79.8764 169.579 81.8801C170.086 83.8837 178.701 91.8984 178.701 91.8984C178.701 91.8984 180.729 91.648 182.502 87.6406C184.276 83.6333 178.955 79.8764 178.955 79.8764L177.434 74.6168L177.941 68.1048L181.489 51.0736L170.973 45.6887L172.113 60.0901L168.313 71.3608L162.611 46.4401L160.711 47.8176L152.603 51.0736L156.15 65.8507Z" fill="#2F2E41"/>
<path d="M56.0096 103.733C55.5086 103.729 55.0018 103.726 54.5041 103.71L54.5195 103.214C55.0121 103.229 55.5158 103.236 56.0097 103.237C56.5059 103.237 57.0114 103.229 57.513 103.213L57.5291 103.709C57.0221 103.725 56.511 103.733 56.0096 103.733ZM51.4857 103.523C50.4861 103.43 49.4765 103.303 48.4853 103.147L48.5644 102.657C49.5452 102.811 50.5439 102.937 51.533 103.029L51.4857 103.523ZM60.5472 103.518L60.4994 103.024C61.4881 102.931 62.4867 102.804 63.4675 102.648L63.5474 103.138C62.556 103.296 61.5466 103.424 60.5472 103.518H60.5472ZM45.5152 102.58C44.5365 102.361 43.5517 102.107 42.5884 101.826L42.7307 101.35C43.6837 101.628 44.658 101.879 45.6263 102.096L45.5152 102.58ZM66.5165 102.568L66.405 102.084C67.3755 101.865 68.3495 101.613 69.2997 101.334L69.4427 101.81C68.4822 102.092 67.4976 102.347 66.5165 102.568H66.5165ZM39.7164 100.886C38.772 100.543 37.8271 100.166 36.9079 99.7638L37.1111 99.3101C38.0204 99.7076 38.9551 100.081 39.8895 100.421L39.7164 100.886ZM72.3131 100.867L72.1395 100.401C73.0682 100.063 73.9997 99.6896 74.9083 99.2912L75.112 99.7449C74.1934 100.148 73.2518 100.525 72.3131 100.867H72.3131ZM34.1794 98.4648C33.2906 98.0063 32.403 97.5119 31.5416 96.9957L31.802 96.5711C32.6543 97.0822 33.5323 97.571 34.4117 98.0247L34.1794 98.4648ZM77.8329 98.4466L77.6005 98.0068C78.4777 97.5533 79.3538 97.0645 80.2038 96.5539L80.4647 96.978C79.6053 97.4942 78.72 97.9881 77.8329 98.4466H77.8329ZM29.0052 95.3627C28.182 94.7949 27.3661 94.1927 26.5801 93.5732L26.8932 93.185C27.6709 93.7981 28.4782 94.3938 29.2925 94.9556L29.0052 95.3627ZM82.9969 95.345L82.7091 94.9384C83.5233 94.3759 84.3295 93.7802 85.1052 93.1678L85.4186 93.5555C84.6345 94.1745 83.8197 94.7765 82.9969 95.345ZM24.2757 91.6342C23.5316 90.9665 22.8 90.2669 22.1016 89.5551L22.462 89.2095C23.153 89.9138 23.8769 90.6059 24.6133 91.2668L24.2757 91.6342ZM87.7206 91.617L87.3827 91.2496C88.1173 90.5902 88.8406 89.8975 89.5327 89.1916L89.8931 89.5367C89.1939 90.2504 88.4628 90.9503 87.7206 91.617ZM20.0661 87.3439C19.4145 86.5887 18.7792 85.8033 18.1777 85.0093L18.5797 84.7117C19.1748 85.4974 19.8034 86.2746 20.4481 87.0216L20.0661 87.3439ZM91.9282 87.3233L91.5462 87.0015C92.1907 86.2538 92.8194 85.4756 93.4145 84.689L93.8165 84.9861C93.2151 85.7812 92.5798 86.5676 91.9282 87.3233V87.3233ZM16.4441 82.5607C15.8948 81.7292 15.3662 80.8705 14.8729 80.0085L15.31 79.7642C15.798 80.617 16.3211 81.4667 16.8646 82.2892L16.4441 82.5607ZM95.5507 82.5338L95.13 82.2628C95.6738 81.4386 96.1968 80.5874 96.6849 79.7327L97.1223 79.9765C96.629 80.8407 96.1002 81.701 95.5507 82.5338ZM13.4707 77.3625C13.0338 76.4692 12.621 75.5512 12.2439 74.6337L12.709 74.4471C13.0822 75.3544 13.4906 76.2627 13.9228 77.1463L13.4707 77.3625ZM98.525 77.3237L98.0729 77.108C98.5049 76.223 98.9134 75.3122 99.2871 74.4005L99.7524 74.5866C99.3748 75.5083 98.9619 76.4292 98.525 77.3237ZM11.1958 71.829C10.8781 70.8862 10.588 69.9219 10.3332 68.9627L10.8189 68.8367C11.0709 69.7855 11.358 70.7396 11.6722 71.6719L11.1958 71.829ZM100.799 71.7764L100.322 71.6203C100.634 70.689 100.92 69.7346 101.172 68.7839L101.658 68.9094C101.403 69.8706 101.114 70.8351 100.799 71.7764ZM9.65958 66.0482C9.46773 65.0745 9.30542 64.0816 9.17707 63.0969L9.67503 63.0334C9.80203 64.0076 9.96263 64.9899 10.1524 65.9532L9.65958 66.0482ZM102.328 65.9937L101.835 65.8997C102.023 64.9366 102.183 63.9538 102.309 62.9789L102.807 63.0419C102.68 64.0273 102.518 65.0204 102.328 65.9937V65.9937ZM8.88677 60.1213C8.82241 59.1321 8.78919 58.1266 8.78809 57.1327L9.29022 57.1322C9.29132 58.1156 9.32418 59.1105 9.38792 60.0893L8.88677 60.1213ZM103.094 60.0658L102.593 60.0343C102.655 59.0565 102.687 58.0616 102.687 57.0779L102.686 56.9691H103.189L103.189 57.0762C103.189 58.072 103.157 59.0773 103.094 60.0658ZM9.38094 54.1755L8.87978 54.145C8.94205 53.1538 9.03732 52.1524 9.16297 51.1685L9.66118 51.2305C9.53675 52.2043 9.44248 53.195 9.38094 54.1755ZM102.586 54.0127C102.521 53.0317 102.423 52.0412 102.295 51.0689L102.793 51.0049C102.922 51.9876 103.021 52.9885 103.087 53.9802L102.586 54.0127ZM10.1314 48.3097L9.63838 48.216C9.82779 47.2418 10.0521 46.2607 10.3049 45.2998L10.7909 45.4246C10.5408 46.3753 10.3189 47.3459 10.1314 48.3097ZM101.814 48.1497C101.622 47.1854 101.397 46.2155 101.144 45.2668L101.629 45.1403C101.885 46.0992 102.113 47.0795 102.306 48.0542L101.814 48.1497ZM11.6375 42.5874L11.1606 42.4318C11.4758 41.4887 11.8266 40.5427 12.2036 39.62L12.6692 39.8058C12.2963 40.7187 11.9492 41.6545 11.6375 42.5874ZM100.288 42.4327C99.9723 41.5011 99.6225 40.5679 99.2476 39.659L99.7124 39.4716C100.091 40.3904 100.445 41.3336 100.764 42.2751L100.288 42.4327ZM13.8804 37.0964L13.4278 36.8812C13.8633 35.9862 14.3343 35.0931 14.8275 34.227L15.2652 34.4705C14.7771 35.3274 14.3113 36.2108 13.8804 37.0964ZM98.0307 36.961C97.5982 36.0797 97.1307 35.1995 96.6403 34.3449L97.0772 34.1001C97.5727 34.9638 98.0454 35.8536 98.4824 36.7446L98.0307 36.961ZM16.8172 31.9384L16.3962 31.6677C16.9438 30.8357 17.5263 30.0099 18.1272 29.2134L18.5298 29.51C17.9352 30.2981 17.3589 31.1151 16.8172 31.9384ZM95.0827 31.8215C94.5393 31.0013 93.9614 30.1869 93.3647 29.401L93.7663 29.1031C94.3694 29.8975 94.9537 30.7207 95.5029 31.5496L95.0827 31.8215ZM20.3954 27.1955L20.0129 26.8741C20.6632 26.1179 21.3469 25.3724 22.0449 24.6586L22.4061 25.0034C21.7154 25.7098 21.039 26.4473 20.3954 27.1955ZM91.4934 27.0932C90.8479 26.3471 90.1692 25.6117 89.4768 24.9075L89.8368 24.5616C90.5368 25.2733 91.2225 26.0166 91.875 26.7706L91.4934 27.0932ZM24.5535 22.9426L24.2154 22.5757C24.9584 21.9067 25.7322 21.2534 26.5151 20.6342L26.8289 21.0218C26.0543 21.6344 25.2887 22.2808 24.5535 22.9426ZM87.3229 22.8526C86.5866 22.1938 85.819 21.5493 85.0407 20.9374L85.3536 20.5489C86.1399 21.1675 86.9159 21.8187 87.6598 22.4847L87.3229 22.8526ZM29.223 19.2484L28.9349 18.8419C29.7565 18.2728 30.6078 17.7225 31.4651 17.2063L31.7263 17.6302C30.8782 18.141 30.0359 18.6854 29.223 19.2484ZM82.6395 19.1694C81.822 18.607 80.9771 18.0644 80.1281 17.5565L80.3879 17.1319C81.2461 17.6451 82.1003 18.1935 82.9263 18.762L82.6395 19.1694ZM34.3282 16.1742L34.095 15.7346C34.9827 15.2743 35.8977 14.8364 36.8143 14.433L37.0186 14.8865C36.1116 15.2855 35.2066 15.7188 34.3282 16.1742ZM77.5166 16.1061C76.6348 15.6524 75.7262 15.2211 74.8157 14.8242L75.0185 14.37C75.9386 14.7712 76.8572 15.2072 77.7485 15.6657L77.5166 16.1061ZM39.7861 13.7731L39.6117 13.3075C40.5532 12.9633 41.5186 12.6448 42.4812 12.3612L42.6246 12.8369C41.6724 13.1174 40.7174 13.4325 39.7861 13.7731H39.7861ZM72.0359 13.7168C71.1027 13.3793 70.1464 13.0676 69.1939 12.7906L69.3356 12.3144C70.2985 12.5944 71.2651 12.9095 72.2085 13.2507L72.0359 13.7168ZM45.5184 12.0838L45.4064 11.6001C46.3833 11.3788 47.382 11.186 48.3749 11.0267L48.4553 11.5167C47.473 11.6742 46.4849 11.865 45.5184 12.0838ZM66.2973 12.0477C65.3291 11.832 64.3403 11.6447 63.3583 11.4908L63.437 11.0005C64.4295 11.1561 65.429 11.3455 66.4077 11.5635L66.2973 12.0477ZM51.423 11.1368L51.3745 10.6429C52.3714 10.5473 53.3868 10.482 54.3924 10.4489L54.4091 10.945C53.414 10.9777 52.4094 11.0423 51.423 11.1368ZM60.3893 11.1214C59.4015 11.0302 58.3965 10.9691 57.4026 10.9399L57.4176 10.4438C58.422 10.4734 59.4376 10.5351 60.436 10.6273L60.3893 11.1214Z" fill="#D0CDE1"/>
<path d="M54.2298 23.3275C60.7468 23.3275 66.0299 18.1055 66.0299 11.6638C66.0299 5.22204 60.7468 0 54.2298 0C47.7128 0 42.4297 5.22204 42.4297 11.6638C42.4297 18.1055 47.7128 23.3275 54.2298 23.3275Z" fill="#0FB953"/>
<path d="M99.9241 55.0927C106.441 55.0927 111.724 49.8706 111.724 43.4289C111.724 36.9872 106.441 31.7651 99.9241 31.7651C93.4071 31.7651 88.124 36.9872 88.124 43.4289C88.124 49.8706 93.4071 55.0927 99.9241 55.0927Z" fill="#0FB953"/>
<path d="M85.6136 103.733C92.1306 103.733 97.4137 98.511 97.4137 92.0693C97.4137 85.6276 92.1306 80.4055 85.6136 80.4055C79.0966 80.4055 73.8135 85.6276 73.8135 92.0693C73.8135 98.511 79.0966 103.733 85.6136 103.733Z" fill="#0FB953"/>
<path d="M28.8724 105.718C35.3894 105.718 40.6725 100.496 40.6725 94.0546C40.6725 87.6129 35.3894 82.3909 28.8724 82.3909C22.3554 82.3909 17.0723 87.6129 17.0723 94.0546C17.0723 100.496 22.3554 105.718 28.8724 105.718Z" fill="#0FB953"/>
<path d="M11.8001 55.0927C18.3171 55.0927 23.6002 49.8706 23.6002 43.4289C23.6002 36.9872 18.3171 31.7651 11.8001 31.7651C5.28309 31.7651 0 36.9872 0 43.4289C0 49.8706 5.28309 55.0927 11.8001 55.0927Z" fill="#0FB953"/>
<path d="M59.2877 10.7338H55.1718C54.7975 10.7338 54.4385 10.5868 54.1739 10.3252C53.9093 10.0636 53.7606 9.70886 53.7606 9.33891V5.27053C53.7606 5.25527 53.7575 5.24015 53.7516 5.22605C53.7457 5.21195 53.737 5.19913 53.7261 5.18834C53.7152 5.17755 53.7022 5.16898 53.688 5.16314C53.6737 5.1573 53.6584 5.1543 53.643 5.1543H50.9382C50.4392 5.1543 49.9606 5.35024 49.6077 5.69903C49.2549 6.04781 49.0566 6.52087 49.0566 7.01412V16.3133C49.0566 16.8065 49.2549 17.2796 49.6077 17.6284C49.9606 17.9771 50.4392 18.1731 50.9382 18.1731H57.5237C58.0228 18.1731 58.5013 17.9771 58.8542 17.6284C59.2071 17.2796 59.4053 16.8065 59.4053 16.3133V10.85C59.4053 10.8348 59.4023 10.8196 59.3963 10.8055C59.3904 10.7914 59.3818 10.7786 59.3709 10.7678C59.3599 10.757 59.347 10.7485 59.3327 10.7426C59.3184 10.7368 59.3031 10.7338 59.2877 10.7338ZM56.5829 15.3834H51.879C51.7542 15.3834 51.6346 15.3344 51.5464 15.2472C51.4582 15.16 51.4086 15.0417 51.4086 14.9184C51.4086 14.7951 51.4582 14.6768 51.5464 14.5896C51.6346 14.5024 51.7542 14.4534 51.879 14.4534H56.5829C56.7077 14.4534 56.8273 14.5024 56.9156 14.5896C57.0038 14.6768 57.0533 14.7951 57.0533 14.9184C57.0533 15.0417 57.0038 15.16 56.9156 15.2472C56.8273 15.3344 56.7077 15.3834 56.5829 15.3834ZM56.5829 13.0586H51.879C51.7542 13.0586 51.6346 13.0096 51.5464 12.9224C51.4582 12.8352 51.4086 12.7169 51.4086 12.5936C51.4086 12.4703 51.4582 12.352 51.5464 12.2648C51.6346 12.1776 51.7542 12.1287 51.879 12.1287H56.5829C56.7077 12.1287 56.8273 12.1776 56.9156 12.2648C57.0038 12.352 57.0533 12.4703 57.0533 12.5936C57.0533 12.7169 57.0038 12.8352 56.9156 12.9224C56.8273 13.0096 56.7077 13.0586 56.5829 13.0586Z" fill="white"/>
<path d="M59.0284 9.70479L54.8005 5.52569C54.7922 5.51761 54.7818 5.51211 54.7704 5.50989C54.759 5.50767 54.7472 5.50882 54.7365 5.5132C54.7258 5.51758 54.7167 5.52499 54.7102 5.5345C54.7037 5.54401 54.7002 5.55521 54.7002 5.56667V9.33892C54.7002 9.46223 54.7498 9.5805 54.838 9.66769C54.9262 9.75489 55.0458 9.80388 55.1706 9.80388H58.9869C58.9985 9.80383 59.0098 9.80039 59.0195 9.794C59.0291 9.78761 59.0366 9.77855 59.041 9.76796C59.0454 9.75737 59.0466 9.74573 59.0444 9.73449C59.0421 9.72324 59.0366 9.71291 59.0284 9.70478L59.0284 9.70479Z" fill="white"/>
<path d="M87.3203 89.7717C87.1757 89.7718 87.0355 89.8215 86.9237 89.9122C86.8119 90.003 86.7354 90.1293 86.7073 90.2696C86.6791 90.4098 86.701 90.5554 86.7693 90.6815C86.8376 90.8076 86.9479 90.9064 87.0816 90.9611C87.2153 91.0157 87.364 91.0229 87.5025 90.9813C87.6409 90.9397 87.7605 90.852 87.8408 90.7331C87.9211 90.6141 87.9572 90.4713 87.943 90.329C87.9287 90.1867 87.865 90.0537 87.7627 89.9526C87.7046 89.8952 87.6356 89.8497 87.5597 89.8187C87.4838 89.7876 87.4025 89.7717 87.3203 89.7717Z" fill="white"/>
<path d="M90.8017 87.2998V87.2977C90.7818 87.2119 90.7382 87.1332 90.6755 87.0706C90.6129 87.008 90.5338 86.9639 90.4472 86.9434C89.7489 86.775 88.6505 86.9545 87.4333 87.4362C86.2628 87.886 85.1919 88.5563 84.2801 89.4099C84.031 89.6547 83.7997 89.9165 83.5877 90.1934C83.1194 90.1614 82.6499 90.2359 82.2154 90.4113C80.8625 90.9998 80.4761 92.5058 80.3733 93.1242C80.3584 93.2121 80.3642 93.3021 80.3903 93.3874C80.4164 93.4727 80.462 93.5508 80.5237 93.6158C80.5853 93.6808 80.6613 93.7309 80.7457 93.7621C80.8301 93.7933 80.9207 93.8048 81.0104 93.7958H81.0134L82.5204 93.6332C82.5223 93.6522 82.5244 93.6696 82.5261 93.6856C82.5454 93.8671 82.6273 94.0365 82.758 94.1654L83.4935 94.8929C83.6237 95.0223 83.7951 95.1033 83.9787 95.1224L84.0291 95.1277L83.8651 96.6155V96.6185C83.8572 96.6941 83.8644 96.7706 83.8864 96.8434C83.9084 96.9163 83.9446 96.9842 83.9932 97.0432C84.0417 97.1022 84.1015 97.1512 84.1691 97.1874C84.2368 97.2235 84.311 97.2462 84.3875 97.254C84.4055 97.2558 84.4236 97.2568 84.4417 97.257C84.4743 97.2571 84.5068 97.2544 84.539 97.2491C85.1681 97.1491 86.691 96.7718 87.2848 95.4274C87.4607 94.9993 87.5364 94.5374 87.5062 94.0763C87.7875 93.8672 88.0533 93.6385 88.3016 93.3919C89.1647 92.4992 89.8436 91.4489 90.3005 90.2997C90.7853 89.1102 90.9678 88.0164 90.8017 87.2998ZM88.2932 91.35C88.1007 91.5404 87.8554 91.6702 87.5884 91.7228C87.3213 91.7755 87.0444 91.7486 86.7927 91.6458C86.5411 91.5429 86.3259 91.3685 86.1745 91.1448C86.0231 90.921 85.9422 90.6579 85.942 90.3887C85.9419 90.1195 86.0225 89.8563 86.1737 89.6324C86.3249 89.4085 86.5399 89.2339 86.7914 89.1308C87.043 89.0277 87.3198 89.0006 87.587 89.0529C87.8541 89.1053 88.0995 89.2348 88.2922 89.4251L88.2932 89.4261C88.5513 89.6774 88.6979 90.0197 88.7006 90.3778C88.7033 90.7359 88.562 91.0804 88.3078 91.3355L88.2932 91.35Z" fill="white"/>
<path d="M83.4088 95.0902C83.3181 95.0791 83.2265 95.1011 83.1511 95.1521C83.0013 95.2533 82.8509 95.3533 82.6991 95.4508C82.6332 95.4928 82.5549 95.5116 82.4769 95.5042C82.3989 95.4969 82.3256 95.4639 82.2688 95.4105C82.2121 95.357 82.1751 95.2863 82.1639 95.2096C82.1527 95.1329 82.1679 95.0548 82.2071 94.9876L82.4917 94.5013C82.5324 94.4424 82.5551 94.3732 82.557 94.302C82.5589 94.2307 82.54 94.1604 82.5025 94.0995C82.465 94.0386 82.4105 93.9897 82.3456 93.9587C82.2807 93.9276 82.2081 93.9157 82.1365 93.9244C81.8206 93.9639 81.5269 94.1061 81.3017 94.3288C81.216 94.4138 80.9552 94.6717 80.8148 95.6549C80.7749 95.9373 80.7497 96.2215 80.7394 96.5065C80.7381 96.5551 80.7466 96.6035 80.7642 96.6489C80.7819 96.6944 80.8084 96.7359 80.8423 96.7712C80.8763 96.8065 80.9169 96.8348 80.9618 96.8545C81.0068 96.8743 81.0553 96.8851 81.1045 96.8864C81.1078 96.8865 81.111 96.8865 81.1143 96.8865H81.1236C81.4121 96.8764 81.6999 96.8517 81.9859 96.8124C82.981 96.6734 83.242 96.4154 83.3277 96.3307C83.554 96.108 83.6976 95.8163 83.7352 95.503C83.7472 95.4054 83.7196 95.3072 83.6584 95.2298C83.5972 95.1524 83.5074 95.1022 83.4088 95.0902Z" fill="white"/>
<path d="M24.8116 100.393H23.9567C23.7866 100.393 23.6235 100.326 23.5032 100.207C23.383 100.088 23.3154 99.927 23.3154 99.7589V95.9561C23.3154 95.788 23.383 95.6268 23.5032 95.5079C23.6235 95.389 23.7866 95.3223 23.9567 95.3223H24.8116C24.9817 95.3223 25.1448 95.389 25.265 95.5079C25.3853 95.6268 25.4528 95.788 25.4528 95.9561V99.7589C25.4528 99.927 25.3853 100.088 25.265 100.207C25.1448 100.326 24.9817 100.393 24.8116 100.393Z" fill="white"/>
<path d="M30.797 100.393H29.942C29.7719 100.393 29.6088 100.326 29.4886 100.207C29.3683 100.088 29.3008 99.9271 29.3008 99.759V93.4209C29.3008 93.2528 29.3683 93.0916 29.4886 92.9727C29.6088 92.8539 29.7719 92.7871 29.942 92.7871H30.797C30.967 92.7871 31.1301 92.8539 31.2504 92.9727C31.3706 93.0916 31.4382 93.2528 31.4382 93.4209V99.759C31.4382 99.9271 31.3706 100.088 31.2504 100.207C31.1301 100.326 30.967 100.393 30.797 100.393Z" fill="white"/>
<path d="M33.7882 100.393H32.9332C32.7632 100.393 32.6001 100.326 32.4798 100.207C32.3595 100.088 32.292 99.9271 32.292 99.759V90.4632C32.292 90.2951 32.3595 90.1338 32.4798 90.015C32.6001 89.8961 32.7632 89.8293 32.9332 89.8293H33.7882C33.9582 89.8293 34.1213 89.8961 34.2416 90.015C34.3618 90.1338 34.4294 90.2951 34.4294 90.4632V99.759C34.4294 99.9271 34.3618 100.088 34.2416 100.207C34.1213 100.326 33.9582 100.393 33.7882 100.393Z" fill="white"/>
<path d="M27.8038 100.393H26.9488C26.7788 100.393 26.6157 100.326 26.4954 100.207C26.3752 100.088 26.3076 99.927 26.3076 99.7589V88.3504C26.3076 88.1823 26.3752 88.0211 26.4954 87.9022C26.6157 87.7833 26.7788 87.7166 26.9488 87.7166H27.8038C27.9739 87.7166 28.137 87.7833 28.2572 87.9022C28.3775 88.0211 28.445 88.1823 28.445 88.3504V99.7589C28.445 99.8422 28.4284 99.9246 28.3962 100.001C28.364 100.078 28.3167 100.148 28.2572 100.207C28.1977 100.266 28.127 100.313 28.0492 100.345C27.9714 100.376 27.888 100.393 27.8038 100.393Z" fill="white"/>
<path d="M100.489 43.1235L99.8786 42.5195C99.7386 42.3812 99.549 42.3033 99.3511 42.3027C99.1532 42.3022 98.9632 42.3792 98.8225 42.5168L94.5758 46.3907C94.4199 46.5271 94.3246 46.7186 94.3103 46.9239C94.3058 47.0259 94.3226 47.1277 94.3597 47.2229C94.3967 47.3181 94.4533 47.4048 94.5258 47.4775L95.4381 48.3893L95.4398 48.3909C95.5807 48.5298 95.7715 48.6081 95.9706 48.6087H95.9982C96.1013 48.603 96.2022 48.5772 96.2952 48.5329C96.3882 48.4886 96.4715 48.4266 96.5402 48.3504L100.487 44.172C100.628 44.0338 100.707 43.8459 100.708 43.6497C100.709 43.4534 100.631 43.2649 100.491 43.1255L100.489 43.1235Z" fill="white"/>
<path d="M105.398 41.9027L105.391 41.8955L104.589 41.1112C104.542 41.0649 104.487 41.0283 104.425 41.0034C104.364 40.9786 104.298 40.966 104.232 40.9664C104.125 40.9665 104.02 41 103.933 41.0621C103.933 41.0522 103.934 41.0425 103.935 41.0339C103.967 40.8314 103.924 40.6241 103.813 40.4507C103.637 40.2154 103.443 39.9933 103.233 39.7862L103.231 39.7843C102.645 39.2285 101.956 38.7894 101.202 38.4908C100.808 38.3309 100.387 38.2488 99.9607 38.2491C99.4093 38.2442 98.8736 38.4297 98.4459 38.7736C98.3241 38.8885 98.2131 39.014 98.1142 39.1486C98.0669 39.2131 98.0419 39.291 98.043 39.3707C98.0441 39.4503 98.0711 39.5275 98.1202 39.5907C98.1692 39.654 98.2375 39.6999 98.315 39.7216C98.3926 39.7434 98.4751 39.7398 98.5505 39.7115C98.6161 39.6872 98.6831 39.6669 98.7512 39.6507C98.893 39.621 99.0384 39.6121 99.1828 39.6241C99.4822 39.6549 99.7691 39.759 100.018 39.9268C100.157 40.0428 100.268 40.1886 100.342 40.3532C100.416 40.5178 100.451 40.6969 100.445 40.8769C100.341 41.1694 100.182 41.4399 99.977 41.6742C99.9223 41.7455 99.8956 41.834 99.9018 41.9233C99.9081 42.0126 99.9468 42.0966 100.011 42.1598L100.816 42.9555C100.884 43.0225 100.975 43.0614 101.07 43.064C101.166 43.0667 101.259 43.033 101.331 42.9698C101.558 42.7689 101.905 42.466 102.026 42.3917C102.13 42.3232 102.247 42.2775 102.37 42.2576C102.462 42.2487 102.554 42.268 102.634 42.3127C102.635 42.3166 102.634 42.3206 102.633 42.3244C102.632 42.3282 102.63 42.3317 102.627 42.3346L102.584 42.3746L102.577 42.3811C102.483 42.4743 102.429 42.6007 102.429 42.7327C102.429 42.8647 102.482 42.9914 102.576 43.0849L102.578 43.0873L103.38 43.8714C103.427 43.9177 103.483 43.9542 103.544 43.979C103.605 44.0039 103.671 44.0164 103.737 44.016C103.871 44.0162 103.998 43.9647 104.093 43.8726L105.392 42.6049C105.396 42.6005 105.401 42.5959 105.405 42.5913C105.492 42.4969 105.54 42.3735 105.539 42.2457C105.537 42.118 105.487 41.9954 105.398 41.9027Z" fill="white"/>
<path d="M13.6735 42.7343C13.5808 42.7343 13.4903 42.7071 13.4132 42.6563C13.3362 42.6054 13.2762 42.5331 13.2407 42.4485C13.2053 42.3639 13.196 42.2708 13.2141 42.181C13.2322 42.0912 13.2768 42.0087 13.3423 41.944L14.4162 40.8824L13.3423 39.8208C13.2544 39.734 13.2051 39.6163 13.2051 39.4935C13.2051 39.3707 13.2544 39.2529 13.3423 39.1661C13.4301 39.0793 13.5492 39.0305 13.6735 39.0305C13.7977 39.0305 13.9168 39.0793 14.0046 39.1661L15.4098 40.555C15.4533 40.598 15.4878 40.6491 15.5114 40.7052C15.5349 40.7614 15.547 40.8216 15.547 40.8824C15.547 40.9432 15.5349 41.0034 15.5114 41.0596C15.4878 41.1157 15.4533 41.1668 15.4098 41.2098L14.0046 42.5987C13.9612 42.6418 13.9096 42.6759 13.8527 42.6992C13.7959 42.7224 13.735 42.7344 13.6735 42.7343Z" fill="white"/>
<path d="M6.17933 44.1232C6.11782 44.1232 6.05691 44.1113 6.00008 44.088C5.94325 44.0647 5.89161 44.0306 5.84812 43.9876C5.80463 43.9446 5.77013 43.8936 5.74659 43.8374C5.72305 43.7813 5.71094 43.7211 5.71094 43.6603V43.1973C5.71461 42.4619 6.01169 41.7577 6.53763 41.2375C7.06357 40.7174 7.7759 40.4234 8.51987 40.4194H14.6103C14.7345 40.4194 14.8537 40.4682 14.9415 40.555C15.0293 40.6419 15.0787 40.7596 15.0787 40.8824C15.0787 41.0052 15.0293 41.123 14.9415 41.2098C14.8537 41.2966 14.7345 41.3454 14.6103 41.3454H8.52126C8.02503 41.3483 7.54998 41.5445 7.19922 41.8915C6.84846 42.2385 6.65029 42.7082 6.64771 43.1987V43.6603C6.64771 43.7211 6.6356 43.7813 6.61206 43.8374C6.58852 43.8936 6.55402 43.9446 6.51053 43.9876C6.46704 44.0306 6.4154 44.0647 6.35857 44.088C6.30175 44.1113 6.24084 44.1232 6.17933 44.1232Z" fill="white"/>
<path d="M9.92629 47.8273C9.86477 47.8273 9.80384 47.8154 9.747 47.7921C9.69017 47.7689 9.63854 47.7347 9.5951 47.6917L8.18994 46.3027C8.14644 46.2597 8.11193 46.2087 8.08839 46.1525C8.06485 46.0964 8.05273 46.0362 8.05273 45.9754C8.05273 45.9146 8.06485 45.8544 8.08839 45.7982C8.11193 45.742 8.14644 45.691 8.18994 45.648L9.5951 44.2591C9.68296 44.1724 9.80206 44.1237 9.9262 44.1238C10.0503 44.1238 10.1694 44.1726 10.2572 44.2594C10.345 44.3462 10.3943 44.4638 10.3944 44.5865C10.3944 44.7092 10.3452 44.827 10.2575 44.9138L9.18355 45.9754L10.2575 47.0369C10.323 47.1017 10.3676 47.1842 10.3857 47.274C10.4037 47.3638 10.3945 47.4569 10.359 47.5415C10.3236 47.6261 10.2635 47.6984 10.1865 47.7492C10.1095 47.8001 10.0189 47.8273 9.92629 47.8273Z" fill="white"/>
<path d="M8.98987 46.4382C8.86564 46.4382 8.74651 46.3894 8.65867 46.3026C8.57083 46.2157 8.52148 46.098 8.52148 45.9752C8.52148 45.8524 8.57083 45.7346 8.65867 45.6478C8.74651 45.561 8.86564 45.5122 8.98987 45.5122H15.0789C15.5751 45.5093 16.0502 45.3131 16.4009 44.9661C16.7517 44.6191 16.9499 44.1494 16.9524 43.6589V43.1974C16.9524 43.0746 17.0018 42.9568 17.0896 42.87C17.1775 42.7832 17.2966 42.7344 17.4208 42.7344C17.545 42.7344 17.6642 42.7832 17.752 42.87C17.8399 42.9568 17.8892 43.0746 17.8892 43.1974V43.6603C17.8855 44.3957 17.5885 45.0999 17.0625 45.6201C16.5366 46.1402 15.8242 46.4342 15.0803 46.4382L8.98987 46.4382Z" fill="white"/>
</g>
<defs>
<clipPath id="clip0">
<rect width="186" height="151" fill="white"/>
</clipPath>
</defs>
</svg>
