<svg width="198" height="118" viewBox="0 0 198 118" fill="none" xmlns="http://www.w3.org/2000/svg">
<g clip-path="url(#clip0)">
<path d="M155.51 3.30566H155.51C150.775 3.30566 146.937 7.63386 146.937 12.973V19.7563H148.99L150.179 17.243L149.881 19.7563H163.079L164.16 17.4715L163.89 19.7563H165.376V14.4302C165.376 8.28628 160.959 3.30566 155.51 3.30566Z" fill="#2F2E41"/>
<path d="M104.975 118C156.351 118 198 115.16 198 111.656C198 108.152 156.351 105.312 104.975 105.312C53.5988 105.312 11.9502 108.152 11.9502 111.656C11.9502 115.16 53.5988 118 104.975 118Z" fill="#3F3D56"/>
<path d="M42.3067 109.394C42.2658 109.326 41.3004 107.688 40.9658 104.288C40.6588 101.168 40.8562 95.9087 43.5405 88.5728C48.626 74.6755 42.3686 63.4624 42.3046 63.3507L42.6134 63.1687C42.6296 63.197 44.2442 66.0559 45.198 70.6083C46.4584 76.6438 45.9994 82.9193 43.875 88.6992C38.7983 102.573 42.5726 109.14 42.6113 109.205L42.3067 109.394Z" fill="#3F3D56"/>
<path d="M40.3182 62.5345C41.5991 62.5345 42.6374 61.4795 42.6374 60.1781C42.6374 58.8768 41.5991 57.8218 40.3182 57.8218C39.0374 57.8218 37.999 58.8768 37.999 60.1781C37.999 61.4795 39.0374 62.5345 40.3182 62.5345Z" fill="#0FB953"/>
<path d="M47.6327 71.235C48.9135 71.235 49.9519 70.18 49.9519 68.8786C49.9519 67.5772 48.9135 66.5222 47.6327 66.5222C46.3518 66.5222 45.3135 67.5772 45.3135 68.8786C45.3135 70.18 46.3518 71.235 47.6327 71.235Z" fill="#3F3D56"/>
<path d="M42.6376 77.0352C43.9184 77.0352 44.9567 75.9803 44.9567 74.6789C44.9567 73.3775 43.9184 72.3225 42.6376 72.3225C41.3567 72.3225 40.3184 73.3775 40.3184 74.6789C40.3184 75.9803 41.3567 77.0352 42.6376 77.0352Z" fill="#0FB953"/>
<path d="M48.703 81.9293C49.9838 81.9293 51.0222 80.8743 51.0222 79.5729C51.0222 78.2715 49.9838 77.2166 48.703 77.2166C47.4221 77.2166 46.3838 78.2715 46.3838 79.5729C46.3838 80.8743 47.4221 81.9293 48.703 81.9293Z" fill="#0FB953"/>
<path d="M40.8534 89.5423C42.1342 89.5423 43.1726 88.4873 43.1726 87.186C43.1726 85.8846 42.1342 84.8296 40.8534 84.8296C39.5725 84.8296 38.5342 85.8846 38.5342 87.186C38.5342 88.4873 39.5725 89.5423 40.8534 89.5423Z" fill="#3F3D56"/>
<path d="M43.708 109.481C43.708 109.481 41.3888 103.681 48.3464 99.3303L43.708 109.481Z" fill="#3F3D56"/>
<path d="M40.8556 109.376C40.8556 109.376 39.8001 103.207 31.6309 103.26L40.8556 109.376Z" fill="#3F3D56"/>
<path d="M151.371 15.4976C151.371 15.4976 154.047 21.8417 150.479 23.1105L154.047 35.0737L160.113 34.7112L161.719 30.7234L161.362 24.7419L160.827 20.7542C160.827 20.7542 157.08 21.6605 157.437 14.9539L151.371 15.4976Z" fill="#FFB8B8"/>
<path d="M149.944 22.9295C149.944 22.9295 144.057 22.3857 144.592 26.7359C145.127 31.0861 145.662 31.9924 145.662 31.9924L146.198 38.5178L142.987 40.5116H139.954C139.954 40.5116 130.677 42.6868 135.315 45.0431C139.954 47.3995 141.559 43.2305 141.559 43.2305C141.559 43.2305 150.122 43.2305 150.658 41.7805C151.193 40.3304 149.944 22.9295 149.944 22.9295Z" fill="#FFB8B8"/>
<path d="M161.362 21.1167C161.362 21.1167 166.893 19.1228 167.25 23.4731C167.606 27.8233 167.606 28.1858 167.606 28.1858L168.677 34.3487C168.677 34.3487 170.818 39.7865 170.818 41.4178C170.818 43.0491 172.423 48.1244 172.423 48.1244C172.423 48.1244 174.564 55.1935 172.245 55.0123C169.926 54.831 169.569 47.3994 169.569 47.3994L164.752 37.6113L163.325 31.6298L161.362 21.1167Z" fill="#FFB8B8"/>
<path d="M150.836 22.2043H149.409L149.231 29.8172C149.231 29.8172 146.911 33.0799 149.766 35.98L150.479 40.6928L163.502 40.149L164.394 35.255C164.394 35.255 166.178 31.2673 163.681 27.6421L161.362 20.2104H160.113C160.113 20.2104 163.005 31.0458 156.902 31.2673C151.907 31.4485 150.836 22.2043 150.836 22.2043Z" fill="#0FB953"/>
<path d="M151.193 39.7863L150.123 43.4115C150.123 43.4115 127.823 107.215 134.602 108.846C141.381 110.478 150.836 112.653 151.728 111.021C152.62 109.39 157.259 61.7188 157.259 61.7188C157.259 61.7188 156.545 111.565 158.864 111.565C161.184 111.565 176.526 111.928 177.418 109.571C178.31 107.215 169.39 44.1366 164.216 42.6865L162.789 39.4238L151.193 39.7863Z" fill="#2F2E41"/>
<path d="M164.039 37.9739L149.945 38.5177C149.945 38.5177 149.302 43.4117 149.945 43.4117C150.123 43.4117 164.752 44.6805 164.574 42.5054C164.395 40.3303 164.039 37.9739 164.039 37.9739Z" fill="#3F3D56"/>
<path d="M91.1623 72.5038C91.1631 76.3588 90.0932 80.1358 88.0757 83.4006C86.0582 86.6654 83.1749 89.2855 79.7572 90.9597C79.7554 90.9597 79.7554 90.9597 79.7537 90.9615C79.141 91.2621 78.5134 91.5301 77.8733 91.7645C77.7716 91.8044 77.6682 91.8406 77.5629 91.875C77.3488 91.953 77.1312 92.0237 76.9118 92.0908C76.4604 92.2321 76.0025 92.3572 75.5381 92.466H75.5363L75.5238 92.4696L75.4953 92.475C75.4346 92.4895 75.3722 92.504 75.3097 92.5167C74.9636 92.5946 74.614 92.6617 74.2607 92.7179C73.1839 92.8975 72.0944 92.9872 71.0032 92.9862C70.418 92.9862 69.8365 92.9608 69.2638 92.91C69.2327 92.9088 69.2018 92.9058 69.171 92.901C67.6007 92.7566 66.0524 92.4263 64.5576 91.9167C64.3364 91.8406 64.1152 91.7609 63.8975 91.6757C60.4548 90.3586 57.4323 88.1096 55.1575 85.1722C52.8827 82.2348 51.4423 78.721 50.9923 75.0114C50.5422 71.3018 51.0997 67.5378 52.6044 64.1271C54.1091 60.7163 56.5035 57.7889 59.5285 55.6619C62.5534 53.5348 66.0935 52.2893 69.7652 52.06C73.437 51.8308 77.1005 52.6267 80.359 54.3615C83.6174 56.0964 86.3466 58.7039 88.2509 61.9019C90.1552 65.0998 91.162 68.7661 91.1623 72.5038Z" fill="#3F3D56"/>
<path d="M68.6074 72.7335C68.6074 72.7335 73.3357 70.6402 75.5566 72.8515C77.7774 75.0628 69.6104 74.3349 68.6074 72.7335Z" fill="#3F3D56"/>
<path d="M76.7719 62.8058C75.1829 60.0779 72.0393 59.9507 72.0393 59.9507C72.0393 59.9507 68.976 59.5527 67.0109 63.7073C65.1793 67.5798 62.6514 71.3188 66.6039 72.2253L67.3179 69.9675L67.76 72.3934C68.3228 72.4345 68.8873 72.4443 69.4511 72.4227C73.684 72.2839 77.7151 72.4633 77.5853 70.9201C77.4128 68.8685 78.3008 65.4306 76.7719 62.8058Z" fill="#2F2E41"/>
<path d="M77.5624 91.8749C77.6676 91.8405 77.7711 91.8043 77.8728 91.7644L77.8496 91.7318L77.5624 91.7154L75.7035 91.6139H75.7017L75.3895 91.5976L73.9106 91.5161L70.6904 91.3384L68.9653 91.2442L68.8779 91.2387H68.8565L67.6416 91.1717L67.2456 91.1499L66.8691 92.5529C67.6288 92.7152 68.3972 92.8314 69.1705 92.9009C69.2012 92.9057 69.2322 92.9087 69.2633 92.9099C69.8359 92.9607 70.4175 92.9861 71.0026 92.9861C72.0939 92.9871 73.1834 92.8974 74.2602 92.7178C74.6134 92.6616 74.9631 92.5945 75.3092 92.5166C75.3716 92.5039 75.4341 92.4894 75.4947 92.4749L75.5233 92.4695L75.5358 92.4659H75.5376C76.0014 92.3571 76.4593 92.232 76.9112 92.0906L77.5624 91.8749Z" fill="#2F2E41"/>
<path d="M69.3965 68.7303C69.3965 68.7303 70.1129 73.5344 68.6801 74.1167C67.2473 74.699 71.5457 77.1738 71.5457 77.1738H73.9815L75.5576 73.8255C75.5576 73.8255 74.1248 71.2051 74.9845 68.7303C75.8442 66.2555 69.3965 68.7303 69.3965 68.7303Z" fill="#A0616A"/>
<path d="M77.5622 91.8752V74.844C77.5622 74.844 77.3802 73.0949 75.937 73.5498C75.7895 73.5977 75.6462 73.6584 75.5088 73.7311C75.2699 73.8623 75.0419 74.0132 74.8274 74.1824C74.7453 74.2458 74.6614 74.3147 74.574 74.389C74.5669 74.3945 74.5598 74.4017 74.5526 74.4072C71.8303 76.7364 70.5422 75.1358 70.255 74.844C70.1497 74.7389 69.875 74.4398 69.5664 74.1027V74.1008C69.4326 73.9558 69.2934 73.8036 69.1614 73.6549C68.7529 73.2072 68.3925 72.8066 68.3925 72.8066L66.96 73.9703L67.3096 82.7941L67.3917 84.8749V84.8767L67.4184 85.5238V85.5274L67.6414 91.1719L67.6753 92.0238C68.1603 92.1805 68.6527 92.3124 69.1507 92.4189C69.297 92.4498 69.4522 92.4806 69.611 92.5096C70.8526 92.738 72.4154 92.8558 73.4073 92.3138C73.6077 92.2046 73.818 92.1154 74.0353 92.0474C74.4667 91.9157 74.9157 91.8527 75.3661 91.8607C75.4625 91.8625 75.557 91.8661 75.6516 91.8715H75.6533C76.0787 91.9021 76.5 91.9756 76.9111 92.0909L77.5622 91.8752Z" fill="#3F3D56"/>
<path d="M70.6905 91.3385C70.3663 91.7612 70.005 92.1531 69.6112 92.5095C69.4899 92.6219 69.3686 92.7306 69.2455 92.8376C69.2205 92.8593 69.1955 92.8792 69.1705 92.901C67.6002 92.7566 66.0519 92.4263 64.5571 91.9168C64.3359 91.8406 64.1147 91.7609 63.8971 91.6757C64.0348 91.3212 64.1428 90.9556 64.22 90.5827C65.2065 85.8844 62.3378 78.7537 62.0881 77.6099C61.9971 77.1985 62.3325 76.6275 62.8695 76.0203C64.0415 74.6989 66.1734 73.2053 66.9602 72.8066C67.5567 72.5354 68.2249 72.4729 68.8601 72.6289H68.8619C69.0611 72.6704 69.2564 72.7299 69.4453 72.8066V72.8084C69.447 72.8356 69.4667 73.0422 69.5006 73.3957C69.5184 73.5896 69.5398 73.8252 69.5666 74.1008V74.1026C69.6147 74.6174 69.6754 75.259 69.7468 75.9913V75.9931C70.1767 80.5047 70.9545 88.3568 71.2578 89.6927C71.3702 90.1875 71.1204 90.7603 70.6905 91.3385Z" fill="#D0CDE1"/>
<path d="M77.5625 91.8752C77.6678 91.8407 77.7713 91.8045 77.8729 91.7646C78.513 91.5302 79.1406 91.2622 79.7533 90.9616C78.8363 88.2391 81.5462 79.5839 82.3222 76.9049V76.9013C82.4132 76.5877 82.4774 76.3557 82.506 76.227C82.7932 74.9165 78.4224 73.6803 78.2797 73.3885C78.1691 73.1674 76.394 72.9444 75.5573 72.852C75.2986 72.823 75.1292 72.8066 75.1292 72.8066C74.908 72.9806 74.7385 73.4809 74.6065 74.2078C74.594 74.2658 74.5833 74.3274 74.5744 74.389C74.4798 74.9509 74.4067 75.6307 74.3478 76.3938C74.0231 80.5555 74.1337 87.1316 73.8376 89.8396C73.7776 90.399 73.8023 90.9644 73.9107 91.5163C73.9433 91.6954 73.9849 91.8726 74.0356 92.0474C74.0979 92.2751 74.173 92.499 74.2604 92.718C74.6136 92.6618 74.9633 92.5948 75.3094 92.5168C75.3718 92.5041 75.4342 92.4896 75.4949 92.4751L75.5234 92.4697L75.5359 92.4661H75.5377C76.0015 92.3573 76.4594 92.2322 76.9114 92.0909L77.5625 91.8752Z" fill="#D0CDE1"/>
<path d="M76.4877 67.3472C76.646 67.3472 76.7743 67.0865 76.7743 66.7649C76.7743 66.4433 76.646 66.1826 76.4877 66.1826C76.3295 66.1826 76.2012 66.4433 76.2012 66.7649C76.2012 67.0865 76.3295 67.3472 76.4877 67.3472Z" fill="#A0616A"/>
<path d="M68.0346 67.3472C68.1929 67.3472 68.3212 67.0865 68.3212 66.7649C68.3212 66.4433 68.1929 66.1826 68.0346 66.1826C67.8763 66.1826 67.748 66.4433 67.748 66.7649C67.748 67.0865 67.8763 67.3472 68.0346 67.3472Z" fill="#A0616A"/>
<path d="M77.5627 91.8751C77.668 91.8407 77.7715 91.8044 77.8732 91.7645C78.5132 91.5302 79.1408 91.2622 79.7535 90.9616C79.7534 90.9626 79.7535 90.9635 79.7538 90.9645C79.7541 90.9654 79.7546 90.9663 79.7553 90.967C79.755 90.9644 79.7556 90.9619 79.7571 90.9598C80.8274 85.2175 81.9621 79.0746 82.3224 76.9049V76.9013C82.3849 76.5243 82.4241 76.2687 82.4348 76.1545C82.5775 74.699 78.9953 74.699 78.9953 74.699L78.4244 77.6299L77.5627 82.0581L77.2666 83.5789L75.702 91.6141L75.6521 91.8715L75.5361 92.466H75.5379C76.0018 92.3573 76.4596 92.2322 76.9116 92.0908L77.5627 91.8751Z" fill="#D0CDE1"/>
<path d="M69.1707 92.901C67.6004 92.7566 66.0521 92.4263 64.5573 91.9167C64.4449 91.4763 64.3325 91.0304 64.2201 90.5827C62.8269 85.0271 61.5156 79.1488 61.5156 78.0468C61.5156 77.135 62.1418 76.4771 62.8697 76.0203C63.5624 75.6091 64.3143 75.3106 65.0979 75.1357C65.0979 75.1357 65.5546 77.0662 66.2111 79.8503C66.5625 81.3366 66.9693 83.0658 67.3921 84.8748V84.8766C67.8845 86.9756 68.4 89.1797 68.8781 91.2388C68.9549 91.5724 69.031 91.901 69.1065 92.2249V92.2321C69.1076 92.2344 69.1082 92.2369 69.1083 92.2394C69.1226 92.2992 69.1368 92.359 69.1511 92.4188C69.1832 92.5602 69.2153 92.6998 69.2456 92.8375C69.2528 92.8611 69.2581 92.8847 69.2635 92.9101C69.2324 92.9088 69.2014 92.9058 69.1707 92.901Z" fill="#D0CDE1"/>
<path opacity="0.2" d="M65.8857 79.4302L69.1095 92.2398C69.1095 92.2398 67.6051 81.0315 65.8857 79.4302Z" fill="black"/>
<path opacity="0.2" d="M74.2607 92.7179L75.3097 92.5112V92.5167C74.9636 92.5946 74.614 92.6617 74.2607 92.7179Z" fill="black"/>
<path opacity="0.2" d="M78.4244 77.6299L77.5628 82.0581L77.2666 83.5788L75.7038 91.6141H75.702L75.6539 91.8714H75.6521L75.5379 92.466H75.5361L75.5236 92.4696L75.4951 92.475L75.3096 92.5113C75.3256 92.3083 75.3452 92.0908 75.3667 91.8606C75.3738 91.7754 75.3809 91.6884 75.3898 91.5978C75.7252 87.8946 76.4406 81.498 77.5628 78.8189C77.8268 78.1882 78.114 77.764 78.4244 77.6299Z" fill="black"/>
<path d="M72.2606 71.0595C74.5555 71.0595 76.4158 69.1694 76.4158 66.8377C76.4158 64.5061 74.5555 62.616 72.2606 62.616C69.9658 62.616 68.1055 64.5061 68.1055 66.8377C68.1055 69.1694 69.9658 71.0595 72.2606 71.0595Z" fill="#A0616A"/>
<path d="M76.0701 62.5428L72.9643 60.8899L68.6754 61.566L67.7881 65.5481L69.997 65.4618L70.6141 63.9989V65.4377L71.6333 65.3978L72.2249 63.0686L72.5947 65.5481L76.218 65.473L76.0701 62.5428Z" fill="#2F2E41"/>
<path d="M40.3177 46.5837C40.3177 49.8355 39.5556 53.0406 38.0945 55.9338C36.6333 58.827 34.5151 61.3251 31.9151 63.2215C31.2051 63.7421 30.4619 64.2144 29.6905 64.6353C25.4648 66.9335 20.5728 67.6312 15.8877 66.6038C14.8903 66.3863 13.9109 66.0906 12.9584 65.7192C9.52621 64.3862 6.51781 62.1255 4.25833 59.1815C1.99885 56.2374 0.574224 52.7219 0.138413 49.0149C-0.297399 45.308 0.272175 41.5504 1.78558 38.1485C3.29899 34.7465 5.69868 31.8295 8.72531 29.7126C11.7519 27.5957 15.2904 26.3595 18.9583 26.1376C22.6263 25.9156 26.2841 26.7164 29.5367 28.4533C32.7892 30.1902 35.5127 32.7972 37.4128 35.9926C39.3129 39.1881 40.3174 42.8503 40.3177 46.5837Z" fill="#3F3D56"/>
<path d="M18.8873 45.2481C21.4479 45.2481 23.5237 43.139 23.5237 40.5374C23.5237 37.9357 21.4479 35.8267 18.8873 35.8267C16.3267 35.8267 14.251 37.9357 14.251 40.5374C14.251 43.139 16.3267 45.2481 18.8873 45.2481Z" fill="#FFB8B8"/>
<path d="M17.0771 44.144C17.0771 44.144 17.6567 46.941 17.6567 47.2354C17.6567 47.5298 20.4095 48.8547 20.4095 48.8547L22.8726 48.413L23.7419 45.7633C23.7419 45.7633 22.2931 43.5551 22.2931 42.6719L17.0771 44.144Z" fill="#FFB8B8"/>
<path d="M20.1594 67.0661C18.7236 67.0669 17.2919 66.9119 15.8885 66.6039C15.8189 65.1628 15.7726 63.575 15.7726 63.575L14.3596 59.4097L11.4268 50.769L17.4656 46.0853C17.4656 46.0853 18.9606 48.5595 21.1335 47.8236C21.7377 47.6372 22.2687 47.2618 22.6505 46.7508C23.0324 46.2397 23.2457 45.6192 23.26 44.9778L30.4067 47.5299L29.1721 57.7076L29.1026 58.2768L29.6913 64.6354C26.7615 66.2361 23.4859 67.0714 20.1594 67.0661Z" fill="#D0CDE1"/>
<path d="M14.8668 36.742C14.8668 36.742 16.3388 33.5014 19.1602 34.2492C21.9816 34.9971 23.5763 36.1188 23.6989 37.2405C23.8216 38.3622 23.6376 40.0448 23.6376 40.0448C23.6376 40.0448 23.3309 37.739 21.3682 38.2376C19.4055 38.7361 16.3388 38.3622 16.3388 38.3622L15.8481 42.8491C15.8481 42.8491 15.2961 42.039 14.6828 42.5375C14.0694 43.0361 12.9041 37.739 14.8668 36.742Z" fill="#2F2E41"/>
<path d="M8.75391 63.4735L9.68693 55.48C9.54243 52.3877 11.4263 50.769 11.4263 50.769H13.5992L15.1923 56.2159L14.3592 59.4097L13.3102 63.4282L13.0194 63.8705C13.0194 63.8705 13.3102 64.311 13.1639 64.4596C13.0194 64.6064 12.8749 65.1955 12.8749 65.1955C12.8749 65.1955 12.9053 65.4058 12.9588 65.7193C11.4742 65.1433 10.0626 64.3894 8.75391 63.4735Z" fill="#D0CDE1"/>
<path d="M35.4789 59.8973C34.4272 61.1468 33.231 62.263 31.9163 63.2216C31.7183 62.8646 31.5523 62.4903 31.4203 62.1032L29.1725 57.7076L27.6543 54.7422L27.9433 47.0876L30.407 47.5299C30.407 47.5299 31.8556 49.0017 32.4354 50.769L33.595 56.0672L35.4771 59.8955L35.4789 59.8973Z" fill="#D0CDE1"/>
<path d="M138.794 34.8019C138.796 38.3183 137.906 41.7758 136.21 44.8412C134.514 47.9065 132.07 50.4762 129.112 52.3025C128.756 52.5237 128.392 52.7321 128.021 52.9315C127.468 53.2288 126.898 53.5007 126.317 53.7417V53.7435C126.131 53.8215 125.946 53.8958 125.758 53.9665C125.671 54.0009 125.582 54.0354 125.493 54.068C123.293 54.8734 120.973 55.285 118.635 55.2842C117.1 55.2854 115.569 55.1091 114.073 54.7586C113.296 54.5758 112.531 54.3458 111.781 54.0698H111.779C110.827 53.7195 109.903 53.2966 109.014 52.8046C108.782 52.6777 108.554 52.5454 108.329 52.4077C108.172 52.3134 108.018 52.2173 107.865 52.1195C104.902 50.2174 102.479 47.5634 100.833 44.4192C99.188 41.2751 98.3778 37.7495 98.4827 34.1902C98.5875 30.6309 99.6038 27.1609 101.431 24.1224C103.259 21.0839 105.834 18.5819 108.904 16.8633C111.973 15.1446 115.431 14.2687 118.935 14.3219C122.439 14.375 125.869 15.3555 128.887 17.1665C131.905 18.9775 134.405 21.5565 136.143 24.6491C137.88 27.7417 138.794 31.241 138.794 34.8019Z" fill="#3F3D56"/>
<path d="M116.312 31.8118C116.312 31.8118 116.431 34.9642 115.715 35.6917C114.999 36.4191 119.295 38.9653 119.295 38.9653L121.801 34.9642C121.801 34.9642 120.847 33.2667 121.085 31.8118L116.312 31.8118Z" fill="#A0616A"/>
<path d="M118.4 33.5698C120.773 33.5698 122.696 31.6156 122.696 29.205C122.696 26.7943 120.773 24.8401 118.4 24.8401C116.028 24.8401 114.104 26.7943 114.104 29.205C114.104 31.6156 116.028 33.5698 118.4 33.5698Z" fill="#A0616A"/>
<path d="M125.68 52.9551C125.707 53.2922 125.733 53.6294 125.758 53.9665C125.671 54.001 125.582 54.0354 125.493 54.068C123.293 54.8735 120.973 55.285 118.635 55.2843C117.1 55.2854 115.569 55.1091 114.073 54.7586C113.296 54.5758 112.531 54.3458 111.781 54.0698L111.779 54.0861C111.777 54.0809 111.777 54.0751 111.779 54.0698C111.806 53.7001 111.875 53.3347 111.982 52.9805V52.9787C112.082 52.6053 112.218 52.1739 112.373 51.6971C112.541 51.1878 112.552 50.0749 112.516 49.029C112.512 48.9492 112.51 48.8677 112.507 48.7897C112.493 48.4508 112.475 48.1263 112.457 47.8381C112.416 47.1874 112.373 46.7252 112.373 46.7252L109.747 39.5709L116.089 34.8654C116.464 36.0998 117.267 36.0563 117.267 36.0563C120.67 36.2937 121.297 33.9047 121.316 33.8268V33.825L127.409 37.8743L124.904 44.0571C124.904 44.0571 125.006 45.1047 125.15 46.7034C125.171 46.9391 125.193 47.1874 125.218 47.4466C125.357 49.0163 125.526 50.9721 125.68 52.9551Z" fill="#D0CDE1"/>
<path d="M112.671 47.8762L112.546 48.797L112.516 49.029L111.986 52.9623L111.983 52.9786V52.9804L111.781 54.0698L111.779 54.0861C111.778 54.0808 111.778 54.0751 111.779 54.0698C110.828 53.7195 109.903 53.2966 109.014 52.8046C108.782 52.6777 108.554 52.5454 108.329 52.4077C108.477 51.9384 108.652 51.4785 108.854 51.0301L109.218 48.1517L109.33 47.2708L112.457 47.8381L112.671 47.8762Z" fill="#A0616A"/>
<path d="M111.479 39.3896L109.749 39.5715C109.749 39.5715 108.615 48.1194 108.973 48.1194C109.331 48.1194 113.389 49.0894 113.508 48.8469C113.627 48.6044 111.479 39.3896 111.479 39.3896Z" fill="#D0CDE1"/>
<path d="M115.085 24.7307L114.311 24.4446C114.311 24.4446 115.93 22.7994 118.183 22.9424L117.549 22.2987C117.549 22.2987 119.098 21.7264 120.506 23.2286C121.246 24.0182 122.102 24.9464 122.636 25.992H123.466L123.12 26.6954L124.331 27.3987L123.088 27.2724C123.205 27.8797 123.165 28.5077 122.97 29.0941L122.688 29.8809C122.688 29.8809 121.562 27.5919 121.562 27.3058V28.0211C121.562 28.0211 120.787 27.3773 120.787 26.9482L120.365 27.4489L120.154 26.662L117.549 27.4489L117.971 26.8051L116.352 27.0197L116.986 26.2328C116.986 26.2328 115.155 27.1627 115.085 27.9496C115.015 28.7364 114.099 29.7379 114.099 29.7379L113.677 29.0225C113.677 29.0225 113.043 25.8037 115.085 24.7307Z" fill="#2F2E41"/>
<path d="M129.112 52.3024C128.755 52.5235 128.392 52.732 128.02 52.9313C127.467 53.2286 126.898 53.5005 126.317 53.7416V53.7434C126.131 53.8213 125.946 53.8956 125.758 53.9663C125.671 54.0008 125.582 54.0352 125.493 54.0678L125.68 52.9549L124.831 47.4718L124.724 46.7848L125.15 46.7033L129.139 45.9365V50.9085C129.139 50.9085 129.15 51.4468 129.112 52.3024Z" fill="#A0616A"/>
<path d="M125.083 37.571L127.41 37.8742C127.41 37.8742 130.214 46.5433 129.498 46.907C128.782 47.2708 124.128 47.5133 124.128 47.5133L125.083 37.571Z" fill="#D0CDE1"/>
<path d="M33.1821 36.9771C36.4335 36.9771 39.0693 34.299 39.0693 30.9955C39.0693 27.692 36.4335 25.0139 33.1821 25.0139C29.9307 25.0139 27.2949 27.692 27.2949 30.9955C27.2949 34.299 29.9307 36.9771 33.1821 36.9771Z" fill="#0FB953"/>
<path d="M84.9174 63.2595C88.1688 63.2595 90.8046 60.5815 90.8046 57.278C90.8046 53.9744 88.1688 51.2964 84.9174 51.2964C81.666 51.2964 79.0303 53.9744 79.0303 57.278C79.0303 60.5815 81.666 63.2595 84.9174 63.2595Z" fill="#0FB953"/>
<path d="M133.264 26.2827C136.516 26.2827 139.151 23.6047 139.151 20.3011C139.151 16.9976 136.516 14.3196 133.264 14.3196C130.013 14.3196 127.377 16.9976 127.377 20.3011C127.377 23.6047 130.013 26.2827 133.264 26.2827Z" fill="#0FB953"/>
<path d="M154.129 17.5737C156.897 17.5737 159.141 15.2935 159.141 12.4807C159.141 9.6679 156.897 7.3877 154.129 7.3877C151.36 7.3877 149.116 9.6679 149.116 12.4807C149.116 15.2935 151.36 17.5737 154.129 17.5737Z" fill="#FFB8B8"/>
<path d="M157.948 5.96889C157.535 5.40599 157.001 4.94724 156.385 4.62823C155.77 4.30922 155.091 4.13853 154.4 4.12939H154.232C150.986 4.12939 148.355 7.11319 148.355 10.7939V10.7939H149.443L149.619 9.43572L149.876 10.7939H156.326L156.866 9.64486L156.731 10.7939H158C158.592 13.7815 157.741 16.769 155.448 19.7565H157.609L158.69 17.4584L158.419 19.7565H162.54L163.35 14.4709C163.35 10.5124 161.086 7.15569 157.948 5.96889Z" fill="#2F2E41"/>
<path d="M159.132 6.52535C160.906 6.52535 162.343 5.0646 162.343 3.26267C162.343 1.46075 160.906 0 159.132 0C157.359 0 155.921 1.46075 155.921 3.26267C155.921 5.0646 157.359 6.52535 159.132 6.52535Z" fill="#2F2E41"/>
</g>
<defs>
<clipPath id="clip0">
<rect width="198" height="118" fill="white"/>
</clipPath>
</defs>
</svg>
