<svg width="187" height="152" viewBox="0 0 187 152" fill="none" xmlns="http://www.w3.org/2000/svg">
<g clip-path="url(#clip0)">
<path d="M94.6112 152C145.637 152 187.001 148.74 187.001 144.718C187.001 140.696 145.637 137.436 94.6112 137.436C43.5859 137.436 2.22168 140.696 2.22168 144.718C2.22168 148.74 43.5859 152 94.6112 152Z" fill="#3F3D56"/>
<path d="M173.09 131.19L173.956 137.596L167.895 138.179L168.76 130.316L173.09 131.19Z" fill="#A0616A"/>
<path d="M144.515 43.2446C144.515 43.2446 145.092 51.1073 145.092 51.3985C145.092 51.6897 141.051 71.7832 141.051 71.7832C141.051 71.7832 135.278 82.8491 141.051 82.5579C146.824 82.2667 145.092 72.0744 145.092 72.0744L151.154 55.1842L148.556 43.2446L144.515 43.2446Z" fill="#A0616A"/>
<path d="M154.04 131.19L153.174 137.596L159.235 138.179L158.369 130.316L154.04 131.19Z" fill="#A0616A"/>
<path d="M147.401 71.2007L145.958 73.2391C145.958 73.2391 145.092 81.9754 145.958 84.8875C146.824 87.7996 148.556 101.195 148.556 102.069C148.556 102.942 148.845 103.525 148.556 103.816C148.267 104.107 147.401 104.107 147.979 104.69C148.556 105.272 148.556 107.019 148.556 107.019V108.475L152.308 130.025C152.308 130.025 149.999 132.646 151.731 132.646C153.463 132.646 159.813 132.646 159.524 129.734L158.947 129.443C158.947 129.443 158.081 110.223 158.37 109.349C158.658 108.475 158.37 106.728 158.37 106.728C158.37 106.728 157.792 105.855 158.37 105.563C158.947 105.272 158.947 102.942 158.947 102.942L161.545 85.1787C161.545 85.1787 163.854 97.1183 165.297 98.2831C166.74 99.448 166.452 102.36 166.452 102.36L167.606 127.986C167.606 127.986 166.452 130.899 167.606 131.481C168.761 132.063 173.668 134.102 173.956 131.19C174.245 128.278 175.688 102.942 175.688 101.778C175.688 100.613 175.4 100.03 175.688 99.1568C175.977 98.2831 175.4 98.2831 175.688 98.2831C175.977 98.2831 175.111 97.4095 175.111 96.8271V82.5578C175.111 82.5578 175.4 79.6457 175.688 79.0633C175.977 78.4809 175.4 77.8985 175.688 77.0249C175.977 76.1512 175.111 73.2391 175.111 73.2391L162.122 69.7446L147.401 71.2007Z" fill="#2F2E41"/>
<path d="M157.503 136.432C157.503 136.432 158.946 134.976 156.926 134.976C155.629 135.002 154.351 135.3 153.173 135.849L151.73 141.091C151.73 141.091 145.813 145.896 152.452 145.313C159.091 144.731 158.08 145.168 158.08 145.168C158.08 145.168 160.101 144.585 160.389 144.003C160.678 143.421 159.812 134.976 159.812 134.976C159.812 134.976 158.946 137.305 157.503 136.432Z" fill="#2F2E41"/>
<path d="M169.915 136.431C169.915 136.431 168.471 134.975 170.492 134.975C171.789 135.002 173.067 135.299 174.244 135.849L175.688 141.091C175.688 141.091 181.605 145.896 174.966 145.313C168.327 144.731 168.471 145.168 168.471 145.168C168.471 145.168 166.451 144.585 166.162 144.003C165.874 143.42 167.606 134.975 167.606 134.975C167.606 134.975 168.471 137.305 169.915 136.431Z" fill="#2F2E41"/>
<path d="M151.153 20.2391C155.298 20.2391 158.658 16.8492 158.658 12.6676C158.658 8.48604 155.298 5.09619 151.153 5.09619C147.008 5.09619 143.648 8.48604 143.648 12.6676C143.648 16.8492 147.008 20.2391 151.153 20.2391Z" fill="#A0616A"/>
<path d="M148.556 18.2007C148.556 18.2007 149.71 24.0249 149.71 24.8985C149.71 25.7721 154.617 28.393 154.617 28.393L160.101 21.404C160.101 21.404 156.638 16.4534 156.638 15.2886L148.556 18.2007Z" fill="#A0616A"/>
<path d="M152.885 25.7723C152.885 25.7723 150.369 25.0967 149.607 23.9784C149.607 23.9784 141.628 31.8877 141.628 33.3437L147.978 44.7009C147.978 44.7009 147.978 48.7778 148.555 49.069C149.133 49.3602 148.555 49.069 148.555 50.2339C148.555 51.3987 146.824 58.9701 147.401 60.135C147.978 61.2998 148.555 60.4262 147.978 62.1734C147.401 63.9207 145.958 73.2394 145.958 73.2394C145.958 73.2394 151.153 71.4921 158.658 74.4042C166.163 77.3163 175.111 73.2394 175.111 73.2394C175.111 73.2394 172.801 67.9976 173.379 66.2504C173.956 64.5031 171.935 61.2998 171.935 61.2998L170.492 34.5086C170.492 34.5086 172.513 22.569 171.07 21.9866L168.183 20.8217L158.94 19.6755C158.94 19.6755 156.637 25.4811 152.885 25.7723Z" fill="#D0CDE1"/>
<path d="M144.514 31.3049L141.628 33.3434C141.628 33.3434 140.185 37.7115 141.628 39.75C143.071 41.7885 143.648 44.7006 143.648 44.7006L149.421 44.1181L144.514 31.3049Z" fill="#D0CDE1"/>
<path d="M145.423 4.66588L144.122 4.14009C144.122 4.14009 146.844 1.11679 150.631 1.37969L149.565 0.196641C149.565 0.196641 152.169 -0.854934 154.536 1.90547C155.78 3.35655 157.22 5.06222 158.117 6.98364H159.511L158.929 8.27621L160.966 9.56878L158.876 9.3366C159.074 10.4525 159.006 11.5999 158.678 12.6842L158.734 13.7059C158.734 13.7059 156.311 9.9238 156.311 9.39801V10.7125C156.311 10.7125 155.009 9.52946 155.009 8.74077L154.299 9.66091L153.944 8.21498L149.565 9.66091L150.276 8.47788L147.554 8.87224L148.619 7.4263C148.619 7.4263 145.542 9.13513 145.423 10.5811C145.305 12.027 143.767 13.8673 143.767 13.8673L143.057 12.5528C143.057 12.5528 141.991 6.6376 145.423 4.66588Z" fill="#2F2E41"/>
<path d="M147.164 63.3726H32.4629V144.663H147.164V63.3726Z" fill="#F2F2F2"/>
<path d="M70.9193 94.3884H42.1191V145.111H70.9193V94.3884Z" fill="#3F3D56"/>
<path d="M55.2033 97.4314H47.4453V104.728H55.2033V97.4314Z" fill="#F2F2F2"/>
<path d="M65.5919 97.4314H57.834V104.728H65.5919V97.4314Z" fill="#F2F2F2"/>
<path d="M55.2033 107.381H47.4453V114.943H55.2033V107.381Z" fill="#F2F2F2"/>
<path d="M65.5919 107.381H57.834V114.943H65.5919V107.381Z" fill="#F2F2F2"/>
<path d="M67.256 125.012C68.2674 125.012 69.0872 124.185 69.0872 123.164C69.0872 122.144 68.2674 121.317 67.256 121.317C66.2447 121.317 65.4248 122.144 65.4248 123.164C65.4248 124.185 66.2447 125.012 67.256 125.012Z" fill="#0FB953"/>
<path d="M137.509 89.5735H80.5742V137.777H137.509V89.5735Z" fill="#3F3D56"/>
<path d="M159.15 78.6765H20.4766L29.7226 59.1735L31.7918 54.8067L34.4989 49.0962L36.5681 44.7294L38.9669 39.6707H148.225L149.641 44.7294L150.865 49.0962L152.465 54.8067L153.688 59.1735L159.15 78.6765Z" fill="#3F3D56"/>
<path d="M84.569 109.56H82.5713V121.989H84.569V109.56Z" fill="#0FB953"/>
<path d="M84.569 111.408H82.5713V112.919H84.569V111.408Z" fill="#F2F2F2"/>
<path d="M84.569 118.63H82.5713V120.141H84.569V118.63Z" fill="#F2F2F2"/>
<path d="M90.3961 109.56H85.5684V121.989H90.3961V109.56Z" fill="#0FB953"/>
<path d="M90.3961 111.408H85.5684V112.919H90.3961V111.408Z" fill="#F2F2F2"/>
<path d="M90.3961 118.63H85.5684V120.141H90.3961V118.63Z" fill="#F2F2F2"/>
<path d="M93.5592 109.56H91.5615V121.989H93.5592V109.56Z" fill="#0FB953"/>
<path d="M93.5592 111.408H91.5615V112.919H93.5592V111.408Z" fill="#F2F2F2"/>
<path d="M93.5592 118.63H91.5615V120.141H93.5592V118.63Z" fill="#F2F2F2"/>
<path d="M96.5563 109.56H94.5586V121.989H96.5563V109.56Z" fill="#0FB953"/>
<path d="M96.5563 111.408H94.5586V112.919H96.5563V111.408Z" fill="#F2F2F2"/>
<path d="M96.5563 118.63H94.5586V120.141H96.5563V118.63Z" fill="#F2F2F2"/>
<path d="M98.4806 109.604L96.6113 110.315L100.957 121.945L102.826 121.234L98.4806 109.604Z" fill="#0FB953"/>
<path d="M99.1271 111.333L97.2578 112.044L97.7863 113.458L99.6556 112.747L99.1271 111.333Z" fill="#F2F2F2"/>
<path d="M101.652 118.091L99.7822 118.802L100.311 120.216L102.18 119.505L101.652 118.091Z" fill="#F2F2F2"/>
<path d="M135.677 109.56H130.85V121.989H135.677V109.56Z" fill="#0FB953"/>
<path d="M135.677 111.408H130.85V112.919H135.677V111.408Z" fill="#F2F2F2"/>
<path d="M135.677 118.63H130.85V120.141H135.677V118.63Z" fill="#F2F2F2"/>
<path d="M129.684 109.56H127.687V121.989H129.684V109.56Z" fill="#0FB953"/>
<path d="M129.684 111.408H127.687V112.919H129.684V111.408Z" fill="#F2F2F2"/>
<path d="M129.684 118.63H127.687V120.141H129.684V118.63Z" fill="#F2F2F2"/>
<path d="M126.687 109.56H124.689V121.989H126.687V109.56Z" fill="#0FB953"/>
<path d="M126.687 111.408H124.689V112.919H126.687V111.408Z" fill="#F2F2F2"/>
<path d="M126.687 118.63H124.689V120.141H126.687V118.63Z" fill="#F2F2F2"/>
<path d="M122.765 109.604L118.42 121.234L120.289 121.945L124.635 110.315L122.765 109.604Z" fill="#0FB953"/>
<path d="M122.118 111.333L121.59 112.747L123.459 113.458L123.988 112.044L122.118 111.333Z" fill="#F2F2F2"/>
<path d="M119.595 118.091L119.066 119.505L120.936 120.216L121.464 118.802L119.595 118.091Z" fill="#F2F2F2"/>
<path d="M137.509 121.989H80.5742V123.164H137.509V121.989Z" fill="#F2F2F2"/>
<path d="M115.867 109.56H105.379V121.989H115.867V109.56Z" fill="#0FB953"/>
<path d="M113.286 112.247H107.959V114.599H113.286V112.247Z" fill="#F2F2F2"/>
<path d="M109.541 89.5735H108.542V100.323H109.541V89.5735Z" fill="#F2F2F2"/>
<path d="M109.041 102.002C109.96 102.002 110.705 101.25 110.705 100.323C110.705 99.395 109.96 98.6431 109.041 98.6431C108.121 98.6431 107.376 99.395 107.376 100.323C107.376 101.25 108.121 102.002 109.041 102.002Z" fill="#F2F2F2"/>
<path d="M150.865 49.0965H34.499L36.5682 44.7297H149.641L150.865 49.0965Z" fill="#0FB953"/>
<path d="M153.688 59.1734H29.7227L31.7919 54.8066H152.465L153.688 59.1734Z" fill="#0FB953"/>
<path d="M165.874 33.9258C165.874 33.9258 164.203 38.2621 164.552 42.5525C164.616 43.3206 164.872 44.0598 165.297 44.7005L144.819 54.5088C144.819 54.5088 135.567 55.4753 137.876 59.5522C140.185 63.6291 148.556 57.5137 148.556 57.5137C148.556 57.5137 170.493 54.3104 172.224 51.1071C173.956 47.9038 175.111 34.5082 175.111 34.5082L165.874 33.9258Z" fill="#A0616A"/>
<path d="M166.74 21.9863H171.07C171.07 21.9863 174.245 22.5687 175.111 28.3929C175.977 34.2171 176.843 35.6732 175.977 35.6732C175.111 35.6732 164.72 35.382 164.72 35.0907C164.72 34.7995 166.74 21.9863 166.74 21.9863Z" fill="#D0CDE1"/>
<path d="M22.209 108.98C34.4747 108.98 44.418 98.9479 44.418 86.5732C44.418 74.1985 34.4747 64.1667 22.209 64.1667C9.94332 64.1667 0 74.1985 0 86.5732C0 98.9479 9.94332 108.98 22.209 108.98Z" fill="#0FB953"/>
<path opacity="0.1" d="M22.2091 105.843C32.7576 105.843 41.3089 97.2153 41.3089 86.573C41.3089 75.9307 32.7576 67.3035 22.2091 67.3035C11.6606 67.3035 3.10938 75.9307 3.10938 86.573C3.10938 97.2153 11.6606 105.843 22.2091 105.843Z" fill="black"/>
<path d="M21.2938 97.9438V95.1392C19.8886 95.1115 18.4349 94.6115 17.5869 93.9173L18.1683 92.0569C19.176 92.8188 20.3981 93.237 21.6573 93.2508C23.3775 93.2508 24.5405 92.1124 24.5405 90.5296C24.5405 89.0023 23.5955 88.0582 21.8026 87.2251C19.3313 86.1144 17.8049 84.8369 17.8049 82.4212C17.8049 80.1163 19.2344 78.3669 21.4635 77.9504V75.1458H22.9656V77.8393C24.0857 77.8548 25.1783 78.1919 26.1154 78.8112L25.5096 80.644C24.6109 80.0233 23.5459 79.6939 22.4568 79.6998C20.5913 79.6998 19.8886 80.9771 19.8886 82.0879C19.8886 83.5318 20.7851 84.2538 22.893 85.2536C25.3884 86.4199 26.6484 87.8638 26.6484 90.3352C26.6484 92.5289 25.3158 94.5839 22.8202 95.0557V97.9438H21.2938Z" fill="#F2F2F2"/>
</g>
<defs>
<clipPath id="clip0">
<rect width="187" height="152" fill="white"/>
</clipPath>
</defs>
</svg>
