<svg width="295" height="244" viewBox="0 0 295 244" fill="none" xmlns="http://www.w3.org/2000/svg">
<g opacity="0.7">
<path opacity="0.7" d="M186.401 109.825C186.427 102.104 184.567 94.4926 180.981 87.6434C179.278 84.4271 177.725 82.4276 176.517 81.2012C176.061 80.7209 175.466 80.394 174.814 80.2662C174.163 80.1384 173.487 80.216 172.882 80.4882C172.398 80.6578 171.961 80.9379 171.606 81.3058C169.99 82.9694 168.529 85.1686 167.254 87.5104C163.481 94.5195 161.523 102.352 161.556 110.301V115.073H158.476V59.6183C158.476 47.995 155.858 36.527 150.731 26.3456C148.301 21.5258 146.085 18.5312 144.379 16.6901C143.966 16.2221 143.457 15.8471 142.886 15.5902C142.315 15.3333 141.696 15.2004 141.07 15.2004C140.443 15.2004 139.824 15.3333 139.253 15.5902C138.682 15.8471 138.173 16.2221 137.76 16.6901C135.451 19.184 133.369 22.4796 131.548 25.9843C126.157 36.3749 123.418 48.1661 123.418 60.1348V115.073H120.755V110.072C120.788 102.123 118.83 94.2914 115.057 87.2822C113.782 84.9436 112.321 82.7444 110.705 81.0776C110.239 80.5906 109.63 80.263 108.966 80.1423C108.301 80.0215 107.615 80.1138 107.006 80.4058L107.118 80.466C106.727 80.6375 106.374 80.8829 106.078 81.1885C104.882 82.4149 103.33 84.4144 101.614 87.6308C98.028 94.4799 96.168 102.092 96.1936 109.813V192.722H105.696L104.659 199.538V219.917H112.427V199.538L111.39 192.722H120.755V117.218H123.418V192.383H131.006L129.916 199.535V219.917H137.686V199.538L136.596 192.386H146.822L145.731 199.538V219.917H153.502V199.538L152.411 192.386H158.47V117.218H161.55V192.836H164.046V192.722H172.302L171.265 199.538V219.917H179.036V199.538L178 192.722H186.401V109.825Z" fill="url(#paint0_linear)"/>
</g>
<path d="M113.971 195.564H106.615L107.929 186.689H112.658L113.971 195.564Z" fill="#535461"/>
<g opacity="0.1">
<path opacity="0.1" d="M107.562 190.212H113.025L112.658 187.731H107.929L107.562 190.212Z" fill="black"/>
</g>
<path d="M177.03 195.564H169.674L170.988 186.689H175.716L177.03 195.564Z" fill="#535461"/>
<g opacity="0.1">
<path opacity="0.1" d="M170.621 190.212H176.083L175.716 187.731H170.988L170.621 190.212Z" fill="black"/>
</g>
<path d="M137.883 195.564H130.523L131.837 186.689H136.569L137.883 195.564Z" fill="#535461"/>
<g opacity="0.1">
<path opacity="0.1" d="M131.471 190.212H136.936L136.569 187.731H131.837L131.471 190.212Z" fill="black"/>
</g>
<path d="M152.858 195.564H145.502L146.816 186.689H151.544L152.858 195.564Z" fill="#535461"/>
<g opacity="0.1">
<path opacity="0.1" d="M146.447 190.212H151.912L151.543 187.731H146.814L146.447 190.212Z" fill="black"/>
</g>
<path d="M166.52 113.314H113.973V115.403H166.52V113.314Z" fill="#535461"/>
<path d="M174.645 80.317C174.367 80.0124 174.028 79.7689 173.65 79.6023C173.272 79.4357 172.863 79.3496 172.449 79.3496C172.036 79.3496 171.627 79.4357 171.249 79.6023C170.871 79.7689 170.532 80.0124 170.254 80.317C168.724 81.9363 167.343 84.0784 166.135 86.3568C162.558 93.2085 160.708 100.82 160.743 108.539V188.929H183.997V108.206C184.026 100.699 182.266 93.292 178.86 86.5913C177.247 83.4605 175.777 81.5117 174.645 80.317Z" fill="#E0E0E0"/>
<path d="M107.962 80.317C108.24 80.0124 108.579 79.7689 108.957 79.6023C109.335 79.4357 109.744 79.3496 110.158 79.3496C110.571 79.3496 110.98 79.4357 111.358 79.6023C111.737 79.7689 112.075 80.0124 112.353 80.317C113.884 81.9363 115.264 84.0784 116.473 86.3568C120.049 93.2085 121.899 100.82 121.865 108.539V188.929H98.6039V108.206C98.5746 100.699 100.335 93.292 103.741 86.5913C105.351 83.4605 106.821 81.5117 107.962 80.317Z" fill="#E0E0E0"/>
<path d="M98.7344 109.92L104.251 109.946V116.708H98.7344V109.92Z" fill="#535461"/>
<path d="M116.338 109.92L121.854 109.946V116.708H116.338V109.92Z" fill="#535461"/>
<path d="M160.738 109.92L166.258 109.946V116.708H160.738V109.92Z" fill="#535461"/>
<path d="M178.344 109.92L183.863 109.946V116.708H178.344V109.92Z" fill="#535461"/>
<g opacity="0.1">
<path opacity="0.1" d="M116.463 86.2526C115.258 83.9742 113.874 81.8321 112.343 80.2128C111.911 79.7381 111.334 79.417 110.701 79.2985C110.067 79.1801 109.412 79.2708 108.836 79.5568C109.168 79.7216 109.468 79.9437 109.722 80.2128C111.253 81.8321 112.634 83.9742 113.842 86.2526C117.418 93.1043 119.268 100.716 119.234 108.434V188.818H121.861V108.444C121.895 100.722 120.043 93.1066 116.463 86.2526Z" fill="black"/>
</g>
<g opacity="0.1">
<path opacity="0.1" d="M168.226 86.4741C169.431 84.1957 170.815 82.0536 172.345 80.4343C172.632 80.1278 172.978 79.8821 173.363 79.7118C172.794 79.4644 172.162 79.4011 171.555 79.5308C170.949 79.6604 170.398 79.9766 169.983 80.4343C168.452 82.0536 167.072 84.1957 165.863 86.4741C162.287 93.3258 160.437 100.937 160.471 108.656V189.04H162.837V108.669C162.8 100.946 164.649 93.3299 168.226 86.4741Z" fill="black"/>
</g>
<path d="M113.971 195.564H106.615V215.408H113.971V195.564Z" fill="url(#paint1_linear)"/>
<path d="M137.879 195.564H130.523V215.408H137.879V195.564Z" fill="url(#paint2_linear)"/>
<path d="M152.858 195.564H145.502V215.408H152.858V195.564Z" fill="url(#paint3_linear)"/>
<path d="M177.03 195.564H169.674V215.408H177.03V195.564Z" fill="url(#paint4_linear)"/>
<path d="M144.216 17.2891C143.831 16.8352 143.352 16.4703 142.811 16.2199C142.269 15.9696 141.68 15.8398 141.083 15.8398C140.486 15.8398 139.896 15.9696 139.355 16.2199C138.814 16.4703 138.334 16.8352 137.95 17.2891C135.766 19.7164 133.805 22.9265 132.07 26.3425C126.969 36.4637 124.373 47.9507 124.373 59.5993V188.599H157.563V59.0797C157.563 47.7606 155.085 36.581 150.229 26.691C147.93 21.998 145.832 19.0827 144.216 17.2891Z" fill="#EEEEEE"/>
<path d="M145.89 31.6185H135.588C133.65 31.6185 132.08 33.1791 132.08 35.1042V36.02C132.08 37.9451 133.65 39.5057 135.588 39.5057H145.89C147.827 39.5057 149.397 37.9451 149.397 36.02V35.1042C149.397 33.1791 147.827 31.6185 145.89 31.6185Z" fill="#0FB953"/>
<g opacity="0.7">
<path opacity="0.7" d="M218.286 213.24C217.196 206.714 213.673 200.836 208.417 196.776C203.161 192.717 196.559 190.775 189.927 191.337C183.295 191.9 177.119 194.925 172.631 199.811C168.144 204.697 165.673 211.084 165.712 217.699C165.712 217.829 165.712 217.955 165.712 218.085C164.734 218.233 163.765 218.439 162.811 218.703C161.589 213.869 158.886 209.532 155.074 206.292C151.263 203.053 146.532 201.071 141.537 200.621C136.542 200.172 131.53 201.277 127.195 203.784C122.861 206.29 119.417 210.075 117.342 214.612C115.203 213.792 112.956 213.282 110.671 213.098C110.307 211.041 109.696 209.036 108.851 207.124C108.454 201.093 105.784 195.432 101.373 191.27C96.9618 187.109 91.1342 184.753 85.0527 184.673C78.9712 184.593 73.0829 186.795 68.5625 190.839C64.0422 194.883 61.2222 200.472 60.6651 206.49C59.4131 209.125 58.6134 211.95 58.2992 214.847C52.7643 217.135 48.2814 221.384 45.7193 226.771C43.1573 232.157 42.6986 238.297 44.4321 244H238.163C239.173 240.673 239.445 237.169 238.961 233.728C238.477 230.286 237.248 226.991 235.358 224.067C233.469 221.143 230.964 218.661 228.017 216.792C225.07 214.923 221.75 213.711 218.286 213.24Z" fill="url(#paint5_linear)"/>
</g>
<path d="M86.9548 232C99.7801 232 110.177 221.667 110.177 208.921C110.177 196.175 99.7801 185.843 86.9548 185.843C74.1294 185.843 63.7324 196.175 63.7324 208.921C63.7324 221.667 74.1294 232 86.9548 232Z" fill="url(#paint6_linear)"/>
<path d="M86.8409 242.847C100.885 242.847 112.27 231.532 112.27 217.575C112.27 203.618 100.885 192.304 86.8409 192.304C72.797 192.304 61.4121 203.618 61.4121 217.575C61.4121 231.532 72.797 242.847 86.8409 242.847Z" fill="url(#paint7_linear)"/>
<path d="M190.183 242.847C204.227 242.847 215.612 231.532 215.612 217.575C215.612 203.618 204.227 192.304 190.183 192.304C176.139 192.304 164.754 203.618 164.754 217.575C164.754 231.532 176.139 242.847 190.183 242.847Z" fill="url(#paint8_linear)"/>
<path d="M188.904 242.846C201.729 242.846 212.126 232.514 212.126 219.768C212.126 207.022 201.729 196.689 188.904 196.689C176.079 196.689 165.682 207.022 165.682 219.768C165.682 232.514 176.079 242.846 188.904 242.846Z" fill="url(#paint9_linear)"/>
<path d="M162.662 224.154C162.666 227.803 161.797 231.402 160.128 234.652C158.458 237.903 156.035 240.712 153.058 242.85H125.818C122.594 240.534 120.023 237.434 118.35 233.847C116.677 230.26 115.958 226.307 116.264 222.365C116.569 218.423 117.888 214.625 120.094 211.335C122.3 208.045 125.319 205.373 128.862 203.575C132.405 201.777 136.353 200.914 140.328 201.067C144.303 201.22 148.172 202.385 151.564 204.451C154.956 206.516 157.758 209.412 159.7 212.862C161.643 216.312 162.662 220.2 162.659 224.154H162.662Z" fill="url(#paint10_linear)"/>
<path d="M191.462 240.771C191.462 241.462 191.431 242.145 191.369 242.821C191.372 242.831 191.372 242.84 191.369 242.85H145.109C145.046 242.165 145.014 241.471 145.014 240.774C145.01 235.252 147 229.911 150.624 225.724C154.247 221.537 159.262 218.781 164.757 217.959C165.906 217.787 167.065 217.7 168.226 217.699C168.82 217.699 169.409 217.721 169.993 217.762C174.155 218.078 178.155 219.503 181.572 221.886C184.989 224.269 187.697 227.523 189.411 231.306C189.507 231.515 189.599 231.727 189.686 231.939C190.858 234.738 191.462 237.74 191.462 240.771Z" fill="url(#paint11_linear)"/>
<path d="M235.351 236.154C235.353 238.421 235.018 240.677 234.356 242.846H189.907C188.833 239.298 188.628 235.545 189.311 231.901C189.349 231.702 189.388 231.499 189.432 231.302C190.551 226.143 193.415 221.52 197.547 218.204C201.68 214.888 206.83 213.079 212.141 213.078C212.871 213.078 213.589 213.11 214.3 213.18C214.619 213.205 214.938 213.243 215.256 213.284C220.822 214.037 225.925 216.769 229.62 220.974C233.314 225.179 235.35 230.572 235.351 236.154Z" fill="url(#paint12_linear)"/>
<path d="M92.6973 242.85C92.7738 242.609 92.8408 242.368 92.9078 242.124C93.9649 238.195 93.9591 234.058 92.8909 230.131C91.8227 226.205 89.7301 222.628 86.8247 219.764C83.9192 216.899 80.3041 214.848 76.3449 213.818C72.3857 212.787 68.2229 212.814 64.2776 213.896C63.3538 214.148 62.4474 214.459 61.5641 214.828C56.2458 217.027 51.9384 221.11 49.477 226.285C47.0157 231.461 46.5756 237.36 48.2423 242.84H92.6973V242.85Z" fill="url(#paint13_linear)"/>
<g opacity="0.7">
<path opacity="0.7" d="M226.526 195.384C228.878 195.384 230.785 193.488 230.785 191.15C230.785 188.812 228.878 186.917 226.526 186.917C224.173 186.917 222.266 188.812 222.266 191.15C222.266 193.488 224.173 195.384 226.526 195.384Z" fill="url(#paint14_linear)"/>
</g>
<path d="M226.526 195.073C228.706 195.073 230.473 193.317 230.473 191.15C230.473 188.984 228.706 187.227 226.526 187.227C224.345 187.227 222.578 188.984 222.578 191.15C222.578 193.317 224.345 195.073 226.526 195.073Z" fill="url(#paint15_linear)"/>
<g opacity="0.7">
<path opacity="0.7" d="M246.032 236.617C248.598 236.617 250.678 234.55 250.678 232C250.678 229.45 248.598 227.383 246.032 227.383C243.467 227.383 241.387 229.45 241.387 232C241.387 234.55 243.467 236.617 246.032 236.617Z" fill="url(#paint16_linear)"/>
</g>
<path d="M246.032 236.385C248.469 236.385 250.445 234.422 250.445 232C250.445 229.578 248.469 227.614 246.032 227.614C243.595 227.614 241.619 229.578 241.619 232C241.619 234.422 243.595 236.385 246.032 236.385Z" fill="url(#paint17_linear)"/>
<g opacity="0.7">
<path opacity="0.7" d="M47.2455 210.762C50.0649 210.762 52.3504 208.491 52.3504 205.689C52.3504 202.887 50.0649 200.616 47.2455 200.616C44.4262 200.616 42.1406 202.887 42.1406 205.689C42.1406 208.491 44.4262 210.762 47.2455 210.762Z" fill="url(#paint18_linear)"/>
</g>
<path d="M47.2445 210.534C49.937 210.534 52.1198 208.365 52.1198 205.689C52.1198 203.013 49.937 200.844 47.2445 200.844C44.5519 200.844 42.3691 203.013 42.3691 205.689C42.3691 208.365 44.5519 210.534 47.2445 210.534Z" fill="url(#paint19_linear)"/>
<g opacity="0.4">
<path opacity="0.4" d="M239.564 5.52006C238.433 4.03407 237.015 2.78668 235.394 1.85055C233.534 0.788274 231.453 0.164893 229.312 0.0285073C227.171 -0.107878 225.027 0.246381 223.046 1.06395C221.065 1.88151 219.299 3.14052 217.885 4.74383C216.471 6.34715 215.446 8.25189 214.89 10.3111C214.335 12.3703 214.262 14.5289 214.679 16.6203C215.095 18.7117 215.99 20.6801 217.293 22.3735C218.597 24.0669 220.274 25.44 222.196 26.3869C224.118 27.3339 226.234 27.8293 228.379 27.835C228.676 27.835 228.972 27.835 229.265 27.8064C231.789 27.6482 234.223 26.8135 236.308 25.391C238.393 23.9685 240.052 22.0113 241.107 19.7273C242.163 17.4434 242.576 14.9179 242.303 12.4192C242.031 9.92046 241.082 7.54182 239.558 5.5359L239.564 5.52006Z" fill="url(#paint20_linear)"/>
</g>
<path opacity="0.2" d="M241.62 13.9015C241.62 17.246 240.339 20.4651 238.036 22.9039C235.733 25.3427 232.581 26.8181 229.223 27.03C228.945 27.049 228.665 27.0585 228.384 27.0585C226.355 27.0573 224.353 26.5923 222.533 25.6994C220.713 24.8065 219.124 23.5096 217.889 21.909C216.654 20.3084 215.806 18.447 215.41 16.4687C215.015 14.4904 215.082 12.4482 215.607 10.4999C216.133 8.55165 217.102 6.74955 218.44 5.23293C219.778 3.71631 221.449 2.5258 223.324 1.75344C225.199 0.981084 227.227 0.647566 229.252 0.778675C231.278 0.909783 233.245 1.502 235.004 2.50956C236.537 3.39458 237.878 4.57413 238.948 5.97943C240.686 8.25904 241.624 11.0416 241.62 13.9015Z" fill="#0FB953"/>
<path opacity="0.05" d="M225.126 5.55808C224.442 5.85122 223.782 6.1966 223.152 6.59112C222.731 6.82303 222.37 7.14836 222.097 7.54177C221.963 7.73907 221.89 7.97048 221.885 8.20824C221.88 8.446 221.945 8.68 222.071 8.88218C222.39 9.31948 223.028 9.3892 223.56 9.41772C224.049 9.52101 224.558 9.49329 225.033 9.3374C225.508 9.18151 225.933 8.90303 226.264 8.53044L227.402 7.50374C227.798 7.14883 228.231 6.65766 228.059 6.15699C227.928 5.77356 227.495 5.5866 227.103 5.52322C226.124 5.33186 225.109 5.50921 224.255 6.02073" fill="#F55F44"/>
<path opacity="0.05" d="M220.371 19.786C220.755 19.786 221.066 19.4767 221.066 19.0952C221.066 18.7137 220.755 18.4044 220.371 18.4044C219.987 18.4044 219.676 18.7137 219.676 19.0952C219.676 19.4767 219.987 19.786 220.371 19.786Z" fill="#F55F44"/>
<path opacity="0.05" d="M234.538 17.2479C235.949 17.2479 237.092 16.1115 237.092 14.7096C237.092 13.3078 235.949 12.1714 234.538 12.1714C233.128 12.1714 231.984 13.3078 231.984 14.7096C231.984 16.1115 233.128 17.2479 234.538 17.2479Z" fill="#F55F44"/>
<path opacity="0.05" d="M238.95 5.97644C238.94 6.63966 238.739 7.28605 238.37 7.83878C238.001 8.3915 237.48 8.8273 236.869 9.09437C236.258 9.36145 235.583 9.44857 234.923 9.34537C234.264 9.24217 233.648 8.953 233.15 8.51223C232.651 8.07146 232.29 7.49763 232.11 6.85895C231.93 6.22027 231.938 5.54362 232.133 4.90941C232.329 4.27521 232.704 3.71014 233.213 3.28138C233.722 2.85261 234.344 2.57819 235.006 2.49072C236.541 3.3804 237.882 4.56542 238.95 5.97644Z" fill="#F55F44"/>
<path opacity="0.05" d="M239.206 21.4782C238.068 23.0884 236.579 24.4234 234.851 25.3844C233.123 26.3455 231.199 26.9079 229.223 27.03C229.207 26.8494 229.197 26.6656 229.197 26.4818C229.198 25.3272 229.521 24.1954 230.131 23.2126C230.74 22.2298 231.613 21.4346 232.651 20.9158C233.689 20.3969 234.851 20.1748 236.009 20.2741C237.166 20.3734 238.273 20.7903 239.206 21.4782Z" fill="#F55F44"/>
<path opacity="0.25" d="M230.474 110.836C231.372 110.836 232.1 110.113 232.1 109.22C232.1 108.327 231.372 107.604 230.474 107.604C229.576 107.604 228.848 108.327 228.848 109.22C228.848 110.113 229.576 110.836 230.474 110.836Z" fill="#535461"/>
<path opacity="0.25" d="M13.6496 153.299C14.5477 153.299 15.2758 152.575 15.2758 151.682C15.2758 150.79 14.5477 150.066 13.6496 150.066C12.7515 150.066 12.0234 150.79 12.0234 151.682C12.0234 152.575 12.7515 153.299 13.6496 153.299Z" fill="#535461"/>
<path opacity="0.25" d="M293.288 162.488C294.186 162.488 294.914 161.765 294.914 160.872C294.914 159.979 294.186 159.256 293.288 159.256C292.39 159.256 291.662 159.979 291.662 160.872C291.662 161.765 292.39 162.488 293.288 162.488Z" fill="#535461"/>
<path opacity="0.25" d="M92.0637 85.9101C92.9618 85.9101 93.6898 85.1865 93.6898 84.294C93.6898 83.4014 92.9618 82.6779 92.0637 82.6779C91.1656 82.6779 90.4375 83.4014 90.4375 84.294C90.4375 85.1865 91.1656 85.9101 92.0637 85.9101Z" fill="#535461"/>
<path opacity="0.25" d="M86.7219 48.7525C87.62 48.7525 88.348 48.0289 88.348 47.1364C88.348 46.2438 87.62 45.5203 86.7219 45.5203C85.8238 45.5203 85.0957 46.2438 85.0957 47.1364C85.0957 48.0289 85.8238 48.7525 86.7219 48.7525Z" fill="#535461"/>
<path opacity="0.25" d="M40.7414 122.374C41.6395 122.374 42.3676 121.65 42.3676 120.758C42.3676 119.865 41.6395 119.142 40.7414 119.142C39.8433 119.142 39.1152 119.865 39.1152 120.758C39.1152 121.65 39.8433 122.374 40.7414 122.374Z" fill="#535461"/>
<path opacity="0.25" d="M270.766 122.656H269.319V121.22H268.729V122.656H267.281V123.245H268.729V124.681H269.319V123.245H270.766V122.656Z" fill="#535461"/>
<path opacity="0.25" d="M295.001 72.9053H293.553V71.4698H292.963V72.9053H291.516V73.4947H292.963V74.9302H293.553V73.4947H295.001V72.9053Z" fill="#535461"/>
<path opacity="0.25" d="M191.807 45.1114H190.36V43.6727H189.77V45.1114H188.322V45.6976H189.77V47.1363H190.36V45.6976H191.807V45.1114Z" fill="#535461"/>
<path opacity="0.25" d="M254.974 114.579H253.526V113.143H252.937V114.579H251.492V115.168H252.937V116.604H253.526V115.168H254.974V114.579Z" fill="#535461"/>
<path opacity="0.25" d="M202.025 162.352H200.58V160.917H199.991V162.352H198.543V162.941H199.991V164.377H200.58V162.941H202.025V162.352Z" fill="#535461"/>
<path opacity="0.25" d="M53.864 63.8044H52.4164V62.3689H51.8265V63.8044H50.3789V64.3906H51.8265V65.8292H52.4164V64.3906H53.864V63.8044Z" fill="#535461"/>
<path opacity="0.25" d="M3.48511 82.5004H2.0375V81.0649H1.44761V82.5004H0V83.0867H1.44761V84.5253H2.0375V83.0867H3.48511V82.5004Z" fill="#535461"/>
<path opacity="0.25" d="M73.8354 141.352H72.3878V139.913H71.7979V141.352H70.3535V141.938H71.7979V143.377H72.3878V141.938H73.8354V141.352Z" fill="#535461"/>
<path d="M246.032 236.385C248.469 236.385 250.445 234.422 250.445 232C250.445 229.578 248.469 227.614 246.032 227.614C243.595 227.614 241.619 229.578 241.619 232C241.619 234.422 243.595 236.385 246.032 236.385Z" fill="url(#paint21_linear)"/>
<g opacity="0.4">
<path opacity="0.4" d="M85.7587 110.361C85.22 109.652 84.5447 109.058 83.7723 108.612C82.8864 108.099 81.8936 107.796 80.8709 107.727C79.8483 107.658 78.8233 107.823 77.8756 108.212C76.9278 108.6 76.0828 109.199 75.4061 109.965C74.7295 110.73 74.2393 111.64 73.9738 112.624C73.7083 113.607 73.6745 114.639 73.875 115.638C74.0756 116.637 74.5051 117.577 75.1303 118.384C75.7554 119.191 76.5594 119.844 77.4797 120.293C78.4 120.741 79.412 120.973 80.437 120.97C80.5773 120.97 80.7208 120.97 80.8579 120.97C82.0594 120.894 83.2178 120.496 84.21 119.818C85.2023 119.14 85.9915 118.208 86.494 117.121C86.9964 116.033 87.1934 114.831 87.0639 113.642C86.9345 112.452 86.4835 111.319 85.7587 110.364V110.361Z" fill="url(#paint22_linear)"/>
</g>
<path opacity="0.2" d="M86.7379 114.354C86.7379 115.947 86.1273 117.48 85.0303 118.641C83.9333 119.802 82.4323 120.505 80.8327 120.606C80.702 120.606 80.568 120.606 80.4341 120.606C79.4677 120.605 78.5144 120.383 77.648 119.958C76.7816 119.532 76.0252 118.914 75.4373 118.152C74.8494 117.39 74.4457 116.503 74.2575 115.561C74.0692 114.619 74.1014 113.647 74.3516 112.719C74.6018 111.791 75.0633 110.933 75.7004 110.211C76.3374 109.489 77.1331 108.922 78.0258 108.554C78.9185 108.186 79.8844 108.027 80.8488 108.089C81.8132 108.152 82.7502 108.433 83.5876 108.913C84.3174 109.334 84.9558 109.895 85.4657 110.564C86.2967 111.654 86.7438 112.986 86.7379 114.354Z" fill="#0FB953"/>
<path opacity="0.1" d="M78.8815 110.38C78.5502 110.518 78.2303 110.682 77.9249 110.871C77.7248 110.979 77.5524 111.132 77.4211 111.318C77.3604 111.412 77.3281 111.522 77.3281 111.635C77.3281 111.747 77.3604 111.857 77.4211 111.951C77.5138 112.042 77.625 112.111 77.7472 112.155C77.8694 112.199 77.9996 112.216 78.129 112.205C78.3601 112.252 78.5996 112.238 78.8234 112.164C79.0473 112.09 79.2477 111.959 79.4044 111.783L79.9465 111.295C80.1346 111.124 80.3419 110.893 80.2653 110.662C80.2226 110.574 80.1579 110.499 80.0775 110.444C79.9971 110.388 79.9036 110.354 79.8062 110.345C79.3404 110.254 78.8575 110.339 78.451 110.582" fill="#F55F44"/>
<path opacity="0.1" d="M76.6187 117.155C76.8019 117.155 76.9503 117.007 76.9503 116.825C76.9503 116.643 76.8019 116.496 76.6187 116.496C76.4356 116.496 76.2871 116.643 76.2871 116.825C76.2871 117.007 76.4356 117.155 76.6187 117.155Z" fill="#F55F44"/>
<path opacity="0.1" d="M83.3645 115.948C84.0372 115.948 84.5826 115.406 84.5826 114.737C84.5826 114.069 84.0372 113.527 83.3645 113.527C82.6918 113.527 82.1465 114.069 82.1465 114.737C82.1465 115.406 82.6918 115.948 83.3645 115.948Z" fill="#F55F44"/>
<path opacity="0.1" d="M85.4664 110.592C85.4623 110.908 85.3672 111.216 85.1921 111.479C85.0171 111.742 84.7697 111.95 84.4792 112.078C84.1887 112.206 83.8674 112.248 83.5535 112.199C83.2397 112.151 82.9465 112.014 82.7087 111.804C82.471 111.595 82.2988 111.322 82.2126 111.018C82.1264 110.715 82.1298 110.392 82.2225 110.091C82.3152 109.789 82.4931 109.519 82.7353 109.315C82.9774 109.111 83.2735 108.98 83.5883 108.938C84.3184 109.36 84.9568 109.923 85.4664 110.592Z" fill="#F55F44"/>
<path opacity="0.1" d="M85.5901 117.963C85.0481 118.73 84.3394 119.366 83.5164 119.824C82.6934 120.282 81.7773 120.55 80.836 120.609C80.836 120.523 80.836 120.435 80.836 120.346C80.8342 119.793 80.9875 119.251 81.2788 118.781C81.5701 118.31 81.9877 117.93 82.4846 117.682C82.9816 117.434 83.5383 117.33 84.0919 117.379C84.6456 117.429 85.1744 117.631 85.6188 117.963H85.5901Z" fill="#F55F44"/>
<g opacity="0.1">
<path opacity="0.1" d="M157.385 64.0104H124.543V65.2779H157.385V64.0104Z" fill="black"/>
</g>
<defs>
<linearGradient id="paint0_linear" x1="141.299" y1="219.917" x2="141.299" y2="15.2103" gradientUnits="userSpaceOnUse">
<stop stop-color="#808080" stop-opacity="0.25"/>
<stop offset="0.54" stop-color="#808080" stop-opacity="0.12"/>
<stop offset="1" stop-color="#808080" stop-opacity="0.1"/>
</linearGradient>
<linearGradient id="paint1_linear" x1="110.292" y1="195.564" x2="110.292" y2="215.411" gradientUnits="userSpaceOnUse">
<stop stop-color="#E0E0E0"/>
<stop offset="0.31" stop-color="#FCCC63"/>
<stop offset="0.77" stop-color="#F55F44"/>
</linearGradient>
<linearGradient id="paint2_linear" x1="3226.6" y1="12442.8" x2="3226.6" y2="13685.6" gradientUnits="userSpaceOnUse">
<stop stop-color="#E0E0E0"/>
<stop offset="0.31" stop-color="#FCCC63"/>
<stop offset="0.77" stop-color="#F55F44"/>
</linearGradient>
<linearGradient id="paint3_linear" x1="3587.1" y1="12442.8" x2="3587.1" y2="13685.6" gradientUnits="userSpaceOnUse">
<stop stop-color="#E0E0E0"/>
<stop offset="0.31" stop-color="#FCCC63"/>
<stop offset="0.77" stop-color="#F55F44"/>
</linearGradient>
<linearGradient id="paint4_linear" x1="4168.94" y1="12442.8" x2="4168.94" y2="13685.6" gradientUnits="userSpaceOnUse">
<stop stop-color="#E0E0E0"/>
<stop offset="0.31" stop-color="#FCCC63"/>
<stop offset="0.77" stop-color="#F55F44"/>
</linearGradient>
<linearGradient id="paint5_linear" x1="113713" y1="49727.4" x2="113713" y2="38617.4" gradientUnits="userSpaceOnUse">
<stop stop-color="#808080" stop-opacity="0.25"/>
<stop offset="0.54" stop-color="#808080" stop-opacity="0.12"/>
<stop offset="1" stop-color="#808080" stop-opacity="0.1"/>
</linearGradient>
<linearGradient id="paint6_linear" x1="86.9548" y1="185.843" x2="86.9548" y2="232" gradientUnits="userSpaceOnUse">
<stop stop-color="#F2F2F2"/>
<stop offset="0.31" stop-color="#E6E6E6"/>
<stop offset="0.77" stop-color="#CCCCCC"/>
</linearGradient>
<linearGradient id="paint7_linear" x1="13912.5" y1="30867.3" x2="13912.5" y2="38928.9" gradientUnits="userSpaceOnUse">
<stop stop-color="#F2F2F2"/>
<stop offset="0.31" stop-color="#E6E6E6"/>
<stop offset="0.77" stop-color="#CCCCCC"/>
</linearGradient>
<linearGradient id="paint8_linear" x1="30498.8" y1="30867.3" x2="30498.8" y2="38928.9" gradientUnits="userSpaceOnUse">
<stop stop-color="#F2F2F2"/>
<stop offset="0.31" stop-color="#E6E6E6"/>
<stop offset="0.77" stop-color="#CCCCCC"/>
</linearGradient>
<linearGradient id="paint9_linear" x1="27681.4" y1="28848.8" x2="27681.4" y2="35572" gradientUnits="userSpaceOnUse">
<stop stop-color="#F2F2F2"/>
<stop offset="0.31" stop-color="#E6E6E6"/>
<stop offset="0.77" stop-color="#CCCCCC"/>
</linearGradient>
<linearGradient id="paint10_linear" x1="26821.7" y1="29442.1" x2="26821.7" y2="34952.6" gradientUnits="userSpaceOnUse">
<stop stop-color="#F2F2F2"/>
<stop offset="0.31" stop-color="#E6E6E6"/>
<stop offset="0.77" stop-color="#CCCCCC"/>
</linearGradient>
<linearGradient id="paint11_linear" x1="31034.2" y1="19130.8" x2="31034.2" y2="21127.5" gradientUnits="userSpaceOnUse">
<stop stop-color="#F2F2F2"/>
<stop offset="0.31" stop-color="#E6E6E6"/>
<stop offset="0.77" stop-color="#CCCCCC"/>
</linearGradient>
<linearGradient id="paint12_linear" x1="37461.7" y1="22164.3" x2="37461.7" y2="24961.3" gradientUnits="userSpaceOnUse">
<stop stop-color="#F2F2F2"/>
<stop offset="0.31" stop-color="#E6E6E6"/>
<stop offset="0.77" stop-color="#CCCCCC"/>
</linearGradient>
<linearGradient id="paint13_linear" x1="16694.8" y1="22177.1" x2="16694.8" y2="24975.7" gradientUnits="userSpaceOnUse">
<stop stop-color="#F2F2F2"/>
<stop offset="0.31" stop-color="#E6E6E6"/>
<stop offset="0.77" stop-color="#CCCCCC"/>
</linearGradient>
<linearGradient id="paint14_linear" x1="6275" y1="5408" x2="6275" y2="5181.76" gradientUnits="userSpaceOnUse">
<stop stop-color="#808080" stop-opacity="0.25"/>
<stop offset="0.54" stop-color="#808080" stop-opacity="0.12"/>
<stop offset="1" stop-color="#808080" stop-opacity="0.1"/>
</linearGradient>
<linearGradient id="paint15_linear" x1="5831.35" y1="4823.36" x2="5831.35" y2="5017.63" gradientUnits="userSpaceOnUse">
<stop stop-color="#F2F2F2"/>
<stop offset="0.31" stop-color="#E6E6E6"/>
<stop offset="0.77" stop-color="#CCCCCC"/>
</linearGradient>
<linearGradient id="paint16_linear" x1="7410.8" y1="7122.84" x2="7410.8" y2="6853.86" gradientUnits="userSpaceOnUse">
<stop stop-color="#808080" stop-opacity="0.25"/>
<stop offset="0.54" stop-color="#808080" stop-opacity="0.12"/>
<stop offset="1" stop-color="#808080" stop-opacity="0.1"/>
</linearGradient>
<linearGradient id="paint17_linear" x1="246.032" y1="227.614" x2="246.032" y2="236.385" gradientUnits="userSpaceOnUse">
<stop stop-color="#F2F2F2"/>
<stop offset="0.31" stop-color="#E0E0E0"/>
<stop offset="0.77" stop-color="#B3B3B3"/>
</linearGradient>
<linearGradient id="paint18_linear" x1="1554.92" y1="6949.73" x2="1554.92" y2="6624.84" gradientUnits="userSpaceOnUse">
<stop stop-color="#808080" stop-opacity="0.25"/>
<stop offset="0.54" stop-color="#808080" stop-opacity="0.12"/>
<stop offset="1" stop-color="#808080" stop-opacity="0.1"/>
</linearGradient>
<linearGradient id="paint19_linear" x1="1487.12" y1="6343.14" x2="1487.12" y2="6639.57" gradientUnits="userSpaceOnUse">
<stop stop-color="#F2F2F2"/>
<stop offset="0.31" stop-color="#E6E6E6"/>
<stop offset="0.77" stop-color="#CCCCCC"/>
</linearGradient>
<linearGradient id="paint20_linear" x1="24094" y1="4252.9" x2="24094" y2="1807.88" gradientUnits="userSpaceOnUse">
<stop stop-color="#808080" stop-opacity="0.25"/>
<stop offset="0.54" stop-color="#808080" stop-opacity="0.12"/>
<stop offset="1" stop-color="#808080" stop-opacity="0.1"/>
</linearGradient>
<linearGradient id="paint21_linear" x1="7051.83" y1="6528.4" x2="7051.83" y2="6771.19" gradientUnits="userSpaceOnUse">
<stop stop-color="#F2F2F2"/>
<stop offset="0.31" stop-color="#E6E6E6"/>
<stop offset="0.77" stop-color="#CCCCCC"/>
</linearGradient>
<linearGradient id="paint22_linear" x1="5278.37" y1="6031.43" x2="5278.37" y2="5476.7" gradientUnits="userSpaceOnUse">
<stop stop-color="#808080" stop-opacity="0.25"/>
<stop offset="0.54" stop-color="#808080" stop-opacity="0.12"/>
<stop offset="1" stop-color="#808080" stop-opacity="0.1"/>
</linearGradient>
</defs>
</svg>
