<svg width="278" height="238" viewBox="0 0 278 238" fill="none" xmlns="http://www.w3.org/2000/svg">
<g clip-path="url(#clip0)">
<path d="M67.9447 155.173L67.4231 154.835C69.5585 151.55 70.4569 147.615 69.9581 143.731C69.4593 139.847 67.5958 136.265 64.6996 133.625C64.4477 133.396 64.1878 133.173 63.928 132.95C63.1664 132.346 62.4776 131.655 61.8755 130.892C61.1385 129.882 60.5781 128.314 61.2153 126.941L61.7794 127.202C61.2557 128.33 61.7453 129.659 62.378 130.526C62.9516 131.251 63.6077 131.906 64.3331 132.479C64.5977 132.706 64.8623 132.933 65.1189 133.167C68.1238 135.906 70.0573 139.622 70.5748 143.652C71.0923 147.682 70.1603 151.765 67.9447 155.173V155.173Z" fill="#D0CDE1"/>
<path d="M267.056 229.572L266.534 229.234C268.67 225.949 269.568 222.015 269.069 218.13C268.571 214.246 266.707 210.665 263.811 208.025C263.558 207.795 263.298 207.571 263.038 207.348C262.277 206.744 261.589 206.054 260.987 205.291C260.25 204.282 259.689 202.713 260.327 201.34L260.891 201.601C260.367 202.73 260.857 204.058 261.49 204.926C262.063 205.65 262.718 206.305 263.443 206.877C263.708 207.104 263.973 207.332 264.23 207.566C267.235 210.306 269.169 214.022 269.686 218.052C270.204 222.082 269.272 226.164 267.056 229.572H267.056Z" fill="#D0CDE1"/>
<path d="M152.395 211.736C149.361 204.858 143.98 199.278 137.211 195.992C130.441 192.705 122.723 191.925 115.432 193.789C114.801 193.951 114.161 194.135 113.542 194.314C111.813 194.812 110.026 195.327 108.187 195.418C105.891 195.53 102.914 194.819 101.455 192.479L101.983 192.151C103.299 194.263 106.037 194.904 108.157 194.798C109.923 194.71 111.675 194.205 113.369 193.717C113.993 193.537 114.638 193.351 115.277 193.188C122.712 191.287 130.581 192.082 137.483 195.433C144.384 198.784 149.871 204.473 152.964 211.486L152.395 211.736Z" fill="#575A89"/>
<path d="M152.94 93.6481L152.329 93.5353C153.696 86.1443 152.391 78.5086 148.647 71.9885C144.903 65.4683 138.962 60.4871 131.883 57.9323C131.271 57.7115 130.637 57.5042 130.025 57.3038C128.315 56.7446 126.547 56.1663 124.976 55.2087C123.012 54.0116 120.954 51.7511 121.067 48.9966L121.688 49.0221C121.586 51.5073 123.487 53.5736 125.3 54.6787C126.81 55.5987 128.543 56.1655 130.218 56.7138C130.835 56.9156 131.473 57.1243 132.094 57.3484C139.312 59.9532 145.369 65.0319 149.186 71.6796C153.004 78.3274 154.334 86.1124 152.94 93.6481Z" fill="#575A89"/>
<path d="M75.1334 121.557C72.5111 126.387 67.5404 128.558 63.483 126.895C63.4254 126.873 63.3673 126.848 63.311 126.823L63.2464 127.047C63.2442 127.055 63.2414 127.063 63.2378 127.071C63.2001 127.204 63.1313 127.326 63.037 127.427C62.9427 127.527 62.8257 127.604 62.6958 127.651C62.5658 127.697 62.4266 127.712 62.2896 127.694C62.1527 127.677 62.022 127.626 61.9084 127.548L60.8682 126.866C60.7498 126.788 60.6486 126.686 60.5707 126.568C60.4928 126.449 60.4398 126.316 60.4149 126.177C60.39 126.037 60.3937 125.894 60.4259 125.756C60.458 125.617 60.5179 125.487 60.6019 125.373L60.617 125.354L60.7914 125.132L60.8302 125.081C57.7676 121.9 57.2325 116.225 59.7941 111.507C62.7004 106.154 68.4896 104.065 72.7259 106.84C76.9622 109.616 78.0397 116.205 75.1334 121.557Z" fill="#D0CDE1"/>
<path opacity="0.2" d="M65.5198 109.428C66.7855 108.689 67.5944 107.719 67.3265 107.262C67.0585 106.804 65.8153 107.032 64.5496 107.771C63.2839 108.51 62.475 109.48 62.7429 109.937C63.0109 110.395 64.2541 110.167 65.5198 109.428Z" fill="white"/>
<path d="M63.2466 127.047C63.2444 127.055 63.2415 127.063 63.238 127.071L60.6172 125.354L60.7917 125.132L63.4832 126.895C63.4256 126.873 63.3675 126.848 63.3112 126.823L63.2466 127.047Z" fill="#575A89"/>
<path d="M139 238C215.768 238 278 234.1 278 229.288C278 224.477 215.768 220.576 139 220.576C62.2324 220.576 0 224.477 0 229.288C0 234.1 62.2324 238 139 238Z" fill="#D0CDE1"/>
<path d="M227.963 212.535L228.305 219.022L235.485 218.339L234.801 211.852L227.963 212.535Z" fill="#FBBEBE"/>
<path d="M200.27 205.025L200.612 211.511L207.791 210.828L207.108 204.342L200.27 205.025Z" fill="#FBBEBE"/>
<path d="M232.921 124.284L206.936 128.722L205.227 175.835L198.389 205.878L209.329 210.658L219.928 180.956L223.689 154.668L226.424 180.956L226.766 214.071L243.519 213.047L239.514 148.199C238.999 139.858 236.754 131.714 232.921 124.284V124.284Z" fill="#2F2E41"/>
<path d="M228.989 216.632C228.989 216.632 226.596 213.901 226.596 214.925C226.596 215.949 225.229 225.85 225.229 225.85C225.229 225.85 234.46 228.581 234.46 230.288C234.46 231.995 247.794 234.726 247.452 231.312C247.11 227.898 235.486 214.925 235.486 214.925C235.486 214.925 230.699 214.242 228.989 216.632Z" fill="#2F2E41"/>
<path d="M201.711 209.162C201.711 209.162 200.982 205.607 200.475 206.497C199.968 207.388 193.879 215.32 193.879 215.32C193.879 215.32 200.552 222.25 199.707 223.734C198.862 225.218 209.102 234.172 210.495 231.036C211.888 227.899 208.203 210.884 208.203 210.884C208.203 210.884 204.38 207.929 201.711 209.162Z" fill="#2F2E41"/>
<path d="M201.188 86.6495L220.116 88.4567L226.425 71.288L208.305 66.9295L201.188 86.6495Z" fill="#2F2E41"/>
<path d="M216.681 83.1457C221.968 83.1457 226.254 78.8659 226.254 73.5866C226.254 68.3072 221.968 64.0275 216.681 64.0275C211.393 64.0275 207.107 68.3072 207.107 73.5866C207.107 78.8659 211.393 83.1457 216.681 83.1457Z" fill="#FBBEBE"/>
<path d="M211.209 79.3904C211.209 79.3904 211.209 85.8769 206.081 88.6081C200.952 91.3393 218.389 94.4118 218.389 94.4118L220.099 88.6081C220.099 88.6081 214.97 86.2183 219.415 80.756L211.209 79.3904Z" fill="#FBBEBE"/>
<path d="M219.415 86.901C219.415 86.901 213.153 90.7739 207.908 87.3012L205.739 86.901L199.243 88.2666L196.166 99.8741L207.791 128.893C207.791 128.893 227.963 132.307 232.065 124.796L229.672 94.0704L223.176 86.2183L219.415 86.901Z" fill="#575A89"/>
<path d="M222.492 87.2424L233.774 71.5382L232.749 69.8313L218.047 62.3204V57.5409L240.954 63.6861L242.504 66.1384L228.988 95.4361L222.492 87.2424Z" fill="#575A89"/>
<path d="M199.926 88.6081L199.243 88.2666L182.148 87.5839L195.14 76.3177L191.037 71.1967L171.549 85.8767V89.2908L199.243 100.898L199.926 88.6081Z" fill="#575A89"/>
<path d="M190.867 72.7331L193.26 71.3675C193.26 71.3675 198.389 64.5395 200.44 67.2707C202.492 70.0019 195.654 75.1228 195.654 75.1228L191.893 76.4884L190.867 72.7331Z" fill="#FBBEBE"/>
<path d="M219.072 58.5651L215.311 56.5167C215.311 56.5167 204.029 57.5409 205.396 59.9307C206.764 62.3205 214.628 60.2721 214.628 60.2721L219.072 61.6377V58.5651Z" fill="#FBBEBE"/>
<path d="M209.329 64.3606C209.329 64.3606 204.935 65.8232 204.712 71.5996C204.689 72.5235 204.792 73.4461 205.017 74.3425C205.264 75.3896 205.423 77.6428 203.506 80.5871C202.222 82.531 201.049 84.5458 199.992 86.6219L199.979 86.6494L204.805 87.2517L205.831 79.2636C206.329 75.3907 207.394 71.6121 208.994 68.0493L209.028 67.975C209.028 67.975 211.139 71.8906 215.362 71.8906L213.854 70.3846C213.854 70.3846 220.49 73.0954 222.903 73.0954C222.903 73.0954 224.713 74.3002 222.903 76.1074C221.094 77.9146 217.474 82.1314 219.585 85.4446C221.697 88.7578 219.887 89.6614 219.887 89.6614L223.205 87.8542L224.713 86.9506V88.1553L232.556 87.2517C232.556 87.2517 234.668 86.9505 230.143 81.8301C230.143 81.8301 228.948 79.8417 229.471 78.1267C229.9 76.8234 230.013 75.4367 229.8 74.0812C228.786 68.4347 224.81 57.2087 209.329 64.3606Z" fill="#2F2E41"/>
<path d="M154.83 220.65C154.792 220.589 153.912 219.122 153.607 216.074C153.327 213.277 153.507 208.563 155.955 201.988C160.593 189.532 154.886 179.482 154.828 179.382L155.109 179.219C156.208 181.318 157.002 183.563 157.467 185.887C158.616 191.296 158.197 196.921 156.26 202.102C151.63 214.536 155.072 220.423 155.107 220.481L154.83 220.65Z" fill="#D0CDE1"/>
<path d="M153.017 178.65C154.186 178.65 155.133 177.705 155.133 176.538C155.133 175.372 154.186 174.426 153.017 174.426C151.849 174.426 150.902 175.372 150.902 176.538C150.902 177.705 151.849 178.65 153.017 178.65Z" fill="#D0CDE1"/>
<path d="M159.687 186.448C160.856 186.448 161.803 185.503 161.803 184.336C161.803 183.17 160.856 182.224 159.687 182.224C158.519 182.224 157.572 183.17 157.572 184.336C157.572 185.503 158.519 186.448 159.687 186.448Z" fill="#D0CDE1"/>
<path d="M155.133 191.647C156.301 191.647 157.248 190.702 157.248 189.535C157.248 188.369 156.301 187.423 155.133 187.423C153.965 187.423 153.018 188.369 153.018 189.535C153.018 190.702 153.965 191.647 155.133 191.647Z" fill="#D0CDE1"/>
<path d="M160.666 196.034C161.834 196.034 162.781 195.088 162.781 193.922C162.781 192.755 161.834 191.81 160.666 191.81C159.498 191.81 158.551 192.755 158.551 193.922C158.551 195.088 159.498 196.034 160.666 196.034Z" fill="#D0CDE1"/>
<path d="M153.506 202.857C154.674 202.857 155.621 201.912 155.621 200.745C155.621 199.579 154.674 198.633 153.506 198.633C152.338 198.633 151.391 199.579 151.391 200.745C151.391 201.912 152.338 202.857 153.506 202.857Z" fill="#D0CDE1"/>
<path d="M156.11 220.728C156.11 220.728 153.995 215.529 160.34 211.63L156.11 220.728Z" fill="#D0CDE1"/>
<path d="M153.509 220.634C153.509 220.634 152.546 215.105 145.096 215.153L153.509 220.634Z" fill="#D0CDE1"/>
<path d="M28.5824 163.183L30.4479 177.154C30.4479 177.154 24.5405 194.54 30.7588 211.304L32.9352 223.412H41.019L41.9517 219.376C41.9517 219.376 38.2207 216.272 38.2207 209.131L41.3299 177.154L41.9517 160.7L28.5824 163.183Z" fill="#A0616A"/>
<path d="M35.7336 222.17C35.7336 222.17 32.6245 220.308 32.3136 222.17C32.0027 224.033 28.2717 232.726 31.6918 232.726C35.1118 232.726 40.7083 231.174 40.7083 231.174C40.7083 231.174 44.1284 228.69 48.1703 228.69C52.2122 228.69 53.1449 223.723 52.5231 222.481C51.9012 221.239 50.3467 219.376 48.7921 219.687C47.6627 219.885 46.5187 219.989 45.372 219.997L40.464 217.561C40.464 217.561 39.7755 222.481 35.7336 222.17Z" fill="#2F2E41"/>
<path d="M48.4199 160.443L56.4738 172.017C56.4738 172.017 59.1773 190.177 72.3818 202.25L79.8596 212.026L87.0497 208.337L86.0319 204.322C86.0319 204.322 81.2924 203.263 78.024 196.912L66.1528 167.051L59.1744 152.132L48.4199 160.443Z" fill="#A0616A"/>
<path d="M81.7799 209.645C81.7799 209.645 78.1619 209.407 78.7379 211.206C79.314 213.004 79.9744 222.439 83.0164 220.878C86.0583 219.317 90.3256 215.382 90.3256 215.382C90.3256 215.382 92.2307 211.613 95.8257 209.768C99.4208 207.923 97.9767 203.079 96.8552 202.259C95.7337 201.438 93.4984 200.491 92.2578 201.476C91.3442 202.168 90.3742 202.783 89.3579 203.313L83.8773 203.386C83.8773 203.386 85.517 208.076 81.7799 209.645Z" fill="#2F2E41"/>
<path d="M38.065 79.2043C42.873 79.2043 46.7706 75.3123 46.7706 70.5114C46.7706 65.7105 42.873 61.8186 38.065 61.8186C33.257 61.8186 29.3594 65.7105 29.3594 70.5114C29.3594 75.3123 33.257 79.2043 38.065 79.2043Z" fill="#A0616A"/>
<path d="M31.3796 74.3922L24.2285 84.0164L32.9341 87.121L36.976 78.1177L31.3796 74.3922Z" fill="#A0616A"/>
<path d="M44.128 87.4313L43.77 87.1013C42.6159 86.0376 41.2432 85.2382 39.7477 84.759C38.2522 84.2797 36.67 84.1322 35.1115 84.3268C35.1115 84.3268 35.6403 80.1325 26.8257 80.5221L22.6749 84.0163C22.6749 84.0163 16.9229 89.7598 18.4775 98.4526C20.0321 107.145 20.1876 129.033 20.1876 129.033L24.8513 167.219C24.8513 167.219 59.9847 165.667 66.5139 151.386L46.6154 109.784L44.128 87.4313Z" fill="#2F2E41"/>
<path d="M36.0449 96.7451L39.465 115.373L53.7671 138.967C53.7671 138.967 53.7671 150.144 59.6745 148.902C65.5819 147.66 59.0527 137.415 59.0527 137.415L46.3051 112.268L43.8178 96.7451H36.0449Z" fill="#A0616A"/>
<path d="M35.1113 88.9838L35.7332 99.5394L45.37 98.594L43.817 88.0524L35.1113 88.9838Z" fill="#2F2E41"/>
<path d="M47.2192 68.0088C47.2192 68.0088 52.3558 58.1417 40.2358 57.5551C40.2358 57.5551 32.9931 53.2881 26.8837 62.0543L20.5703 71.2766L22.0779 71.0539L22.194 72.5472L24.0412 73.808L25.547 72.4002L25.1981 74.6518L41.267 82.4212C41.267 82.4212 35.4174 75.2738 38.2033 67.3243L39.0747 69.3469L47.2192 68.0088Z" fill="#2F2E41"/>
<path d="M132.632 168.491C129.045 182.068 117.907 191.171 106.683 190.422C106.524 190.414 106.363 190.401 106.206 190.386L106.182 190.97C106.182 190.992 106.18 191.014 106.176 191.036C106.153 191.393 106.051 191.741 105.877 192.054C105.704 192.367 105.463 192.638 105.172 192.847C104.881 193.056 104.547 193.198 104.195 193.263C103.842 193.328 103.48 193.314 103.133 193.223L100.097 192.423C99.755 192.334 99.4369 192.171 99.1647 191.946C98.8925 191.721 98.6727 191.439 98.5207 191.12C98.3687 190.802 98.2881 190.454 98.2845 190.101C98.281 189.748 98.3545 189.399 98.5001 189.078L98.5263 189.021L98.8263 188.353L98.8923 188.202C89.2234 183.051 84.3537 169.959 87.8573 156.697C91.8325 141.65 105.076 132.093 117.442 135.35C129.807 138.607 136.607 153.444 132.632 168.491Z" fill="#0FB953"/>
<path opacity="0.2" d="M100.886 147.279C103.618 144.53 105.086 141.56 104.164 140.647C103.242 139.733 100.28 141.222 97.5472 143.972C94.8147 146.722 93.3469 149.691 94.2688 150.604C95.1907 151.518 98.1531 150.029 100.886 147.279Z" fill="white"/>
<path d="M106.182 190.97C106.181 190.992 106.179 191.014 106.175 191.036L98.5254 189.021L98.8254 188.353L106.682 190.422C106.523 190.414 106.362 190.401 106.205 190.386L106.182 190.97Z" fill="#575A89"/>
<path d="M194.79 30.9795C205.566 38.3751 209.855 50.6933 205.419 59.9118C205.358 60.0429 205.293 60.1747 205.227 60.3021L205.734 60.5099C205.754 60.5172 205.772 60.526 205.79 60.5362C206.094 60.6605 206.364 60.8524 206.582 61.0973C206.8 61.3421 206.958 61.6335 207.046 61.949C207.133 62.2645 207.147 62.5958 207.087 62.9176C207.026 63.2394 206.893 63.5431 206.697 63.8054L204.97 66.1067C204.769 66.3675 204.514 66.5833 204.224 66.7399C203.934 66.8965 203.614 66.9904 203.285 67.0157C202.956 67.041 202.625 66.997 202.314 66.8865C202.004 66.7761 201.719 66.6017 201.48 66.3746L201.439 66.3343L200.95 65.8663L200.84 65.7621C193.042 72.2516 179.851 72.1389 169.324 64.9146C157.382 56.718 153.401 42.4784 160.434 33.1065C167.467 23.7346 182.847 22.7829 194.79 30.9795Z" fill="#0FB953"/>
<path opacity="0.2" d="M166.128 57.5379C167.225 57.0148 166.881 54.0112 165.359 50.8291C163.837 47.647 161.714 45.4914 160.617 46.0145C159.52 46.5375 159.865 49.5412 161.386 52.7233C162.908 55.9054 165.031 58.061 166.128 57.5379Z" fill="white"/>
<path d="M205.735 60.51C205.754 60.5173 205.773 60.5261 205.791 60.5363L201.44 66.3344L200.951 65.8664L205.42 59.9119C205.359 60.043 205.294 60.1749 205.228 60.3022L205.735 60.51Z" fill="#575A89"/>
<path d="M127.997 14.9337C134.501 26.2429 133.034 39.1867 125.05 45.5753C124.939 45.6672 124.823 45.7578 124.708 45.8439L125.076 46.2501C125.09 46.265 125.103 46.2809 125.114 46.2979C125.334 46.5406 125.495 46.8303 125.585 47.1447C125.675 47.4592 125.692 47.79 125.634 48.1119C125.576 48.4338 125.445 48.7382 125.252 49.0019C125.058 49.2656 124.807 49.4816 124.516 49.6333L121.966 50.9608C121.671 51.1088 121.349 51.1934 121.02 51.2092C120.691 51.225 120.362 51.1716 120.055 51.0524C119.747 50.9333 119.469 50.751 119.236 50.5174C119.004 50.2839 118.824 50.0042 118.707 49.6966L118.687 49.6425L118.449 49.0102L118.395 48.8685C108.565 51.3491 96.7329 45.5565 90.3789 34.5091C83.1698 21.975 85.7461 7.43353 96.135 2.02735C106.524 -3.37884 120.787 2.39956 127.997 14.9337Z" fill="#0FB953"/>
<path opacity="0.2" d="M92.9026 20.1132C92.9089 16.5909 91.9297 13.7337 90.7155 13.7316C89.5013 13.7294 88.5118 16.5831 88.5055 20.1054C88.4992 23.6277 89.4785 26.4849 90.6927 26.4871C91.9069 26.4892 92.8963 23.6356 92.9026 20.1132Z" fill="white"/>
<path d="M125.075 46.2501C125.09 46.265 125.103 46.2809 125.114 46.2979L118.687 49.6425L118.449 49.0101L125.05 45.5753C124.939 45.6672 124.823 45.7578 124.708 45.8439L125.075 46.2501Z" fill="#575A89"/>
<path d="M274.878 196.696C272.296 201.451 267.402 203.589 263.407 201.952C263.35 201.929 263.293 201.905 263.238 201.88L263.174 202.101C263.172 202.109 263.169 202.117 263.166 202.125C263.128 202.256 263.061 202.376 262.968 202.475C262.875 202.574 262.76 202.65 262.632 202.696C262.504 202.741 262.367 202.756 262.232 202.739C262.097 202.721 261.968 202.672 261.857 202.594L260.832 201.923C260.716 201.846 260.616 201.746 260.539 201.629C260.463 201.513 260.411 201.382 260.386 201.244C260.362 201.107 260.365 200.966 260.397 200.83C260.429 200.694 260.488 200.565 260.57 200.453L260.585 200.434L260.757 200.215L260.795 200.166C257.78 197.034 257.253 191.445 259.775 186.8C262.636 181.53 268.337 179.472 272.508 182.205C276.679 184.938 277.74 191.426 274.878 196.696Z" fill="#D0CDE1"/>
<path opacity="0.2" d="M265.415 184.754C266.661 184.026 267.458 183.071 267.194 182.621C266.93 182.17 265.706 182.395 264.46 183.122C263.213 183.85 262.417 184.805 262.681 185.256C262.945 185.706 264.169 185.482 265.415 184.754Z" fill="white"/>
<path d="M263.175 202.101C263.173 202.109 263.17 202.117 263.166 202.125L260.586 200.434L260.758 200.215L263.408 201.952C263.351 201.929 263.294 201.905 263.239 201.88L263.175 202.101Z" fill="#575A89"/>
</g>
<defs>
<clipPath id="clip0">
<rect width="278" height="238" fill="white"/>
</clipPath>
</defs>
</svg>
