<svg width="245" height="207" viewBox="0 0 245 207" fill="none" xmlns="http://www.w3.org/2000/svg">
<path d="M131.3 191.477C69.7741 186.804 -3.59849 139.23 0.137017 90.2447C3.87253 41.2594 74.9347 -4.3419 136.461 0.33056C197.987 5.00302 233.403 96.5484 229.668 145.534C225.932 194.519 192.826 196.149 131.3 191.477Z" fill="#F2F2F2"/>
<path d="M117.074 17.986H0.316406V138.555H117.074V17.986Z" fill="#3F3D56"/>
<path d="M80.1284 66.6943C82.6691 71.3769 83.5995 76.7623 82.7767 82.0236C81.954 87.285 79.4236 92.1314 75.574 95.8189C71.7244 99.5063 66.7684 101.831 61.4669 102.436C56.1654 103.041 50.8115 101.893 46.2271 99.1679C41.6427 96.4429 38.0812 92.2917 36.0894 87.3516C34.0977 82.4114 33.7857 76.9555 35.2015 71.8213C36.6172 66.6872 39.6824 62.1586 43.9265 58.9309C48.1706 55.7032 53.3589 53.9548 58.6949 53.9541C58.8882 53.9541 59.0809 53.957 59.2731 53.9615L59.0154 43.573C58.9085 43.5721 58.8021 43.569 58.6949 43.569C51.0174 43.5712 43.5567 46.1096 37.4768 50.7881C31.397 55.4666 27.0401 62.022 25.0862 69.4313C23.1322 76.8407 23.691 84.6871 26.6754 91.7461C29.6598 98.8052 34.902 104.68 41.5837 108.453C48.2655 112.227 56.0111 113.686 63.6117 112.605C71.2123 111.524 78.2404 107.962 83.5992 102.475C88.9581 96.9887 92.3462 89.8862 93.2348 82.2761C94.1234 74.666 92.4626 66.9764 88.5116 60.4072L80.1284 66.6943Z" fill="#0FB953"/>
<path opacity="0.3" d="M80.1286 66.6944L88.5118 60.4073C85.4503 55.3164 81.1305 51.0951 75.9659 48.1475C70.8013 45.1999 64.9649 43.6249 59.0156 43.5731L59.2733 53.9616C63.5655 54.0619 67.7549 55.2924 71.4173 57.5284C75.0796 59.7644 78.0849 62.9264 80.1286 66.6944Z" fill="#0FB953"/>
<path d="M76.1816 108.27L88.3929 120.571" stroke="#2F2E41" stroke-width="2" stroke-miterlimit="10"/>
<path d="M84.4988 32.907L76.0117 48.0093" stroke="#2F2E41" stroke-width="2" stroke-miterlimit="10"/>
<path d="M98.5441 120.571H78.4922V125.131H98.5441V120.571Z" fill="#F2F2F2"/>
<path d="M93.9757 28.3711H73.9238V32.9304H93.9757V28.3711Z" fill="#F2F2F2"/>
<path d="M245 16.9728H128.242V65.6058H245V16.9728Z" fill="#3F3D56"/>
<path d="M175.409 54.4607H162.211C161.31 49.2645 161.31 43.9525 162.211 38.7563H175.409C173.922 43.8859 173.922 49.331 175.409 54.4607Z" fill="#FF6584"/>
<path d="M212.298 54.4607H199.099C198.199 49.2645 198.199 43.9525 199.099 38.7563H212.298C210.811 43.8859 210.811 49.331 212.298 54.4607Z" fill="#FF6584"/>
<path d="M156.671 43.8223H143.472C142.572 38.626 142.572 33.3141 143.472 28.1179H156.671C155.184 33.2475 155.184 38.6926 156.671 43.8223Z" fill="#0FB953"/>
<path d="M180.275 43.8223H193.474C194.375 38.626 194.375 33.3141 193.474 28.1179H180.275C181.762 33.2475 181.762 38.6926 180.275 43.8223Z" fill="#0FB953"/>
<path d="M216.572 43.8223H229.771C230.672 38.626 230.672 33.3141 229.771 28.1179H216.572C218.059 33.2475 218.059 38.6926 216.572 43.8223Z" fill="#0FB953"/>
<path d="M222.664 192.001C222.664 197.052 199.014 207 169.996 207C140.979 207 117.582 197.052 117.582 192.001C117.582 186.95 140.979 188.708 169.996 188.708C199.014 188.708 222.664 186.95 222.664 192.001Z" fill="#3F3D56"/>
<path opacity="0.1" d="M222.664 192.001C222.664 197.052 199.014 207 169.996 207C140.979 207 117.582 197.052 117.582 192.001C117.582 186.95 140.979 188.708 169.996 188.708C199.014 188.708 222.664 186.95 222.664 192.001Z" fill="black"/>
<path d="M169.996 201.174C199.014 201.174 222.537 197.079 222.537 192.028C222.537 186.977 199.014 182.882 169.996 182.882C140.979 182.882 117.455 186.977 117.455 192.028C117.455 197.079 140.979 201.174 169.996 201.174Z" fill="#3F3D56"/>
<path opacity="0.1" d="M169.996 199.186C192.705 199.186 211.115 195.981 211.115 192.028C211.115 188.075 192.705 184.87 169.996 184.87C147.287 184.87 128.877 188.075 128.877 192.028C128.877 195.981 147.287 199.186 169.996 199.186Z" fill="black"/>
<path d="M151.847 137.795H138.648C137.747 132.599 137.747 127.287 138.648 122.091H151.847C150.36 127.221 150.36 132.666 151.847 137.795Z" fill="#0FB953"/>
<path d="M193.605 58.2723L195.42 59.1779C195.42 59.1779 205.251 83.7812 201.924 89.6678C198.596 95.5545 188.16 106.573 188.16 106.573L186.193 100.988L194.235 83.5899L193.605 58.2723Z" fill="#575A89"/>
<path opacity="0.1" d="M193.605 58.2723L195.42 59.1779C195.42 59.1779 205.251 83.7812 201.924 89.6678C198.596 95.5545 188.16 106.573 188.16 106.573L186.193 100.988L194.235 83.5899L193.605 58.2723Z" fill="black"/>
<path d="M191.639 181.288C191.639 181.288 194.21 187.175 192.849 187.628C191.488 188.081 189.824 188.081 188.16 188.081C186.496 188.081 184.53 187.477 184.228 186.873C183.925 186.269 185.438 182.345 185.438 182.345L191.639 181.288Z" fill="#F2F2F2"/>
<path d="M157.003 184.307C157.003 184.307 158.666 189.59 157.91 189.892C157.154 190.194 154.734 191.552 153.372 191.1C152.011 190.647 149.894 189.59 149.44 189.137C148.986 188.685 149.44 186.27 149.44 186.27L151.557 183.251L157.003 184.307Z" fill="#F2F2F2"/>
<path d="M186.799 105.818L188.967 106.573C188.967 106.573 189.521 111.705 188.916 113.516C188.311 115.328 186.95 128.459 187.706 131.176C188.462 133.893 188.009 138.271 188.009 138.271C188.009 138.271 192.546 153.063 191.639 156.232C190.731 159.402 190.882 163.93 191.79 166.195C192.697 168.459 193.454 169.364 193 171.176C192.546 172.987 191.639 173.892 192.546 175.402C193.454 176.911 195.269 177.364 194.361 178.723C193.454 180.081 192.546 181.138 192.849 182.043C193.151 182.949 184.832 184.609 184.076 183.251C184.076 183.251 186.496 181.138 184.076 179.93C181.656 178.723 182.412 174.194 182.412 174.194C182.412 174.194 178.177 156.836 178.328 155.478C178.48 154.119 171.673 132.988 171.673 132.988C171.673 132.988 161.691 163.176 161.086 164.534C160.481 165.893 161.842 169.213 161.086 170.119C160.329 171.025 161.388 173.289 160.329 174.194C159.271 175.1 162.144 178.421 160.329 179.628C158.514 180.836 157.607 184.609 157.758 185.364C157.909 186.119 150.195 185.213 150.195 184.156C150.195 183.1 150.347 182.194 149.59 180.383C148.834 178.572 148.38 177.364 148.985 176.76C149.59 176.157 150.044 175.402 149.439 173.289C148.834 171.176 150.347 164.685 149.893 163.478C149.439 162.27 149.59 154.119 149.59 154.119C149.59 154.119 151.103 142.195 150.649 140.233C150.195 138.271 150.649 137.818 150.8 137.063C150.952 136.308 151.859 128.158 152.464 126.95C153.069 125.743 153.826 105.064 157.304 104.007C160.783 102.951 186.799 105.818 186.799 105.818Z" fill="#2F2E41"/>
<path d="M188.01 186.722C188.01 186.722 193.455 185.817 193.757 186.722C194.06 187.628 194.967 194.722 192.85 194.873C190.732 195.024 187.102 195.477 186.497 194.118C185.892 192.76 183.018 191.854 183.018 191.854C183.018 191.854 178.783 190.647 178.783 189.288C178.783 187.93 178.934 185.817 179.691 185.666C180.447 185.515 183.472 183.854 183.472 183.251C183.472 182.647 188.01 186.722 188.01 186.722Z" fill="#2F2E41"/>
<path d="M153.978 189.137C153.978 189.137 157.91 187.93 158.818 188.684C159.725 189.439 160.935 197.741 158.818 197.59C156.7 197.439 151.104 198.345 150.802 197.137C150.499 195.93 146.415 195.628 146.415 195.628C146.415 195.628 142.029 193.514 142.331 191.25C142.634 188.986 143.088 188.232 144.903 188.081C146.718 187.93 148.079 185.817 148.23 185.666C148.381 185.515 149.715 184.411 149.88 185.642C150.045 186.873 152.012 189.59 153.978 189.137Z" fill="#2F2E41"/>
<path d="M166.379 42.8764C171.474 42.8764 175.605 38.7541 175.605 33.669C175.605 28.5839 171.474 24.4617 166.379 24.4617C161.283 24.4617 157.152 28.5839 157.152 33.669C157.152 38.7541 161.283 42.8764 166.379 42.8764Z" fill="#FFB9B9"/>
<path d="M174.397 35.7822C174.397 35.7822 175.002 45.8952 177.271 46.8009C179.539 47.7065 165.775 47.7065 165.775 47.7065C165.775 47.7065 165.624 41.367 163.658 39.8576C161.692 38.3482 174.397 35.7822 174.397 35.7822Z" fill="#FFB9B9"/>
<path d="M178.025 44.5367C178.025 44.5367 168.648 41.065 165.32 46.4989C165.32 46.4989 154.733 51.4799 153.976 54.4987C153.22 57.5175 160.329 80.1585 160.329 80.1585C160.329 80.1585 160.329 98.8751 158.816 100.837C157.304 102.8 154.43 104.913 156.396 105.366C158.363 105.818 189.218 109.139 189.067 107.177C188.916 105.215 186.949 103.554 189.067 102.347C191.184 101.139 189.369 99.7807 190.731 95.8563C192.092 91.9318 195.42 59.4797 195.42 59.4797C195.42 59.4797 193.151 55.4043 192.697 54.9515C192.243 54.4987 178.025 44.5367 178.025 44.5367Z" fill="#575A89"/>
<path d="M150.953 110.648C150.953 110.648 145.054 123.931 150.197 125.743C155.339 127.554 155.037 111.705 155.037 111.705L150.953 110.648Z" fill="#FFB9B9"/>
<path d="M170.806 35.3814C170.271 34.312 169.471 33.0783 168.275 33.1434C167.67 33.1763 167.149 33.5518 166.61 33.8274C166.071 34.1031 165.38 34.2739 164.887 33.9227C164.167 33.4089 164.39 32.1902 163.745 31.584C163.042 30.9223 161.626 31.2917 161.172 30.4398C160.929 29.9849 161.125 29.4204 161.019 28.9161C160.283 28.9299 159.522 28.9396 158.84 28.6634C158.157 28.3871 157.565 27.7471 157.584 27.0121C157.605 26.7616 157.675 26.5178 157.791 26.2948C157.907 26.0718 158.067 25.8742 158.26 25.7135C159.19 24.8698 160.535 24.708 161.682 24.1963C162.595 23.7891 163.389 23.1545 164.287 22.714C165.831 21.956 167.613 21.8089 169.329 21.9398C171.932 22.1383 174.563 23.0001 176.45 24.7992C178.337 26.5984 179.336 29.4368 178.522 31.9113C178.061 33.3135 177.084 34.4921 176.538 35.8639C176.204 36.8027 175.972 37.7747 175.847 38.7631L175.464 41.1075C175.524 40.7426 174.721 39.8275 174.458 39.6097C173.883 39.1348 173.048 39.2959 172.515 38.856C171.726 38.2052 171.27 36.3091 170.806 35.3814Z" fill="#2F2E41"/>
<path opacity="0.1" d="M157.457 53.4422L155.037 54.9516C155.037 54.9516 151.104 78.6492 151.558 81.9699C152.012 85.2906 149.743 104.007 150.499 105.517C151.256 107.026 151.558 107.328 151.558 108.233C151.558 109.139 149.441 112.46 150.802 113.064C152.163 113.667 157.155 114.724 157.155 113.064C157.155 111.403 156.247 109.139 157.911 108.083C159.575 107.026 160.785 100.234 160.785 100.234C160.785 100.234 161.541 93.2904 162.297 91.9319C163.053 90.5735 164.112 85.5924 164.112 83.4793C164.112 81.3661 165.927 72.7625 164.868 68.3853C163.81 64.008 163.507 52.2347 157.457 53.4422Z" fill="black"/>
<path d="M156.398 52.9894L153.978 54.4988C153.978 54.4988 150.046 78.1964 150.5 81.5171C150.953 84.8377 148.685 103.554 149.441 105.064C150.197 106.573 150.5 106.875 150.5 107.781C150.5 108.686 148.382 112.007 149.743 112.611C151.105 113.214 156.096 114.271 156.096 112.611C156.096 110.95 155.188 108.686 156.852 107.63C158.516 106.573 159.726 99.7808 159.726 99.7808C159.726 99.7808 160.482 92.8376 161.239 91.4791C161.995 90.1206 163.054 85.1396 163.054 83.0265C163.054 80.9133 164.869 72.3097 163.81 67.9324C162.751 63.5552 162.449 51.7818 156.398 52.9894Z" fill="#575A89"/>
</svg>
