<svg width="276" height="204" viewBox="0 0 276 204" fill="none" xmlns="http://www.w3.org/2000/svg">
<g clip-path="url(#clip0)">
<path d="M106.838 195.649C161.267 195.649 205.391 151.852 205.391 97.8246C205.391 43.7975 161.267 0 106.838 0C52.4088 0 8.28516 43.7975 8.28516 97.8246C8.28516 151.852 52.4088 195.649 106.838 195.649Z" fill="#F2F2F2"/>
<path d="M53.0485 36.212L51.0078 52.5922C53.5126 57.4581 56.1657 62.9899 58.696 68.9568L63.5017 44.2572L63.7446 44.4772C60.231 40.9484 56.535 38.0758 52.8017 36.0147L53.0485 36.212Z" fill="#0FB953"/>
<path d="M50.5669 51.7393L52.5439 35.8724C48.3442 33.597 44.1016 32.3537 40.0219 32.3761C39.8097 32.3772 39.6 32.3845 39.3906 32.3925C40.21 33.6357 44.9701 40.9645 50.5669 51.7393Z" fill="#0FB953"/>
<path d="M83.2273 77.296L83.4473 77.5906C82.717 75.3862 81.912 73.2267 81.0324 71.1121L68.6391 98.6705L68.5332 98.5398C68.8468 99.8957 69.1357 101.239 69.4 102.568L83.2273 77.296Z" fill="#0FB953"/>
<path d="M74.8351 58.9828L75.0693 59.2453C71.9658 53.9879 68.2459 49.1139 63.9874 44.725L59.0898 69.8952C61.4356 75.4985 63.457 80.9681 65.1541 86.3041L74.8351 58.9828Z" fill="#0FB953"/>
<path d="M19.9305 57.6933C19.6047 62.0214 19.7202 66.3711 20.2753 70.6761L63.4992 82.7238C61.9333 78.1249 60.2479 73.7731 58.5711 69.7828L19.9827 58.0559L19.9305 57.6933Z" fill="#0FB953"/>
<path d="M21.0552 75.6648L20.9963 75.3017L64.8525 86.8647C64.4962 85.7277 64.1314 84.6036 63.7582 83.4924L20.3748 71.4002L20.3184 71.037C20.5129 72.5542 20.7585 74.0968 21.0552 75.6648Z" fill="#0FB953"/>
<path d="M80.6355 70.4253L80.8625 70.7055C79.2539 66.8797 77.3871 63.166 75.2747 59.5897L65.4629 87.2805C66.5742 90.8449 67.535 94.3361 68.3454 97.7541L80.6355 70.4253Z" fill="#0FB953"/>
<path d="M71.4056 117.908C71.8532 125.815 71.2734 133.119 69.666 139.739C73.073 134.898 86.3411 114.698 86.338 93.7531L71.4056 117.908Z" fill="#0FB953"/>
<path d="M26.5527 92.4367C28.3614 95.9917 30.408 99.4224 32.6787 102.706L32.6375 102.306L70.8497 117.187C70.5574 112.765 69.9983 108.364 69.1751 104.008L26.5527 92.4367Z" fill="#0FB953"/>
<path d="M50.1787 51.946C44.1204 40.29 39.0587 32.7116 38.9858 32.603L39.1256 32.4033C32.9338 32.7249 28.027 36.0278 24.6992 41.4554L50.1787 51.946Z" fill="#0FB953"/>
<path d="M69.5977 103.598C69.6765 104.011 69.7577 104.426 69.8317 104.836C70.5488 108.769 71.0496 112.738 71.332 116.726L86.1228 92.7992L86.3313 93.0934C86.2997 89.4059 85.7977 85.7372 84.837 82.175C84.4532 80.777 84.0375 79.3937 83.5899 78.025L69.5977 103.598Z" fill="#0FB953"/>
<path d="M58.235 68.9875C55.7294 63.0901 53.1057 57.6244 50.6293 52.8155L24.5652 42.084L24.5323 41.7285C22.0693 45.8643 20.5044 51.1954 19.9609 57.3562L58.235 68.9875Z" fill="#0FB953"/>
<path d="M70.8934 117.889L32.9609 103.118C46.5717 122.809 67.4674 139.703 68.8025 140.774C70.7836 133.465 71.3288 125.703 70.8934 117.889Z" fill="#0FB953"/>
<path d="M69.0169 103.268L69.0301 103.244C67.9999 97.9711 66.6843 92.7572 65.0891 87.6249L21.125 76.0334C21.5365 78.1559 22.0429 80.3166 22.6443 82.5155C23.5315 85.6535 24.7053 88.7046 26.1509 91.631L69.0169 103.268Z" fill="#0FB953"/>
<path d="M127.16 105.264L115.063 116.588C113.865 121.922 112.354 127.862 110.469 134.059L130.041 118.078L130.087 118.402C129.648 113.459 128.647 108.907 127.097 104.956L127.16 105.264Z" fill="#0FB953"/>
<path d="M115.27 115.652L126.988 104.683C125.215 100.272 122.746 96.6282 119.59 94.0626C119.426 93.9291 119.26 93.8019 119.093 93.6755C118.926 95.1518 117.882 103.81 115.27 115.652Z" fill="#0FB953"/>
<path d="M124.002 156.013L123.982 156.379C124.836 154.219 125.604 152.046 126.285 149.86L99.0317 163.239L99.0341 163.072C98.4044 164.315 97.7641 165.532 97.1133 166.723L124.002 156.013Z" fill="#0FB953"/>
<path d="M129.307 136.595L129.318 136.945C130.306 130.931 130.573 124.822 130.113 118.746L110.168 135.031C108.374 140.832 106.417 146.324 104.295 151.508L129.307 136.595Z" fill="#0FB953"/>
<path d="M87.8483 100.842C84.8162 103.969 82.1102 107.392 79.7715 111.059L105.321 147.703C107.07 143.17 108.568 138.751 109.841 134.616L87.6554 101.154L87.8483 100.842Z" fill="#0FB953"/>
<path d="M77.168 115.396L77.3559 115.079L103.704 151.75C104.16 150.649 104.601 149.552 105.028 148.46L79.3842 111.681L79.5741 111.365C78.749 112.657 77.947 114 77.168 115.396Z" fill="#0FB953"/>
<path d="M126.423 149.08L126.417 149.439C127.637 145.474 128.585 141.432 129.256 137.341L103.906 152.456C102.472 155.905 100.969 159.202 99.3965 162.347L126.423 149.08Z" fill="#0FB953"/>
<path d="M88.8027 179.808C84.0668 186.181 78.927 191.439 73.4355 195.52C79.1701 193.949 102.369 186.791 115.825 170.658L88.8027 179.808Z" fill="#0FB953"/>
<path d="M70.6245 131.794C69.7331 135.677 69.105 139.615 68.7441 143.581L68.969 143.247L88.8379 178.9C91.4545 175.309 93.8517 171.566 96.0166 167.69L70.6245 131.794Z" fill="#0FB953"/>
<path d="M114.838 115.566C117.662 102.753 118.633 93.7112 118.647 93.5815L118.883 93.5162C113.907 89.8438 108.006 89.2812 101.955 91.3546L114.838 115.566Z" fill="#0FB953"/>
<path d="M96.6052 167.642C96.4005 168.01 96.1969 168.38 95.9903 168.743C94.0152 172.227 91.8505 175.601 89.5059 178.85L116.272 169.787L116.243 170.145C118.588 167.285 120.559 164.142 122.108 160.79C122.711 159.47 123.28 158.142 123.814 156.804L96.6052 167.642Z" fill="#0FB953"/>
<path d="M110.092 133.791C111.952 127.662 113.443 121.792 114.626 116.52L101.447 91.7534L101.651 91.4588C97.096 93.0848 92.4652 96.2001 88.0879 100.601L110.092 133.791Z" fill="#0FB953"/>
<path d="M88.4184 179.469L68.6949 144.076C66.5247 167.86 71.7629 194.1 72.1034 195.77C78.3254 191.395 83.7332 185.762 88.4184 179.469Z" fill="#0FB953"/>
<path d="M96.3693 167.02L96.3951 167.009C98.9897 162.296 101.327 157.447 103.396 152.485L76.9835 115.723C75.9366 117.618 74.9383 119.603 73.9885 121.678C72.6555 124.656 71.599 127.749 70.832 130.918L96.3693 167.02Z" fill="#0FB953"/>
<path d="M26.0832 105.828L29.2432 122.032C33.1407 125.891 37.3864 130.338 41.6508 135.237L38.5298 110.272L38.8293 110.407C34.3889 108.129 29.9794 106.531 25.7871 105.716L26.0832 105.828Z" fill="#0FB953"/>
<path d="M28.5578 121.356L25.497 105.66C20.7945 104.784 16.3725 104.904 12.4996 106.177C12.2981 106.243 12.1009 106.314 11.9043 106.386C13.0707 107.317 19.8799 112.826 28.5578 121.356Z" fill="#0FB953"/>
<path d="M67.5761 135.641L67.877 135.854C66.496 133.981 65.058 132.174 63.563 130.433L60.3582 160.444L60.2168 160.353C60.9373 161.546 61.6302 162.734 62.2956 163.918L67.5761 135.641Z" fill="#0FB953"/>
<path d="M53.8931 120.799L54.1976 120.977C49.6089 116.929 44.5534 113.435 39.1367 110.568L42.317 136.008C46.2927 140.617 49.9184 145.199 53.194 149.753L53.8931 120.799Z" fill="#0FB953"/>
<path d="M1.27539 136.419C2.31324 140.635 3.77758 144.736 5.64609 148.66L50.505 146.856C47.5836 142.963 44.6257 139.341 41.7884 136.061L1.43791 136.748L1.27539 136.419Z" fill="#0FB953"/>
<path d="M7.9426 153.165L7.77352 152.837L53.0828 150.378C52.3899 149.406 51.693 148.449 50.992 147.507L5.96751 149.318L5.80078 148.989C6.45826 150.373 7.1722 151.764 7.9426 153.165Z" fill="#0FB953"/>
<path d="M62.9719 129.902L63.2751 130.099C60.554 126.954 57.6221 123.995 54.4995 121.242L53.791 150.587C55.9578 153.636 57.9588 156.661 59.7938 159.663L62.9719 129.902Z" fill="#0FB953"/>
<path d="M68.9805 177.892C71.8683 185.274 73.5913 192.398 74.124 199.186C75.8567 193.537 82.1849 170.256 75.6598 150.338L68.9805 177.892Z" fill="#0FB953"/>
<path d="M18.3926 167.429C21.2197 170.255 24.2343 172.89 27.4163 175.315L27.2528 174.948L68.2275 177.376C66.5725 173.26 64.6702 169.246 62.531 165.356L18.3926 167.429Z" fill="#0FB953"/>
<path d="M28.2544 121.672C18.8631 112.445 11.6893 106.791 11.5862 106.71L11.657 106.477C5.86855 108.683 2.23056 113.33 0.755859 119.512L28.2544 121.672Z" fill="#0FB953"/>
<path d="M62.8066 164.837C63.0102 165.205 63.2164 165.575 63.4146 165.942C65.3214 169.463 67.0337 173.084 68.5438 176.789L75.1597 149.496L75.4496 149.712C74.2713 146.215 72.6514 142.88 70.6285 139.787C69.8282 138.575 69.0021 137.387 68.1502 136.223L62.8066 164.837Z" fill="#0FB953"/>
<path d="M41.2205 135.407C37.0011 130.568 32.8039 126.175 28.9513 122.361L0.821749 120.152L0.679806 119.824C-0.374743 124.513 -0.202854 130.063 1.19871 136.089L41.2205 135.407Z" fill="#0FB953"/>
<path d="M68.4874 178.031L27.8125 175.621C46.8886 190.172 72.0219 199.828 73.6249 200.436C73.233 192.878 71.3344 185.328 68.4874 178.031Z" fill="#0FB953"/>
<path d="M62.1506 164.701L62.1556 164.674C59.5339 159.975 56.6591 155.42 53.5438 151.029L8.12305 153.494C9.17529 155.386 10.3298 157.285 11.5865 159.192C13.4074 161.904 15.4738 164.446 17.7599 166.785L62.1506 164.701Z" fill="#0FB953"/>
<path d="M30.5195 204C30.5195 204 94.2183 178.947 171.138 204H30.5195Z" fill="#2F2E41"/>
<path d="M76.8295 184.779C76.8788 185.449 76.9622 186.117 77.0795 186.779C77.0795 186.779 82.561 190.479 82.9995 186.344C83.2845 183.649 82.6399 182.433 82.1532 181.913L82.1455 181.904C81.853 181.597 81.6881 181.192 81.6839 180.769V175.897L76.8602 177.42L77.0795 181.556C76.755 182.415 76.7506 183.699 76.8295 184.779Z" fill="#FFB9B9"/>
<path opacity="0.05" d="M76.8301 184.779C76.8793 185.449 76.9628 186.117 77.08 186.779C77.08 186.779 82.5615 190.479 83.0001 186.344C83.2851 183.649 82.6405 182.433 82.1537 181.913C81.9634 181.77 81.7374 181.681 81.5001 181.657C81.2629 181.632 81.0234 181.673 80.8075 181.773C79.9304 181.386 78.9657 182.032 78.1676 182.868C77.6267 183.434 77.1757 184.078 76.8301 184.779Z" fill="black"/>
<path d="M80.807 182.209C80.807 182.209 83.2188 180.903 83.6574 186.779C84.0959 192.655 84.3151 192.002 84.3151 192.002C84.3151 192.002 86.5077 197.226 81.9033 196.573C77.2989 195.92 75.1063 195.485 75.3255 192.873C75.4577 191.299 75.8288 189.013 76.1028 187.445C76.3639 185.893 77.0818 184.451 78.1662 183.302C78.9663 182.467 79.93 181.822 80.807 182.209Z" fill="#2F2E41"/>
<path d="M106.566 189.679L109.08 190.882C109.08 190.882 116.933 192.079 114.442 187.64C113.721 186.314 113.171 184.903 112.804 183.441C112.28 181.404 111.988 179.315 111.935 177.213L105.291 178.133C107.458 180.997 107.183 185.643 106.848 188.076C106.712 189.057 106.566 189.679 106.566 189.679Z" fill="#FFB9B9"/>
<path opacity="0.05" d="M106.566 189.679L109.08 190.882C109.08 190.882 116.933 192.079 114.442 187.64C113.721 186.314 113.171 184.903 112.804 183.441C111.279 183.732 110.118 185.912 110.118 185.912C108.888 190.151 107.781 189.092 106.848 188.076C106.712 189.057 106.566 189.679 106.566 189.679Z" fill="black"/>
<path d="M110.263 186.322C110.263 186.322 112.221 182.647 114.393 184.199C116.565 185.751 115.488 187.969 122.522 190.141C129.557 192.313 124.908 196.922 120.604 196.57C116.3 196.217 107.122 194.558 107.122 194.558C107.122 194.558 104.737 187.777 105.844 187.624C106.951 187.471 108.479 192.474 110.263 186.322Z" fill="#2F2E41"/>
<path opacity="0.3" d="M120.314 195.748C123.109 195.976 126.047 194.114 125.841 192.185C127.176 194.363 123.796 196.831 120.604 196.57C116.299 196.218 107.122 194.558 107.122 194.558C107.122 194.558 107.01 194.239 106.846 193.738C107.113 193.787 116.075 195.401 120.314 195.748Z" fill="white"/>
<path opacity="0.3" d="M75.3369 192.748C75.5897 194.706 77.7775 195.117 81.9033 195.702C84.0015 196 84.6863 195.076 84.8123 193.984C84.9495 195.383 84.5491 196.948 81.9033 196.573C77.2988 195.92 75.1062 195.485 75.3255 192.873C75.3289 192.832 75.3332 192.789 75.3369 192.748Z" fill="white"/>
<path d="M65.309 107.798L64.5811 118.635C64.5811 118.635 63.9989 129.616 68.5115 130.483C73.024 131.35 68.5115 116.467 68.5115 116.467V106.642L65.309 107.798Z" fill="#FBBEBE"/>
<path d="M69.0924 68.3518L68.5102 69.6522C68.5102 69.6522 68.6557 78.7552 68.5102 79.4776C68.3646 80.2001 66.4722 85.8352 66.4722 86.4132C66.4722 86.9912 65.0166 103.752 64.7254 104.764C64.4343 105.775 63.1242 108.954 64.2887 109.387C65.4533 109.821 67.6368 108.087 68.5102 109.387C69.3836 110.688 70.1114 109.387 70.1114 108.954C70.1114 108.52 70.4025 100.284 72.1493 97.9725C73.8961 95.6607 75.4974 90.459 75.7885 89.4475C76.0796 88.4361 76.5163 73.8425 76.6619 73.5535C76.8075 73.2645 76.0796 69.3632 76.0796 69.3632L69.0924 68.3518Z" fill="#3F3D56"/>
<path d="M77.3902 83.6679C77.3902 83.6679 75.6434 90.459 74.4788 91.7595C73.3143 93.0599 67.4916 102.741 69.2384 115.601C70.9852 128.46 74.0422 145.221 74.0422 145.221C74.0422 145.221 74.4789 151.145 73.8966 152.735C73.3143 154.324 76.5168 179.61 76.5168 179.61C76.5168 179.61 81.0294 183.078 83.504 178.743C83.504 178.743 82.9217 169.351 83.504 168.484C84.0863 167.617 83.504 152.012 83.504 152.012C83.504 152.012 83.9407 113.144 86.2698 114.734C88.5989 116.323 95.7316 143.343 95.7316 143.343C95.7316 143.343 98.7885 153.746 98.643 154.613C98.4974 155.48 101.263 166.317 101.263 166.317C101.263 166.317 103.883 181.344 104.902 181.633C105.921 181.922 112.181 182.067 112.763 180.477L111.016 166.895C111.016 166.895 109.269 151.434 108.396 149.267C107.523 147.1 106.067 116.323 101.845 107.22C101.845 107.22 100.244 92.6264 99.0797 90.4591C99.0797 90.4591 98.3965 87.4815 99.2395 84.7018C99.2395 84.7018 78.9914 84.8239 77.3902 83.6679Z" fill="#2F2E41"/>
<path d="M86.0518 56.5759C92.805 56.5759 98.2795 49.6863 98.2795 41.1876C98.2795 32.6888 92.805 25.7992 86.0518 25.7992C79.2987 25.7992 73.8242 32.6888 73.8242 41.1876C73.8242 49.6863 79.2987 56.5759 86.0518 56.5759Z" fill="#2F2E41"/>
<path d="M111.162 59.2488L109.27 63.2946L86.8527 69.7967C86.8527 69.7967 71.277 74.2759 69.6758 67.0514C68.0745 59.8268 75.7896 59.1043 75.7896 59.1043C75.7896 59.1043 78.7009 57.0815 82.3401 55.0586C83.557 54.3809 83.9603 53.2842 83.9573 52.124C83.9543 51.7789 83.9217 51.4347 83.8598 51.0952C83.7896 50.7028 83.6923 50.3156 83.5687 49.9364C83.2605 49.0005 82.8485 48.1015 82.3401 47.2561C82.3401 47.2561 91.9475 43.4993 91.802 45.5222C91.7404 46.2508 91.8195 46.9845 92.0349 47.6837C92.2337 48.2961 92.5018 48.8841 92.834 49.4364C92.9971 49.7153 93.179 50.0043 93.3814 50.3106C93.6434 50.708 93.9418 51.1313 94.2766 51.5908C96.169 54.1916 102.428 54.1916 102.428 54.1916C107.378 53.6137 111.162 59.2488 111.162 59.2488Z" fill="#FBBEBE"/>
<path d="M134.307 82.3675C134.307 82.3675 144.788 90.0256 146.826 89.8811C148.864 89.7366 160.8 89.0141 158.034 91.7595C155.269 94.5048 142.75 92.7709 142.75 92.7709L131.25 85.5463L134.307 82.3675Z" fill="#FBBEBE"/>
<path opacity="0.1" d="M92.0346 47.6837C90.9756 48.8057 89.6215 49.6112 88.1254 50.0093C86.6293 50.4074 85.0508 50.3821 83.5684 49.9363C83.2603 49.0004 82.8482 48.1015 82.3398 47.256C82.3398 47.256 91.9473 43.4992 91.8017 45.5221C91.7402 46.2508 91.8192 46.9844 92.0346 47.6837Z" fill="black"/>
<path d="M85.979 49.2789C90.5615 49.2789 94.2763 45.5916 94.2763 41.0429C94.2763 36.4943 90.5615 32.8069 85.979 32.8069C81.3965 32.8069 77.6816 36.4943 77.6816 41.0429C77.6816 45.5916 81.3965 49.2789 85.979 49.2789Z" fill="#FBBEBE"/>
<path d="M75.6439 65.0285C75.6439 65.0285 111.745 56.937 111.89 58.093C112.036 59.2489 113.491 61.5608 113.491 61.5608L105.048 71.0972C105.048 71.0972 106.067 75.7209 104.03 76.7323C101.992 77.7438 101.7 85.4018 99.8081 85.5463C97.9157 85.6908 75.7895 85.4018 75.6439 84.2459C75.4984 83.09 76.2262 82.3675 75.6439 82.0785C75.0617 81.7895 74.1883 81.7895 74.9161 80.3446C75.6439 78.8997 75.6439 72.8311 75.6439 72.8311L68.8023 69.6523C68.8023 69.6523 67.864 66.9599 69.5705 66.4999C71.2769 66.04 75.6439 65.0285 75.6439 65.0285Z" fill="#3F3D56"/>
<path d="M112.182 61.2719H113.492C113.492 61.2719 117.423 63.8727 118.441 66.1846C119.46 68.4964 123.1 71.5308 123.973 72.3977C124.846 73.2647 136.783 81.5007 136.637 82.6566C136.492 83.8125 133.144 84.9685 132.998 86.2689C132.853 87.5693 134.454 88.1473 133.435 88.1473C132.416 88.1473 126.157 84.535 123.827 83.2346C121.498 81.9342 116.695 78.1774 116.112 77.1659C115.53 76.1545 111.6 74.4206 111.163 73.6981C110.726 72.9757 103.885 69.6524 103.885 69.6524L112.182 61.2719Z" fill="#3F3D56"/>
<path d="M73.8242 36.4916C76.3968 36.4916 78.4823 34.4215 78.4823 31.8679C78.4823 29.3143 76.3968 27.2442 73.8242 27.2442C71.2515 27.2442 69.166 29.3143 69.166 31.8679C69.166 34.4215 71.2515 36.4916 73.8242 36.4916Z" fill="#2F2E41"/>
<path d="M94.3495 30.4229C96.9222 30.4229 99.0077 28.3527 99.0077 25.7991C99.0077 23.2455 96.9222 21.1754 94.3495 21.1754C91.7769 21.1754 89.6914 23.2455 89.6914 25.7991C89.6914 28.3527 91.7769 30.4229 94.3495 30.4229Z" fill="#2F2E41"/>
<path d="M87.1436 40.9706C91.9271 40.9706 95.8049 38.6094 95.8049 35.6967C95.8049 32.7839 91.9271 30.4227 87.1436 30.4227C82.3602 30.4227 78.4824 32.7839 78.4824 35.6967C78.4824 38.6094 82.3602 40.9706 87.1436 40.9706Z" fill="#2F2E41"/>
<path d="M92.8336 49.4364C88.8421 50.9955 85.6877 51.1804 83.8594 51.0952C83.9213 51.4347 83.9539 51.7789 83.9569 52.1239C84.1694 52.1326 84.398 52.1369 84.6411 52.1369C86.6601 52.1369 89.6762 51.7887 93.3809 50.3106L92.8336 49.4364Z" fill="#2F2E41"/>
<path d="M269.56 92.4561H155.944C152.387 92.4561 149.504 95.318 149.504 98.8484V161.222C149.504 164.752 152.387 167.614 155.944 167.614H269.56C273.117 167.614 276 164.752 276 161.222V98.8484C276 95.318 273.117 92.4561 269.56 92.4561Z" fill="#3F3D56"/>
<path opacity="0.3" d="M262.296 145.171H163.143V148.75H262.296V145.171Z" fill="#0FB953"/>
<path opacity="0.3" d="M262.361 135.776H163.207V139.355H262.361V135.776Z" fill="#0FB953"/>
<path opacity="0.3" d="M262.36 122.952H244.633V126.531H262.36V122.952Z" fill="#0FB953"/>
<path opacity="0.3" d="M262.362 113.408H197.461V116.987H262.362V113.408Z" fill="#0FB953"/>
<path opacity="0.3" d="M212.784 154.715H163.143V158.294H212.784V154.715Z" fill="#0FB953"/>
<path d="M185.091 101.776H166.261C164.575 101.776 163.207 103.134 163.207 104.808V123.499C163.207 125.173 164.575 126.531 166.261 126.531H185.091C186.778 126.531 188.146 125.173 188.146 123.499V104.808C188.146 103.134 186.778 101.776 185.091 101.776Z" fill="#0FB953"/>
</g>
<defs>
<clipPath id="clip0">
<rect width="276" height="204" fill="white"/>
</clipPath>
</defs>
</svg>
