<svg width="259" height="202" viewBox="0 0 259 202" fill="none" xmlns="http://www.w3.org/2000/svg">
<path d="M75.6718 3.8147e-06L34.4224 22.4253C35.1277 23.6441 35.5822 24.9926 35.7587 26.3909C35.9353 27.7893 35.8305 29.2089 35.4504 30.5658C35.0703 31.9227 34.4227 33.1892 33.546 34.2903C32.6692 35.3914 31.5812 36.3047 30.3464 36.976C29.1116 37.6473 27.7551 38.063 26.3572 38.1985C24.9594 38.334 23.5487 38.1864 22.2087 37.7647C20.8687 37.3429 19.6267 36.6555 18.5562 35.7431C17.4858 34.8307 16.6087 33.7119 15.977 32.4531L1.91211 40.0995L38.3445 107.608L112.104 67.5086L75.6718 3.8147e-06Z" fill="#F2F2F2"/>
<path d="M24.7226 36.2611C29.4256 36.2611 33.2382 32.4345 33.2382 27.7142C33.2382 22.9939 29.4256 19.1673 24.7226 19.1673C20.0196 19.1673 16.207 22.9939 16.207 27.7142C16.207 32.4345 20.0196 36.2611 24.7226 36.2611Z" fill="#0FB953"/>
<path d="M179.251 180.726L223.85 166.125C223.375 164.798 223.17 163.39 223.247 161.982C223.324 160.575 223.682 159.197 224.3 157.931C224.917 156.665 225.781 155.537 226.841 154.612C227.901 153.687 229.135 152.986 230.471 152.549C231.806 152.112 233.215 151.948 234.614 152.067C236.013 152.187 237.374 152.587 238.617 153.244C239.859 153.901 240.957 154.802 241.847 155.893C242.736 156.984 243.398 158.243 243.793 159.595L259 154.617L235.279 81.6259L155.529 107.735L179.251 180.726Z" fill="#F2F2F2"/>
<path d="M234.342 171.223C239.045 171.223 242.857 167.396 242.857 162.676C242.857 157.955 239.045 154.129 234.342 154.129C229.639 154.129 225.826 157.955 225.826 162.676C225.826 167.396 229.639 171.223 234.342 171.223Z" fill="#0FB953"/>
<path d="M236.098 40.0438H30.1816V133.939H236.098V40.0438Z" fill="#3F3D56"/>
<path d="M232.7 43.4534H33.5781V128.693H232.7V43.4534Z" fill="white"/>
<path d="M212.449 124.628H193.111V131.185H212.449V124.628Z" fill="#3F3D56"/>
<path d="M192.066 129.612H177.955V131.448H192.066V129.612Z" fill="#0FB953"/>
<path d="M49.7812 75.7135H125.824L137.614 81.4781L156.398 90.6633L168.68 67.5829H203.435" stroke="#3F3D56" stroke-width="2" stroke-miterlimit="10"/>
<path d="M79.6816 75.7136L85.3195 89.0897H99.1692" stroke="#3F3D56" stroke-width="2" stroke-miterlimit="10"/>
<path d="M100.818 75.7136L120.075 65.2225H133.664" stroke="#3F3D56" stroke-width="2" stroke-miterlimit="10"/>
<path d="M79.5706 78.0741C80.8695 78.0741 81.9224 77.0172 81.9224 75.7136C81.9224 74.4099 80.8695 73.3531 79.5706 73.3531C78.2717 73.3531 77.2188 74.4099 77.2188 75.7136C77.2188 77.0172 78.2717 78.0741 79.5706 78.0741Z" fill="#0FB953"/>
<path d="M101.522 78.0741C102.821 78.0741 103.874 77.0172 103.874 75.7136C103.874 74.4099 102.821 73.3531 101.522 73.3531C100.223 73.3531 99.1699 74.4099 99.1699 75.7136C99.1699 77.0172 100.223 78.0741 101.522 78.0741Z" fill="#0FB953"/>
<path d="M137.582 81.4836L139.15 104.826H152.738" stroke="#3F3D56" stroke-width="2" stroke-miterlimit="10"/>
<path d="M163.753 76.8395L148.818 65.2225H162.929" stroke="#3F3D56" stroke-width="2" stroke-miterlimit="10"/>
<path d="M188.422 67.5829L202.912 79.1231H216.5" stroke="#3F3D56" stroke-width="2" stroke-miterlimit="10"/>
<path d="M137.582 83.8442C138.881 83.8442 139.934 82.7874 139.934 81.4837C139.934 80.18 138.881 79.1232 137.582 79.1232C136.283 79.1232 135.23 80.18 135.23 81.4837C135.23 82.7874 136.283 83.8442 137.582 83.8442Z" fill="#0FB953"/>
<path d="M188.278 69.9435C189.577 69.9435 190.629 68.8867 190.629 67.583C190.629 66.2793 189.577 65.2225 188.278 65.2225C186.979 65.2225 185.926 66.2793 185.926 67.583C185.926 68.8867 186.979 69.9435 188.278 69.9435Z" fill="#0FB953"/>
<path d="M163.713 79.1232C165.012 79.1232 166.065 78.0664 166.065 76.7627C166.065 75.459 165.012 74.4022 163.713 74.4022C162.414 74.4022 161.361 75.459 161.361 76.7627C161.361 78.0664 162.414 79.1232 163.713 79.1232Z" fill="#0FB953"/>
<path d="M85.5801 91.1879H99.1685" stroke="#3F3D56" stroke-width="2" stroke-miterlimit="10"/>
<path d="M211.545 23.6796C213.675 23.6796 215.401 21.947 215.401 19.8096C215.401 17.6722 213.675 15.9395 211.545 15.9395C209.416 15.9395 207.689 17.6722 207.689 19.8096C207.689 21.947 209.416 23.6796 211.545 23.6796Z" stroke="#3F3D56" stroke-width="2" stroke-miterlimit="10"/>
<path d="M39.7199 202C61.6566 202 79.4398 198.712 79.4398 194.656C79.4398 190.6 61.6566 187.312 39.7199 187.312C17.7832 187.312 0 190.6 0 194.656C0 198.712 17.7832 202 39.7199 202Z" fill="#F2F2F2"/>
<path d="M66.9982 129.475L59.9121 133.063L60.3707 133.98L67.4566 130.392L66.9982 129.475Z" fill="#0FB953"/>
<path d="M65.8452 122.801L65.5269 124.718C65.5269 124.718 66.0044 137.978 62.5026 133.824C59.0009 129.671 61.3884 124.079 61.3884 124.079L62.3435 122.482L65.8452 122.801Z" fill="#FBBEBE"/>
<path d="M45.4713 61.4542C45.4713 61.4542 44.8346 68.164 44.5163 68.4835C44.1979 68.803 49.2914 74.8738 49.2914 74.8738L53.7482 70.7201C53.7482 70.7201 53.4299 64.6494 54.3849 63.3713C55.3399 62.0932 45.4713 61.4542 45.4713 61.4542Z" fill="#FBBEBE"/>
<path opacity="0.1" d="M45.4713 61.4542C45.4713 61.4542 44.8346 68.164 44.5163 68.4835C44.1979 68.803 49.2914 74.8738 49.2914 74.8738L53.7482 70.7201C53.7482 70.7201 53.4299 64.6494 54.3849 63.3713C55.3399 62.0932 45.4713 61.4542 45.4713 61.4542Z" fill="black"/>
<path d="M33.6931 183.828V189.58L31.4646 189.899L28.2812 188.941L29.2361 182.87L33.6931 183.828Z" fill="#3F3D56"/>
<path d="M30.8282 186.704C30.8282 186.704 29.8732 184.148 28.2815 184.468C26.6897 184.787 26.3714 186.704 26.3714 186.704C26.3714 186.704 25.098 191.497 23.188 193.094C21.2779 194.692 19.3679 198.846 23.188 199.485C27.0081 200.124 30.1915 198.526 30.1915 198.207C30.1915 197.887 31.1465 195.97 32.7383 195.651C34.33 195.331 35.6034 195.012 35.6034 193.733C35.6034 192.455 34.6483 191.177 34.6483 191.177C34.6483 191.177 34.33 185.117 33.6933 185.91C33.253 186.537 32.9294 187.239 32.7383 187.982L30.8282 186.704Z" fill="#2F2E41"/>
<path d="M47.3828 180.953L46.1094 185.746L49.2927 186.385L50.8844 184.787L51.2027 180.633L47.3828 180.953Z" fill="#3F3D56"/>
<path d="M47.0643 185.107C47.0643 185.107 48.3377 184.148 48.9744 184.148H49.9294C49.9294 184.148 49.9294 181.911 51.5211 181.911C53.1128 181.911 52.7945 183.509 52.7945 183.509C52.7945 183.509 56.2963 188.941 57.2513 189.899C58.2063 190.858 63.2998 193.733 59.1614 195.012C55.0229 196.29 52.1578 196.29 50.2477 194.053C50.2477 194.053 48.3377 193.094 47.0643 193.094C45.7909 193.094 44.1992 192.455 44.1992 191.497C44.1992 190.538 45.1542 188.621 45.1542 188.621C45.1542 188.621 45.7909 182.87 46.1093 183.509C46.4276 184.148 47.0643 185.107 47.0643 185.107Z" fill="#2F2E41"/>
<path d="M33.3745 107.464V118.008C33.3745 118.008 29.8727 138.457 29.8727 145.167C29.8727 151.877 24.4609 183.828 27.0076 184.467C29.5544 185.106 35.6029 186.065 35.9212 185.106C36.2396 184.148 38.468 153.794 38.7863 153.474C39.1047 153.155 45.7899 127.913 45.7899 127.913L47.0632 128.233L47.6999 156.989C47.6999 156.989 44.5165 182.87 46.1082 182.87C47.6999 182.87 54.3851 182.55 54.3851 180.633C54.3851 178.716 57.8869 143.25 57.8869 143.25C57.8869 143.25 62.0254 115.133 60.4337 112.257C58.8419 109.381 58.8419 107.784 58.8419 107.784L33.3745 107.464Z" fill="#2F2E41"/>
<path d="M50.7243 66.4065C54.2406 66.4065 57.0911 63.5455 57.0911 60.0162C57.0911 56.487 54.2406 53.626 50.7243 53.626C47.208 53.626 44.3574 56.487 44.3574 60.0162C44.3574 63.5455 47.208 66.4065 50.7243 66.4065Z" fill="#FBBEBE"/>
<path d="M49.2919 71.0398C49.2919 71.0398 45.3126 67.6849 44.9942 66.4068C44.9942 66.4068 42.925 68.4837 42.925 68.8032C42.925 69.1227 34.0114 70.0813 31.783 72.6374C29.5546 75.1935 27.6445 80.6253 27.6445 80.6253L33.0564 90.8497C33.0564 90.8497 33.3747 96.601 33.3747 97.24C33.3747 97.879 31.783 108.104 32.4197 108.423C33.0564 108.743 39.4232 111.938 44.8351 111.299C50.2469 110.66 55.6588 109.701 57.2505 109.701C58.8422 109.701 60.1155 110.34 60.1155 109.701C60.1155 109.062 59.1605 107.784 59.1605 107.145C59.1605 106.506 58.8422 104.908 58.8422 103.95C58.8422 102.991 58.2055 101.394 58.2055 100.116C58.2055 98.8376 65.209 81.5838 65.209 81.5838C65.209 81.5838 64.8907 76.152 59.7972 73.5959C54.7037 71.0398 54.067 70.0813 54.067 70.0813C54.067 70.0813 53.9678 68.1642 53.6991 68.1642C53.4303 68.1642 52.4753 71.0398 49.9286 71.3593L49.2919 71.0398Z" fill="#D0CDE1"/>
<path d="M32.1016 113.535L34.3301 117.05L40.0602 115.772L35.9217 110.979L32.1016 113.535Z" fill="#FBBEBE"/>
<path d="M63.2985 79.0275L65.2085 81.5836C65.2085 81.5836 69.0286 100.115 68.392 106.825C67.7553 113.535 67.1186 118.647 67.1186 118.647C67.1186 118.647 68.392 123.44 67.4369 123.44C66.4819 123.44 60.7517 123.76 60.7517 122.801C60.7517 121.842 61.3884 115.772 61.3884 115.772L59.7967 101.713L56.2949 96.9203L63.2985 79.0275Z" fill="#D0CDE1"/>
<path d="M46.4005 56.9139C46.7908 56.7479 47.2419 56.8826 47.6599 56.8118C48.1507 56.7286 48.5899 56.3636 49.0855 56.4097C49.3204 56.4534 49.5485 56.5278 49.7642 56.6309C49.8724 56.6819 49.9898 56.7104 50.1093 56.7147C50.2288 56.719 50.3479 56.699 50.4595 56.6559C50.5127 56.6311 50.5597 56.5947 50.5971 56.5494C50.6346 56.5042 50.6615 56.4511 50.676 56.3941C50.6905 56.337 50.6921 56.2775 50.6808 56.2197C50.6695 56.162 50.6456 56.1075 50.6107 56.0602C51.03 56.0231 51.4264 55.8518 51.7415 55.5716C51.8043 55.5062 51.8772 55.4513 51.9573 55.4091C52.0508 55.3847 52.1482 55.3797 52.2436 55.3946C52.339 55.4096 52.4303 55.444 52.5119 55.4958L53.2404 55.8329C53.4045 55.891 53.5488 55.9947 53.6567 56.1317C53.7433 56.2673 53.7603 56.4497 53.883 56.5535C54.0396 56.686 54.2737 56.6211 54.478 56.6341C54.6636 56.6523 54.8361 56.7381 54.9628 56.8754C55.0894 57.0127 55.1615 57.1919 55.1652 57.379C55.1623 57.5935 55.0846 57.8567 55.2537 57.9881C55.3517 58.0642 55.491 58.052 55.6059 58.0988C55.9036 58.2202 55.9048 58.6362 55.8608 58.9557C55.8168 59.2752 55.8386 59.6967 56.1446 59.7951C56.3601 59.8643 56.5803 59.7167 56.8042 59.6837C57.142 59.6341 57.4545 59.8461 57.7552 60.0083C58.0558 60.1706 58.4553 60.28 58.7159 60.0587C58.9584 59.8528 58.9428 59.4761 58.8761 59.1643C58.7804 58.7174 58.6232 58.286 58.409 57.8826C58.3298 57.7639 58.2831 57.6263 58.2736 57.4837C58.2918 57.3833 58.331 57.288 58.3885 57.2039C58.4461 57.1198 58.5207 57.0489 58.6076 56.9959C58.976 56.7036 59.3997 56.4093 59.519 55.9534C59.6065 55.6188 59.5081 55.2659 59.5157 54.9201C59.5249 54.4992 59.6917 54.0802 59.6135 53.6666C59.4717 52.917 58.6405 52.5563 58.104 52.0158C57.3666 51.273 57.1273 50.0851 56.2571 49.505C55.561 49.0409 54.6505 49.0963 53.8578 48.8308C52.9869 48.5391 52.286 47.869 51.427 47.5439C50.9581 47.3704 50.4568 47.3031 49.959 47.3469C49.4612 47.3908 48.9792 47.5446 48.5476 47.7974C48.2913 47.9882 48.0052 48.1348 47.7011 48.2315C47.4449 48.2613 47.186 48.2583 46.9306 48.2225C46.4229 48.1963 45.9169 48.301 45.4611 48.5269C45.2866 48.5969 45.1413 48.7248 45.0494 48.8892C44.8956 49.2321 45.119 49.768 44.7819 49.9319C44.6247 50.0083 44.4392 49.9351 44.2646 49.939C43.925 49.9464 43.6638 50.243 43.5023 50.5428C43.3763 50.8598 43.1955 51.1519 42.9681 51.4056C42.5531 51.7705 41.7991 51.8307 41.6906 52.3737C41.6887 52.6035 41.7017 52.8333 41.7295 53.0615C41.6982 53.5426 41.1852 53.9083 41.2119 54.3897C41.2428 54.945 41.9458 55.2163 42.1337 55.7395C42.2768 56.1379 42.0885 56.5687 41.9589 56.9717C41.8294 57.3747 41.7903 57.8913 42.1249 58.1493C42.2561 58.2505 42.4247 58.2919 42.5585 58.3896C42.9048 58.6423 42.9004 59.1524 42.8619 59.5803C42.8398 59.6692 42.8397 59.7621 42.8616 59.851C42.8835 59.9399 42.9268 60.022 42.9877 60.0902C43.0449 60.1249 43.1088 60.147 43.1751 60.155C43.2415 60.163 43.3088 60.1567 43.3725 60.1366C43.5804 60.086 43.7758 59.9933 43.9467 59.8642C44.1176 59.7351 44.2605 59.5723 44.3665 59.3858C44.478 59.2008 44.5004 59.0377 44.7029 58.9396C44.8404 58.8729 45.0073 58.9324 45.1472 58.846C45.8127 58.4347 45.5836 57.2614 46.4005 56.9139Z" fill="#2F2E41"/>
<path d="M28.6005 79.6667L27.6455 80.6253C27.6455 80.6253 21.9153 97.8791 23.8254 101.713C25.7354 105.547 29.5555 115.133 30.8289 114.813C32.1023 114.494 36.5591 111.618 36.5591 111.299C36.5591 110.979 31.1472 102.033 31.1472 102.033C31.1472 102.033 30.5106 100.116 30.8289 99.7962C31.1472 99.4766 31.1472 99.7962 30.8289 99.1571C30.5106 98.5181 30.5106 99.1571 31.1472 98.5181C31.7839 97.8791 31.7839 97.8791 31.7839 97.5596C31.7839 97.24 33.694 89.2522 33.694 89.2522L28.6005 79.6667Z" fill="#D0CDE1"/>
<path d="M33.5352 117.21L40.5389 114.973L41.4938 117.21L33.8537 118.807L33.5352 117.21Z" fill="#2F2E41"/>
<path opacity="0.1" d="M33.5352 117.21L40.5389 114.973L41.4938 117.21L33.8537 118.807L33.5352 117.21Z" fill="black"/>
<path opacity="0.1" d="M43.084 68.9629L48.4958 73.436L49.1326 72.4774L43.084 68.9629Z" fill="black"/>
<path opacity="0.1" d="M53.9078 70.241L50.0879 72.4774L50.4062 73.436L53.9078 70.241Z" fill="black"/>
</svg>
