<svg width="104" height="104" viewBox="0 0 104 104" fill="none" xmlns="http://www.w3.org/2000/svg">
<circle cx="52" cy="52" r="52" fill="#3E3E3E"/>
<path d="M63.9579 29.2325V20.6634L62.1704 22.5745C57.6092 17.3343 44.6036 17.3343 40.104 26.0884C45.5281 21.6497 52.3083 21.6497 57.6092 26.8899L55.8833 29.1709H63.9579V29.2325Z" fill="white"/>
<path d="M40.104 72.8181V81.3873L41.8915 79.4762C46.4527 84.6546 59.4583 84.6546 63.9579 75.9005C58.5338 80.3392 51.7536 80.3392 46.4527 75.0991L48.1786 72.8181H40.104Z" fill="white"/>
<path d="M73.8198 62.9542H82.3875L80.4767 61.1664C85.6543 56.6044 85.6543 43.5965 76.9017 39.0962C81.3397 44.5213 81.3397 51.3026 76.1004 56.6044L73.8198 54.8782V62.9542Z" fill="white"/>
<path d="M23.5233 40.884C18.3457 45.446 18.3457 58.4539 27.0983 62.9542C22.6604 57.5291 22.6604 50.7478 27.8996 45.446L30.1802 47.1722V39.0962H21.6742" fill="white"/>
<path d="M51.9998 36.8767C46.6373 36.8767 32.2756 51.3025 34.8644 61.8444C36.5286 68.5641 39.7955 70.7218 51.9998 70.7218C64.2041 70.7218 67.4709 68.5641 69.1352 61.8444C71.7856 51.3025 57.4239 36.8767 51.9998 36.8767Z" fill="#F1A42A"/>
<path d="M58.3487 32.0066C57.8556 30.9585 56.0064 32.0066 55.4517 32.0066C54.8969 32.0066 53.9724 30.342 52.0616 30.342C50.1508 30.342 49.2263 32.0066 48.6715 32.0066C48.1168 32.0066 46.2676 30.9585 45.7745 32.0066C45.2814 33.0546 47.1306 36.3836 47.1306 36.3836H56.9926C56.9926 36.3836 58.8418 33.0546 58.3487 32.0066Z" fill="#FFC90D"/>
<path d="M56.9308 36.3835H47.0687C46.2674 36.3835 45.5894 37.0617 45.5894 37.8631C45.5894 38.6645 46.2674 39.3427 47.0687 39.3427H56.9308C57.732 39.3427 58.4101 38.6645 58.4101 37.8631C58.4101 37.0617 57.7937 36.3835 56.9308 36.3835Z" fill="#3C3D3F"/>
<path d="M57.3621 58.7004C57.3621 56.1111 55.4513 54.9398 53.6022 54.2V49.3914C54.3418 49.5147 55.1431 49.7613 56.1293 50.1929L56.9306 50.5627V48.3434L56.6225 48.1585C55.9444 47.8502 55.0815 47.4803 53.6022 47.357V45.6309H52.8009V47.357C52.5543 47.357 52.3078 47.357 52.0612 47.357C51.8147 47.357 51.5681 47.357 51.3216 47.4187V45.7542H50.5203V47.542C47.9315 48.0352 46.6987 49.7613 46.6987 51.4258C46.6987 53.7068 48.178 54.8165 50.5203 55.6179V60.7964C49.3492 60.5498 48.3013 60.0566 47.6233 59.5634L46.6987 58.8853V61.5362L46.9453 61.7211C47.3767 62.0294 48.5479 62.7075 50.5203 62.8925V64.6186H51.3216V62.9541C51.4449 62.9541 51.5065 62.9541 51.6298 62.9541C51.9996 62.9541 52.4311 62.9541 52.8009 62.8925V64.6186H53.6022V62.7692C55.6362 62.276 57.3621 61.043 57.3621 58.7004ZM51.9996 49.3298C52.2462 49.3298 52.5543 49.3298 52.8009 49.3298V53.9534C52.4927 53.8301 52.1845 53.7685 51.938 53.7068C51.6914 53.6452 51.5065 53.5835 51.3216 53.5219V49.4531C51.5065 49.3298 51.753 49.3298 51.9996 49.3298ZM49.3492 51.4258C49.3492 50.5627 49.8423 50.0079 50.5203 49.6997V53.152C49.6574 52.7204 49.3492 52.1656 49.3492 51.4258ZM51.6298 60.8581C51.5065 60.8581 51.4449 60.8581 51.3216 60.8581V55.8645C51.4449 55.9262 51.5681 55.9262 51.6914 55.9878C52.1229 56.1111 52.4927 56.2344 52.8009 56.3577V60.7348C52.4311 60.7964 51.9996 60.8581 51.6298 60.8581ZM53.6022 60.3649V56.7276C54.7733 57.4674 54.7733 58.2072 54.7733 58.7004C54.7733 59.3785 54.2802 59.9333 53.6022 60.3649Z" fill="white"/>
</svg>
