<svg width="104" height="104" viewBox="0 0 104 104" fill="none" xmlns="http://www.w3.org/2000/svg">
<circle cx="52" cy="52" r="52" fill="#3E3E3E"/>
<g clip-path="url(#clip0)">
<path d="M67.2771 34C59.1578 34 52.5541 38.8133 52.5541 43.4057C52.5 38.8574 45.8963 34 37.7229 34C29.6037 34 23 39.4756 23 46.2319C23 64.3368 52.5 77.5843 52.5 77.5843C52.5 77.5843 82 64.3368 82 46.2319C82 39.4756 75.3963 34 67.2771 34Z" fill="#FF6161"/>
<path d="M82.0001 46.2319C82.0001 39.4756 75.3965 34 67.2772 34C59.1579 34 52.5543 38.8133 52.5543 43.4057V77.5843C52.5001 77.5402 82.0001 64.3368 82.0001 46.2319Z" fill="#F13547"/>
<path d="M68.0352 56.4324H62.5683C62.46 58.5961 62.0811 60.6274 61.3774 62.4379C62.5141 62.747 63.5967 63.1444 64.6251 63.586C66.5738 61.5989 67.8187 59.126 68.0352 56.4324Z" fill="#F4EBDF"/>
<path d="M60.6735 63.9834C59.9698 65.3082 59.1579 66.5004 58.1836 67.4278C60.0781 66.8095 61.7561 65.9264 63.2175 64.8224C62.4056 64.5133 61.5396 64.2483 60.6735 63.9834Z" fill="#F4EBDF"/>
<path d="M51.4719 56.4324H44.5435C44.6517 58.4195 45.0306 60.2742 45.6802 61.9522C47.5205 61.5547 49.4691 61.334 51.526 61.2898V56.4324H51.4719Z" fill="white"/>
<path d="M51.4718 68.046V62.9236C49.6856 62.9677 47.9534 63.1885 46.3296 63.4976C47.6287 65.9264 49.4149 67.6044 51.4718 68.046Z" fill="white"/>
<path d="M68.0352 54.7542C67.8187 52.0606 66.5738 49.5877 64.6251 47.6006C63.5967 48.0422 62.5141 48.4396 61.3774 48.7487C62.0811 50.5592 62.46 52.5463 62.5683 54.7542H68.0352Z" fill="#F4EBDF"/>
<path d="M53.5288 43.1406V48.263C55.315 48.2188 57.0472 47.998 58.671 47.6889C57.3719 45.2602 55.5857 43.5822 53.5288 43.1406Z" fill="#F4EBDF"/>
<path d="M63.1633 46.3221C61.7019 45.2182 60.0239 44.335 58.1294 43.7168C59.1037 44.6441 59.9698 45.7922 60.6193 47.1612C61.5395 46.9404 62.4055 46.6313 63.1633 46.3221Z" fill="#F4EBDF"/>
<path d="M53.5288 61.2456C55.5316 61.2898 57.5343 61.5547 59.3747 61.908C60.0242 60.2741 60.4031 58.3753 60.5114 56.3882H53.5288V61.2456Z" fill="#F4EBDF"/>
<path d="M59.3747 49.2344C57.5343 49.6318 55.5857 49.8526 53.5288 49.9409V54.7542H60.4573C60.4031 52.767 60.0242 50.8682 59.3747 49.2344Z" fill="#F4EBDF"/>
<path d="M58.671 63.5418C57.0472 63.2327 55.315 63.0119 53.5288 62.9678V68.0901C55.5857 67.6044 57.3719 65.9264 58.671 63.5418Z" fill="#F4EBDF"/>
<path d="M40.3754 63.586C41.4039 63.1444 42.4864 62.747 43.6231 62.4379C42.9195 60.6274 42.5406 58.6403 42.4323 56.4324H36.9653C37.1818 59.126 38.4268 61.5989 40.3754 63.586Z" fill="white"/>
<path d="M40.3754 47.6006C38.4268 49.5877 37.1818 52.0606 36.9653 54.7542H42.4323C42.5406 52.5905 42.9195 50.5592 43.6231 48.7487C42.4864 48.4396 41.4039 48.0422 40.3754 47.6006Z" fill="white"/>
<path d="M41.8369 46.3221C42.6488 46.6313 43.4608 46.8962 44.3268 47.1612C45.0305 45.8364 45.8424 44.6441 46.8167 43.7168C44.9764 44.335 43.2443 45.2182 41.8369 46.3221Z" fill="white"/>
<path d="M46.3296 47.6448C47.9534 47.9539 49.6856 48.1747 51.4718 48.2188V43.1406C49.4149 43.5822 47.6287 45.2602 46.3296 47.6448Z" fill="white"/>
<path d="M46.8167 67.4278C45.8424 66.5004 44.9764 65.3523 44.3268 63.9834C43.4608 64.2042 42.5947 64.5133 41.8369 64.8224C43.2443 65.9705 44.9764 66.8537 46.8167 67.4278Z" fill="white"/>
<path d="M51.4718 49.9409C49.4149 49.8967 47.4663 49.6318 45.626 49.2344C44.9764 50.8682 44.5975 52.767 44.4893 54.7542H51.4177V49.9409H51.4718Z" fill="white"/>
</g>
<defs>
<clipPath id="clip0">
<rect width="59" height="43.5402" fill="white" transform="translate(23 34)"/>
</clipPath>
</defs>
</svg>
