<svg width="104" height="104" viewBox="0 0 104 104" fill="none" xmlns="http://www.w3.org/2000/svg">
<circle cx="52" cy="52" r="52" fill="#3E3E3E"/>
<g clip-path="url(#clip0)">
<path d="M46.5375 63.5103C46.5375 63.5103 34.7713 67.8287 29.5723 61.9989C23.8261 55.6293 29.4629 46.8845 29.4629 46.8845C29.4629 46.8845 26.3982 42.4042 28.642 37.2761C30.8858 32.0941 38.7664 31.7162 38.7664 31.7162C38.7664 31.7162 41.831 20.5964 55.0201 22.1618C68.2092 23.7272 66.6221 33.8214 66.6221 33.8214C66.6221 33.8214 70.9455 32.8498 72.6967 35.9806C74.2291 38.7336 73.1345 41.3246 73.1345 41.3246C73.1345 41.3246 83.8062 45.2112 81.7266 54.9276C79.5922 65.1297 64.5425 62.8626 64.5425 62.8626C64.5425 62.8626 61.2042 67.8827 55.239 67.8827C49.2738 67.8827 46.5375 63.5103 46.5375 63.5103Z" fill="#0D8118"/>
<path d="M46.9756 62.1609C46.9756 62.1609 35.8114 66.2634 30.8313 60.7035C25.3587 54.6577 30.7766 46.3448 30.7766 46.3448C30.7766 46.3448 27.8214 42.1344 29.9557 37.2222C32.09 32.364 39.5875 31.9862 39.5875 31.9862C39.5875 31.9862 42.4333 21.4061 54.9656 22.9176C67.498 24.429 65.9656 33.9834 65.9656 33.9834C65.9656 33.9834 70.0701 33.0658 71.7119 36.0347C73.1895 38.6797 72.1497 41.1088 72.1497 41.1088C72.1497 41.1088 82.2741 44.8334 80.3587 54.01C78.3338 63.6724 64.0502 61.5132 64.0502 61.5132C64.0502 61.5132 60.8761 66.2634 55.2393 66.2634C49.6025 66.2634 46.9756 62.1609 46.9756 62.1609Z" fill="#1E995D"/>
<path d="M76.8558 57.6805C76.8558 57.6805 75.0498 56.0071 72.806 55.1434C71.5473 54.6576 70.4528 54.3337 69.6866 54.1178C73.6816 50.879 75.9254 47.7482 75.9254 47.7482C75.9254 47.7482 69.5772 53.3621 64.4876 56.1151C62.7911 57.0327 60.7115 57.6805 58.7413 58.2203C58.9055 57.4646 59.1791 56.4929 59.3433 55.2514C59.6717 52.9303 59.015 50.6091 59.015 50.6091C59.015 50.6091 58.9055 53.8479 58.2488 55.8452C57.9204 56.9248 57.4826 57.8964 57.209 58.5442C55.5125 58.922 54.0349 59.1379 52.9951 59.2999C52.7762 56.331 52.612 53.2541 52.5573 50.4472C54.418 50.0153 58.9055 48.8278 61.8607 47.1544C62.4627 47.2084 63.3383 47.3163 64.2687 47.5323C66.0747 47.9101 68.5374 49.2056 68.5374 49.2056C68.5374 49.2056 67.0597 47.7482 65.199 47.0464C64.4329 46.7765 63.7214 46.5066 63.1742 46.3447C67.2786 43.3218 68.4279 38.3557 68.4279 38.3557C68.4279 38.3557 66.5125 42.2422 62.408 44.9412C62.3533 44.2935 62.2985 43.3758 62.1344 42.2422C61.806 40.299 60.6568 38.5716 60.6568 38.5716C60.6568 38.5716 61.4229 41.2166 61.4229 43.0519C61.4229 44.0776 61.3135 44.9952 61.2587 45.643C61.0946 45.7509 60.8757 45.8589 60.6568 45.9668C57.4279 47.5323 53.816 48.4499 52.5573 48.7738C52.5025 46.9385 52.5025 45.2111 52.5025 43.7537C52.5573 36.2505 53.5971 28.3154 53.5971 28.3154C53.5971 28.3154 50.6966 33.2276 50.0398 43.6457C48.8906 43.4838 46.9204 43.1599 44.9503 42.3502C44.7861 41.7564 44.6219 41.0007 44.5125 40.137C44.2388 38.3557 44.6219 35.6027 44.6219 35.6027C44.6219 35.6027 43.7463 37.438 43.6916 39.4353C43.6916 40.3529 43.6916 41.1626 43.7463 41.7564C43.3632 41.5405 42.9254 41.3246 42.5423 41.0547C39.4229 39.0034 37.3981 35.5487 37.3981 35.5487C37.3981 35.5487 38.3831 39.8671 42.1592 42.5661C42.2687 42.6201 42.3782 42.6741 42.4329 42.782C41.8309 43.0519 41.0647 43.3758 40.1891 43.8616C38.4379 44.8333 37.1791 46.4527 37.1791 46.4527C37.1791 46.4527 39.4229 44.8333 41.1742 44.2395C42.1592 43.9156 43.0349 43.6457 43.6916 43.5378C46.3184 45.0492 48.8906 45.589 49.9304 45.8049C49.6568 49.5295 49.602 54.6576 49.4379 59.4618C48.0697 59.03 45.2239 58.0583 42.4329 56.4389C42.2687 55.7912 41.8856 54.4957 41.7214 53.0922C41.4478 50.987 41.8856 47.8022 41.8856 47.8022C41.8856 47.8022 40.8458 50.0153 40.7911 52.3365C40.7364 53.632 40.7911 54.7116 40.9005 55.4673C37.5075 52.9842 33.8408 48.234 33.8408 48.234C33.8408 48.234 36.3035 52.7683 39.8607 56.0071C39.1493 56.277 38 56.8168 36.6866 57.5185C34.607 58.6521 33.1294 60.5954 33.1294 60.5954C33.1294 60.5954 35.811 58.7061 37.8359 58.0044C39.1493 57.5185 40.408 57.2486 41.0647 57.0867C41.1742 57.1947 41.3383 57.3026 41.4478 57.4106C43.9105 59.1919 47.6319 60.5954 49.3284 61.2431C49.2737 62.8086 50.2587 66.6951 46.3184 80.9998H58.3582C54.0896 72.2551 53.4329 66.3712 53.0498 61.3511C54.1443 61.1892 55.7314 60.8653 57.5921 60.3255C57.9204 60.4874 58.3035 60.6494 58.6319 60.8653C59.8906 61.567 61.3135 63.3484 61.3135 63.3484C61.3135 63.3484 60.7662 61.5131 59.617 60.4335C59.3981 60.2175 59.1791 60.0556 59.015 59.8937C60.8209 59.2999 62.7364 58.5442 64.5971 57.5725C65.9105 56.8708 67.1145 56.0611 68.209 55.2514C68.9204 55.3054 70.2339 55.4673 71.6568 55.7372C73.8458 56.169 76.8558 57.6805 76.8558 57.6805Z" fill="#F1A42A"/>
<path d="M62.4625 34.901C62.4625 36.2505 61.368 37.3301 59.9998 37.3301C58.6316 37.3301 57.5371 36.2505 57.5371 34.901C57.5371 33.5515 58.6316 32.4719 59.9998 32.4719C61.368 32.4719 62.4625 33.5515 62.4625 34.901Z" fill="#F1A42A"/>
<path d="M61.8058 34.901C61.8058 35.8726 60.9849 36.6823 59.9998 36.6823C59.0147 36.6823 58.1938 35.8726 58.1938 34.901C58.1938 33.9293 59.0147 33.1196 59.9998 33.1196C60.9849 33.1196 61.8058 33.9293 61.8058 34.901Z" fill="white"/>
<path d="M60.1643 32.7418C60.1643 32.8498 60.0548 32.9577 59.9454 32.9577C59.8359 32.9577 59.7265 32.8498 59.7265 32.7418C59.7265 32.6338 59.8359 32.5259 59.9454 32.5259C60.1096 32.5799 60.1643 32.6338 60.1643 32.7418ZM58.5772 33.0117C58.4678 33.0657 58.4678 33.1736 58.5225 33.2816C58.5772 33.3896 58.6867 33.3896 58.7961 33.3356C58.9056 33.2816 58.9056 33.1736 58.8509 33.0657C58.7961 32.9577 58.6867 32.9577 58.5772 33.0117ZM57.7563 34.1993C57.7016 34.3072 57.7563 34.4152 57.8658 34.4152C57.9752 34.4692 58.0847 34.4152 58.0847 34.3072C58.0847 34.1993 58.0847 34.0913 57.9752 34.0913C57.8658 34.0373 57.7563 34.0913 57.7563 34.1993ZM57.7563 35.6027C57.8111 35.7107 57.9205 35.7647 57.9752 35.7107C58.0847 35.6567 58.1394 35.5488 58.0847 35.4948C58.03 35.3868 57.9205 35.3328 57.8658 35.3868C57.7563 35.3868 57.7016 35.4948 57.7563 35.6027ZM58.5772 36.7903C58.6867 36.8443 58.7961 36.8443 58.8509 36.7363C58.9056 36.6284 58.9056 36.5204 58.7961 36.4664C58.6867 36.4124 58.5772 36.4124 58.5225 36.5204C58.5225 36.6284 58.5225 36.7363 58.5772 36.7903ZM60.0001 37.2221C60.1096 37.2221 60.219 37.1142 60.219 37.0062C60.219 36.8982 60.1096 36.7903 60.0001 36.7903C59.8907 36.7903 59.7812 36.8982 59.7812 37.0062C59.7812 37.1142 59.8907 37.2221 60.0001 37.2221ZM61.3683 36.7903C61.4777 36.7363 61.4777 36.6284 61.423 36.5204C61.3683 36.4124 61.2588 36.4124 61.1494 36.4664C61.0399 36.5204 61.0399 36.6284 61.0946 36.7363C61.1494 36.8443 61.3135 36.8443 61.3683 36.7903ZM62.2439 35.6027C62.2986 35.4948 62.2439 35.3868 62.1344 35.3868C62.025 35.3328 61.9155 35.3868 61.9155 35.4948C61.8608 35.6027 61.9155 35.7107 62.025 35.7107C62.0797 35.7647 62.1892 35.7107 62.2439 35.6027ZM62.2439 34.1993C62.1892 34.0913 62.0797 34.0373 62.025 34.0913C61.9155 34.1453 61.8608 34.2532 61.9155 34.3072C61.9703 34.3612 62.0797 34.4692 62.1344 34.4152C62.2439 34.4152 62.2986 34.3072 62.2439 34.1993ZM61.3683 33.0117C61.2588 32.9577 61.1494 32.9577 61.0946 33.0657C61.0399 33.1736 61.0399 33.2816 61.1494 33.3356C61.2588 33.3896 61.3683 33.3896 61.423 33.2816C61.4777 33.1736 61.4777 33.0657 61.3683 33.0117Z" fill="#FFC90D"/>
<path d="M60.821 35.4409C60.821 35.063 60.4927 34.8471 60.219 34.7391V33.9834C60.3285 33.9834 60.4379 34.0374 60.6021 34.0914L60.7116 34.1453V33.8215H60.6569C60.5474 33.7675 60.4379 33.7135 60.1643 33.7135V33.4436H60.0549V33.7135C60.0001 33.7135 60.0001 33.7135 59.9454 33.7135C59.8907 33.7135 59.8907 33.7135 59.836 33.7135V33.4436H59.7265V33.7135C59.2887 33.7675 59.1245 34.0914 59.1245 34.3073C59.1245 34.6851 59.3434 34.8471 59.7265 34.955V35.7647C59.5623 35.7108 59.3981 35.6568 59.2887 35.5488L59.1245 35.4948V35.9267H59.1792C59.234 35.9807 59.4529 36.0886 59.7265 36.0886V36.3585H59.836V36.0886H59.8907C59.9454 36.0886 60.0001 36.0886 60.0549 36.0886V36.3585H60.1643V36.0886C60.5474 36.0346 60.821 35.8187 60.821 35.4409ZM60.0001 33.9834C60.0549 33.9834 60.1096 33.9834 60.1096 33.9834V34.6851C60.0549 34.6851 60.0001 34.6312 59.9454 34.6312C59.8907 34.6312 59.8907 34.6312 59.836 34.5772V33.9294C59.8907 33.9834 59.9454 33.9834 60.0001 33.9834ZM59.5623 34.3073C59.5623 34.1993 59.617 34.0914 59.7265 34.0374V34.5772C59.617 34.5232 59.5623 34.4152 59.5623 34.3073ZM59.9454 35.8187C59.8907 35.8187 59.8907 35.8187 59.9454 35.8187L59.8907 35.063H59.9454C60.0001 35.063 60.0549 35.117 60.1096 35.117V35.8187C60.0549 35.7647 60.0001 35.8187 59.9454 35.8187ZM60.219 35.7108V35.171C60.3832 35.2789 60.3832 35.3869 60.3832 35.4948C60.4379 35.5488 60.3832 35.6568 60.219 35.7108Z" fill="#456785"/>
<path d="M69.1939 50.0695C69.1939 51.419 68.0994 52.4986 66.7312 52.4986C65.3631 52.4986 64.2686 51.419 64.2686 50.0695C64.2686 48.72 65.3631 47.6404 66.7312 47.6404C68.0994 47.6404 69.1939 48.72 69.1939 50.0695Z" fill="#F1A42A"/>
<path d="M68.5372 50.0694C68.5372 51.0411 67.7163 51.8508 66.7313 51.8508C65.7462 51.8508 64.9253 51.0411 64.9253 50.0694C64.9253 49.0978 65.7462 48.2881 66.7313 48.2881C67.7163 48.2881 68.5372 49.0978 68.5372 50.0694Z" fill="white"/>
<path d="M66.9505 47.9642C66.9505 48.0722 66.841 48.1801 66.7316 48.1801C66.6221 48.1801 66.5127 48.0722 66.5127 47.9642C66.5127 47.8562 66.6221 47.7483 66.7316 47.7483C66.841 47.7483 66.9505 47.8562 66.9505 47.9642ZM65.3634 48.1801C65.2539 48.2341 65.2539 48.3421 65.3087 48.45C65.3634 48.558 65.4729 48.558 65.5823 48.504C65.6918 48.45 65.6918 48.3421 65.637 48.2341C65.5823 48.1801 65.4181 48.1261 65.3634 48.1801ZM64.4878 49.3677C64.4331 49.4756 64.4878 49.5836 64.5972 49.5836C64.7067 49.6376 64.8161 49.5836 64.8161 49.4756C64.8161 49.3677 64.8161 49.2597 64.7067 49.2597C64.652 49.2057 64.5425 49.2597 64.4878 49.3677ZM64.4878 50.8251C64.5425 50.9331 64.652 50.9871 64.7067 50.9331C64.8161 50.8791 64.8709 50.7712 64.8161 50.7172C64.7614 50.6092 64.652 50.5552 64.5972 50.6092C64.4878 50.6092 64.4331 50.7172 64.4878 50.8251ZM65.3634 51.9587C65.4729 52.0127 65.5823 52.0127 65.637 51.9047C65.6918 51.7968 65.6918 51.6888 65.5823 51.6348C65.4729 51.5809 65.3634 51.5809 65.3087 51.6888C65.2539 51.7968 65.2539 51.9047 65.3634 51.9587ZM66.7316 52.4445C66.841 52.4445 66.9505 52.3366 66.9505 52.2286C66.9505 52.1207 66.841 52.0127 66.7316 52.0127C66.6221 52.0127 66.5127 52.1207 66.5127 52.2286C66.5674 52.3366 66.6221 52.4445 66.7316 52.4445ZM68.1544 51.9587C68.2639 51.9047 68.2639 51.7968 68.2092 51.6888C68.1544 51.5809 68.045 51.5809 67.9355 51.6348C67.8261 51.6888 67.8261 51.7968 67.8808 51.9047C67.9355 52.0127 68.045 52.0667 68.1544 51.9587ZM68.9753 50.8251C69.0301 50.7172 68.9753 50.6092 68.8659 50.6092C68.7564 50.5552 68.647 50.6092 68.647 50.7172C68.5923 50.8251 68.647 50.9331 68.7564 50.9331C68.8659 50.9871 68.9753 50.9331 68.9753 50.8251ZM68.9753 49.3677C68.9206 49.2597 68.8112 49.2057 68.7564 49.2597C68.647 49.3137 68.5923 49.4217 68.647 49.4756C68.7017 49.5836 68.8112 49.6376 68.8659 49.5836C68.9753 49.5836 69.0301 49.4756 68.9753 49.3677ZM68.1544 48.1801C68.045 48.1261 67.9355 48.1261 67.8808 48.2341C67.8261 48.3421 67.8261 48.45 67.9355 48.504C68.045 48.558 68.1544 48.558 68.2092 48.45C68.2092 48.396 68.2092 48.2881 68.1544 48.1801Z" fill="#FFC90D"/>
<path d="M67.6072 50.6633C67.6072 50.2854 67.2788 50.0695 67.0052 49.9616V49.2058C67.1146 49.2058 67.2241 49.2598 67.3883 49.3138L67.4977 49.3678V48.9899H67.443C67.3335 48.9359 67.2241 48.882 66.9504 48.882V48.6121H66.841V48.882C66.7863 48.882 66.7863 48.882 66.7315 48.882C66.6768 48.882 66.6768 48.882 66.6221 48.882V48.6121H66.5126V48.882C66.0748 48.9359 65.9106 49.2598 65.9106 49.4757C65.9106 49.8536 66.1295 50.0155 66.5126 50.1235V50.9332C66.3485 50.8792 66.1843 50.8252 66.0748 50.7173L65.9106 50.6093V51.0412H65.9654C66.0201 51.0951 66.239 51.2031 66.5126 51.2031V51.473H66.6221V51.2031H66.6768C66.7315 51.2031 66.7863 51.2031 66.841 51.2031V51.473H66.9504V51.2031C67.3335 51.2031 67.6072 51.0412 67.6072 50.6633ZM66.7315 49.2058C66.7863 49.2058 66.841 49.2058 66.841 49.2058V49.9076C66.7863 49.9076 66.7315 49.8536 66.6768 49.8536C66.6221 49.8536 66.6221 49.8536 66.5674 49.7996V49.1519C66.6768 49.2058 66.6768 49.2058 66.7315 49.2058ZM66.2937 49.5297C66.2937 49.4218 66.3485 49.3138 66.4579 49.2598V49.7996C66.3485 49.6917 66.2937 49.6377 66.2937 49.5297ZM66.6768 50.9872C66.6768 50.9872 66.6221 50.9872 66.6768 50.9872L66.6221 50.2315H66.6768C66.7315 50.2315 66.7863 50.2854 66.841 50.2854V50.9872C66.7863 50.9872 66.7315 50.9872 66.6768 50.9872ZM67.0052 50.9332V50.3934C67.1693 50.5014 67.1694 50.6093 67.1694 50.7173C67.1694 50.7713 67.1146 50.8252 67.0052 50.9332Z" fill="#456785"/>
<path d="M78.8809 56.9248C78.8809 58.2743 77.7864 59.3539 76.4183 59.3539C75.0501 59.3539 73.9556 58.2743 73.9556 56.9248C73.9556 55.5753 75.0501 54.4957 76.4183 54.4957C77.7864 54.4418 78.8809 55.5753 78.8809 56.9248Z" fill="#F1A42A"/>
<path d="M78.2242 56.9249C78.2242 57.8965 77.4034 58.7062 76.4183 58.7062C75.4332 58.7062 74.6123 57.8965 74.6123 56.9249C74.6123 55.9533 75.4332 55.1436 76.4183 55.1436C77.4034 55.1436 78.2242 55.9533 78.2242 56.9249Z" fill="white"/>
<path d="M76.5827 54.7657C76.5827 54.8737 76.4733 54.9816 76.3638 54.9816C76.2544 54.9816 76.1449 54.8737 76.1449 54.7657C76.1449 54.6578 76.2544 54.5498 76.3638 54.5498C76.528 54.5498 76.5827 54.6578 76.5827 54.7657ZM74.9957 55.0356C74.8862 55.0896 74.8862 55.1976 74.941 55.3055C74.9957 55.4135 75.1051 55.4135 75.2146 55.3595C75.324 55.3055 75.324 55.1976 75.2693 55.0896C75.2146 54.9816 75.1051 54.9816 74.9957 55.0356ZM74.1748 56.1692C74.1201 56.2772 74.1748 56.3851 74.2842 56.3851C74.3937 56.4391 74.5032 56.3851 74.5032 56.2772C74.5579 56.1692 74.5031 56.0612 74.3937 56.0612C74.2842 56.0073 74.1748 56.0612 74.1748 56.1692ZM74.1748 57.6267C74.2295 57.7346 74.339 57.7886 74.3937 57.7346C74.5031 57.6806 74.5579 57.5727 74.5032 57.5187C74.4484 57.4107 74.339 57.3568 74.2842 57.4107C74.1748 57.4107 74.1201 57.5187 74.1748 57.6267ZM74.9957 58.8142C75.1051 58.8682 75.2146 58.8682 75.2693 58.7602C75.324 58.6523 75.324 58.5443 75.2146 58.4903C75.1051 58.4364 74.9957 58.4364 74.941 58.5443C74.8862 58.5983 74.941 58.7602 74.9957 58.8142ZM76.4186 59.2461C76.528 59.2461 76.6375 59.1381 76.6375 59.0301C76.6375 58.9222 76.528 58.8142 76.4186 58.8142C76.3091 58.8142 76.1997 58.9222 76.1997 59.0301C76.1997 59.1381 76.3091 59.2461 76.4186 59.2461ZM77.7867 58.8142C77.8962 58.7602 77.8962 58.6523 77.8415 58.5443C77.7867 58.4364 77.6773 58.4364 77.5678 58.4903C77.4584 58.5443 77.4584 58.6523 77.5131 58.7602C77.5678 58.8142 77.732 58.8682 77.7867 58.8142ZM78.6623 57.6267C78.7171 57.5187 78.6623 57.4107 78.5529 57.4107C78.4434 57.3568 78.334 57.4107 78.334 57.5187C78.2793 57.6267 78.334 57.7346 78.4434 57.7346C78.4982 57.7886 78.6076 57.7346 78.6623 57.6267ZM78.6623 56.1692C78.6076 56.0612 78.4982 56.0073 78.4434 56.0612C78.334 56.1152 78.2793 56.2232 78.334 56.2772C78.3887 56.3851 78.4982 56.4391 78.5529 56.3851C78.6076 56.3851 78.6623 56.2772 78.6623 56.1692ZM77.7867 55.0356C77.6773 54.9816 77.5678 54.9816 77.5131 55.0896C77.4584 55.1976 77.4584 55.3055 77.5678 55.3595C77.6773 55.4135 77.7867 55.4135 77.8415 55.3055C77.8962 55.1976 77.8962 55.0896 77.7867 55.0356Z" fill="#FFC90D"/>
<path d="M77.2395 57.4646C77.2395 57.0867 76.9111 56.8708 76.6375 56.7628V56.0071C76.747 56.0071 76.8564 56.0611 77.0206 56.1151L77.13 56.169V55.7912H77.0753C76.9659 55.7372 76.8564 55.6832 76.5828 55.6832V55.4133H76.4733V55.6832C76.4186 55.6832 76.4186 55.6832 76.3639 55.6832C76.3091 55.6832 76.3091 55.6832 76.2544 55.6832V55.4133H76.145V55.6832C75.7072 55.7372 75.543 56.0611 75.543 56.277C75.543 56.6549 75.7619 56.8168 76.145 56.9248V57.7345C75.9808 57.6805 75.8166 57.6265 75.7071 57.5185L75.543 57.4106V57.8424H75.5977C75.6524 57.8964 75.8713 58.0044 76.145 58.0044V58.2743H76.2544V58.0044H76.3091C76.3639 58.0044 76.4186 58.0044 76.4733 58.0044V58.2743H76.5828V58.0044C76.9659 58.0044 77.2395 57.8424 77.2395 57.4646ZM76.4186 56.0071C76.4733 56.0071 76.528 56.0071 76.528 56.0071V56.7088C76.4733 56.7088 76.4186 56.6549 76.3639 56.6549C76.3091 56.6549 76.3091 56.6549 76.2544 56.6009V56.0071C76.3091 56.0071 76.3639 56.0071 76.4186 56.0071ZM75.9808 56.331C75.9808 56.223 76.0355 56.1151 76.145 56.0611V56.6009C76.0355 56.5469 75.9808 56.4389 75.9808 56.331ZM76.3639 57.7884C76.3091 57.7884 76.3091 57.7884 76.3639 57.7884L76.3091 57.0327H76.3639C76.4186 57.0327 76.4733 57.0867 76.528 57.0867V57.7884C76.4733 57.7884 76.4186 57.7884 76.3639 57.7884ZM76.6375 57.7345V57.1947C76.8017 57.3026 76.8017 57.4106 76.8017 57.5185C76.8564 57.5725 76.747 57.6805 76.6375 57.7345Z" fill="#456785"/>
<path d="M59.1248 53.9558C60.4849 53.9558 61.5875 52.8683 61.5875 51.5268C61.5875 50.1852 60.4849 49.0977 59.1248 49.0977C57.7647 49.0977 56.6621 50.1852 56.6621 51.5268C56.6621 52.8683 57.7647 53.9558 59.1248 53.9558Z" fill="#F1A42A"/>
<path d="M60.9308 51.5267C60.9308 52.4983 60.1099 53.308 59.1248 53.308C58.1397 53.308 57.3188 52.4983 57.3188 51.5267C57.3188 50.5551 58.1397 49.7454 59.1248 49.7454C60.1646 49.7454 60.9308 50.5551 60.9308 51.5267Z" fill="white"/>
<path d="M59.344 49.3675C59.344 49.4755 59.2346 49.5834 59.1251 49.5834C59.0157 49.5834 58.9062 49.4755 58.9062 49.3675C58.9062 49.2596 59.0157 49.1516 59.1251 49.1516C59.2346 49.2056 59.344 49.3136 59.344 49.3675ZM57.757 49.6374C57.6475 49.6914 57.6475 49.7994 57.7022 49.9073C57.757 50.0153 57.8664 50.0153 57.9759 49.9613C58.0853 49.9073 58.0853 49.7994 58.0306 49.6914C57.9759 49.5835 57.8664 49.5835 57.757 49.6374ZM56.8813 50.825C56.8266 50.9329 56.8813 51.0409 56.9908 51.0409C57.1002 51.0949 57.2097 51.0409 57.2097 50.9329C57.2644 50.825 57.2097 50.717 57.1002 50.717C57.0455 50.663 56.9361 50.717 56.8813 50.825ZM56.8813 52.2285C56.9361 52.3364 57.0455 52.3904 57.1002 52.3364C57.2097 52.2824 57.2644 52.1745 57.2097 52.1205C57.155 52.0665 57.0455 51.9586 56.9908 52.0125C56.9361 52.0665 56.8813 52.1745 56.8813 52.2285ZM57.757 53.416C57.8664 53.47 57.9759 53.47 58.0306 53.362C58.0853 53.2541 58.0853 53.1461 57.9759 53.0921C57.8664 53.0382 57.757 53.0382 57.7022 53.1461C57.6475 53.2541 57.6475 53.362 57.757 53.416ZM59.1251 53.8479C59.2346 53.8479 59.344 53.7399 59.344 53.6319C59.344 53.524 59.2346 53.416 59.1251 53.416C59.0157 53.416 58.9062 53.524 58.9062 53.6319C58.9609 53.7939 59.0157 53.8479 59.1251 53.8479ZM60.548 53.416C60.6575 53.362 60.6575 53.2541 60.6027 53.1461C60.548 53.0382 60.4385 53.0382 60.3291 53.0921C60.2196 53.1461 60.2196 53.2541 60.2744 53.362C60.3291 53.47 60.4385 53.47 60.548 53.416ZM61.3689 52.2285C61.4236 52.1205 61.3689 52.0125 61.2594 52.0125C61.15 51.9586 61.0405 52.0125 61.0405 52.1205C60.9858 52.2285 61.0405 52.3364 61.15 52.3364C61.2594 52.3904 61.3689 52.3364 61.3689 52.2285ZM61.3689 50.825C61.3142 50.717 61.2047 50.663 61.15 50.717C61.0405 50.771 60.9858 50.879 61.0405 50.9329C61.0953 51.0409 61.2047 51.0949 61.2594 51.0409C61.3689 51.0409 61.4236 50.9329 61.3689 50.825ZM60.548 49.6374C60.4385 49.5835 60.3291 49.5835 60.2744 49.6914C60.2196 49.7994 60.2196 49.9073 60.3291 49.9613C60.4385 50.0153 60.548 50.0153 60.6027 49.9073C60.6575 49.8534 60.6027 49.6914 60.548 49.6374Z" fill="#FFC90D"/>
<path d="M60.0007 52.0666C60.0007 51.6887 59.6723 51.4728 59.3987 51.3649V50.6091C59.5081 50.6091 59.6176 50.6631 59.7818 50.7171L59.8912 50.7711V50.3932H59.8365C59.727 50.3392 59.6176 50.2853 59.344 50.2853V50.0693H59.2892V50.3392C59.2345 50.3392 59.2345 50.3392 59.1798 50.3392C59.1251 50.3392 59.1251 50.3392 59.0703 50.3392V50.0693H58.9609V50.3392C58.5231 50.3932 58.3589 50.7171 58.3589 50.933C58.3589 51.3109 58.5778 51.4728 58.9609 51.5808V52.3905C58.7967 52.3365 58.6325 52.2825 58.5231 52.1746L58.3589 52.0666V52.4984H58.4136C58.4683 52.5524 58.6872 52.6604 58.9609 52.6604V52.9303H59.0703V52.7683H59.1251C59.1798 52.7683 59.2345 52.7683 59.2892 52.7683V53.0382H59.3987V52.7683C59.727 52.6604 60.0007 52.4444 60.0007 52.0666ZM59.1251 50.6091C59.1798 50.6091 59.2345 50.6091 59.2345 50.6091V51.3109C59.1798 51.3109 59.1251 51.2569 59.0703 51.2569C59.0156 51.2569 59.0156 51.2569 58.9609 51.2029V50.6091C59.0703 50.6091 59.1251 50.6091 59.1251 50.6091ZM58.742 50.933C58.742 50.8251 58.7967 50.7171 58.9062 50.6631V51.2029C58.7967 51.1489 58.742 51.095 58.742 50.933ZM59.0703 52.4444L59.0156 51.6887H59.0703C59.1251 51.6887 59.1798 51.7427 59.2345 51.7427V52.4444C59.2345 52.4444 59.1251 52.4444 59.0703 52.4444ZM59.3987 52.3365V51.7967C59.5629 51.9047 59.5629 52.0126 59.5629 52.1206C59.5629 52.1745 59.5081 52.2825 59.3987 52.3365Z" fill="#456785"/>
<path d="M44.0748 48.1801C44.0748 49.5296 42.9803 50.6092 41.6121 50.6092C40.2439 50.6092 39.1494 49.5296 39.1494 48.1801C39.1494 46.8306 40.2439 45.751 41.6121 45.751C42.9803 45.751 44.0748 46.8306 44.0748 48.1801Z" fill="#F1A42A"/>
<path d="M43.3634 48.18C43.3634 49.1517 42.5425 49.9614 41.5574 49.9614C40.5724 49.9614 39.7515 49.1517 39.7515 48.18C39.7515 47.2084 40.5724 46.3987 41.5574 46.3987C42.5972 46.3987 43.3634 47.2084 43.3634 48.18Z" fill="white"/>
<path d="M41.7761 46.0209C41.7761 46.1288 41.6667 46.2368 41.5572 46.2368C41.4478 46.2368 41.3383 46.1288 41.3383 46.0209C41.3383 45.9129 41.4478 45.8049 41.5572 45.8049C41.7214 45.8589 41.7761 45.9129 41.7761 46.0209ZM40.1891 46.2908C40.0796 46.3447 40.0796 46.4527 40.1344 46.5607C40.1891 46.6686 40.2985 46.6686 40.408 46.6146C40.5174 46.5606 40.5174 46.4527 40.4627 46.3447C40.408 46.2368 40.2985 46.2368 40.1891 46.2908ZM39.3135 47.4783C39.2587 47.5863 39.3135 47.6942 39.4229 47.6942C39.5324 47.7482 39.6418 47.6942 39.6418 47.5863C39.6965 47.4783 39.6418 47.3703 39.5324 47.3703C39.4776 47.3164 39.3682 47.3703 39.3135 47.4783ZM39.3135 48.8818C39.3682 48.9897 39.4776 49.0437 39.5324 48.9897C39.6418 48.9358 39.6965 48.8278 39.6418 48.7738C39.5871 48.7198 39.4776 48.6119 39.4229 48.6659C39.3682 48.6659 39.3135 48.7738 39.3135 48.8818ZM40.1891 50.0693C40.2985 50.1233 40.408 50.1233 40.4627 50.0154C40.5174 49.9074 40.5174 49.7994 40.408 49.7455C40.2985 49.6915 40.1891 49.6915 40.1344 49.7994C40.0796 49.9074 40.1344 50.0154 40.1891 50.0693ZM41.612 50.5012C41.7214 50.5012 41.8309 50.3932 41.8309 50.2853C41.8309 50.1773 41.7214 50.0693 41.612 50.0693C41.5025 50.0693 41.3931 50.1773 41.3931 50.2853C41.3931 50.4472 41.5025 50.5012 41.612 50.5012ZM42.9801 50.0693C43.0896 50.0154 43.0896 49.9074 43.0349 49.7994C42.9801 49.6915 42.8707 49.6915 42.7612 49.7455C42.6518 49.7994 42.6518 49.9074 42.7065 50.0154C42.7612 50.1233 42.8707 50.1233 42.9801 50.0693ZM43.8557 48.8818C43.9105 48.7738 43.8557 48.6659 43.7463 48.6659C43.6368 48.6119 43.5274 48.6659 43.5274 48.7738C43.4727 48.8818 43.5274 48.9897 43.6368 48.9897C43.6916 49.0437 43.801 48.9897 43.8557 48.8818ZM43.8557 47.4783C43.801 47.3703 43.6916 47.3164 43.6368 47.3703C43.5274 47.4243 43.4727 47.5323 43.5274 47.5863C43.5821 47.6942 43.6916 47.7482 43.7463 47.6942C43.801 47.6402 43.8557 47.5323 43.8557 47.4783ZM42.9801 46.2908C42.8707 46.2368 42.7612 46.2368 42.7065 46.3447C42.6518 46.4527 42.6518 46.5606 42.7612 46.6146C42.8707 46.6686 42.9801 46.6686 43.0349 46.5607C43.0896 46.4527 43.0896 46.3447 42.9801 46.2908Z" fill="#FFC90D"/>
<path d="M42.4328 48.7199C42.4328 48.3421 42.1045 48.1262 41.8309 48.0182V47.2625C41.9403 47.2625 42.0498 47.3165 42.2139 47.3704L42.3234 47.4244V47.0466H42.2687C42.1592 46.9926 42.0498 46.9386 41.7761 46.9386V46.6687H41.6667V46.9386C41.6119 46.9386 41.6119 46.9386 41.5572 46.9386C41.5025 46.9386 41.5025 46.9386 41.4478 46.9386V46.6687H41.3383V46.9386C40.9005 46.9926 40.7363 47.3165 40.7363 47.5324C40.7363 47.9102 40.9552 48.0722 41.3383 48.1801V48.9898C41.1741 48.9359 41.01 48.8819 40.9005 48.7739L40.7363 48.666V49.0978H40.7911C40.8458 49.1518 41.0647 49.2597 41.3383 49.2597V49.5296H41.4478V49.2597H41.5025C41.5572 49.2597 41.6119 49.2597 41.6667 49.2597V49.5296H41.7761V49.2597C42.1592 49.3137 42.4328 49.0978 42.4328 48.7199ZM41.6119 47.2625C41.6667 47.2625 41.7214 47.2625 41.7214 47.2625V47.9642C41.6667 47.9642 41.6119 47.9102 41.5572 47.9102C41.5025 47.9102 41.5025 47.9102 41.4478 47.8563V47.2085C41.5025 47.2625 41.5572 47.2625 41.6119 47.2625ZM41.1741 47.5864C41.1741 47.4784 41.2289 47.3704 41.3383 47.3165V47.8563C41.2289 47.8023 41.1741 47.6943 41.1741 47.5864ZM41.5025 49.0978C41.5025 49.0978 41.5025 49.0438 41.5025 49.0978L41.4478 48.3421H41.5025C41.5572 48.3421 41.6119 48.3961 41.6667 48.3961V49.0978C41.6667 49.0438 41.6119 49.0978 41.5025 49.0978ZM41.8309 48.9898V48.45C41.995 48.558 41.995 48.666 41.995 48.7739C42.0498 48.8279 41.9403 48.9359 41.8309 48.9898Z" fill="#456785"/>
<path d="M37.7813 44.4015C37.7813 45.751 36.6868 46.8306 35.3186 46.8306C33.9505 46.8306 32.856 45.751 32.856 44.4015C32.856 43.052 33.9505 41.9724 35.3186 41.9724C36.6868 41.9724 37.7813 43.052 37.7813 44.4015Z" fill="#F1A42A"/>
<path d="M37.1246 44.4015C37.1246 45.3731 36.3037 46.1828 35.3187 46.1828C34.3336 46.1828 33.5127 45.3731 33.5127 44.4015C33.5127 43.4298 34.3336 42.6201 35.3187 42.6201C36.3037 42.6201 37.1246 43.4298 37.1246 44.4015Z" fill="white"/>
<path d="M35.4827 42.2962C35.4827 42.4042 35.3732 42.5122 35.2637 42.5122C35.1543 42.5122 35.0448 42.4042 35.0448 42.2962C35.0448 42.1883 35.1543 42.0803 35.2637 42.0803C35.3732 42.0803 35.4827 42.1883 35.4827 42.2962ZM33.8956 42.5122C33.7861 42.5661 33.7861 42.6741 33.8409 42.7821C33.8956 42.89 34.005 42.89 34.1145 42.836C34.2239 42.7821 34.2239 42.6741 34.1692 42.5661C34.1145 42.4582 34.005 42.4582 33.8956 42.5122ZM33.0747 43.6997C33.02 43.8077 33.0747 43.9156 33.1841 43.9156C33.2936 43.9696 33.403 43.9156 33.403 43.8077C33.4578 43.6997 33.4031 43.5918 33.2936 43.5918C33.1841 43.5378 33.0747 43.5918 33.0747 43.6997ZM33.0747 45.1572C33.1294 45.2651 33.2389 45.3191 33.2936 45.2651C33.4031 45.2112 33.4578 45.1032 33.403 45.0492C33.3483 44.9413 33.2389 44.8873 33.1841 44.9413C33.0747 44.9413 33.02 45.0492 33.0747 45.1572ZM33.8956 46.2908C34.005 46.3447 34.1145 46.3447 34.1692 46.2368C34.2239 46.1288 34.2239 46.0209 34.1145 45.9669C34.005 45.9129 33.8956 45.9129 33.8409 46.0209C33.7861 46.1288 33.8409 46.2368 33.8956 46.2908ZM35.3185 46.7226C35.4279 46.7226 35.5374 46.6146 35.5374 46.5067C35.5374 46.3987 35.4279 46.2908 35.3185 46.2908C35.209 46.2908 35.0996 46.3987 35.0996 46.5067C35.0996 46.6686 35.209 46.7226 35.3185 46.7226ZM36.6866 46.2908C36.7961 46.2368 36.7961 46.1288 36.7414 46.0209C36.6866 45.9129 36.5772 45.9129 36.4677 45.9669C36.3583 46.0209 36.3583 46.1288 36.413 46.2368C36.4677 46.3447 36.6319 46.3447 36.6866 46.2908ZM37.5623 45.1572C37.617 45.0492 37.5623 44.9413 37.4528 44.9413C37.3433 44.8873 37.2339 44.9413 37.2339 45.0492C37.2339 45.1572 37.2339 45.2651 37.3433 45.2651C37.4528 45.2651 37.5075 45.2112 37.5623 45.1572ZM37.5623 43.6997C37.5075 43.5918 37.3981 43.5378 37.2886 43.5918C37.1792 43.6457 37.1244 43.7537 37.1792 43.8077C37.2339 43.9156 37.3433 43.9696 37.3981 43.9156C37.5075 43.9156 37.5623 43.8077 37.5623 43.6997ZM36.6866 42.5122C36.5772 42.4582 36.4677 42.4582 36.413 42.5661C36.3583 42.6741 36.3583 42.7821 36.4677 42.836C36.5772 42.89 36.6866 42.89 36.7414 42.7821C36.7961 42.7281 36.7961 42.5661 36.6866 42.5122Z" fill="#FFC90D"/>
<path d="M36.1394 44.9953C36.1394 44.6175 35.811 44.4015 35.5374 44.2936V43.5379C35.6469 43.5379 35.7563 43.5919 35.9205 43.6458L36.0299 43.6998V43.322H35.9752C35.8658 43.268 35.7563 43.214 35.4827 43.214V42.9441H35.3732V43.214C35.3185 43.214 35.3185 43.214 35.2638 43.214C35.209 43.214 35.209 43.214 35.1543 43.214V42.9441H35.0449V43.214C34.607 43.268 34.4429 43.5919 34.4429 43.8078C34.4429 44.1856 34.6618 44.3476 35.0449 44.4555V45.2652C34.8807 45.2112 34.7165 45.1573 34.607 45.0493L34.4429 44.9413V45.3732H34.4976C34.5523 45.4272 34.7712 45.5351 35.0449 45.5351V45.805H35.209V45.5351H35.2638C35.3185 45.5351 35.3732 45.5351 35.4279 45.5351V45.805H35.5374V45.5351C35.8658 45.5351 36.1394 45.3192 36.1394 44.9953ZM35.3185 43.4839C35.3732 43.4839 35.4279 43.4839 35.4279 43.4839V44.1856C35.3732 44.1856 35.3185 44.1317 35.2638 44.1317C35.209 44.1317 35.209 44.1317 35.1543 44.0777V43.4299C35.209 43.4839 35.2638 43.4839 35.3185 43.4839ZM34.8807 43.8078C34.8807 43.6998 34.9354 43.5919 35.0449 43.5379V44.0777C34.9354 44.0237 34.8807 43.9697 34.8807 43.8078ZM35.2638 45.3192C35.209 45.3192 35.209 45.3192 35.2638 45.3192L35.209 44.5095H35.2638C35.3185 44.5095 35.3732 44.5635 35.4279 44.5635V45.2652C35.3732 45.3192 35.3185 45.3192 35.2638 45.3192ZM35.5374 45.2112V44.6714C35.7016 44.7794 35.7016 44.8874 35.7016 44.9953C35.7563 45.0493 35.6469 45.1573 35.5374 45.2112Z" fill="#456785"/>
<path d="M40.6817 36.6825C40.6817 38.032 39.5872 39.1116 38.219 39.1116C36.8509 39.1116 35.7563 38.032 35.7563 36.6825C35.7563 35.333 36.8509 34.2534 38.219 34.2534C39.5325 34.2534 40.6817 35.333 40.6817 36.6825Z" fill="#F1A42A"/>
<path d="M39.9703 36.6825C39.9703 37.6541 39.1494 38.4638 38.1644 38.4638C37.1793 38.4638 36.3584 37.6541 36.3584 36.6825C36.3584 35.7108 37.1793 34.9011 38.1644 34.9011C39.1494 34.9011 39.9703 35.7108 39.9703 36.6825Z" fill="white"/>
<path d="M38.3831 34.5233C38.3831 34.6313 38.2736 34.7392 38.1642 34.7392C38.0547 34.7392 37.9453 34.6313 37.9453 34.5233C37.9453 34.4153 38.0547 34.3074 38.1642 34.3074C38.2736 34.3614 38.3831 34.4153 38.3831 34.5233ZM36.796 34.7932C36.6866 34.8472 36.6866 34.9551 36.7413 35.0631C36.796 35.1711 36.9055 35.1711 37.0149 35.1171C37.1244 35.0631 37.1244 34.9551 37.0696 34.8472C37.0149 34.7392 36.8507 34.7392 36.796 34.7932ZM35.9204 35.9807C35.8657 36.0887 35.9204 36.1967 36.0298 36.1967C36.1393 36.2506 36.2488 36.1967 36.2488 36.0887C36.3035 35.9807 36.2488 35.8728 36.1393 35.8728C36.0846 35.8188 35.9751 35.8728 35.9204 35.9807ZM35.9204 37.3842C35.9751 37.4922 36.0846 37.5462 36.1393 37.4922C36.2488 37.4382 36.3035 37.3302 36.2488 37.2763C36.194 37.1683 36.0846 37.1143 36.0298 37.1683C35.9751 37.1683 35.9204 37.2763 35.9204 37.3842ZM36.796 38.5718C36.9055 38.6258 37.0149 38.6258 37.0696 38.5178C37.1244 38.4098 37.1244 38.3019 37.0149 38.2479C36.9055 38.1939 36.796 38.1939 36.7413 38.3019C36.6866 38.3559 36.6866 38.5178 36.796 38.5718ZM38.1642 39.0036C38.2736 39.0036 38.3831 38.8957 38.3831 38.7877C38.3831 38.6797 38.2736 38.5718 38.1642 38.5718C38.0547 38.5718 37.9453 38.6797 37.9453 38.7877C38 38.8957 38.0547 39.0036 38.1642 39.0036ZM39.5871 38.5718C39.6965 38.5178 39.6965 38.4098 39.6418 38.3019C39.5871 38.1939 39.4776 38.1939 39.3682 38.2479C39.2587 38.3019 39.2587 38.4098 39.3134 38.5178C39.3682 38.6258 39.4776 38.6258 39.5871 38.5718ZM40.408 37.3842C40.4627 37.2763 40.408 37.1683 40.2985 37.1683C40.1891 37.1143 40.0796 37.1683 40.0796 37.2763C40.0249 37.3842 40.0796 37.4922 40.1891 37.4922C40.2985 37.5462 40.408 37.4922 40.408 37.3842ZM40.408 35.9807C40.3532 35.8728 40.2438 35.8188 40.1891 35.8728C40.0796 35.9268 40.0249 36.0347 40.0796 36.0887C40.1343 36.1967 40.2438 36.2506 40.2985 36.1967C40.408 36.1427 40.4627 36.0347 40.408 35.9807ZM39.5871 34.7932C39.4776 34.7392 39.3682 34.7392 39.3134 34.8472C39.2587 34.9551 39.2587 35.0631 39.3682 35.1171C39.4776 35.1711 39.5871 35.1711 39.6418 35.0631C39.6965 34.9551 39.6418 34.8472 39.5871 34.7932Z" fill="#FFC90D"/>
<path d="M39.0398 37.2224C39.0398 36.8445 38.7114 36.6286 38.4378 36.5206V35.7649C38.5472 35.7649 38.6567 35.8189 38.8209 35.8729L38.9303 35.9269V35.549H38.8756C38.7661 35.495 38.6567 35.441 38.3831 35.441V35.1711H38.2736V35.441C38.2189 35.441 38.2189 35.441 38.1642 35.441C38.1094 35.441 38.1094 35.441 38.0547 35.441V35.1711H37.9453V35.495C37.5074 35.549 37.3433 35.8729 37.3433 36.0888C37.3433 36.4667 37.5622 36.6286 37.9453 36.7366V37.5463C37.7811 37.4923 37.6169 37.4383 37.5074 37.3303L37.3433 37.2224V37.6542H37.398C37.4527 37.7082 37.6716 37.8162 37.9453 37.8162V38.0861H38.0547V37.8162H38.1094C38.1642 37.8162 38.2189 37.8162 38.2736 37.8162V38.0861H38.3831V37.8162C38.7661 37.8162 39.0398 37.6002 39.0398 37.2224ZM38.1642 35.7649C38.2189 35.7649 38.2736 35.7649 38.2736 35.7649V36.4667C38.2189 36.4667 38.1642 36.4127 38.1094 36.4127C38.0547 36.4127 38.0547 36.4127 38 36.3587V35.7109C38.1094 35.7649 38.1642 35.7649 38.1642 35.7649ZM37.7263 36.0888C37.7263 35.9808 37.7811 35.8729 37.8905 35.8189V36.3587C37.7811 36.3047 37.7263 36.1968 37.7263 36.0888ZM38.1094 37.5463C38.1094 37.5463 38.0547 37.5463 38.1094 37.5463L38.0547 36.7905H38.1094C38.1642 36.7905 38.2189 36.8445 38.2736 36.8445V37.5463C38.2189 37.5463 38.1642 37.5463 38.1094 37.5463ZM38.4378 37.4923V36.9525C38.602 37.0604 38.602 37.1684 38.602 37.2764C38.602 37.3303 38.5472 37.4383 38.4378 37.4923Z" fill="#456785"/>
<path d="M35.2638 49.6376C35.2638 50.9871 34.1692 52.0667 32.8011 52.0667C31.4329 52.0667 30.3384 50.9871 30.3384 49.6376C30.3384 48.2881 31.4329 47.2085 32.8011 47.2085C34.1692 47.2085 35.2638 48.2881 35.2638 49.6376Z" fill="#F1A42A"/>
<path d="M34.6071 49.6375C34.6071 50.6092 33.7862 51.4189 32.8011 51.4189C31.816 51.4189 30.9951 50.6092 30.9951 49.6375C30.9951 48.6659 31.816 47.8562 32.8011 47.8562C33.7862 47.8562 34.6071 48.6659 34.6071 49.6375Z" fill="white"/>
<path d="M33.0198 47.5323C33.0198 47.6403 32.9103 47.7482 32.8009 47.7482C32.6914 47.7482 32.582 47.6403 32.582 47.5323C32.582 47.4244 32.6914 47.3164 32.8009 47.3164C32.9103 47.3164 33.0198 47.4244 33.0198 47.5323ZM31.4327 47.7482C31.3233 47.8022 31.3233 47.9102 31.378 48.0181C31.4327 48.1261 31.5422 48.1261 31.6516 48.0721C31.7611 48.0181 31.7611 47.9102 31.7064 47.8022C31.5969 47.7482 31.4875 47.6943 31.4327 47.7482ZM30.5571 48.9358C30.5024 49.0438 30.5571 49.1517 30.6666 49.1517C30.776 49.2057 30.8855 49.1517 30.8855 49.0438C30.9402 48.9358 30.8855 48.8278 30.776 48.8278C30.7213 48.7739 30.6118 48.8278 30.5571 48.9358ZM30.5571 50.3933C30.6118 50.5012 30.7213 50.5552 30.776 50.5012C30.8855 50.4472 30.9402 50.3393 30.8855 50.2853C30.8307 50.1773 30.7213 50.1234 30.6666 50.1773C30.5571 50.1773 30.5024 50.2853 30.5571 50.3933ZM31.4327 51.5268C31.5422 51.5808 31.6516 51.5808 31.7064 51.4729C31.7611 51.3649 31.7611 51.2569 31.6516 51.203C31.5422 51.149 31.4327 51.203 31.378 51.2569C31.3233 51.3649 31.3233 51.4729 31.4327 51.5268ZM32.8009 52.0127C32.9103 52.0127 33.0198 51.9047 33.0198 51.7967C33.0198 51.6888 32.9103 51.5808 32.8009 51.5808C32.6914 51.5808 32.582 51.6888 32.582 51.7967C32.6367 51.9047 32.6914 52.0127 32.8009 52.0127ZM34.1691 51.5268C34.2785 51.4729 34.2785 51.3649 34.2238 51.2569C34.1691 51.149 34.0596 51.149 33.9501 51.203C33.8407 51.2569 33.8407 51.3649 33.8954 51.4729C34.0049 51.5808 34.1143 51.5808 34.1691 51.5268ZM35.0447 50.3933C35.0994 50.2853 35.0447 50.1773 34.9352 50.1773C34.8258 50.1234 34.7163 50.1773 34.7163 50.2853C34.6616 50.3933 34.7163 50.5012 34.8258 50.5012C34.9352 50.5552 35.0447 50.5012 35.0447 50.3933ZM35.0447 48.9358C34.9899 48.8278 34.8805 48.7739 34.8258 48.8278C34.7163 48.8818 34.6616 48.9898 34.7163 49.0438C34.771 49.1517 34.8805 49.2057 34.9352 49.1517C35.0447 49.1517 35.0994 49.0438 35.0447 48.9358ZM34.1691 47.7482C34.0596 47.6943 33.9501 47.6943 33.8954 47.8022C33.8407 47.9102 33.8407 48.0181 33.9501 48.0721C34.0596 48.1261 34.1691 48.1261 34.2238 48.0181C34.2785 47.9642 34.2785 47.8562 34.1691 47.7482Z" fill="#FFC90D"/>
<path d="M33.6765 50.2314C33.6765 49.8536 33.3481 49.6376 33.0745 49.5297V48.774C33.184 48.774 33.2934 48.8279 33.4576 48.8819L33.567 48.9359V48.558H33.5123C33.4029 48.5041 33.2934 48.4501 33.0198 48.4501V48.1802H32.9103V48.4501C32.8556 48.4501 32.8556 48.4501 32.8009 48.4501C32.7461 48.4501 32.7461 48.4501 32.6914 48.4501V48.1802H32.582V48.4501C32.1442 48.5041 31.98 48.8279 31.98 49.0439C31.98 49.4217 32.1989 49.5837 32.582 49.6916V50.5013C32.4178 50.4473 32.2536 50.3934 32.1442 50.2854L31.98 50.1774V50.6093H32.0347C32.0894 50.6632 32.3083 50.7712 32.582 50.7712V51.1491H32.6914V50.8792H32.7461C32.8009 50.8792 32.8556 50.8792 32.9103 50.8792V51.1491H33.0198V50.8792C33.3481 50.7712 33.6765 50.5553 33.6765 50.2314ZM32.8009 48.72C32.8556 48.72 32.9103 48.72 32.9103 48.72V49.4217C32.8556 49.4217 32.8009 49.3677 32.7461 49.3677C32.6914 49.3677 32.6914 49.3677 32.6367 49.3138V48.666C32.7461 48.774 32.7461 48.72 32.8009 48.72ZM32.3631 49.0439C32.3631 48.9359 32.4178 48.8279 32.5272 48.774V49.3138C32.4178 49.2598 32.3631 49.2058 32.3631 49.0439ZM32.7461 50.5553C32.7461 50.5553 32.6914 50.5553 32.7461 50.5553L32.6914 49.7996H32.7461C32.8009 49.7996 32.8556 49.8536 32.9103 49.8536V50.5553C32.8556 50.5553 32.8009 50.5553 32.7461 50.5553ZM33.0745 50.4473V49.9075C33.2387 50.0155 33.2387 50.1235 33.2387 50.2314C33.2387 50.3394 33.184 50.3934 33.0745 50.4473Z" fill="#456785"/>
<path d="M36.8512 59.3539C36.8512 60.7034 35.7566 61.783 34.3885 61.783C33.0203 61.783 31.9258 60.7034 31.9258 59.3539C31.9258 58.0044 33.0203 56.9248 34.3885 56.9248C35.7566 56.9248 36.8512 58.0044 36.8512 59.3539Z" fill="#F1A42A"/>
<path d="M36.1945 59.3538C36.1945 60.3255 35.3736 61.1352 34.3885 61.1352C33.4034 61.1352 32.5825 60.3255 32.5825 59.3538C32.5825 58.3822 33.4034 57.5725 34.3885 57.5725C35.3736 57.5725 36.1945 58.3822 36.1945 59.3538Z" fill="white"/>
<path d="M34.5525 57.1947C34.5525 57.3026 34.443 57.4106 34.3336 57.4106C34.2241 57.4106 34.1147 57.3026 34.1147 57.1947C34.1147 57.0867 34.2241 56.9788 34.3336 56.9788C34.4978 57.0327 34.5525 57.0867 34.5525 57.1947ZM32.9654 57.4646C32.856 57.5186 32.856 57.6265 32.9107 57.7345C32.9654 57.8424 33.0749 57.8424 33.1843 57.7885C33.2938 57.7345 33.2938 57.6265 33.239 57.5186C33.1843 57.4106 33.0749 57.4106 32.9654 57.4646ZM32.1445 58.6521C32.0898 58.7601 32.1445 58.8681 32.254 58.8681C32.3634 58.922 32.4729 58.8681 32.4729 58.7601C32.5276 58.6521 32.4729 58.5442 32.3634 58.5442C32.254 58.4902 32.1445 58.5442 32.1445 58.6521ZM32.1445 60.0556C32.1992 60.1636 32.3087 60.2176 32.3634 60.1636C32.4729 60.1096 32.5276 60.0016 32.4729 59.9477C32.4729 59.8397 32.3634 59.7857 32.254 59.8397C32.1445 59.8397 32.0898 59.9477 32.1445 60.0556ZM32.9654 61.2432C33.0749 61.2971 33.1843 61.2972 33.239 61.1892C33.2938 61.0812 33.2938 60.9733 33.1843 60.9193C33.1296 60.8653 33.0201 60.8653 32.9654 60.9733C32.856 61.0812 32.9107 61.1892 32.9654 61.2432ZM34.3883 61.675C34.4978 61.675 34.6072 61.567 34.6072 61.4591C34.6072 61.3511 34.4978 61.2432 34.3883 61.2432C34.2788 61.2432 34.1694 61.3511 34.1694 61.4591C34.1694 61.567 34.2788 61.675 34.3883 61.675ZM35.7565 61.2432C35.8659 61.1892 35.8659 61.0812 35.8112 60.9733C35.7565 60.8653 35.647 60.8653 35.5376 60.9193C35.4281 60.9733 35.4281 61.0812 35.4828 61.1892C35.5376 61.2972 35.7017 61.2971 35.7565 61.2432ZM36.6321 60.0556C36.6868 59.9477 36.6321 59.8397 36.5226 59.8397C36.4132 59.7857 36.3037 59.8397 36.3037 59.9477C36.249 60.0556 36.3037 60.1636 36.4132 60.1636C36.4679 60.2176 36.5774 60.1636 36.6321 60.0556ZM36.6321 58.6521C36.5774 58.5442 36.4679 58.4902 36.4132 58.5442C36.3037 58.5982 36.249 58.7061 36.3037 58.7601C36.3584 58.8681 36.4679 58.922 36.5226 58.8681C36.5774 58.8141 36.6321 58.7061 36.6321 58.6521ZM35.7565 57.4646C35.647 57.4106 35.5376 57.4106 35.4828 57.5186C35.4281 57.6265 35.4281 57.7345 35.5376 57.7885C35.647 57.8424 35.7565 57.8424 35.8112 57.7345C35.8659 57.6265 35.8659 57.5186 35.7565 57.4646Z" fill="#FFC90D"/>
<path d="M35.2092 59.8938C35.2092 59.5159 34.8809 59.3 34.6072 59.192V58.4363C34.7167 58.4363 34.8261 58.4903 34.9903 58.5443L35.0998 58.5983V58.2204H35.045C34.9356 58.1664 34.8261 58.1124 34.5525 58.1124V57.8425H34.443V58.1124C34.3883 58.1124 34.3883 58.1124 34.3336 58.1124C34.2789 58.1124 34.2789 58.1124 34.2241 58.1124V57.8425H34.1147V58.1664C33.6769 58.2204 33.5127 58.5443 33.5127 58.7602C33.5127 59.138 33.7316 59.3 34.1147 59.408V60.2177C33.9505 60.1637 33.7863 60.1097 33.6769 60.0017L33.5127 59.8938V60.3256H33.5674C33.6221 60.3796 33.8411 60.4876 34.1147 60.4876V60.7575H34.2241V60.4876H34.2789C34.3336 60.4876 34.3883 60.4876 34.443 60.4876V60.7575H34.5525V60.4876C34.9356 60.4876 35.2092 60.2716 35.2092 59.8938ZM34.3883 58.4363C34.443 58.4363 34.4978 58.4363 34.4978 58.4363V59.1381C34.443 59.1381 34.3883 59.0841 34.3336 59.0841C34.2789 59.0841 34.2789 59.0841 34.2241 59.0301V58.3823C34.2789 58.4363 34.3336 58.4363 34.3883 58.4363ZM33.9505 58.7602C33.9505 58.6522 34.0052 58.5443 34.1147 58.4903V59.0301C34.0052 58.9761 33.9505 58.8681 33.9505 58.7602ZM34.3336 60.2716C34.2789 60.2716 34.2789 60.2177 34.3336 60.2716L34.2789 59.5159H34.3336C34.3883 59.5159 34.443 59.5699 34.4978 59.5699V60.2716C34.443 60.2177 34.3883 60.2716 34.3336 60.2716ZM34.6072 60.1637V59.6239C34.7714 59.7318 34.7714 59.8398 34.7714 59.9478C34.8261 60.0017 34.7167 60.1097 34.6072 60.1637Z" fill="#456785"/>
<path d="M48.1793 33.0657C48.1793 34.4152 47.0848 35.4948 45.7166 35.4948C44.3484 35.4948 43.2539 34.4152 43.2539 33.0657C43.2539 31.7162 44.3484 30.6366 45.7166 30.6366C47.03 30.5826 48.1793 31.7162 48.1793 33.0657Z" fill="#F1A42A"/>
<path d="M47.4679 33.0658C47.4679 34.0374 46.647 34.8471 45.6619 34.8471C44.6769 34.8471 43.856 34.0374 43.856 33.0658C43.856 32.0941 44.6769 31.2844 45.6619 31.2844C46.647 31.2844 47.4679 32.0941 47.4679 33.0658Z" fill="white"/>
<path d="M45.8806 30.9066C45.8806 31.0146 45.7712 31.1225 45.6617 31.1225C45.5523 31.1225 45.4428 31.0146 45.4428 30.9066C45.4428 30.7986 45.5523 30.6907 45.6617 30.6907C45.7712 30.6907 45.8806 30.7986 45.8806 30.9066ZM44.2936 31.1765C44.1841 31.2305 44.1841 31.3384 44.2388 31.4464C44.2936 31.5544 44.403 31.5544 44.5125 31.5004C44.6219 31.4464 44.6219 31.3384 44.5672 31.2305C44.5125 31.1225 44.403 31.1225 44.2936 31.1765ZM43.418 32.3101C43.3632 32.418 43.418 32.526 43.5274 32.526C43.6369 32.58 43.7463 32.526 43.7463 32.418C43.7463 32.3101 43.7463 32.2021 43.6369 32.2021C43.5821 32.1481 43.4727 32.2021 43.418 32.3101ZM43.418 33.7675C43.4727 33.8755 43.5821 33.9295 43.6369 33.8755C43.7463 33.8215 43.801 33.7135 43.7463 33.6596C43.6916 33.6056 43.5821 33.4976 43.5274 33.5516C43.4727 33.5516 43.418 33.6596 43.418 33.7675ZM44.2936 34.9551C44.403 35.0091 44.5125 35.0091 44.5672 34.9011C44.6219 34.7931 44.6219 34.6852 44.5125 34.6312C44.403 34.5772 44.2936 34.5772 44.2388 34.6852C44.1841 34.7392 44.1841 34.8471 44.2936 34.9551ZM45.6617 35.3869C45.7712 35.3869 45.8806 35.279 45.8806 35.171C45.8806 35.063 45.7712 34.9551 45.6617 34.9551C45.5523 34.9551 45.4428 35.063 45.4428 35.171C45.4976 35.279 45.5523 35.3869 45.6617 35.3869ZM47.0846 34.9551C47.1941 34.9011 47.1941 34.7931 47.1393 34.6852C47.0846 34.5772 46.9752 34.5772 46.8657 34.6312C46.7563 34.6852 46.7563 34.7931 46.811 34.9011C46.8657 34.9551 46.9752 35.0091 47.0846 34.9551ZM47.9055 33.7675C47.9602 33.6596 47.9055 33.5516 47.7961 33.5516C47.6866 33.4976 47.5772 33.5516 47.5772 33.6596C47.5772 33.7675 47.5772 33.8755 47.6866 33.8755C47.7961 33.9295 47.9055 33.8755 47.9055 33.7675ZM47.9055 32.3101C47.8508 32.2021 47.7413 32.1481 47.6866 32.2021C47.5772 32.2561 47.5224 32.364 47.5772 32.418C47.6319 32.472 47.7413 32.58 47.7961 32.526C47.9055 32.526 47.9602 32.418 47.9055 32.3101ZM47.0846 31.1765C46.9752 31.1225 46.8657 31.1225 46.811 31.2305C46.7563 31.3384 46.7563 31.4464 46.8657 31.5004C46.9752 31.5544 47.0846 31.5544 47.1393 31.4464C47.1941 31.3384 47.1393 31.2305 47.0846 31.1765Z" fill="#FFC90D"/>
<path d="M46.5378 33.6054C46.5378 33.2276 46.2095 33.0117 45.9358 32.9037V32.148C46.0453 32.148 46.1547 32.202 46.3189 32.2559L46.4284 32.3099V31.9321H46.3736C46.2642 31.8781 46.1547 31.8241 45.8811 31.8241V31.5542H45.7717V31.8241C45.7169 31.8241 45.7169 31.8241 45.6622 31.8241C45.6075 31.8241 45.6075 31.8241 45.5528 31.8241V31.5542H45.4433V31.8241C45.0055 31.8781 44.8413 32.202 44.8413 32.4179C44.8413 32.7957 45.0602 32.9577 45.4433 33.0656V33.8753C45.2791 33.8214 45.1149 33.7674 45.0055 33.6594L44.8413 33.5515V33.9833H44.896C44.9508 34.0373 45.1697 34.1452 45.4433 34.1452V34.4151H45.5528V34.1452H45.6075C45.6622 34.1452 45.7169 34.1452 45.7717 34.1452V34.4151H45.8811V34.1452C46.2642 34.1452 46.5378 33.9833 46.5378 33.6054ZM45.6622 32.148C45.7169 32.148 45.7717 32.148 45.7717 32.148V32.8497C45.7169 32.8497 45.6622 32.7957 45.6075 32.7957C45.6075 32.7957 45.6075 32.7957 45.5528 32.7957V32.148C45.6075 32.148 45.6622 32.148 45.6622 32.148ZM45.2791 32.4719C45.2791 32.3639 45.3338 32.2559 45.4433 32.202V32.7418C45.3338 32.6878 45.2791 32.5798 45.2791 32.4719ZM45.6075 33.9293L45.5528 33.1736H45.6075C45.6622 33.1736 45.7169 33.2276 45.7717 33.2276V33.9293C45.7169 33.9293 45.6622 33.9293 45.6075 33.9293ZM45.9358 33.8753V33.3355C46.1 33.4435 46.1 33.5515 46.1 33.6594C46.1 33.7134 46.0453 33.8214 45.9358 33.8753Z" fill="#456785"/>
<path d="M56.9903 28.3153C56.9903 29.6648 55.8958 30.7444 54.5276 30.7444C53.1595 30.7444 52.0649 29.6648 52.0649 28.3153C52.0649 26.9658 53.1595 25.8862 54.5276 25.8862C55.8958 25.8862 56.9903 26.9658 56.9903 28.3153Z" fill="#F1A42A"/>
<path d="M56.2789 28.3153C56.2789 29.2869 55.458 30.0966 54.473 30.0966C53.4879 30.0966 52.667 29.2869 52.667 28.3153C52.667 27.3436 53.4879 26.5339 54.473 26.5339C55.5128 26.5339 56.2789 27.3436 56.2789 28.3153Z" fill="white"/>
<path d="M54.6921 26.1561C54.6921 26.2641 54.5827 26.372 54.4732 26.372C54.3638 26.372 54.2543 26.2641 54.2543 26.1561C54.2543 26.0481 54.3638 25.9402 54.4732 25.9402C54.6374 25.9942 54.6921 26.0481 54.6921 26.1561ZM53.1051 26.426C52.9956 26.48 52.9956 26.5879 53.0503 26.6959C53.1051 26.8039 53.2145 26.8039 53.324 26.7499C53.4334 26.6959 53.4334 26.5879 53.3787 26.48C53.324 26.372 53.2145 26.372 53.1051 26.426ZM52.2842 27.5596C52.2294 27.6675 52.2842 27.7755 52.3936 27.7755C52.5031 27.8295 52.6125 27.7755 52.6125 27.6675C52.6672 27.5596 52.6125 27.4516 52.5031 27.4516C52.3936 27.4516 52.2842 27.5056 52.2842 27.5596ZM52.2842 29.017C52.3389 29.125 52.4483 29.179 52.5031 29.125C52.6125 29.071 52.6672 28.9631 52.6125 28.9091C52.5578 28.8011 52.4483 28.7471 52.3936 28.8011C52.2842 28.8011 52.2294 28.9091 52.2842 29.017ZM53.1051 30.2046C53.2145 30.2586 53.324 30.2586 53.3787 30.1506C53.4334 30.0427 53.4334 29.9347 53.324 29.8807C53.2145 29.8267 53.1051 29.8267 53.0503 29.9347C52.9956 29.9887 53.0503 30.1506 53.1051 30.2046ZM54.5279 30.6364C54.6374 30.6364 54.7469 30.5285 54.7469 30.4205C54.7469 30.3126 54.6374 30.2046 54.5279 30.2046C54.4185 30.2046 54.309 30.3126 54.309 30.4205C54.309 30.5285 54.4185 30.6364 54.5279 30.6364ZM55.8961 30.2046C56.0056 30.1506 56.0056 30.0427 55.9508 29.9347C55.8961 29.8267 55.7867 29.8267 55.6772 29.8807C55.5677 29.9347 55.5677 30.0427 55.6225 30.1506C55.6772 30.2586 55.7867 30.2586 55.8961 30.2046ZM56.7717 29.017C56.8265 28.9091 56.7717 28.8011 56.6623 28.8011C56.5528 28.7471 56.4434 28.8011 56.4434 28.9091C56.3886 29.017 56.4434 29.125 56.5528 29.125C56.6075 29.179 56.717 29.125 56.7717 29.017ZM56.7717 27.5596C56.717 27.4516 56.6075 27.3976 56.5528 27.4516C56.4434 27.5056 56.3886 27.6136 56.4434 27.6675C56.4981 27.7755 56.6075 27.8295 56.6623 27.7755C56.717 27.7755 56.7717 27.6675 56.7717 27.5596ZM55.8961 26.426C55.7867 26.372 55.6772 26.372 55.6225 26.48C55.5677 26.5879 55.5677 26.6959 55.6772 26.7499C55.7867 26.8039 55.8961 26.8039 55.9508 26.6959C56.0056 26.5879 56.0056 26.48 55.8961 26.426Z" fill="#FFC90D"/>
<path d="M55.3489 28.8552C55.3489 28.4773 55.0205 28.2614 54.7469 28.1535V27.3977C54.8563 27.3977 54.9658 27.4517 55.13 27.5057L55.2394 27.5597V27.2358H55.1847C55.0752 27.1818 54.9658 27.1278 54.6921 27.1278V26.804H54.5827V27.0739C54.528 27.0739 54.528 27.0739 54.4732 27.0739C54.4185 27.0739 54.4185 27.0739 54.3638 27.0739V26.804H54.2543V27.0739C53.8165 27.1278 53.6523 27.4517 53.6523 27.6676C53.6523 28.0455 53.8712 28.2074 54.2543 28.3154V29.1251C54.0902 29.0711 53.926 29.0171 53.8165 28.9092L53.6523 28.8012V29.2331H53.7071C53.7618 29.287 53.9807 29.395 54.2543 29.395V29.6649H54.3638V29.395H54.4185C54.4732 29.395 54.528 29.395 54.5827 29.395V29.6649H54.6921V29.395C55.0752 29.395 55.3489 29.2331 55.3489 28.8552ZM54.528 27.3977C54.5827 27.3977 54.6374 27.3977 54.6374 27.3977V28.0995C54.5827 28.0995 54.528 28.0455 54.4732 28.0455C54.4185 28.0455 54.4185 28.0455 54.3638 27.9915V27.3977C54.4185 27.3977 54.4732 27.3977 54.528 27.3977ZM54.0902 27.7216C54.0902 27.6137 54.1449 27.5057 54.2543 27.4517V27.9915C54.1449 27.9375 54.0902 27.8296 54.0902 27.7216ZM54.4185 29.1791L54.3638 28.4234H54.4185C54.4732 28.4234 54.528 28.4773 54.5827 28.4773V29.1791C54.5827 29.1791 54.528 29.1791 54.4185 29.1791ZM54.7469 29.1251V28.5853C54.9111 28.6933 54.9111 28.8012 54.9111 28.9092C54.9658 28.9632 54.8563 29.0711 54.7469 29.1251Z" fill="#456785"/>
<path d="M68.7019 42.1343C70.0621 42.1343 71.1646 41.0468 71.1646 39.7052C71.1646 38.3637 70.0621 37.2761 68.7019 37.2761C67.3418 37.2761 66.2393 38.3637 66.2393 39.7052C66.2393 41.0468 67.3418 42.1343 68.7019 42.1343Z" fill="#F1A42A"/>
<path d="M70.4533 39.7052C70.4533 40.6768 69.6324 41.4865 68.6473 41.4865C67.6622 41.4865 66.8413 40.6768 66.8413 39.7052C66.8413 38.7335 67.6622 37.9238 68.6473 37.9238C69.6871 37.9238 70.4533 38.7335 70.4533 39.7052Z" fill="white"/>
<path d="M68.8665 37.546C68.8665 37.654 68.757 37.7619 68.6476 37.7619C68.5381 37.7619 68.4287 37.654 68.4287 37.546C68.4287 37.438 68.5381 37.3301 68.6476 37.3301C68.8118 37.3841 68.8665 37.438 68.8665 37.546ZM67.2794 37.8159C67.17 37.8699 67.17 37.9778 67.2247 38.0858C67.2794 38.1938 67.3889 38.1938 67.4983 38.1398C67.6078 38.0858 67.6078 37.9778 67.553 37.8699C67.4983 37.7619 67.3889 37.7619 67.2794 37.8159ZM66.4038 39.0035C66.3491 39.1114 66.4038 39.2194 66.5132 39.2194C66.6227 39.2734 66.7322 39.2194 66.7322 39.1114C66.7869 39.0035 66.7322 38.8955 66.6227 38.8955C66.568 38.8415 66.4585 38.8955 66.4038 39.0035ZM66.4038 40.4069C66.4585 40.5149 66.568 40.5689 66.6227 40.5149C66.7322 40.4609 66.7869 40.3529 66.7322 40.299C66.6774 40.191 66.568 40.137 66.5132 40.191C66.4585 40.245 66.4038 40.3529 66.4038 40.4069ZM67.2794 41.5945C67.3889 41.6485 67.4983 41.6485 67.553 41.5405C67.6078 41.4325 67.6078 41.3246 67.4983 41.2706C67.3889 41.2166 67.2794 41.2166 67.2247 41.3246C67.17 41.4325 67.2247 41.5405 67.2794 41.5945ZM68.7023 42.0263C68.8118 42.0263 68.9212 41.9184 68.9212 41.8104C68.9212 41.7024 68.8118 41.5945 68.7023 41.5945C68.5928 41.5945 68.4834 41.7024 68.4834 41.8104C68.4834 41.9723 68.5928 42.0263 68.7023 42.0263ZM70.0705 41.5945C70.1799 41.5405 70.1799 41.4325 70.1252 41.3246C70.0705 41.2166 69.961 41.2166 69.8516 41.2706C69.7421 41.3246 69.7421 41.4325 69.7968 41.5405C69.8516 41.6485 69.961 41.6485 70.0705 41.5945ZM70.9461 40.4069C71.0008 40.299 70.9461 40.191 70.8366 40.191C70.7272 40.137 70.6177 40.191 70.6177 40.299C70.563 40.4069 70.6177 40.5149 70.7272 40.5149C70.7819 40.5689 70.8914 40.5149 70.9461 40.4069ZM70.9461 39.0035C70.8914 38.8955 70.7819 38.8415 70.7272 38.8955C70.6177 38.9495 70.563 39.0574 70.6177 39.1114C70.6725 39.2194 70.7819 39.2734 70.8366 39.2194C70.8914 39.2194 70.9461 39.1114 70.9461 39.0035ZM70.0705 37.8159C69.961 37.7619 69.8516 37.7619 69.7968 37.8699C69.7421 37.9778 69.7421 38.0858 69.8516 38.1398C69.961 38.1938 70.0705 38.1938 70.1252 38.0858C70.1799 38.0318 70.1799 37.8699 70.0705 37.8159Z" fill="#FFC90D"/>
<path d="M69.5232 40.2451C69.5232 39.8672 69.1948 39.6513 68.9212 39.5433V38.7876C69.0306 38.7876 69.1401 38.8416 69.3043 38.8956L69.4137 38.9496V38.5717H69.359C69.2495 38.5177 69.1401 38.4637 68.8665 38.4637V38.1938H68.757V38.4637C68.7023 38.4637 68.7023 38.4637 68.6476 38.4637C68.5928 38.4637 68.5928 38.4637 68.5381 38.4637V38.1938H68.4286V38.4637C67.9908 38.5177 67.8267 38.8416 67.8267 39.0575C67.8267 39.4354 68.0456 39.5973 68.4286 39.7053V40.515C68.2645 40.461 68.1003 40.407 67.9908 40.2991L67.8267 40.1911V40.6229H67.8814C67.9361 40.6769 68.155 40.7849 68.4286 40.7849V41.0548H68.5381V40.7849H68.5928C68.6476 40.7849 68.7023 40.7849 68.757 40.7849V41.0548H68.8665V40.8928C69.2495 40.8389 69.5232 40.6229 69.5232 40.2451ZM68.7023 38.7876C68.757 38.7876 68.8117 38.7876 68.8117 38.7876V39.4894C68.757 39.4894 68.7023 39.4354 68.6476 39.4354C68.5928 39.4354 68.5928 39.4354 68.5381 39.3814V38.7336C68.5928 38.7876 68.6476 38.7876 68.7023 38.7876ZM68.2645 39.1115C68.2645 39.0035 68.3192 38.8956 68.4286 38.8416V39.3814C68.3192 39.3274 68.2645 39.2734 68.2645 39.1115ZM68.5928 40.6229L68.5381 39.8132H68.5928C68.6476 39.8132 68.7023 39.8672 68.757 39.8672V40.569C68.757 40.569 68.7023 40.6229 68.5928 40.6229ZM68.9212 40.515V39.9752C69.0854 40.0831 69.0854 40.1911 69.0854 40.2991C69.0854 40.353 69.0306 40.461 68.9212 40.515Z" fill="#456785"/>
<path d="M78.8809 48.1801C78.8809 49.5296 77.7864 50.6092 76.4183 50.6092C75.0501 50.6092 73.9556 49.5296 73.9556 48.1801C73.9556 46.8306 75.0501 45.751 76.4183 45.751C77.7864 45.751 78.8809 46.8306 78.8809 48.1801Z" fill="#F1A42A"/>
<path d="M78.2242 48.18C78.2242 49.1517 77.4034 49.9614 76.4183 49.9614C75.4332 49.9614 74.6123 49.1517 74.6123 48.18C74.6123 47.2084 75.4332 46.3987 76.4183 46.3987C77.4034 46.3987 78.2242 47.2084 78.2242 48.18Z" fill="white"/>
<path d="M76.5827 46.0209C76.5827 46.1288 76.4733 46.2368 76.3638 46.2368C76.2544 46.2368 76.1449 46.1288 76.1449 46.0209C76.1449 45.9129 76.2544 45.8049 76.3638 45.8049C76.528 45.8589 76.5827 45.9129 76.5827 46.0209ZM74.9957 46.2908C74.8862 46.3447 74.8862 46.4527 74.941 46.5607C74.9957 46.6686 75.1051 46.6686 75.2146 46.6146C75.324 46.5606 75.324 46.4527 75.2693 46.3447C75.2146 46.2368 75.1051 46.2368 74.9957 46.2908ZM74.1748 47.4783C74.1201 47.5863 74.1748 47.6942 74.2842 47.6942C74.3937 47.7482 74.5032 47.6942 74.5032 47.5863C74.5579 47.4783 74.5031 47.3703 74.3937 47.3703C74.2842 47.3164 74.1748 47.3703 74.1748 47.4783ZM74.1748 48.8818C74.2295 48.9897 74.339 49.0437 74.3937 48.9897C74.5031 48.9358 74.5579 48.8278 74.5032 48.7738C74.4484 48.6659 74.339 48.6119 74.2842 48.6659C74.1748 48.6659 74.1201 48.7738 74.1748 48.8818ZM74.9957 50.0693C75.1051 50.1233 75.2146 50.1233 75.2693 50.0154C75.324 49.9074 75.324 49.7994 75.2146 49.7455C75.1051 49.6915 74.9957 49.6915 74.941 49.7994C74.8862 49.9074 74.941 50.0154 74.9957 50.0693ZM76.4186 50.5012C76.528 50.5012 76.6375 50.3932 76.6375 50.2853C76.6375 50.1773 76.528 50.0693 76.4186 50.0693C76.3091 50.0693 76.1997 50.1773 76.1997 50.2853C76.1997 50.4472 76.3091 50.5012 76.4186 50.5012ZM77.7867 50.0693C77.8962 50.0154 77.8962 49.9074 77.8415 49.7994C77.7867 49.6915 77.6773 49.6915 77.5678 49.7455C77.4584 49.7994 77.4584 49.9074 77.5131 50.0154C77.5678 50.1233 77.732 50.1233 77.7867 50.0693ZM78.6623 48.8818C78.7171 48.7738 78.6623 48.6659 78.5529 48.6659C78.4434 48.6119 78.334 48.6659 78.334 48.7738C78.2793 48.8818 78.334 48.9897 78.4434 48.9897C78.4982 49.0437 78.6076 48.9897 78.6623 48.8818ZM78.6623 47.4783C78.6076 47.3703 78.4982 47.3164 78.4434 47.3703C78.334 47.4243 78.2793 47.5323 78.334 47.5863C78.3887 47.6942 78.4982 47.7482 78.5529 47.6942C78.6076 47.6402 78.6623 47.5323 78.6623 47.4783ZM77.7867 46.2908C77.6773 46.2368 77.5678 46.2368 77.5131 46.3447C77.4584 46.4527 77.4584 46.5606 77.5678 46.6146C77.6773 46.6686 77.7867 46.6686 77.8415 46.5607C77.8962 46.4527 77.8962 46.3447 77.7867 46.2908Z" fill="#FFC90D"/>
<path d="M77.2395 48.7199C77.2395 48.3421 76.9111 48.1262 76.6375 48.0182V47.2625C76.747 47.2625 76.8564 47.3165 77.0206 47.3704L77.13 47.4244V47.0466H77.0753C76.9659 46.9926 76.8564 46.9386 76.5828 46.9386V46.6687H76.4733V46.9386C76.4186 46.9386 76.4186 46.9386 76.3639 46.9386C76.3091 46.9386 76.3091 46.9386 76.2544 46.9386V46.6687H76.145V46.9386C75.7072 46.9926 75.543 47.3165 75.543 47.5324C75.543 47.9102 75.7619 48.0722 76.145 48.1801V48.9898C75.9808 48.9359 75.8166 48.8819 75.7071 48.7739L75.543 48.666V49.0978H75.5977C75.6524 49.1518 75.8713 49.2597 76.145 49.2597V49.5296H76.2544V49.2597H76.3091C76.3639 49.2597 76.4186 49.2597 76.4733 49.2597V49.5296H76.5828V49.2597C76.9659 49.3137 77.2395 49.0978 77.2395 48.7199ZM76.4186 47.2625C76.4733 47.2625 76.528 47.2625 76.528 47.2625V47.9642C76.4733 47.9642 76.4186 47.9102 76.3639 47.9102C76.3091 47.9102 76.3091 47.9102 76.2544 47.8563V47.2085C76.3091 47.2625 76.3639 47.2625 76.4186 47.2625ZM75.9808 47.5864C75.9808 47.4784 76.0355 47.3704 76.145 47.3165V47.8563C76.0355 47.8023 75.9808 47.6943 75.9808 47.5864ZM76.3639 49.0978C76.3091 49.0978 76.3091 49.0438 76.3639 49.0978L76.3091 48.3421H76.3639C76.4186 48.3421 76.4733 48.3961 76.528 48.3961V49.0978C76.4733 49.0438 76.4186 49.0978 76.3639 49.0978ZM76.6375 48.9898V48.45C76.8017 48.558 76.8017 48.666 76.8017 48.7739C76.8564 48.8279 76.747 48.9359 76.6375 48.9898Z" fill="#456785"/>
<path d="M58.7413 42.5122C58.7413 43.8617 57.6468 44.9413 56.2786 44.9413C54.9104 44.9413 53.8159 43.8617 53.8159 42.5122C53.8159 41.1627 54.9104 40.0832 56.2786 40.0832C57.592 40.0292 58.7413 41.1627 58.7413 42.5122Z" fill="#F1A42A"/>
<path d="M58.0299 42.5123C58.0299 43.4839 57.209 44.2936 56.2239 44.2936C55.2389 44.2936 54.418 43.4839 54.418 42.5123C54.418 41.5407 55.2389 40.731 56.2239 40.731C57.2637 40.731 58.0299 41.4867 58.0299 42.5123Z" fill="white"/>
<path d="M56.4431 40.3531C56.4431 40.4611 56.3337 40.569 56.2242 40.569C56.1148 40.569 56.0053 40.4611 56.0053 40.3531C56.0053 40.2452 56.1148 40.1372 56.2242 40.1372C56.3337 40.1372 56.4431 40.2452 56.4431 40.3531ZM54.8561 40.623C54.7466 40.677 54.7466 40.785 54.8013 40.8929C54.8561 41.0009 54.9655 41.0009 55.075 40.9469C55.1844 40.8929 55.1844 40.785 55.1297 40.677C55.075 40.569 54.9655 40.5151 54.8561 40.623ZM53.9805 41.7566C53.9257 41.8646 53.9805 41.9725 54.0899 41.9725C54.1994 42.0265 54.3088 41.9725 54.3088 41.8646C54.3635 41.7566 54.3088 41.6486 54.1994 41.6486C54.1446 41.5947 54.0352 41.6486 53.9805 41.7566ZM53.9805 43.2141C54.0352 43.322 54.1446 43.376 54.1994 43.322C54.3088 43.268 54.3635 43.1601 54.3088 43.1061C54.2541 42.9981 54.1446 42.9442 54.0899 42.9981C54.0352 42.9981 53.9805 43.1061 53.9805 43.2141ZM54.8561 44.3476C54.9655 44.4016 55.075 44.4016 55.1297 44.2937C55.1844 44.1857 55.1844 44.0777 55.075 44.0238C54.9655 43.9698 54.8561 43.9698 54.8013 44.0777C54.7466 44.1857 54.7466 44.2937 54.8561 44.3476ZM56.2242 44.8335C56.3337 44.8335 56.4431 44.7255 56.4431 44.6175C56.4431 44.5096 56.3337 44.4016 56.2242 44.4016C56.1148 44.4016 56.0053 44.5096 56.0053 44.6175C56.0053 44.7255 56.1148 44.8335 56.2242 44.8335ZM57.6471 44.3476C57.7566 44.2937 57.7566 44.1857 57.7018 44.0777C57.6471 43.9698 57.5377 43.9698 57.4282 44.0238C57.3188 44.0777 57.3188 44.1857 57.3735 44.2937C57.4282 44.4016 57.5377 44.4556 57.6471 44.3476ZM58.468 43.2141C58.5227 43.1061 58.468 42.9981 58.3586 42.9981C58.2491 42.9442 58.1397 42.9981 58.1397 43.1061C58.0849 43.2141 58.1397 43.322 58.2491 43.322C58.3586 43.376 58.468 43.322 58.468 43.2141ZM58.468 41.7566C58.4133 41.6486 58.3038 41.5947 58.2491 41.6486C58.1397 41.7026 58.0849 41.8106 58.1397 41.8646C58.1944 41.9725 58.3038 42.0265 58.3586 41.9725C58.4133 41.9185 58.5227 41.8646 58.468 41.7566ZM57.6471 40.623C57.5377 40.569 57.4282 40.569 57.3735 40.677C57.3188 40.785 57.3188 40.8929 57.4282 40.9469C57.5377 41.0009 57.6471 41.0009 57.7018 40.8929C57.7566 40.785 57.7018 40.677 57.6471 40.623Z" fill="#FFC90D"/>
<path d="M57.0998 43.0519C57.0998 42.6741 56.7715 42.4582 56.4978 42.3502V41.5945C56.6073 41.5945 56.7168 41.6485 56.8809 41.7024L56.9904 41.7564V41.4325H56.9357C56.8262 41.3786 56.7168 41.3246 56.4431 41.3246V41.0547H56.3337V41.3246C56.2789 41.3246 56.2789 41.3246 56.2242 41.3246C56.1695 41.3246 56.1695 41.3246 56.1148 41.3246V41.0547H56.0053V41.3246C55.5675 41.3786 55.4033 41.7024 55.4033 41.9184C55.4033 42.2962 55.6222 42.4582 56.0053 42.5661V43.3758C55.8411 43.3218 55.677 43.2679 55.5675 43.1599L55.4033 43.0519V43.4838H55.458C55.5128 43.5378 55.7317 43.6457 56.0053 43.6457V43.9156H56.1148V43.6457H56.1695C56.2242 43.6457 56.2789 43.6457 56.3337 43.6457V43.9156H56.4431V43.6457C56.8262 43.5917 57.0998 43.4298 57.0998 43.0519ZM56.2242 41.5945C56.2789 41.5945 56.3337 41.5945 56.3337 41.5945V42.2962C56.2789 42.2962 56.2242 42.2422 56.1695 42.2422C56.1148 42.2422 56.1148 42.2422 56.06 42.1883V41.5405C56.1695 41.5945 56.2242 41.5945 56.2242 41.5945ZM55.8411 41.9184C55.8411 41.8104 55.8959 41.7024 56.0053 41.6485V42.1883C55.8959 42.0803 55.8411 42.0263 55.8411 41.9184ZM56.1695 43.3758L56.1148 42.6201H56.1695C56.2242 42.6201 56.2789 42.6741 56.3337 42.6741V43.3758C56.3337 43.3758 56.2242 43.3758 56.1695 43.3758ZM56.4978 43.3218V42.782C56.662 42.89 56.662 42.998 56.662 43.1059C56.662 43.1599 56.6073 43.2139 56.4978 43.3218Z" fill="#456785"/>
<path d="M48.4527 53.848C48.4527 55.1975 47.3582 56.2771 45.99 56.2771C44.6219 56.2771 43.5273 55.1975 43.5273 53.848C43.5273 52.4985 44.6219 51.4189 45.99 51.4189C47.3582 51.4189 48.4527 52.4985 48.4527 53.848Z" fill="#F1A42A"/>
<path d="M47.796 53.848C47.796 54.8196 46.9751 55.6293 45.9901 55.6293C45.005 55.6293 44.1841 54.8196 44.1841 53.848C44.1841 52.8763 45.005 52.0667 45.9901 52.0667C46.9751 52.1206 47.796 52.8763 47.796 53.848Z" fill="white"/>
<path d="M46.154 51.7428C46.154 51.8507 46.0446 51.9587 45.9351 51.9587C45.8257 51.9587 45.7162 51.8507 45.7162 51.7428C45.7162 51.6348 45.8257 51.5269 45.9351 51.5269C46.0993 51.5269 46.154 51.6348 46.154 51.7428ZM44.567 51.9587C44.4575 52.0127 44.4575 52.1206 44.5122 52.2286C44.567 52.3366 44.6764 52.3366 44.7859 52.2826C44.8953 52.2286 44.8953 52.1206 44.8406 52.0127C44.7859 51.9587 44.6764 51.9047 44.567 51.9587ZM43.7461 53.1463C43.6914 53.2542 43.7461 53.3622 43.8555 53.3622C43.965 53.4162 44.0744 53.3622 44.0744 53.2542C44.1292 53.1463 44.0744 53.0383 43.965 53.0383C43.8555 52.9843 43.7461 53.0383 43.7461 53.1463ZM43.7461 54.6037C43.8008 54.7117 43.9103 54.7656 43.965 54.7117C44.0744 54.6577 44.1292 54.5497 44.0744 54.4957C44.0197 54.3878 43.9103 54.3338 43.8555 54.3878C43.7461 54.3878 43.6914 54.4957 43.7461 54.6037ZM44.567 55.7373C44.6764 55.7913 44.7859 55.7913 44.8406 55.6833C44.8953 55.5753 44.8953 55.4674 44.7859 55.4134C44.6764 55.3594 44.567 55.3594 44.5122 55.4674C44.4575 55.5753 44.5122 55.6833 44.567 55.7373ZM45.9899 56.2231C46.0993 56.2231 46.2088 56.1151 46.2088 56.0072C46.2088 55.8992 46.0993 55.7913 45.9899 55.7913C45.8804 55.7913 45.771 55.8992 45.771 56.0072C45.771 56.1151 45.8804 56.2231 45.9899 56.2231ZM47.358 55.7373C47.4675 55.6833 47.4675 55.5753 47.4127 55.4674C47.358 55.3594 47.2486 55.3594 47.1391 55.4134C47.0297 55.4674 47.0297 55.5753 47.0844 55.6833C47.1391 55.7913 47.3033 55.8452 47.358 55.7373ZM48.2336 54.6037C48.2884 54.4957 48.2336 54.3878 48.1242 54.3878C48.0147 54.3338 47.9053 54.3878 47.9053 54.4957C47.8506 54.6037 47.9053 54.7117 48.0147 54.7117C48.0695 54.7656 48.1789 54.7117 48.2336 54.6037ZM48.2336 53.1463C48.1789 53.0383 48.0695 52.9843 48.0147 53.0383C47.9053 53.0923 47.8506 53.2002 47.9053 53.2542C47.96 53.3622 48.0695 53.4162 48.1242 53.3622C48.1789 53.3622 48.2336 53.2542 48.2336 53.1463ZM47.358 51.9587C47.2486 51.9047 47.1391 51.9047 47.0844 52.0127C47.0297 52.1206 47.0297 52.2286 47.1391 52.2826C47.2486 52.3366 47.358 52.3366 47.4127 52.2286C47.4675 52.1746 47.4675 52.0667 47.358 51.9587Z" fill="#FFC90D"/>
<path d="M46.8112 54.4419C46.8112 54.064 46.4829 53.8481 46.2092 53.7401V52.9844C46.3187 52.9844 46.4281 53.0384 46.5923 53.0924L46.7018 53.1463V52.7685C46.5923 52.7145 46.4829 52.6605 46.2092 52.6605V52.3906H46.0998V52.6605C46.0451 52.6605 46.0451 52.6605 45.9903 52.6605C45.9356 52.6605 45.9356 52.6605 45.8809 52.6605V52.3906H45.7714V52.6605C45.3336 52.7145 45.1694 53.0384 45.1694 53.2543C45.1694 53.6322 45.3883 53.7941 45.7714 53.9021V54.7118C45.6072 54.6578 45.4431 54.6038 45.3336 54.4958L45.1694 54.3879V54.8197H45.2242C45.2789 54.8737 45.4978 54.9817 45.7714 54.9817V55.2516H45.8809V54.9817H45.9356C45.9903 54.9817 46.0451 54.9817 46.0998 54.9817V55.2516H46.2092V54.9817C46.5376 54.9817 46.8112 54.8197 46.8112 54.4419ZM45.9903 52.9844C46.0451 52.9844 46.0998 52.9844 46.0998 52.9844V53.6861C46.0451 53.6861 45.9903 53.6322 45.9356 53.6322C45.8809 53.6322 45.8809 53.6322 45.8262 53.5782V52.9304C45.8809 52.9844 45.9356 52.9844 45.9903 52.9844ZM45.5525 53.3083C45.5525 53.2003 45.6072 53.0924 45.7167 53.0384V53.5782C45.6072 53.4702 45.5525 53.4162 45.5525 53.3083ZM45.9356 54.7657C45.8809 54.7657 45.8809 54.7657 45.9356 54.7657L45.8809 54.01H45.9356C45.9903 54.01 46.0451 54.064 46.0998 54.064V54.7657C46.0451 54.7657 45.9903 54.7657 45.9356 54.7657ZM46.2092 54.7118V54.172C46.3734 54.2799 46.3734 54.3879 46.3734 54.4958C46.4281 54.5498 46.3187 54.6038 46.2092 54.7118Z" fill="#456785"/>
<path d="M69.7413 58.3822C69.7413 59.7317 68.6468 60.8113 67.2786 60.8113C65.9104 60.8113 64.8159 59.7317 64.8159 58.3822C64.8159 57.0327 65.9104 55.9531 67.2786 55.9531C68.6468 55.9531 69.7413 57.0327 69.7413 58.3822Z" fill="#F1A42A"/>
<path d="M69.0846 58.3822C69.0846 59.3538 68.2637 60.1635 67.2786 60.1635C66.2935 60.1635 65.4727 59.3538 65.4727 58.3822C65.4727 57.4105 66.2935 56.6008 67.2786 56.6008C68.2637 56.6008 69.0846 57.4105 69.0846 58.3822Z" fill="white"/>
<path d="M67.4431 56.223C67.4431 56.331 67.3337 56.4389 67.2242 56.4389C67.1147 56.4389 67.0053 56.331 67.0053 56.223C67.0053 56.115 67.1147 56.0071 67.2242 56.0071C67.3884 56.0611 67.4431 56.115 67.4431 56.223ZM65.856 56.4929C65.7466 56.5469 65.7466 56.6548 65.8013 56.7628C65.856 56.8708 65.9655 56.8708 66.0749 56.8168C66.1844 56.7628 66.1844 56.6548 66.1297 56.5469C66.0749 56.4389 65.9655 56.4389 65.856 56.4929ZM65.0351 57.6805C64.9804 57.7884 65.0351 57.8964 65.1446 57.8964C65.254 57.9504 65.3635 57.8964 65.3635 57.7884C65.4182 57.6805 65.3635 57.5725 65.254 57.5725C65.1446 57.5185 65.0351 57.5725 65.0351 57.6805ZM65.0351 59.0839C65.0899 59.1919 65.1993 59.2459 65.254 59.1919C65.3635 59.1379 65.4182 59.03 65.3635 58.976C65.3088 58.868 65.1993 58.814 65.1446 58.868C65.0351 58.922 64.9804 59.03 65.0351 59.0839ZM65.856 60.2715C65.9655 60.3255 66.0749 60.3255 66.1297 60.2175C66.1844 60.1096 66.1844 60.0016 66.0749 59.9476C65.9655 59.8936 65.856 59.8936 65.8013 60.0016C65.7466 60.1096 65.8013 60.2175 65.856 60.2715ZM67.2789 60.7033C67.3884 60.7033 67.4978 60.5954 67.4978 60.4874C67.4978 60.3795 67.3884 60.2715 67.2789 60.2715C67.1695 60.2715 67.06 60.3795 67.06 60.4874C67.06 60.6494 67.1695 60.7033 67.2789 60.7033ZM68.6471 60.2715C68.7565 60.2175 68.7565 60.1096 68.7018 60.0016C68.6471 59.8936 68.5376 59.8936 68.4282 59.9476C68.3187 60.0016 68.3187 60.1096 68.3735 60.2175C68.4282 60.3255 68.5376 60.3255 68.6471 60.2715ZM69.5227 59.0839C69.5774 58.976 69.5227 58.868 69.4133 58.868C69.3038 58.814 69.1943 58.868 69.1943 58.976C69.1396 59.0839 69.1943 59.1919 69.3038 59.1919C69.3585 59.2459 69.468 59.1919 69.5227 59.0839ZM69.5227 57.6805C69.468 57.5725 69.3585 57.5185 69.3038 57.5725C69.1943 57.6265 69.1396 57.7344 69.1943 57.7884C69.2491 57.8964 69.3585 57.9504 69.4133 57.8964C69.468 57.8964 69.5227 57.7884 69.5227 57.6805ZM68.6471 56.4929C68.5376 56.4389 68.4282 56.4389 68.3735 56.5469C68.3187 56.6548 68.3187 56.7628 68.4282 56.8168C68.5376 56.8708 68.6471 56.8708 68.7018 56.7628C68.7565 56.6548 68.7565 56.5469 68.6471 56.4929Z" fill="#FFC90D"/>
<path d="M68.0998 58.9221C68.0998 58.5442 67.7715 58.3283 67.4978 58.2203V57.4646C67.6073 57.4646 67.7167 57.5186 67.8809 57.5726L67.9904 57.6266V57.2487H67.9357C67.8262 57.1947 67.7168 57.1407 67.4431 57.1407V56.8708H67.3337V57.1407C67.2789 57.1407 67.2789 57.1407 67.2242 57.1407C67.1695 57.1407 67.1695 57.1407 67.1148 57.1407V56.8708H67.0053V57.1407C66.5675 57.1947 66.4033 57.5186 66.4033 57.7345C66.4033 58.1124 66.6222 58.2743 67.0053 58.3823V59.246C66.8411 59.192 66.677 59.138 66.5675 59.03L66.4033 58.9761V59.4079H66.458C66.5128 59.4619 66.7317 59.5698 67.0053 59.5698V59.8397H67.1148V59.5698H67.1695C67.2242 59.5698 67.2789 59.5698 67.3337 59.5698V59.8397H67.4978V59.5698C67.8262 59.5159 68.0998 59.2999 68.0998 58.9221ZM67.2789 57.4646C67.3337 57.4646 67.3884 57.4646 67.3884 57.4646V58.1664C67.3337 58.1664 67.2789 58.1124 67.2242 58.1124C67.1695 58.1124 67.1695 58.1124 67.1148 58.0584V57.4106C67.1695 57.4646 67.2242 57.4646 67.2789 57.4646ZM66.8411 57.7885C66.8411 57.6805 66.8959 57.5726 67.0053 57.5186V58.0584C66.8959 58.0044 66.8411 57.9504 66.8411 57.7885ZM67.1695 59.2999L67.1148 58.5442H67.1695C67.2242 58.5442 67.2789 58.5982 67.3337 58.5982V59.246C67.3337 59.246 67.2789 59.2999 67.1695 59.2999ZM67.4978 59.192V58.6522C67.662 58.7601 67.662 58.8681 67.662 58.9761C67.7168 59.03 67.6073 59.138 67.4978 59.192Z" fill="#456785"/>
</g>
<defs>
<clipPath id="clip0">
<rect width="55" height="59" fill="white" transform="translate(27 22)"/>
</clipPath>
</defs>
</svg>
