<svg width="104" height="104" viewBox="0 0 104 104" fill="none" xmlns="http://www.w3.org/2000/svg">
<circle cx="52" cy="52" r="52" fill="#3E3E3E"/>
<g clip-path="url(#clip0)">
<path d="M78.878 45.5346C82.9964 60.5329 73.8692 76.0185 58.3974 80.0253C42.9257 84.0321 27.0644 75.1522 22.946 60.0997C18.8277 45.1014 27.9549 29.6158 43.4266 25.609C58.8983 21.6023 74.7596 30.5363 78.878 45.5346Z" fill="#00B4C8"/>
<path d="M79.7127 48.8373C79.9353 48.7832 79.3788 48.9456 79.7127 48.8373C79.7683 48.8373 79.657 48.8373 79.7127 48.8373Z" fill="#FFDC00"/>
<path d="M34.8556 52.1944C34.9112 52.5734 34.9669 51.9237 34.9669 51.7612C34.7999 51.9778 34.7999 51.9778 34.8556 52.1944C34.8556 52.1944 34.7999 52.1944 34.8556 52.1944Z" fill="#FFDC00"/>
<path d="M32.6869 31.1318C32.6279 31.1318 32.6869 31.1892 32.6869 31.1318V31.1318Z" fill="#FFDC00"/>
<path d="M36.4142 71.5786C36.2472 71.3079 36.5255 71.8494 36.4142 71.5786C36.3585 71.5245 36.4142 71.5786 36.4142 71.5786Z" fill="#FFDC00"/>
<path d="M36.4702 71.687C36.5259 71.7953 36.5259 71.7412 36.4702 71.687V71.687Z" fill="#FFDC00"/>
<path d="M36.3585 71.3078C36.2472 71.416 36.4142 71.2536 36.3585 71.3078V71.3078Z" fill="#FFDC00"/>
<path d="M30.4031 44.8309C30.6257 44.9392 30.1805 44.6685 30.4031 44.8309C30.4031 44.8309 30.4031 44.7768 30.4031 44.8309Z" fill="#FFDC00"/>
<path d="M37.3044 32.9186C37.527 32.8645 37.4714 33.081 37.7496 33.081C37.4714 32.9186 37.0261 32.9186 37.3044 32.9186C37.3044 32.9186 37.2488 32.9186 37.3044 32.9186Z" fill="#FFDC00"/>
<path d="M40.3659 31.1317C40.4215 31.1317 40.2545 31.0776 40.3659 31.1317V31.1317Z" fill="#FFDC00"/>
<path d="M37.3047 32.0524C37.3047 32.0524 37.3603 31.89 37.3047 32.0524V32.0524Z" fill="#FFDC00"/>
<path d="M63.5735 29.8865C63.6848 29.7782 63.3509 30.1572 63.5735 29.8865C63.5735 29.8865 63.5735 29.9406 63.5735 29.8865Z" fill="#FFDC00"/>
<path d="M56.0039 37.521C56.0039 37.5751 56.1709 37.521 56.0039 37.521C56.0039 37.521 56.0596 37.521 56.0039 37.521Z" fill="#FFDC00"/>
<path d="M30.5704 51.3824C30.9044 51.5449 30.5704 51.22 30.5148 51.1658C30.4035 51.1117 30.4591 51.3283 30.5704 51.3824C30.6817 51.4366 30.5704 51.3824 30.5704 51.3824Z" fill="#FFDC00"/>
<path d="M42.369 37.088C43.0925 37.088 42.202 37.0339 42.369 37.088C42.4246 37.088 42.369 37.088 42.369 37.088Z" fill="#FFDC00"/>
<path d="M41.2558 33.677C41.2002 33.7853 41.3672 33.7311 41.2558 33.677V33.677Z" fill="#FFDC00"/>
<path d="M33.0194 30.7529C33.1307 30.7529 32.9081 30.8071 33.0194 30.7529V30.7529Z" fill="#FFDC00"/>
<path d="M36.0244 32.2687C36.3027 32.2146 36.0244 32.2687 36.0244 32.2687V32.2687Z" fill="#FFDC00"/>
<path d="M34.5219 32.0526C34.6332 31.9985 34.4106 32.0526 34.5219 32.0526C34.5775 32.0526 34.5219 32.0526 34.5219 32.0526Z" fill="#FFDC00"/>
<path d="M71.6431 33.1893C71.6987 33.1351 71.6431 33.1351 71.6431 33.1893V33.1893Z" fill="#FFDC00"/>
<path d="M64.1855 42.8814C64.2968 42.7189 64.0741 43.0438 64.1855 42.8814C64.1855 42.8814 64.1298 42.9355 64.1855 42.8814Z" fill="#FFDC00"/>
<path d="M64.1851 43.0439C64.2407 43.0439 65.2425 42.9356 65.0199 43.2063C64.9085 43.3687 65.0199 43.3146 64.9642 43.5853C64.9642 43.5312 64.2407 43.0439 64.1851 43.0439Z" fill="#FFDC00"/>
<path d="M60.6233 42.4482C60.7346 42.1234 60.4007 41.7985 60.9016 41.7443C60.679 41.636 60.679 41.2029 61.0129 41.2029C61.5694 41.2029 60.345 43.098 60.6233 42.4482C60.6233 42.3941 60.5676 42.4482 60.6233 42.4482Z" fill="#FFDC00"/>
<path d="M59.288 42.1777C59.3437 41.9611 59.2324 42.3401 59.288 42.1777C59.288 42.1777 59.288 42.2318 59.288 42.1777Z" fill="#FFDC00"/>
<path d="M58.8424 42.2855C58.7867 42.1772 59.1763 42.1231 59.1763 42.2314C59.2319 42.448 58.8424 42.5021 58.8424 42.2855C58.8424 42.2855 58.8424 42.3397 58.8424 42.2855Z" fill="#FFDC00"/>
<path d="M63.4063 36.5463C63.4063 36.5463 63.6289 35.8966 63.7402 36.1673C63.7402 36.2756 63.3507 36.6546 63.4063 36.5463Z" fill="#FFDC00"/>
<path d="M62.5156 37.0879C62.5712 36.9255 62.4599 37.1421 62.5156 37.0879V37.0879Z" fill="#FFDC00"/>
<path d="M70.2511 32.9186C70.3068 32.8644 70.8633 32.7561 70.6963 32.9186C70.585 33.0268 70.1398 33.0268 70.2511 32.9186Z" fill="#FFDC00"/>
<path d="M65.7437 29.724C65.7993 29.724 66.3002 29.6698 66.1332 29.7781C66.0219 29.8323 65.7437 29.724 65.7437 29.724Z" fill="#FFDC00"/>
<path d="M65.2429 29.9949C65.4655 30.3198 65.1872 29.8866 65.2429 29.9949V29.9949Z" fill="#FFDC00"/>
<path d="M65.0198 29.724C65.1868 29.5074 64.9085 29.8323 65.0198 29.724C65.0198 29.724 64.9641 29.724 65.0198 29.724Z" fill="#FFDC00"/>
<path d="M63.4612 31.1858C63.2386 31.0775 63.5169 31.1317 63.4612 31.1858C63.4612 31.1858 63.5169 31.1858 63.4612 31.1858Z" fill="#FFDC00"/>
<path d="M64.6863 30.5903C64.4637 30.8611 64.7976 30.482 64.6863 30.5903C64.6863 30.6445 64.7419 30.5903 64.6863 30.5903Z" fill="#FFDC00"/>
<path d="M64.909 30.103C64.6864 29.9405 64.9646 30.103 64.909 30.103C64.909 30.103 64.9646 30.103 64.909 30.103Z" fill="#FFDC00"/>
<path d="M61.625 29.8863C62.1259 29.9404 61.4581 29.9946 61.5694 29.6697C61.5694 29.6155 62.2372 29.6697 62.2929 29.6697C62.4042 29.7238 62.1816 29.7238 62.1816 29.7238C62.1259 29.7238 62.8494 29.778 62.7381 29.778C62.4042 29.399 63.406 29.8321 63.4616 29.778C63.4616 29.7238 63.072 29.7238 63.072 29.6155C63.072 29.5614 63.072 29.5614 63.1277 29.5073C63.1834 29.399 64.9643 29.6697 64.9643 29.6697C64.853 29.9404 63.9069 29.8321 63.6842 29.778C63.6842 29.9404 64.5747 30.1029 64.5747 30.157C64.5747 30.3736 63.7399 30.2653 63.6842 30.2653C63.3503 29.6155 62.5155 31.0775 62.1816 30.157C62.1259 30.0487 62.5155 30.0487 62.5712 29.9946C62.5712 29.9946 62.5712 29.9946 62.5712 29.9404C62.7381 30.2653 61.4024 29.8863 61.625 29.8863C61.6807 29.8863 61.625 29.8863 61.625 29.8863Z" fill="#FFDC00"/>
<path d="M35.7457 29.7244C35.6344 29.8327 35.1891 29.7244 35.7457 29.7244V29.7244Z" fill="#FFDC00"/>
<path d="M35.4678 31.9441C35.3008 32.2148 35.4678 31.9982 35.4678 31.9441C35.4678 31.9982 35.4678 31.9441 35.4678 31.9441Z" fill="#FFDC00"/>
<path d="M35.8575 31.9439C35.2453 32.2146 36.1358 31.8356 35.8575 31.9439C35.8575 31.9439 35.9132 31.9439 35.8575 31.9439Z" fill="#FFDC00"/>
<path d="M41.3676 32.2687C41.8128 32.3228 41.0893 32.6477 40.8667 32.6477C40.8667 32.377 41.0893 32.2145 41.3676 32.2687C41.3676 32.2687 41.3119 32.2145 41.3676 32.2687Z" fill="#FFDC00"/>
<path d="M41.2002 31.944C41.5341 31.7274 41.0332 32.1065 41.2002 31.944C41.2558 31.944 41.2002 31.9982 41.2002 31.944Z" fill="#FFDC00"/>
<path d="M40.6439 32.0523C40.6996 31.9981 41.1448 31.7274 41.1448 31.7815C41.2561 31.9981 40.5883 32.1606 40.6439 32.0523Z" fill="#FFDC00"/>
<path d="M40.5317 32.2688C41.0326 32.1605 40.5317 32.323 40.5317 32.2688C40.5317 32.2688 40.5317 32.323 40.5317 32.2688Z" fill="#FFDC00"/>
<path d="M36.6923 37.0338C36.6923 37.2504 36.3027 37.1421 36.3027 37.0338C36.3027 36.9796 36.6923 36.8714 36.6923 37.0338Z" fill="#FFDC00"/>
<path d="M38.4178 34.0017C38.3065 34.0558 37.9725 34.2182 37.9169 34.0017C37.8612 33.7309 39.0856 33.7851 38.4178 34.0017C38.4178 34.0558 38.5291 34.0017 38.4178 34.0017Z" fill="#FFDC00"/>
<path d="M39.0851 34.164C39.0294 34.2182 38.7512 34.4889 38.7512 34.2182C38.6955 33.8933 39.3077 34.0016 39.0851 34.164Z" fill="#FFDC00"/>
<path d="M39.809 33.7849C39.3082 33.6766 39.809 33.7308 39.809 33.7849C39.809 33.7849 39.809 33.7308 39.809 33.7849Z" fill="#FFDC00"/>
<path d="M39.8091 33.5684C39.7534 33.3518 39.9204 33.8933 39.8091 33.5684V33.5684Z" fill="#FFDC00"/>
<path d="M40.0875 33.7849C39.9206 34.0015 40.1988 33.5684 40.0875 33.7849V33.7849Z" fill="#FFDC00"/>
<path d="M40.5328 34.0015C40.4215 34.2181 40.5885 33.839 40.5328 34.0015V34.0015Z" fill="#FFDC00"/>
<path d="M41.6452 34.7597C41.5339 35.1388 41.6452 34.489 41.6452 34.7597C41.5895 34.7597 41.6452 34.7056 41.6452 34.7597Z" fill="#FFDC00"/>
<path d="M42.6473 34.4345C42.4804 34.7594 42.8143 34.0555 42.6473 34.4345C42.6473 34.4887 42.6473 34.3804 42.6473 34.4345Z" fill="#FFDC00"/>
<path d="M40.8104 39.416C40.5878 39.8492 40.0313 39.2536 40.1983 39.1994C40.2539 39.1994 40.2539 39.1453 40.3096 39.1453C40.1983 39.1453 40.8104 39.4701 40.8104 39.416Z" fill="#FFDC00"/>
<path d="M34.7446 48.0796C35.1342 48.0796 34.7446 48.1337 34.7446 48.0796V48.0796Z" fill="#FFDC00"/>
<path d="M33.5199 46.7798C33.9651 46.4008 33.6312 47.1047 33.6868 47.1047C33.6312 47.0505 33.4642 46.8339 33.5199 46.7798C33.5199 46.7798 33.4642 46.8339 33.5199 46.7798Z" fill="#FFDC00"/>
<path d="M31.9062 47.9168C31.5166 47.9709 32.3514 47.8085 31.9062 47.9168C31.9062 47.9168 31.9618 47.8626 31.9062 47.9168Z" fill="#FFDC00"/>
<path d="M33.7981 49.1622C33.6868 49.3247 33.1859 49.2164 33.1302 49.0539C33.0189 48.7832 33.965 48.9456 33.7981 49.1622C33.7424 49.2164 33.7981 49.1622 33.7981 49.1622Z" fill="#FFDC00"/>
<path d="M33.9097 48.4582C33.7427 48.4041 33.5201 48.4582 33.3531 48.4582C33.4088 48.35 33.6314 48.2958 33.5757 48.1875C33.5201 47.9168 32.24 47.8085 32.1844 47.5919C32.1844 47.5378 32.2957 47.5378 32.2957 47.5378C32.1287 47.4295 31.2939 47.7002 31.2383 47.7544C31.9618 47.1588 34.4662 47.5378 34.5775 48.4041C34.6332 48.4582 33.9097 48.4582 33.9097 48.4582C33.9097 48.4582 34.0766 48.5124 33.9097 48.4582Z" fill="#FFDC00"/>
<path d="M36.3029 49.0543C36.3585 49.0002 35.2454 49.3251 35.3011 49.3251C35.4124 49.3251 34.2993 48.946 34.2993 49.0002C34.2993 48.7836 34.9672 48.946 35.0228 48.946C34.9115 48.7836 34.9672 48.946 34.8002 48.946C34.8559 48.946 34.8002 48.6212 34.7445 48.5129C34.9672 48.4587 36.6368 48.6753 36.3029 49.0543Z" fill="#FFDC00"/>
<path d="M37.4161 51.7071C37.2492 52.0861 37.5275 51.4905 37.4161 51.7071C37.4161 51.7613 37.4161 51.7071 37.4161 51.7071Z" fill="#FFDC00"/>
<path d="M37.1374 49.1082C37.1374 49.2706 36.6922 49.3789 36.5809 49.2706C36.5252 49.2165 36.5809 49.1623 36.5809 49.1082C36.6922 49.054 37.1374 48.9999 37.1374 49.1082C37.1374 49.2165 37.1374 49.1082 37.1374 49.1082Z" fill="#FFDC00"/>
<path d="M38.3061 51.8695C38.1391 51.9778 38.3617 52.2485 37.9722 52.0861C37.9722 52.0319 38.3617 51.6529 38.3061 51.8695Z" fill="#FFDC00"/>
<path d="M38.1951 51.3825C37.9725 51.4907 38.2508 51.3283 38.1951 51.3825C38.1394 51.3825 38.1951 51.3283 38.1951 51.3825Z" fill="#FFDC00"/>
<path d="M38.1396 49.4873C38.251 49.5956 38.251 49.5956 38.1396 49.4873V49.4873Z" fill="#FFDC00"/>
<path d="M37.8056 49.2164C37.9169 48.9456 37.6943 49.5412 37.8056 49.2164C37.8056 49.2164 37.8056 49.2705 37.8056 49.2164Z" fill="#FFDC00"/>
<path d="M38.4174 50.6785C38.4174 50.7868 38.2505 51.0575 38.1948 50.9492C38.1948 50.8409 38.5287 50.6243 38.4174 50.6785Z" fill="#FFDC00"/>
<path d="M38.4736 50.5159C38.3066 50.7325 38.6962 50.2452 38.4736 50.5159C38.4736 50.5701 38.4736 50.5159 38.4736 50.5159Z" fill="#FFDC00"/>
<path d="M38.4177 50.1912C38.1951 50.7327 38.529 49.9205 38.4177 50.1912V50.1912Z" fill="#FFDC00"/>
<path d="M38.4176 49.866C38.3063 50.4075 38.4733 49.7036 38.4176 49.866C38.4176 49.866 38.4733 49.8119 38.4176 49.866Z" fill="#FFDC00"/>
<path d="M38.5286 44.1269C38.4729 44.1811 38.1947 44.6143 38.0834 44.4518C37.9721 44.2352 38.6399 43.9645 38.5286 44.1269Z" fill="#FFDC00"/>
<path d="M41.6458 73.7986C41.5345 73.9069 41.0337 74.2317 41.0893 73.9069C40.978 74.1234 40.5884 74.0151 40.6441 73.7986C40.6997 73.6903 40.811 73.8527 40.9223 73.7986C40.8667 73.7986 40.7554 73.7444 40.7554 73.6903C40.8667 73.5278 41.2006 73.6361 41.145 73.8527C41.145 73.7986 41.8128 73.582 41.6458 73.7986C41.5902 73.7986 41.6458 73.7444 41.6458 73.7986Z" fill="#FFDC00"/>
<path d="M41.1448 39.037C40.7553 39.4702 41.2005 38.9287 41.1448 39.037C41.1448 39.037 41.1448 38.9829 41.1448 39.037Z" fill="#FFDC00"/>
<path d="M41.2561 38.5498C41.2004 38.7122 40.5326 38.3332 40.5883 38.2249C40.6996 38.0625 41.3118 38.3874 41.2561 38.5498Z" fill="#FFDC00"/>
<path d="M42.4803 39.2537C42.4247 39.4161 42.4803 39.3078 42.4803 39.2537C42.4803 39.3078 42.4803 39.2537 42.4803 39.2537Z" fill="#FFDC00"/>
<path d="M43.5934 38.4955L43.3151 38.8204C43.4264 38.8746 43.4821 38.6038 43.5934 38.658C43.7047 38.7121 43.3708 38.8746 43.3708 38.9287C43.3708 38.9287 43.5377 38.7663 43.5377 38.8746C43.649 39.037 43.0925 39.6326 43.2038 39.2536C43.2038 39.2536 43.0369 39.416 43.0369 39.3077C43.0369 39.3077 43.2038 39.037 43.2038 38.9828C43.2038 38.9828 42.536 39.4702 42.5916 39.1994C42.5916 39.1994 42.8142 39.0911 42.8142 39.037C42.8142 39.037 41.6455 38.9828 41.6455 38.9287C41.6455 38.658 43.3151 37.7916 43.3151 37.6833C43.3151 37.7916 42.7586 38.0082 42.7029 38.2248C42.7586 38.1707 42.9812 38.0624 43.0369 38.1707C43.0925 38.2248 42.9255 38.279 42.8699 38.3331C43.0925 38.4414 43.5934 38.3331 43.5934 38.4955Z" fill="#FFDC00"/>
<path d="M50.1606 42.3402C49.9937 42.4485 50.1606 42.2861 50.1606 42.3402C50.1606 42.3402 50.1606 42.2861 50.1606 42.3402Z" fill="#FFDC00"/>
<path d="M50.6617 42.7188C50.5504 42.9353 50.7174 42.5022 50.6617 42.7188V42.7188Z" fill="#FFDC00"/>
<path d="M52.4979 46.2926C52.4422 46.2384 52.3865 46.1301 52.4979 46.2926V46.2926Z" fill="#FFDC00"/>
<path d="M52.498 46.076C52.498 46.1301 52.665 45.7511 52.498 46.076V46.076Z" fill="#FFDC00"/>
<path d="M52.6647 46.1301C52.5534 46.4009 52.7203 46.0218 52.6647 46.1301V46.1301Z" fill="#FFDC00"/>
<path d="M52.8878 46.1302C52.7765 45.9678 52.9435 46.0761 52.8878 46.1302V46.1302Z" fill="#FFDC00"/>
<path d="M53.1658 46.1301C53.1658 46.2926 52.9432 46.455 53.1658 46.1301C53.1658 46.1843 53.1658 46.1301 53.1658 46.1301Z" fill="#FFDC00"/>
<path d="M52.6093 44.3435C52.2754 44.3977 53.0545 44.2894 52.6093 44.3435C52.6093 44.3435 52.7206 44.3435 52.6093 44.3435Z" fill="#FFDC00"/>
<path d="M52.8875 44.614C52.6649 44.7223 53.1101 44.5057 52.8875 44.614C52.8875 44.614 52.9432 44.614 52.8875 44.614Z" fill="#FFDC00"/>
<path d="M53.8339 45.8052C53.667 45.9135 53.6113 46.0218 53.5 46.1842C53.5557 45.9135 53.7783 45.9135 53.8339 45.8052Z" fill="#FFDC00"/>
<path d="M55.0578 36.1134C54.8908 36.0592 55.1691 36.1134 55.0578 36.1134C55.0021 36.0592 55.0578 36.0592 55.0578 36.1134Z" fill="#FFDC00"/>
<path d="M54.5572 34.1101C54.4459 34.2726 53.3885 34.1101 53.3329 34.056C53.2772 33.9477 53.4998 33.9477 53.5555 33.8394C53.4442 33.8936 53.4442 33.7311 53.4998 33.7311C53.4998 33.7311 52.9433 33.8394 53.1102 33.677C53.1659 33.5687 53.4442 33.677 53.5555 33.5687C53.4442 33.4604 53.0546 33.677 52.9989 33.5687C52.9433 33.5145 53.7224 33.0272 53.8337 33.5687C53.8337 33.4062 55.1694 33.0814 55.5033 33.298C55.559 33.3521 55.3364 33.4062 55.3364 33.4062C56.5608 33.4062 54.5572 34.1101 54.5572 34.1101Z" fill="#FFDC00"/>
<path d="M56.616 37.9001C55.6143 38.1708 55.6699 37.9001 55.8925 37.142C55.8925 37.142 56.3378 37.0879 56.3934 37.0338C56.1708 36.3299 57.9517 37.5752 56.616 37.9001Z" fill="#FFDC00"/>
<path d="M56.7279 36.0592C56.7836 36.0592 56.9505 35.6802 57.1175 35.7885C57.674 36.2217 56.1714 36.0051 56.7279 36.0592C56.7836 36.0592 56.7279 36.0592 56.7279 36.0592Z" fill="#FFDC00"/>
<path d="M55.2802 30.7528C55.2802 30.6445 55.6141 30.5904 55.6698 30.6987C55.7254 30.9153 55.2246 30.8611 55.2802 30.7528C55.2802 30.7528 55.2802 30.807 55.2802 30.7528Z" fill="#FFDC00"/>
<path d="M59.0096 37.8459C58.9539 38.0625 58.787 38.0625 58.6757 38.1708L58.8983 38.2249C58.8983 38.4415 56.8391 38.5498 56.8391 38.6039C56.7834 38.4415 57.6182 38.1708 57.6739 38.1708C57.5626 38.1708 57.0617 38.1708 57.0617 38.0625C57.0617 38.0083 57.34 37.7917 57.3956 37.7376C57.2287 37.6835 57.173 37.7376 57.173 37.5752C57.173 37.7376 57.6182 37.142 57.6182 37.0337C57.5626 37.0337 57.173 37.142 57.173 37.0337C57.173 36.9796 57.34 36.763 57.2843 36.7088C57.2843 36.7088 57.0617 36.9796 57.0061 36.9254C56.9504 36.8713 57.0617 36.7088 57.1174 36.6547C57.1174 36.6547 56.9504 36.8713 56.8947 36.763C56.8391 36.7088 57.2843 36.4923 57.173 36.4923C57.173 36.5464 56.9504 36.6547 56.9504 36.6547C56.8947 36.5464 57.0617 36.384 57.0617 36.3298C56.9504 36.384 56.9504 36.6005 56.8391 36.6005C56.9504 36.6005 56.8947 36.2757 56.8391 36.2215C57.173 36.1132 57.7852 35.5718 57.9522 35.5718L58.0635 35.6259C58.1748 35.6801 57.6182 36.1674 57.5626 36.1674C57.4513 35.9508 58.8426 37.521 58.5087 37.7917C58.7313 37.6835 59.1209 37.5752 59.0096 37.8459C59.0096 37.8459 59.0096 37.7917 59.0096 37.8459Z" fill="#FFDC00"/>
<path d="M55.6704 29.8325C55.7261 29.7242 55.6704 29.995 55.6704 29.8325C55.7261 29.8325 55.6704 29.8325 55.6704 29.8325Z" fill="#FFDC00"/>
<path d="M57.2287 34.5973C57.2287 34.5973 57.2844 34.9221 57.1174 34.9221C57.0618 34.868 56.9505 34.4348 57.2287 34.5973Z" fill="#FFDC00"/>
<path d="M55.6697 29.7781C55.3915 30.0488 55.7811 29.6156 55.6697 29.7781C55.6141 29.7781 55.6697 29.7781 55.6697 29.7781Z" fill="#FFDC00"/>
<path d="M55.5034 29.8865C55.5591 29.9406 55.5591 30.1031 55.5034 29.8865V29.8865Z" fill="#FFDC00"/>
<path d="M57.1172 32.0523C57.3398 31.8898 57.4511 31.8357 57.1172 32.0523V32.0523Z" fill="#FFDC00"/>
<path d="M58.6197 35.2468C58.1745 35.7883 58.731 35.0303 58.6197 35.2468V35.2468Z" fill="#FFDC00"/>
<path d="M40.4209 29.7782C40.5322 29.6157 40.6435 29.5616 40.8661 29.6699C40.6992 29.7782 40.4209 29.7782 40.4209 29.7782Z" fill="#FFDC00"/>
<path d="M39.7531 28.9121C40.087 29.3994 39.6975 28.8579 39.7531 28.9121V28.9121Z" fill="#FFDC00"/>
<path d="M39.4756 29.5617C39.5312 29.1826 40.1434 29.2368 40.1434 29.4534C40.1434 29.5075 39.9208 29.5617 39.9208 29.6158C39.9208 29.6158 40.1991 29.6158 40.1991 29.6699C39.8652 29.7782 39.6982 29.5617 39.4756 29.5617Z" fill="#FFDC00"/>
<path d="M38.2505 29.1826C38.4175 29.1826 39.141 29.0743 39.2523 29.2909C39.2523 29.345 39.2523 29.3992 39.2523 29.5075C38.5844 29.6158 38.4731 29.345 38.2505 29.1826Z" fill="#FFDC00"/>
<path d="M37.5271 29.67C37.4714 29.5617 38.0836 29.4534 37.5271 29.67V29.67Z" fill="#FFDC00"/>
<path d="M36.8587 29.4536C36.6361 29.3994 36.3579 29.616 36.0796 29.5077C36.2466 29.3994 36.4135 29.3994 36.5805 29.3453C36.5805 29.3453 36.4135 29.3453 36.3579 29.3453C36.4135 29.3994 37.137 29.0204 37.2483 29.2911C37.304 29.3453 36.9144 29.4536 36.8587 29.4536Z" fill="#FFDC00"/>
<path d="M36.8589 30.1572C37.3041 30.2114 37.1372 30.2114 36.8589 30.1572V30.1572Z" fill="#FFDC00"/>
<path d="M38.084 30.4824C38.0284 30.8615 37.8614 30.5366 37.6944 30.8073C37.8057 30.8073 37.7501 30.9156 37.7501 30.9156C37.7501 30.9156 37.917 30.7532 37.917 30.8615C38.0284 31.0239 36.5257 31.6195 36.47 31.0239C36.47 31.0239 36.4144 30.8615 36.47 30.8615C36.5814 30.699 36.9709 30.9156 37.1935 30.8073C37.1935 30.8073 36.9709 30.8615 37.0266 30.699C37.0822 30.4283 37.917 30.4824 38.084 30.4824Z" fill="#FFDC00"/>
<path d="M38.4171 30.2114C38.1945 30.3197 37.1927 30.1573 37.304 29.9407C37.5266 29.4534 37.6936 30.049 37.8605 30.049C37.8049 29.8324 38.6954 29.8866 38.8623 29.8324C38.9736 29.9948 38.5284 30.1573 38.4171 30.2114C38.4171 30.2114 38.5284 30.1573 38.4171 30.2114Z" fill="#FFDC00"/>
<path d="M39.308 30.2114C39.141 30.5362 38.7514 30.4279 38.5288 30.2114C38.5845 30.2114 39.4193 30.0489 39.308 30.2114C39.308 30.2655 39.308 30.2114 39.308 30.2114Z" fill="#FFDC00"/>
<path d="M43.9273 29.6699C43.5378 29.6699 43.3708 29.6699 42.9812 29.8324C42.6473 30.3197 41.1447 29.7241 40.4212 30.1572C41.089 30.1031 41.7568 30.1031 42.369 30.3197C41.5342 30.5363 40.9777 30.4821 40.1429 30.4821C40.1985 30.4821 40.1429 30.4821 40.1429 30.428C40.2542 30.428 40.2542 30.3738 40.2542 30.3197C40.1429 30.4821 39.5307 30.428 39.475 30.3738C39.4194 30.1572 39.7533 30.1572 39.809 29.9948C39.475 29.9407 39.3637 29.9407 39.1968 29.7241C40.1985 29.8865 40.922 29.8324 41.8125 29.6158C41.8682 29.4534 39.2524 29.4534 40.8664 28.8036C41.6455 28.587 42.1464 28.966 42.6473 28.966C42.2021 28.8578 42.1464 28.8036 41.8125 28.6953C43.7047 28.4246 46.2091 28.0997 48.0457 28.7495C47.7118 28.8036 47.4335 28.8036 47.0996 28.8036L47.1553 28.8578C46.0422 29.1285 44.8735 29.1826 43.9273 29.6699Z" fill="#FFDC00"/>
<path d="M50.0496 50.7327C49.827 50.5161 50.0496 50.6244 50.0496 50.7327V50.7327Z" fill="#FFDC00"/>
<path d="M49.9931 50.1912C49.8262 49.9746 50.2157 50.4078 49.9931 50.1912C49.9931 50.137 49.9931 50.1912 49.9931 50.1912Z" fill="#FFDC00"/>
<path d="M50.3276 50.6786C50.3833 51.0034 50.2719 50.1912 50.3276 50.6786V50.6786Z" fill="#FFDC00"/>
<path d="M50.4388 50.4619C50.6614 50.6785 50.2162 50.2995 50.4388 50.4619C50.4388 50.5161 50.4388 50.4619 50.4388 50.4619Z" fill="#FFDC00"/>
<path d="M50.5498 50.3535C50.5498 50.4618 50.6611 50.0828 50.5498 50.3535C50.5498 50.4076 50.5498 50.3535 50.5498 50.3535Z" fill="#FFDC00"/>
<path d="M50.4949 50.137C50.3836 50.1911 50.6619 50.137 50.4949 50.137V50.137Z" fill="#FFDC00"/>
<path d="M47.4891 35.1388C46.6543 34.7056 45.7082 33.731 46.376 32.8647C45.8752 32.8105 47.4335 31.89 47.3222 31.89C47.2665 31.89 47.0439 31.8359 46.9882 31.89C47.0439 31.9442 47.2108 31.9983 47.2665 32.0525V32.1066C46.376 33.0812 46.71 31.0779 47.1552 31.6193C47.1552 31.6193 47.1552 31.8359 47.5448 31.8359L47.6004 31.7276C47.3222 31.7817 47.2108 31.6193 47.2665 31.4569C47.1552 31.5652 46.8769 31.6735 46.71 31.5652C46.6543 31.511 46.9326 31.2944 46.9882 31.2403C46.8769 31.2944 46.7656 31.3486 46.8213 31.1861C46.8769 31.132 47.0995 31.132 47.0995 31.0237C47.0995 31.0237 46.9326 31.1861 46.8769 31.0779C46.9326 31.0237 46.9882 30.9696 47.0439 30.9696C46.71 31.0237 46.8769 30.753 47.0439 30.6447C46.8769 30.374 46.9326 30.6447 46.9326 30.4281C46.9326 30.1574 45.4299 30.4281 45.5412 30.2115C45.4299 30.2657 44.4838 30.3198 44.5395 29.9949C44.5951 29.8325 44.8734 29.9408 45.0404 29.9408C44.9847 29.8867 44.5395 29.7784 44.5395 29.7242C44.5395 29.3993 46.7656 29.7242 46.71 29.2911C46.6543 29.2369 46.3204 29.3452 46.2647 29.2369C46.2091 29.0203 47.3778 29.1286 47.3778 29.1286C47.3778 29.1286 47.3778 29.1286 47.4335 29.1286C47.3778 29.0745 47.3778 29.0745 47.3778 29.0203C47.5448 28.8037 49.5483 28.8579 49.3813 28.9662C49.3257 28.9662 50.1048 28.9662 50.1605 28.9662C50.1048 28.9662 49.8822 28.912 49.9935 28.8037C50.1605 28.5872 50.9396 29.0203 51.1623 28.9662C51.1066 28.8037 50.6057 28.9662 50.6057 28.7496C50.6057 28.8579 53.611 28.533 53.611 28.7496C53.611 28.8579 53.3884 28.8037 53.3328 28.8579C53.3884 28.8579 55.7259 28.6955 55.7259 29.0203C55.7259 29.0745 55.0024 29.1286 54.8911 29.1286C54.9467 29.1828 55.7815 29.0203 55.4476 29.2911C55.7259 29.4535 55.7815 29.1286 55.7815 29.1286C55.7259 29.1286 57.3955 29.3993 57.3955 29.2911C57.3398 29.6159 55.7259 29.5076 55.6702 29.7242C55.6702 29.7242 55.8372 29.7784 55.7815 29.8325C55.5589 29.8867 55.1137 29.8867 55.0024 30.2115C55.058 30.2115 55.5589 29.8867 55.5589 30.2115C55.5589 30.3198 55.2806 30.2115 55.2806 30.2115C55.3919 30.374 55.6146 30.1032 55.6702 30.374C55.6702 30.374 55.3919 30.6447 55.4476 30.6988C55.6146 30.6988 54.9467 30.2115 55.0024 30.4823C55.0024 30.4823 55.0024 30.4823 55.0024 30.5364C55.0024 30.6447 55.5032 30.753 55.0024 30.9696C55.058 31.0237 55.2806 31.0237 55.2806 31.0779C55.3363 31.2403 54.7797 31.1861 54.7241 31.2403C54.7797 31.2944 54.7797 31.2944 54.8354 31.2944C54.5571 31.4027 54.3902 31.3486 54.1119 31.4027C54.1676 31.4569 54.3902 31.4569 54.3902 31.511C54.5015 31.89 53.8893 31.6735 53.778 31.6193C53.611 31.511 53.8893 31.4569 53.9449 31.4027C53.8893 31.3486 53.611 31.3486 53.5554 31.4027C54.8354 32.3232 53.6667 32.0525 53.0545 32.2149C53.3328 32.2691 53.7223 32.2691 54.0006 32.2691C54.1119 32.4856 51.7188 32.9188 51.4405 32.6481C51.4962 32.5398 47.2108 34.9763 47.4891 35.1388C47.4891 35.1388 47.5448 35.1388 47.4891 35.1388Z" fill="#FFDC00"/>
<path d="M49.6595 42.5024C49.3812 42.5024 50.2717 42.5566 49.6595 42.5024C49.6595 42.5024 49.7152 42.5024 49.6595 42.5024Z" fill="#FFDC00"/>
<path d="M73.2009 61.2368C73.0896 61.4534 73.5348 62.1031 73.2009 62.2656C73.1453 62.2656 73.1453 62.1031 73.0896 62.1031C73.1453 62.1031 72.1991 66.4889 71.0861 65.406C70.6965 65.027 71.0304 62.4822 71.253 62.1031C71.0861 62.3739 73.3122 61.1827 72.6444 61.1827C72.9226 61.1827 72.7557 60.7495 73.0339 60.7495C73.0339 60.8037 73.2009 61.291 73.2009 61.2368Z" fill="#FFDC00"/>
<path d="M74.871 52.3029C74.7597 52.4653 74.5371 52.3029 74.5371 52.1946C74.5928 52.1946 74.9823 52.1946 74.871 52.3029C74.871 52.3029 74.9267 52.3029 74.871 52.3029Z" fill="#FFDC00"/>
<path d="M34.243 29.8866C34.1873 29.8325 34.076 29.8866 34.243 29.8866V29.8866Z" fill="#FFDC00"/>
<path d="M34.8562 29.8326C35.1901 29.7785 34.5222 29.7785 34.8562 29.8326V29.8326Z" fill="#FFDC00"/>
<path d="M32.5186 31.1319C32.7969 31.0236 32.4629 31.1319 32.5186 31.1319C32.5743 31.0777 32.5186 31.1319 32.5186 31.1319Z" fill="#FFDC00"/>
<path d="M43.2038 28.9661C42.9812 29.2368 43.1482 29.0744 43.2038 28.9661V28.9661Z" fill="#FFDC00"/>
<path d="M35.3572 31.7275C35.5242 31.6733 35.2459 31.8357 35.3572 31.7275C35.4129 31.7275 35.3572 31.7816 35.3572 31.7275Z" fill="#FFDC00"/>
<path d="M23.3916 44.2353C23.6142 44.1811 23.3359 45.1016 23.3359 45.1016C24.3377 46.5094 24.616 48.2962 26.3412 49.4332C27.0647 49.8664 28.0109 49.325 28.4561 50.1913C28.6787 50.5703 29.5135 50.6786 29.9031 50.6786C30.404 50.7327 30.4596 52.6278 31.2388 52.682C31.2388 52.682 31.4614 52.3571 31.6283 52.5737C31.7396 52.682 31.4614 52.682 31.4614 52.682C31.4057 52.7361 31.517 52.8444 31.517 52.8444C31.684 52.8444 32.5188 52.1405 32.5745 52.4654C32.6301 53.061 32.7971 53.9273 32.8527 54.1439C32.6301 53.6566 31.2944 57.0136 31.9066 56.2556C31.684 57.8258 32.3518 58.638 33.1866 60.3706C33.6875 61.4535 36.3589 62.1574 35.3015 63.836C34.9119 64.5398 35.1902 69.8461 35.8024 70.171C35.6354 70.2251 35.6911 70.7666 35.9137 70.7666C36.0806 70.7666 35.9693 70.2793 35.9693 70.1168H36.025C36.0806 70.1168 36.3033 71.0914 36.1919 71.1456C36.0806 71.1456 36.0806 70.929 35.9693 70.8749C36.0806 70.8749 35.9137 71.9578 35.9693 71.9578C35.9137 71.9578 36.4146 71.9036 36.4702 71.7412C36.5259 71.7953 36.6372 72.0661 36.5815 72.1202C35.5798 72.4992 37.2494 73.7446 37.305 73.8529V73.907C37.1937 73.907 37.0824 73.7987 37.0824 73.9612C37.1381 74.4485 39.3086 74.7192 39.3642 74.8275C39.4199 74.8816 39.5868 75.0982 39.6425 75.0441C39.6425 75.0441 39.6981 74.9899 39.6981 75.0441C39.6981 74.9899 39.5312 74.9358 39.5312 74.8816C39.6425 74.8816 40.0321 74.8275 40.0321 74.6651C40.0321 74.6651 40.0321 74.6109 39.9764 74.6109C37.9172 74.0695 38.9746 73.3114 38.8633 72.3368C38.8633 72.2285 37.6389 71.2539 38.4181 71.3622C38.6964 71.3622 38.5294 70.3876 38.4738 70.4958C38.5851 70.2251 38.6964 70.7666 38.8633 70.6041C38.9746 70.4417 37.9172 70.1168 38.2511 69.9002C38.1398 70.0085 39.5312 70.2251 39.0303 69.792C38.9746 69.7378 38.9746 69.1964 38.919 69.2505C41.2564 68.7632 39.6981 68.8715 39.7538 67.6803C39.6981 68.8173 42.3695 66.5432 41.8686 66.3266C41.9243 66.3808 41.5904 66.7598 41.7573 66.7598C42.2025 66.7598 42.4808 64.5398 42.9817 64.1067C43.4826 63.6735 44.5957 63.9442 44.8183 62.8613C44.9296 62.2657 44.9296 61.237 45.1522 60.6414C45.1522 60.2623 47.4897 57.3385 45.987 57.5009C45.3748 57.5551 45.1522 56.5263 44.4844 56.6887C44.2617 56.7429 43.4826 56.6346 43.3156 56.5805C43.3156 56.5805 43.3713 56.039 43.2043 56.0931C42.7034 56.039 42.2025 55.6058 41.7573 56.418C41.7573 56.2556 41.813 54.1439 41.1451 54.0898C40.8669 54.0898 39.2529 52.8986 38.9746 53.2234C39.1972 52.5195 38.4738 52.7361 38.2511 52.4654C38.1955 52.3571 37.8616 51.9781 37.7503 51.8156C37.8059 51.8156 38.0842 51.8156 38.0842 51.7615C38.1955 52.3571 35.1902 51.1659 35.5241 51.1659C35.6354 51.1659 34.9676 51.7615 34.9676 51.6532C34.9676 51.5449 35.1902 51.1659 35.1902 51.1659C34.745 50.5703 33.0753 52.5737 33.2423 52.6278C33.0197 52.5737 30.4596 51.8156 31.2388 51.0576C32.4631 49.8123 30.2927 49.9206 29.7918 49.704C30.1257 49.2708 30.1813 48.7835 30.4596 48.3503C31.1831 47.0508 29.2909 48.0796 29.3465 48.4586C29.4578 48.9459 27.6769 48.8918 27.4543 47.7547C27.2317 47.9713 28.79 44.2353 28.957 44.885C28.957 44.8309 30.5153 45.2099 30.3483 44.9933C30.5153 44.9933 30.4596 45.2099 30.5709 45.2099C30.1257 45.1016 31.0718 44.6684 31.1275 44.5601C31.1275 44.6143 31.0718 44.7226 31.0718 44.7226C31.0718 44.5601 33.298 45.1016 32.5188 45.5889C32.5188 45.6972 32.5188 46.6177 32.7414 46.6177C33.1866 46.6718 33.1866 43.8021 34.2441 43.5855C34.9676 43.4772 35.0789 42.9358 35.3015 42.7733C35.4128 42.7192 35.3571 41.6363 35.8024 41.6363C35.8024 41.6904 35.4128 42.3402 35.5241 42.4485C35.6354 42.6109 35.9693 41.6904 35.9693 41.6363C35.9693 41.6363 36.1363 41.8529 36.0806 41.8529C36.1919 41.8529 36.9711 40.7158 37.1937 41.0407C37.1937 41.0407 36.9154 41.0407 36.8598 41.0948C37.4163 40.9865 37.5276 40.8241 37.5276 41.0407C37.5276 41.149 38.1398 40.7158 37.8616 40.7158C37.9172 40.7158 37.6946 40.8783 37.6946 40.8783L37.6389 40.6617C37.6946 40.3909 38.3624 40.1744 38.5851 39.9578C38.5851 40.0661 38.4738 40.0119 38.4738 40.1202C38.4738 40.0661 39.8651 39.6329 39.9764 39.5246C39.9764 39.5788 39.7538 39.6329 39.7538 39.6871C39.7538 39.7953 40.0321 39.6871 40.0321 39.6871C40.0877 39.8495 39.0859 39.7953 39.2529 40.2827C39.3642 40.5534 39.8651 39.9578 39.9207 39.9036C40.366 40.0119 41.5347 39.1456 41.2564 39.1456C40.9225 39.1456 40.7556 39.5246 40.4216 39.5246C39.6981 39.1456 40.4773 39.0373 40.3103 38.8207C40.2547 38.7666 39.8094 38.929 39.6981 38.7666C40.0321 38.8749 40.199 38.6041 40.4773 38.4959C40.6999 37.9544 38.2511 39.0914 38.3068 39.0914C39.6425 38.1168 40.8669 38.171 42.3139 37.792C43.5382 37.9003 43.5382 36.33 42.6478 36.8173C42.7591 36.6549 43.1487 36.7632 43.26 36.6549L43.093 36.4383C43.093 36.4383 42.6478 36.4925 42.5921 36.4383C42.4252 36.3842 42.5921 36.1134 42.3695 36.0593C42.4808 35.951 42.7034 34.8681 42.4252 34.7057C42.4252 34.7057 41.0895 35.7344 41.0895 35.3013C41.0895 35.3013 40.9225 34.4891 41.2564 34.4891C41.3121 34.5974 40.7556 34.3808 40.7556 34.3808C40.8112 34.3266 40.9225 34.3266 40.9225 34.2725C41.0338 33.352 39.0303 34.6515 39.0859 34.5974C38.3068 35.5178 37.6946 36.3842 36.8598 37.5212C36.7485 38.4417 36.4702 35.7886 36.7485 36.2759C36.6372 36.1134 36.1363 36.1134 35.9693 36.2217C36.1919 35.8969 34.745 35.572 34.5223 35.572C34.578 35.5178 34.8006 35.0847 34.8006 35.0305C34.6893 34.9222 34.5223 35.0847 34.4667 34.9764C34.2997 34.814 36.5259 33.4062 36.6372 33.5686C36.5259 33.4062 36.1919 33.5686 36.0806 33.352C37.1381 33.6769 37.5276 33.0813 38.4738 32.8106C38.1398 33.0813 37.8616 33.352 37.5833 33.5686C38.4738 33.4603 37.6389 33.5145 37.8616 33.731C37.6946 33.6228 39.3642 33.5686 39.3086 33.5686C39.4755 33.4603 38.9746 33.4062 38.9746 33.4062C39.0859 33.2979 38.6964 32.8106 38.6407 32.8106C38.5851 32.8106 38.5851 33.0272 38.4738 33.0272C38.5851 32.9189 38.5294 32.8106 38.4738 32.7023C38.8077 32.6481 38.6964 32.973 38.9746 32.973C39.0859 32.973 38.919 32.7564 38.919 32.7564C39.0859 32.5398 40.5329 32.4316 40.199 31.7818C40.199 31.7277 41.3677 31.9442 41.2008 31.5111C41.3121 31.6194 41.5347 31.9984 41.646 31.8901V31.9442C41.5904 31.9984 41.3121 31.8901 41.3677 32.0525C41.3677 32.1067 41.813 32.1067 41.813 32.1067C41.813 32.1067 41.7573 32.215 41.813 32.2691C41.7573 32.2691 41.5904 32.215 41.5904 32.3774C41.646 32.7564 41.9243 32.215 41.9243 32.215C41.9243 32.3233 41.9799 32.2691 42.0356 32.2691C41.9799 32.7564 41.3677 32.594 41.3121 33.0272C41.0338 33.1896 40.0877 32.8647 39.9764 33.2979C40.0877 32.8106 42.0356 34.3266 42.4252 34.3266C42.7034 34.3266 42.0912 33.731 42.0912 33.6769C42.3695 33.6769 42.5921 34.1642 42.8147 34.1642C42.9817 34.1642 42.8704 33.731 42.9817 33.731C42.9817 33.731 43.093 33.9476 43.1487 33.7852C43.2043 33.6228 43.093 33.5686 43.0374 33.4603C43.093 33.4603 43.1487 33.6228 43.2043 33.5145C43.2043 33.4603 42.7034 33.0272 42.7034 33.0272C42.7034 33.0813 44.0391 33.2437 44.4844 32.8106C44.373 32.7564 43.26 32.215 43.26 32.215C43.26 32.1067 43.8165 32.1067 43.8165 32.0525C43.8165 32.0525 43.5939 31.9984 43.5382 31.9442V31.8901C43.5939 31.8901 43.7052 31.9442 43.7609 31.8901C43.8722 31.6735 43.5382 31.7277 43.4269 31.7818C43.4269 31.7277 43.5939 31.6735 43.5939 31.6194C43.4826 31.4028 42.7591 31.2404 42.6478 31.4028C42.5921 31.0238 42.4252 31.1862 42.2582 30.9696C42.3695 30.5906 41.479 30.5906 41.479 30.753C41.479 31.1321 41.9243 30.8072 42.0356 30.9155C42.0912 30.9696 41.2008 31.0779 41.1451 31.0779C41.1451 31.0779 41.479 30.753 41.4234 30.6448C41.4234 30.4823 39.9207 30.753 39.8651 31.0779C39.8094 31.1862 40.0877 31.1321 40.0877 31.1862L39.9764 31.2404C39.9207 31.2404 39.8094 31.1321 39.8094 31.0779C39.7538 30.8613 40.6442 30.6448 40.6442 30.5365C40.5886 30.2657 38.752 30.8072 38.8077 31.1862C38.8077 31.1862 39.2529 31.2404 39.3086 31.2945C39.2529 31.2945 38.752 31.1862 38.752 31.3486C38.8077 31.6194 40.0321 31.6194 40.0321 31.6194L39.9207 31.6735C40.199 31.2404 38.8077 32.1608 39.3086 31.8901C39.2529 31.9442 38.6964 32.1608 38.6407 32.1608C38.5851 32.1608 38.8077 32.0525 38.6964 32.0525C38.5851 32.0525 38.3624 32.2691 38.1955 32.3774C38.1955 32.3233 38.1398 32.215 38.0842 32.215C38.4181 31.6735 37.9172 31.6735 37.8059 32.0525C37.6389 31.6735 38.1398 31.8901 38.1398 31.7277C38.1955 31.4569 37.6946 31.6194 37.6389 31.5652C37.8059 31.4569 38.3068 31.1862 37.8616 30.9155C38.0285 30.6448 39.1416 30.4823 39.4199 30.374C39.1416 29.5618 36.8598 31.2945 36.8041 31.3486C36.6928 31.5652 37.1381 31.5111 37.1937 31.5652C37.1937 31.6194 37.2494 31.6194 37.2494 31.6194C37.1937 31.6194 36.8041 31.6735 36.8041 31.7818C36.8041 31.7277 36.3589 32.3233 36.1919 32.215L36.1363 32.1608C36.1363 32.1067 36.4146 31.8901 36.4146 31.9442C36.4146 31.8901 36.1919 31.9442 36.1363 31.8901C36.1363 31.8901 36.8598 31.6735 36.9154 31.6194C37.0268 31.4569 35.6911 31.5111 35.7467 31.7277C35.7467 31.836 35.9693 31.7277 36.025 31.7818C35.6911 32.1067 34.9676 32.215 34.2997 31.8901C34.745 31.7818 33.5206 31.4569 33.3536 31.7818C33.298 31.8901 33.4649 31.8901 33.5206 31.8901L33.2423 32.215C33.2423 32.215 33.131 32.215 33.131 32.1608C33.1866 32.1067 33.131 31.8901 32.964 31.8901L33.1866 31.7818C33.1866 31.7277 31.9066 31.9984 31.684 31.836C31.684 31.6735 32.2405 31.836 32.1849 31.6735C31.6283 30.5906 29.2352 33.6228 28.9013 33.9476C26.6195 37.1422 24.616 40.5534 23.3916 44.2353C23.3916 44.1811 25.0055 39.4163 23.3916 44.2353ZM36.4146 71.6329C36.4146 71.4163 36.4702 71.4705 36.4146 71.6329C36.4146 71.687 36.4146 71.6329 36.4146 71.6329ZM36.4702 71.687C36.5259 71.8495 36.4702 71.6329 36.4702 71.687C36.4702 71.7412 36.4702 71.687 36.4702 71.687ZM36.4146 71.4163C36.3033 71.2539 36.4146 71.308 36.4146 71.4163C36.3589 71.4163 36.4146 71.3622 36.4146 71.4163ZM37.0824 73.6904C37.0268 73.7446 37.0824 73.6363 37.0824 73.6904V73.6904ZM34.8006 51.9781C35.1902 51.5991 34.9676 52.303 34.9119 52.303C34.8006 52.303 34.6893 52.0322 34.8006 51.9781ZM30.4596 51.3825C30.6822 51.1118 30.5153 51.2742 30.4596 51.3825C30.5153 51.3825 30.4596 51.3825 30.4596 51.3825ZM42.3139 37.0339C42.4808 36.9798 42.5365 36.9256 42.6478 36.9256C42.5921 36.9798 42.3695 37.0339 42.3139 37.0339C42.3695 36.9798 42.3139 37.0339 42.3139 37.0339ZM41.3121 33.731C41.2564 33.8393 41.3677 33.6769 41.3121 33.731V33.731ZM41.646 32.1067C41.7573 32.1608 41.4234 32.1067 41.646 32.1067V32.1067ZM40.3103 31.0779C40.366 31.1321 40.4216 31.1321 40.3103 31.0779V31.0779ZM37.305 31.9984C37.305 31.8901 37.305 32.1608 37.305 31.9984V31.9984ZM37.1937 32.9189C37.472 32.9189 37.5276 32.973 37.7503 33.0813C37.5276 33.0813 37.2494 32.8647 37.1937 32.9189C37.1937 32.9189 37.1381 32.9189 37.1937 32.9189ZM36.0806 32.2691C36.3033 32.3774 35.9693 32.2691 36.0806 32.2691C36.0806 32.2691 36.025 32.2691 36.0806 32.2691ZM34.5223 32.0525C34.5223 31.836 34.5223 32.1608 34.5223 32.0525V32.0525ZM30.3483 44.7767C30.5153 44.5601 30.2927 44.885 30.3483 44.7767V44.7767Z" fill="#FFDC00"/>
<path d="M22.9458 45.8593C23.0015 45.9135 23.2798 47.213 23.558 47.1588C23.725 47.213 23.3911 45.3179 23.1685 44.9388C23.725 43.152 22.7789 45.751 22.9458 45.8593Z" fill="#FFDC00"/>
<path d="M37.0834 73.6915C37.0834 73.6915 37.0834 73.6342 37.0834 73.6915C37.0243 73.6915 37.0834 73.6915 37.0834 73.6915Z" fill="#FFDC00"/>
<path d="M38.1391 51.8155C38.0278 51.9238 37.8608 52.1404 38.1391 52.1404C38.3617 52.1404 38.3061 51.599 38.1391 51.8155C38.1391 51.8155 38.1948 51.7614 38.1391 51.8155Z" fill="#FFDC00"/>
<path d="M40.7551 39.3621C40.5325 39.3621 40.2542 39.1997 40.3099 39.1997C40.2542 39.1997 40.2542 39.2539 40.1986 39.2539C39.5864 39.4163 41.2004 39.3621 40.7551 39.3621C40.7551 39.3621 40.8108 39.3621 40.7551 39.3621Z" fill="#FFDC00"/>
<path d="M41.033 38.2792C40.9773 38.225 40.6434 38.1168 40.5877 38.225C40.3651 38.5499 41.8678 38.6041 41.033 38.2792C41.033 38.2792 41.0886 38.2792 41.033 38.2792Z" fill="#FFDC00"/>
<path d="M41.59 34.6511C41.0891 34.8677 41.7013 34.597 41.59 34.6511C41.5343 34.6511 41.59 34.6511 41.59 34.6511Z" fill="#FFDC00"/>
<path d="M40.0315 33.6766C39.7532 33.4058 40.3098 33.8932 40.0315 33.6766C39.9758 33.6224 40.0315 33.6766 40.0315 33.6766Z" fill="#FFDC00"/>
<path d="M39.6974 33.6768C39.3078 33.4602 40.087 34.0017 39.6974 33.6768V33.6768Z" fill="#FFDC00"/>
<path d="M39.8649 33.6226C40.2545 33.5143 39.5866 33.6767 39.8649 33.6226V33.6226Z" fill="#FFDC00"/>
<path d="M39.0856 34.0557C38.9742 33.8933 38.5847 34.2182 38.8073 34.3806C38.8629 34.3806 39.1969 34.164 39.0856 34.0557Z" fill="#FFDC00"/>
<path d="M38.5848 33.7852C38.4735 33.7852 37.917 33.8393 37.9727 34.0017C38.084 34.3266 38.6961 33.8393 38.5848 33.7852Z" fill="#FFDC00"/>
<path d="M36.5249 36.9255C35.9127 36.9255 37.1371 36.9797 36.5249 36.9255C36.5249 36.9255 36.5805 36.9255 36.5249 36.9255Z" fill="#FFDC00"/>
<path d="M41.1445 32.269C40.9775 32.269 40.8105 32.4856 40.8105 32.648C41.2001 32.5397 41.868 32.2148 41.1445 32.269C41.0888 32.269 41.2001 32.269 41.1445 32.269Z" fill="#FFDC00"/>
<path d="M40.5884 32.3231C40.978 32.269 40.5884 32.3231 40.5884 32.3231V32.3231Z" fill="#FFDC00"/>
<path d="M40.6991 32.1609C40.8104 32.1609 41.2556 31.9443 41.1999 31.836C41.1443 31.7277 40.5877 32.1609 40.6991 32.1609C40.6991 32.1609 40.6434 32.1609 40.6991 32.1609Z" fill="#FFDC00"/>
<path d="M41.2002 31.9982C41.5341 31.8899 41.2002 31.8899 41.2002 31.9982V31.9982Z" fill="#FFDC00"/>
<path d="M41.5898 73.6905C41.4228 73.4739 41.2559 73.6905 41.1446 73.7988C41.2002 73.5822 40.8663 73.4739 40.755 73.6363C40.6993 73.6905 40.8663 73.7446 40.922 73.7446C40.8107 73.7988 40.6993 73.6363 40.6437 73.7446C40.5324 73.9612 40.9776 74.0153 41.0889 73.8529C41.0333 74.2319 41.7568 73.8529 41.5898 73.6905Z" fill="#FFDC00"/>
<path d="M34.3549 48.4584C34.1323 48.4584 32.6296 46.5633 31.2383 47.7545C31.2939 47.7004 32.1287 47.4838 32.2957 47.538C32.2957 47.5921 32.1844 47.5921 32.1844 47.5921C32.24 47.8087 33.5201 47.917 33.5757 48.1877C33.687 48.296 33.4088 48.3502 33.3531 48.4584C33.687 48.5126 34.021 48.4584 34.3549 48.4584C34.3549 48.4584 34.2992 48.4584 34.3549 48.4584Z" fill="#FFDC00"/>
<path d="M31.9054 47.7004C31.7941 48.0253 31.9054 47.8629 31.9054 47.7004V47.7004Z" fill="#FFDC00"/>
<path d="M33.5205 46.8882C33.5205 46.8882 33.7431 47.159 33.7431 47.1048C33.9657 46.78 33.3535 46.5634 33.5205 46.8882Z" fill="#FFDC00"/>
<path d="M34.9115 48.1338C34.8002 48.0796 34.7446 48.1879 34.9115 48.1338C34.9115 48.1338 34.8559 48.1338 34.9115 48.1338Z" fill="#FFDC00"/>
<path d="M33.7427 49.0542C33.6871 49.0542 33.0749 48.7834 33.1305 49.0542C33.2418 49.4332 33.854 49.0542 33.7427 49.0542C33.6871 49 33.7427 49.0542 33.7427 49.0542Z" fill="#FFDC00"/>
<path d="M36.1915 48.8917C35.9133 48.5127 35.2454 48.4585 34.7445 48.5127C34.8559 48.6209 34.8559 48.9458 34.8002 48.9458C34.9672 48.9458 34.9115 48.7834 35.0228 48.9458C34.9115 48.9458 34.2993 48.8375 34.2993 49C34.2993 48.9458 35.4124 49.3248 35.3011 49.3248C35.468 49.379 36.4142 49.1083 36.1915 48.8917C36.1915 48.8375 36.2472 48.8917 36.1915 48.8917Z" fill="#FFDC00"/>
<path d="M37.0814 49.0542C36.9701 49.1083 36.7475 49.0001 36.5805 49.0542C36.6362 49.1083 36.5249 49.1625 36.5805 49.2166C36.7475 49.4874 37.1927 49.0542 37.0814 49.0542Z" fill="#FFDC00"/>
<path d="M37.9172 49.3247C38.2511 49.3788 37.5833 49.3247 37.9172 49.3247C37.9172 49.3247 37.8615 49.3247 37.9172 49.3247Z" fill="#FFDC00"/>
<path d="M38.3066 49.812C37.8057 50.1369 38.6405 49.5955 38.3066 49.812C38.2509 49.812 38.3066 49.812 38.3066 49.812Z" fill="#FFDC00"/>
<path d="M38.4179 50.3535C38.3623 50.6784 38.4736 50.3535 38.4179 50.3535V50.3535Z" fill="#FFDC00"/>
<path d="M38.4178 50.6781C38.4178 50.6781 38.1396 51.0571 38.2509 51.0571C38.3065 51.003 38.4178 50.624 38.4178 50.6781C38.4178 50.624 38.4178 50.6781 38.4178 50.6781Z" fill="#FFDC00"/>
<path d="M38.1389 51.2739C38.0833 51.4364 38.0833 51.4364 38.1389 51.2739V51.2739Z" fill="#FFDC00"/>
<path d="M38.3065 44.1267C38.3065 44.1809 37.9169 44.4516 38.1395 44.4516C38.3621 44.5057 38.7517 43.9101 38.3065 44.1267Z" fill="#FFDC00"/>
<path d="M41.0893 38.9289C40.978 38.7665 41.312 39.2538 41.0893 38.9289C41.0893 38.9289 41.145 38.9831 41.0893 38.9289Z" fill="#FFDC00"/>
<path d="M43.5378 38.4414C43.4821 38.4414 43.0925 38.4414 42.9812 38.3331C42.9812 38.279 43.2038 38.2248 43.1482 38.1707C43.0925 38.1165 42.8143 38.2248 42.8143 38.2248C42.8699 38.0082 43.4264 37.7916 43.4264 37.6833C43.4264 37.7916 41.7568 38.658 41.7568 38.9287C41.7568 38.9828 42.8699 39.037 42.9256 39.037C42.8699 39.0911 42.703 39.1453 42.703 39.1994C42.6473 39.4702 43.3151 38.9828 43.3151 38.9828C43.3151 39.037 43.1482 39.3077 43.1482 39.3077C43.2038 39.3619 43.3151 39.2536 43.3151 39.2536C43.2595 39.6326 43.7604 39.037 43.6491 38.8746C43.5934 38.7663 43.4821 38.9287 43.4821 38.9287C43.4821 38.8746 43.7604 38.7121 43.7047 38.658C43.5934 38.6038 43.5378 38.8746 43.4264 38.8204C43.3708 38.8204 43.5934 38.4414 43.5378 38.4414Z" fill="#FFDC00"/>
<path d="M42.4801 39.1997C42.3688 39.2539 42.4801 39.4704 42.4801 39.1997C42.4245 39.2539 42.4801 39.1997 42.4801 39.1997Z" fill="#FFDC00"/>
<path d="M42.5916 34.2722C42.5359 34.2722 42.3133 34.6512 42.5916 34.2722V34.2722Z" fill="#FFDC00"/>
<path d="M44.3726 29.3992C45.2074 29.1826 46.2091 29.0202 47.1553 28.8578C47.1553 28.8578 47.044 28.8578 47.0996 28.8036C47.4335 28.8036 47.7118 28.7495 48.0457 28.7495C46.2648 28.0997 43.7604 28.3704 41.8125 28.6953C42.2021 28.8578 42.2021 28.9119 42.6473 28.9661C42.0908 28.9661 41.7568 28.7495 41.0334 28.8036C39.1411 28.8578 41.8125 29.8865 41.8125 29.6158C40.922 29.8324 40.1429 29.8865 39.1968 29.7241C39.3637 29.8865 39.5307 29.9407 39.809 29.9948C39.7533 30.1573 39.475 30.1573 39.475 30.3738C39.475 30.428 40.1429 30.4821 40.2542 30.3197C40.2542 30.428 40.1985 30.428 40.1429 30.428C40.1985 30.428 40.1985 30.428 40.1429 30.4821C40.9777 30.4821 41.5342 30.5363 42.369 30.3197C41.7568 30.1031 41.089 30.1031 40.4212 30.1573C41.089 29.7241 42.6473 30.3738 42.9812 29.8324C43.4821 29.7782 43.9273 29.5617 44.3726 29.3992ZM43.3152 29.1826C43.3152 29.1285 42.9256 29.0202 42.8699 29.0202C42.8699 29.0202 43.4265 28.966 43.3152 29.1826Z" fill="#FFDC00"/>
<path d="M40.5325 29.7781C41.423 29.8322 40.1986 29.7781 40.5325 29.7781C40.5325 29.7781 40.4768 29.7781 40.5325 29.7781Z" fill="#FFDC00"/>
<path d="M39.6426 29.6698C39.8652 29.6698 39.9765 29.724 40.1991 29.6157C40.1435 29.5616 39.9209 29.5616 39.9209 29.5616C39.9209 29.5616 40.1435 29.5074 40.1435 29.3991C40.1435 28.7494 39.5869 29.8323 39.6426 29.6698Z" fill="#FFDC00"/>
<path d="M39.8091 29.1284C39.8091 28.7494 39.6421 29.1284 39.8091 29.1284V29.1284Z" fill="#FFDC00"/>
<path d="M38.3623 29.3449C38.5849 29.3991 38.8632 29.5615 39.1971 29.5074C39.1971 29.4532 39.1971 29.3991 39.1971 29.2908C38.9188 28.6952 38.3623 29.3991 38.3623 29.3449Z" fill="#FFDC00"/>
<path d="M37.7497 29.7243C37.5828 29.4536 37.5828 29.4536 37.7497 29.7243V29.7243Z" fill="#FFDC00"/>
<path d="M38.585 30.1572C38.585 30.103 38.9746 29.9406 38.8076 29.7782C38.6407 29.8323 37.7502 29.7782 37.8059 29.9947C37.6946 30.0489 37.5276 29.3991 37.2493 29.8865C37.138 30.2655 38.3624 30.2113 38.585 30.1572Z" fill="#FFDC00"/>
<path d="M39.2523 30.1571C38.8627 30.2113 38.7514 30.0489 38.5288 30.2654C38.974 30.5362 39.1967 30.1571 39.2523 30.1571Z" fill="#FFDC00"/>
<path d="M37.8059 30.428C37.6946 30.428 37.0824 30.4821 37.0268 30.6446C36.9711 30.7529 37.1937 30.6987 37.1937 30.7529C36.9711 30.8611 36.5815 30.6446 36.4702 30.807V30.9694C36.5259 31.565 38.0285 30.9694 37.9172 30.807C37.9172 30.7529 37.7502 30.9153 37.7502 30.8611C37.6946 30.8611 37.8059 30.7529 37.6946 30.7529C37.7502 30.6987 38.5294 30.4821 37.8059 30.428Z" fill="#FFDC00"/>
<path d="M32.5738 31.4024C32.7964 31.4024 33.2973 31.2941 33.5199 31.4566C33.2973 31.4566 32.1842 31.3483 32.1286 31.5649C32.0729 31.8356 32.6851 31.7273 32.7964 31.7273C32.7964 31.8356 32.6295 31.8356 32.6851 31.9439C32.7964 32.2146 35.6904 31.7273 35.5791 31.7273C35.6347 31.7273 35.6347 31.6732 35.6904 31.6732C35.7461 31.7814 36.08 31.8356 36.08 31.619C36.08 31.4566 35.5791 31.4566 35.5791 31.4024C35.5791 31.1858 36.5252 30.7527 36.5252 30.6444C36.5252 30.6985 35.8574 30.3195 35.913 30.7527C35.4678 30.7527 35.5234 30.9151 34.9669 31.1317C34.9669 30.9693 35.2452 30.6985 34.7999 30.6985C34.8556 30.6985 34.633 30.9151 34.466 30.861C34.5217 30.8068 34.5217 30.8068 34.5773 30.8068C33.7425 29.9946 33.7425 30.9693 32.6295 31.0776C32.5738 31.1858 32.0173 31.24 32.5738 31.4024ZM35.3565 31.7273C35.3565 31.6732 35.3565 31.8356 35.3565 31.7273V31.7273ZM33.019 30.7527C33.1303 30.7527 32.7964 30.7527 33.019 30.7527C33.019 30.7527 32.9634 30.7527 33.019 30.7527ZM32.6851 31.1317C32.7408 31.1317 32.5738 31.1858 32.6851 31.1317V31.1317Z" fill="#FFDC00"/>
<path d="M35.468 31.9439C35.301 31.8897 35.301 32.1604 35.468 31.9439V31.9439Z" fill="#FFDC00"/>
<path d="M35.9128 31.89C35.4119 31.8359 35.8571 31.89 35.9128 31.89V31.89Z" fill="#FFDC00"/>
<path d="M36.9149 30.2114C37.4158 30.428 36.6923 30.049 36.9149 30.2114V30.2114Z" fill="#FFDC00"/>
<path d="M34.0212 30.0488C34.0769 30.0488 34.5221 29.9405 34.5221 29.8863C34.5221 29.8322 34.2995 29.9946 34.2438 29.8863C34.3551 29.8322 34.5221 29.7239 34.6334 29.778C34.5221 29.8322 34.6334 29.9405 34.6334 29.9946C34.5221 29.9946 34.1325 30.0488 34.1325 30.1029C34.0212 30.3195 35.023 30.0488 35.023 30.0488C34.9673 30.2654 35.0786 30.2112 35.2456 30.1571C35.2456 30.4278 34.5778 30.1029 34.5221 30.2653C34.5221 30.2653 36.9709 30.4819 37.0265 29.9946L36.9152 29.8863C36.7483 29.8863 36.6926 29.9946 36.47 29.8863C36.5256 29.8863 36.7483 29.7239 36.6926 29.7239C35.9134 30.2112 35.8578 29.778 35.1343 29.7239C35.1899 29.7239 35.5239 29.5073 35.5239 29.5073C35.3013 29.1283 33.9656 30.0488 34.0212 30.0488ZM35.0786 29.7239C35.0786 29.7239 35.023 29.7239 35.0786 29.7239V29.7239ZM34.9673 29.778C35.0786 29.778 34.4108 29.7239 34.9673 29.778C34.9673 29.778 34.8004 29.778 34.9673 29.778Z" fill="#FFDC00"/>
<path d="M35.6346 29.67C35.0781 29.5617 35.9685 29.7241 35.6346 29.67C35.6346 29.67 35.6903 29.67 35.6346 29.67Z" fill="#FFDC00"/>
<path d="M36.9701 29.4534C37.0257 28.7495 36.5805 29.8325 36.3579 29.3451C36.3579 29.3993 36.5805 29.3993 36.5805 29.3451C36.4135 29.3993 36.2466 29.3993 36.0796 29.5076C36.4135 29.6159 36.6361 29.5076 36.9701 29.4534Z" fill="#FFDC00"/>
<path d="M47.6001 35.1385C47.3218 35.0302 51.5515 32.4313 51.4958 32.4854C51.7741 32.702 54.1672 32.2688 54.0559 32.1064C53.7776 32.1064 53.3881 32.1064 53.1098 32.0522C53.722 31.8898 54.8907 32.1605 53.6107 31.2401C53.6663 31.1859 53.9446 31.2401 54.0003 31.2401C53.9446 31.2942 53.6663 31.2942 53.8333 31.4566C53.9446 31.5108 54.5568 31.7274 54.4455 31.3484C54.4455 31.2942 54.1672 31.2942 54.1672 31.2401C54.4455 31.1859 54.6124 31.2401 54.8907 31.1318C54.8351 31.1318 54.7794 31.1318 54.7794 31.0776C54.8351 31.0776 55.3916 31.0776 55.3359 30.9152C55.3359 30.861 55.1133 30.861 55.0577 30.8069C55.5586 30.6445 55.0577 30.482 55.0577 30.3737V30.3196C55.002 30.0489 55.6699 30.5362 55.5029 30.5362C55.4473 30.5362 55.7255 30.2113 55.7255 30.2113C55.6699 29.9947 55.4473 30.2113 55.3359 30.0489C55.3359 30.0489 55.6142 30.1572 55.6142 30.0489C55.6142 29.6698 55.1133 30.0489 55.0577 30.0489C55.169 29.7781 55.6142 29.724 55.8368 29.6698C55.8925 29.6157 55.6699 29.5616 55.7255 29.5616C55.7812 29.345 57.3951 29.3991 57.4508 29.1284C57.4508 29.1825 55.7812 28.9659 55.8368 28.9659C55.8368 28.9659 55.7812 29.2908 55.5029 29.1284C55.8368 28.8577 54.9464 29.0201 54.9464 28.9659C55.0577 28.9659 55.7812 28.9118 55.7812 28.8577C55.7812 28.5328 53.4437 28.7494 53.3881 28.6952C53.4437 28.6952 53.6663 28.6952 53.6663 28.5869C53.6663 28.4245 50.661 28.7494 50.661 28.5869C50.661 28.8577 51.1619 28.6411 51.2176 28.8035C50.995 28.8577 50.2158 28.4245 50.0488 28.6411C49.9932 28.7494 50.2158 28.7494 50.2158 28.8035C50.1045 28.8035 49.381 28.8035 49.4367 28.8035C49.6593 28.6952 47.6001 28.5869 47.4331 28.8577C47.4331 28.9118 47.4888 28.9118 47.4888 28.9659C47.4888 28.9659 47.4888 28.9659 47.4331 28.9659C47.4331 28.9659 46.2644 28.8577 46.3201 29.0742C46.3201 29.1825 46.7096 29.0742 46.7653 29.1284C46.8209 29.5615 44.6504 29.2367 44.5948 29.5616C44.5948 29.6157 45.04 29.724 45.0957 29.7781C44.9287 29.7781 44.6504 29.6698 44.5948 29.8323C44.5391 30.1572 45.4296 30.103 45.5966 30.0489C45.4852 30.2654 46.9879 29.9947 46.9879 30.2654C46.9879 30.482 46.9322 30.2654 47.0992 30.482C46.9322 30.5903 46.7653 30.861 47.0992 30.8069C47.0435 30.861 46.9879 30.861 46.9322 30.9152C46.9322 31.0235 47.1549 30.861 47.1549 30.861C47.1549 31.0235 46.8766 30.9693 46.8766 31.0235C46.8209 31.1859 46.9322 31.1318 47.0435 31.0776C46.9879 31.1318 46.7096 31.3484 46.7653 31.4025C46.9322 31.5649 47.2105 31.4566 47.3218 31.2942C47.2662 31.5108 47.3775 31.6191 47.6557 31.5649L47.6001 31.6732C47.2105 31.6732 47.2105 31.4566 47.2105 31.4566C46.7653 30.9693 46.3757 32.9186 47.3218 31.944V31.8898C47.3218 31.8357 47.0992 31.7815 47.0435 31.7274C47.0992 31.7274 47.3218 31.7274 47.3775 31.7274C47.4888 31.7274 45.9305 32.6478 46.4314 32.702C45.6522 33.7849 46.7653 34.6512 47.6001 35.1385ZM45.0957 29.8323C45.1513 29.8323 45.207 29.8323 45.0957 29.8323V29.8323Z" fill="#FFDC00"/>
<path d="M55.3363 30.807C55.5032 30.8611 55.7258 30.6445 55.5032 30.6445C55.2806 30.6445 55.3363 30.8611 55.3363 30.807Z" fill="#FFDC00"/>
<path d="M55.5034 29.9406C55.5034 30.103 55.5591 29.724 55.5034 29.9406V29.9406Z" fill="#FFDC00"/>
<path d="M55.6704 30.0488C55.7261 30.0488 55.9487 30.103 55.6704 30.0488V30.0488Z" fill="#FFDC00"/>
<path d="M54.6131 34.11C55.0027 34.0559 56.2827 33.4061 55.3923 33.352C55.3923 33.352 55.6149 33.2978 55.5592 33.2437C55.2253 33.0271 53.8896 33.4061 53.8896 33.5144C53.7226 32.973 52.9991 33.4061 53.0548 33.5144C53.1105 33.6227 53.5 33.4061 53.6113 33.5144C53.5 33.6227 53.2218 33.5686 53.1661 33.6227C52.9991 33.7851 53.5 33.6769 53.5557 33.6769C53.5557 33.731 53.5 33.8393 53.6113 33.7851C53.5557 33.8934 53.2774 33.8934 53.3887 34.0017C53.4444 34.2183 54.3905 34.11 54.6131 34.11Z" fill="#FFDC00"/>
<path d="M57.117 34.5972C56.95 34.5972 57.0613 34.8679 57.117 34.9221C57.1726 34.9221 57.5066 34.4889 57.117 34.5972Z" fill="#FFDC00"/>
<path d="M61.6811 30.049C61.8481 30.1573 62.5716 29.9949 62.5716 30.049C62.5716 30.049 62.5716 30.049 62.5716 30.1032C62.5159 30.1573 62.1264 30.1573 62.182 30.2656C62.5159 31.1861 63.3507 29.7783 63.6847 30.3739C63.6847 30.3739 64.5195 30.4822 64.5751 30.2656C64.5751 30.2114 63.6847 30.049 63.6847 29.8866C63.9073 29.9407 64.909 30.049 64.9647 29.7783C64.9647 29.7241 63.1838 29.5076 63.1281 29.6158C63.1281 29.67 63.0725 29.67 63.0725 29.7241C63.0725 29.8324 63.462 29.8324 63.462 29.8866C63.4064 29.9949 62.4603 29.5076 62.7385 29.8866C62.7942 29.8866 62.1264 29.7783 62.182 29.8324C62.182 29.8324 62.4046 29.8324 62.2933 29.7783C62.2377 29.7241 61.6255 29.7241 61.5698 29.7783C61.5698 29.7241 61.6811 30.1573 61.6811 30.049ZM63.462 29.9407C63.6847 29.7241 63.462 30.049 63.462 29.9407C63.462 29.8866 63.462 29.9407 63.462 29.9407Z" fill="#FFDC00"/>
<path d="M64.853 30.049C64.686 30.049 65.0756 29.9948 64.853 30.049C64.853 30.049 64.9086 30.049 64.853 30.049Z" fill="#FFDC00"/>
<path d="M65.0757 30.049C65.7435 30.049 65.187 29.8866 65.0757 30.049C65.0757 30.049 65.1313 29.9949 65.0757 30.049Z" fill="#FFDC00"/>
<path d="M65.8552 29.778C65.9665 29.778 66.3004 29.778 66.0221 29.7239C65.9108 29.6698 65.5769 29.778 65.8552 29.778C65.9108 29.778 65.7995 29.778 65.8552 29.778Z" fill="#FFDC00"/>
<path d="M65.0204 29.7781C65.1873 29.8322 64.8534 29.7239 65.0204 29.7781V29.7781Z" fill="#FFDC00"/>
<path d="M64.6863 30.5364C64.4637 30.6988 64.742 30.5364 64.6863 30.5364C64.6863 30.5905 64.6863 30.5364 64.6863 30.5364Z" fill="#FFDC00"/>
<path d="M57.173 31.9982C57.7296 31.8357 56.9504 32.1065 57.173 31.9982C57.2287 31.9982 57.173 32.0523 57.173 31.9982Z" fill="#FFDC00"/>
<path d="M58.5089 35.1386C58.3976 35.2469 58.2863 35.3011 58.342 35.4635H58.3976C58.5646 35.4635 58.6202 34.9762 58.5089 35.1386Z" fill="#FFDC00"/>
<path d="M56.7281 36.1132C56.5611 36.7088 57.1733 35.8424 57.1733 35.7883C57.062 35.7341 56.7281 36.059 56.7281 36.1132Z" fill="#FFDC00"/>
<path d="M59.0091 37.7375C58.8422 37.5751 58.3413 37.4668 58.2856 36.9795C58.1187 36.2215 57.9517 36.6005 57.7291 36.1132C57.7847 36.1673 58.2856 35.68 58.23 35.5717L58.1187 35.5176C57.896 35.5176 57.2839 36.059 57.0056 36.1673C57.0612 36.2215 57.0612 36.5463 57.0056 36.5463C57.1169 36.5463 57.1726 36.3298 57.2282 36.2756C57.2282 36.3298 57.0612 36.4922 57.1169 36.6005C57.1169 36.6005 57.3395 36.4922 57.3395 36.4381C57.4508 36.4922 57.0056 36.6546 57.0612 36.7088C57.1169 36.8171 57.2839 36.6005 57.2839 36.6005C57.2839 36.6546 57.1726 36.8171 57.1726 36.8712C57.2282 36.9254 57.4508 36.6546 57.4508 36.6546C57.4508 36.6546 57.3395 36.9254 57.3395 36.9795C57.3395 37.0337 57.7291 36.9795 57.7847 36.9795C57.7291 37.0878 57.2839 37.6834 57.3395 37.521C57.3395 37.6834 57.3952 37.6293 57.5621 37.6834C57.5065 37.7375 57.2282 37.9541 57.2282 38.0083C57.2282 38.1166 57.7291 38.1166 57.8404 38.1166C57.7847 38.1707 56.9499 38.4414 57.0056 38.5497C57.0056 38.4956 59.0648 38.3873 59.0648 38.1707C59.0648 38.1166 58.8422 38.1166 58.8422 38.1166C58.7309 38.0624 59.2317 37.9 59.0091 37.7375Z" fill="#FFDC00"/>
<path d="M56.7834 37.9541C57.9522 37.9541 56.0599 35.9507 56.3939 37.0878C56.3382 37.1419 55.893 37.1961 55.893 37.1961C55.6147 38.1707 55.726 37.9 56.7834 37.9541ZM56.0599 37.5751C55.9486 37.5751 56.2269 37.5209 56.0599 37.5751C56.0043 37.5751 56.0599 37.5751 56.0599 37.5751Z" fill="#FFDC00"/>
<path d="M60.7347 42.6107C61.3469 42.6107 60.846 41.2029 60.9574 41.2029C60.6234 41.2029 60.6234 41.636 60.846 41.7443C60.5121 41.7985 60.5121 42.6107 60.7347 42.6107C60.7904 42.6107 60.6234 42.6107 60.7347 42.6107Z" fill="#FFDC00"/>
<path d="M58.9545 42.3943C59.1214 42.6109 59.1214 42.2319 59.1214 42.1777C59.1214 42.1777 58.7875 42.1777 58.9545 42.3943Z" fill="#FFDC00"/>
<path d="M59.3995 42.2856C59.4552 42.2856 59.0656 42.1231 59.3995 42.2856V42.2856Z" fill="#FFDC00"/>
<path d="M64.2412 42.9898C64.1299 42.7732 64.1299 42.9898 64.2412 42.9898V42.9898Z" fill="#FFDC00"/>
<path d="M64.1851 43.1524C64.2407 43.3148 64.9086 43.5314 65.0199 43.5856C65.0199 43.2607 64.9642 43.369 65.0755 43.2065C65.1869 43.0441 64.0738 42.7192 64.1851 43.1524Z" fill="#FFDC00"/>
<path d="M53.8334 45.8052C53.6108 45.8593 53.5552 46.0759 53.5552 46.2383C53.5552 46.13 53.8891 45.8052 53.8334 45.8052C53.7778 45.8052 53.8334 45.8052 53.8334 45.8052Z" fill="#FFDC00"/>
<path d="M52.9984 46.2384C52.8315 46.2925 53.4437 46.0218 52.9984 46.2384C52.9984 46.2384 53.0541 46.1842 52.9984 46.2384Z" fill="#FFDC00"/>
<path d="M52.9433 46.022C52.8877 45.9137 53.0547 46.401 52.9433 46.022V46.022Z" fill="#FFDC00"/>
<path d="M52.4978 45.9137C52.4421 45.8596 52.2751 46.0762 52.4978 45.9137V45.9137Z" fill="#FFDC00"/>
<path d="M52.5537 46.1301C52.7207 46.1843 52.665 46.076 52.5537 46.1301V46.1301Z" fill="#FFDC00"/>
<path d="M52.3865 46.1845C52.0526 46.3469 52.6091 46.1303 52.3865 46.1845C52.3865 46.2386 52.4422 46.1845 52.3865 46.1845Z" fill="#FFDC00"/>
<path d="M52.721 44.1808C52.7766 43.9642 52.4984 44.7764 52.721 44.1808C52.721 44.1267 52.6653 44.1808 52.721 44.1808Z" fill="#FFDC00"/>
<path d="M50.6058 42.6647C50.4389 42.4481 50.7728 42.8272 50.6058 42.6647C50.6058 42.6106 50.6058 42.6647 50.6058 42.6647Z" fill="#FFDC00"/>
<path d="M50.0493 42.34C50.2719 42.4483 50.0493 42.2859 50.0493 42.34V42.34Z" fill="#FFDC00"/>
<path d="M49.8264 49.8661C49.6038 49.6495 50.1047 50.1368 49.8264 49.8661C49.7708 49.8661 49.8264 49.8661 49.8264 49.8661Z" fill="#FFDC00"/>
<path d="M50.1047 50.1371C50.2716 50.083 49.8264 50.2996 50.1047 50.1371V50.1371Z" fill="#FFDC00"/>
<path d="M50.5496 50.2454C50.4383 50.1371 50.7722 50.5161 50.5496 50.2454C50.494 50.2454 50.5496 50.2454 50.5496 50.2454Z" fill="#FFDC00"/>
<path d="M50.2163 50.5703C50.272 50.8411 50.4389 50.6786 50.2163 50.5703V50.5703Z" fill="#FFDC00"/>
<path d="M49.9936 50.6241C49.8823 50.4075 50.2162 50.9489 49.9936 50.6241C49.9936 50.6241 50.0493 50.6782 49.9936 50.6241Z" fill="#FFDC00"/>
<path d="M74.7593 52.1946C74.0915 52.1946 75.2046 52.2487 74.7593 52.1946C74.7593 52.1946 74.815 52.1946 74.7593 52.1946Z" fill="#FFDC00"/>
<path d="M71.4202 32.973C71.1976 33.0271 69.8063 33.8393 69.6393 33.352C69.7506 33.2437 69.9176 33.352 70.0289 33.2437C69.695 33.0813 69.528 33.0271 69.1941 32.973C69.1941 33.0271 69.4724 33.6769 69.528 33.731C69.3611 33.6227 68.5262 33.5144 68.4706 33.8934C68.4706 33.9476 68.7489 34.0559 68.6932 34.11C68.5262 34.3808 67.9141 33.7852 67.7471 34.0017C67.6914 34.11 68.1367 34.2725 68.1367 34.2183C68.1367 34.2183 68.1923 34.2725 68.1923 34.3266C67.6358 34.5973 67.0793 33.6769 66.801 33.4603C67.0793 33.4061 70.0846 33.6227 68.1923 33.0813C67.0793 32.7022 66.7453 32.7564 65.8549 32.5398C65.8549 32.5398 66.1888 32.4315 66.1888 32.3774C66.1331 32.1066 65.5209 32.3232 65.4653 32.3232L65.5766 32.1608C65.4096 31.9442 65.2427 32.2691 65.1314 32.3232C64.8531 32.1066 65.4653 32.3774 64.7975 32.4315C64.7975 32.3774 65.0201 32.2149 64.9644 32.1608C64.8531 31.9984 64.5748 32.3232 64.5192 32.3774C64.5192 32.2691 63.9626 32.2149 63.9626 32.2691C63.9626 32.2691 64.1296 32.3232 64.1853 32.4315C63.8513 32.3774 63.8513 32.4315 63.6287 32.594C63.6844 32.1066 63.2948 32.594 63.1835 32.7564C63.0165 32.4315 63.0165 32.7564 62.9052 32.8647C62.7939 32.4315 62.0148 33.1354 62.0148 33.1354C62.0704 33.1896 62.46 33.0271 62.5156 32.973C62.5156 33.4603 61.5695 33.7852 61.4582 33.9476C61.3469 34.2725 61.0687 34.3266 60.7347 34.3266C60.0669 34.3266 59.9556 35.3012 60.1782 35.7885C60.2338 36.1134 61.0686 36.4383 61.3469 35.7344C61.6808 36.8714 61.5139 36.6007 61.4582 37.2505C61.4582 37.3046 61.5695 37.3588 61.6252 37.3588C61.6808 37.3588 63.0722 36.7632 63.0722 36.4924C63.0722 36.4383 62.9609 36.5466 62.9609 36.5466C62.9609 36.5466 63.4618 34.5973 63.1835 34.9222C63.7957 34.2183 64.6305 34.2725 65.0201 34.0559C64.6861 33.9476 63.6844 34.8139 64.1296 35.3012C64.5192 35.6802 65.5766 35.5178 66.3001 35.6261C65.9105 35.6802 64.3522 35.6802 64.2966 36.1134C64.2966 36.0593 64.4079 36.2758 64.3522 36.2758C64.4079 36.2758 65.0757 36.0593 64.9644 36.1676C64.9088 36.2758 64.9644 36.4383 64.9644 36.5466C64.9088 36.5466 63.5731 37.1422 63.907 37.1963C63.8513 37.1963 62.293 37.5212 62.293 37.5212C62.46 37.088 61.5695 37.5212 61.4582 37.467C61.0687 37.7378 61.5139 36.33 61.4026 36.2217C60.7904 35.6261 60.9017 37.4129 60.9017 37.4129C60.9017 37.467 58.0077 38.7665 57.8407 38.7124C58.4529 38.7665 56.839 39.4163 56.9503 39.1456C56.839 39.4163 59.2321 40.9324 56.672 40.8241C55.225 40.8241 55.392 41.8528 55.3363 43.1523C55.8372 43.2065 58.3973 43.6938 58.0077 42.3943C57.7851 41.6904 61.0687 40.066 61.0687 41.2572C61.0687 41.1489 63.9626 42.9899 62.2374 42.9357C61.4582 42.9357 62.1817 43.5313 62.627 43.044C62.627 43.044 63.5731 42.1777 63.1278 42.1236C63.1835 42.1236 63.5174 42.3401 63.5174 42.3943C63.2391 41.8528 61.8478 41.4197 61.7921 40.7699C61.7365 40.0119 62.46 40.6616 62.46 40.6616C62.7383 40.9324 64.9088 43.6396 65.2427 43.2606C65.2983 43.2065 65.187 43.0982 65.187 43.044C65.2427 43.044 65.4096 43.2065 65.4096 43.0982C65.4096 43.1523 64.5748 42.2319 64.7418 42.2319C64.8531 42.2319 65.9105 41.907 65.9105 42.286C65.9105 42.3401 65.6323 42.6109 65.6879 42.7192C65.7992 42.9899 65.9662 42.6109 65.9662 42.6109C65.9662 42.7733 65.7436 43.0982 65.6879 43.0982C65.6323 43.044 66.0218 43.2065 66.1331 43.2065C65.9105 43.2606 65.9662 43.3689 66.1888 43.4772C66.1331 43.8021 65.9105 43.6938 66.3558 43.5313C66.3558 43.5855 66.1888 43.5855 66.1888 43.6396C66.5784 43.6938 66.1331 43.8562 66.3001 43.9104C66.4671 43.9645 66.4671 43.6396 66.5784 43.5855C66.634 43.8021 68.5262 44.0187 68.7489 43.6396C68.7489 43.6396 68.8045 43.6396 68.8045 43.6938C70.0846 45.0474 66.8566 45.9679 65.7992 45.4264C64.7974 44.9391 63.5174 45.6972 63.4618 45.643C62.7383 45.643 61.9035 44.5601 61.2356 44.5601C60.9017 44.5601 61.5139 43.5855 61.4026 43.3689C61.2356 43.0982 58.8982 43.4231 58.4529 43.4772C57.1729 43.6396 56.4494 43.9104 55.392 44.5601C55.1694 44.6684 54.1119 46.1303 53.8893 46.4011C53.4997 46.8884 52.9989 47.4298 52.7206 48.0254C52.5536 48.4044 51.9971 51.22 52.2754 51.5449C52.7762 52.1405 53.2771 53.061 53.945 53.819C55.1137 55.3892 57.0059 54.2522 58.4529 54.0897C58.8982 54.0897 61.2913 55.0643 60.4565 55.8765C59.9556 56.3638 61.2913 58.9628 61.5139 59.6126C62.0704 61.0745 60.4565 62.1574 61.5139 63.8359C62.2374 64.9188 62.293 67.1929 62.7383 68.1676C63.9626 70.4958 68.5819 65.8934 68.3036 64.0525C68.8602 62.9696 70.1959 62.4281 70.1959 60.6955C70.1959 60.4247 69.3054 57.5009 70.4741 57.555C71.5872 57.6092 73.869 53.6566 73.869 52.8985C73.869 52.6278 71.6985 52.7361 71.1976 52.6278C71.6429 52.1405 69.6393 50.2454 69.4724 49.3249C69.3054 48.4586 67.7471 46.9967 67.9697 46.0762C68.0254 46.2386 68.3036 46.8342 68.5262 46.8342C68.5819 46.8342 68.6932 46.4011 68.6932 46.3469C68.6932 46.4552 71.5872 52.2488 71.5315 52.2488C72.1994 52.2488 73.1455 51.4366 73.7577 51.4907C74.6482 51.599 75.5943 49.7581 76.0395 49.5956C76.0395 49.5956 76.6517 49.2708 76.6517 48.9459C76.6517 49.0542 75.0377 47.5923 75.3717 47.5923C74.9821 47.5923 74.6482 48.2962 74.0916 48.2962C73.6464 48.1879 74.2029 47.5381 73.7577 47.484C73.6464 47.484 73.702 47.8088 73.6464 47.8088C73.6464 47.8088 72.0881 45.9137 73.1455 46.1303C73.3125 46.1303 74.5368 47.9171 74.9821 47.3757C75.3717 46.9967 76.0952 48.2962 77.0969 48.0254C77.5978 48.1337 78.21 47.7547 78.5996 48.1337C78.7665 48.2962 79.3231 49.0542 79.657 48.8918C79.0448 44.5601 77.3752 40.4451 74.8151 36.8714C74.3142 36.2217 72.1994 32.8647 71.4202 32.973Z" fill="#FFDC00"/>
<path d="M79.5454 48.8916C79.2671 49.054 79.3227 48.9999 79.6567 49.3247C79.768 48.9457 79.7123 48.7833 79.5454 48.8916C79.4897 48.9457 79.5454 48.8916 79.5454 48.8916Z" fill="#FFDC00"/>
<path d="M73.0896 61.0744C72.7 60.8036 73.034 61.2368 72.6444 61.2368C73.3122 61.2368 71.0861 62.428 71.253 62.1573C71.0304 62.4822 70.6965 65.0811 71.0861 65.4602C72.1991 66.4889 73.1453 62.1031 73.0896 62.1573C73.1453 62.1573 73.1453 62.3197 73.2009 62.3197C73.4235 62.1573 73.3122 61.1827 73.0896 61.0744Z" fill="#FFDC00"/>
<path d="M70.3064 32.9728C70.4177 33.0811 70.6403 32.9728 70.696 32.9187C70.8073 32.8104 69.9725 32.5938 70.3064 32.9728C70.3064 33.027 70.3064 32.9728 70.3064 32.9728Z" fill="#FFDC00"/>
<path d="M63.4065 36.6008C63.4622 36.6008 63.7405 36.2218 63.6848 36.2218C63.6291 35.8427 63.2396 36.6549 63.4065 36.6008Z" fill="#FFDC00"/>
<path d="M62.5161 37.1421C62.7387 37.3045 62.4048 37.0338 62.5161 37.1421V37.1421Z" fill="#FFDC00"/>
<path opacity="0.2" d="M79.8799 52.8444C79.8799 37.3046 66.9126 24.6887 50.9399 24.6887V81.0001C66.9126 81.0001 79.8799 68.3842 79.8799 52.8444Z" fill="#00B4C8"/>
<path d="M78.8224 17.2707C77.9319 17.1083 77.0415 17 76.2067 17C68.9717 17 67.3021 23.7682 67.3021 23.8223L66.5229 27.1252L65.7438 23.8223C65.6881 23.5516 64.0742 17.2707 56.8948 17.2707C56.06 17.2707 55.1696 17.379 54.2235 17.5415C50.3277 18.2453 47.4894 22.7936 48.1572 27.2876C49.3259 35.1929 63.6846 46.2927 66.5229 48.4044C69.3056 46.2927 83.7199 35.247 84.8887 27.2876C85.5565 22.7394 82.6625 17.9746 78.8224 17.2707Z" fill="#DC3200"/>
<path d="M78.8224 17.2707C77.932 17.1083 77.0415 17 76.2067 17C68.9717 17 67.3021 23.7682 67.3021 23.8223L66.5229 27.1252V27.0711V48.3503C69.3613 46.2386 83.7199 35.1929 84.8887 27.2335C85.5565 22.7394 82.6625 17.9746 78.8224 17.2707Z" fill="#F03C00"/>
</g>
<defs>
<clipPath id="clip0">
<rect width="63" height="64" fill="white" transform="translate(22 17)"/>
</clipPath>
</defs>
</svg>
