<svg width="104" height="104" viewBox="0 0 104 104" fill="none" xmlns="http://www.w3.org/2000/svg">
<circle cx="52" cy="52" r="52" fill="#3E3E3E"/>
<g clip-path="url(#clip0)">
<path d="M77.5223 77H26.4162C25.6158 77 24.9385 76.3227 24.9385 75.5222V24.4162C25.0001 23.6773 25.6774 23 26.4778 23H77.5839C78.3843 23 79.0616 23.6773 79.0616 24.4778V75.5838C79.0001 76.3843 78.3843 77 77.5223 77Z" fill="white"/>
<path d="M76.0445 26.0171H28.0171V74.0445H76.0445V26.0171Z" fill="#3C3D3F"/>
<path d="M37.0686 30.7583H32.5737V35.2532H37.0686V30.7583Z" fill="#DD3B4A"/>
<path d="M70.6262 35.2532L67.3013 30.7583H74.0128L70.6262 35.2532Z" fill="#DD3B4A"/>
<path d="M58.8655 30.7583H40.5781V35.2532H58.8655V30.7583Z" fill="#DD3B4A"/>
<path d="M37.0686 39.1938H32.5737V43.6887H37.0686V39.1938Z" fill="#1E995D"/>
<path d="M70.6262 39.1938L74.0128 43.6271H67.3013L70.6262 39.1938Z" fill="#1E995D"/>
<path d="M62.8678 39.1938H40.5781V43.6887H62.8678V39.1938Z" fill="#1E995D"/>
<path d="M37.0686 47.5679H32.5737V52.0627H37.0686V47.5679Z" fill="#DD3B4A"/>
<path d="M70.6262 52.0627L67.3013 47.5679H74.0128L70.6262 52.0627Z" fill="#DD3B4A"/>
<path d="M53.1391 47.5679H40.5781V52.0627H53.1391V47.5679Z" fill="#DD3B4A"/>
<path d="M37.0686 55.9419H32.5737V60.4368H37.0686V55.9419Z" fill="#1E995D"/>
<path d="M70.6262 55.9419L74.0128 60.4368H67.3013L70.6262 55.9419Z" fill="#1E995D"/>
<path d="M50.4299 55.9419H40.5781V60.4368H50.4299V55.9419Z" fill="#1E995D"/>
<path d="M37.0686 64.3774H32.5737V68.8723H37.0686V64.3774Z" fill="#1E995D"/>
<path d="M70.6262 64.3774L74.0128 68.8107H67.3013L70.6262 64.3774Z" fill="#1E995D"/>
<path d="M64.2839 64.3774H40.5781V68.8723H64.2839V64.3774Z" fill="#1E995D"/>
</g>
<defs>
<clipPath id="clip0">
<rect width="54" height="54" fill="white" transform="translate(25 23)"/>
</clipPath>
</defs>
</svg>
