<svg width="104" height="104" viewBox="0 0 104 104" fill="none" xmlns="http://www.w3.org/2000/svg">
<circle cx="52" cy="52" r="52" fill="#3E3E3E"/>
<path d="M26.3745 43.0843V37.7739L52 19L77.6255 37.7739V43.0843H26.3745Z" fill="#A3ACB1"/>
<path d="M77.3046 37.9349V42.6553H26.749V37.9349L52.0001 19.4292L77.3046 37.9349ZM72.5968 39.0614L52.0001 23.9886L31.4033 39.0614H72.5968Z" fill="white"/>
<path d="M62.5927 67.1684H62.7532V66.1493C62.7532 65.7202 63.0742 65.3983 63.5022 65.3983H64.4652V49.5209H63.7162C63.1812 49.5209 62.7532 49.0918 62.7532 48.5554V47.429C62.2717 46.9462 61.9507 46.2489 61.9507 45.4979C61.9507 43.9424 63.2347 42.655 64.7861 42.655H73.2388C74.7903 42.655 76.0742 43.9424 76.0742 45.4979C76.0742 46.2489 75.7532 46.9462 75.2717 47.429V48.5554C75.2717 49.0918 74.8438 49.5209 74.3088 49.5209H73.6133V65.452H74.5763C75.0042 65.452 75.3252 65.7738 75.3252 66.2029V67.2221H75.4857C75.9137 67.2221 76.2347 67.4903 76.2347 67.9194V70.065H61.8438V67.9194C61.8438 67.4903 62.2182 67.1684 62.5927 67.1684Z" fill="#A3ACB1"/>
<path d="M75.8065 67.9733C75.8065 67.7051 75.646 67.5442 75.432 67.5442H62.539C62.432 67.5442 62.325 67.5978 62.2715 67.6515C62.2181 67.7587 62.1646 67.866 62.1646 67.9733V69.6361H75.753V67.9733H75.8065Z" fill="white"/>
<path d="M75.6994 45.5517C75.6994 46.8927 74.5759 48.0191 73.2385 48.0191C71.9011 48.0191 70.7776 46.8927 70.7776 45.5517C70.7776 45.4444 70.7776 45.3371 70.8311 45.1762H67.2467C67.2467 45.2835 67.3002 45.3907 67.3002 45.5517C67.3002 46.8927 66.1768 48.0191 64.8393 48.0191C63.5019 48.0191 62.3784 46.8927 62.3784 45.5517C62.3784 44.2107 63.5019 43.0842 64.8393 43.0842H73.292C74.6294 43.0842 75.6994 44.157 75.6994 45.5517ZM73.2385 44.4789C72.65 44.4789 72.1685 44.9616 72.1685 45.5517C72.1685 46.1417 72.65 46.6245 73.2385 46.6245C73.827 46.6245 74.3085 46.1417 74.3085 45.5517C74.3085 44.9616 73.827 44.4789 73.2385 44.4789ZM63.7694 45.5517C63.7694 46.1417 64.2508 46.6245 64.8393 46.6245C65.4278 46.6245 65.9093 46.1417 65.9093 45.5517C65.9093 44.9616 65.4278 44.4789 64.8393 44.4789C64.2508 44.4789 63.7694 44.9616 63.7694 45.5517Z" fill="white"/>
<path d="M73.2388 65.5057H64.7861V49.1455H73.2388V65.5057ZM68.2635 52.0421V62.6091C68.2635 63.0382 68.5845 63.3601 69.0125 63.3601C69.4405 63.3601 69.7614 63.0382 69.7614 62.6091V52.0421C69.7614 51.6129 69.4405 51.2911 69.0125 51.2911C68.638 51.2911 68.2635 51.6129 68.2635 52.0421ZM65.4816 52.0421V62.6091C65.4816 63.0382 65.8026 63.3601 66.2306 63.3601C66.6586 63.3601 66.9795 63.0382 66.9795 62.6091V52.0421C66.9795 51.6129 66.6586 51.2911 66.2306 51.2911C65.8026 51.2911 65.4816 51.6129 65.4816 52.0421ZM71.8479 51.2911C71.4199 51.2911 71.0989 51.6129 71.0989 52.0421V62.6091C71.0989 63.0382 71.4199 63.3601 71.8479 63.3601C72.2758 63.3601 72.5968 63.0382 72.5968 62.6091V52.0421C72.5968 51.6129 72.2223 51.2911 71.8479 51.2911Z" fill="white"/>
<path d="M41.4073 67.1684H41.2468V66.1493C41.2468 65.7202 40.9258 65.3983 40.4979 65.3983H39.5349V49.5209H40.2839C40.8188 49.5209 41.2468 49.0918 41.2468 48.5554V47.429C41.7283 46.9462 42.0493 46.2489 42.0493 45.4979C42.0493 43.9424 40.7654 42.655 39.2139 42.655H30.7612C29.2098 42.655 27.9258 43.9424 27.9258 45.4979C27.9258 46.2489 28.2468 46.9462 28.7283 47.429V48.5554C28.7283 49.0918 29.1563 49.5209 29.6913 49.5209H30.4402V65.452H29.4238C28.9958 65.452 28.6748 65.7738 28.6748 66.2029V67.2221H28.5678C28.1398 67.2221 27.8188 67.4903 27.8188 67.9194V70.065H42.1563V67.9194C42.1563 67.4903 41.8353 67.1684 41.4073 67.1684Z" fill="#A3ACB1"/>
<path d="M28.1934 67.9733C28.1934 67.7051 28.3539 67.5442 28.5678 67.5442H41.4608C41.5678 67.5442 41.6748 67.5978 41.7283 67.6515C41.7818 67.7587 41.8353 67.866 41.8353 67.9733V69.6361H28.2469V67.9733H28.1934Z" fill="white"/>
<path d="M30.7613 43.0842H39.214C40.5514 43.0842 41.6749 44.2107 41.6749 45.5517C41.6749 46.8927 40.5514 48.0191 39.214 48.0191C37.8765 48.0191 36.7531 46.8927 36.7531 45.5517C36.7531 45.4444 36.7531 45.3371 36.8066 45.1762H33.2222C33.2222 45.2835 33.2757 45.3907 33.2757 45.5517C33.2757 46.8927 32.1522 48.0191 30.8148 48.0191C29.4773 48.0191 28.3539 46.8927 28.3539 45.5517C28.3004 44.157 29.4238 43.0842 30.7613 43.0842ZM29.6913 45.5517C29.6913 46.1417 30.1728 46.6245 30.7613 46.6245C31.3498 46.6245 31.8313 46.1417 31.8313 45.5517C31.8313 44.9616 31.3498 44.4789 30.7613 44.4789C30.1728 44.4789 29.6913 44.9616 29.6913 45.5517ZM39.214 44.4789C38.6255 44.4789 38.144 44.9616 38.144 45.5517C38.144 46.1417 38.6255 46.6245 39.214 46.6245C39.8024 46.6245 40.2839 46.1417 40.2839 45.5517C40.2839 44.9616 39.8024 44.4789 39.214 44.4789Z" fill="white"/>
<path d="M30.7612 49.1455H39.2139V65.5057H30.7612V49.1455ZM34.9876 51.2911C34.5596 51.2911 34.2386 51.6129 34.2386 52.0421V62.6091C34.2386 63.0382 34.5596 63.3601 34.9876 63.3601C35.4156 63.3601 35.7365 63.0382 35.7365 62.6091V52.0421C35.7365 51.6129 35.4156 51.2911 34.9876 51.2911ZM37.7695 51.2911C37.3415 51.2911 37.0205 51.6129 37.0205 52.0421V62.6091C37.0205 63.0382 37.3415 63.3601 37.7695 63.3601C38.1974 63.3601 38.5184 63.0382 38.5184 62.6091V52.0421C38.5184 51.6129 38.1974 51.2911 37.7695 51.2911ZM31.4567 52.0421V62.6091C31.4567 63.0382 31.7777 63.3601 32.2057 63.3601C32.6337 63.3601 32.9546 63.0382 32.9546 62.6091V52.0421C32.9546 51.6129 32.6337 51.2911 32.2057 51.2911C31.7777 51.2911 31.4567 51.6129 31.4567 52.0421Z" fill="white"/>
<path d="M26 75V70.2261C26 69.9579 26.214 69.6897 26.535 69.6897H77.465C77.7325 69.6897 78 69.9043 78 70.2261V75H26Z" fill="#AFAFBD"/>
<path d="M26.642 70.0115H77.4116C77.572 70.0115 77.679 70.1188 77.679 70.2797V74.6245H26.3745V70.2797C26.3745 70.1724 26.4815 70.0115 26.642 70.0115Z" fill="white"/>
<path d="M62.9835 58.8565C64.3516 52.7884 60.5545 46.7573 54.5025 45.3855C48.4504 44.0137 42.4352 47.8209 41.0671 53.889C39.6989 59.9571 43.496 65.9883 49.548 67.36C55.6001 68.7318 61.6153 64.9246 62.9835 58.8565Z" fill="#F1A42A"/>
<path d="M51.9998 48.1802C47.506 48.1802 43.8682 51.8277 43.8682 56.3334C43.8682 60.8392 47.506 64.4867 51.9998 64.4867C56.4937 64.4867 60.1315 60.8392 60.1315 56.3334C60.1315 51.8277 56.4937 48.1802 51.9998 48.1802Z" fill="#FFC90D"/>
<path d="M52.9094 46.5173C52.9094 47.0001 52.5349 47.3756 52.0534 47.3756C51.572 47.3756 51.1975 47.0001 51.1975 46.5173C51.1975 46.0346 51.572 45.6591 52.0534 45.6591C52.4814 45.6054 52.9094 46.0346 52.9094 46.5173ZM45.6872 47.6438C45.3127 47.912 45.2057 48.502 45.4732 48.8775C45.7407 49.253 46.3292 49.3602 46.7036 49.092C47.0781 48.8238 47.1851 48.2338 46.9176 47.8583C46.6501 47.4828 46.1152 47.3756 45.6872 47.6438ZM41.8353 53.0614C41.6748 53.5441 41.9423 54.0269 42.4238 54.1878C42.9053 54.3487 43.3868 54.0805 43.5473 53.5978C43.7078 53.115 43.4403 52.6323 42.9588 52.4714C42.4773 52.3104 41.9423 52.5786 41.8353 53.0614ZM41.8353 59.7127C41.9958 60.1955 42.4773 60.41 42.9588 60.3028C43.4403 60.1418 43.6543 59.6591 43.5473 59.1763C43.3868 58.6936 42.9053 58.479 42.4238 58.5863C41.8888 58.7472 41.6748 59.23 41.8353 59.7127ZM45.6872 65.0767C46.0617 65.3449 46.6501 65.2913 46.9176 64.8622C47.1851 64.4867 47.1316 63.8966 46.7036 63.6284C46.3292 63.3602 45.7407 63.4139 45.4732 63.843C45.2057 64.2185 45.3127 64.7549 45.6872 65.0767ZM51.9999 67.115C52.4814 67.115 52.8559 66.7396 52.8559 66.2568C52.8559 65.774 52.4814 65.3986 51.9999 65.3986C51.5185 65.3986 51.144 65.774 51.144 66.2568C51.144 66.7396 51.5185 67.115 51.9999 67.115ZM58.3127 65.0767C58.6872 64.8085 58.7942 64.2185 58.5267 63.843C58.2592 63.4675 57.6707 63.3602 57.2962 63.6284C56.9218 63.8966 56.8148 64.4867 57.0822 64.8622C57.3497 65.2376 57.9382 65.3449 58.3127 65.0767ZM62.2181 59.7127C62.3785 59.23 62.1111 58.7472 61.6296 58.5863C61.1481 58.4254 60.6666 58.6936 60.5061 59.1763C60.3456 59.6591 60.6131 60.1418 61.0946 60.3028C61.5761 60.41 62.0576 60.1419 62.2181 59.7127ZM62.2181 53.0614C62.0576 52.5786 61.5761 52.3641 61.0946 52.4714C60.6131 52.6323 60.3991 53.115 60.5061 53.5978C60.6666 54.0805 61.1481 54.2951 61.6296 54.1878C62.1111 54.0269 62.3785 53.4905 62.2181 53.0614ZM58.3127 47.6438C57.9382 47.3756 57.3497 47.4292 57.0822 47.8583C56.8148 48.2338 56.8683 48.8238 57.2962 49.092C57.6707 49.3602 58.2592 49.3066 58.5267 48.8775C58.7942 48.502 58.6872 47.9656 58.3127 47.6438Z" fill="#FFC90D"/>
<path d="M55.8517 58.908C55.8517 57.0843 54.4607 56.226 53.1233 55.6896V52.2567C53.6582 52.364 54.2467 52.5249 54.9422 52.8467L55.5307 53.1149V51.5057L55.3167 51.3985C54.8352 51.1839 54.1932 50.9157 53.1233 50.8084V49.5747H52.5348V50.7548C52.3743 50.7548 52.1603 50.7548 51.9998 50.7548C51.8393 50.7548 51.6253 50.7548 51.4648 50.7548V49.5747H50.8763V50.8621C49.0039 51.2375 48.1479 52.4713 48.1479 53.6513C48.1479 55.2605 49.2179 56.1188 50.8763 56.7088V60.41C50.0204 60.249 49.2714 59.8736 48.7899 59.4981L48.1479 59.0153V61L48.3084 61.1073C48.6294 61.3218 49.4854 61.8046 50.8763 61.9655V63.1992H51.4648V62.0191C51.5183 62.0191 51.6253 62.0191 51.6788 62.0191C51.9463 62.0191 52.2673 62.0191 52.5348 61.9655V63.1992H53.1233V61.8582C54.5677 61.4828 55.8517 60.6245 55.8517 58.908ZM51.9998 52.1494C52.2138 52.1494 52.3743 52.1494 52.5883 52.1494V55.4751C52.3743 55.4214 52.1603 55.3142 51.9463 55.2605C51.7858 55.2069 51.6253 55.1533 51.5183 55.0996V52.1494C51.6253 52.2031 51.8393 52.1494 51.9998 52.1494ZM50.0739 53.6513C50.0739 53.0613 50.3949 52.6322 50.8763 52.4176V54.9387C50.2879 54.6169 50.0739 54.2414 50.0739 53.6513ZM51.7323 60.4636C51.6788 60.4636 51.5718 60.4636 51.5183 60.4636V56.8697C51.6253 56.9234 51.6788 56.9234 51.7858 56.977C52.1068 57.0843 52.3743 57.1379 52.5883 57.2452V60.41C52.3208 60.4636 51.9998 60.4636 51.7323 60.4636ZM53.1233 60.1418V57.5134C53.9257 58.0498 53.9792 58.5862 53.9792 58.908C53.9792 59.3908 53.6582 59.8199 53.1233 60.1418Z" fill="white"/>
</svg>
