<svg width="673" height="613" viewBox="0 0 673 613" fill="none" xmlns="http://www.w3.org/2000/svg">
<g clip-path="url(#clip0)">
<path d="M527.259 338.157H525.701V447.141H527.259V338.157Z" fill="#F2F2F2"/>
<path d="M527.259 219.053H525.701V328.037H527.259V219.053Z" fill="#F2F2F2"/>
<path d="M527.259 68.0322H525.701V177.016H527.259V68.0322Z" fill="#F2F2F2"/>
<path d="M526.48 357.618C537.239 357.618 545.96 348.905 545.96 338.157C545.96 327.408 537.239 318.695 526.48 318.695C515.721 318.695 506.999 327.408 506.999 338.157C506.999 348.905 515.721 357.618 526.48 357.618Z" fill="#F2F2F2"/>
<path d="M526.48 244.742C546.707 244.742 563.104 228.362 563.104 208.155C563.104 187.948 546.707 171.567 526.48 171.567C506.253 171.567 489.856 187.948 489.856 208.155C489.856 228.362 506.253 244.742 526.48 244.742Z" fill="#F2F2F2"/>
<path d="M526.48 117.075C553.592 117.075 575.571 95.1176 575.571 68.032C575.571 40.9465 553.592 18.9893 526.48 18.9893C499.368 18.9893 477.389 40.9465 477.389 68.032C477.389 95.1176 499.368 117.075 526.48 117.075Z" fill="#F2F2F2"/>
<path d="M506.999 54.0203C511.303 54.0203 514.792 50.535 514.792 46.2357C514.792 41.9364 511.303 38.4512 506.999 38.4512C502.696 38.4512 499.207 41.9364 499.207 46.2357C499.207 50.535 502.696 54.0203 506.999 54.0203Z" fill="#D0CDE1"/>
<path d="M538.169 68.0329C540.751 68.0329 542.844 65.9417 542.844 63.3621C542.844 60.7826 540.751 58.6914 538.169 58.6914C535.586 58.6914 533.493 60.7826 533.493 63.3621C533.493 65.9417 535.586 68.0329 538.169 68.0329Z" fill="#D0CDE1"/>
<path d="M526.48 92.943C529.062 92.943 531.155 90.8519 531.155 88.2723C531.155 85.6927 529.062 83.6016 526.48 83.6016C523.898 83.6016 521.805 85.6927 521.805 88.2723C521.805 90.8519 523.898 92.943 526.48 92.943Z" fill="#D0CDE1"/>
<path d="M304.22 526.586C259.281 526.588 214.775 517.828 173.196 500.797C139.354 487.044 108.558 466.76 82.5714 441.105C56.5844 415.45 35.916 384.927 21.7487 351.284C7.58141 317.641 0.193272 281.538 0.00702921 245.04C-0.179213 208.541 6.8401 172.364 20.6633 138.579C31.7044 111.528 47.9706 86.9155 68.5332 66.1454C89.0957 45.3753 113.552 28.8547 140.506 17.5268C167.459 6.19888 196.382 0.285572 225.623 0.124476C254.865 -0.0366193 283.851 5.55765 310.928 16.5879C354.714 34.4247 389.614 68.9076 407.95 112.451C426.286 155.994 426.557 205.03 408.703 248.773C401.622 266.119 391.192 281.902 378.006 295.221C364.82 308.54 349.137 319.134 331.853 326.398C314.569 333.663 296.021 337.455 277.27 337.558C258.519 337.661 239.931 334.074 222.568 327.001C208.658 321.334 196.002 312.987 185.321 302.434C174.641 291.881 166.146 279.33 160.321 265.498C154.496 251.665 151.455 236.822 151.372 221.815C151.29 206.809 154.166 191.933 159.838 178.037C169.04 155.566 186.789 137.659 209.19 128.244C231.591 118.829 256.816 118.676 279.33 127.818C297.363 135.188 311.734 149.402 319.289 167.344C326.844 185.285 326.967 205.488 319.631 223.52C316.708 230.681 312.402 237.196 306.959 242.695C301.515 248.193 295.041 252.566 287.906 255.565C280.771 258.564 273.114 260.129 265.373 260.172C257.632 260.215 249.959 258.734 242.791 255.814C237.037 253.47 231.802 250.017 227.385 245.652C222.967 241.288 219.453 236.096 217.044 230.375C214.635 224.653 213.377 218.514 213.343 212.307C213.308 206.1 214.498 199.947 216.844 194.199C220.66 184.882 228.018 177.458 237.306 173.554C246.594 169.651 257.053 169.587 266.388 173.377C273.887 176.442 279.863 182.353 283.005 189.815C286.147 197.276 286.198 205.677 283.147 213.176C280.677 219.208 275.913 224.014 269.901 226.541C263.888 229.068 257.117 229.11 251.074 226.656C246.205 224.666 242.326 220.829 240.286 215.985C238.246 211.141 238.213 205.687 240.194 200.819C241.803 196.89 244.906 193.759 248.823 192.113C252.74 190.466 257.15 190.44 261.087 192.039C264.271 193.34 266.809 195.85 268.143 199.019C269.477 202.187 269.499 205.755 268.204 208.939C267.146 211.522 265.105 213.581 262.53 214.663C259.955 215.745 257.055 215.763 254.467 214.712C252.36 213.851 250.681 212.19 249.798 210.094C248.915 207.998 248.901 205.638 249.758 203.531C250.463 201.809 251.823 200.436 253.54 199.715C255.257 198.993 257.19 198.981 258.915 199.682C260.332 200.261 261.462 201.379 262.056 202.789C262.649 204.199 262.659 205.787 262.082 207.204C261.603 208.375 260.678 209.308 259.511 209.799C258.344 210.289 257.029 210.297 255.856 209.82C254.88 209.421 254.103 208.652 253.694 207.681C253.285 206.71 253.278 205.617 253.675 204.641C254.009 203.823 254.656 203.17 255.471 202.827C256.287 202.484 257.206 202.479 258.026 202.813C258.719 203.096 259.272 203.643 259.562 204.333C259.853 205.023 259.858 205.8 259.575 206.493C259.456 206.786 259.279 207.054 259.056 207.279C258.833 207.504 258.567 207.684 258.275 207.807C257.982 207.93 257.668 207.994 257.351 207.995C257.033 207.997 256.719 207.936 256.425 207.816C256.171 207.713 255.94 207.561 255.745 207.368C255.55 207.175 255.395 206.946 255.288 206.693C255.182 206.441 255.126 206.169 255.125 205.895C255.124 205.621 255.176 205.35 255.28 205.096C255.373 204.867 255.512 204.659 255.688 204.485C255.434 204.677 255.237 204.934 255.118 205.229C254.877 205.823 254.881 206.487 255.129 207.078C255.378 207.668 255.851 208.136 256.444 208.379C257.235 208.7 258.12 208.695 258.907 208.364C259.693 208.034 260.316 207.405 260.639 206.616C261.061 205.581 261.053 204.422 260.62 203.392C260.186 202.362 259.362 201.546 258.327 201.124C256.984 200.579 255.48 200.588 254.144 201.15C252.808 201.711 251.75 202.779 251.201 204.118C250.499 205.843 250.511 207.775 251.234 209.491C251.956 211.206 253.33 212.566 255.055 213.271C257.26 214.166 259.731 214.15 261.926 213.228C264.12 212.306 265.859 210.552 266.761 208.351C267.9 205.549 267.881 202.41 266.707 199.622C265.533 196.834 263.3 194.625 260.498 193.48C256.945 192.037 252.963 192.061 249.427 193.547C245.891 195.033 243.089 197.86 241.637 201.407C239.806 205.892 239.834 210.92 241.714 215.385C243.594 219.849 247.172 223.385 251.662 225.214C257.323 227.512 263.664 227.473 269.296 225.106C274.928 222.739 279.391 218.238 281.705 212.588C284.6 205.472 284.551 197.499 281.569 190.418C278.588 183.337 272.916 177.727 265.8 174.819C256.847 171.184 246.818 171.245 237.911 174.989C229.003 178.732 221.946 185.852 218.287 194.787C216.018 200.345 214.867 206.295 214.901 212.298C214.934 218.301 216.15 224.238 218.48 229.771C220.81 235.304 224.208 240.324 228.48 244.545C232.753 248.766 237.815 252.105 243.379 254.372C257.473 260.113 273.272 260.026 287.301 254.13C301.331 248.234 312.441 237.012 318.188 222.932C325.369 205.283 325.248 185.508 317.853 167.947C310.458 150.386 296.393 136.473 278.742 129.259C256.611 120.273 231.815 120.424 209.794 129.678C187.774 138.933 170.327 156.536 161.281 178.625C149.982 206.306 150.154 237.338 161.758 264.894C173.361 292.449 195.447 314.271 223.156 325.559C240.33 332.555 258.715 336.104 277.262 336.002C295.808 335.899 314.153 332.149 331.249 324.964C348.344 317.779 363.856 307.301 376.898 294.127C389.94 280.953 400.257 265.342 407.26 248.185C416.023 226.715 420.468 203.732 420.34 180.546C420.212 157.36 415.514 134.426 406.514 113.054C397.514 91.6825 384.389 72.2907 367.887 55.9863C351.386 39.6819 331.831 26.7842 310.34 18.0296C197.443 -27.9605 68.1418 26.3813 22.1061 139.166C-35.4787 280.247 32.564 441.827 173.784 499.356C350.409 571.306 552.698 486.289 624.721 309.839L626.163 310.427C600.341 373.606 556.471 427.792 500.025 466.227C443.58 504.662 377.056 525.644 308.752 526.557C307.241 526.576 305.728 526.586 304.22 526.586ZM256.972 205.517C256.936 205.517 256.901 205.524 256.867 205.538C256.802 205.566 256.75 205.618 256.723 205.684C256.697 205.748 256.683 205.817 256.684 205.887C256.684 205.957 256.698 206.025 256.725 206.09C256.752 206.154 256.791 206.212 256.841 206.261C256.89 206.31 256.949 206.348 257.014 206.375C257.224 206.461 257.46 206.459 257.67 206.371C257.88 206.283 258.046 206.116 258.133 205.905C258.25 205.618 258.257 205.298 258.154 205.005C258.05 204.713 257.843 204.468 257.571 204.318L257.073 205.537C257.041 205.524 257.007 205.517 256.972 205.517Z" fill="#3F3D56"/>
<path d="M381.483 219.847C402.802 219.847 420.084 202.582 420.084 181.284C420.084 159.986 402.802 142.721 381.483 142.721C360.164 142.721 342.882 159.986 342.882 181.284C342.882 202.582 360.164 219.847 381.483 219.847Z" fill="#2F2E41"/>
<path d="M424.011 296.51L428.686 311.3L367.907 320.642L368.686 305.073L424.011 296.51Z" fill="#A0616A"/>
<path d="M353.102 411.721L350.764 459.207C350.764 459.207 337.517 483.339 339.076 517.591C340.634 551.843 339.855 552.621 339.855 552.621L339.076 565.077L351.543 566.634V550.286C351.543 550.286 369.466 505.136 371.024 482.56L388.946 414.835L353.102 411.721Z" fill="#A0616A"/>
<path d="M441.155 411.721L443.492 459.207C443.492 459.207 456.739 483.339 455.181 517.591C453.622 551.843 454.401 552.621 454.401 552.621L455.181 565.077L442.713 566.634V550.286C442.713 550.286 424.791 505.136 423.232 482.56L405.31 414.835L441.155 411.721Z" fill="#A0616A"/>
<path d="M428.687 306.629C428.687 306.629 372.583 315.192 364.011 312.857L335.959 410.164C335.959 410.164 361.673 420.284 392.843 417.17C399.248 415.93 405.887 417.036 411.544 420.284C420.895 425.733 448.947 410.942 448.947 410.942L468.428 407.05L428.687 306.629Z" fill="#2F2E41"/>
<path d="M449.341 317.146H387.003V387.985H449.341V317.146Z" fill="#0FB953"/>
<path d="M439.981 324.916H377.643V395.756H439.981V324.916Z" fill="#F2F2F2"/>
<path d="M340.634 259.144L339.855 270.042L353.881 318.307C353.881 318.307 359.336 352.559 370.245 372.798C370.245 372.798 376.479 403.937 388.167 400.044C399.855 396.152 382.712 365.792 382.712 365.792L370.245 319.085L355.44 257.587L340.634 259.144Z" fill="#A0616A"/>
<path d="M384.661 218.275C397.571 218.275 408.037 207.819 408.037 194.921C408.037 182.023 397.571 171.567 384.661 171.567C371.75 171.567 361.284 182.023 361.284 194.921C361.284 207.819 371.75 218.275 384.661 218.275Z" fill="#A0616A"/>
<path d="M371.024 208.544C371.024 208.544 378.037 229.562 364.011 233.455C349.985 237.347 335.959 245.91 339.076 259.922L340.634 263.036L438.037 239.682C435.89 236.139 432.758 233.296 429.023 231.5C425.287 229.703 421.11 229.03 416.998 229.562C416.998 229.562 395.33 228.989 396.814 214.874L394.401 209.322L371.024 208.544Z" fill="#A0616A"/>
<path d="M434.921 238.125C434.921 238.125 438.817 238.125 448.947 251.359C459.077 264.593 466.09 271.599 466.09 271.599C466.09 271.599 475.44 276.269 469.986 287.168C464.531 298.066 445.051 308.965 445.051 308.965C445.051 308.965 425.57 332.318 423.232 320.641C420.895 308.965 439.596 302.737 439.596 302.737C439.596 302.737 453.622 289.503 452.843 281.719L420.895 255.251L434.921 238.125Z" fill="#A0616A"/>
<path d="M337.517 257.587C337.517 257.587 434.141 235.012 436.479 235.012L441.381 242.6C441.381 242.6 440.375 248.245 428.687 249.802C428.687 249.802 431.024 261.479 426.349 273.156V301.959C426.349 301.959 371.803 308.187 367.128 312.857L358.735 271.277C358.735 271.277 347.647 264.593 339.855 270.042C339.855 270.042 336.738 259.922 337.517 257.587Z" fill="#D0CDE1"/>
<path d="M353.102 563.52C353.102 563.52 345.002 553.652 339.312 561.311L332.063 575.975C332.063 575.975 311.803 610.228 332.842 612.563C353.881 614.898 355.44 607.114 355.44 607.114C355.44 607.114 353.881 597.772 355.44 596.215C356.998 594.658 358.557 593.88 358.557 590.766C358.557 587.652 353.102 563.52 353.102 563.52Z" fill="#2F2E41"/>
<path d="M441.154 563.52C441.154 563.52 449.255 553.652 454.945 561.311L462.193 575.975C462.193 575.975 482.453 610.228 461.414 612.563C440.375 614.898 438.817 607.114 438.817 607.114C438.817 607.114 440.375 597.772 438.817 596.215C437.258 594.658 435.7 593.88 435.7 590.766C435.7 587.652 441.154 563.52 441.154 563.52Z" fill="#2F2E41"/>
<path d="M346.167 164.873C352.517 164.873 357.665 159.73 357.665 153.386C357.665 147.042 352.517 141.899 346.167 141.899C339.816 141.899 334.668 147.042 334.668 153.386C334.668 159.73 339.816 164.873 346.167 164.873Z" fill="#2F2E41"/>
<path d="M416.799 161.592C423.149 161.592 428.297 156.449 428.297 150.105C428.297 143.761 423.149 138.618 416.799 138.618C410.449 138.618 405.301 143.761 405.301 150.105C405.301 156.449 410.449 161.592 416.799 161.592Z" fill="#2F2E41"/>
<path d="M404.48 145.181C404.48 142.348 405.528 139.615 407.423 137.507C409.318 135.4 411.926 134.066 414.746 133.762C413.14 133.587 411.515 133.752 409.978 134.246C408.44 134.74 407.024 135.552 405.821 136.629C404.618 137.706 403.656 139.025 402.998 140.498C402.339 141.972 401.999 143.568 401.999 145.181C401.999 146.795 402.339 148.391 402.998 149.864C403.656 151.338 404.618 152.656 405.821 153.733C407.024 154.811 408.44 155.623 409.978 156.117C411.515 156.611 413.14 156.775 414.746 156.6C411.926 156.297 409.318 154.963 407.423 152.855C405.528 150.747 404.48 148.014 404.48 145.181Z" fill="#2F2E41"/>
<path d="M333.319 162.678C331.335 160.654 330.169 157.969 330.046 155.138C329.923 152.308 330.851 149.532 332.653 147.344C331.383 148.341 330.338 149.595 329.586 151.023C328.833 152.451 328.39 154.021 328.286 155.632C328.182 157.242 328.418 158.856 328.98 160.369C329.542 161.882 330.417 163.26 331.547 164.412C332.678 165.565 334.039 166.467 335.542 167.059C337.044 167.651 338.655 167.92 340.269 167.849C341.882 167.777 343.463 167.367 344.907 166.645C346.352 165.923 347.628 164.904 348.652 163.656C346.425 165.411 343.628 166.282 340.798 166.101C337.968 165.92 335.304 164.701 333.319 162.678Z" fill="#2F2E41"/>
<path d="M381.483 163.232C367.875 163.232 356.844 169.661 356.844 177.591C356.844 181.139 359.061 184.382 362.721 186.887L367.465 183.454L366.175 188.833C366.71 189.081 367.256 189.32 367.826 189.542L374.912 181.283V191.429C377.085 191.777 379.282 191.951 381.483 191.95C395.091 191.95 406.122 185.521 406.122 177.591C406.122 169.661 395.091 163.232 381.483 163.232Z" fill="#2F2E41"/>
<path d="M405.301 150.104C405.301 150.104 403.515 158.309 414.674 161.591L405.301 150.104Z" fill="#0FB953"/>
<path d="M356.844 151.598C356.844 151.598 360.95 160.771 348.631 164.873L356.844 151.598Z" fill="#0FB953"/>
<path d="M362.934 204.089C363.97 203.799 364.246 201.551 363.549 199.067C362.853 196.583 361.449 194.804 360.413 195.094C359.377 195.383 359.101 197.632 359.798 200.116C360.494 202.6 361.898 204.379 362.934 204.089Z" fill="#A0616A"/>
<path d="M410.371 195.819C410.53 193.244 409.788 191.103 408.714 191.037C407.641 190.971 406.641 193.005 406.483 195.579C406.324 198.154 407.066 200.295 408.14 200.361C409.214 200.427 410.213 198.393 410.371 195.819Z" fill="#A0616A"/>
<path d="M672.98 231.516H610.642V302.355H672.98V231.516Z" fill="#0FB953"/>
<path d="M221.807 92.1719H159.469V163.011H221.807V92.1719Z" fill="#0FB953"/>
<path d="M666.72 310.931L602.823 310.893L602.866 238.497L666.763 238.534L666.72 310.931ZM604.383 309.338L665.163 309.373L665.203 240.09L604.423 240.055L604.383 309.338Z" fill="#3F3D56"/>
<path d="M210.893 104.62H170.373V109.291H210.893V104.62Z" fill="#F2F2F2"/>
<path d="M210.893 117.854H170.373V122.524H210.893V117.854Z" fill="#F2F2F2"/>
<path d="M210.893 131.088H170.373V135.759H210.893V131.088Z" fill="#F2F2F2"/>
<path d="M233.47 153.681L169.573 153.645L169.615 81.248L233.511 81.2849L233.47 153.681ZM171.132 152.088L231.912 152.124L231.952 82.8411L171.173 82.8057L171.132 152.088Z" fill="#3F3D56"/>
<path d="M79.9871 356.068H17.6489V426.908H79.9871V356.068Z" fill="#F2F2F2"/>
<path d="M69.0735 372.409H28.5537V406.661H69.0735V372.409Z" fill="#3F3D56"/>
<path d="M91.6506 417.579L27.7539 417.541L27.7958 345.145L91.692 345.183L91.6506 417.579ZM29.3131 415.986L90.0929 416.021L90.1329 346.738L29.3535 346.703L29.3131 415.986Z" fill="#3F3D56"/>
<path d="M48.8136 398.876C53.9779 398.876 58.1644 394.694 58.1644 389.535C58.1644 384.376 53.9779 380.193 48.8136 380.193C43.6494 380.193 39.4629 384.376 39.4629 389.535C39.4629 394.694 43.6494 398.876 48.8136 398.876Z" fill="#0FB953"/>
</g>
<defs>
<clipPath id="clip0">
<rect width="673" height="613" fill="white"/>
</clipPath>
</defs>
</svg>
