<svg width="1920" height="1203" viewBox="0 0 1920 1203" fill="none" xmlns="http://www.w3.org/2000/svg">
<rect width="1920" height="1053" fill="white"/>
<g filter="url(#filter0_d)">
<path d="M0 728H1934V1040.73C1934 1040.73 1520.06 1040.73 1450.5 1040.73C1380.94 1040.73 1409.12 1106 1397.62 1106C1386.11 1106 958.942 1106 958.942 1106H525.806C526.878 1067.87 515.733 1040.24 483.5 1040.73C451.267 1041.21 0 1040.73 0 1040.73V728Z" fill="white"/>
</g>
<g filter="url(#filter1_d)">
<path d="M526 1097L1401 1089.5V1173C1401 1185.15 1391.15 1195 1379 1195H548C535.85 1195 526 1185.15 526 1173V1097Z" fill="white"/>
</g>
<defs>
<filter id="filter0_d" x="-4" y="728" width="1942" height="386" filterUnits="userSpaceOnUse" color-interpolation-filters="sRGB">
<feFlood flood-opacity="0" result="BackgroundImageFix"/>
<feColorMatrix in="SourceAlpha" type="matrix" values="0 0 0 0 0 0 0 0 0 0 0 0 0 0 0 0 0 0 127 0"/>
<feOffset dy="4"/>
<feGaussianBlur stdDeviation="2"/>
<feColorMatrix type="matrix" values="0 0 0 0 0 0 0 0 0 0 0 0 0 0 0 0 0 0 0.25 0"/>
<feBlend mode="normal" in2="BackgroundImageFix" result="effect1_dropShadow"/>
<feBlend mode="normal" in="SourceGraphic" in2="effect1_dropShadow" result="shape"/>
</filter>
<filter id="filter1_d" x="522" y="1089.5" width="883" height="113.5" filterUnits="userSpaceOnUse" color-interpolation-filters="sRGB">
<feFlood flood-opacity="0" result="BackgroundImageFix"/>
<feColorMatrix in="SourceAlpha" type="matrix" values="0 0 0 0 0 0 0 0 0 0 0 0 0 0 0 0 0 0 127 0"/>
<feOffset dy="4"/>
<feGaussianBlur stdDeviation="2"/>
<feColorMatrix type="matrix" values="0 0 0 0 0 0 0 0 0 0 0 0 0 0 0 0 0 0 0.25 0"/>
<feBlend mode="normal" in2="BackgroundImageFix" result="effect1_dropShadow"/>
<feBlend mode="normal" in="SourceGraphic" in2="effect1_dropShadow" result="shape"/>
</filter>
</defs>
</svg>
